<svg id="Layer_1" data-name="Layer 1" xmlns="http://www.w3.org/2000/svg" width="204" height="547" viewBox="0 0 204 547">
  <defs>
    <style>
      .cls-1, .cls-3 {
        fill: #fff;
      }

      .cls-1 {
        opacity: 0.1;
      }

      .cls-2 {
        opacity: 0.8;
      }
    </style>
  </defs>
  <g>
    <g>
      <circle class="cls-1" cx="112.72" cy="469.97" r="41.85"/>
      <g class="cls-2">
        <path class="cls-3" d="M146.29,443.88a42.82,42.82,0,1,0-8.88,59.91A42.83,42.83,0,0,0,146.29,443.88Zm-68,50.45A41.85,41.85,0,1,1,136.83,503,41.85,41.85,0,0,1,78.29,494.33Z"/>
      </g>
      <path class="cls-3" d="M117.13,434.53a14.51,14.51,0,0,1,5.43,2.26c3.21,2.46,2.68,6.32.48,6-12.1-1.67-26.16,7.4-33.23,18.58-1.13,1.78-2.16,3.71-3.85,5s-4.28,1.64-5.82.19-1.36-3.65-.92-5.57c1.87-8,8.2-14.49,14.26-19.69a28.49,28.49,0,0,1,22.4-7Z"/>
    </g>
    <g>
      <circle class="cls-1" cx="165.91" cy="376.68" r="30.73"/>
      <g class="cls-2">
        <path class="cls-3" d="M190.56,357.53a31.44,31.44,0,1,0-6.51,44A31.43,31.43,0,0,0,190.56,357.53Zm-49.93,37a30.73,30.73,0,1,1,43,6.37A30.73,30.73,0,0,1,140.63,394.57Z"/>
      </g>
      <path class="cls-3" d="M169.15,350.66a10.61,10.61,0,0,1,4,1.66c2.36,1.81,2,4.64.35,4.42-8.88-1.23-19.21,5.43-24.4,13.64a13,13,0,0,1-2.82,3.66c-1.24.93-3.15,1.2-4.27.14s-1-2.68-.68-4.09c1.37-5.9,6-10.64,10.47-14.46a20.89,20.89,0,0,1,16.44-5.12C168.54,350.55,168.85,350.6,169.15,350.66Z"/>
    </g>
    <g>
      <circle class="cls-1" cx="94.08" cy="328.21" r="19.91"/>
      <g class="cls-2">
        <path class="cls-3" d="M110.05,315.8a20.37,20.37,0,1,0-4.22,28.5A20.38,20.38,0,0,0,110.05,315.8Zm-32.35,24a19.91,19.91,0,1,1,27.85,4.12A19.91,19.91,0,0,1,77.7,339.8Z"/>
      </g>
      <path class="cls-3" d="M96.18,311.35a7,7,0,0,1,2.58,1.08c1.53,1.17,1.28,3,.23,2.86-5.75-.79-12.44,3.52-15.81,8.84a8.54,8.54,0,0,1-1.83,2.37,2.22,2.22,0,0,1-2.76.09,2.76,2.76,0,0,1-.44-2.65c.88-3.82,3.9-6.89,6.78-9.37a13.56,13.56,0,0,1,10.65-3.32Z"/>
    </g>
    <g>
      <circle class="cls-1" cx="142.27" cy="256.5" r="13.25"/>
      <g class="cls-2">
        <path class="cls-3" d="M152.9,248.24a13.56,13.56,0,1,0-2.81,19A13.55,13.55,0,0,0,152.9,248.24Zm-21.53,16A13.25,13.25,0,1,1,149.91,267,13.25,13.25,0,0,1,131.37,264.21Z"/>
      </g>
      <path class="cls-3" d="M143.67,245.28a4.58,4.58,0,0,1,1.72.71c1,.78.85,2,.15,1.91-3.83-.53-8.28,2.34-10.52,5.88a5.91,5.91,0,0,1-1.22,1.58,1.48,1.48,0,0,1-1.84.06,1.87,1.87,0,0,1-.29-1.77c.59-2.54,2.59-4.58,4.51-6.23a9,9,0,0,1,7.09-2.21Z"/>
    </g>
    <g>
      <circle class="cls-1" cx="145.34" cy="525.93" r="9.97"/>
      <g class="cls-2">
        <path class="cls-3" d="M153.33,519.71A10.2,10.2,0,1,0,151.22,534,10.19,10.19,0,0,0,153.33,519.71Zm-16.19,12a10,10,0,1,1,13.94,2.06A10,10,0,0,1,137.14,531.73Z"/>
      </g>
      <path class="cls-3" d="M146.39,517.49a3.27,3.27,0,0,1,1.29.53c.77.59.64,1.51.12,1.44-2.88-.4-6.23,1.76-7.92,4.42a4.14,4.14,0,0,1-.91,1.19,1.11,1.11,0,0,1-1.39,0,1.4,1.4,0,0,1-.22-1.32,9.48,9.48,0,0,1,3.4-4.69,6.75,6.75,0,0,1,5.33-1.66Z"/>
    </g>
  </g>
</svg>
