<svg id="Layer_1" data-name="Layer 1" xmlns="http://www.w3.org/2000/svg" width="204" height="547" viewBox="0 0 204 547">
  <defs>
    <style>
      .cls-1, .cls-3 {
        fill: #fff;
      }

      .cls-1 {
        opacity: 0.1;
      }

      .cls-2 {
        opacity: 0.8;
      }
    </style>
  </defs>
  <g>
    <g>
      <circle class="cls-1" cx="51.49" cy="316.75" r="41.85"/>
      <g class="cls-2">
        <path class="cls-3" d="M85.06,290.66a42.82,42.82,0,1,0-8.87,59.91A42.82,42.82,0,0,0,85.06,290.66Zm-68,50.45a41.85,41.85,0,1,1,58.55,8.68A41.85,41.85,0,0,1,17.06,341.11Z"/>
      </g>
      <path class="cls-3" d="M55.91,281.32a14.25,14.25,0,0,1,5.43,2.26c3.21,2.46,2.67,6.32.48,6-12.1-1.67-26.17,7.4-33.24,18.58-1.13,1.78-2.16,3.71-3.84,5s-4.29,1.64-5.82.19-1.36-3.65-.92-5.57c1.86-8,8.2-14.49,14.25-19.69a28.5,28.5,0,0,1,22.4-7C55.07,281.16,55.49,281.23,55.91,281.32Z"/>
    </g>
    <g>
      <circle class="cls-1" cx="104.69" cy="223.47" r="30.73"/>
      <g class="cls-2">
        <path class="cls-3" d="M129.34,204.31a31.44,31.44,0,1,0-6.52,44A31.45,31.45,0,0,0,129.34,204.31Zm-49.93,37a30.73,30.73,0,1,1,43,6.37A30.72,30.72,0,0,1,79.41,241.35Z"/>
      </g>
      <path class="cls-3" d="M107.93,197.45a10.36,10.36,0,0,1,4,1.66c2.36,1.8,2,4.64.35,4.41-8.88-1.22-19.21,5.43-24.4,13.64A12.92,12.92,0,0,1,85,220.82c-1.23.93-3.14,1.2-4.27.14s-1-2.68-.67-4.09c1.37-5.89,6-10.64,10.46-14.46A20.92,20.92,0,0,1,107,197.29C107.32,197.33,107.62,197.38,107.93,197.45Z"/>
    </g>
    <g>
      <circle class="cls-1" cx="32.86" cy="174.99" r="19.91"/>
      <g class="cls-2">
        <path class="cls-3" d="M48.83,162.58a20.37,20.37,0,1,0-4.23,28.5A20.38,20.38,0,0,0,48.83,162.58Zm-32.35,24a19.9,19.9,0,1,1,27.85,4.13A19.92,19.92,0,0,1,16.48,186.58Z"/>
      </g>
      <path class="cls-3" d="M35,158.14a6.83,6.83,0,0,1,2.58,1.07c1.53,1.17,1.27,3,.23,2.86-5.76-.79-12.45,3.52-15.81,8.84a8.4,8.4,0,0,1-1.83,2.37,2.23,2.23,0,0,1-2.77.09,2.78,2.78,0,0,1-.44-2.65c.89-3.82,3.9-6.89,6.78-9.36A13.54,13.54,0,0,1,34.36,158C34.56,158.06,34.76,158.1,35,158.14Z"/>
    </g>
    <g>
      <circle class="cls-1" cx="81.05" cy="103.28" r="13.25"/>
      <g class="cls-2">
        <path class="cls-3" d="M91.68,95a13.56,13.56,0,1,0-2.81,19A13.57,13.57,0,0,0,91.68,95ZM70.15,111a13.25,13.25,0,1,1,18.53,2.75A13.25,13.25,0,0,1,70.15,111Z"/>
      </g>
      <path class="cls-3" d="M82.45,92.06a4.44,4.44,0,0,1,1.72.72c1,.77.84,2,.15,1.9C80.49,94.15,76,97,73.79,100.56a5.41,5.41,0,0,1-1.21,1.58,1.48,1.48,0,0,1-1.84.06,1.83,1.83,0,0,1-.3-1.76C71,97.89,73,95.85,75,94.2A9,9,0,0,1,82.05,92Z"/>
    </g>
    <g>
      <circle class="cls-1" cx="28.44" cy="370.39" r="9.97"/>
      <g class="cls-2">
        <path class="cls-3" d="M36.43,364.18a10.2,10.2,0,1,0-2.11,14.27A10.2,10.2,0,0,0,36.43,364.18Zm-16.19,12a10,10,0,1,1,13.94,2.06A10,10,0,0,1,20.24,376.2Z"/>
      </g>
      <path class="cls-3" d="M29.49,362a3.51,3.51,0,0,1,1.29.54c.77.59.64,1.51.12,1.44-2.88-.4-6.24,1.76-7.92,4.42a4.13,4.13,0,0,1-.92,1.19,1.1,1.1,0,0,1-1.38,0,1.37,1.37,0,0,1-.22-1.32,9.42,9.42,0,0,1,3.39-4.69,6.78,6.78,0,0,1,5.34-1.67Z"/>
    </g>
  </g>
</svg>
