<svg id="Layer_1" data-name="Layer 1" xmlns="http://www.w3.org/2000/svg" width="204" height="547" viewBox="0 0 204 547">
  <defs>
    <style>
      .cls-1, .cls-3 {
        fill: #fff;
      }

      .cls-1 {
        opacity: 0.1;
      }

      .cls-2 {
        opacity: 0.8;
      }
    </style>
  </defs>
  <g>
    <g>
      <circle class="cls-1" cx="71.09" cy="237.77" r="41.85"/>
      <g class="cls-2">
        <path class="cls-3" d="M104.66,211.68a42.82,42.82,0,1,0-8.88,59.9A42.82,42.82,0,0,0,104.66,211.68Zm-68,50.45A41.85,41.85,0,1,1,95.2,270.8,41.86,41.86,0,0,1,36.66,262.13Z"/>
      </g>
      <path class="cls-3" d="M75.5,202.33a14.46,14.46,0,0,1,5.44,2.26c3.2,2.46,2.67,6.32.47,6-12.1-1.68-26.16,7.39-33.23,18.57-1.13,1.79-2.16,3.71-3.85,5s-4.28,1.64-5.81.19-1.37-3.64-.92-5.56c1.86-8,8.19-14.49,14.25-19.69a28.41,28.41,0,0,1,22.4-7Z"/>
    </g>
    <g>
      <circle class="cls-1" cx="124.29" cy="144.48" r="30.73"/>
      <g class="cls-2">
        <path class="cls-3" d="M148.93,125.32a31.44,31.44,0,1,0-6.51,44A31.44,31.44,0,0,0,148.93,125.32ZM99,162.36a30.73,30.73,0,1,1,43,6.37A30.72,30.72,0,0,1,99,162.36Z"/>
      </g>
      <path class="cls-3" d="M127.52,118.46a10.72,10.72,0,0,1,4,1.66c2.35,1.81,2,4.64.34,4.42-8.88-1.23-19.2,5.43-24.4,13.64a12.84,12.84,0,0,1-2.82,3.65c-1.24.93-3.15,1.21-4.27.14s-1-2.68-.68-4.09c1.37-5.89,6-10.63,10.47-14.45a20.92,20.92,0,0,1,16.45-5.13Z"/>
    </g>
    <g>
      <circle class="cls-1" cx="52.45" cy="96.01" r="19.91"/>
      <g class="cls-2">
        <path class="cls-3" d="M68.42,83.6a20.37,20.37,0,1,0-4.22,28.49A20.37,20.37,0,0,0,68.42,83.6Zm-32.35,24a19.91,19.91,0,1,1,27.85,4.13A19.9,19.9,0,0,1,36.07,107.59Z"/>
      </g>
      <path class="cls-3" d="M54.55,79.15a6.83,6.83,0,0,1,2.59,1.08c1.52,1.17,1.27,3,.22,2.86-5.75-.8-12.44,3.52-15.81,8.83a8.22,8.22,0,0,1-1.83,2.37,2.2,2.2,0,0,1-2.76.09,2.77,2.77,0,0,1-.44-2.65c.88-3.81,3.9-6.89,6.78-9.36A13.52,13.52,0,0,1,54,79.05Z"/>
    </g>
    <g>
      <circle class="cls-1" cx="100.64" cy="24.29" r="13.25"/>
      <g class="cls-2">
        <path class="cls-3" d="M111.27,16a13.56,13.56,0,1,0-2.81,19A13.57,13.57,0,0,0,111.27,16ZM89.74,32a13.25,13.25,0,1,1,18.54,2.74A13.25,13.25,0,0,1,89.74,32Z"/>
      </g>
      <path class="cls-3" d="M102,13.07a4.6,4.6,0,0,1,1.72.72c1,.78.85,2,.15,1.9-3.83-.53-8.28,2.35-10.52,5.89a5.71,5.71,0,0,1-1.22,1.57,1.48,1.48,0,0,1-1.84.06A1.85,1.85,0,0,1,90,21.45c.59-2.54,2.59-4.59,4.51-6.23A9,9,0,0,1,101.64,13C101.78,13,101.91,13.05,102,13.07Z"/>
    </g>
    <g>
      <circle class="cls-1" cx="77.66" cy="295" r="9.97"/>
      <g class="cls-2">
        <path class="cls-3" d="M85.66,288.78a10.2,10.2,0,1,0-2.12,14.27A10.2,10.2,0,0,0,85.66,288.78Zm-16.2,12a10,10,0,1,1,13.94,2.06A10,10,0,0,1,69.46,300.8Z"/>
      </g>
      <path class="cls-3" d="M78.71,286.56a3.31,3.31,0,0,1,1.3.53c.76.59.63,1.51.11,1.44-2.88-.4-6.23,1.76-7.92,4.42a4,4,0,0,1-.91,1.19,1.11,1.11,0,0,1-1.39,0,1.39,1.39,0,0,1-.22-1.32,9.59,9.59,0,0,1,3.4-4.69,6.75,6.75,0,0,1,5.33-1.66Z"/>
    </g>
  </g>
</svg>
