<svg id="Layer_1" data-name="Layer 1" xmlns="http://www.w3.org/2000/svg" width="86" height="83" viewBox="0 0 86 83">
  <defs>
    <style>
      .cls-1, .cls-3 {
        fill: #fff;
      }

      .cls-1 {
        opacity: 0.1;
      }

      .cls-2 {
        opacity: 0.8;
      }
    </style>
  </defs>
  <g>
    <circle class="cls-1" cx="43.4" cy="41.71" r="20.4"/>
    <g class="cls-2">
      <path class="cls-3" d="M59.76,29a20.87,20.87,0,1,0-4.32,29.19A20.87,20.87,0,0,0,59.76,29ZM26.62,53.59a20.4,20.4,0,1,1,28.53,4.22A20.4,20.4,0,0,1,26.62,53.59Z"/>
    </g>
    <path class="cls-3" d="M45.55,24.44a7.14,7.14,0,0,1,2.65,1.1c1.56,1.2,1.3,3.08.23,2.94-5.89-.82-12.75,3.6-16.2,9.05A8.62,8.62,0,0,1,30.36,40a2.27,2.27,0,0,1-2.83.09,2.82,2.82,0,0,1-.45-2.71c.9-3.92,4-7.06,6.94-9.6a13.9,13.9,0,0,1,10.92-3.4Z"/>
  </g>
</svg>
