<svg id="Layer_1" data-name="Layer 1" xmlns="http://www.w3.org/2000/svg" width="204" height="547" viewBox="0 0 204 547">
  <defs>
    <style>
      .cls-1, .cls-3 {
        fill: #fff;
      }

      .cls-1 {
        opacity: 0.1;
      }

      .cls-2 {
        opacity: 0.8;
      }
    </style>
  </defs>
  <g>
    <g>
      <circle class="cls-1" cx="72.58" cy="399.88" r="41.85"/>
      <g class="cls-2">
        <path class="cls-3" d="M106.15,373.79a42.82,42.82,0,1,0-8.87,59.9A42.81,42.81,0,0,0,106.15,373.79Zm-68,50.45a41.85,41.85,0,1,1,58.55,8.67A41.85,41.85,0,0,1,38.15,424.24Z"/>
      </g>
      <path class="cls-3" d="M77,364.44a14.46,14.46,0,0,1,5.44,2.26c3.21,2.46,2.67,6.32.48,6-12.1-1.67-26.17,7.4-33.24,18.58-1.13,1.79-2.16,3.71-3.85,5s-4.28,1.64-5.81.19-1.37-3.65-.92-5.57c1.86-8,8.19-14.48,14.25-19.69a28.45,28.45,0,0,1,22.4-7C76.16,364.28,76.58,364.35,77,364.44Z"/>
    </g>
    <g>
      <circle class="cls-1" cx="125.78" cy="306.59" r="30.73"/>
      <g class="cls-2">
        <path class="cls-3" d="M150.43,287.43a31.44,31.44,0,1,0-6.52,44A31.46,31.46,0,0,0,150.43,287.43Zm-49.93,37a30.72,30.72,0,1,1,43,6.37A30.72,30.72,0,0,1,100.5,324.47Z"/>
      </g>
      <path class="cls-3" d="M129,280.57a10.58,10.58,0,0,1,4,1.66c2.35,1.8,2,4.64.35,4.41-8.88-1.22-19.21,5.44-24.4,13.65a12.87,12.87,0,0,1-2.83,3.65c-1.24.93-3.14,1.21-4.27.14s-1-2.68-.67-4.09c1.36-5.89,6-10.63,10.46-14.45a20.89,20.89,0,0,1,16.45-5.13Z"/>
    </g>
    <g>
      <circle class="cls-1" cx="53.95" cy="258.12" r="19.91"/>
      <g class="cls-2">
        <path class="cls-3" d="M69.91,245.7a20.37,20.37,0,1,0-4.22,28.5A20.37,20.37,0,0,0,69.91,245.7Zm-32.34,24a19.9,19.9,0,1,1,27.85,4.13A19.91,19.91,0,0,1,37.57,269.7Z"/>
      </g>
      <path class="cls-3" d="M56,241.26a6.81,6.81,0,0,1,2.59,1.07c1.53,1.17,1.27,3,.23,2.87-5.76-.8-12.45,3.51-15.81,8.83a8.4,8.4,0,0,1-1.83,2.37,2.23,2.23,0,0,1-2.77.09,2.77,2.77,0,0,1-.44-2.65c.89-3.82,3.9-6.89,6.78-9.36a13.53,13.53,0,0,1,10.66-3.32Z"/>
    </g>
    <g>
      <circle class="cls-1" cx="102.14" cy="186.4" r="13.25"/>
      <g class="cls-2">
        <path class="cls-3" d="M112.77,178.14a13.56,13.56,0,1,0-2.81,19A13.57,13.57,0,0,0,112.77,178.14Zm-21.53,16a13.25,13.25,0,1,1,18.53,2.74A13.26,13.26,0,0,1,91.24,194.12Z"/>
      </g>
      <path class="cls-3" d="M103.53,175.18a4.64,4.64,0,0,1,1.73.72c1,.78.84,2,.15,1.9-3.83-.53-8.29,2.34-10.53,5.88a5.41,5.41,0,0,1-1.21,1.58,1.49,1.49,0,0,1-1.85.06,1.85,1.85,0,0,1-.29-1.76c.59-2.54,2.6-4.59,4.52-6.24a9,9,0,0,1,7.09-2.21Z"/>
    </g>
    <g>
      <circle class="cls-1" cx="85.2" cy="459.83" r="9.97"/>
      <g class="cls-2">
        <path class="cls-3" d="M93.2,453.62a10.2,10.2,0,1,0-2.11,14.27A10.2,10.2,0,0,0,93.2,453.62Zm-16.2,12a10,10,0,1,1,14,2.07A10,10,0,0,1,77,465.63Z"/>
      </g>
      <path class="cls-3" d="M86.26,451.39a3.51,3.51,0,0,1,1.29.54c.76.58.64,1.5.11,1.43-2.88-.4-6.23,1.76-7.91,4.43a4.27,4.27,0,0,1-.92,1.18,1.11,1.11,0,0,1-1.38,0,1.38,1.38,0,0,1-.22-1.33c.44-1.91,2-3.45,3.39-4.69A6.8,6.8,0,0,1,86,451.34Z"/>
    </g>
  </g>
</svg>
