<svg id="Layer_1" data-name="Layer 1" xmlns="http://www.w3.org/2000/svg" width="86" height="83" viewBox="0 0 86 83">
  <defs>
    <style>
      .cls-1, .cls-3 {
        fill: #fff;
      }

      .cls-1 {
        opacity: 0.1;
      }

      .cls-2 {
        opacity: 0.8;
      }
    </style>
  </defs>
  <g>
    <circle class="cls-1" cx="43.27" cy="41.62" r="13.91"/>
    <g class="cls-2">
      <path class="cls-3" d="M54.43,33a14.24,14.24,0,1,0-3,19.92A14.22,14.22,0,0,0,54.43,33ZM31.83,49.72a13.91,13.91,0,1,1,19.46,2.89A13.91,13.91,0,0,1,31.83,49.72Z"/>
    </g>
    <path class="cls-3" d="M44.74,29.84a4.9,4.9,0,0,1,1.81.75c1.06.82.89,2.1.16,2-4-.55-8.7,2.46-11.05,6.18a6.14,6.14,0,0,1-1.28,1.66,1.57,1.57,0,0,1-1.94.06,1.94,1.94,0,0,1-.3-1.85c.62-2.67,2.72-4.82,4.74-6.55a9.42,9.42,0,0,1,7.44-2.32Z"/>
  </g>
</svg>
