<svg id="Layer_1" data-name="Layer 1" xmlns="http://www.w3.org/2000/svg" width="86" height="83" viewBox="0 0 86 83">
  <defs>
    <style>
      .cls-1, .cls-3 {
        fill: #fff;
      }

      .cls-1 {
        opacity: 0.1;
      }

      .cls-2 {
        opacity: 0.8;
      }
    </style>
  </defs>
  <g>
    <circle class="cls-1" cx="43.57" cy="41.84" r="29.28"/>
    <g class="cls-2">
      <path class="cls-3" d="M67.06,23.58A30,30,0,1,0,60.85,65.5,30,30,0,0,0,67.06,23.58ZM19.48,58.88a29.28,29.28,0,1,1,41,6.07A29.28,29.28,0,0,1,19.48,58.88Z"/>
    </g>
    <path class="cls-3" d="M46.66,17a10.11,10.11,0,0,1,3.81,1.58c2.24,1.72,1.86,4.42.33,4.21-8.47-1.17-18.31,5.18-23.26,13a12.16,12.16,0,0,1-2.69,3.48c-1.18.89-3,1.15-4.07.14s-1-2.55-.64-3.9c1.3-5.62,5.73-10.14,10-13.78a20,20,0,0,1,15.68-4.88Q46.22,17,46.66,17Z"/>
  </g>
</svg>
