<svg id="Layer_1" data-name="Layer 1" xmlns="http://www.w3.org/2000/svg" width="125.88" height="47.53" viewBox="0 0 125.88 47.53">
  <defs>
    <style>
      .cls-1 {
        fill: #fcfae6;
        stroke: #424015;
        stroke-width: 0.5px;
      }

      .cls-1, .cls-3, .cls-5 {
        stroke-miterlimit: 10;
      }

      .cls-2 {
        fill: #efebbd;
      }

      .cls-3 {
        stroke: #ea6907;
        stroke-width: 2px;
      }

      .cls-4 {
        fill: #fff;
      }

      .cls-5 {
        fill: #2e6b06;
        stroke: #33560a;
        stroke-width: 0.75px;
      }
    </style>
  </defs>
  <g>
    <g>
      <g>
        <ellipse class="cls-1" cx="102.01" cy="22.89" rx="20.22" ry="21.25" transform="translate(2.22 54.07) rotate(-30)"/>
        <path class="cls-2" d="M108.28,31.12s11.39.22,14-7.61a20.63,20.63,0,0,1-2.74,10.93A20.09,20.09,0,0,1,103,43.79c-8.19.12-11.17-7.21-11.17-7.21S102.78,29.49,108.28,31.12Z"/>
      </g>
      <g>
        <circle class="cls-3" cx="103.11" cy="22.99" r="12.84"/>
        <circle class="cls-4" cx="108.09" cy="11.36" r="3.08"/>
      </g>
      <path class="cls-5" d="M119.53,12.78a21.81,21.81,0,0,1,2.76,14c-.22,1.58-38.56,4.82-38.89,4.08-.21-.47-.4-1-.58-1.44-3.39-9.41,0-20,8.57-24.91C101.06-1.1,113.66,2.61,119.53,12.78Z"/>
    </g>
    <g>
      <g>
        <ellipse class="cls-1" cx="21.82" cy="25.84" rx="18.16" ry="19.54" transform="translate(-5.47 5.87) rotate(-13.62)"/>
        <path class="cls-2" d="M26.23,34.23s10.05,1.82,13.44-4.93a19.19,19.19,0,0,1-3.93,9.55,17.71,17.71,0,0,1-16,6.16c-7.26-1.06-8.89-8.16-8.89-8.16S21.59,32,26.23,34.23Z"/>
      </g>
      <g>
        <circle class="cls-3" cx="25.71" cy="26.78" r="12.84"/>
        <circle class="cls-4" cx="30.69" cy="15.15" r="3.08"/>
      </g>
      <path class="cls-5" d="M38.72,19.13c1.6,4.26.63,12.72.63,12.72S5.52,34,5.37,33.65s-.31-.72-.45-1.09c-3.78-10.09.71-21.27,10-25S34.93,9,38.72,19.13Z"/>
    </g>
  </g>
</svg>
