<svg xmlns="http://www.w3.org/2000/svg" width="391.76" height="304.94" viewBox="0 0 391.76 304.94">
  <defs>
    <style>
      .cls-1 {
        opacity: 0.27;
      }

      .cls-2 {
        fill: #5bb900;
      }

      .cls-11, .cls-2, .cls-3, .cls-6, .cls-7, .cls-9 {
        stroke: #33560a;
      }

      .cls-10, .cls-11, .cls-2, .cls-3, .cls-6, .cls-7, .cls-9 {
        stroke-miterlimit: 10;
      }

      .cls-11, .cls-2, .cls-6 {
        stroke-width: 0.75px;
      }

      .cls-3, .cls-6 {
        fill: #50ca0a;
      }

      .cls-3, .cls-7, .cls-9 {
        stroke-width: 0.5px;
      }

      .cls-4 {
        fill: #e4f550;
      }

      .cls-5 {
        fill: #42a90e;
      }

      .cls-7 {
        fill: #e5f550;
      }

      .cls-8 {
        fill: #d1ca3b;
      }

      .cls-9 {
        fill: #fff;
      }

      .cls-10 {
        stroke: #ea6907;
      }

      .cls-11 {
        fill: #2e6b06;
      }

      .cls-12 {
        fill: #33560a;
      }
    </style>
  </defs>
  <g id="Layer_2" data-name="Layer 2">
    <ellipse class="cls-1" cx="207.98" cy="261.18" rx="170.08" ry="39.76"/>
    <g>
      <path class="cls-2" d="M319,274.25s1.44-5.68,9.24-5.71c-15.14-7.07-21-7.2-22.18-4.46S319,274.25,319,274.25Z"/>
      <path class="cls-2" d="M354.28,244.78s-5.43,4.31-3,6.37c-7.67-1-13.67-4.57-13.41-5s10.95-3,16.43-.51"/>
      <path class="cls-2" d="M294.29,274.25s-20.76-15-34.56-13.09c10.44-6,16.85-5.92,21.86-3.91S294.29,274.25,294.29,274.25Z"/>
      <path class="cls-2" d="M194.08,269.14s-26.5.87-35.47,8.79c1.2-3.93,14.62-14.56,25-12C192.78,268.72,194.08,269.14,194.08,269.14Z"/>
      <path class="cls-2" d="M144.8,275.25s-1.37-7.34-7.83-6c6-5.82,24.41-5.55,26.23-4.62S158.38,273,144.8,275.25Z"/>
      <path class="cls-2" d="M120.58,259.66s-31.19,5.1-41.62,7.85C88.58,257.7,115.51,256,120.58,259.66Z"/>
      <path class="cls-2" d="M64,262.53s4-5.44-3.91-8.12c11.61-6.23,19.11.06,17.79,3.34S68,263.82,64,262.53Z"/>
      <path class="cls-3" d="M311.11,209.44s16,3.88,9.32,11.68a96.89,96.89,0,0,1-14.73,13s-5.64,4.34,1.95,3.47c8.23-2,20.79-4.55,30.11-4.12s17.12,3.47,20.15,6.72,0,6.5-9.75,6.07-7,0-7,0,8.9,2.43,13.45,8-8.45,7.21-19.5,2.94c-12.57-4.28-29-9.69-33.8-10.13s-9.31-1.3-9.31-1.3-9.85-6.93-6.12-13.65C301.58,216.36,311.11,209.44,311.11,209.44Z"/>
      <circle class="cls-4" cx="308.95" cy="224.97" r="2.97"/>
      <circle class="cls-4" cx="314.92" cy="242.66" r="2.54"/>
      <circle class="cls-4" cx="290.7" cy="237.79" r="2.54"/>
      <path class="cls-5" d="M314.92,210.7s-14.53,23.86-25.59,23.86c-2.95,0-2.34,6.7,6.05,9.83A144.76,144.76,0,0,1,322.06,251c9.47,3.46,27.45,9.64,31.78,3.35,4.15,3.75-1.81,7.86-16.09,3.44S310,249.1,307.6,248.48s-13.23-2.24-14.39-2.45-6.45-3.42-7.28-7.17-2-7.27,6-12.11c8.09-8,19.19-17.31,19.19-17.31Z"/>
      <path class="cls-5" d="M359,242.11s1.32,4.47-12.82,4.06l-6.31-.4s19.81-1.9,18-5.58Z"/>
      <path class="cls-6" d="M309.86,212.28s25.11-24.14,2.51-58.67c-17.58-15.69-64.67-13.56-72.2-13.69s-50.86,4.27-64.67,15S141,193.79,141,193.79,130.86,205,130,208.61s-8.45,3.7-15.38,0-16.9-.45-13,14.5c3.25,12.57,5.63,16,5.41,17.55s3.25,8-9.1,8.23c-12.35-.65-32.28-3-36.39-3.68s-16.47,3.68-4.55,8.45c8.88-.22,23.83,2.38,16,6.5,0,0-7.15,2.16-11,3s-3,8.45,4.55,7.37c8.67-2.17,20.36-7.37,20.36-7.37s5.85-4.55,17.12-4.33,16,.21,16,.21,24.92,1.74,16.25-5c0,0-2.82-4.12-11.92-3.68-4.11-4.77-8.23-14.08-8.23-14.08s19.28,17.11,39.65,18.19c20.58,2.39,58.06,3.47,70.19.44C243.09,251.49,250.89,254.09,309.86,212.28Z"/>
      <path class="cls-6" d="M280.35,235.21s1.95,11.26-.87,14.29c-3.9,2.82-9.31,3.69-16.9,3.69h-10.4c-2.38,0-9.53,2.6,0,7.15,8.67,2.6,15.17-1.3,19.07-2.17s10-3,13.43,3.05c3.25,6.48,16.68,20.13,22.75,22.95s23,1.95,14.08-7.8c-12.13-10.18-13.86-10.83-13.86-10.83s-2.82-2,3.25-1.52c7.58,1.08,11.91,3.47,16,4.33s18.63.32,13-8c-11.27-5-9.32-4.17-19.72-5s-25.92-3.46-25.92-3.46-7,.21-2-3.47c5.85-4.33,1.74-14.95-1.73-19.5A47.42,47.42,0,0,1,280.35,235.21Z"/>
      <path class="cls-5" d="M280.35,235.21s3.06,10.6-.87,14.29a10.66,10.66,0,0,1-8.18,3.11s10.58,2.09,11.82-6.41c.37-9.12,0-11.64,0-11.64Z"/>
      <path class="cls-7" d="M319.8,199.63c.92-2.69,6.62-19.82,1.28-27.25-.64-.88-1.15-1.35-1.74-1.39-3.47-.23-7.08,13.83-15.81,22.19-10.18,9.75-40.3,13.86-74.53-2.39s-46.79-16-51.13-16-16.46,1.08-12.35,18.2c11.27,13.65,21.24,27.73,19.5,32.71s-7.8,8.45-15.81,10.4c-4.77,3.25-24.05,13.43-41.6,5l-11.27-5.44s19.29,17.51,45.85,20.72c35.47,4.3,63.1.38,87.83-6.62,29-8.19,41.38-17.74,44.75-20.43A101.22,101.22,0,0,0,319.8,199.63Z"/>
      <path class="cls-8" d="M288.55,233.68c-51.32,15.94-69.33,10.9-76,2.81-3.2-3.88-9.26-14.4-22.55-23.16a52.11,52.11,0,0,0-9.75-4.9c-6.56-5.16-5.77-4.09-5.77-4.09S186.32,219,185,225.67c-3.83,5.11-8.11,9-18.66,12.12-10.23,3.46-25.92,14.3-50-2.17,6.85,5.7,13.16,10.36,20.82,13.91,18.11,8.38,34.63,8.24,53.54,8.22a223.14,223.14,0,0,0,41.92-4.14,201,201,0,0,0,33.76-9.49A178.59,178.59,0,0,0,288.55,233.68Z"/>
      <path class="cls-6" d="M165.31,221.34s-11.27,8.45-13.87,13.22-2.6,13,5,18.84c6.72,5.2,2,6.94-1.08,6.5s-23.18-.52-28.16.07-17.55,4-7.37,11.63c10.18,2.82,14.33-1.51,20.81-3.9,10-2.81,27.94-4.76,20.57,0-8.45,3.69-16.27,7.54-23.4,10.84-7,3.22-5.28,12.14,7.37,9.53,13.21-9.32,20.8-16.47,21.66-16.9s8.24-6.5,18.42-4.33c9.1,2.38,10.4,2.81,13.21,3.25s25.14-3.69,7.15-8.67a240.86,240.86,0,0,0-29.89-5.2s-7.15-4.77-9.1-11.48c-1.52-5.85,4.11-8.67,7.15-10.4s10.4-10,.21-14.52"/>
      <path class="cls-6" d="M319.34,160.53s5.2-18.27-12.56-25.63-29.68,4.76-33.15,10.4l-3.46,5.63"/>
      <path class="cls-9" d="M318.69,161.33s-1.73,6.93-13.43,10.18-20.15-1.73-24.05-7.36c-1.73-2.39-2.6-7.59-2.6-7.59s5.42,8,27.52,5.2c11.48-2.81,13.43-3.9,13.43-3.9Z"/>
      <path class="cls-10" d="M309,160.9c-.07.66-.79,7.42-5.8,10a14,14,0,0,1-6.66,1.16,14.87,14.87,0,0,1-4.33-.77,9.16,9.16,0,0,1-4.3-2.57,8.53,8.53,0,0,1-1.38-2.28,10.74,10.74,0,0,1-.72-5.5Z"/>
      <path class="cls-6" d="M252.43,150c-.93-3.26-3.68-11.16-11.24-16.19-13.86-9.22-31-.26-33.87,1.33-13,7.18-17.6,19.83-18.75,23.39"/>
      <path class="cls-9" d="M242.65,159.21s-11.91,16-31.2,7.11c-3.9-2.61-7.58-6.51-8-11.92l-.44-2s13.58,13.62,40.11,5.38Z"/>
      <path class="cls-10" d="M235.66,159.35a9.77,9.77,0,0,1-2.94,6,10.46,10.46,0,0,1-5,2.47c-1.47.36-7.67,1.87-12.42-2.17-3.43-2.92-4.05-7.3-4.19-8.52A65.45,65.45,0,0,0,221.89,160a38.18,38.18,0,0,0,5.62.43A33.62,33.62,0,0,0,235.66,159.35Z"/>
      <path class="cls-11" d="M243.11,157.83a17.86,17.86,0,0,0-1.66-8.12,18.08,18.08,0,0,0-5.69-6.85c-7.68-5.78-17.13-3.66-17.68-3.53-10.51,2.52-14.65,12.1-15.08,13.12a41.57,41.57,0,0,0,40.11,5.38Z"/>
      <ellipse class="cls-4" cx="152.07" cy="202.48" rx="7.89" ry="4.97" transform="translate(-94.07 142.97) rotate(-39.5)"/>
      <ellipse class="cls-4" cx="159.35" cy="186.48" rx="6" ry="4.17" transform="translate(-82.22 143.95) rotate(-39.5)"/>
      <circle class="cls-4" cx="121.3" cy="219.18" r="4.08"/>
      <circle class="cls-4" cx="109.4" cy="213.05" r="3.48"/>
      <path class="cls-5" d="M281.59,257.25a226.83,226.83,0,0,0,20.58,18.19c10.64,8.12,17.26,6.88,20.62,3,3.88,4.66-3.53,9.33-14.45,6.12-8.53-4.27-22.41-21.19-22.41-21.19Z"/>
      <path class="cls-5" d="M341.21,263.61s-1.39,8.11-18.42,3.53c-8.34-3-14.05-3.93-15.42-3.53a29.93,29.93,0,0,1,13.35,1.29c8.92,2.73,19.27-.3,20-3.08Z"/>
      <path class="cls-5" d="M279.34,256.53A52.45,52.45,0,0,0,266.75,259c-5.41,2-12,3.41-18.54-1.24-.8-2.05-.63-2.48-.63-2.48s.44,4.86,10.94,3.44S274,254.69,279.34,256.53Z"/>
      <circle class="cls-4" cx="164.24" cy="217.25" r="3.48"/>
      <circle class="cls-4" cx="116.34" cy="248.84" r="2.97"/>
      <path class="cls-8" d="M319.75,185.86s-4.11,15-25.27,21.26-53.45-1.31-68.29-7.8c0,0-20.43-11.49-42.76-18.26a13.46,13.46,0,0,0-7.3-.47,36.31,36.31,0,0,0-4,1.51c-2.41.92-4.41,1.54-5.71,1.92.39-2.76-.37-3.88.53-5,4.45-5.27,13.6-5.21,30-.78,3.41,1.1,8.24,2.75,11.75,4a290.56,290.56,0,0,1,29,12.59c9.62,3.87,53.39,17.57,71.32-7.51.59-1.48,1.39-2.17,2.28-3.78,2.18-3.94,2.45-6.24,4-6.67s3.2,1.37,3.95,2.48A7.38,7.38,0,0,1,319.75,185.86Z"/>
      <path class="cls-5" d="M178.61,266.49s4-1,16.27,2.87c10.4,1.31,16.83-1.75,17.66-4-5.12,1.38-9.4,2-21.61,0S178.61,266.49,178.61,266.49Z"/>
      <path class="cls-5" d="M172.76,267.17s-16,11.31-22.45,17.18c-6.31,3.93-8.78,6.81-16.14,1.22C140.7,286.39,170.22,267.24,172.76,267.17Z"/>
      <path class="cls-5" d="M159.79,264.67s-16.29.5-23.64,5c-6.9,3.43-17.15,4-19.81-1.8,5.12.8,21.46-2.25,31.54-4.39S159.79,264.67,159.79,264.67Z"/>
      <path class="cls-5" d="M139.62,257.3s2.1,3.59-32.64,1.93a34.11,34.11,0,0,0-15.11,2.34c-3,1.2-4.14,2.74-7.17,4-15.86,6.55-18.24,6.68-21.73,4.5-.14-.19-1.73-2.55-1.73-2.55h0S74,268.8,83.12,262.77s26.82-5.67,31.78-5,22.4.42,22.89-2.83Z"/>
      <path class="cls-5" d="M76.86,257.75a16.88,16.88,0,0,0-10.27-2.83c-6.15.3-12.69-1.83-13.14-3.84S56,247.46,56,247.46s3,4.32,10.08,5.15A17.41,17.41,0,0,1,76.86,257.75Z"/>
      <path class="cls-12" d="M302.71,208.43a66.63,66.63,0,0,1-22.55,6.27,98.21,98.21,0,0,1-23.49-.38l-5.81-1-1.45-.25L248,212.7l-2.86-.71-2.85-.72-1.43-.37-1.4-.46-5.57-1.87a57.1,57.1,0,0,1-5.48-2.15L223,204.13c-3.52-1.72-7-3.59-10.45-5.37,3.54,1.67,7,3.43,10.6,5l5.44,2.18a55.61,55.61,0,0,0,5.49,2.05l5.57,1.79,1.39.45,1.42.36,2.85.69,2.84.7,1.42.35,1.44.24,5.77,1a101.18,101.18,0,0,0,23.33.55l2.91-.3c1-.1,1.93-.31,2.89-.46s1.93-.3,2.89-.51l2.85-.65A56.5,56.5,0,0,0,302.71,208.43Z"/>
      <path class="cls-11" d="M319.56,157.86s1.08-9.5-10.61-13.76-28.87,2.84-30.34,11.73C278.93,165.79,315.73,169,319.56,157.86Z"/>
    </g>
  </g>
</svg>
