<svg xmlns="http://www.w3.org/2000/svg" width="391.76" height="304.94" viewBox="0 0 391.76 304.94">
  <defs>
    <style>
      .cls-1, .cls-4 {
        fill: #50ca0a;
      }

      .cls-1, .cls-11, .cls-2, .cls-6, .cls-8 {
        stroke: #33560a;
      }

      .cls-1, .cls-11, .cls-2, .cls-6, .cls-7, .cls-8 {
        stroke-miterlimit: 10;
      }

      .cls-1, .cls-11, .cls-2, .cls-8 {
        stroke-width: 0.75px;
      }

      .cls-2 {
        fill: #e5f550;
      }

      .cls-3 {
        fill: #d1ca3b;
      }

      .cls-5 {
        fill: #33560a;
      }

      .cls-6 {
        fill: #fff;
        stroke-width: 0.5px;
      }

      .cls-7 {
        stroke: #ea6907;
      }

      .cls-8 {
        fill: #2e6b06;
      }

      .cls-9 {
        fill: #e4f550;
      }

      .cls-10 {
        fill: #42a90e;
      }

      .cls-11 {
        fill: none;
      }
    </style>
  </defs>
  <g id="Layer_3" data-name="Layer 3">
    <g>
      <path class="cls-1" d="M327.43,29.93s26.95,22.85,31.07,28.33-6.86,26.5-48,3.2C287.22,45,273.51,46,276.25,72.21,284,97.1,297.73,93.9,288.59,116.29s-81.91,47.51-83.68,48c0,0,3.26,21.48-25.07,34.73s-53-.92-56.2-4.12,1.83-10.5-5-10.05-31.07,3.66-39.3,1.83-19.64,5-16.44,11.88,5.48,16.9,5,21-8.68,13.25-13.71-5.94-7.31-11.88-12.79-6.86-10,8.68-13.71,11.43-22.28,5.48-8.17-7.77c14.11-9.14,22.34-14.62,22.34-14.62s5.94-5.94,2.28-8.23-9.59,1.83-13.7,4.57S6,199.44,14.31,189.85c12.93-10.51,30.75-11,33.49-10.51,0,0,9.59-4.57,27-1.37,9.59-.92,32.44-.46,40.66-20.56,7.31-22.39,11.88-41.58,19.65-50.72C144.66,94.35,182.13,72,197.66,64.2c16.45-9.14,44.32-16.91,50.72-25.13,0,0,13.71-9.14,14.62-11.42s4.57-26.51,29.24-17.37C310.52,14.85,327.43,29.93,327.43,29.93Z"/>
      <path class="cls-2" d="M332.91,106.76c-50.93,48.17-43,36.85-51.63,49.78-11.42,17-63.51,54.77-115.6,52.5-18.28-1.82-32.44-26.64,6.85-37.41S266.2,137.21,279,121.76s14.17-19.09.46-33.19S273.05,39,298.64,50.39C317.83,64.93,343.25,81.28,358.5,59a15.22,15.22,0,0,1,2.25,4.6C364.66,77,348.17,92.32,332.91,106.76Z"/>
      <path class="cls-3" d="M141.76,198.84a6.21,6.21,0,0,0-.44-2.21,5.61,5.61,0,0,0,1.11-1.12c12.28-7.31,56.36-32.35,73.3-37.51,38.65-16,43.11-19.79,56.21-29.34,8.07-2.78,20.69,6,55.2-17.21l-22.82,19.29S289.48,144,285.2,149.86c-4.59,7.38-10.89,13.75-14.47,17.28-4.85,4.8-22.52,16.89-22.52,16.89s-14.61,8.09-18.53,9.9S204.25,204.7,197,206c-6.62,1.33-21.69,3.7-30,3.09,0,0-14.36-3.47-26.19-6.79A6.06,6.06,0,0,0,141.76,198.84Z"/>
      <path class="cls-1" d="M276.71,105.78s16.9,23.38,32.9,25.85,25.13,3.85,31.52-8.95,16-16.22,18.28-7.42-5.94,8.34-8.22,9.71-6.86,10.2,5,8.29,24.22,1.15,30.61,6.48,3.2,11.73-13.25,9-17.36-3.5-22.84-3.35-11.42,6.1,1.83,10.89c13.25,1.14,13.7,13.47-1.37,7.53-11.43-5-11.88-8.22-13.71-10.5a19.46,19.46,0,0,0-16-7.33c-8.69.47-34.73-6.14-39.75-10.38-4.83-3.32-13.71-7-17.37-15.65"/>
      <path class="cls-1" d="M215.73,141.42s-8.93,32-16.24,37.92c-6.85,9.59-17.36,23.76-31.53,28.78s-42.49,10.06-54.37,11.43-18.73,12.33-12.79,19.64,16,14.51,15.53,27.88-9.83,8.22-17.71-8.69c0,0-2.4-10.5-5.13-13.7-3.16-3.71-4.07-12.6-11.42.45-7,12.51-32,34.73-24.68,12.34,13.71-14.16,21.48-19.65,22.85-25.13s-5.48-3.2-12.8,1.83S37.23,247,56,231.43c21.51-11,22-10.69,26.08-13.34s12.79-5.4,27.41-6.31,30.61-11.88,35.18-20.56,1.37-21,5.94-29.7,12.34-18.73,17.82-20.1"/>
      <g>
        <path class="cls-4" d="M328.52,31.64s-.72-5.25-1.63-12.5a13.84,13.84,0,0,0-3-7.45c-4.13-5.48-12.74-7.21-19.56-5.56-9.26,2.23-13.52,10.24-14.19,11.57l-3.26,5.43"/>
        <path class="cls-5" d="M328.52,31.64l-1.27-8.33-.59-4.17a16,16,0,0,0-1.05-4,15.11,15.11,0,0,0-2.18-3.49,12.58,12.58,0,0,0-3-2.74,18.75,18.75,0,0,0-7.71-2.78,22.56,22.56,0,0,0-8.23.31A20.7,20.7,0,0,0,297,9.94,23.87,23.87,0,0,0,291.33,16c-1.43,2.39-3,4.76-4.46,7.14,1.38-2.45,2.8-4.85,4.15-7.34a24.41,24.41,0,0,1,5.64-6.31,20.42,20.42,0,0,1,7.64-3.7,23.37,23.37,0,0,1,8.5-.38,19.37,19.37,0,0,1,8,3,13.2,13.2,0,0,1,3.16,2.9,14.37,14.37,0,0,1,2.2,3.67,15.85,15.85,0,0,1,1,4.16l.5,4.18Z"/>
      </g>
      <path class="cls-6" d="M325.9,28.6C325.73,37.09,321,44.43,314,47.1c-7.41,2.84-14.13-.81-14.41-1-7.5-4.24-8.47-12.56-8.55-13.37V28.6a23.44,23.44,0,0,0,7.1,4.74c9.49,4,18.65.25,20.84-.72Z"/>
      <path class="cls-7" d="M325.9,28.6s-.22,8.47-4.77,13.32-7.47-3-5.5-8.05C317.16,34,325.9,28.6,325.9,28.6Z"/>
      <path class="cls-8" d="M325.9,28.6s-.27-8.91-7.7-12.72-20.65-2.82-28.07,12.72a27.8,27.8,0,0,0,8,4.74,28,28,0,0,0,16.05,1.08A28.19,28.19,0,0,0,325.9,28.6Z"/>
      <path class="cls-9" d="M183.8,97.35c.62-.3,9.57-6.53,8-13.49s-10.88-.22-15.89,5S170.09,104.1,183.8,97.35Z"/>
      <path class="cls-9" d="M220.56,90s4.18.15,2.09-5-9.75,1.24-6.5,3.44S220.56,90,220.56,90Z"/>
      <path class="cls-9" d="M234.72,115.63a8.1,8.1,0,0,0,5.88-8.7c-.44-7.19-8.71-3.05-9.79,1.3S229.5,114.76,234.72,115.63Z"/>
      <path class="cls-9" d="M245.61,74.72s3.48.65,3-8.27-13-2.18-8,3Z"/>
      <path class="cls-9" d="M193.34,131.05c.91-.23,5.84-.29,4.58-5.81s-11.67-3.79-10.57,0S190.06,131.87,193.34,131.05Z"/>
      <path class="cls-9" d="M145.8,137.43c3.44-1.94,3.82-1.43,2.71-7.16s-6.69-2-6.69,2.52S142.14,139.5,145.8,137.43Z"/>
      <path class="cls-9" d="M182.8,171.76c4.71-2.66,5.23-2,3.7-9.79s-9.14-2.68-9.14,3.45S177.8,174.59,182.8,171.76Z"/>
      <path class="cls-9" d="M158.55,119.92c1.52-4.94,2.18-6.25-1.09-6.9s-8.92,4.43-5.87,6.9S157.76,122.48,158.55,119.92Z"/>
      <path class="cls-9" d="M343.13,136.41s-2.27-3.42-5-.82S340.64,140.73,343.13,136.41Z"/>
      <path class="cls-9" d="M308.08,136.68c.4-.75-14.24-4.82-8.36-1.09S306.27,140.13,308.08,136.68Z"/>
      <path class="cls-9" d="M167.68,186.81c-1.85-4.28-6.56,5.43-4.3,7.23S170.62,193.59,167.68,186.81Z"/>
      <path class="cls-9" d="M160.44,169s1.13,7.69-2.94,7.23-6.1-1.58-5-6.1S158.18,165.56,160.44,169Z"/>
      <path class="cls-9" d="M116.5,169.84s.72,4.84-1.85,4.56-3.84-1-3.13-3.84S115.08,167.71,116.5,169.84Z"/>
      <path class="cls-9" d="M102.92,178.32s.59,4.21-1.53,4-3.17-.87-2.59-3.34S101.74,176.46,102.92,178.32Z"/>
      <path class="cls-9" d="M69.28,182.42s.58,2.67-1.53,2.51-3.18-.55-2.59-2.11S68.1,181.25,69.28,182.42Z"/>
      <path class="cls-9" d="M58.51,193.8s.59,2.67-1.53,2.51-3.17-.55-2.58-2.11S57.34,192.63,58.51,193.8Z"/>
      <path class="cls-9" d="M84.78,222.68s.59,2.67-1.53,2.51-3.17-.55-2.58-2.12S83.61,221.51,84.78,222.68Z"/>
      <path class="cls-9" d="M90.81,221.18c-1.54-.55-7,9.49-1.59,9S99.55,224.26,90.81,221.18Z"/>
      <path class="cls-10" d="M91.48,240a59,59,0,0,1,5.94,13.86c2.73,7.66,4.76,12.51,10.47,18.55,4.3,3.2,5.55,3.07,7.45,0-6.52-2.46-13.38-12.08-14.7-16.29S93.07,241.19,91.48,240Z"/>
      <path class="cls-10" d="M86.32,239.19S71.76,258.76,67.1,262.28s-8.59,5.89-10.69,3.76C60.69,263.79,83.63,240.76,86.32,239.19Z"/>
      <path class="cls-10" d="M77.11,228.59s-.17.18-17.69,9.49c-8.28,3.19-10.22,2.8-10.64,1.89-.53-1.12,16.24-7.1,20.7-9A32.32,32.32,0,0,1,77.11,228.59Z"/>
      <path class="cls-10" d="M264.37,119.94s8.76,17.55,42.22,23.71c15.52,3.63,17.65.75,23.77,3.63a19.84,19.84,0,0,1,4.79,3.22c1.58,1.46,1.77,2.07,4.36,5.14a18.76,18.76,0,0,0,3.28,3.18c7.64,5.06,16.11,8,17.82,5.68-2.92-.67-6.91-2.53-11.79-4.65-3.11-1.36-5.42-2.79-7-5.11-3.1-4.65-11.08-12.18-16.61-12s-26.57-1.12-38.09-7-21-17.16-21-17.16Z"/>
      <path class="cls-10" d="M389.49,146.34s-1.83,6.24-26.85.12c-5.71-1.18-11.72-2.42-17-.12,0,0,4.43-5.78,17.94-2s24.14,3.36,25.21-2.2a3.53,3.53,0,0,1,.73,4.21Z"/>
      <path class="cls-5" d="M359.3,74A47.18,47.18,0,0,1,331.74,84.9a43.4,43.4,0,0,1-14.9-2,50.16,50.16,0,0,1-13.4-6.73A57.21,57.21,0,0,0,317,82.39a44.6,44.6,0,0,0,14.7,1.76,47.32,47.32,0,0,0,14.52-3A51.71,51.71,0,0,0,353,78,45.11,45.11,0,0,0,359.3,74Z"/>
      <path class="cls-10" d="M206.31,168.32a112,112,0,0,1-18.81,25.14c-5,5-9.63,9.56-17,13.52-8.06,4.3-14.94,5.48-25.67,7.23-19.11,3.1-22.77,2.3-33,5.63-4.35,1.41-9.76,2.59-11.46,7.56,2.57-7,5.72-8.72,21.91-11.24s47.15-6.66,60.05-21.52S206.31,168.32,206.31,168.32Z"/>
      <path class="cls-10" d="M50.28,201.65c.26.17,4.69,14.86,5.27,16.27s3.11,10,9.45,6.39c-5.82-3.36-10.19-14.85-11.11-17.45A16.82,16.82,0,0,0,50.28,201.65Z"/>
      <path class="cls-10" d="M45.58,201.65S40.89,208,28.63,216.84c-2.93,3.41-11.27,4-13.65,2.61a62.63,62.63,0,0,0,18-9.74C43,201.82,45.58,201.65,45.58,201.65Z"/>
      <path class="cls-10" d="M43.23,186.64s-2.09-1.18-8.89,2.43c-4.06,4-17.45,9.14-22,4.72,0,0,.44-2.33,1.44-2.81.34,2.45,5.29,4.34,13.6,0S39.54,184.71,43.23,186.64Z"/>
      <path class="cls-11" d="M122.48,187.86c-1.36-1.44-1.19-15.76,3.84-43.84,4.56-25.38,32.18-56.17,32.18-56.17"/>
      <path class="cls-5" d="M263,27.65a24.61,24.61,0,0,1,.2,4.19c0,.69,0,1.38-.09,2.08S263,35.3,263,36a6.24,6.24,0,0,1-.48-2.07c-.07-.71-.07-1.41-.07-2.11A18.42,18.42,0,0,1,263,27.65Z"/>
      <path class="cls-10" d="M124.4,153.09c-.52,3.52-1.22,8.26-1.78,13.6-.48,4.5-1,10.57-1.16,17.89-2.46-.32-8.64.59-13.33.85-5.14.46-20.49,1.82-25.37,1.17A40.71,40.71,0,0,1,78,186s.13.38,10.47-1,26.48-1.66,28.44-4.65,8.16-34.91,8.91-36.24C125.45,146.3,124.94,149.4,124.4,153.09Z"/>
      <path class="cls-9" d="M278.56,117.33s.27-6.07-7.57-2.63S273.43,123,278.56,117.33Z"/>
    </g>
  </g>
</svg>
