<svg xmlns="http://www.w3.org/2000/svg" width="391.76" height="304.94" viewBox="0 0 391.76 304.94">
  <defs>
    <style>
      .cls-1, .cls-4 {
        fill: #50ca0a;
      }

      .cls-1, .cls-11, .cls-2, .cls-6, .cls-8 {
        stroke: #33560a;
      }

      .cls-1, .cls-11, .cls-2, .cls-6, .cls-7, .cls-8 {
        stroke-miterlimit: 10;
      }

      .cls-1, .cls-11, .cls-2, .cls-8 {
        stroke-width: 0.75px;
      }

      .cls-2 {
        fill: #e5f550;
      }

      .cls-3 {
        fill: #d1ca3b;
      }

      .cls-5 {
        fill: #33560a;
      }

      .cls-6 {
        fill: #fff;
        stroke-width: 0.5px;
      }

      .cls-7 {
        stroke: #ea6907;
      }

      .cls-8 {
        fill: #2e6b06;
      }

      .cls-9 {
        fill: #e4f550;
      }

      .cls-10 {
        fill: #42a90e;
      }

      .cls-11 {
        fill: none;
      }
    </style>
  </defs>
  <g id="Layer_3" data-name="Layer 3">
    <g>
      <path class="cls-1" d="M363.44,171.26s-3.46,35.16-5.63,41.66-25.7,9.44-29.92-37.64c.28-28.52-8.29-39.26-28.33-22.07-16.05,20.55-5.63,30-29.24,35.22s-85.67-40.35-87-41.54c0,0-15.81,14.89-42.82-.87s-29.39-44.11-28.58-48.56,9.68-4.48,5.41-9.86S96.6,64.13,93.43,56.32,78.12,43,74.3,49.55,63.51,63.68,59.87,65.64,44,66,57,51s5.61-12.77-1.64-14.42-12.86-3.33-17.19-4.78S21,16.58,39.87,20.65C55.41,27.06,64.6,30.7,64.6,30.7s8.27,1.51,8.07-2.79-7-6.86-11.56-8.68-19.93-16-7.29-14.56c16,4.65,26.51,19,27.69,21.57,0,0,9.21,5.29,16.46,21.39,6.21,7.37,18.82,26.42,40,21.75,22.57-6.72,41-13.87,52.89-12.68,15.6.87,55.33,19,70.55,27.32,16.87,8.33,39.11,26.84,49.51,27.42,0,0,15.32,6.08,17.72,5.53s24.39-11.32,30.91,14.18C366.22,148.78,363.44,171.26,363.44,171.26Z"/>
      <path class="cls-2" d="M303.36,219.46c-68.59-14.49-54.74-14.37-70.31-14.15-20.51.3-81.17-21.09-108.92-65.22-8.9-16.07,3.46-41.84,34.67-15.64s81.57,57.47,101.56,59.2,23.76.79,27.56-18.5,37.11-33.44,42.32-5.93c-1.05,24.05,0,54.25,26.94,54.14a15.32,15.32,0,0,1-2.51,4.48C345.9,228.65,323.92,223.81,303.36,219.46Z"/>
      <path class="cls-3" d="M118.91,114.61a6.18,6.18,0,0,0,1.56-1.62,5.63,5.63,0,0,0,1.56.28c13,5.94,58.66,28,72.54,39,35.17,22.68,40.79,24.21,56.11,29.55,6.87,5.06,6.86,20.41,45.54,35.61l-28.85-7.79s-19.37-4.65-26.6-4.86c-8.67.42-17.49-1.13-22.43-2.06-6.71-1.27-26.7-8.92-26.7-8.92s-15-7.42-18.69-9.62-23.33-14.79-28.52-20c-4.86-4.68-15.37-15.74-19.63-23,0,0-5.31-13.78-9.3-25.4A6.09,6.09,0,0,0,118.91,114.61Z"/>
      <path class="cls-1" d="M272.21,172.68s-9.62,27.2-2.56,41.76,11.13,22.86,25.29,20.84,22.44,3.93,16.51,10.81-10.24-.14-12.67-1.24-12.29.16-4,8.85,12.84,20.57,12.09,28.87-7.83,9.3-14.93-5.79-7-16.27-10.24-20.69-11.51-5.93-7.92,7.69c6.6,11.55-3.28,18.94-7,3.16-2.37-12.25,0-14.45.85-17.25a19.5,19.5,0,0,0-3.08-17.32c-5.32-6.87-14.69-32.06-14.07-38.6,0-5.85-2.06-15.24,3-23.18"/>
      <path class="cls-1" d="M208.21,142.79s-31.38,10.85-40.43,8.22c-11.79-.18-29.41-.77-41.6-9.56s-32.44-29.24-40.32-38.23-20.8-8.39-23.44.65-2.83,21.41-14.09,28.63S36,129.09,45.4,113c0,0,7.27-8,8.35-12,1.26-4.7,8-10.52-6.87-9.14C32.6,93.16.13,85.28,22.7,78.56c19.45,3.22,28.38,6.49,33.67,4.5s-.49-6.33-8.78-9.48S19.88,56,43.33,62.6c21.25,11.45,21.27,12,25.8,13.86s11.71,7.45,20.78,19,27.18,18.42,36.92,17.24,18.07-10.82,27.81-12,22.42-.51,26.67,3.22"/>
      <g>
        <path class="cls-4" d="M362.65,173.13s3.91-3.58,9.36-8.44a13.83,13.83,0,0,0,4.41-6.72c2.16-6.52-1.31-14.58-6.55-19.26-7.1-6.34-16.11-5.29-17.58-5.09L346,134"/>
        <path class="cls-5" d="M362.65,173.13l6.13-5.78,3.09-2.86a15.69,15.69,0,0,0,2.69-3.13,15,15,0,0,0,1.63-3.78,12.57,12.57,0,0,0,.53-4.05,18.65,18.65,0,0,0-2.1-7.92,22.5,22.5,0,0,0-4.93-6.6,20.67,20.67,0,0,0-7.11-4.14,24,24,0,0,0-8.21-1.23c-2.78.18-5.61.26-8.41.39,2.81-.26,5.59-.45,8.4-.76a24.44,24.44,0,0,1,8.4,1,20.57,20.57,0,0,1,7.39,4.18,23.31,23.31,0,0,1,5.14,6.77,19.4,19.4,0,0,1,2.11,8.25,13.32,13.32,0,0,1-.59,4.25,14.29,14.29,0,0,1-1.77,3.9,16,16,0,0,1-2.85,3.17L369,167.62Z"/>
      </g>
      <path class="cls-6" d="M363.66,169.24c-7.08,4.69-15.81,5-22,.75-6.55-4.49-7.36-12.09-7.39-12.4-.79-8.59,5.51-14.11,6.13-14.64l3.43-2.37a23.29,23.29,0,0,0,.13,8.54c2.08,10.1,10.41,15.48,12.45,16.72Z"/>
      <path class="cls-7" d="M363.66,169.24s-7.09,4.64-13.66,3.65-1.76-7.86,3.49-9.09C354.29,165.1,363.66,169.24,363.66,169.24Z"/>
      <path class="cls-8" d="M363.66,169.24s7.18-5.29,6.08-13.56-9.42-18.59-26.42-15.86a27.64,27.64,0,0,0,.66,9.3,27.85,27.85,0,0,0,19.68,20.12Z"/>
      <path class="cls-9" d="M226.3,91.47c.6.33,10.81,4.16,15.67-1s-6-9.08-13.15-10.23S213,84,226.3,91.47Z"/>
      <path class="cls-9" d="M253.24,117.53s2.26,3.52,5.3-1.13S252,109.09,252,113,253.24,117.53,253.24,117.53Z"/>
      <path class="cls-9" d="M240.22,143.75a8.1,8.1,0,0,0,10.5-.12c5.66-4.44-2.44-8.89-6.64-7.31S238,139,240.22,143.75Z"/>
      <path class="cls-9" d="M280.06,129.43s1.45,3.24,8.54-2.2-5.61-11.94-7.07-4.87Z"/>
      <path class="cls-9" d="M204,118.48c.7.62,3.56,4.64,7.38.46s-3.52-11.75-6-8.69S201.46,116.25,204,118.48Z"/>
      <path class="cls-9" d="M171.71,83c3.56,1.72,3.36,2.33,7.44-1.85s-2.19-6.62-5.88-4.07S167.93,81.17,171.71,83Z"/>
      <path class="cls-9" d="M164.53,133c4.86,2.36,4.58,3.18,10.15-2.53s-3-9-8-5.55S159.35,130.46,164.53,133Z"/>
      <path class="cls-9" d="M193.38,83.54c4.92-1.57,6.37-1.76,5.05-4.82s-8.72-4.82-9-.91S190.82,84.35,193.38,83.54Z"/>
      <path class="cls-9" d="M284.78,244.73s1.53-3.8-2.15-4.55S279.82,245.14,284.78,244.73Z"/>
      <path class="cls-9" d="M264.63,216.06c.85-.1-4.13-14.46-3.86-7.5S260.76,216.54,264.63,216.06Z"/>
      <path class="cls-9" d="M143.55,129.09c2.46-4-8.2-2.31-8.4.58S139.64,135.36,143.55,129.09Z"/>
      <path class="cls-9" d="M154.12,113s-5.68,5.3-7.62,1.7-2.17-5.93,2.19-7.57S155.63,109.19,154.12,113Z"/>
      <path class="cls-9" d="M128.4,77.35s-3.58,3.34-4.8,1.07-1.37-3.73,1.38-4.76S129.34,75,128.4,77.35Z"/>
      <path class="cls-9" d="M113.7,71s-3.13,2.88-4.13,1-1.09-3.1,1.28-4S114.56,69,113.7,71Z"/>
      <path class="cls-9" d="M91.19,45.66s-1.86,2-2.93.17-1.36-2.93.26-3.34S91.49,44,91.19,45.66Z"/>
      <path class="cls-9" d="M75.7,43.28s-1.85,2-2.93.16-1.35-2.92.27-3.33S76,41.64,75.7,43.28Z"/>
      <path class="cls-9" d="M66.89,81.31s-1.85,2-2.93.16-1.35-2.92.27-3.33S67.19,79.67,66.89,81.31Z"/>
      <path class="cls-9" d="M71.56,85.41c-.43-1.58-11.8-.37-8.34,3.84S74,94.35,71.56,85.41Z"/>
      <path class="cls-10" d="M56.48,96.65a58.65,58.65,0,0,1-8,12.76c-4.75,6.62-7.58,11-9.3,19.17-.19,5.36.63,6.31,4.23,6.13-1.68-6.76,2.33-17.88,5-21.36S56.38,98.66,56.48,96.65Z"/>
      <path class="cls-10" d="M54.19,92s-24.38-.85-29.93-2.67-9.73-3.72-9.17-6.66C19.38,84.87,51.37,90.64,54.19,92Z"/>
      <path class="cls-10" d="M57.67,78.35s-.25,0-17.87-9.14c-7.33-5-8.11-6.82-7.61-7.68.63-1.08,15.09,9.32,19.21,11.88A32.32,32.32,0,0,1,57.67,78.35Z"/>
      <path class="cls-10" d="M253.54,170.59s-9.45,17.18,4.51,48.21c5.84,14.83,9.42,14.95,10.53,21.62a19.7,19.7,0,0,1,.08,5.77c-.3,2.12-.69,2.63-1.75,6.5a19.36,19.36,0,0,0-.75,4.51c.18,9.16,2.58,17.8,5.47,17.89-1.11-2.79-1.86-7.12-2.88-12.34-.66-3.33-.8-6.05.23-8.65,2.07-5.19,3.72-16,.39-20.46s-14.18-22.49-15.91-35.3,2.14-27.06,2.14-27.06Z"/>
      <path class="cls-10" d="M303,288.51s-6.18,2.05-15.37-22c-2.28-5.36-4.68-11-9.59-14.07,0,0,7.27.36,11.86,13.61s11,21.77,16.14,19.49A3.56,3.56,0,0,1,305,287.6,3.61,3.61,0,0,1,303,288.51Z"/>
      <path class="cls-5" d="M345.3,222.55a47.19,47.19,0,0,1-24.62-16.48,43.49,43.49,0,0,1-6.86-13.37,49.91,49.91,0,0,1-2.09-14.85,57.3,57.3,0,0,0,2.63,14.67,44.36,44.36,0,0,0,6.91,13.1A47.13,47.13,0,0,0,332,215.83a52.3,52.3,0,0,0,6.4,3.83A46.69,46.69,0,0,0,345.3,222.55Z"/>
      <path class="cls-10" d="M180.72,150.35a111.65,111.65,0,0,1-31.37-1.18c-6.91-1.26-13.34-2.48-20.8-6.32-8.12-4.18-13-9.17-20.55-17-13.43-13.95-14.84-17.42-23.39-23.92C81,99.16,76.92,95.38,71.87,96.8c7.25-1.89,10.43-.25,21.71,11.63s32.3,35,51.85,37.15S180.72,150.35,180.72,150.35Z"/>
      <path class="cls-10" d="M64.57,41c0,.3-9.56,12.31-10.39,13.58S47.73,62.8,54.3,66c-.55-6.7,6.43-16.82,8-19.06A16.72,16.72,0,0,0,64.57,41Z"/>
      <path class="cls-10" d="M61.9,37.11S54,36.87,39.76,31.8c-4.47-.47-9.73-7-9.9-9.74a62.68,62.68,0,0,0,18.25,9.28C60.28,35.06,61.9,37.11,61.9,37.11Z"/>
      <path class="cls-10" d="M72.91,26.63s-.22-2.39-7.06-5.93c-5.62-1.05-17.45-9.15-16.4-15.41,0,0,2.17-1,3.14-.41-1.83,1.67-.56,6.81,7.73,11.18S72.4,22.5,72.91,26.63Z"/>
      <path class="cls-11" d="M117,92.51c.41-2,12.28-10,38.24-21.77,23.46-10.69,64.5-5.49,64.5-5.49"/>
      <path class="cls-5" d="M328.68,117a25.44,25.44,0,0,1-3.34,2.55c-.58.38-1.17.75-1.76,1.1s-1.21.68-1.78,1.1a6.16,6.16,0,0,1,1.44-1.57,17.24,17.24,0,0,1,1.69-1.26A17.69,17.69,0,0,1,328.68,117Z"/>
      <path class="cls-10" d="M146.66,74.31c-3.19,1.58-7.48,3.7-12.2,6.27-4,2.17-9.24,5.21-15.37,9.23-1.13-2.21-5.4-6.78-8.28-10.49-3.29-4-13.15-15.82-15.39-20.2a42.13,42.13,0,0,1-2.17-4.28s-.24.33,6.79,8,16.42,20.84,20,20.75,33.35-13.14,34.88-13.28C152.84,71.31,150,72.66,146.66,74.31Z"/>
      <path class="cls-9" d="M263.76,180.78s5.14-3.23-2.15-7.73S256.17,179.79,263.76,180.78Z"/>
    </g>
  </g>
</svg>
