<svg id="Layer_1" data-name="Layer 1" xmlns="http://www.w3.org/2000/svg" width="391.76" height="304.94" viewBox="0 0 391.76 304.94">
  <defs>
    <style>
      .cls-1 {
        opacity: 0.27;
      }

      .cls-2 {
        fill: #2e6300;
      }

      .cls-3 {
        fill: #42a90e;
      }

      .cls-4 {
        fill: #5bb900;
      }

      .cls-10, .cls-5 {
        fill: #50ca0a;
      }

      .cls-6 {
        fill: #71dd2a;
      }

      .cls-7 {
        fill: #307206;
      }

      .cls-8 {
        fill: #e5f550;
      }

      .cls-9 {
        fill: #509b00;
      }

      .cls-10, .cls-26 {
        stroke: #33560a;
      }

      .cls-10, .cls-22, .cls-24, .cls-26 {
        stroke-miterlimit: 10;
      }

      .cls-10, .cls-22, .cls-26 {
        stroke-width: 0.5px;
      }

      .cls-11 {
        fill: #d1ca3b;
      }

      .cls-12 {
        fill: #510000;
      }

      .cls-13 {
        fill: #7c0000;
      }

      .cls-14 {
        fill: #c85a5f;
      }

      .cls-15 {
        fill: #eb7d86;
      }

      .cls-16 {
        fill: #99252e;
      }

      .cls-17 {
        fill: #752a2a;
      }

      .cls-18 {
        fill: #b28f00;
      }

      .cls-19 {
        fill: #fccdd1;
      }

      .cls-20 {
        fill: #4aaa0c;
      }

      .cls-21 {
        fill: #66d61e;
      }

      .cls-22 {
        fill: #fcfae6;
        stroke: #424015;
      }

      .cls-23 {
        fill: #efebbd;
      }

      .cls-24 {
        stroke: #ea6907;
        stroke-width: 2px;
      }

      .cls-25 {
        fill: #fff;
      }

      .cls-26 {
        fill: none;
      }
    </style>
  </defs>
  <g>
    <ellipse class="cls-1" cx="207.98" cy="261.18" rx="170.08" ry="39.76"/>
    <g>
      <g>
        <g>
          <path class="cls-2" d="M265,233.71c13.35,0,30.45-7.21,41.07-17.75,10.06-10,9.45-15,8.2-17-2-3.31-7.65-3.37-11.95-1.52l.17.46c4.13-1.78,9.52-1.77,11.39,1.32,1.18,1.95,1.69,6.68-8.13,16.42-11.85,11.77-31.84,19.35-45.5,17.28-5.43-.83-9.36-3.17-11.36-6.76l-.39.25c2.07,3.73,6.11,6.14,11.69,7A31.11,31.11,0,0,0,265,233.71Z"/>
          <g>
            <path class="cls-3" d="M248.7,226.25c7.56,13.58,39.82,6.78,57.21-10.47s5.2-21.9-3.51-18.15"/>
            <path class="cls-4" d="M350.27,238.26s-4.63.12-2.66,6.51c-7.53-4.67-29-2.62-36-10.81C325.83,229.21,337.34,238.62,350.27,238.26Z"/>
            <path class="cls-2" d="M347.49,245c-3.08-1.91-8.59-2.69-14.42-3.52-8.19-1.16-17.46-2.47-21.65-7.33l-.25-.29.35-.11a26.18,26.18,0,0,1,8.41-1.36c5.25,0,10.26,1.46,15.1,2.87s10,2.92,15.23,2.77l0,.49a3.18,3.18,0,0,0-2.37,1.32c-.72,1.08-.75,2.72-.08,4.87l.19.62Zm-12.58-9.27c-4.81-1.4-9.79-2.85-15-2.85a25.7,25.7,0,0,0-7.92,1.22c4.2,4.5,13.18,5.77,21.12,6.9,5.58.79,10.87,1.54,14.09,3.28-.53-2-.43-3.61.31-4.72a3.28,3.28,0,0,1,1.11-1C344,238.35,339.36,237,334.91,235.71Z"/>
            <path class="cls-3" d="M308.78,206.19c-8.79,11.42-8.67,12-19.64,19.58A40.55,40.55,0,0,1,274.72,232c-3.56.67-11.4,3.79-8.68,10,3.33,7.59,13.91.78,18.44-2.16a18.69,18.69,0,0,1,10.66-3c2.59.16,6.14,1,11.29,3.09s16.48,6.59,23.8,12S349,260,352.1,253c2-4.41-1-9.5-9.74-11.78-7.77-2-19.7-3-27.89-6.83,8.66-1.54,16.81,1.45,22.39,3.25s13,3,17.22,1.47c6.58-2.28,4.59-14.34-9.25-14.34-13.52,0-33.06,2.26-35.71-.83,29.6-25.43,7.31-36.07-6.72-26.34"/>
            <path class="cls-5" d="M293,228.23a85.84,85.84,0,0,0,9.53-7.35c6.72-6.51,8.62-11.91,10.19-19.28,1.44-6.73,3.77-7.29,5.5-6.71,7.66,2.56,9.59,13-9.12,29.08,2.65,3.09,22.19.83,35.71.83,7.87,0,11.91,3.91,12.72,7.69.32,1.5-1.75,4-6.41,4.37-4.26.38-11-1.18-13.67-2-5.58-1.8-14.34-1.94-23-.4,8.19,3.81,20.12,4.8,27.89,6.83,6.68,1.75,9.85,5.15,10.31,8.61.29,2.22-1.63,4.47-5.93,4.46-4.62,0-12-4.12-15.81-6.93-7.32-5.43-19.33-9.56-24.48-11.63a29.09,29.09,0,0,0-11.77-2C291.52,233.71,290,230.32,293,228.23Z"/>
            <path class="cls-6" d="M340.76,242.78c2.72.42,6.83,1.4,9.3,3.7,2.73,2.53-.46,3.26-2.52,1.84a65.46,65.46,0,0,0-7.68-4.9C339.27,243.11,339.12,242.53,340.76,242.78Z"/>
            <path class="cls-6" d="M345.07,226.51c2.09-.13,5.28-.06,7.44,1.25,2.39,1.45.13,2.5-1.61,1.78a48.22,48.22,0,0,0-6.41-2.42C344,227,343.81,226.58,345.07,226.51Z"/>
            <path class="cls-2" d="M344.48,257.48a11.64,11.64,0,0,0,3.1-.39,7,7,0,0,0,4.73-3.95,6.46,6.46,0,0,0,0-5.42c-1.34-3-4.87-5.39-9.94-6.71-2.64-.69-5.76-1.26-9.06-1.87-6-1.09-12.75-2.32-18-4.61,7.72-1.13,15,1.25,20.3,3l1.17.38c5.16,1.67,12.8,3.06,17.36,1.48a5.72,5.72,0,0,0,3.7-6.5c-.62-4.14-4.89-8.32-13-8.32-4.09,0-8.76.21-13.28.41-9.77.43-19.86.88-22.08-1,17.6-15.19,15-23.33,13.11-26.14-3.59-5.23-13.08-5.42-20.3-.42l.25.42c6.9-4.79,16.28-4.65,19.68.29,3.86,5.62-1.08,15.21-13.23,25.65l-.19.16.16.2c1.92,2.24,12,1.79,22.62,1.32,4.51-.2,9.18-.41,13.26-.41,7.86,0,12,4,12.56,7.9a5.18,5.18,0,0,1-3.38,6c-4.46,1.54-12,.17-17.09-1.48l-1.17-.38c-5.56-1.82-13.19-4.31-21.32-2.87l-.76.13.71.33c5.43,2.53,12.58,3.84,18.89,5,3.29.6,6.4,1.17,9,1.86,4.93,1.29,8.35,3.57,9.63,6.44a6,6,0,0,1,0,5,6.55,6.55,0,0,1-4.43,3.69c-4.52,1.26-11.55-.73-17.09-4.85-7.25-5.37-18.33-9.82-23.65-12l-.21-.09c-4.77-1.91-8.48-2.93-11.36-3.1a18.82,18.82,0,0,0-10.79,3c-3.38,2.2-10.42,6.76-14.95,5.32a5.19,5.19,0,0,1-3.16-3.05,5.1,5.1,0,0,1-.05-4.46c1.53-3.12,6.27-4.76,8.56-5.19A41.05,41.05,0,0,0,289.27,226c9.59-6.6,10.26-7.44,16.62-15.42.94-1.18,2.89-4.37,2.89-4.37-1.24,1.54-2.3,2.88-3.24,4.06-6.46,8.1-7,8.76-16.53,15.32a40.65,40.65,0,0,1-14.33,6.19c-2.54.48-7.28,2.16-8.89,5.45a6.22,6.22,0,0,0,3.49,8.2c4.72,1.51,11.88-3.14,15.32-5.37a18.42,18.42,0,0,1,10.53-2.93c2.82.17,6.49,1.17,11.22,3.07l.21.09c5.3,2.13,16.34,6.57,23.54,11.91C334.61,255.52,340.09,257.48,344.48,257.48Z"/>
          </g>
        </g>
        <path class="cls-7" d="M316.91,194.74s-2.57.18-3.78,5.28-2.44,13-10.12,20.41-9.69,6.57-11.64,9.34-14.16.8-17.19,2.1-7.43,2-9.07,1.35,6.57-20.85,6.83-20.94S308.8,195,308.8,195,313.21,193.63,316.91,194.74Z"/>
        <path class="cls-8" d="M323.32,200.72s-3.5-.07-5.55,1.81S313.7,210,319,213.25C319,213.25,324.69,207,323.32,200.72Z"/>
        <circle class="cls-8" cx="306.71" cy="220.43" r="2.09"/>
      </g>
      <g>
        <path class="cls-9" d="M325.83,262.83s-11.43-.69-9,10.73c-5.12-5.18-18-12.73-24.33-22.85,8.27,1.8,14.37,3.36,20.54,6.88A59.58,59.58,0,0,0,325.83,262.83Z"/>
        <path class="cls-4" d="M319.28,264.59c-2,1.47-3.5,4.13-2.48,9-4.21-4.26-13.63-10.12-20.39-17.68C304.54,255.89,311.56,261.64,319.28,264.59Z"/>
        <path class="cls-2" d="M316.64,273.74a77.84,77.84,0,0,0-6.91-5.78c-5.85-4.56-13.13-10.24-17.45-17.11l-.31-.5.55.12c7.79,1.7,14.26,3.29,20.6,6.9a59,59,0,0,0,12.77,5.22l-.07.49h-.36c-1.2,0-5.27.22-7.41,3-1.34,1.77-1.68,4.26-1,7.39l.17.79Zm-3.74-15.93c-6.15-3.51-12.17-5-19.91-6.73,4.3,6.57,11.33,12.06,17,16.48,2.55,2,4.79,3.74,6.43,5.3-.48-2.94-.06-5.31,1.26-7.06,1.78-2.34,4.78-3,6.59-3.16A60,60,0,0,1,312.9,257.81Z"/>
        <path class="cls-3" d="M287.92,208.05c1.7,5.57,3.71,29.64,3.86,32.92a49,49,0,0,0,21.47,7.45c8.95,1,9.42-.25,16.29,1.31s7.95,7.29,5.87,10.81-7.49,5.16-15.21,2.21-11.28-7.86-25.41-10a91.65,91.65,0,0,0,18,15.72c14.52,10.07,5.64,21.45-4.72,16.16-5.57-2.84-10.89-11.82-13.11-17-2.52-5.84-9.19-16.54-15.37-16.87s-11.89,6.88-20.08,5.9-9.57-7.3-6.48-10.36,13.13-1.27,17.14-4.05,7.12-8.84,7.1-26.37"/>
        <path class="cls-5" d="M269.81,247.29c-3.36,6.24-11.29,8-17.58,5.38a5.21,5.21,0,0,1,.79-6.34c2.46-2.44,9.32-1.8,14-2.84A2.6,2.6,0,0,1,269.81,247.29Z"/>
        <path class="cls-5" d="M303.16,275.79c-4.07-4.62-8.16-16.47-15.57-23.84-1.85-2-3.6-4.26-6.47-5.48s-4.39-4.16-4-7.65a69.77,69.77,0,0,1,3.72-15.51c1.16-3.28,5-8.53,8.37-8.18,1.29,9.27,2.44,23.39,2.56,25.84a49,49,0,0,0,21.47,7.45c8.95,1,9.42-.25,16.29,1.31s7.95,7.29,5.87,10.81-7.21,1.92-14.93-1-14.8-8.83-28.93-11c.19.22,3.62,4.64,3.81,4.86a92.07,92.07,0,0,0,17.42,15.07c5.68,3.94,7.78,8.08,7.61,11.34C318.53,286,307.23,280.4,303.16,275.79Z"/>
        <path class="cls-6" d="M310.09,267.7c2.58,1.52,6.58,4.3,8.27,7.77,1.8,3.67-1.66,3.07-3.2.79a76.69,76.69,0,0,0-6-8.22C308.73,267.52,308.71,266.89,310.09,267.7Z"/>
        <path class="cls-6" d="M322.56,250.63c3-.16,7.35,0,10.35,1.8,3.39,2,.18,3.54-2.28,2.51a75.92,75.92,0,0,0-8.35-3.21C321.39,251.47,320.67,250.74,322.56,250.63Z"/>
        <path class="cls-2" d="M313.21,286.23a7.37,7.37,0,0,0,6.66-3.62c1.7-3.2.9-8.88-7-14.33a91.79,91.79,0,0,1-17.5-15.18,46.74,46.74,0,0,1,17.86,6.47,48.06,48.06,0,0,0,6.85,3.41c8.48,3.24,13.56.93,15.48-2.31a7.13,7.13,0,0,0,.49-6.25c-1-2.45-3.28-4.2-6.5-4.93a31.64,31.64,0,0,0-8.16-.88,67,67,0,0,1-8.16-.43A48.7,48.7,0,0,1,292,240.82c-.19-3.69-2.18-27.34-3.86-32.84l-.44.15c1.69,5.53,3.7,29.64,3.85,32.85v.13l.11.07a49.07,49.07,0,0,0,21.56,7.49,67.84,67.84,0,0,0,8.21.43,30.83,30.83,0,0,1,8.06.87c3.07.69,5.26,2.34,6.17,4.64a6.62,6.62,0,0,1-.45,5.8c-2.29,3.87-8.15,4.7-14.94,2.11a48.15,48.15,0,0,1-6.78-3.38,47.22,47.22,0,0,0-18.67-6.62l-.64-.1.44.51a92.48,92.48,0,0,0,18,15.76c7.6,5.27,8.42,10.66,6.81,13.68s-6.09,4.72-11.3,2.05c-5.4-2.75-10.73-11.59-13-16.86-2.76-6.4-9.43-16.68-15.57-17-2.84-.15-5.57,1.25-8.46,2.74-3.52,1.81-7.18,3.69-11.6,3.16-4-.48-6.72-2.29-7.56-5a4.91,4.91,0,0,1,1.21-5c1.53-1.53,5-1.82,8.43-2.1s6.69-.55,8.68-1.93c3.57-2.47,7.22-7.57,7.21-26.57H277c0,18.88-3.73,23.9-7,26.16-1.89,1.31-5.23,1.59-8.46,1.85-3.63.3-7,.58-8.71,2.23a5.44,5.44,0,0,0-1.33,5.49c.9,2.87,3.79,4.8,8,5.29,4.56.55,8.44-1.44,11.86-3.2,2.83-1.46,5.51-2.84,8.23-2.69,6.15.33,12.87,11.41,15.16,16.72,2,4.59,7.29,14.08,13.23,17.11A11.58,11.58,0,0,0,313.21,286.23Z"/>
        <path class="cls-2" d="M294.62,252.93l.34-.34a39.42,39.42,0,0,1-5-7.1,15.89,15.89,0,0,0,2.33,4.51C293.12,251.14,294,252.22,294.62,252.93Z"/>
      </g>
      <path class="cls-3" d="M251.19,107.4C246,88.19,224.06,71.46,193.5,122.16c0,0-11-.2-15,5.76-3.4-1-9.88,2.78-12.66,9.82s-3.57,14.81-7.91,19.1c-21.72,21.47-38.62,34.28-35.07,62.94,4.76,33.14,72.63,38.33,117.72,24.9s73.82-45.2,81.39-73c8-.37,16.37-18.34,1.66-24.23,1.19-4.87.08-11.3-2.85-12.61,6.53-20-2.05-42.45-20-42.45-12,0-16.31,11.88-19.4,15.81-2.39.74-2.88-2.9-16.27-3.16A35.65,35.65,0,0,0,251.19,107.4Z"/>
      <path class="cls-10" d="M251.86,107.12c-7.11-18.9-26-36.94-58.36,15,0,0-8.87-.94-15,5.76-3.4-1-10.91,3.07-14,10.68-2.89,7-3.56,14.8-7.9,19.09-21.73,21.47-37.48,30.73-29.12,57.25s43.66,24,101.29,1.93c44-16.91,75.41-20.31,83-48.15,20.47,9.2,27-16,11.93-21.31.86-1.66.55-11.14-2.38-12.45,9-41.73-18.22-47.17-29.36-39.9-6,3.9-7.43,9.17-10.52,13.1-.57.09-2.53-3.45-16.27-3.16C257.69,105.16,253.63,106.2,251.86,107.12Z"/>
      <path class="cls-11" d="M119.67,222.09c11.13,31,78.39,35.26,120.92,22.59,45.1-13.43,73.82-45.2,81.39-73a8.66,8.66,0,0,0,7.78-6.19c1.42-5.54-3.61-12.57-7.78-4-5.41,2-14.52,10.4-19.08,10.65s-16-6.31-23.78-7-30.19,4.92-41.31,2.93-41.44-25.56-55.28-26.22c1.73-6.15-5.91-12.11-12.36-4.6C163,145.63,160,168.58,173.88,185c6.88,8.15,16.06,9.39,18.37,18.93C199.77,235,130.33,248,119.67,222.09Z"/>
      <path class="cls-8" d="M169.24,138.48a3,3,0,0,1,4.49.9c2.31,2.46.46,8.85,1.39,8.85,14.39-5,32.83,12.79,44,24.72,7.33,7.86,10.94,17,18.27,24.56,12.66,13,31.66,10.77,43.06,5.25,7.79-3.78,6.74-14.21,13.69-21.21,2.82-2.82,6.36-2.07,13.08-5.13,5.71-2.61,11.09-11,17.11-13.95,2.23-1,5.95-1.87,5.69,1.67a8.19,8.19,0,0,1-8,7.51c-4.32,15.89-15.54,33.06-32.76,47.37-11.83,9.41-32.68,17-46.46,19.09-24.17,3.61-49.58-1.7-57.28-14.51,5.68-5.19,8.66-11.85,6.77-19.65-2.31-9.54-11.49-10.78-18.37-18.93C160.61,169.32,162.76,147.69,169.24,138.48Z"/>
      <g>
        <path class="cls-12" d="M208.05,155.27c17,12.28,27,31.91,34.4,39,3.52,3.38,8.51,5.43,13.78,6.41,9.35,1.74,19.55.1,23.9-3.46,6.79-5.57,3.28-16.54,20.65-24.56,0,0-11.7-5.57-17.72-7.82a25.68,25.68,0,0,0-7.15-1.45c-5.4-.42-12.35.16-21.5,1.57C240.59,167.06,234.11,166.07,208.05,155.27Z"/>
        <path class="cls-13" d="M256.23,200.65c9.35,1.74,19.55.1,23.9-3.46,6.79-5.57,3.28-16.54,20.65-24.56,0,0-11.7-5.57-17.72-7.82a25.68,25.68,0,0,0-7.15-1.45C279.31,179.28,266.74,193.25,256.23,200.65Z"/>
        <path class="cls-14" d="M233.49,183c3.43,4.73,6.36,8.78,9,11.26,8.41,8,25.12,8.56,34,5h0c5.31-2.76,9-11,3.73-16.28s-13.9-5.4-18.07-1.22C248.16,172.13,234.11,177.38,233.49,183Z"/>
        <path class="cls-15" d="M255,196.29c-6.67-2.66-15.26-7.86-11.09-14.74,3.71-5.89,15.57-2.86,21.13,2.54,1.17-3.72,5.27-5.52,9.56-4.55a14.13,14.13,0,0,1,5.62,3.44,8.57,8.57,0,0,1,2.39,4.5C283.47,196.43,268.25,201.59,255,196.29Z"/>
        <path class="cls-16" d="M264,201.59c-9,0-16.92-2.61-21.68-7.16-2.58-2.47-5.48-6.47-8.85-11.11l-.19-.27V183c.36-3.27,5.36-6.79,12.83-6.79a28.25,28.25,0,0,1,16,5.28,11.47,11.47,0,0,1,7.94-2.89,14.57,14.57,0,0,1,10.31,4.25,8.83,8.83,0,0,1,2.52,7.72,12.52,12.52,0,0,1-6.29,8.95l-.06,0h0A35.15,35.15,0,0,1,264,201.59Zm18.41-11.13a8.35,8.35,0,0,0-2.37-7.3,14.18,14.18,0,0,0-10-4.11,10.92,10.92,0,0,0-7.75,2.88l-.14.14L262,182a27.87,27.87,0,0,0-15.88-5.3c-7.13,0-11.93,3.23-12.36,6.25l.08.12c3.35,4.61,6.24,8.59,8.79,11,4.68,4.48,12.47,7,21.37,7h0A34.44,34.44,0,0,0,276.36,199h0A12,12,0,0,0,282.38,190.46Z"/>
        <path class="cls-17" d="M268.25,190.88a7,7,0,0,0-.91-3.57,16.23,16.23,0,0,0-5.11-5.76L262,182A15.84,15.84,0,0,1,268.25,190.88Z"/>
        <path class="cls-18" d="M242.29,194.42c-2.56-2.45-5.45-6.42-8.79-11-6.45-8.87-14.47-19.91-25.59-27.93l-1.69-1.22,1.91.79c19.75,8.19,27.89,10.56,36.31,10.56a64.79,64.79,0,0,0,9.94-.91A119.76,119.76,0,0,1,272.25,163a31.36,31.36,0,0,1,10.89,1.59c6,2.23,17.62,7.78,17.74,7.83l.47.23-.48.22c-11,5.08-13.51,11.24-15.73,16.67-1.22,3-2.37,5.81-4.87,7.86-3.17,2.6-9.42,4.21-16.3,4.21h0C255,201.59,247.06,199,242.29,194.42ZM283,165a30.67,30.67,0,0,0-10.73-1.57,120.08,120.08,0,0,0-17.8,1.7,64.63,64.63,0,0,1-10,.92c-8.23,0-16.17-2.24-34.69-9.86,10.36,8,17.95,18.4,24.12,26.87,3.32,4.58,6.2,8.54,8.73,11,4.68,4.48,12.47,7,21.37,7,6.79,0,12.92-1.57,16-4.1,2.41-2,3.48-4.62,4.73-7.67,2.1-5.17,4.72-11.58,15.49-16.71C298,171.56,288.24,167,283,165Z"/>
        <path class="cls-19" d="M267,188.93a11.61,11.61,0,0,0-6.09-6.39c-.76-.34-1.43-.22-1,.09a26,26,0,0,1,7,7.54C267.38,191,267.27,189.76,267,188.93Z"/>
        <path class="cls-19" d="M281.47,188.86c-.19-5.46-4.38-7.75-8-8.14-.81-.09-1,.27-.45.44a11.91,11.91,0,0,1,7.89,8.22C281.24,190.44,281.49,189.57,281.47,188.86Z"/>
      </g>
      <path class="cls-18" d="M146,244.62c-13.93-5.11-23.11-12.88-26.55-22.45l.43-.18c3.53,8.55,14.31,13.66,28.83,13.66,16.69,0,33.19-6.62,40.13-16.11A18.09,18.09,0,0,0,192,204c-1.38-5.69-5.21-8.36-9.64-11.44a42.14,42.14,0,0,1-8.68-7.38c-13.62-16.12-11.29-39.25-3.71-48.1,2.55-3,5-3.6,6.63-3.6a6.27,6.27,0,0,1,5.17,2.73,6.71,6.71,0,0,1,1,5.4c7.86.55,20.91,8.19,32.44,14.94,9.13,5.35,17.75,10.4,22.58,11.27a33.47,33.47,0,0,0,5.72.42c6,0,13.55-1,20.18-2a120.64,120.64,0,0,1,13.86-1.46q.86,0,1.53.06c4,.36,9.1,2.31,13.57,4,4.13,1.59,8,3.09,10.18,3,2.51-.13,6.54-2.89,10.44-5.55,3-2.05,6.11-4.16,8.48-5.05,1.66-3.36,3.31-4.07,4.4-4.07a3.35,3.35,0,0,1,2.65,1.59,8.51,8.51,0,0,1,1.13,6.71c-.41,1.57-2.7,6.07-7.84,6.36-4,14.42-13.41,29.28-26.64,41.87-14.83,14.12-33.8,24.9-54.86,31.17-14.46,4.31-31.84,6.68-49,6.68C174.24,251.6,158.44,249.19,146,244.62Zm176.18-83,0,.09-.09,0c-2.33.85-5.45,3-8.46,5-4,2.7-8,5.49-10.67,5.63-2.25.12-6-1.32-10.37-3s-9.49-3.64-13.45-4c-.43,0-.94-.06-1.49-.06a120,120,0,0,0-13.8,1.46c-6.64.92-14.17,2-20.24,2a33.28,33.28,0,0,1-5.8-.43c-4.9-.88-13.56-5.95-22.73-11.32-11.62-6.81-24.8-14.52-32.52-14.89l-.3,0,.09-.3a6.19,6.19,0,0,0-.89-5.27,5.82,5.82,0,0,0-4.79-2.53c-1.52,0-3.85.6-6.28,3.44-7.48,8.71-9.75,31.53,3.7,47.44a42,42,0,0,0,8.6,7.3c4.51,3.14,8.4,5.85,9.83,11.73a18.57,18.57,0,0,1-3.28,16c-7,9.6-23.67,16.3-40.49,16.3h0c-12.22,0-21.84-3.6-26.81-9.83,4.34,7.47,12.62,13.58,24.25,17.85,12.39,4.54,28.14,7,45.55,7,17.07,0,34.41-2.37,48.83-6.67,46.16-13.74,74.06-46.5,81.22-72.86l.05-.17H322a8.46,8.46,0,0,0,7.57-6,8,8,0,0,0-1.05-6.29,2.94,2.94,0,0,0-2.28-1.39C325.23,157.71,323.74,158.39,322.18,161.6Z"/>
      <path class="cls-5" d="M322,161.5c-7.42,2-13.05,13.43-21.2,12.78s-14.32-7.05-25-7.7-27.72,6.85-41.69,3.77c-19.31-4.26-37.34-26-51.58-28.49,0,0,63.93-.5,89.3,3.55S322,161.5,322,161.5Z"/>
      <g>
        <path class="cls-20" d="M321.81,161.29s-2.86.63-6.8,4.21-8.18,7.81-12,8.39a13.68,13.68,0,0,1-6.6-.77c-1.35-.32-6.83-2.84-8.2-3.43a41.25,41.25,0,0,0-8.78-2.92c-3.2-.54-5.06-.92-12.44.25-7.09,1.13-11.32,2.42-16.48,3s-8.32,1.2-14.79.33-13.43-4.78-18.22-7.67-13.85-9.61-15.84-11-9-6.4-12.29-7.74-5.87-2.17-5.87-2.17a12.67,12.67,0,0,1,5.87-1.05c3.32.22,6.88,6.95,25.81,18.27s28.87,10.15,33.32,9,16.09-4.3,27.49-3.92,17.28,6,23.29,7.68c5.58,1.54,13.32-6.78,13.32-6.78S318.87,158.31,321.81,161.29Z"/>
        <path class="cls-2" d="M301.45,174.54c4.39,0,8.08-3.39,11.65-6.68,2.83-2.6,5.76-5.29,8.93-6.13l-.11-.48c-3.28.87-6.25,3.6-9.12,6.24-3.69,3.39-7.5,6.89-12,6.53-3.71-.3-7-1.81-10.55-3.41-4.25-1.93-8.64-3.93-14.43-4.29-4.38-.27-9.86.84-15.66,2-8.33,1.68-17.78,3.59-26,1.77-10.13-2.23-19.73-9.17-29-15.88-8.11-5.87-15.78-11.41-22.56-12.6l-.08.48c6.68,1.18,14.31,6.69,22.38,12.52,9.33,6.74,19,13.71,29.19,16,8.32,1.84,17.81-.07,26.19-1.76,5.77-1.17,11.22-2.26,15.54-2,5.71.35,10.06,2.33,14.27,4.25,3.56,1.62,6.92,3.14,10.7,3.45Q301.11,174.54,301.45,174.54Z"/>
      </g>
      <g>
        <path class="cls-2" d="M177.29,146.43c5.71-6.54,12-5.69,12.08-5.68a8,8,0,0,0-5,.21,15,15,0,0,0-4.82,2.65A10.3,10.3,0,0,0,177.29,146.43Z"/>
        <path class="cls-2" d="M318,158.32c5.44,3,5.83,7.47,5.83,7.51a5.69,5.69,0,0,0-.92-3.45,10.68,10.68,0,0,0-2.6-2.93A7.44,7.44,0,0,0,318,158.32Z"/>
      </g>
      <g>
        <path class="cls-2" d="M253.46,116.64a19.65,19.65,0,0,0-.07-4.16,19.23,19.23,0,0,0-2.08-6l.12.8A31.91,31.91,0,0,1,253.46,116.64Z"/>
        <g>
          <path class="cls-2" d="M280.13,115.35c0-.06.4-5.72,3-9.5l-.36.08a19,19,0,0,0-2.88,6A5.89,5.89,0,0,0,280.13,115.35Z"/>
          <path class="cls-21" d="M286.17,100.79c-3.6,5.6-5.44,8.77-6,13.62-.13,1.12.16,1.16.4,0,1.44-6.63,4.44-9.61,6.09-12.43C289.83,96.59,286.79,99.82,286.17,100.79Z"/>
        </g>
        <path class="cls-21" d="M252.66,111.15a37.35,37.35,0,0,0-8.54-17c-1.94-2.13-2.25-1.27-1,.47a86.31,86.31,0,0,1,8.76,16.49C253,114.1,253.63,115.27,252.66,111.15Z"/>
      </g>
      <path class="cls-20" d="M315.59,102.76s-6.79-4.2-17.46,0-11.77,20.34-10,25.11c2.3,6.38,7.14,11.51,14.39,12.5s11.83-1.44,11.83-1.44Z"/>
      <path class="cls-10" d="M318.38,145.07s-10.95-8.63-21.06,0"/>
      <path class="cls-6" d="M302.47,143.84c0-.83,2-1.6,4.61-1.72s4.7.44,4.74,1.27-2,1.61-4.61,1.73S302.5,144.67,302.47,143.84Z"/>
      <g>
        <path class="cls-10" d="M223.51,143.81s-6-12.2-24.3-10.7"/>
        <path class="cls-2" d="M223.51,143.81a7.91,7.91,0,0,0-2.07-3.51c-2.92-3.07-8.7-7.27-18.73-7.68a8,8,0,0,0-3.5.49C217.6,132.33,223.46,143.69,223.51,143.81Z"/>
        <path class="cls-6" d="M205.41,135.15c.39-1,3.87-.48,7.77,1.21s6.73,3.88,6.34,4.9-3.87.47-7.76-1.21S205,136.17,205.41,135.15Z"/>
      </g>
      <g>
        <path class="cls-8" d="M152.23,162.26s3.3,4.12.1,7.8-9.22.93-9.22.93S151.85,162.39,152.23,162.26Z"/>
        <circle class="cls-8" cx="147.42" cy="183.47" r="5.41"/>
        <circle class="cls-8" cx="160.55" cy="191.93" r="3.05"/>
        <circle class="cls-8" cx="147.42" cy="197" r="2.05"/>
      </g>
      <g>
        <g>
          <path class="cls-20" d="M212.85,112.65c-3.32,12-1.18,21.93,8.37,25.16,13.4,4.55,24.16-1.52,28.44-13.26,3.92-10.76-1.81-25.59-13.33-27.73C222.44,94.25,216,101.08,212.85,112.65Z"/>
          <g>
            <ellipse class="cls-22" cx="228.53" cy="118.07" rx="21.25" ry="20.22" transform="translate(12.01 256.95) rotate(-60)"/>
            <path class="cls-23" d="M222.26,126.3s-11.38.22-14-7.6A20.48,20.48,0,0,0,211,129.62,20,20,0,0,0,227.59,139c8.18.12,11.16-7.21,11.16-7.21S227.77,124.68,222.26,126.3Z"/>
          </g>
        </g>
        <g>
          <circle class="cls-24" cx="227.44" cy="118.17" r="12.84"/>
          <circle class="cls-25" cx="222.45" cy="106.55" r="3.08"/>
        </g>
      </g>
      <g>
        <g>
          <ellipse class="cls-22" cx="308.73" cy="121.03" rx="19.54" ry="18.16" transform="translate(118.38 392.56) rotate(-76.38)"/>
          <path class="cls-23" d="M304.31,129.41s-10,1.82-13.43-4.93a19.24,19.24,0,0,0,3.93,9.56,17.73,17.73,0,0,0,16,6.15c7.26-1.05,8.88-8.15,8.88-8.15S309,127.15,304.31,129.41Z"/>
        </g>
        <g>
          <circle class="cls-24" cx="304.84" cy="121.96" r="12.84"/>
          <circle class="cls-25" cx="299.85" cy="110.34" r="3.08"/>
        </g>
      </g>
      <g>
        <g>
          <path class="cls-9" d="M64.88,250.44s9.18,2.29,8,8.35c15-2.62,31.81-4.68,33.66-13.51-13.51-1.23-17.6.66-24.63,2.46A131.62,131.62,0,0,1,64.88,250.44Z"/>
          <path class="cls-2" d="M72.6,258.74c1.18-5.75-7.69-8-7.78-8.06l-1.41-.35,1.45-.13a132.21,132.21,0,0,0,17-2.7l2.71-.72a46.75,46.75,0,0,1,14.23-2.14c2.32,0,4.86.13,7.76.39l.27,0-.06.28c-1.73,8.24-16.08,10.68-30,13l-3.89.66-.34.06Zm26.15-13.61a46.5,46.5,0,0,0-14.12,2.12l-2.71.73a125.42,125.42,0,0,1-15.83,2.59c2.41.85,7.69,3.28,7,7.92l3.56-.61c13.57-2.3,27.6-4.69,29.52-12.38C103.42,245.25,101,245.13,98.75,245.13Z"/>
          <path class="cls-2" d="M104.48,247.52c.74-.65,1.46-1.35,2.11-2a13.71,13.71,0,0,0,2.37-3.27,53.12,53.12,0,0,1-4.78,4.89Z"/>
          <g>
            <path class="cls-2" d="M133.38,240.07a8.2,8.2,0,0,0,5.52-4.65c3.09-6.52.55-18-2.85-26.67-7.15-18.09-17.81-26.33-23.11-26.39h0c-1.53,0-2.86,1-3.94,3.13l.4.24c1-1.93,2.21-2.93,3.58-2.88,5.16.06,15.62,8.2,22.68,26.09,3.37,8.52,5.88,19.89,2.86,26.26a7.74,7.74,0,0,1-5.21,4.4Z"/>
            <g>
              <g>
                <path class="cls-7" d="M112.94,182.6c5.08.07,15.71,8.07,22.9,26.24,4.77,12.09,7.33,28.42-2.51,31l-24.17-54.23C110.16,183.69,111.42,182.58,112.94,182.6Z"/>
                <path class="cls-5" d="M112.94,182.6c5.08.07,15.71,8.07,22.9,26.24.6,1.53,1.17,3.13,1.68,4.76.7,2.39-.27,4.47-2,4.73-10.2,1-16.88-12-18.68-20.53l-7.72-12.19C110.16,183.69,111.42,182.58,112.94,182.6Z"/>
                <path class="cls-4" d="M103.94,249.62c-5.61,5.29-19,7.05-31.11,9.17.54-2.64-.91-4.57-2.71-5.9C81.35,252.47,95.16,246.73,103.94,249.62Z"/>
                <path class="cls-3" d="M116.76,193.94c-.78,12.66,16.45,41,18.3,47S142,249.05,146,250s19.46,2.46,15.06,10.56-21.55,2.54-25.25-1.06-5.91-6.67-8.8-6.67-8.11-.78-14,1.18-15.75,6.88-24.24,12.45-21.78,11-26.41,4.66,2.47-12,12.35-14c8.79-1.74,23.94-4.75,29.65-9.82-9.57-2.29-18.84.49-25.17,2.13s-15,3.3-19.3.49c-5.64-3.73-5.39-14.68,10-12.94,14.13,1.6,37.93,2.29,41.06-1-6.43-11-7.36-53.55,2-53.43"/>
                <path class="cls-5" d="M116.76,193.94c-.78,12.66,10.46,40,12.31,45.9S142,249.05,146,250s19.42,2.44,15.06,10.56c-2.68,5-18.85,1.14-23.52-3.86-3.55-3.79-8.31-7.78-11.2-7.78a44.79,44.79,0,0,0-13.75,2.46c-5.86,2-16,5.89-24.47,11.46-4.84,3.17-13.66,7.06-19.77,7.45-5.71.37-7.41-2.49-7.42-3-.08-4.68,6-8.58,13.8-10.14,8.19-1.62,21.92-4.34,28.37-8.82a40,40,0,0,0,4.5-4.1c-9.58-2.3-22.18.71-28.52,2.35s-13.37,2.33-16.5,1.29c-6.34-2.12-8.06-12.6,7.33-10.86,14.13,1.6,37.93,2.29,41.06-1-6.43-11-7.36-53.55,2-53.43"/>
                <path class="cls-6" d="M74.55,238.31c-3.71-.55-8.64-1-10.87-.14-4.18,1.66-.81,4,2.15,3.28,2.62-.61,5.23-1.33,8.63-1.83C75.89,239.41,77.2,238.7,74.55,238.31Z"/>
                <path class="cls-6" d="M76.7,257.93c-3.72.91-9,2.44-10.89,4.24-3.32,3.17.61,4,3.13,2.23,2.24-1.58,4.42-3.27,7.42-5C77.62,258.61,79,257.39,76.7,257.93Z"/>
                <path class="cls-6" d="M150.76,252.63c2.53.22,6.34.88,8.73,2.84,2.64,2.16-.24,3-2.21,1.84a60.1,60.1,0,0,0-7.31-4C149.41,253,149.24,252.5,150.76,252.63Z"/>
              </g>
              <path class="cls-6" d="M118.39,185.52c-2.4-1.57-5.16-2.8-6.93-1.52-2,1.44-3.34,6.46-3.92,10.57-.21,1.56.28,1.57.64.35,1.28-4.24,3.07-8,4.38-8.83s3.74-.36,5.7.36S119.73,186.4,118.39,185.52Z"/>
            </g>
          </g>
          <path class="cls-2" d="M69,274.19c5.72,0,13.38-3.26,19.85-7.49,7.93-5.2,17.87-10.31,24.19-12.42A31.26,31.26,0,0,1,125,253c.74,0,1.39.06,2,.06,2.18,0,4,1.85,6.46,4.41.69.7,1.39,1.43,2.18,2.2,2.55,2.47,12.15,6.24,19.15,5.09,3.09-.5,5.26-1.88,6.46-4.08a5,5,0,0,0,.47-4.45c-1.67-3.8-9-5.19-13.43-6-.91-.17-1.7-.32-2.25-.46-5.7-1.42-9.3-4.44-10.72-9a93.71,93.71,0,0,0-4.6-9.78c-5.54-11-13.92-27.51-13.92-37.1a8,8,0,0,0-.12,3.74c1.47,9.87,8.73,23.9,13.63,33.59a94.64,94.64,0,0,1,4.57,9.7c1.47,4.71,5.19,7.84,11.06,9.3.56.14,1.35.29,2.27.46,4.31.82,11.52,2.18,13.09,5.75a4.46,4.46,0,0,1-.45,4c-1.13,2.07-3.19,3.36-6.13,3.85-6.87,1.12-16.28-2.55-18.76-5-.79-.76-1.49-1.49-2.18-2.19-2.56-2.64-4.41-4.55-6.78-4.55-.56,0-1.2,0-1.94-.06a31.59,31.59,0,0,0-12.11,1.26c-6.35,2.12-16.34,7.25-24.3,12.47-9.61,6.3-21.88,10.47-26.1,4.72a5.79,5.79,0,0,1-1.09-5.57c1.28-3.58,6.38-6.66,13.3-8l.07,0c9-1.78,23.95-4.76,29.69-9.86l.36-.32-.46-.11c-9-2.15-17.63.12-23.95,1.78l-1.32.35c-9.64,2.49-15.89,2.66-19.13.52A7,7,0,0,1,57,242c.59-1.81,3-5.87,12.83-4.76,12.27,1.38,37.81,2.54,41.26-1.06l.13-.13-.1-.17c-5.13-8.75-7-40.26-1.71-50.25,1-1.86,2.16-2.8,3.49-2.8h0v-.49c-1.52,0-2.85,1-3.94,3-2.42,4.56-3.6,14.13-3.15,25.6.44,11,2.26,20.52,4.78,25-3.47,3-25.89,2.47-40.75.79-10.15-1.15-12.69,3.17-13.32,5.09a7.48,7.48,0,0,0,3.17,8.3c3.35,2.21,9.73,2.06,19.49-.46l1.33-.35c6.16-1.62,14.56-3.83,23.26-1.89-5.91,4.83-20.38,7.71-29.1,9.44h-.07c-7.09,1.41-12.32,4.61-13.65,8.35a6.23,6.23,0,0,0,1.16,6C63.64,273.33,66.07,274.19,69,274.19Z"/>
          <path class="cls-26" d="M112.39,182.64s3.7-1,10.72,5.46a57.78,57.78,0,0,1,16.67,34.29c1.67,15.28-5,17.17-5,17.17"/>
        </g>
        <circle class="cls-8" cx="115.58" cy="220.43" r="2.05"/>
        <ellipse class="cls-8" cx="123.11" cy="240.07" rx="3.79" ry="3.26"/>
        <path class="cls-8" d="M106.25,204.08s3.46-.31,4.26,1.84c1,2.64-.34,5.59-4.11,6.48C106.4,212.4,106,205,106.25,204.08Z"/>
      </g>
      <g>
        <g>
          <path class="cls-9" d="M149.26,275.15s.29-7.86-10.77-7.06c5.38-4.79,13-9.92,32.81-8.2C169.94,269.5,149.26,275.15,149.26,275.15Z"/>
          <path class="cls-4" d="M169.93,263.35c-4.9,7.49-20.67,11.8-20.67,11.8a7,7,0,0,0-5.6-6.68A35.32,35.32,0,0,1,169.93,263.35Z"/>
          <path class="cls-2" d="M149,275.14a6.68,6.68,0,0,0-1.68-4.28c-1.78-2-4.78-2.82-8.85-2.52l-.71.05.55-.49c5-4.46,11.6-8.6,25.58-8.6,2.31,0,4.8.12,7.4.34l.25,0,0,.26c-1.37,9.67-21.36,15.24-22.21,15.47l-.31.08Zm14.89-15.35c-13.34,0-19.85,3.79-24.75,8,3.89-.16,6.74.75,8.51,2.71a7.13,7.13,0,0,1,1.8,4.32c2.46-.72,20-6.14,21.55-14.73C168.54,259.9,166.14,259.79,163.92,259.79Z"/>
          <path class="cls-3" d="M184.58,194.48c-2.21-3.22-9.37-4.84-12.37,8.93-5.37,24.61-1.53,44.66-3.15,46.38s-9.78,4.55-17,4.3-20.73-.74-26.29,5.65-1.5,11.3,3,12.16,9-2.09,13.79-5.9,22.35-6.63,27.33-5c-1.12,4.46-11.12,10.19-19.34,12.4S134.61,280,136,287s11.56,5.59,16.61,1.14c1.43-1.26,3-2.28,3.75-3.79,2-3.91,4-4.94,10.21-6.81,6.64-2,9-5.9,13.67-9.95s7.88-6.88,12.28-5.77,9.15,5.28,14,5.77,10.54-3.93,8.92-8.11-8.92-7.24-17.49-5.4-11.7-4.67-12.74-9.21-4.63-21.71-2.55-28.72c6.84-4.91,6.66-10.77,6.36-12.68"/>
          <path class="cls-5" d="M184.58,194.48c-2.21-3.22-9.37-4.84-12.37,8.93-5.37,24.61-1.53,44.66-3.15,46.38s-9.78,4.55-17,4.3-20.73-.74-26.29,5.65.59,9.18,3.25,9.31c4.59.21,7.65-2.06,12.4-5.87s23.66-7.09,28.64-5.49a9,9,0,0,1-.29,3.7c-1.61,4.39-11.24,9.84-19.21,12-8.22,2.21-16,6.64-14.59,13.64s10.18,3.39,14.35-1.89,5.66-7.07,15.25-10c6.65-2,8.53-5.47,13.16-9.52s8.88-8.31,13.28-7.21,10.23,5.37,15.1,5.86,9.93-.61,8.31-4.79-8.92-7.24-17.49-5.4-14.76-4.71-15.8-9.26-4.25-23-2.16-30c8.59-1.82,9.33-9.47,9-11.38"/>
          <path class="cls-6" d="M142.72,255.9c-3.82.17-9.47.67-11.68,2.11-3.8,2.49-.07,4.06,2.71,2.79a86.75,86.75,0,0,1,9.16-3.91C144,256.52,144.9,255.8,142.72,255.9Z"/>
          <path class="cls-6" d="M149.28,275.26c-3.27.94-8.17,2.79-10.88,6-3,3.53,1,3.91,3.34,1.85,2.16-1.91,4.26-4,7.28-6.18C150.08,276.13,151.23,274.7,149.28,275.26Z"/>
          <path class="cls-2" d="M143,292.29A17,17,0,0,0,153.31,288c.64-.6,2.39-2.38,2.8-2.92,3.14-4.1,2.13-4.72,10.53-7.25,5-1.52,7.59-4.06,10.58-7,1-1,2-2,3.17-3,4.51-4,7.77-6.8,12.07-5.72a26.77,26.77,0,0,1,5.87,2.61c2.65,1.42,5.39,2.88,8.18,3.17a9.66,9.66,0,0,0,8.42-3.85,4.79,4.79,0,0,0,.73-4.6c-1.61-4.16-8.86-7.46-17.75-5.55-8.62,1.85-11.51-4.86-12.47-9-.49-2.14-4.71-21.06-2.57-28.5a15.21,15.21,0,0,0,6.39-9.43,9.19,9.19,0,0,0-.23-3.41c.16,2.23-.15,7.92-6.49,12.48l-.06,0,0,.08c-2.19,7.35,1.74,25.32,2.55,28.85s3.67,11.4,13,9.39c8.65-1.86,15.68,1.28,17.23,5.26a4.31,4.31,0,0,1-.68,4.11,9.32,9.32,0,0,1-8,3.66c-2.7-.28-5.4-1.72-8-3.12a27.72,27.72,0,0,0-6-2.65c-4.53-1.14-7.86,1.78-12.48,5.82-1.17,1-2.2,2-3.19,3-2.94,2.9-5.47,5.42-10.39,6.89-8.91,2.67-7.49,3-10.59,7.05-.41.53-2.27,2.49-2.93,3.11-2.93,2.74-8.48,5-12.35,4a5.74,5.74,0,0,1-4.42-4.54c-1.61-8.12,9.55-12,14.43-13.35,8.29-2.23,18.34-7.94,19.51-12.58l.05-.23-.21-.07c-5.09-1.63-22.68,1.18-27.54,5.08-5.11,4.09-9.38,6.65-13.6,5.85a6.74,6.74,0,0,1-5.27-4.29c-.5-1.58-.49-4.16,2.38-7.46,5.47-6.28,18.84-5.82,26-5.58h.09c7.41.25,15.55-2.69,17.14-4.38.6-.63.55-2.87.4-7.87-.27-8.41-.71-22.49,2.8-38.63,1.72-7.88,4.55-10.24,6.63-10.84a5.5,5.5,0,0,1,5.52,1.86,4.06,4.06,0,0,0-2.45-2.23,5,5,0,0,0-3.19-.11c-2.2.64-5.19,3.1-7,11.21-3.53,16.2-3.08,30.32-2.82,38.76.13,4.06.22,7-.26,7.51-1.5,1.59-9.63,4.47-16.8,4.22H152c-7.26-.25-20.77-.71-26.38,5.73-3,3.49-3,6.25-2.48,7.95a7.18,7.18,0,0,0,5.62,4.62c4.4.84,8.76-1.77,14-5.94,4.59-3.68,21.73-6.48,26.9-5.06-1.37,4.31-11.1,9.84-19.11,12-5,1.34-16.45,5.39-14.76,13.92a6.17,6.17,0,0,0,4.76,4.92A9.92,9.92,0,0,0,143,292.29Z"/>
          <path class="cls-2" d="M170.16,261a8.93,8.93,0,0,0,.24-2.36,5.36,5.36,0,0,0-.92-2.86,10.2,10.2,0,0,1,.23,5.09Z"/>
          <path class="cls-6" d="M181.48,193.15c-4.15-1.65-8.3,4.79-8,12,0,.85.61.37.81-.6,1.52-7.63,4.57-9.84,6.56-10.45C182,193.74,181.9,193.31,181.48,193.15Z"/>
        </g>
        <path class="cls-8" d="M172,205.56s4.95,1.25,4.1,7.74-6.16,6.31-6.16,6.31S171.25,206.52,172,205.56Z"/>
        <ellipse class="cls-8" cx="173.96" cy="232.62" rx="2.66" ry="2.35"/>
      </g>
      <ellipse class="cls-8" cx="286.45" cy="235.52" rx="2.26" ry="2.97" transform="translate(-49.43 392.71) rotate(-64.51)"/>
    </g>
  </g>
</svg>
