<?xml version="1.0" encoding="utf-8"?>
<!-- Generator: Adobe Illustrator 25.2.3, SVG Export Plug-In . SVG Version: 6.00 Build 0)  -->
<svg version="1.1" id="Layer_1" xmlns="http://www.w3.org/2000/svg" xmlns:xlink="http://www.w3.org/1999/xlink" x="0px" y="0px"
	 viewBox="0 0 1600 900" style="enable-background:new 0 0 1600 900;" xml:space="preserve">
<style type="text/css">
	.st0{clip-path:url(#SVGID_2_);}
	.st1{fill:url(#SVGID_3_);}
	.st2{fill:#73BCC3;}
	.st3{fill:#609FA6;}
	.st4{fill:#65D863;}
	.st5{fill:#561A18;}
	.st6{fill:url(#SVGID_4_);}
	.st7{fill:#63D865;}
	.st8{fill:#595E54;}
	.st9{fill:url(#SVGID_5_);}
	.st10{fill:#A5F683;}
	.st11{fill:url(#SVGID_6_);}
	.st12{fill:#BE8572;}
	.st13{fill:#BE8573;}
	.st14{fill:#603913;}
	.st15{fill:#75E594;}
	.st16{fill:url(#SVGID_7_);stroke:url(#SVGID_8_);stroke-width:1.82;stroke-miterlimit:10;}
	.st17{fill:url(#SVGID_9_);}
	.st18{fill:url(#SVGID_10_);stroke:url(#SVGID_11_);stroke-width:0.91;stroke-miterlimit:10;}
	.st19{fill:url(#SVGID_12_);stroke:url(#SVGID_13_);stroke-width:0.91;stroke-miterlimit:10;}
	.st20{fill:url(#SVGID_14_);}
	.st21{fill:#D3EA52;}
	.st22{fill:url(#SVGID_15_);}
	.st23{opacity:0.68;fill:#B46747;enable-background:new    ;}
	.st24{fill:#B46747;}
	.st25{fill:#602D0B;}
	.st26{fill:#A8E533;}
	.st27{fill:url(#SVGID_16_);}
	.st28{fill:url(#SVGID_17_);}
	.st29{fill:url(#SVGID_18_);}
	.st30{fill:#036801;}
	.st31{fill:url(#SVGID_19_);}
	.st32{fill:url(#SVGID_20_);}
	.st33{fill:#309D3A;}
	.st34{fill:#1B5602;}
	.st35{fill:#4C851C;}
	.st36{fill:#F4C714;}
	.st37{fill:#CF742A;}
	.st38{fill:#F9AE08;}
	.st39{opacity:0.71;}
	.st40{fill:#442006;stroke:#BA7842;stroke-width:4;stroke-miterlimit:10;}
	.st41{opacity:0.39;fill:#B7896A;enable-background:new    ;}
	.st42{fill:#8CC43C;}
	.st43{fill:#65AD36;}
	.st44{fill:#FBE306;}
	.st45{fill:#349C55;}
	.st46{fill:url(#SVGID_21_);}
	.st47{fill:url(#SVGID_22_);}
	.st48{fill:url(#SVGID_23_);}
	.st49{fill:#102C16;}
	.st50{fill:#0E2312;}
	.st51{fill:#174226;}
	.st52{opacity:0.62;}
	.st53{opacity:0.59;}
	.st54{fill:#2B7A44;}
</style>
<g>
	<defs>
		<rect id="SVGID_1_" width="1600" height="900"/>
	</defs>
	<clipPath id="SVGID_2_">
		<use xlink:href="#SVGID_1_"  style="overflow:visible;"/>
	</clipPath>
	<g class="st0">
		
			<linearGradient id="SVGID_3_" gradientUnits="userSpaceOnUse" x1="806.2659" y1="-413.47" x2="801.6559" y2="1071.7599" gradientTransform="matrix(1 0 0 -1 0 900)">
			<stop  offset="0.61" style="stop-color:#C0FEFF"/>
			<stop  offset="0.68" style="stop-color:#B1FDFF"/>
			<stop  offset="0.82" style="stop-color:#8BFBFF"/>
			<stop  offset="0.99" style="stop-color:#55F7FF"/>
		</linearGradient>
		<rect x="-7.7" y="-20.1" class="st1" width="1621.6" height="669.2"/>
		<path class="st2" d="M178,254.4c0,0,103.1-69.4,412.6,55.1c0,0,46.5,25.1,197.1-13.2c124.7-31.7,151.9-48.2,332.9-32.2
			c140.9,12.5,310.5,118.9,387.9,138.1c131,32.6,88-17.8,152.3,38.8S535.4,496.4,535.4,496.4S-56.9,475,178,254.4z"/>
		<path class="st3" d="M-22.2,255.7c0,0,67.7-78.2,314.6-3.8c116.4,35.1,156.3,59.7,280.3,96.5s150.1,44.4,150.1,44.4
			s-182.3,51.8-413.6,44.3S-41.6,432.5-22.2,255.7z"/>
		<path class="st4" d="M1275.8,418.8c0,0,178.1,28.6,275.1-11.3s48.8-82.1,82.4-12.7c6.1,12.7,11.8,136.9,11.8,136.9
			s7,18.5-1.5,24.2C1540,624,1119.5,523,1275.8,418.8z"/>
		<path class="st5" d="M653.6,285.4c0.1,6.2,1.8,12.3,4.8,17.7c4.3,7.7,12.6,12.5,21.4,12.3l-0.4-28.3l7.7,0.4v15.7
			c3.4,0.8,6.9,0.2,9.9-1.6c6.4-3.9,8.5-11.9,8.8-13.3l3.2,0.1c-0.7,2.6-1.3,5.1-2,7.7c2.5,1.9,5.8,2.5,8.9,1.6
			c5.6-1.8,7.8-8.1,8.1-8.9h2.4c0,0-1.6,17.9-20.5,11.9c-3.4,6.3-11.5,12.9-18.9,9.6c0.4,19.4,2.9,95.5,2.9,95.5h-8.7
			c-0.5-27.8-1-55.6-1.5-83.4c-2.2-0.1-12.5-1-20.8-12c-7.7-10.4-8.4-22.7-8.5-25.8L653.6,285.4z"/>
		
			<linearGradient id="SVGID_4_" gradientUnits="userSpaceOnUse" x1="659.326" y1="599.8925" x2="719.5861" y2="694.9925" gradientTransform="matrix(1 0 0 -1 0 900)">
			<stop  offset="0.17" style="stop-color:#1C7C7B"/>
			<stop  offset="1" style="stop-color:#17EB97"/>
		</linearGradient>
		<path class="st6" d="M625.5,227.7c0,0,78.1-41.4,126,7.3c42.8,42.1-1.1,60-30,58.3c-44.5-0.6-99.1-5.3-99.1-5.3
			S552.5,276.5,625.5,227.7z"/>
		<path class="st7" d="M616.8,413.1c0,0-107.2-9.2-202.2-31.7s-275.7-50-350.3-42.9S-138.9,411-102.1,460.7
			S1067.6,484.8,616.8,413.1z"/>
		<path class="st8" d="M1057.4,340.1c0.3,1.6,0.8,3.1,1.5,4.6c0.5,1.3,1.3,2.5,2.4,3.4c0.9,0.7,2,1.2,3.2,1.4v-9.1l2.3,0.1v5.6
			c0,0,5.2,0.7,5.9-5.4h0.7c0,0,0.6,7-6.5,7.8l-0.5,25.8h-2.2l0.1-21.3c-1.7-0.9-3.1-2.1-4.3-3.6c-2.1-2.7-3.3-6-3.4-9.4h0.5
			L1057.4,340.1z"/>
		
			<linearGradient id="SVGID_5_" gradientUnits="userSpaceOnUse" x1="1058.5204" y1="532.64" x2="1073.0903" y2="593.9899" gradientTransform="matrix(1 0 0 -1 0 900)">
			<stop  offset="0.3" style="stop-color:#336080"/>
			<stop  offset="0.73" style="stop-color:#56B8D3"/>
		</linearGradient>
		<path class="st9" d="M1047.8,325.8c0,0,22.9-11.9,36.7,0c13.3,12.6,3.9,16.2-8.2,16.2c-12.2-0.2-27.2-1.5-27.2-1.5
			S1032.6,336.9,1047.8,325.8z"/>
		<path class="st10" d="M1388.2,444c-33.7-10.5-129.7-27-129.7-27c-148.1-53.2-267.6-60.1-475.4-40.8
			c-143.8,13.3-338.2,62.4-338.2,62.4s-81.7,27.5-189.9,30.3c-69.6,1.8-38.1,34.7-38.1,34.7c163.4-6.1,274.7-7.3,274.7-7.3
			c219.6,4.4,533.1-6.1,716.9-20.1S1421.9,454.5,1388.2,444z"/>
		<path class="st7" d="M1261.3,429.8c0,0,20.4,6.5,22.1,16.3s-22.1,21.8-73.2,29.6S1055.7,487,1037,487.3s-267.2,5.1-267.2,5.1H542
			l-246.9-4.1l-184.9-5.1c0,0,15.4,3.8,88.4-2.4s129.2-1.5,158.8-1s52.1,2.5,89.9,0.5s123.1-4.9,181.3,1.5s79.5-1.5,128.3-1.5
			s139.7-8.2,198.5-6.6s117.5-2.5,151.7-3.1s114.9-6.6,124.1-11.8S1273.6,447.1,1261.3,429.8z"/>
		
			<linearGradient id="SVGID_6_" gradientUnits="userSpaceOnUse" x1="-6533.7578" y1="425.3503" x2="-6541.0479" y2="798.7402" gradientTransform="matrix(-1 0 0 -1 -5032.96 900)">
			<stop  offset="0.13" style="stop-color:#8C5E54"/>
			<stop  offset="0.33" style="stop-color:#715E51"/>
			<stop  offset="0.56" style="stop-color:#575E4F"/>
			<stop  offset="0.7" style="stop-color:#4D5E4E"/>
		</linearGradient>
		<path class="st11" d="M1418.5,455.1c-1.4-5.3,4.7-11.1,11.1-23.1c12.5-23.5,14.9-49.9,14.6-70.5c0,0,1.1-27.5-6.2-41.3
			c-4.7-9.1-8.8-18.4-12.3-28c0,0-25.3,1.4-27.5,0s-8.3-8.2-7.2-25.7l-0.4-4.2l6.5,2.3c0,0,2,15.7,10.3,16.9
			c10,1.7,21.3-5.9,19.7-16.9h7.2c0,0-2.2,32.2,8.7,39c8.2,2.7,13-1.6,12.6-20.4l-0.4-18.9h13c0,0-0.7,20.1,0,21.3
			s6.5,13.6,12.6-11.9c5.2-18,2.2-9.3,2.2-9.3l7,0.2c0,0-3.2,19.8-13.5,32.2c-6.8,11.9-7,31.9-1.8,38.9c5.6,7.1,15,11,22.3-30.9
			c4.8-27.7,6.1-40.3,6.1-40.3l10-0.1c0,0-4.1,33.1-3.3,38.9c0.9,6.6,1.3,26.8,23.2,18.2c11.3-2.1,34.1-9.5,43.6-31.9
			c3.5-19,2.8-26.3,2.8-26.3l8.2-0.3c0,0-0.2,11-1.8,13.9c5.2,0.4,10.3-1,14.6-4c8.4-5.8,11.8-15.5,12.7-18.4l6.5-0.3
			c-1.5,5.1-3.7,9.9-6.6,14.3c-6.4,9.6-15.4,14.9-22,16.1c-1.3,0.3-6.5,1.1-6.5,1.4c0,0.1,0.4,0.1,0.4,0.1s-1.7,28.7-27.8,41.8
			c-23.4,11.4-33.6,17.3-39.5,21.9s-10,9.5-9.1,25.3c0.9,12.6,0.4,25.3-1.7,37.8c-2.2,14.2-6.5,27.9-12.8,40.8
			C1435.9,466.6,1420.4,462.4,1418.5,455.1z"/>
		<path class="st12" d="M1444.6,357.5c6.5,4.9,11.8,11.1,15.7,18.3c17.8,31.9,5.7,73.7,4.3,78.3l-46.8,1.1c1.6-2.9,3.1-5.8,4.6-8.9
			C1437.1,415.8,1443,384.7,1444.6,357.5z"/>
		<path class="st13" d="M1498.5,297.2c0,0-8.7,42.2-15.5,41.9C1490.1,343.4,1503.2,331.7,1498.5,297.2z"/>
		<path class="st14" d="M1450,408.2c0.9,0.2,1.9,0.3,2.9,0.3c1,0,1.9-0.4,2.6-1c0.6-0.7,0.8-1.7,0.6-2.6c-0.1-0.9-0.4-1.8-0.8-2.7
			c-0.7-1.8-1.7-3.4-2.9-4.9c-1.1-1.5-2.5-2.8-4.1-3.9c-0.7-0.5-1.6-0.7-2.5-0.5c-0.8,0.4-1.3,1.1-1.6,1.9c-0.6,1.8-0.9,3.6-0.9,5.5
			c0,3.8,0.4,7.6,1.3,11.3v-0.1c1.8,3.8,4,7.6,7.1,10.5c0.7,0.7,1.6,1.2,2.6,1.6c0.4,0.2,0.9,0.2,1.4,0.1c0.2-0.1,0.4-0.1,0.6-0.3
			c0.2-0.1,0.4-0.3,0.6-0.4c1.4-1.4,2-3.6,2.5-5.6c0.8-4.2,1.2-8.5,1-12.7l-0.1-12.9l0.6,12.9c0.3,4.3,0,8.7-0.8,12.9
			c-0.5,2.1-1,4.3-2.6,6c-0.4,0.4-1,0.8-1.6,0.9c-0.6,0.1-1.2,0.1-1.8-0.1c-1.1-0.4-2.1-1-2.9-1.7c-1.6-1.5-3-3.2-4.2-5
			c-1.2-1.8-2.2-3.7-3.1-5.7l0,0l0,0c-0.9-3.8-1.3-7.7-1.3-11.6c0-2,0.3-3.9,1-5.8c0.3-1,1.1-1.9,2.1-2.3c0.3-0.1,0.5-0.1,0.8-0.1
			c0.5,0,1.1,0.1,1.5,0.4c0.2,0.1,0.5,0.2,0.7,0.4c1.6,1.1,3.1,2.5,4.2,4.1c1.2,1.6,2.1,3.3,2.8,5.1c0.4,0.9,0.6,1.9,0.7,2.8
			c0.1,0.5,0,1-0.1,1.5c-0.1,0.5-0.4,0.9-0.7,1.3c-0.8,0.6-1.7,1-2.7,0.9C1451.9,408.6,1450.9,408.5,1450,408.2z"/>
		<path class="st15" d="M1368.7,178.9c0,0-56.5-17.3-81.5,35.3c-16.3,40.8-19.2,54,81.5,46.6
			C1385.7,195.6,1368.7,178.9,1368.7,178.9z"/>
		
			<linearGradient id="SVGID_7_" gradientUnits="userSpaceOnUse" x1="-6288.311" y1="779.2308" x2="-6419.1011" y2="599.6309" gradientTransform="matrix(-1 0 0 -1 -5032.96 900)">
			<stop  offset="0.29" style="stop-color:#40B772"/>
			<stop  offset="0.56" style="stop-color:#57B17A"/>
		</linearGradient>
		
			<linearGradient id="SVGID_8_" gradientUnits="userSpaceOnUse" x1="-6412.7734" y1="678.2176" x2="-6310.583" y2="678.2176" gradientTransform="matrix(-1 0 0 -1 -5032.96 900)">
			<stop  offset="0" style="stop-color:#56AA72"/>
			<stop  offset="0.19" style="stop-color:#56AE77"/>
			<stop  offset="0.34" style="stop-color:#56B47B"/>
			<stop  offset="0.46" style="stop-color:#57BD80"/>
			<stop  offset="0.55" style="stop-color:#57B77A"/>
			<stop  offset="0.62" style="stop-color:#56AD72"/>
			<stop  offset="0.86" style="stop-color:#56AE77"/>
			<stop  offset="0.93" style="stop-color:#57B079"/>
			<stop  offset="0.95" style="stop-color:#5AB77E"/>
			<stop  offset="0.97" style="stop-color:#61C289"/>
			<stop  offset="0.98" style="stop-color:#69D397"/>
			<stop  offset="1" style="stop-color:#74E9AA"/>
			<stop  offset="1" style="stop-color:#78F0B0"/>
			<stop  offset="1" style="stop-color:#49BC80"/>
			<stop  offset="1" style="stop-color:#4EB87E"/>
			<stop  offset="1" style="stop-color:#55B27B"/>
			<stop  offset="1" style="stop-color:#57B17A"/>
		</linearGradient>
		<path class="st16" d="M1371.1,181.2c0,0-58-17.3-83.7,35.3c-16.8,40.8-19.7,54,83.7,46.6C1388.6,197.8,1371.1,181.2,1371.1,181.2z
			"/>
		
			<linearGradient id="SVGID_9_" gradientUnits="userSpaceOnUse" x1="-6360.4043" y1="856.6917" x2="-6803.7144" y2="491.1317" gradientTransform="matrix(-1 0 0 -1 -5032.96 900)">
			<stop  offset="0.24" style="stop-color:#5CCA9E"/>
			<stop  offset="0.33" style="stop-color:#4EC08C"/>
			<stop  offset="0.44" style="stop-color:#45B980"/>
			<stop  offset="0.54" style="stop-color:#42B77C"/>
			<stop  offset="0.59" style="stop-color:#44BA7C"/>
			<stop  offset="0.62" style="stop-color:#4BC57E"/>
			<stop  offset="0.66" style="stop-color:#56D780"/>
			<stop  offset="0.66" style="stop-color:#58DB81"/>
		</linearGradient>
		<path class="st17" d="M1617,172c-1.9-16.4-6.8-41.2-21.7-61.5c-39-53.1-113.2-30-141.9-21.1c-60.9,18.9-102.2,64.3-124.6,94.2
			c-2.9,4.7-3.6,10.4-2.1,15.6c2.3,3,5.8,5,9.6,5.2c26.4,1.5,134.8,7.6,140.8,6.2c6.9-1.6,133-15.7,133-15.7L1617,172z"/>
		
			<linearGradient id="SVGID_10_" gradientUnits="userSpaceOnUse" x1="-6701.6401" y1="642.5319" x2="-6611.1826" y2="728.1894" gradientTransform="matrix(-1 0 0 -1 -5032.96 900)">
			<stop  offset="0.27" style="stop-color:#2DA370"/>
			<stop  offset="0.54" style="stop-color:#31A776"/>
			<stop  offset="0.88" style="stop-color:#3BB186"/>
		</linearGradient>
		
			<linearGradient id="SVGID_11_" gradientUnits="userSpaceOnUse" x1="-6720.6997" y1="690.5916" x2="-6601.7026" y2="690.5916" gradientTransform="matrix(-1 0 0 -1 -5032.96 900)">
			<stop  offset="0.27" style="stop-color:#53C075"/>
			<stop  offset="0.53" style="stop-color:#56C678"/>
			<stop  offset="0.88" style="stop-color:#5FD882"/>
		</linearGradient>
		<path class="st18" d="M1616.2,254.7c1.7,0,52.2-4.6,52.2-4.6s31.3-8.4,13.3-28.9c-4.8-3.1-8.7-7.4-11.4-12.4
			c-3.6-6.7-2.6-10-4.9-16.2c-7.2-19.6-31.5-26.3-31.5-26.3l0,0c0,0-32.9-8.6-57.4,8.3c-2.7,1.9-4.1,2.9-5.1,4.7
			c-11.3,19.2,23.9,75.4,23.9,75.4L1616.2,254.7z"/>
		
			<linearGradient id="SVGID_12_" gradientUnits="userSpaceOnUse" x1="-6661.8682" y1="707.9576" x2="-6351.9814" y2="707.9576" gradientTransform="matrix(-1 0 0 -1 -5032.96 900)">
			<stop  offset="0.27" style="stop-color:#2DA370"/>
			<stop  offset="0.54" style="stop-color:#31A776"/>
			<stop  offset="0.88" style="stop-color:#3BB186"/>
		</linearGradient>
		
			<linearGradient id="SVGID_13_" gradientUnits="userSpaceOnUse" x1="-6662.3228" y1="707.9576" x2="-6351.5264" y2="707.9576" gradientTransform="matrix(-1 0 0 -1 -5032.96 900)">
			<stop  offset="0.27" style="stop-color:#53C075"/>
			<stop  offset="0.53" style="stop-color:#56C678"/>
			<stop  offset="0.88" style="stop-color:#5FD882"/>
		</linearGradient>
		<path class="st19" d="M1616.4,207.7c0,0-30.3-31.6-62.1-44c-34.7-18.6-80.7-60.1-136.4-40.9c-43,18-75.3,42.7-94.3,88.6
			c-9.3,26.6-10.8,58.8,60.1,54.5l197.5,0.4C1581.2,266.3,1658.4,259.1,1616.4,207.7z"/>
		
			<linearGradient id="SVGID_14_" gradientUnits="userSpaceOnUse" x1="-6538.2646" y1="586.7219" x2="-6449.4751" y2="817.4119" gradientTransform="matrix(-1 0 0 -1 -5032.96 900)">
			<stop  offset="0.13" style="stop-color:#389C7A"/>
			<stop  offset="0.65" style="stop-color:#56CA87"/>
			<stop  offset="0.96" style="stop-color:#65E08E"/>
		</linearGradient>
		<path class="st20" d="M1615.8,206.3c0,0-30.1-31.1-61.6-43.4c-34.4-18.3-80-59.3-135.3-40.3c-42.7,17.7-74.7,42.1-93.6,87.4
			c-9.2,26.3-10.7,58,59.6,53.8l195.9,0.4C1580.9,264.1,1657.5,257,1615.8,206.3z"/>
		<path class="st13" d="M1390.6,265.1c0,0-0.9,18.2,5.6,25.3c2,2.5,3.5,2.4,5.8,2.5c0,0-6.5-2.8-8.1-12c-1-5.4-1.5-10.8-1.7-16.3
			h-1.6L1390.6,265.1z"/>
		<path class="st13" d="M1455.3,264.4c0.3,3.2,0.4,14.3,0.3,16.4c-0.4,9.5-1,20.2-5.6,23c-1.1,0.6-2.3,0.8-3.5,0.6l-1.8-0.3
			c2.2,3.5,4.1,3.8,4.8,3.9c3.9,0.2,8.4-6.4,9.5-17c0.7-5,1-10.2,0.8-15.3c-0.2-4.2-0.8-11.4-0.8-11.4L1455.3,264.4L1455.3,264.4z"
			/>
		<path class="st21" d="M207.3,490.5c0,0,183.7-16.4,264.3-3.5s128.7-2.6,392.7,1c0,0,313.5-12,430.7-29.6s97.5-22.8,97.5-22.8
			s96.9-1.4,156,30.7c160.3,87.1-369.2,76.4-474.1,81.7s-545.4,13.8-644.9,7.7S123.1,562.5,73.3,571s-153.2,7.7-103.4-13.8
			S62.8,490.8,207.3,490.5z"/>
		
			<linearGradient id="SVGID_15_" gradientUnits="userSpaceOnUse" x1="264.2456" y1="335.6609" x2="256.4857" y2="733.5409" gradientTransform="matrix(1 0 0 -1 0 900)">
			<stop  offset="6.000000e-02" style="stop-color:#7F2F0B"/>
			<stop  offset="0.26" style="stop-color:#65230B"/>
			<stop  offset="0.53" style="stop-color:#47150B"/>
		</linearGradient>
		<path class="st22" d="M371.3,544c0.2-0.6-1.7-1.7-3.3-4.1c-1.1-1.7-1.8-3.6-2.2-5.6c-1.4-5.9-7-13-8.8-15.6
			c-5.8-8.3-8.6-20.8-13.1-41.5c-2.6-11.7-4.5-23.6-5.7-35.6c-0.3-20.7,2.4-36.2,7.9-45.2c6-9.8,11.3-20.1,15.9-30.7
			c0,0,32.7,1.5,35.5,0s10.7-9,9.3-28.1l0.5-4.6l-8.4,2.5c0,0-2.6,17.2-13.4,18.5c-12.8,1.9-27.5-6.4-25.4-18.5h-9.4
			c0,0,2.9,35.3-11.3,42.7c-10.5,2.9-16.7-1.7-16.3-22.4l0.5-20.6H307c0,0,1,22,0,23.3s-8.4,14.9-16.3-13
			c-6.7-19.7-2.9-10.2-2.9-10.2l-9.1,0.2c0,0,4.1,21.7,17.5,35.3c8.9,13,9.1,34.9,2.4,42.6c-7.2,7.7-19.4,12-28.7-33.8
			c-6.2-30.4-7.9-44.1-7.9-44.1l-12.9-0.1c0,0,5.3,36.2,4.3,42.6c-1.2,7.2-1.7,29.3-29.9,20c-14.7-2.3-44-10.4-56.2-34.9
			c-4.5-20.8-3.6-28.8-3.6-28.8l-10.5-0.3c0,0,0.2,12,2.4,15.2c-6.6,0.5-13.1-1-18.8-4.3c-10.8-6.3-15.2-16.9-16.4-20.1l-8.4-0.4
			c1.9,5.7,4.8,11,8.5,15.7c8.3,10.5,19.9,16.3,28.4,17.7c1.7,0.3,8.4,1.2,8.4,1.5c0,0.1-0.5,0.1-0.5,0.1s2.1,31.4,35.9,45.8
			c30.1,12.5,43.3,18.9,51,24s12.9,10.4,11.7,27.7c-1.2,13.8-0.5,27.8,2.2,41.4c3,15.7,8.5,30.7,16.4,44.5c25.9,0.9,42.5,1,53.2,0.9
			c21.4-0.2,33.6-1.4,40,0.3C367.2,543.9,371,544.9,371.3,544z"/>
		<path class="st23" d="M337.7,437.1c-8.1,5.1-15,12-20.3,20c-22.9,34.9-7.3,80.7-5.5,85.7l60.5,1.2c-4.3-6.6-8.1-13.4-11.6-20.4
			C344.8,491.6,339.4,460.4,337.7,437.1z"/>
		<path class="st24" d="M268,371.2c0,0,11.2,46.2,20,45.8C278.9,421.7,261.9,408.9,268,371.2z"/>
		<path class="st25" d="M330.7,492.6c-1.1,0.3-2.2,0.4-3.3,0.5c-1.1,0.1-2.3-0.1-3.3-0.6c-0.5-0.3-1-0.7-1.3-1.2
			c-0.3-0.5-0.4-1.1-0.4-1.7c0.1-1.1,0.3-2.3,0.8-3.3c0.9-2.1,2.1-4,3.6-5.8c1.4-1.8,3.2-3.3,5.1-4.5c1-0.6,2.2-1,3.4-1.1
			c0.3,0,0.7,0,1,0.1c0.3,0.1,0.6,0.2,0.9,0.4c0.3,0.2,0.5,0.3,0.8,0.6l0.3,0.3l0.3,0.4c1.2,2,1.8,4.3,1.9,6.6
			c0.2,4.5-0.4,9.1-1.6,13.4v0.1v0.1c-1.2,2.2-2.5,4.2-4,6.2c-1.5,2-3.2,3.8-5.2,5.3c-1,0.8-2.1,1.4-3.3,1.9c-1.3,0.5-2.7,0.5-4,0
			c-1.2-0.6-2.1-1.6-2.8-2.8c-0.6-1.1-1.1-2.3-1.4-3.5c-1.2-4.8-1.6-9.7-1.3-14.7c0.3-4.9,0.5-9.8,0.8-14.6c0,4.9-0.1,9.8-0.1,14.6
			c-0.2,4.8,0.3,9.7,1.6,14.4c0.4,1.1,0.8,2.2,1.4,3.3c0.5,1,1.3,1.8,2.3,2.3c1,0.4,2.1,0.4,3.1,0c1.1-0.4,2.1-1,3-1.7
			c3.7-3,6.5-7,8.9-11.2l-0.1,0.1c1.3-4.2,1.8-8.6,1.7-13c0-2.1-0.6-4.2-1.6-6.1c-0.5-0.8-1.4-1.4-2.4-1.4c-1,0.1-2,0.4-2.9,0.9
			c-1.9,1.1-3.6,2.5-5,4.2c-1.5,1.7-2.7,3.5-3.6,5.5c-0.5,1-0.8,2-0.9,3.1c0,0.5,0.1,1,0.3,1.5c0.2,0.5,0.6,0.9,1.1,1.1
			c1,0.5,2.1,0.7,3.2,0.7C328.5,493,329.6,492.9,330.7,492.6z"/>
		<path class="st26" d="M101.3,228.8c2.6-19.1,9.4-47.9,29.8-71.4c55.2-63.6,160.8-34,194.6-24.5c79.5,22.3,141.5,84.5,164,112.3
			l13.1,10.5c-69.1,12.9-139.4,18.9-209.7,17.9c-61.2-0.8-122.3-6.9-182.4-18.2L101.3,228.8z"/>
		
			<linearGradient id="SVGID_16_" gradientUnits="userSpaceOnUse" x1="217.731" y1="457.1596" x2="368.721" y2="828.7195" gradientTransform="matrix(1 0 0 -1 0 900)">
			<stop  offset="0.48" style="stop-color:#0B5A42"/>
			<stop  offset="0.54" style="stop-color:#24733B"/>
			<stop  offset="0.63" style="stop-color:#469732"/>
			<stop  offset="0.72" style="stop-color:#61B32A"/>
			<stop  offset="0.81" style="stop-color:#75C725"/>
			<stop  offset="0.91" style="stop-color:#80D322"/>
			<stop  offset="1" style="stop-color:#84D721"/>
		</linearGradient>
		<path class="st27" d="M100.6,231.4c2.6-19.2,9.3-48.1,29.7-71.7c55.1-63.8,160.6-34.1,194.3-24.6C408,158.6,462,215,488.4,247.9
			l13.1,10.5c-69,12.9-139.1,18.9-209.4,18c-61.1-0.8-122.1-7-182.2-18.3L100.6,231.4z"/>
		<path class="st26" d="M448.2,243.5c0,0,74.9-18.9,108.1,38.7c21.6,44.7,25.5,59.1-108.1,51C425.6,261.6,448.2,243.5,448.2,243.5z"
			/>
		
			<linearGradient id="SVGID_17_" gradientUnits="userSpaceOnUse" x1="587.6938" y1="729.4172" x2="434.2939" y2="518.7572" gradientTransform="matrix(1 0 0 -1 0 900)">
			<stop  offset="0.37" style="stop-color:#9DEC27"/>
			<stop  offset="0.46" style="stop-color:#87D23B"/>
			<stop  offset="0.62" style="stop-color:#64AB5A"/>
			<stop  offset="0.75" style="stop-color:#4F926D"/>
			<stop  offset="0.83" style="stop-color:#478974"/>
		</linearGradient>
		<path class="st28" d="M446.8,244.2c0,0,74.9-18.9,108.1,38.7c21.6,44.7,25.5,59.1-108.1,51C424.2,262.4,446.8,244.2,446.8,244.2z"
			/>
		<path class="st26" d="M118.3,322.4c-2.2,0-65.8-4.9-65.8-4.9s-39.5-9.1-16.8-31.3c5.9-3.2,10.8-7.8,14.4-13.5
			c4.5-7.3,3.3-10.9,6.2-17.6c9.1-21.2,39.7-28.4,39.7-28.4l0,0c0,0,41.5-9.4,72.4,9c3.4,2.1,5.1,3.2,6.4,5.1
			c14.3,20.8-30.1,81.6-30.1,81.6L118.3,322.4z"/>
		
			<linearGradient id="SVGID_18_" gradientUnits="userSpaceOnUse" x1="50.7253" y1="566.7067" x2="161.2798" y2="671.4009" gradientTransform="matrix(1 0 0 -1 0 900)">
			<stop  offset="0.12" style="stop-color:#2A6856"/>
			<stop  offset="0.4" style="stop-color:#2A7648"/>
			<stop  offset="0.84" style="stop-color:#2B8A34"/>
		</linearGradient>
		<path class="st29" d="M116.1,324.7c-2.2,0-67.3-5-67.3-5S8.4,310.5,31.6,288c6-3.2,11-7.9,14.7-13.6c4.6-7.4,3.4-11,6.3-17.8
			c9.3-21.5,40.7-28.8,40.7-28.8l0,0c0,0,42.5-9.5,74.1,9.1c3.5,2.1,5.3,3.2,6.6,5.1c14.6,21-30.8,82.6-30.8,82.6L116.1,324.7z"/>
		<path class="st30" d="M82.7,201.5c0,0,6.2-15.2,48.6-7.5c39.4,9.4,9.3,33.5-24.3,28.4S77.1,206.8,82.7,201.5z"/>
		<path class="st26" d="M118.8,267.4c0,0,38.6-33.4,79-46.5c42.5-18.9,104.3-63.1,173.5-43.3c54.7,19,95.8,45.2,120,93.7
			c11.8,28.2,13.7,62.3-76.5,57.7l-251.3,0.4C163.5,329.5,65.3,321.8,118.8,267.4z"/>
		
			<linearGradient id="SVGID_19_" gradientUnits="userSpaceOnUse" x1="248.0853" y1="467.9379" x2="406.3653" y2="871.9279" gradientTransform="matrix(1 0 0 -1 0 900)">
			<stop  offset="0.15" style="stop-color:#11684F"/>
			<stop  offset="0.22" style="stop-color:#176E4D"/>
			<stop  offset="0.31" style="stop-color:#2A7F48"/>
			<stop  offset="0.41" style="stop-color:#479B3F"/>
			<stop  offset="0.53" style="stop-color:#71C332"/>
			<stop  offset="0.65" style="stop-color:#A5F422"/>
			<stop  offset="0.65" style="stop-color:#A6F522"/>
		</linearGradient>
		<path class="st31" d="M116.6,272.5c0,0,38.8-34.1,79.5-47.5c44.4-20.1,103.3-64.8,174.6-44.1c55.1,19.4,96.4,46.1,120.8,95.6
			c11.9,28.8,13.8,63.5-77,58.8l-252.8,0.4C161.7,335.9,62.8,328,116.6,272.5z"/>
		<path class="st24" d="M407.3,336c0,0,1.2,19.9-7.2,27.6c-2.5,2.7-4.5,2.6-7.5,2.7c5.4-2.4,9.4-7.3,10.5-13.2
			c1.2-5.9,2-11.8,2.2-17.8h2.1L407.3,336z"/>
		<path class="st24" d="M323.8,335.2c-0.3,3.5-0.5,15.6-0.4,18c0.6,10.3,1.2,22.1,7.3,25.2c1.4,0.7,3,0.9,4.5,0.6l2.3-0.3
			c-2.8,3.9-5.3,4.2-6.1,4.2c-5,0.3-10.8-7-12.3-18.6c-0.9-5.5-1.3-11.1-1-16.7c0.2-4.6,1.1-12.5,1.1-12.5L323.8,335.2L323.8,335.2z
			"/>
		
			<linearGradient id="SVGID_20_" gradientUnits="userSpaceOnUse" x1="18.7425" y1="278.4098" x2="278.0025" y2="507.8497" gradientTransform="matrix(1 0 0 -1 0 900)">
			<stop  offset="5.000000e-02" style="stop-color:#236617"/>
			<stop  offset="0.2" style="stop-color:#297217"/>
			<stop  offset="0.47" style="stop-color:#3A9117"/>
			<stop  offset="0.82" style="stop-color:#54C217"/>
		</linearGradient>
		<path class="st32" d="M320.3,531c-21.1-45.8-64.1-19.4-64.1-19.4c-10.6-39-44.9-22.9-44.9-22.9c-16.3-51.3-58.7-25.3-58.7-25.3
			s-2.8-19.9-28.6-35.8s-55,6.5-55,6.5c-50.7-47-75.7,13.2-75.7,13.2c-18.9-14.3-37.3-0.1-37.3-0.1c-21.6,20.3-6,50.3-6,50.3
			c-64.9,13.2-26.6,45.8-26.6,45.8l9.2,6.2l409.3,7.9l20-9.7C373.5,527.5,320.3,531,320.3,531z"/>
		<path class="st7" d="M-12.2,548.3c0,0,200.2-34.2,401.4-8.6c0,0-7.1-12.3,0-16.3c0,0,6.8,17.4,14.3,18l4.4,0.3c0,0,4.1-22.5,0-31
			c0,0,7.1,3.1,6.5,20.8c0,0,2.7-19.1,6.1-20.8s-5.8,30.6-5.8,32.3c0,0,5.8-17.7,16.3-20.4s-11.9,13.3-11.9,19.8l4.8,0.3
			c0,0,5.8-13.3,12.6-14.6s-10.2,14.6-10.2,14.6s300.7,19.7,463.8,9.7c1.6-5.6,0.9-11.5-2-16.6c-4.8-8.2,3.3-12.3,8.9-2
			s-3.1,18.4-3.1,18.4l13.5-1c0,0-1.5-16.1,9.2-24.8s-6.9,25-6.9,25s9.2-17.9,18.9-20.9s-15.6,20.4-15.6,20.4s161.4-7.2,207.3-9.7
			c0,0-2.7-9-1-11.8s1.7,8,12.1,10.6c0,0-5.3-5.5-7.7-10.7s-2.2-15.2-2.2-15.2s12.3,22.7,17.2,22c2.4-0.3-5.8-19.9,1.5-30.5
			s5.8,25,3.9,33.9c0,0-0.2,0.9,2.6,0s-5.6-13.3,6.3-26.2s-1.9,25.4-1.9,25.4s5.8-15.3,14.1-15.3s-9.2,15.8-9.2,15.8s5.8,1,8.2-1.7
			s5.3-19.9,21.1-24.2s-19.4,25.4-19.4,25.4s18.7-17.4,27.6-18.7s-22.7,18.7-22.7,18.7s3.7,1.5,11.2-1.5s23-14,25-17
			s3.6,9.7-12.4,17.2s442.5-27.1,442.5-27.1l-16.8,166.5l-53.3-7.9L-38.5,796.2L-12.2,548.3z"/>
		<path class="st33" d="M-4.6,753.5c0,0,374.4-115.4,648.1-129.7s496.3,2,614.8,0s356.3-12.8,370.6-12.8s8.5,268.8,8.5,268.8
			l-1159.3-19C478.1,860.8-245.6,908.8-4.6,753.5z"/>
		<path class="st34" d="M15.3,838.9c0,0,390.2-133.9,665-132.8c207.4,0.8,321.5,42.9,465,44.9s415.1-34.7,454.4-30.6
			s60.1,18.9,54.1,123s90.6,91.6-584.2,93.6S-403.6,1039,15.3,838.9z"/>
		<path class="st35" d="M418.7,560.2c0,0,10.6,22.5,3.3,85.2c-2.3,19.8-3.5,27.4-3.5,27.4s1.3,12.8,12.3,6.6c0,0,0.2-89.7-7.3-115.2
			L418.7,560.2z"/>
		<path class="st36" d="M382.5,480.8c0,0-14.7-7.5-7.4-36.1c0,0,25.7,2.5,28.5,22.8S382.5,480.8,382.5,480.8z"/>
		<path class="st37" d="M391.8,481.2c0,0-13.9-7-14.2-21.9c0,0,6.9,18.2,17.2,22.4l-3.6,0.5"/>
		<path class="st37" d="M395.2,480.4c0,0-6.8-5.3-5.3-13.4c0,0,1.8,10.6,6.9,14l-2-0.1"/>
		<path class="st37" d="M399.9,478.1c0,0,0.5-15.5-12.5-22.9c0,0,12.7,14.7,11.5,25.8l2.2-2.9"/>
		<path class="st36" d="M418.1,460.7c0,0-7.1-14.9,16.3-33.1c0,0,18.8,17.7,8.5,35.5S418.1,460.7,418.1,460.7z"/>
		<path class="st37" d="M425.1,466.7c0,0-6.7-14,2.2-26c0,0-5.7,18.6-0.1,28.2l-3.1-1.8"/>
		<path class="st37" d="M428.3,468.2c0,0-2.1-8.3,4-13.8c0,0-5.1,9.4-3.1,15.3l-1.5-1.3"/>
		<path class="st37" d="M433.5,469.2c0,0,9.9-12,4.1-25.8c0,0,1,19.4-6.7,27.4l3.5-1"/>
		<path class="st36" d="M453.7,473.1c0,0,4.4-15.9,34-14.3c0,0,2.6,25.7-16.8,32.4S453.7,473.1,453.7,473.1z"/>
		<path class="st37" d="M455.1,482.3c0,0,4.1-15,18.7-18.2c0,0-16.5,10.3-18.5,21.3L454,482"/>
		<path class="st37" d="M456.5,485.5c0,0,3.8-7.7,12.1-7.8c0,0-10,3.8-12.3,9.5l-0.3-2"/>
		<path class="st37" d="M459.8,489.7c0,0,15.3-2.6,20-16.8c0,0-11.9,15.3-23,16.3l3.3,1.6"/>
		<path class="st36" d="M473.6,501.5c0,0,15.4-6.1,32,18.4c0,0-18.9,17.6-36,6.2S473.6,501.5,473.6,501.5z"/>
		<path class="st37" d="M467.1,508.1c0,0,14.4-5.8,25.8,3.9c0,0-18.2-6.9-28.2-1.9l2-3"/>
		<path class="st37" d="M465.5,511.2c0,0,8.4-1.6,13.5,4.9c0,0-9.1-5.7-15-4.1l1.4-1.4"/>
		<path class="st37" d="M464.1,516.2c0,0,11.4,10.6,25.4,5.8c0,0-19.4-0.2-26.9-8.5l0.7,3.5"/>
		<path class="st36" d="M462.8,540.4c0,0,15.9,4.4,14.3,34c0,0-25.7,2.6-32.4-16.8S462.8,540.4,462.8,540.4z"/>
		<path class="st37" d="M453.6,541.8c0,0,15,4.1,18.2,18.7c0,0-10.3-16.5-21.3-18.6l3.4-1.2"/>
		<path class="st37" d="M450.4,543.2c0,0,7.7,3.9,7.8,12.1c0,0-3.8-10-9.5-12.3l2-0.3"/>
		<path class="st37" d="M446.2,546.4c0,0,2.6,15.3,16.7,20c0,0-15.3-12-16.3-23.1l-1.6,3.3"/>
		<path class="st36" d="M432.9,562.9c0,0,5.3,15.7-20,31c0,0-16.6-19.7-4.4-36.2S432.9,562.9,432.9,562.9z"/>
		<path class="st37" d="M426.6,556.1c0,0,5,14.7-5.1,25.6c0,0,7.8-17.8,3.3-28l2.9,2.1"/>
		<path class="st37" d="M423.6,554.3c0,0,1.2,8.5-5.5,13.3c0,0,6.1-8.8,4.8-14.8l1.4,1.5"/>
		<path class="st37" d="M418.6,552.7c0,0-11.2,10.8-7,25.1c0,0,1.2-19.4,9.8-26.5l-3.6,0.5"/>
		<path class="st36" d="M391.7,550.5c0,0-7.2,14.9-36,8c0,0,2-25.7,22.3-28.8S391.7,550.5,391.7,550.5z"/>
		<path class="st37" d="M392,541.3c0,0-6.7,14-21.6,14.6c0,0,18-7.2,22-17.6l0.6,3.5"/>
		<path class="st37" d="M391.1,537.9c0,0-5.1,6.9-13.3,5.6c0,0,10.5-2,13.8-7.2l-0.1,2"/>
		<path class="st37" d="M388.7,533.2c0,0-15.6-0.2-22.7,12.9c0,0,14.5-13,25.6-12l-2.9-2.1"/>
		<path class="st36" d="M374.6,515.1c0,0-14.9,7.1-33.1-16.2c0,0,17.6-18.9,35.4-8.6S374.6,515.1,374.6,515.1z"/>
		<path class="st37" d="M380.6,508c0,0-14,6.8-26-2.1c0,0,18.6,5.6,28.2,0l-1.7,3.1"/>
		<path class="st37" d="M382.1,504.8c0,0-8.3,2.1-13.8-3.9c0,0,9.5,5,15.3,3l-1.3,1.5"/>
		<path class="st37" d="M383.1,499.7c0,0-12-9.8-25.8-4c0,0,19.4-1.1,27.4,6.6l-1-3.5"/>
		<path class="st38" d="M375.7,498.9c0,0-16.5,0-22.9-28.9c0,0,24-9.4,35.7,7.5S375.7,498.9,375.7,498.9z"/>
		<g class="st39">
			<path class="st37" d="M384.2,495.1c0,0-15.6,0-22.5-13.1c0,0,14.4,13.1,25.5,12.2l-2.9,2.1"/>
			<path class="st37" d="M386.9,492.9c0,0-8.4-1.6-10.8-9.5c0,0,6.4,8.6,12.5,9.3l-1.8,0.8"/>
			<path class="st37" d="M390,488.7c0,0-6.6-14.1-21.5-14.8c0,0,18,7.4,21.9,17.8l0.6-3.5"/>
		</g>
		<path class="st38" d="M396.6,470.3c0,0-11.9-12.9,6.1-38.7c0,0,24.6,12,19.8,33.2S396.6,470.3,396.6,470.3z"/>
		<g class="st39">
			<path class="st37" d="M409.8,474.2c0,0-12.2-9.7-9.4-24.3c0,0,3,19.2,12.3,25.4l-3.6-0.2"/>
			<path class="st37" d="M413.3,474.1c0,0-5.5-6.5-2.5-14.2c0,0-0.4,10.7,3.9,15.1l-1.9-0.5"/>
			<path class="st37" d="M418.4,472.8c0,0,3.6-15.1-7.5-25c0,0,9.4,17,5.9,27.6l2.7-2.4"/>
		</g>
		<path class="st38" d="M432.9,464.4c0,0,0-17.5,30.7-24.3c0,0,9.9,25.5-8,37.8S432.9,464.4,432.9,464.4z"/>
		<g class="st39">
			<path class="st37" d="M437.6,473.8c0,0,1.5-15.5,15.3-21.2c0,0-14.4,13-14.6,24.2l-1.8-3.1"/>
			<path class="st37" d="M439.6,476.7c0,0,2.5-8.2,10.5-9.8c0,0-9.2,5.5-10.5,11.5l-0.6-1.9"/>
			<path class="st37" d="M443.4,480.2c0,0,14.7-5.2,16.8-20c0,0-9.1,17.2-19.9,20l3.5,1"/>
		</g>
		<path class="st38" d="M461.7,486.1c0,0,11.7-13.1,39.1,2.4c0,0-9.6,25.7-31.2,22.9S461.7,486.1,461.7,486.1z"/>
		<g class="st39">
			<path class="st37" d="M459.6,494.1c0,0,12.1-9.1,25.8-3.6c0,0-19.4-1.2-27.5,6l1-3.2"/>
			<path class="st37" d="M458.9,497.3c0,0,7.6-3.7,14.4,0.6c0,0-10.4-2.6-15.6,0.5l0.9-1.6"/>
			<path class="st37" d="M459.1,502.2c0,0,14,6.4,26-1.8c0,0-18.6,5.1-28.2-0.2l1.7,2.9"/>
		</g>
		<path class="st38" d="M468.3,522.7c0,0,17.4-2.1,27.8,27.5c0,0-24.1,13-38.5-3.4S468.3,522.7,468.3,522.7z"/>
		<g class="st39">
			<path class="st37" d="M461.6,526.5c0,0,15.1,1.3,21.6,14.6c0,0-13.6-13.8-24.4-13.9l2.9-1.7"/>
			<path class="st37" d="M459,528.4c0,0,8.1,2.3,10.3,10.1c0,0-6-8.8-11.9-10l1.8-0.6"/>
			<path class="st37" d="M455.9,532.2c0,0,6.1,14.1,20.5,16.1c0,0-17.3-8.7-20.9-19l-0.7,3.3"/>
		</g>
		<path class="st38" d="M448.7,551.9c0,0,12.3,12.5-4.7,38.8c0,0-25-11.2-20.9-32.5S448.7,551.9,448.7,551.9z"/>
		<g class="st39">
			<path class="st37" d="M437.6,548c0,0,11.2,10.2,8.4,24.7c0,0-2.6-19.3-11.1-25.9l3.4,0.4"/>
			<path class="st37" d="M434.3,548c0,0,5.1,6.8,2.1,14.2c0,0,0.5-10.7-3.4-15.2l1.8,0.6"/>
			<path class="st37" d="M429.6,549c0,0-3.6,14.9,6.7,25.2c0,0-8.5-17.3-5.2-27.8l-2.6,2.3"/>
		</g>
		<path class="st38" d="M412,556.4c0,0,1,17.5-29.3,26c0,0-11.4-24.9,5.8-38.2S412,556.4,412,556.4z"/>
		<g class="st39">
			<path class="st37" d="M407.2,547.5c0,0,0,15.1-12.6,22.8c0,0,12.6-14.8,11.7-25.6l2,2.7"/>
			<path class="st37" d="M405,545c0,0-1.6,8.3-9.1,11.1c0,0,8.3-6.7,9-12.7l0.8,1.7"/>
			<path class="st37" d="M401,542.2c0,0-13.5,7.3-14.2,21.9c0,0,7.1-18,17.1-22.5l-3.4-0.4"/>
		</g>
		<path class="st38" d="M381.8,535.9c0,0-12.3,12.5-38.9-4.2c0,0,10.8-25.1,32.3-21.4C396.6,514.1,381.8,535.9,381.8,535.9z"/>
		<g class="st39">
			<path class="st37" d="M385.4,524.3c0,0-9.3,12-23.9,10.3c0,0,19-4,24.9-13.1l-0.1,3.4"/>
			<path class="st37" d="M385.2,521c0,0-6.4,5.6-14,3.2c0,0,10.7-0.3,14.9-4.6l-0.4,1.8"/>
			<path class="st37" d="M383.8,516.4c0,0-15.1-2.5-24.6,8.6c0,0,16.6-9.9,27.3-7.3l-2.4-2.4"/>
		</g>
		<ellipse class="st40" cx="423.3" cy="511.1" rx="47.9" ry="48.7"/>
		<ellipse class="st41" cx="423.3" cy="511" rx="43" ry="43.7"/>
		<path class="st35" d="M427.5,626.5c0,0,3.7-50.2,66.1-42.3c0,0-3,59-65,48.5C428.6,632.6,426.4,632,427.5,626.5z"/>
		<path class="st42" d="M428,626.5c0,0,30.3-41.9,64.8-41.9c0,0-30.5,1.4-64.8,46V626.5z"/>
		<path class="st43" d="M427.8,628.9v-8.7c0,0,9.4-32.2,41.7-36.4c0,0,17.3-2.6,23.3,0.8C492.8,584.5,460.5,582.7,427.8,628.9z"/>
		<path class="st35" d="M422.4,641.9c0,0-3.7-50.2-66.1-42.3c0,0,3,59,65,48.5C421.3,648,423.5,647.4,422.4,641.9z"/>
		<path class="st42" d="M421.9,641.9c0,0-30.3-41.9-64.9-41.9c0,0,30.5,1.4,64.8,46L421.9,641.9z"/>
		<path class="st43" d="M422,644.3v-8.7c0,0-9.4-32.2-41.7-36.4c0,0-17.3-2.6-23.3,0.8C357,600,389.3,598.1,422,644.3z"/>
		<path class="st35" d="M867,518.8c0,0,8.4,17.7,2.6,67.1c-1.8,15.6-2.7,21.6-2.7,21.6s1,10,9.7,5.2c0,0,0.2-70.5-5.8-90.6
			L867,518.8z"/>
		<path class="st36" d="M838.6,456.3c0,0-11.6-5.9-5.8-28.5c0,0,20.2,2,22.4,18S838.6,456.3,838.6,456.3z"/>
		<path class="st37" d="M845.9,456.6c0,0-10.9-5.5-11.2-17.2c0,0,5.4,14.3,13.6,17.6l-2.8,0.4"/>
		<path class="st37" d="M848.5,456c0,0-5.3-4.1-4.2-10.5c0,0,1.4,8.3,5.5,11l-1.6-0.1"/>
		<path class="st37" d="M852.3,454.2c0,0,0.3-12.2-9.8-18c0,0,10,11.6,9,20.3l1.7-2.3"/>
		<path class="st36" d="M866.6,440.5c0,0-5.6-11.8,12.9-26c0,0,14.8,13.9,6.7,27.9S866.6,440.5,866.6,440.5z"/>
		<path class="st37" d="M872.1,445.3c0,0-5.3-11.1,1.8-20.5c0,0-4.5,14.6-0.1,22.2l-2.5-1.4"/>
		<path class="st37" d="M874.6,446.4c0,0-1.7-6.5,3.1-10.9c0,0-4,7.4-2.4,12l-1.2-1"/>
		<path class="st37" d="M878.7,447.2c0,0,7.8-9.5,3.3-20.3c0,0,0.8,15.3-5.3,21.6l2.7-0.8"/>
		<path class="st36" d="M894.6,450.3c0,0,3.5-12.5,26.8-11.3c0,0,2.1,20.2-13.2,25.5S894.6,450.3,894.6,450.3z"/>
		<path class="st37" d="M895.7,457.5c0,0,3.2-11.8,14.7-14.3c0,0-13,8.1-14.6,16.8l-1-2.7"/>
		<path class="st37" d="M896.8,460c0,0,3-6,9.5-6.2c0,0-7.9,3-9.7,7.5l-0.2-1.5"/>
		<path class="st37" d="M899.3,463.3c0,0,12.1-2,15.7-13.2c0,0-9.4,12.1-18.1,12.9l2.5,1.2"/>
		<path class="st36" d="M910.3,472.6c0,0,12.1-4.8,25.2,14.5c0,0-14.9,13.9-28.3,4.9S910.3,472.6,910.3,472.6z"/>
		<path class="st37" d="M905.2,477.8c0,0,11.4-4.5,20.3,3c0,0-14.3-5.4-22.2-1.5l1.5-2.4"/>
		<path class="st37" d="M903.9,480.2c0,0,6.6-1.2,10.7,3.8c0,0-7.2-4.5-11.8-3.2l1.1-1.1"/>
		<path class="st37" d="M902.8,484.2c0,0,8.9,8.4,20,4.6c0,0-15.3-0.2-21.2-6.7l0.6,2.8"/>
		<path class="st36" d="M901.7,503.2c0,0,12.5,3.5,11.3,26.8c0,0-20.2,2-25.5-13.2S901.7,503.2,901.7,503.2z"/>
		<path class="st37" d="M894.5,504.3c0,0,11.8,3.3,14.3,14.7c0,0-8.1-13-16.7-14.6l2.7-1"/>
		<path class="st37" d="M892,505.4c0,0,6,3,6.2,9.5c0,0-3-7.9-7.5-9.7l1.5-0.2"/>
		<path class="st37" d="M888.7,507.9c0,0,2,12.1,13.2,15.7c0,0-12.1-9.4-12.8-18.1l-1.2,2.5"/>
		<path class="st36" d="M878.3,521c0,0,4.2,12.3-15.7,24.4c0,0-13.1-15.5-3.5-28.5S878.3,521,878.3,521z"/>
		<path class="st37" d="M873.3,515.6c0,0,4,11.6-4.1,20.1c0,0,6.1-14,2.6-22.1l2.3,1.7"/>
		<path class="st37" d="M870.9,514.2c0,0,0.9,6.7-4.3,10.5c0,0,4.8-6.9,3.8-11.7l1.1,1.1"/>
		<path class="st37" d="M867,512.9c0,0-8.8,8.5-5.5,19.8c0,0,0.9-15.3,7.7-20.8l-2.8,0.4"/>
		<path class="st36" d="M845.8,511.2c0,0-5.7,11.7-28.3,6.3c0,0,1.6-20.3,17.5-22.7S845.8,511.2,845.8,511.2z"/>
		<path class="st37" d="M846,503.9c0,0-5.3,11-17,11.5c0,0,14.2-5.7,17.4-13.9l0.5,2.8"/>
		<path class="st37" d="M845.3,501.2c0,0-4,5.4-10.4,4.4c0,0,8.3-1.5,10.9-5.6v1.6"/>
		<path class="st37" d="M843.5,497.6c0,0-12.2-0.1-17.8,10.2c0,0,11.4-10.2,20.1-9.4l-2.3-1.7"/>
		<path class="st36" d="M832.4,483.3c0,0-11.7,5.6-26.1-12.8c0,0,13.9-14.8,27.9-6.8S832.4,483.3,832.4,483.3z"/>
		<path class="st37" d="M837.1,477.7c0,0-11,5.3-20.5-1.7c0,0,14.6,4.4,22.2,0l-1.4,2.5"/>
		<path class="st37" d="M838.2,475.2c0,0-6.5,1.7-10.9-3.1c0,0,7.5,4,12,2.4l-1,1.2"/>
		<path class="st37" d="M839,471.2c0,0-9.5-7.8-20.3-3.2c0,0,15.3-0.9,21.6,5.2l-0.8-2.7"/>
		<path class="st38" d="M833.2,470.6c0,0-13,0-18-22.8c0,0,18.9-7.4,28.1,5.9S833.2,470.6,833.2,470.6z"/>
		<g class="st39">
			<path class="st37" d="M839.9,467.6c0,0-12.2,0-17.7-10.3c0,0,11.3,10.3,20,9.6l-2.3,1.6"/>
			<path class="st37" d="M842,465.8c0,0-6.6-1.3-8.5-7.5c0,0,5,6.8,9.8,7.3l-1.4,0.6"/>
			<path class="st37" d="M844.5,462.5c0,0-5.2-11.1-16.9-11.6c0,0,14.2,5.8,17.2,14l0.5-2.8"/>
		</g>
		<path class="st38" d="M849.7,448c0,0-9.3-10.1,4.8-30.4c0,0,19.4,9.5,15.6,26.2S849.7,448,849.7,448z"/>
		<g class="st39">
			<path class="st37" d="M860,451.1c0,0-9.6-7.6-7.4-19.2c0,0,2.4,15.1,9.7,20l-2.8-0.2"/>
			<path class="st37" d="M862.8,451c0,0-4.4-5.2-1.9-11.2c0,0-0.3,8.4,3.1,11.9l-1.5-0.4"/>
			<path class="st37" d="M866.8,450c0,0,2.9-11.9-5.9-19.6c0,0,7.4,13.4,4.7,21.7l2.1-1.9"/>
		</g>
		<path class="st38" d="M878.2,443.4c0,0,0-13.8,24.2-19.1c0,0,7.8,20.1-6.3,29.8S878.2,443.4,878.2,443.4z"/>
		<g class="st39">
			<path class="st37" d="M881.9,450.8c0,0,1.2-12.2,12-16.6c0,0-11.3,10.3-11.5,19l-1.4-2.4"/>
			<path class="st37" d="M883.5,453.1c0,0,1.9-6.5,8.3-7.7c0,0-7.2,4.3-8.3,9l-0.5-1.5"/>
			<path class="st37" d="M886.5,455.9c0,0,11.5-4.1,13.2-15.7c0,0-7.2,13.5-15.6,15.8l2.7,0.8"/>
		</g>
		<path class="st38" d="M900.9,460.5c0,0,9.2-10.3,30.8,1.9c0,0-7.5,20.2-24.5,18S900.9,460.5,900.9,460.5z"/>
		<g class="st39">
			<path class="st37" d="M899.2,466.8c0,0,9.5-7.1,20.3-2.8c0,0-15.3-0.9-21.6,4.7l0.8-2.5"/>
			<path class="st37" d="M898.7,469.3c0,0,6-2.9,11.3,0.5c0,0-8.2-2-12.3,0.4l0.7-1.3"/>
			<path class="st37" d="M898.8,473.1c0,0,11,5,20.5-1.4c0,0-14.7,4-22.2-0.2l1.4,2.3"/>
		</g>
		<path class="st38" d="M906.1,489.3c0,0,13.7-1.6,21.9,21.7c0,0-19,10.2-30.3-2.6S906.1,489.3,906.1,489.3z"/>
		<g class="st39">
			<path class="st37" d="M900.8,492.3c0,0,11.9,1.1,17,11.5c0,0-10.7-10.9-19.2-11l2.3-1.4"/>
			<path class="st37" d="M898.8,493.8c0,0,6.4,1.8,8.1,7.9c0,0-4.7-7-9.4-7.9l1.4-0.5"/>
			<path class="st37" d="M896.3,496.7c0,0,4.8,11.1,16.2,12.6c0,0-13.6-6.8-16.4-15l-0.5,2.6"/>
		</g>
		<path class="st38" d="M890.7,512.3c0,0,9.7,9.8-3.8,30.6c0,0-19.7-8.8-16.5-25.6S890.7,512.3,890.7,512.3z"/>
		<g class="st39">
			<path class="st37" d="M881.9,509.2c0,0,8.8,8,6.6,19.4c0,0-2-15.2-8.7-20.4l2.6,0.3"/>
			<path class="st37" d="M879.3,509.2c0,0,4,5.3,1.7,11.2c0,0,0.4-8.4-2.7-12l1.4,0.5"/>
			<path class="st37" d="M875.6,510c0,0-2.8,11.7,5.3,19.8c0,0-6.7-13.7-4.1-21.9l-2,1.8"/>
		</g>
		<path class="st38" d="M861.8,515.8c0,0,0.8,13.8-23,20.5c0,0-9-19.6,4.6-30.1S861.8,515.8,861.8,515.8z"/>
		<g class="st39">
			<path class="st37" d="M858,508.8c0,0,0,11.9-10,17.9c0,0,9.9-11.7,9.2-20.1l1.6,2.1"/>
			<path class="st37" d="M856.3,506.9c0,0-1.3,6.5-7.2,8.7c0,0,6.5-5.3,7.1-10l0.6,1.4"/>
			<path class="st37" d="M853.1,504.7c0,0-10.6,5.8-11.2,17.2c0,0,5.6-14.1,13.5-17.7l-2.7-0.3"/>
		</g>
		<path class="st38" d="M838,499.7c0,0-9.7,9.8-30.6-3.3c0,0,8.5-19.8,25.4-16.8S838,499.7,838,499.7z"/>
		<g class="st39">
			<path class="st37" d="M840.9,490.5c0,0-7.3,9.4-18.8,8.1c0,0,15-3.2,19.6-10.3l-0.1,2.6"/>
			<path class="st37" d="M840.7,488c0,0-5,4.4-11,2.5c0,0,8.4-0.2,11.7-3.6l-0.3,1.4"/>
			<path class="st37" d="M839.6,484.3c0,0-11.9-1.9-19.4,6.8c0,0,13.1-7.8,21.5-5.7l-1.9-1.9"/>
		</g>
		<ellipse class="st40" cx="870.6" cy="480.2" rx="37.7" ry="38.3"/>
		<ellipse class="st41" cx="870.7" cy="480.1" rx="33.8" ry="34.4"/>
		<path class="st35" d="M873.9,571c0,0,2.9-39.5,52-33.3c0,0-2.4,46.4-51.2,38.1C874.8,575.8,873.1,575.3,873.9,571z"/>
		<path class="st42" d="M874.4,571c0,0,23.8-33,51-33c0,0-24,1.1-51,36.2V571z"/>
		<path class="st43" d="M874.2,572.8V566c0,0,7.4-25.4,32.8-28.6c0,0,13.6-2.1,18.3,0.6C925.4,538,899.9,536.5,874.2,572.8z"/>
		<path class="st35" d="M869.9,583.1c0,0-2.9-39.5-52-33.3c0,0,2.4,46.4,51.2,38.1C869.1,587.9,870.8,587.4,869.9,583.1z"/>
		<path class="st42" d="M869.5,583.1c0,0-23.8-33-51-33c0,0,24,1.1,51,36.2V583.1z"/>
		<path class="st43" d="M869.7,585v-6.9c0,0-7.4-25.4-32.8-28.6c0,0-13.6-2.1-18.3,0.6C818.5,550.1,844,548.6,869.7,585z"/>
		<path class="st35" d="M166.6,561.5c0,0,7,21,3.1,80.6c-2.8,43.1-4.7,50.5-4.7,50.5s2,3.7,6.6,0.8c0,0,6.7-104-0.4-128.1
			L166.6,561.5z"/>
		<path class="st35" d="M174.6,638.8c0,0,3.5-47.5,62.5-40c0,0-2.8,55.8-61.4,45.8C175.7,644.6,173.6,644,174.6,638.8z"/>
		<path class="st42" d="M175.1,638.8c0,0,28.6-39.7,61.3-39.7c0,0-28.8,1.3-61.3,43.5V638.8z"/>
		<path class="st43" d="M175,641v-8.2c0,0,8.9-30.5,39.4-34.4c0,0,16.3-2.5,22,0.7C236.4,599.1,205.9,597.3,175,641z"/>
		<path class="st35" d="M170.1,638.8c0,0-3.5-47.5-62.5-40c0,0,2.8,55.8,61.4,45.8C169,644.6,171.1,644,170.1,638.8z"/>
		<path class="st42" d="M169.6,638.8c0,0-28.6-39.7-61.3-39.7c0,0,28.8,1.3,61.3,43.5V638.8z"/>
		<path class="st43" d="M169.7,641v-8.2c0,0-8.9-30.5-39.4-34.4c0,0-16.3-2.5-22,0.7C108.3,599.1,138.8,597.3,169.7,641z"/>
		<path class="st36" d="M127.1,481.8c0,0-14.6-7.4-7.3-35.8c0,0,25.4,2.4,28.1,22.6S127.1,481.8,127.1,481.8z"/>
		<path class="st37" d="M136.3,482.2c0,0-13.8-6.9-14-21.6c0,0,6.8,18,17,22.1l-3.5,0.5"/>
		<path class="st37" d="M139.6,481.4c0,0-6.7-5.2-5.3-13.2c0,0,1.8,10.5,6.8,13.8l-2-0.1"/>
		<path class="st37" d="M144.3,479.1c0,0,0.4-15.4-12.4-22.6c0,0,12.6,14.5,11.4,25.5l2.1-2.9"/>
		<path class="st36" d="M162.3,461.9c0,0-7-14.8,16.1-32.7c0,0,18.6,17.5,8.4,35.1S162.3,461.9,162.3,461.9z"/>
		<path class="st37" d="M169.2,467.9c0,0-6.6-13.9,2.2-25.7c0,0-5.6,18.4-0.1,27.9l-3.1-1.7"/>
		<path class="st37" d="M172.4,469.3c0,0-2.1-8.2,4-13.7c0,0-5,9.3-3.1,15.1l-1.5-1.3"/>
		<path class="st37" d="M177.5,470.4c0,0,9.8-11.9,4.1-25.5c0,0,1,19.2-6.7,27.1l3.4-0.9"/>
		<path class="st36" d="M197.5,474.2c0,0,4.4-15.8,33.6-14.2c0,0,2.6,25.4-16.6,32S197.5,474.2,197.5,474.2z"/>
		<path class="st37" d="M198.8,483.3c0,0,4.1-14.8,18.5-18c0,0-16.3,10.2-18.3,21l-1.2-3.3"/>
		<path class="st37" d="M200.3,486.4c0,0,3.8-7.6,11.9-7.8c0,0-9.9,3.8-12.2,9.4l-0.3-1.9"/>
		<path class="st37" d="M203.5,490.5c0,0,15.2-2.5,19.8-16.5c0,0-11.8,15.2-22.8,16.1l3.2,1.5"/>
		<path class="st36" d="M217.2,502.2c0,0,15.2-6,31.6,18.2c0,0-18.7,17.4-35.5,6.1S217.2,502.2,217.2,502.2z"/>
		<path class="st37" d="M210.7,508.8c0,0,14.3-5.7,25.5,3.8c0,0-18-6.8-27.9-1.9l1.9-3"/>
		<path class="st37" d="M209.1,511.8c0,0,8.3-1.5,13.4,4.8c0,0-9-5.6-14.9-4l1.4-1.4"/>
		<path class="st37" d="M207.8,516.8c0,0,11.2,10.5,25.1,5.7c0,0-19.2-0.2-26.6-8.4l0.7,3.5"/>
		<path class="st36" d="M206.4,540.7c0,0,15.8,4.4,14.1,33.6c0,0-25.4,2.5-32-16.6S206.4,540.7,206.4,540.7z"/>
		<path class="st37" d="M197.3,542.1c0,0,14.8,4.1,18,18.5c0,0-10.2-16.3-21-18.4l3.4-1.2"/>
		<path class="st37" d="M194.2,543.5c0,0,7.6,3.8,7.7,11.9c0,0-3.8-9.9-9.4-12.2l1.9-0.3"/>
		<path class="st37" d="M190.1,546.7c0,0,2.6,15.2,16.6,19.8c0,0-15.2-11.8-16.1-22.8l-1.5,3.2"/>
		<path class="st36" d="M176.9,563c0,0,5.3,15.5-19.8,30.7c0,0-16.5-19.5-4.4-35.8S176.9,563,176.9,563z"/>
		<path class="st37" d="M170.7,556.3c0,0,5,14.5-5.1,25.3c0,0,7.7-17.6,3.3-27.7l2.9,2.1"/>
		<path class="st37" d="M167.7,554.5c0,0,1.1,8.4-5.5,13.1c0,0,6.1-8.7,4.8-14.7l1.3,1.4"/>
		<path class="st37" d="M162.8,552.9c0,0-11.1,10.7-7,24.8c0,0,1.2-19.2,9.7-26.2l-3.5,0.5"/>
		<path class="st36" d="M136.2,550.8c0,0-7.1,14.7-35.6,7.9c0,0,2-25.5,22-28.5S136.2,550.8,136.2,550.8z"/>
		<path class="st37" d="M136.5,541.6c0,0-6.7,13.9-21.4,14.4c0,0,17.8-7.1,21.8-17.4l0.6,3.5"/>
		<path class="st37" d="M135.6,538.2c0,0-5.1,6.8-13.1,5.5c0,0,10.4-2,13.7-7.1l-0.1,2"/>
		<path class="st37" d="M133.2,533.6c0,0-15.4-0.2-22.4,12.8c0,0,14.3-12.8,25.3-11.8l-2.9-2.1"/>
		<path class="st36" d="M119.3,515.7c0,0-14.8,7-32.8-16c0,0,17.4-18.6,35-8.5S119.3,515.7,119.3,515.7z"/>
		<path class="st37" d="M125.3,508.7c0,0-13.9,6.7-25.7-2.1c0,0,18.4,5.6,27.9,0l-1.7,3.1"/>
		<path class="st37" d="M126.7,505.5c0,0-8.2,2.1-13.7-3.9c0,0,9.4,5,15.1,3l-1.3,1.5"/>
		<path class="st37" d="M127.7,500.5c0,0-11.9-9.7-25.5-4c0,0,19.2-1.1,27.1,6.6l-1-3.4"/>
		<path class="st44" d="M120.4,499.7c0,0-16.3,0-22.7-28.6c0,0,23.8-9.3,35.3,7.4S120.4,499.7,120.4,499.7z"/>
		<g class="st39">
			<path class="st37" d="M128.8,496c0,0-15.4,0-22.3-13c0,0,14.2,13,25.2,12l-2.9,2.1"/>
			<path class="st37" d="M131.4,493.7c0,0-8.3-1.6-10.7-9.4c0,0,6.3,8.5,12.3,9.2l-1.8,0.8"/>
			<path class="st37" d="M134.5,489.6c0,0-6.5-13.9-21.3-14.6c0,0,17.8,7.3,21.7,17.6l0.6-3.5"/>
		</g>
		<path class="st44" d="M141,471.4c0,0-11.8-12.8,6-38.2c0,0,24.3,11.9,19.6,32.9S141,471.4,141,471.4z"/>
		<g class="st39">
			<path class="st37" d="M154.1,475.3c0,0-12-9.6-9.3-24.1c0,0,3,19,12.1,25.1l-3.6-0.2"/>
			<path class="st37" d="M157.5,475.2c0,0-5.5-6.5-2.4-14c0,0-0.4,10.6,3.9,14.9l-1.9-0.5"/>
			<path class="st37" d="M162.6,473.9c0,0,3.6-15-7.4-24.7c0,0,9.3,16.8,5.9,27.3l2.7-2.3"/>
		</g>
		<path class="st44" d="M176.9,465.6c0,0,0-17.3,30.4-24c0,0,9.8,25.2-7.9,37.4S176.9,465.6,176.9,465.6z"/>
		<g class="st39">
			<path class="st37" d="M181.5,474.9c0,0,1.5-15.3,15.1-20.9c0,0-14.3,12.9-14.4,23.9l-1.8-3.1"/>
			<path class="st37" d="M183.5,477.7c0,0,2.4-8.1,10.4-9.7c0,0-9.1,5.4-10.4,11.4l-0.6-1.9"/>
			<path class="st37" d="M187.3,481.2c0,0,14.5-5.2,16.6-19.7c0,0-9,17-19.6,19.8l3.4,1"/>
		</g>
		<path class="st44" d="M205.4,487.1c0,0,11.6-12.9,38.6,2.3c0,0-9.5,25.4-30.8,22.6S205.4,487.1,205.4,487.1z"/>
		<g class="st39">
			<path class="st37" d="M203.3,495c0,0,12-9,25.5-3.5c0,0-19.2-1.1-27.2,5.9l1-3.2"/>
			<path class="st37" d="M202.6,498.1c0,0,7.5-3.6,14.2,0.6c0,0-10.2-2.5-15.4,0.5l0.9-1.6"/>
			<path class="st37" d="M202.8,503c0,0,13.8,6.3,25.7-1.8c0,0-18.4,5-27.9-0.2l1.7,2.9"/>
		</g>
		<path class="st44" d="M211.9,523.2c0,0,17.2-2.1,27.5,27.2c0,0-23.9,12.8-38.1-3.3S211.9,523.2,211.9,523.2z"/>
		<g class="st39">
			<path class="st37" d="M205.3,527c0,0,14.9,1.3,21.3,14.4c0,0-13.5-13.7-24.2-13.8l2.9-1.7"/>
			<path class="st37" d="M202.7,528.9c0,0,8,2.3,10.1,10c0,0-5.9-8.7-11.8-9.9l1.8-0.6"/>
			<path class="st37" d="M199.6,532.6c0,0,6.1,13.9,20.3,15.9c0,0-17.1-8.6-20.6-18.8l-0.7,3.3"/>
		</g>
		<path class="st44" d="M192.6,552.1c0,0,12.2,12.3-4.7,38.4c0,0-24.7-11-20.7-32.2S192.6,552.1,192.6,552.1z"/>
		<g class="st39">
			<path class="st37" d="M181.6,548.3c0,0,11.1,10.1,8.3,24.4c0,0-2.5-19-11-25.6l3.3,0.3"/>
			<path class="st37" d="M178.3,548.2c0,0,5,6.7,2.1,14.1c0,0,0.5-10.5-3.4-15l1.8,0.6"/>
			<path class="st37" d="M173.6,549.3c0,0-3.6,14.7,6.6,24.9c0,0-8.4-17.1-5.1-27.5l-2.5,2.3"/>
		</g>
		<path class="st44" d="M156.2,556.5c0,0,1,17.3-28.9,25.7c0,0-11.3-24.6,5.8-37.8S156.2,556.5,156.2,556.5z"/>
		<g class="st39">
			<path class="st37" d="M151.5,547.7c0,0,0,15-12.5,22.5c0,0,12.4-14.6,11.6-25.3l2,2.7"/>
			<path class="st37" d="M149.3,545.3c0,0-1.6,8.2-9.1,11c0,0,8.2-6.7,8.9-12.6l0.8,1.7"/>
			<path class="st37" d="M145.4,542.5c0,0-13.3,7.3-14,21.6c0,0,7-17.8,16.9-22.2l-3.4-0.4"/>
		</g>
		<path class="st44" d="M126.4,536.3c0,0-12.2,12.3-38.5-4.2c0,0,10.7-24.9,31.9-21.1S126.4,536.3,126.4,536.3z"/>
		<g class="st39">
			<path class="st37" d="M130,524.8c0,0-9.2,11.8-23.7,10.2c0,0,18.8-4,24.6-12.9l-0.1,3.3"/>
			<path class="st37" d="M129.8,521.6c0,0-6.3,5.5-13.9,3.2c0,0,10.6-0.3,14.7-4.5l-0.4,1.8"/>
			<path class="st37" d="M128.3,517c0,0-15-2.4-24.3,8.5c0,0,16.4-9.8,27-7.2l-2.4-2.3"/>
		</g>
		<ellipse class="st40" cx="167.4" cy="511.8" rx="47.4" ry="48.1"/>
		<ellipse class="st41" cx="167.4" cy="511.7" rx="42.5" ry="43.2"/>
		<path class="st35" d="M1040.2,524c0,0,5.2,15.6,2.3,60c-2.1,32.1-3.5,37.6-3.5,37.6s1.5,2.8,4.9,0.6c0,0,4.9-77.4-0.3-95.4
			L1040.2,524z"/>
		<path class="st35" d="M1046.2,581.5c0,0,2.6-35.3,46.5-29.8c0,0-2.1,41.5-45.7,34.1C1047,585.9,1045.5,585.4,1046.2,581.5z"/>
		<path class="st42" d="M1046.6,581.5c0,0,21.3-29.5,45.6-29.5c0,0-21.4,1-45.6,32.3V581.5z"/>
		<path class="st43" d="M1046.5,583.2v-6.1c0,0,6.6-22.7,29.3-25.6c0,0,12.2-1.8,16.4,0.5C1092.2,552,1069.5,550.7,1046.5,583.2z"/>
		<path class="st35" d="M1042.8,581.5c0,0-2.6-35.3-46.5-29.8c0,0,2.1,41.5,45.7,34.1C1042.1,585.9,1043.6,585.4,1042.8,581.5z"/>
		<path class="st42" d="M1042.5,581.5c0,0-21.3-29.5-45.6-29.5c0,0,21.4,1,45.6,32.3V581.5z"/>
		<path class="st43" d="M1042.6,583.2v-6.1c0,0-6.6-22.7-29.3-25.6c0,0-12.2-1.8-16.4,0.5C996.8,552,1019.6,550.7,1042.6,583.2z"/>
		<path class="st36" d="M1010.8,464.6c0,0-10.8-5.5-5.4-26.6c0,0,18.9,1.8,20.9,16.8S1010.8,464.6,1010.8,464.6z"/>
		<path class="st37" d="M1017.7,465c0,0-10.2-5.1-10.4-16.1c0,0,5.1,13.4,12.7,16.5l-2.6,0.4"/>
		<path class="st37" d="M1020.2,464.4c0,0-5-3.9-3.9-9.8c0,0,1.3,7.8,5.1,10.3l-1.5-0.1"/>
		<path class="st37" d="M1023.6,462.7c0,0,0.3-11.5-9.2-16.9c0,0,9.3,10.8,8.5,19l1.6-2.1"/>
		<path class="st36" d="M1037,449.9c0,0-5.2-11,12-24.4c0,0,13.8,13,6.3,26.1S1037,449.9,1037,449.9z"/>
		<path class="st37" d="M1042.2,454.3c0,0-4.9-10.3,1.6-19.1c0,0-4.2,13.7-0.1,20.8l-2.3-1.3"/>
		<path class="st37" d="M1044.6,455.4c0,0-1.6-6.1,2.9-10.2c0,0-3.7,7-2.3,11.2l-1.1-1"/>
		<path class="st37" d="M1048.3,456.2c0,0,7.3-8.8,3.1-19c0,0,0.7,14.3-5,20.2l2.6-0.7"/>
		<path class="st36" d="M1063.3,459c0,0,3.3-11.7,25-10.6c0,0,1.9,18.9-12.3,23.8S1063.3,459,1063.3,459z"/>
		<path class="st37" d="M1064.3,465.8c0,0,3-11,13.8-13.4c0,0-12.1,7.6-13.7,15.7l-0.9-2.5"/>
		<path class="st37" d="M1065.3,468.1c0,0,2.8-5.6,8.9-5.8c0,0-7.4,2.8-9.1,7l-0.2-1.4"/>
		<path class="st37" d="M1067.7,471.2c0,0,11.3-1.9,14.7-12.3c0,0-8.8,11.3-17,12l2.4,1.1"/>
		<path class="st36" d="M1077.9,479.9c0,0,11.3-4.5,23.5,13.6c0,0-13.9,13-26.5,4.5S1077.9,479.9,1077.9,479.9z"/>
		<path class="st37" d="M1073.1,484.8c0,0,10.6-4.3,19,2.9c0,0-13.4-5.1-20.7-1.4l1.4-2.2"/>
		<path class="st37" d="M1071.9,487c0,0,6.2-1.1,10,3.6c0,0-6.7-4.2-11.1-3l1-1"/>
		<path class="st37" d="M1070.9,490.8c0,0,8.3,7.8,18.7,4.3c0,0-14.3-0.2-19.8-6.3l0.5,2.6"/>
		<path class="st36" d="M1069.9,508.5c0,0,11.7,3.3,10.5,25c0,0-18.9,1.9-23.8-12.4S1069.9,508.5,1069.9,508.5z"/>
		<path class="st37" d="M1063.1,509.5c0,0,11,3.1,13.4,13.8c0,0-7.6-12.1-15.7-13.7l2.5-0.9"/>
		<path class="st37" d="M1060.8,510.6c0,0,5.6,2.8,5.8,8.9c0,0-2.8-7.4-7-9.1l1.4-0.2"/>
		<path class="st37" d="M1057.7,513c0,0,1.9,11.3,12.3,14.7c0,0-11.3-8.8-12-17l-1.2,2.4"/>
		<path class="st36" d="M1048,525.1c0,0,3.9,11.5-14.7,22.8c0,0-12.3-14.5-3.2-26.7S1048,525.1,1048,525.1z"/>
		<path class="st37" d="M1043.3,520.1c0,0,3.7,10.8-3.8,18.8c0,0,5.7-13.1,2.4-20.6l2.2,1.5"/>
		<path class="st37" d="M1041.1,518.8c0,0,0.8,6.3-4.1,9.8c0,0,4.5-6.5,3.5-10.9l1,1.1"/>
		<path class="st37" d="M1037.4,517.6c0,0-8.2,8-5.2,18.5c0,0,0.9-14.3,7.2-19.5l-2.6,0.4"/>
		<path class="st36" d="M1017.6,516c0,0-5.3,11-26.5,5.9c0,0,1.5-18.9,16.4-21.2S1017.6,516,1017.6,516z"/>
		<path class="st37" d="M1017.8,509.2c0,0-5,10.3-15.9,10.7c0,0,13.3-5.3,16.2-13l0.4,2.6"/>
		<path class="st37" d="M1017.2,506.7c0,0-3.8,5-9.8,4.1c0,0,7.8-1.5,10.2-5.3l0,1.5"/>
		<path class="st37" d="M1015.4,503.3c0,0-11.5-0.1-16.7,9.5c0,0,10.7-9.5,18.8-8.8l-2.2-1.5"/>
		<path class="st36" d="M1005,489.9c0,0-11,5.3-24.4-11.9c0,0,13-13.9,26.1-6.3S1005,489.9,1005,489.9z"/>
		<path class="st37" d="M1009.5,484.7c0,0-10.3,5-19.1-1.6c0,0,13.7,4.1,20.8,0l-1.3,2.3"/>
		<path class="st37" d="M1010.5,482.3c0,0-6.1,1.6-10.2-2.9c0,0,7,3.7,11.3,2.2l-1,1.1"/>
		<path class="st37" d="M1011.3,478.6c0,0-8.9-7.3-19-3c0,0,14.3-0.8,20.2,4.9l-0.7-2.6"/>
		<path class="st44" d="M1005.8,478c0,0-12.2,0-16.9-21.3c0,0,17.7-6.9,26.3,5.5S1005.8,478,1005.8,478z"/>
		<g class="st39">
			<path class="st37" d="M1012.1,475.2c0,0-11.5,0-16.6-9.7c0,0,10.6,9.6,18.8,9l-2.2,1.5"/>
			<path class="st37" d="M1014.1,473.6c0,0-6.2-1.2-7.9-7c0,0,4.7,6.4,9.2,6.9l-1.3,0.6"/>
			<path class="st37" d="M1016.4,470.5c0,0-4.9-10.4-15.8-10.9c0,0,13.2,5.4,16.1,13.1l0.5-2.6"/>
		</g>
		<path class="st44" d="M1021.2,456.9c0,0-8.7-9.5,4.5-28.5c0,0,18.1,8.8,14.6,24.5S1021.2,456.9,1021.2,456.9z"/>
		<g class="st39">
			<path class="st37" d="M1030.9,459.8c0,0-9-7.1-6.9-17.9c0,0,2.2,14.1,9,18.7l-2.7-0.1"/>
			<path class="st37" d="M1033.5,459.8c0,0-4.1-4.8-1.8-10.4c0,0-0.3,7.9,2.9,11.1l-1.4-0.4"/>
			<path class="st37" d="M1037.2,458.8c0,0,2.7-11.1-5.6-18.4c0,0,6.9,12.5,4.4,20.3l2-1.8"/>
		</g>
		<path class="st44" d="M1047.9,452.6c0,0,0-12.9,22.6-17.9c0,0,7.3,18.8-5.9,27.9S1047.9,452.6,1047.9,452.6z"/>
		<g class="st39">
			<path class="st37" d="M1051.4,459.5c0,0,1.1-11.4,11.2-15.6c0,0-10.6,9.6-10.7,17.8l-1.3-2.3"/>
			<path class="st37" d="M1052.8,461.6c0,0,1.8-6,7.8-7.2c0,0-6.8,4-7.7,8.5l-0.5-1.4"/>
			<path class="st37" d="M1055.7,464.3c0,0,10.8-3.8,12.4-14.7c0,0-6.7,12.6-14.6,14.8l2.6,0.7"/>
		</g>
		<path class="st44" d="M1069.1,468.6c0,0,8.6-9.6,28.8,1.7c0,0-7.1,18.9-23,16.8S1069.1,468.6,1069.1,468.6z"/>
		<g class="st39">
			<path class="st37" d="M1067.6,474.5c0,0,8.9-6.7,19-2.6c0,0-14.3-0.9-20.2,4.4l0.7-2.4"/>
			<path class="st37" d="M1067.1,476.8c0,0,5.6-2.7,10.6,0.5c0,0-7.6-1.9-11.5,0.4l0.7-1.2"/>
			<path class="st37" d="M1067.2,480.4c0,0,10.3,4.7,19.2-1.3c0,0-13.7,3.7-20.8-0.2l1.3,2.2"/>
		</g>
		<path class="st44" d="M1074,495.5c0,0,12.8-1.5,20.5,20.3c0,0-17.8,9.5-28.4-2.5S1074,495.5,1074,495.5z"/>
		<g class="st39">
			<path class="st37" d="M1069.1,498.3c0,0,11.1,1,15.9,10.7c0,0-10-10.2-18-10.3l2.1-1.3"/>
			<path class="st37" d="M1067.1,499.7c0,0,6,1.7,7.6,7.4c0,0-4.4-6.5-8.8-7.4l1.3-0.5"/>
			<path class="st37" d="M1064.8,502.5c0,0,4.5,10.4,15.1,11.8c0,0-12.7-6.4-15.3-14l-0.5,2.5"/>
		</g>
		<path class="st44" d="M1059.6,517c0,0,9.1,9.2-3.5,28.6c0,0-18.4-8.2-15.4-24S1059.6,517,1059.6,517z"/>
		<g class="st39">
			<path class="st37" d="M1051.4,514.2c0,0,8.3,7.5,6.2,18.1c0,0-1.9-14.2-8.2-19l2.5,0.3"/>
			<path class="st37" d="M1049,514.1c0,0,3.7,5,1.6,10.5c0,0,0.4-7.8-2.5-11.2l1.3,0.4"/>
			<path class="st37" d="M1045.5,514.9c0,0-2.7,11,4.9,18.5c0,0-6.3-12.8-3.8-20.4l-1.9,1.7"/>
		</g>
		<path class="st44" d="M1032.5,520.3c0,0,0.7,12.9-21.5,19.1c0,0-8.4-18.3,4.3-28.1C1027.9,501.5,1032.5,520.3,1032.5,520.3z"/>
		<g class="st39">
			<path class="st37" d="M1029,513.8c0,0,0,11.2-9.3,16.8c0,0,9.3-10.9,8.6-18.8l1.5,2"/>
			<path class="st37" d="M1027.4,512c0,0-1.2,6.1-6.7,8.2c0,0,6.1-5,6.6-9.4l0.6,1.3"/>
			<path class="st37" d="M1024.5,509.9c0,0-9.9,5.4-10.5,16.1c0,0,5.3-13.2,12.6-16.5l-2.5-0.3"/>
		</g>
		<path class="st44" d="M1010.3,505.3c0,0-9.1,9.2-28.6-3.1c0,0,8-18.5,23.7-15.7S1010.3,505.3,1010.3,505.3z"/>
		<g class="st39">
			<path class="st37" d="M1013,496.7c0,0-6.8,8.8-17.6,7.6c0,0,14-3,18.3-9.6l-0.1,2.5"/>
			<path class="st37" d="M1012.8,494.3c0,0-4.7,4.1-10.3,2.4c0,0,7.9-0.2,11-3.4l-0.3,1.3"/>
			<path class="st37" d="M1011.8,490.9c0,0-11.2-1.8-18.1,6.4c0,0,12.2-7.3,20.1-5.4l-1.8-1.8"/>
		</g>
		<ellipse class="st40" cx="1040.8" cy="487" rx="35.3" ry="35.8"/>
		<ellipse class="st41" cx="1040.8" cy="486.9" rx="31.6" ry="32.1"/>
		<path class="st45" d="M1167.5,441c0,0,5.8-6,7.4-5.4s-1.6-5.3-6.3,1.3C1166.7,439.5,1167.5,441,1167.5,441z"/>
		<path class="st45" d="M1166.3,441c0,0,2.5-13.6,5.1-15s-4.2-3.5-5.6,5.7C1164.8,438.1,1166.3,441,1166.3,441z"/>
		<path class="st45" d="M1165.5,441c0,0-2.8-9.7-8.5-10s8.5,10.6,8.5,10.6"/>
		
			<linearGradient id="SVGID_21_" gradientUnits="userSpaceOnUse" x1="287.5192" y1="-32.0382" x2="785.7892" y2="182.1117" gradientTransform="matrix(1 0 0 -1 0 900)">
			<stop  offset="0.44" style="stop-color:#16232F"/>
			<stop  offset="0.57" style="stop-color:#16262F"/>
			<stop  offset="0.67" style="stop-color:#182F2E"/>
			<stop  offset="0.75" style="stop-color:#1A3E2E"/>
			<stop  offset="0.82" style="stop-color:#1E542D"/>
			<stop  offset="0.89" style="stop-color:#22712C"/>
			<stop  offset="0.96" style="stop-color:#28932A"/>
			<stop  offset="1" style="stop-color:#2CAE29"/>
		</linearGradient>
		<path class="st46" d="M598.4,947.5c83.4-28.8,173.7-58.6,174-59.9s-49.1,5.3-96.5,18.5s-91.2,28.9-91.2,28.9l-2.7,1
			c15.5-9.2,58.7-34.2,93.9-46.9c43.8-15.7,71.9-22.3,72.1-26.3s-31.1-2.3-82,17.2s-123.8,50.2-98,33.6s160.1-80.6,160.1-80.6
			s-97.3,30.9-143.4,59.5s-50.6,25-36.3,14.3s162.8-118.3,162.8-118.3s-107.8,58.4-156.7,96.5C509,920.3,485,935.7,526.1,899
			c44.7-39.9,145.6-124.4,143.5-126.9s-71.1,40.5-116.3,83.4s-33.9,28.4-6-4.2s87.1-96.8,85.7-97.4s-71.3,62-102.8,97.8
			s-46,44.7-19.1,5.2s98-134.2,98-134.2S531.1,799,493,851.6c-16,22-22.5,11.5-5.1-18.9c38.8-67.7,66.4-144.7,63.4-145.5
			S532.5,716,512.7,753s-44.4,72.3-44.4,72.3s1.3-11.4,18.2-54.7s29.3-89.8,25.7-88.8s-24.8,57.7-45.5,103.8s-40.5,88.2-40.5,88.2
			s-1.1-4,16.5-55.1s32.7-134.7,30.6-134.8s-27.5,67.3-50.7,137.6s-27.9,80.8-18.9,20.9s6.5-153.2,5-153.6s-10.3,23.5-15.9,69.4
			s-11.7,84.5-11.7,84.5s-2-16.9-2.7-45.1s-8.9-105.7-11.5-105.9s-4.7,54.5-6.1,79.8s0.5,83.4,0.5,83.4s-6.4-30.2-10.7-51.9
			s-28.6-103.3-28.6-103.3s8,99.9,18.3,159.6s10.2,68.2-5.8,12.2s-56-103-56-103s8.1,33.9,22,62.8s22.6,53.1,22.6,53.1
			s-2.9-3.5-25.7-43.7S241,765.7,241,765.7s37.5,71,59.7,115.6s34.4,74.9,6.1,28.2S183.2,769,183.2,769s52.9,104.9,91.2,143.7
			s289.3,70.9,289.3,70.9C575.9,981,787,937,788,934.5S515,976.3,598.4,947.5z"/>
		
			<linearGradient id="SVGID_22_" gradientUnits="userSpaceOnUse" x1="797.1115" y1="-931.4114" x2="1295.3816" y2="-717.2614" gradientTransform="matrix(0.9755 -0.22 -0.22 -0.9755 -187.4661 245.0845)">
			<stop  offset="0.44" style="stop-color:#16232F"/>
			<stop  offset="0.57" style="stop-color:#16262F"/>
			<stop  offset="0.67" style="stop-color:#182F2E"/>
			<stop  offset="0.75" style="stop-color:#1A3E2E"/>
			<stop  offset="0.82" style="stop-color:#1E542D"/>
			<stop  offset="0.89" style="stop-color:#22712C"/>
			<stop  offset="0.96" style="stop-color:#28932A"/>
			<stop  offset="1" style="stop-color:#2CAE29"/>
		</linearGradient>
		<path class="st47" d="M1101.8,924.9c75-46.4,156.6-95.4,156.5-96.8s-46.7,16-90.1,39.3s-82.6,48.2-82.6,48.2l-2.4,1.5
			c13.1-12.4,49.7-46.3,81.3-66.4c39.2-25,65.2-37.6,64.5-41.5s-30.9,4.7-76.2,34.9s-109.7,76.2-88.2,54.3s138.6-113.9,138.6-113.9
			s-88.1,51.6-126.8,89.6s-43.9,35.5-32.2,21.9S1177,744.8,1177,744.8s-92.3,80.7-131.7,128.6c-36.7,44.6-56.8,64.9-24.7,20.1
			c34.8-48.7,114.7-153.4,112.1-155.3s-60.5,55.2-95.1,107s-26.8,35.2-6.8-2.8c20-37.9,63.7-113.6,62.2-113.8s-55.9,76.2-78.7,118.1
			s-35,53.7-17.5,9.3s66-152.5,66-152.5s-59.3,91.4-85,151.1c-10.7,25-19.4,16.1-9.1-17.3c23-74.5,32.9-155.8,29.9-155.9
			s-12,32.3-23.2,72.7S948,834.3,948,834.3s-1.3-11.4,5.7-57.4s8.8-94,5.5-92.3s-11.5,61.8-21.6,111.3s-20.1,95-20.1,95
			s-2-3.6,4-57.4s2.3-138.6,0.2-138.3s-12,71.7-19.2,145.4s-9.5,84.9-13.8,24.5s-27.4-150.9-28.9-150.9s-4.9,25.2-0.3,71.2
			s7.2,85,7.2,85s-5.6-16-12.5-43.5s-32-101.2-34.5-100.8s7.3,54.2,11.6,79.2s18.8,81.3,18.8,81.3s-12.9-28-21.9-48.3
			s-50.6-94.5-50.6-94.5s29.8,95.7,53,151.7s25,64.2-3,13.1s-77.3-88.2-77.3-88.2s15.4,31.3,35.3,56.4s33.7,46.8,33.7,46.8
			s-3.6-2.8-34.7-36.9s-71.4-60.6-71.4-60.6s52.2,61,83.7,99.6s50,65.5,12.1,26.2S657.5,842.2,657.5,842.2s74.7,90.7,120.6,120.2
			s297.9,5.5,297.9,5.5c11.3-5.3,207.5-94.6,207.9-97.4S1026.8,971.3,1101.8,924.9z"/>
		
			<linearGradient id="SVGID_23_" gradientUnits="userSpaceOnUse" x1="1385.3082" y1="-39.912" x2="1327.6183" y2="298.218" gradientTransform="matrix(1 0 0 -1 0 900)">
			<stop  offset="4.000000e-02" style="stop-color:#0E2F10"/>
			<stop  offset="0.22" style="stop-color:#0F3211"/>
			<stop  offset="0.38" style="stop-color:#113D13"/>
			<stop  offset="0.52" style="stop-color:#164F16"/>
			<stop  offset="0.67" style="stop-color:#1C691B"/>
			<stop  offset="0.81" style="stop-color:#238922"/>
			<stop  offset="0.93" style="stop-color:#2CAE29"/>
		</linearGradient>
		<path class="st48" d="M1595.7,1004.1c-4.1-3.2,11.4-179.3,11.4-179.3l-0.5,3.3c-2.6-22.1-8.5-83-2.3-126
			c7.8-53.4,17.8-84.6,12.2-88.3s-25,26.3-32.3,89.5s-13.7,156-19.8,118.1s-4.9-215.5-4.9-215.5s-23.1,115.2-14,181.8
			s13.8,148.7,13.8,148.7s-13-81-18.4-103.4s-57.6-250.6-57.6-250.6s9.3,148.6,30.3,226.1c19.5,72.2,25,107.4,0.6,38.2
			c-26.5-75.2-78.4-240.4-83.4-240.6s9,99.8,39.6,178.1s53.7,147.7,53.7,147.7s-36.3-92.3-64-145.9s-79.2-163.2-81.1-162.4
			s40,118.7,69.9,178.4s73.6,170.2,73.6,170.2s-41.1-89.6-79.3-148.3s-125.8-205.6-125.8-205.6s55.7,137,105.1,217.3
			c20.7,33.6,49,83.8,74.4,130c-34-46.2-73.5-99.7-105.2-141.8c-70.8-94.1-163.1-186.1-166.2-184.2s28.6,42.1,68.3,92.3
			s73.6,103.2,73.6,103.2s-15.6-11-66.4-64.1s-109.4-104.7-110.6-100.6s66.2,72.7,118.5,131.7s99.4,113.5,99.4,113.5
			s-6.5-2.5-68.2-62.9S1168,705.6,1166.4,707.5s78.2,83.5,163.7,165.7s97.4,95.6,17,35.3S1130,769.3,1128.4,770.3
			s26.9,29.8,89.2,74.8s114.1,84.1,114.1,84.1s-25.8-12.9-67.2-36.8s-159.1-83.9-161.3-81.7s75.5,51.7,111.2,75s121,72.1,121,72.1
			s-48.1-20.5-82.6-35.4s-169.4-63.9-169.4-63.9s150,79.6,243.7,122.2S1599.8,1007.3,1595.7,1004.1z"/>
		<path class="st49" d="M116.4,911.9c-36.6,6.5-72.9,13.5-108.2,27.4c-1.4-58.4,93.2-108.9,138.6-128c29.8-12.5,61.2-19.8,92.5-20
			c15.3-0.2,30.6,1.5,45.6,4.9c7.4,1.7,33.6,16.6,40,14.5c-38.9,13-68.8,40.1-103,62.8C188.2,895.8,154.7,905,116.4,911.9z"/>
		<path class="st50" d="M319.3,811.5C231,795.3,140.1,880.4,60.7,915.3C45.4,922,30,926.7,16.1,936.5c-2-25.5,24.4-52.2,43.2-68.6
			c25-21.8,52.8-40.1,82.6-54.4C199.3,786.2,269.8,772.7,319.3,811.5z"/>
		<path class="st49" d="M60.6,936.6c-18.6-2-36.2,2.7-53.2,4.9c16.8-42.8,94.5-46.2,130.7-59.2c50.4-18.2,96.3-19.9,138.7,8.2
			c17.6,11.7,35,22.4,52.8,33.4c-50,8.1-99.7,10.6-149.2,20.1C135.7,952.6,103.6,941.2,60.6,936.6z"/>
		<path class="st49" d="M45.4,908.2c-15.4,7.4-26.5,11.7-38.8,23.9C6.6,831,114.3,741.9,205,720.8c19.9-4.6,39.7-7.4,59.4-4.7
			C217.9,793,124.9,869.9,45.4,908.2z"/>
		<path class="st50" d="M205,720.8c19.9-4.6,38.4-8.3,57.3-2.2c-80.1,39.4-132,116-206.2,165.4c-15.7,10.5-31.4,20.9-46.7,32
			C9.5,824.6,125.3,739.4,205,720.8z"/>
		<path class="st49" d="M15,940.7c1.3,0.5,2.8,0.7,4.2,0.7c11.6,0.1,62-66.2,72-77c51.8-55.8,100.5-121.7,107.3-197.8
			c3.7-41.4,5-52.3,28.6-86.5c-21.3,7.9-38.2,20.4-52.5,38.5c-24.1,30.5-39.4,68.5-63.2,99.7C64,780.5,10.1,813.1,8.1,893
			C7.8,906.1,1.4,935.8,15,940.7z"/>
		<path class="st50" d="M25.4,916.4c85.1-75.8,119.2-184,164-282.7c9.2-20.2,19.3-43.7,38.2-56.7c-18.5,13.6-39.5,24.5-52.9,41.6
			c-22.7,28.8-36.5,62.9-57.7,92.5c-18.4,25.6-43.5,42.8-63.8,66.9c-25.6,30.5-21.5,57.5-24,94.4C28.2,887.2,25.7,901.7,25.4,916.4z
			"/>
		<path class="st49" d="M3.6,904.4c2,15.7,6.1,29.8,14.1,33.7c21.9,10.8,45.4-60.7,56.3-80.5c50.3-91.5,47.4-225.8-55.5-259.5
			c18.5,46.8,14.6,100.8,1.6,151.4c-9.2,35.7-18.6,71.4-18.5,107.7C1.6,866.5,1.3,886.5,3.6,904.4z"/>
		<path class="st50" d="M21.5,944c38.5-46.8,48.4-98.7,55.7-154.6c7-53.6-5.8-141.6-46.6-175.9c4.5,45.6,1,91.6-10.5,136
			C9.6,790.5-7.2,856.3,2.8,904.6C6,920,11.9,933.5,21.5,944z"/>
		<path class="st51" d="M27.8,942.1c-0.2-0.2,2.5-3,8.3-6.9c8.3-5.4,17.2-9.6,26.6-12.6c11.8-4,26.3-7.3,42.4-9.9s33.8-4.7,52.2-8.4
			c18.5-3.5,36.3-6.5,52.6-7.6c7.8-0.5,15.5-0.7,23.3-0.4c7.3,0.3,14.1,1,20.1,1.7c12.3,1.3,22.2,3.3,28.8,5.6s9.8,4.4,9.7,4.7
			s-3.7-1.1-10.3-2.8s-16.3-3-28.5-3.8c-6.1-0.4-12.8-1-19.9-1s-14.8,0.2-22.8,0.8c-16,1.3-33.6,4.4-52,7.9
			c-18.5,3.8-36.4,5.7-52.4,8.1s-30.3,5.1-42,8.6c-9.2,2.7-18.2,6.3-26.6,10.8C31.1,940.2,28,942.4,27.8,942.1z"/>
		<path class="st51" d="M315.9,809.3c-0.1,0.4-2.6,0.3-7.3,0s-11.3-0.6-19.5-0.3c-4.5,0.2-8.9,0.6-13.3,1.2
			c-2.4,0.3-4.8,0.8-7.2,1.4c-2.5,0.6-5,1.3-7.6,2.1c-11.2,3.6-22.2,7.9-32.9,13c-22.8,10.7-42.7,22.2-57.2,30.2
			s-23.5,12.9-23.9,12.3s8-6.5,22-15.4s33.7-20.9,56.8-31.8c10.9-5.2,22.2-9.5,33.7-12.9c2.7-0.8,5.3-1.4,7.9-2
			c2.5-0.6,5.1-1,7.7-1.2c4.6-0.5,9.2-0.7,13.8-0.6c6.6,0.1,13.2,0.8,19.8,2C313.4,808.2,315.9,809,315.9,809.3z"/>
		<path class="st51" d="M264.4,834.4c0.2,0.7-16.1,6.6-37.2,10.5s-38.4,4.5-38.4,3.7s17.1-2.3,37.9-6.3S264.2,833.7,264.4,834.4z"/>
		<path class="st51" d="M51.2,910.9c-0.3-0.3,2.7-2.8,7.5-7.8s11.7-12.3,19.7-21.8c4-4.7,8.4-10,13.3-15.5s10.2-11.2,15.6-17.4
			c10.9-12.4,22.6-26.2,35.3-40.4s25.2-27.4,37.4-38.7c10.7-10.1,22.2-19.3,34.3-27.5c8.2-5.5,16.9-10.3,25.9-14.3
			c6.4-2.8,10.2-3.8,10.3-3.5c0.4,0.8-14.1,6.4-34.1,20.9c-11.7,8.6-22.7,17.9-33.1,28c-11.8,11.3-24.1,24.5-36.8,38.7
			s-24.5,27.8-35.6,40.1c-5.5,6.1-11,11.8-16,17.1l-13.7,15c-6.6,7.4-13.6,14.3-21.1,20.8C54.7,909.1,51.4,911.1,51.2,910.9z"/>
		<path class="st51" d="M183.7,798.2c0.2,0.3-4.3,3.4-11.4,8.7s-16.6,12.8-27.1,21.2s-20.1,16-27.4,21s-12,7.8-12.2,7.5
			s4.2-3.5,11.1-9s16.3-13.1,26.8-21.5s20.3-15.8,27.7-20.7S183.5,797.9,183.7,798.2z"/>
		<path class="st51" d="M65.5,876.8c-0.3-0.2,1.9-3.6,5.6-10s8.8-15.6,14.9-27.2c12.3-23.4,32.1-53.9,51-89.2
			c4.7-8.8,9.1-17.5,13.1-26.1c1-2.2,2-4.3,3-6.4s1.9-4.2,2.8-6.2c1.8-4.1,3.5-8.2,5.1-12.2c6.3-16.1,11.4-30.9,16.4-43.1
			c3.8-9.7,8.3-19.1,13.5-28.2c3.8-6.3,6.4-9.5,6.7-9.3s-1.7,3.7-4.9,10.3c-4.5,9.3-8.4,18.8-11.9,28.5
			c-4.5,12.3-9.2,27.2-15.3,43.5c-1.5,4.1-3.2,8.3-5,12.5c-0.9,2.1-1.9,4.2-2.8,6.4c-1,2.1-2,4.2-2.9,6.4c-4,8.7-8.4,17.5-13.1,26.4
			c-19,35.6-39.4,65.8-52.3,88.5c-6.6,11.4-12.2,20.5-16.5,26.5S65.7,877,65.5,876.8z"/>
		<g class="st52">
			<path class="st51" d="M37.1,929.3c-0.3-0.2,1.9-3.6,5.7-9.7c5.3-8.6,9.8-17.7,13.2-27.2c1.1-3,2.1-6.2,3-9.5s1.7-6.9,2.5-10.6
				c1.7-7.4,3.3-15.3,4.8-23.7c3.4-18.1,5.7-36.5,6.6-54.9c0.5-9.5,0.4-19-0.3-28.5c-0.8-9.3-1.1-18.3-1.6-26.8
				c-0.8-17-2-32.3-4.2-44.9s-5.2-22.5-8.3-28.9s-5.8-9.4-5.5-9.7s3.5,2.3,7.3,8.7c3.8,6.4,7.5,16.4,10.1,29.2s4.3,28.2,5.4,45.3
				c0.6,8.5,1,17.5,1.9,26.7c0.7,9.7,0.9,19.4,0.4,29.1c-1,18.7-3.3,37.3-7.1,55.6c-1.7,8.4-3.5,16.4-5.4,23.8
				c-1,3.7-1.8,7.3-2.9,10.8s-2.2,6.7-3.5,9.7c-3.9,9.6-8.9,18.7-15,27C40.2,926.5,37.4,929.5,37.1,929.3z"/>
		</g>
		<g class="st53">
			<path class="st54" d="M45,906.2c-0.4,0,0.6-8.2-0.4-21.4c-0.7-7.7-1.7-15.4-3.2-23c-1.6-8.6-3.7-18-5.8-27.9s-3.9-19.4-4.9-28.2
				c-1-7.8-1.3-15.6-0.8-23.4c0.9-13.4,4.1-21.2,4.4-21c0.5,0.1-2.1,8-2.5,21.1c-0.2,7.7,0.3,15.4,1.4,23c1.1,8.6,3,18.1,5.1,28
				s4.1,19.3,5.6,28c1.4,7.7,2.3,15.5,2.7,23.3C47,898.1,45.3,906.3,45,906.2z"/>
		</g>
		<path class="st35" d="M316.8,725.9c0,0,14.9,37.7,5.5,144.1c-5.5,62.2-2.6,82.5,9.8,62.2c0,0,5.4-156.3-7.3-199.4L316.8,725.9z"/>
		<path class="st36" d="M255.7,591.7c0,0-24.9-12.7-12.5-61.1c0,0,43.4,4.2,48.1,38.6S255.7,591.7,255.7,591.7z"/>
		<path class="st37" d="M271.4,592.5c0,0-23.5-11.8-24-37c0,0,11.7,30.7,29.1,37.8l-6,0.9"/>
		<path class="st37" d="M277.1,591.1c0,0-11.4-8.9-9-22.6c0,0,3,17.9,11.7,23.6l-3.4-0.2"/>
		<path class="st37" d="M285.1,587.1c0,0,0.8-26.3-21.2-38.7c0,0,21.5,24.9,19.4,43.6l3.7-4.9"/>
		<path class="st36" d="M315.9,557.7c0,0-12-25.3,27.6-55.9c0,0,31.7,29.9,14.3,60S315.9,557.7,315.9,557.7z"/>
		<path class="st37" d="M327.7,567.9c0,0-11.3-23.7,3.8-43.9c0,0-9.6,31.4-0.2,47.7l-5.3-3"/>
		<path class="st37" d="M333.1,570.4c0,0-3.6-14.1,6.8-23.4c0,0-8.6,16-5.2,25.8l-2.5-2.2"/>
		<path class="st37" d="M341.8,572.2c0,0,16.7-20.3,7-43.5c0,0,1.7,32.8-11.4,46.3l5.9-1.6"/>
		<path class="st36" d="M376.1,578.8c0,0,7.5-26.9,57.5-24.2c0,0,4.4,43.4-28.4,54.7S376.1,578.8,376.1,578.8z"/>
		<path class="st37" d="M378.4,594.3c0,0,7-25.4,31.6-30.8c0,0-27.8,17.5-31.4,36l-2.1-5.7"/>
		<path class="st37" d="M380.8,599.7c0,0,6.5-13,20.4-13.3c0,0-16.9,6.5-20.8,16.1l-0.5-3.3"/>
		<path class="st37" d="M386.2,606.7c0,0,25.9-4.4,33.8-28.3c0,0-20.1,25.9-38.9,27.6l5.5,2.6"/>
		<path class="st36" d="M409.7,626.6c0,0,26-10.3,54,31.2c0,0-31.9,29.8-60.8,10.5S409.7,626.6,409.7,626.6z"/>
		<path class="st37" d="M398.7,637.8c0,0,24.4-9.8,43.6,6.6c0,0-30.7-11.6-47.6-3.2l3.3-5.1"/>
		<path class="st37" d="M395.9,643.1c0,0,14.3-2.7,22.9,8.2c0,0-15.4-9.6-25.4-6.9l2.4-2.4"/>
		<path class="st37" d="M393.6,651.6c0,0,19.2,18,43,9.8c0,0-32.8-0.4-45.5-14.4l1.2,6"/>
		<path class="st36" d="M391.3,692.5c0,0,26.9,7.5,24.2,57.5c0,0-43.4,4.4-54.7-28.4S391.3,692.5,391.3,692.5z"/>
		<path class="st37" d="M375.8,694.7c0,0,25.3,7,30.7,31.6c0,0-17.4-27.8-36-31.4l5.7-2.1"/>
		<path class="st37" d="M370.4,697.2c0,0,13,6.5,13.2,20.4c0,0-6.4-16.9-16.1-20.8l3.3-0.5"/>
		<path class="st37" d="M363.4,702.6c0,0,4.4,25.9,28.3,33.8c0,0-25.9-20.2-27.5-39l-2.6,5.5"/>
		<path class="st36" d="M340.9,730.5c0,0,9,26.5-33.8,52.4c0,0-28.1-33.3-7.4-61.2S340.9,730.5,340.9,730.5z"/>
		<path class="st37" d="M330.3,719c0,0,8.5,24.9-8.7,43.2c0,0,13.1-30.1,5.6-47.4l4.9,3.6"/>
		<path class="st37" d="M325.2,716c0,0,2,14.4-9.4,22.5c0,0,10.3-14.9,8.1-25l2.3,2.5"/>
		<path class="st37" d="M316.8,713.2c0,0-18.9,18.3-11.9,42.5c0,0,2-32.8,16.6-44.8l-6,0.9"/>
		<path class="st36" d="M271.2,709.6c0,0-12.2,25.2-60.9,13.6c0,0,3.4-43.5,37.7-48.8S271.2,709.6,271.2,709.6z"/>
		<path class="st37" d="M271.7,693.9c0,0-11.4,23.7-36.6,24.6c0,0,30.5-12.2,37.3-29.8l1,6"/>
		<path class="st37" d="M270.3,688.2c0,0-8.7,11.6-22.4,9.4c0,0,17.8-3.3,23.4-12.1l-0.1,3.4"/>
		<path class="st37" d="M266.2,680.3c0,0-26.3-0.3-38.3,21.8c0,0,24.5-21.9,43.3-20.2l-4.9-3.6"/>
		<path class="st36" d="M242.4,649.6c0,0-25.2,12-56-27.4c0,0,29.8-31.8,59.9-14.6S242.4,649.6,242.4,649.6z"/>
		<path class="st37" d="M252.6,637.7c0,0-23.7,11.4-44-3.6c0,0,31.4,9.5,47.7,0l-3,5.3"/>
		<path class="st37" d="M255,632.3c0,0-14.1,3.6-23.4-6.7c0,0,16,8.5,25.8,5.1l-2.2,2.6"/>
		<path class="st37" d="M256.7,623.6c0,0-20.4-16.7-43.6-6.8c0,0,32.8-1.8,46.4,11.2l-1.6-5.9"/>
		<path class="st44" d="M244.2,622.3c0,0-27.9,0-38.7-48.9c0,0,40.6-15.9,60.3,12.7S244.2,622.3,244.2,622.3z"/>
		<g class="st39">
			<path class="st37" d="M258.6,616c0,0-26.3,0.1-38.1-22.2c0,0,24.3,22.1,43.1,20.6l-5,3.5"/>
			<path class="st37" d="M263.1,612.1c0,0-14.2-2.8-18.2-16.1c0,0,10.8,14.6,21.1,15.8l-3.1,1.4"/>
			<path class="st37" d="M268.4,605c0,0-11.2-23.8-36.4-25c0,0,30.4,12.5,37,30.1l1.1-6"/>
		</g>
		<path class="st44" d="M279.5,573.9c0,0-20.1-21.8,10.3-65.4c0,0,41.6,20.3,33.5,56.2S279.5,573.9,279.5,573.9z"/>
		<g class="st39">
			<path class="st37" d="M301.8,580.6c0,0-20.6-16.4-15.9-41.1c0,0,5.1,32.5,20.7,43l-6.1-0.3"/>
			<path class="st37" d="M307.7,580.4c0,0-9.4-11.1-4.2-24c0,0-0.7,18.1,6.6,25.5l-3.3-0.8"/>
			<path class="st37" d="M316.3,578.2c0,0,6.2-25.6-12.7-42.2c0,0,15.9,28.8,10,46.7l4.6-4"/>
		</g>
		<path class="st44" d="M340.8,564c0,0,0-29.6,51.9-41c0,0,16.8,43.1-13.6,64S340.8,564,340.8,564z"/>
		<g class="st39">
			<path class="st37" d="M348.8,579.9c0,0,2.5-26.2,25.8-35.8c0,0-24.4,22-24.7,40.9l-3-5.3"/>
			<path class="st37" d="M352.1,584.8c0,0,4.2-13.9,17.8-16.6c0,0-15.6,9.3-17.7,19.5l-1.1-3.2"/>
			<path class="st37" d="M358.7,590.7c0,0,24.8-8.8,28.3-33.7c0,0-15.4,29-33.6,33.9l5.9,1.7"/>
		</g>
		<path class="st44" d="M389.5,600.7c0,0,19.8-22.1,66.1,4c0,0-16.2,43.3-52.7,38.7S389.5,600.7,389.5,600.7z"/>
		<g class="st39">
			<path class="st37" d="M386,614.2c0,0,20.5-15.3,43.6-6c0,0-32.8-2-46.5,10.1l1.7-5.5"/>
			<path class="st37" d="M384.9,619.6c0,0,12.9-6.3,24.3,1.1c0,0-17.5-4.3-26.3,0.8l1.5-2.8"/>
			<path class="st37" d="M385.1,627.9c0,0,23.6,10.8,44-3c0,0-31.5,8.6-47.7-0.4l2.9,5"/>
		</g>
		<path class="st44" d="M400.7,662.5c0,0,29.4-3.6,47,46.6c0,0-40.8,21.9-65.1-5.7S400.7,662.5,400.7,662.5z"/>
		<g class="st39">
			<path class="st37" d="M389.4,669c0,0,25.5,2.3,36.5,24.7c0,0-23.1-23.4-41.3-23.5l4.9-2.9"/>
			<path class="st37" d="M385,672.2c0,0,13.7,4,17.3,17c0,0-10.1-14.9-20.1-17l3-1"/>
			<path class="st37" d="M379.6,678.5c0,0,10.4,23.8,34.7,27.2c0,0-29.2-14.7-35.3-32.2l-1.1,5.7"/>
		</g>
		<path class="st44" d="M367.6,711.9c0,0,20.8,21.1-8,65.7c0,0-42.3-18.8-35.4-55S367.6,711.9,367.6,711.9z"/>
		<g class="st39">
			<path class="st37" d="M348.8,705.3c0,0,19,17.2,14.2,41.7c0,0-4.3-32.5-18.8-43.7l5.7,0.6"/>
			<path class="st37" d="M343.3,705.2c0,0,8.6,11.4,3.5,24.1c0,0,0.9-18-5.8-25.7l3,1"/>
			<path class="st37" d="M335.2,707.1c0,0-6.1,25.2,11.3,42.6c0,0-14.5-29.3-8.7-46.9l-4.3,3.8"/>
		</g>
		<path class="st44" d="M305.5,719.5c0,0,1.7,29.5-49.5,43.9c0,0-19.2-42.1,9.9-64.7S305.5,719.5,305.5,719.5z"/>
		<g class="st39">
			<path class="st37" d="M297.4,704.4c0,0-0.1,25.6-21.4,38.5c0,0,21.3-25,19.9-43.2l3.4,4.6"/>
			<path class="st37" d="M293.7,700.3c0,0-2.7,14-15.5,18.8c0,0,14-11.4,15.2-21.5l1.3,2.9"/>
			<path class="st37" d="M287,695.5c0,0-22.8,12.4-24,37c0,0,12.1-30.4,29-37.9l-5.7-0.7"/>
		</g>
		<path class="st44" d="M254.5,684.9c0,0-20.8,21.1-65.8-7.2c0,0,18.3-42.5,54.5-36.1S254.5,684.9,254.5,684.9z"/>
		<g class="st39">
			<path class="st37" d="M260.6,665.2c0,0-15.7,20.2-40.4,17.4c0,0,32.1-6.8,42.1-22.1l-0.2,5.7"/>
			<path class="st37" d="M260.3,659.7c0,0-10.7,9.4-23.7,5.4c0,0,18-0.5,25.2-7.8l-0.7,3.1"/>
			<path class="st37" d="M257.8,651.8c0,0-25.6-4.1-41.6,14.6c0,0,28.1-16.7,46.1-12.3l-4.1-4"/>
		</g>
		<ellipse class="st40" cx="324.5" cy="643" rx="81" ry="82.2"/>
		<ellipse class="st41" cx="324.6" cy="642.8" rx="72.6" ry="73.8"/>
		<path class="st35" d="M331.3,864c0,0,6.3-84.9,111.7-71.5c0,0-5.1,99.7-109.9,81.9C333.1,874.4,329.4,873.4,331.3,864z"/>
		<path class="st42" d="M332.2,864c0,0,51.1-70.9,109.6-70.9c0,0-51.5,2.4-109.5,77.7L332.2,864z"/>
		<path class="st43" d="M331.9,868.1v-14.7c0,0,15.9-54.5,70.5-61.5c0,0,29.2-4.4,39.4,1.3C441.7,793.1,387.1,790,331.9,868.1z"/>
		<path class="st35" d="M323.1,864c0,0-6.3-84.9-111.7-71.5c0,0,5.1,99.7,109.9,81.9C321.2,874.4,325,873.4,323.1,864z"/>
		<path class="st42" d="M322.2,864c0,0-51.1-70.9-109.6-70.9c0,0,51.5,2.4,109.6,77.7V864z"/>
		<path class="st43" d="M322.5,868.1v-14.7c0,0-15.9-54.5-70.5-61.5c0,0-29.2-4.4-39.4,1.3C212.6,793.1,267.2,790,322.5,868.1z"/>
		<path class="st35" d="M639.3,635.1c0,0,16.2,50.6,7.4,194.7c-5,82.1-6.1,91.9-6.1,91.9s-3.1,19.4,17.6,11.2
			c0,0,9.1-230.4-8.1-288.6L639.3,635.1z"/>
		<path class="st36" d="M550.8,474.6c0,0-33.7-17-16.9-82.6c0,0,58.7,5.6,65,52.1S550.8,474.6,550.8,474.6z"/>
		<path class="st37" d="M572,475.7c0,0-31.8-16-32.4-50c0,0,15.8,41.5,39.4,51.1l-8.1,1.2"/>
		<path class="st37" d="M579.8,473.8c0,0-15.5-12-12.2-30.5c0,0,4.1,24.1,15.8,31.9l-4.5-0.2"/>
		<path class="st37" d="M590.5,468.5c0,0,1-35.5-28.6-52.3c0,0,29,33.6,26.3,58.9l4.9-6.6"/>
		<path class="st36" d="M632.1,428.8c0,0-16.2-34.1,37.3-75.6c0,0,42.9,40.5,19.4,81S632.1,428.8,632.1,428.8z"/>
		<path class="st37" d="M648.2,442.6c0,0-15.3-32.1,5.1-59.4c0,0-13,42.5-0.2,64.5l-7.2-4"/>
		<path class="st37" d="M655.5,445.9c0,0-4.8-19,9.1-31.6c0,0-11.6,21.6-7,34.9l-3.5-3"/>
		<path class="st37" d="M667.2,448.3c0,0,22.6-27.4,9.5-58.8c0,0,2.3,44.3-15.4,62.6l7.9-2.2"/>
		<path class="st36" d="M713.5,457.2c0,0,10.1-36.4,77.7-32.8c0,0,6,58.7-38.3,74C708.5,513.8,713.5,457.2,713.5,457.2z"/>
		<path class="st37" d="M716.6,478.2c0,0,9.4-34.3,42.7-41.6c0,0-37.6,23.6-42.4,48.6l-2.8-7.7"/>
		<path class="st37" d="M720,485.5c0,0,8.8-17.5,27.6-17.9c0,0-22.9,8.7-28.2,21.8l-0.7-4.5"/>
		<path class="st37" d="M727.3,495c0,0,35-6,45.6-38.3c0,0-27.2,35-52.6,37.3l7.4,3.5"/>
		<path class="st36" d="M758.9,521.9c0,0,35.1-13.9,73.1,42.1c0,0-43.1,40.2-82.1,14.1S758.9,521.9,758.9,521.9z"/>
		<path class="st37" d="M744.1,537c0,0,33-13.2,58.9,8.9c0,0-41.5-15.7-64.4-4.4l4.5-6.9"/>
		<path class="st37" d="M740.3,544.1c0,0,19.3-3.6,30.9,11.1c0,0-20.8-13-34.3-9.3l3.2-3.3"/>
		<path class="st37" d="M737.2,555.7c0,0,25.9,24.3,58.1,13.2c0,0-44.4-0.5-61.5-19.4l1.7,8.1"/>
		<path class="st36" d="M734.1,610.9c0,0,36.4,10.2,32.7,77.7c0,0-58.7,5.9-73.9-38.4S734.1,610.9,734.1,610.9z"/>
		<path class="st37" d="M713.1,614c0,0,34.3,9.5,41.5,42.7c0,0-23.6-37.6-48.6-42.4l7.7-2.8"/>
		<path class="st37" d="M705.9,617.3c0,0,17.5,8.8,17.9,27.6c0,0-8.7-22.9-21.7-28.2l4.5-0.7"/>
		<path class="st37" d="M696.4,624.6c0,0,5.9,35,38.3,45.7c0,0-35-27.3-37.2-52.7l-3.6,7.4"/>
		<path class="st36" d="M666,662.3c0,0,12.2,35.7-45.7,70.9c0,0-38-45.1-10-82.7S666,662.3,666,662.3z"/>
		<path class="st37" d="M651.6,646.8c0,0,11.5,33.6-11.8,58.4c0,0,17.7-40.7,7.5-64.1l6.7,4.8"/>
		<path class="st37" d="M644.7,642.7c0,0,2.6,19.4-12.7,30.3c0,0,14-20.1,11-33.8l3.1,3.3"/>
		<path class="st37" d="M633.3,638.9c0,0-25.6,24.7-16.1,57.4c0,0,2.7-44.3,22.4-60.5l-8.1,1.3"/>
		<path class="st36" d="M571.8,634c0,0-16.5,34-82.3,18.3c0,0,4.6-58.8,51-65.9S571.8,634,571.8,634z"/>
		<path class="st37" d="M572.5,612.8c0,0-15.4,32-49.4,33.3c0,0,41.2-16.5,50.4-40.3l1.4,8.1"/>
		<path class="st37" d="M570.5,605.1c0,0-11.8,15.7-30.3,12.7c0,0,24.1-4.5,31.6-16.4l-0.1,4.5"/>
		<path class="st37" d="M565,594.5c0,0-35.5-0.4-51.8,29.5c0,0,33.1-29.6,58.5-27.3l-6.7-4.8"/>
		<path class="st36" d="M532.8,553c0,0-34.1,16.3-75.7-37c0,0,40.3-43.1,81-19.7S532.8,553,532.8,553z"/>
		<path class="st37" d="M546.6,536.8c0,0-32,15.4-59.4-4.8c0,0,42.5,12.8,64.5,0l-4,7.2"/>
		<path class="st37" d="M549.8,529.5c0,0-19,4.9-31.6-9c0,0,21.6,11.5,34.9,6.9l-2.9,3.5"/>
		<path class="st37" d="M552.2,517.8c0,0-27.5-22.5-58.9-9.3c0,0,44.3-2.5,62.7,15.2l-2.2-7.9"/>
		<path class="st44" d="M535.3,516.1c0,0-37.8,0-52.4-66.1c0,0,54.9-21.5,81.5,17.2S535.3,516.1,535.3,516.1z"/>
		<g class="st39">
			<path class="st37" d="M554.7,507.5c0,0-35.5,0.1-51.5-30c0,0,32.8,29.9,58.2,27.8l-6.7,4.8"/>
			<path class="st37" d="M560.8,502.3c0,0-19.2-3.8-24.6-21.8c0,0,14.5,19.7,28.5,21.3l-4.1,1.9"/>
			<path class="st37" d="M568,492.7c0,0-15.1-32.2-49.1-33.7c0,0,41.1,16.9,50,40.7l1.5-8.1"/>
		</g>
		<path class="st44" d="M583,450.6c0,0-27.1-29.5,13.9-88.3c0,0,56.2,27.4,45.2,75.9S583,450.6,583,450.6z"/>
		<g class="st39">
			<path class="st37" d="M613.2,459.6c0,0-27.8-22.2-21.4-55.6c0,0,6.9,43.9,28,58.1l-8.2-0.5"/>
			<path class="st37" d="M621.1,459.4c0,0-12.7-15-5.6-32.4c0,0-1,24.5,8.9,34.5l-4.4-1.1"/>
			<path class="st37" d="M632.8,456.4c0,0,8.3-34.5-17.2-57c0,0,21.5,38.9,13.5,63.1l6.2-5.4"/>
		</g>
		<path class="st44" d="M665.8,437.3c0,0,0-40.1,70.2-55.4c0,0,22.7,58.3-18.3,86.5S665.8,437.3,665.8,437.3z"/>
		<g class="st39">
			<path class="st37" d="M676.6,458.7c0,0,3.4-35.4,34.8-48.3c0,0-33,29.7-33.3,55.2l-4.1-7.1"/>
			<path class="st37" d="M681.2,465.3c0,0,5.6-18.8,24-22.4c0,0-21,12.5-24,26.3l-1.5-4.3"/>
			<path class="st37" d="M690,473.4c0,0,33.5-11.9,38.3-45.6c0,0-20.8,39.2-45.4,45.8l7.9,2.2"/>
		</g>
		<path class="st44" d="M731.7,486.9c0,0,26.7-29.8,89.3,5.4c0,0-21.9,58.6-71.3,52.3S731.7,486.9,731.7,486.9z"/>
		<g class="st39">
			<path class="st37" d="M726.9,505.1c0,0,27.7-20.7,58.9-8.1c0,0-44.3-2.7-62.8,13.6l2.3-7.4"/>
			<path class="st37" d="M725.4,512.4c0,0,17.4-8.4,32.8,1.5c0,0-23.7-5.9-35.6,1.1l2.1-3.8"/>
			<path class="st37" d="M725.7,523.6c0,0,31.9,14.6,59.4-4c0,0-42.6,11.6-64.5-0.5l3.9,6.7"/>
		</g>
		<path class="st44" d="M746.8,570.4c0,0,39.8-4.8,63.5,62.9c0,0-55.1,29.6-88-7.7S746.8,570.4,746.8,570.4z"/>
		<g class="st39">
			<path class="st37" d="M731.5,579.1c0,0,34.5,3.1,49.3,33.3c0,0-31.2-31.6-55.8-31.8l6.6-4"/>
			<path class="st37" d="M725.5,583.5c0,0,18.6,5.3,23.4,23c0,0-13.7-20.2-27.2-23l4-1.4"/>
			<path class="st37" d="M718.3,592.1c0,0,14,32.2,46.9,36.7c0,0-39.5-19.8-47.7-43.5l-1.6,7.6"/>
		</g>
		<path class="st44" d="M702.1,637.1c0,0,28.1,28.5-10.9,88.8c0,0-57.1-25.5-47.8-74.3S702.1,637.1,702.1,637.1z"/>
		<g class="st39">
			<path class="st37" d="M676.6,628.3c0,0,25.6,23.2,19.3,56.3c0,0-5.8-44-25.4-59.1l7.7,0.8"/>
			<path class="st37" d="M669.2,628.2c0,0,11.6,15.5,4.8,32.5c0,0,1.3-24.3-7.9-34.7l4.1,1.3"/>
			<path class="st37" d="M658.3,630.6c0,0-8.2,34.1,15.3,57.6c0,0-19.5-39.6-11.8-63.4l-5.8,5.1"/>
		</g>
		<path class="st44" d="M618.1,647.4c0,0,2.2,40-66.9,59.4c0,0-26-56.9,13.3-87.4S618.1,647.4,618.1,647.4z"/>
		<g class="st39">
			<path class="st37" d="M607.2,627.1c0,0-0.1,34.6-28.9,52c0,0,28.7-33.8,26.8-58.4l4.5,6.2"/>
			<path class="st37" d="M602.2,621.5c0,0-3.7,19-20.9,25.4c0,0,18.9-15.4,20.5-29.1l1.8,3.9"/>
			<path class="st37" d="M593.1,615c0,0-30.8,16.8-32.5,50c0,0,16.3-41,39.2-51.3l-7.8-0.9"/>
		</g>
		<path class="st44" d="M549.2,600.7c0,0-28.1,28.5-88.9-9.7c0,0,24.7-57.5,73.7-48.8S549.2,600.7,549.2,600.7z"/>
		<g class="st39">
			<path class="st37" d="M557.5,574.1c0,0-21.2,27.3-54.7,23.5c0,0,43.4-9.2,56.9-29.8l-0.2,7.7"/>
			<path class="st37" d="M557,566.6c0,0-14.5,12.8-32,7.3c0,0,24.4-0.6,34-10.5l-1,4.2"/>
			<path class="st37" d="M553.7,556c0,0-34.6-5.6-56.2,19.7c0,0,38-22.5,62.3-16.6l-5.6-5.4"/>
		</g>
		<ellipse class="st40" cx="643.9" cy="544" rx="109.4" ry="111.1"/>
		<ellipse class="st41" cx="644" cy="543.7" rx="98.2" ry="99.7"/>
		<path class="st35" d="M659.4,833.6c0,0,8.5-114.7,151-96.7c0,0-6.9,134.7-148.5,110.7C662,847.6,656.9,846.2,659.4,833.6z"/>
		<path class="st42" d="M660.7,833.6c0,0,69.1-95.8,148.1-95.8c0,0-69.6,3.2-148.1,105V833.6z"/>
		<path class="st43" d="M660.3,839v-19.9c0,0,21.5-73.7,95.3-83.1c0,0,39.5-6,53.2,1.7C808.7,737.7,734.9,733.5,660.3,839z"/>
		<path class="st35" d="M647.7,809.4c0,0-8.5-114.7-151-96.7c0,0,6.9,134.7,148.5,110.7C645.2,823.4,650.2,822,647.7,809.4z"/>
		<path class="st42" d="M646.5,809.4c0,0-69.1-95.8-148.1-95.8c0,0,69.6,3.2,148.1,105V809.4z"/>
		<path class="st43" d="M646.9,814.8v-19.9c0,0-21.5-73.7-95.3-83.1c0,0-39.5-6-53.2,1.7C498.4,713.5,572.2,709.3,646.9,814.8z"/>
		<path class="st35" d="M1252.2,626.8c0,0,16.2,48.5,7.1,186.2c-6.6,99.5-10.9,116.7-10.9,116.7s4.7,8.6,15.3,1.9
			c0,0,15.4-240.3-1-296L1252.2,626.8z"/>
		<path class="st35" d="M1270.8,805.3c0,0,8.2-109.7,144.4-92.5c0,0-6.6,128.8-142,105.9C1273.2,818.7,1268.4,817.4,1270.8,805.3z"
			/>
		<path class="st42" d="M1272,805.3c0,0,66.1-91.6,141.6-91.6c0,0-66.5,3-141.6,100.4V805.3z"/>
		<path class="st43" d="M1271.6,810.5v-19c0,0,20.5-70.4,91.1-79.5c0,0,37.8-5.7,50.9,1.7C1413.6,713.7,1343,709.6,1271.6,810.5z"/>
		<path class="st35" d="M1260.2,805.3c0,0-8.2-109.7-144.4-92.5c0,0,6.6,128.8,142,105.9C1257.8,818.7,1262.7,817.4,1260.2,805.3z"
			/>
		<path class="st42" d="M1259.1,805.3c0,0-66.1-91.6-141.6-91.6c0,0,66.5,3,141.6,100.4V805.3z"/>
		<path class="st43" d="M1259.5,810.5v-19c0,0-20.5-70.4-91.1-79.5c0,0-37.8-5.7-50.9,1.7C1117.5,713.7,1188.1,709.6,1259.5,810.5z"
			/>
		<path class="st36" d="M1160.9,442.5c0,0-33.7-17-16.9-82.6c0,0,58.7,5.6,65,52.1S1160.9,442.5,1160.9,442.5z"/>
		<path class="st37" d="M1182.1,443.6c0,0-31.8-16-32.4-50c0,0,15.8,41.5,39.4,51.1l-8.2,1.2"/>
		<path class="st37" d="M1189.9,441.7c0,0-15.5-12-12.2-30.5c0,0,4.1,24.1,15.8,31.9l-4.5-0.2"/>
		<path class="st37" d="M1200.6,436.4c0,0,1-35.5-28.6-52.3c0,0,29,33.6,26.2,58.9l5-6.6"/>
		<path class="st36" d="M1242.2,396.6c0,0-16.2-34.1,37.3-75.6c0,0,42.9,40.5,19.4,81S1242.2,396.6,1242.2,396.6z"/>
		<path class="st37" d="M1258.3,410.5c0,0-15.3-32.1,5.1-59.4c0,0-13,42.5-0.2,64.5l-7.2-4"/>
		<path class="st37" d="M1265.6,413.8c0,0-4.8-19,9.1-31.6c0,0-11.6,21.6-7.1,34.9l-3.4-3"/>
		<path class="st37" d="M1277.3,416.2c0,0,22.6-27.4,9.5-58.8c0,0,2.3,44.3-15.4,62.6l7.9-2.2"/>
		<path class="st36" d="M1323.6,425.1c0,0,10.1-36.4,77.7-32.8c0,0,6,58.7-38.3,74S1323.6,425.1,1323.6,425.1z"/>
		<path class="st37" d="M1326.7,446.1c0,0,9.4-34.3,42.7-41.6c0,0-37.6,23.6-42.4,48.6l-2.8-7.7"/>
		<path class="st37" d="M1330.1,453.3c0,0,8.8-17.5,27.6-17.9c0,0-22.9,8.7-28.2,21.8l-0.7-4.5"/>
		<path class="st37" d="M1337.4,462.8c0,0,35-6,45.6-38.3c0,0-27.2,35-52.6,37.3l7.4,3.5"/>
		<path class="st36" d="M1369.1,489.8c0,0,35.1-13.9,73,42.1c0,0-43.1,40.2-82.1,14.1S1369.1,489.8,1369.1,489.8z"/>
		<path class="st37" d="M1354.2,504.9c0,0,33-13.2,58.9,8.9c0,0-41.5-15.7-64.4-4.4l4.5-6.9"/>
		<path class="st37" d="M1350.4,512c0,0,19.3-3.6,30.9,11.1c0,0-20.8-13-34.3-9.3l3.2-3.3"/>
		<path class="st37" d="M1347.3,523.6c0,0,25.9,24.3,58.1,13.2c0,0-44.4-0.5-61.5-19.4l1.7,8.1"/>
		<path class="st36" d="M1344.2,578.8c0,0,36.4,10.2,32.7,77.7c0,0-58.7,5.9-73.9-38.4S1344.2,578.8,1344.2,578.8z"/>
		<path class="st37" d="M1323.2,581.8c0,0,34.3,9.5,41.6,42.7c0,0-23.6-37.6-48.6-42.4l7.7-2.8"/>
		<path class="st37" d="M1316,585.2c0,0,17.5,8.8,17.9,27.6c0,0-8.7-22.9-21.7-28.2l4.5-0.7"/>
		<path class="st37" d="M1306.5,592.5c0,0,5.9,35,38.3,45.7c0,0-35-27.3-37.2-52.7l-3.6,7.4"/>
		<path class="st36" d="M1276.1,630.2c0,0,12.2,35.7-45.7,70.9c0,0-38-45.1-10-82.7S1276.1,630.2,1276.1,630.2z"/>
		<path class="st37" d="M1261.7,614.7c0,0,11.5,33.6-11.8,58.4c0,0,17.7-40.7,7.6-64.1l6.7,4.8"/>
		<path class="st37" d="M1254.8,610.5c0,0,2.6,19.4-12.7,30.3c0,0,14-20.1,11-33.8l3.1,3.3"/>
		<path class="st37" d="M1243.5,606.8c0,0-25.6,24.7-16.1,57.4c0,0,2.7-44.3,22.4-60.5l-8.1,1.3"/>
		<path class="st36" d="M1181.9,601.9c0,0-16.4,34-82.3,18.3c0,0,4.6-58.8,51-65.9S1181.9,601.9,1181.9,601.9z"/>
		<path class="st37" d="M1182.6,580.7c0,0-15.4,32-49.4,33.3c0,0,41.2-16.5,50.4-40.3l1.4,8.1"/>
		<path class="st37" d="M1180.6,573c0,0-11.8,15.7-30.3,12.7c0,0,24.1-4.5,31.6-16.4l-0.1,4.5"/>
		<path class="st37" d="M1175.1,562.3c0,0-35.5-0.4-51.8,29.5c0,0,33.1-29.6,58.4-27.3l-6.7-4.8"/>
		<path class="st36" d="M1142.9,520.9c0,0-34.1,16.3-75.7-37c0,0,40.3-43.1,81-19.7S1142.9,520.9,1142.9,520.9z"/>
		<path class="st37" d="M1156.7,504.7c0,0-32,15.4-59.4-4.8c0,0,42.5,12.8,64.5,0l-4,7.2"/>
		<path class="st37" d="M1160,497.4c0,0-19,4.9-31.6-9c0,0,21.6,11.5,34.9,6.9l-2.9,3.5"/>
		<path class="st37" d="M1162.3,485.7c0,0-27.5-22.5-58.9-9.3c0,0,44.3-2.5,62.7,15.2l-2.2-7.9"/>
		<path class="st44" d="M1145.4,484c0,0-37.8,0-52.3-66.1c0,0,54.9-21.5,81.5,17.2S1145.4,484,1145.4,484z"/>
		<g class="st39">
			<path class="st37" d="M1164.8,475.4c0,0-35.5,0.1-51.5-30c0,0,32.8,29.9,58.2,27.8l-6.7,4.8"/>
			<path class="st37" d="M1170.9,470.2c0,0-19.2-3.8-24.6-21.8c0,0,14.5,19.7,28.5,21.3l-4.1,1.9"/>
			<path class="st37" d="M1178.1,460.6c0,0-15.1-32.2-49.1-33.7c0,0,41.1,16.9,50,40.7l1.4-8.1"/>
		</g>
		<path class="st44" d="M1193.1,418.5c0,0-27.1-29.5,13.9-88.3c0,0,56.2,27.4,45.2,75.9S1193.1,418.5,1193.1,418.5z"/>
		<g class="st39">
			<path class="st37" d="M1223.3,427.5c0,0-27.8-22.2-21.4-55.6c0,0,6.9,43.9,28,58.1l-8.2-0.5"/>
			<path class="st37" d="M1231.3,427.3c0,0-12.7-15-5.6-32.4c0,0-1,24.5,8.9,34.5l-4.4-1.1"/>
			<path class="st37" d="M1242.9,424.3c0,0,8.3-34.5-17.2-57c0,0,21.5,38.9,13.6,63.1l6.2-5.4"/>
		</g>
		<path class="st44" d="M1275.9,405.1c0,0,0.1-40.1,70.2-55.4c0,0,22.7,58.3-18.3,86.5S1275.9,405.1,1275.9,405.1z"/>
		<g class="st39">
			<path class="st37" d="M1286.7,426.6c0,0,3.4-35.4,34.8-48.3c0,0-33,29.7-33.3,55.2l-4.1-7.1"/>
			<path class="st37" d="M1291.3,433.2c0,0,5.6-18.8,24.1-22.4c0,0-21,12.5-24,26.3l-1.4-4.3"/>
			<path class="st37" d="M1300.1,441.3c0,0,33.5-11.9,38.3-45.6c0,0-20.8,39.2-45.4,45.8l7.9,2.2"/>
		</g>
		<path class="st44" d="M1341.8,454.8c0,0,26.7-29.8,89.3,5.4c0,0-21.9,58.6-71.3,52.3S1341.8,454.8,1341.8,454.8z"/>
		<g class="st39">
			<path class="st37" d="M1337,473c0,0,27.7-20.7,58.9-8.1c0,0-44.3-2.7-62.8,13.6l2.3-7.4"/>
			<path class="st37" d="M1335.5,480.3c0,0,17.4-8.4,32.8,1.5c0,0-23.7-5.9-35.6,1.1l2.1-3.8"/>
			<path class="st37" d="M1335.9,491.5c0,0,31.9,14.6,59.4-4c0,0-42.6,11.6-64.5-0.5l3.9,6.7"/>
		</g>
		<path class="st44" d="M1356.9,538.3c0,0,39.8-4.8,63.5,62.9c0,0-55.1,29.6-88-7.7S1356.9,538.3,1356.9,538.3z"/>
		<g class="st39">
			<path class="st37" d="M1341.7,547c0,0,34.5,3.1,49.3,33.3c0,0-31.2-31.6-55.8-31.8l6.6-4"/>
			<path class="st37" d="M1335.6,551.4c0,0,18.6,5.3,23.4,23c0,0-13.7-20.2-27.2-23l4.1-1.4"/>
			<path class="st37" d="M1328.5,560c0,0,14,32.2,46.9,36.7c0,0-39.4-19.8-47.6-43.5l-1.6,7.6"/>
		</g>
		<path class="st44" d="M1312.2,605c0,0,28.1,28.5-10.9,88.8c0,0-57.1-25.5-47.8-74.3S1312.2,605,1312.2,605z"/>
		<g class="st39">
			<path class="st37" d="M1286.8,596.2c0,0,25.6,23.2,19.2,56.3c0,0-5.8-44-25.4-59.1l7.7,0.8"/>
			<path class="st37" d="M1279.3,596c0,0,11.6,15.5,4.8,32.5c0,0,1.3-24.3-7.8-34.7l4.1,1.3"/>
			<path class="st37" d="M1268.4,598.5c0,0-8.2,34.1,15.3,57.6c0,0-19.5-39.6-11.8-63.4l-5.8,5.2"/>
		</g>
		<path class="st44" d="M1228.2,615.3c0,0,2.3,40-66.9,59.4c0,0-26-56.9,13.3-87.4S1228.2,615.3,1228.2,615.3z"/>
		<g class="st39">
			<path class="st37" d="M1217.3,595c0,0,0,34.6-28.9,52c0,0,28.7-33.8,26.8-58.4l4.5,6.2"/>
			<path class="st37" d="M1212.3,589.3c0,0-3.7,19-20.9,25.4c0,0,18.9-15.4,20.5-29.1l1.8,3.9"/>
			<path class="st37" d="M1203.2,582.9c0,0-30.8,16.8-32.4,50c0,0,16.3-41,39.2-51.3l-7.8-0.9"/>
		</g>
		<path class="st44" d="M1159.3,568.5c0,0-28.1,28.5-88.9-9.7c0,0,24.7-57.5,73.7-48.8C1193.1,518.7,1159.3,568.5,1159.3,568.5z"/>
		<g class="st39">
			<path class="st37" d="M1167.6,542c0,0-21.2,27.3-54.7,23.5c0,0,43.4-9.2,56.9-29.8l-0.2,7.7"/>
			<path class="st37" d="M1167.1,534.5c0,0-14.5,12.8-32.1,7.3c0,0,24.4-0.6,34-10.5l-1,4.2"/>
			<path class="st37" d="M1163.8,523.9c0,0-34.6-5.6-56.2,19.7c0,0,38-22.5,62.3-16.6l-5.6-5.4"/>
		</g>
		<ellipse class="st40" cx="1254" cy="511.9" rx="109.4" ry="111.1"/>
		<ellipse class="st41" cx="1254.1" cy="511.6" rx="98.2" ry="99.7"/>
		<path class="st35" d="M955.4,738.8c0,0,18,38.1,5.5,144.4c-3.9,33.5-5.9,46.4-5.9,46.4s2.2,21.6,20.8,11.1c0,0,0.3-151.8-12.4-195
			L955.4,738.8z"/>
		<path class="st36" d="M894.1,604.2c0,0-25-12.6-12.5-61.2c0,0,43.5,4.2,48.2,38.7S894.1,604.2,894.1,604.2z"/>
		<path class="st37" d="M909.8,605c0,0-23.5-11.8-24-37.1c0,0,11.7,30.8,29.2,37.9l-6,0.9"/>
		<path class="st37" d="M915.6,603.7c0,0-11.5-8.9-9-22.6c0,0,3,17.9,11.7,23.6l-3.4-0.2"/>
		<path class="st37" d="M923.6,599.7c0,0,0.8-26.3-21.2-38.8c0,0,21.5,24.9,19.5,43.7l3.7-4.9"/>
		<path class="st36" d="M954.4,570.2c0,0-12-25.3,27.7-56c0,0,31.8,30,14.4,60.1S954.4,570.2,954.4,570.2z"/>
		<path class="st37" d="M966.3,580.5c0,0-11.3-23.8,3.8-44c0,0-9.6,31.5-0.2,47.8l-5.3-3"/>
		<path class="st37" d="M971.7,582.9c0,0-3.6-14.1,6.8-23.4c0,0-8.6,16-5.2,25.9l-2.6-2.2"/>
		<path class="st37" d="M980.4,584.7c0,0,16.8-20.3,7-43.6c0,0,1.7,32.9-11.4,46.5l5.9-1.6"/>
		<path class="st36" d="M1014.7,591.3c0,0,7.5-27,57.6-24.3c0,0,4.4,43.5-28.4,54.8S1014.7,591.3,1014.7,591.3z"/>
		<path class="st37" d="M1017,606.9c0,0,7-25.4,31.6-30.8c0,0-27.9,17.5-31.4,36.1l-2.1-5.7"/>
		<path class="st37" d="M1019.5,612.3c0,0,6.5-13,20.4-13.3c0,0-17,6.5-20.9,16.1l-0.5-3.3"/>
		<path class="st37" d="M1024.9,619.3c0,0,26-4.4,33.8-28.4c0,0-20.2,26-39,27.7l5.5,2.6"/>
		<path class="st36" d="M1048.4,639.3c0,0,26-10.3,54.2,31.2c0,0-32,29.8-60.9,10.5S1048.4,639.3,1048.4,639.3z"/>
		<path class="st37" d="M1037.4,650.5c0,0,24.5-9.8,43.7,6.6c0,0-30.8-11.6-47.7-3.3l3.3-5.1"/>
		<path class="st37" d="M1034.6,655.8c0,0,14.3-2.7,22.9,8.3c0,0-15.4-9.6-25.5-6.9l2.3-2.4"/>
		<path class="st37" d="M1032.3,664.3c0,0,19.2,18,43.1,9.8c0,0-32.9-0.4-45.6-14.4l1.2,6"/>
		<path class="st36" d="M1030,705.3c0,0,27,7.5,24.2,57.6c0,0-43.5,4.4-54.8-28.5S1030,705.3,1030,705.3z"/>
		<path class="st37" d="M1014.5,707.5c0,0,25.4,7,30.8,31.7c0,0-17.5-27.9-36-31.5l5.7-2.1"/>
		<path class="st37" d="M1009.1,710c0,0,13,6.5,13.3,20.4c0,0-6.5-17-16.1-20.9l3.3-0.5"/>
		<path class="st37" d="M1002,715.4c0,0,4.4,26,28.4,33.9c0,0-26-20.2-27.6-39l-2.6,5.5"/>
		<path class="st36" d="M979.5,743.4c0,0,9,26.5-33.9,52.5c0,0-28.2-33.4-7.5-61.3S979.5,743.4,979.5,743.4z"/>
		<path class="st37" d="M968.8,731.9c0,0,8.6,24.9-8.7,43.3c0,0,13.1-30.2,5.6-47.5l5,3.6"/>
		<path class="st37" d="M963.8,728.8c0,0,2,14.4-9.4,22.5c0,0,10.3-14.9,8.1-25.1l2.3,2.5"/>
		<path class="st37" d="M955.3,726.1c0,0-19,18.3-11.9,42.5c0,0,2-32.9,16.6-44.8l-6,0.9"/>
		<path class="st36" d="M909.7,722.4c0,0-12.2,25.2-61,13.6c0,0,3.4-43.6,37.8-48.9S909.7,722.4,909.7,722.4z"/>
		<path class="st37" d="M910.2,706.7c0,0-11.4,23.7-36.6,24.7c0,0,30.6-12.2,37.4-29.9l1,6"/>
		<path class="st37" d="M908.7,701c0,0-8.7,11.6-22.5,9.4c0,0,17.8-3.3,23.4-12.1l-0.1,3.4"/>
		<path class="st37" d="M904.7,693.1c0,0-26.3-0.3-38.4,21.9c0,0,24.5-22,43.3-20.2l-5-3.6"/>
		<path class="st36" d="M880.8,662.3c0,0-25.3,12.1-56.2-27.5c0,0,29.9-31.9,60-14.6S880.8,662.3,880.8,662.3z"/>
		<path class="st37" d="M891,650.4c0,0-23.8,11.4-44-3.6c0,0,31.5,9.5,47.8,0l-3,5.3"/>
		<path class="st37" d="M893.4,645c0,0-14.1,3.6-23.4-6.7c0,0,16,8.5,25.9,5.1l-2.2,2.5"/>
		<path class="st37" d="M895.1,636.3c0,0-20.4-16.7-43.7-6.9c0,0,32.9-1.8,46.5,11.3l-1.6-5.9"/>
		<path class="st38" d="M882.6,635c0,0-28,0-38.8-49c0,0,40.7-15.9,60.5,12.7S882.6,635,882.6,635z"/>
		<g class="st39">
			<path class="st37" d="M897,628.6c0,0-26.4,0.1-38.2-22.2c0,0,24.3,22.2,43.2,20.6l-5,3.5"/>
			<path class="st37" d="M901.5,624.8c0,0-14.3-2.8-18.3-16.1c0,0,10.8,14.6,21.1,15.8l-3.1,1.4"/>
			<path class="st37" d="M906.9,617.7c0,0-11.2-23.8-36.4-25c0,0,30.5,12.5,37.1,30.2l1.1-6"/>
		</g>
		<path class="st38" d="M918,586.5c0,0-20.1-21.8,10.3-65.5c0,0,41.7,20.3,33.5,56.3S918,586.5,918,586.5z"/>
		<g class="st39">
			<path class="st37" d="M940.3,593.1c0,0-20.6-16.4-15.9-41.2c0,0,5.1,32.5,20.8,43.1l-6.1-0.3"/>
			<path class="st37" d="M946.3,593c0,0-9.4-11.1-4.2-24c0,0-0.7,18.1,6.6,25.5l-3.3-0.8"/>
			<path class="st37" d="M954.9,590.8c0,0,6.2-25.6-12.8-42.3c0,0,15.9,28.8,10,46.8l4.6-4"/>
		</g>
		<path class="st38" d="M979.4,576.5c0,0,0-29.7,52-41.1c0,0,16.8,43.2-13.6,64.1S979.4,576.5,979.4,576.5z"/>
		<g class="st39">
			<path class="st37" d="M987.4,592.5c0,0,2.5-26.2,25.8-35.8c0,0-24.4,22-24.7,40.9l-3-5.3"/>
			<path class="st37" d="M990.8,597.3c0,0,4.2-13.9,17.8-16.6c0,0-15.6,9.3-17.8,19.5l-1.1-3.2"/>
			<path class="st37" d="M997.3,603.3c0,0,24.8-8.8,28.4-33.8c0,0-15.4,29.1-33.7,34l5.9,1.7"/>
		</g>
		<path class="st38" d="M1028.2,613.3c0,0,19.8-22.1,66.2,4c0,0-16.2,43.4-52.8,38.8S1028.2,613.3,1028.2,613.3z"/>
		<g class="st39">
			<path class="st37" d="M1024.7,626.9c0,0,20.5-15.4,43.7-6c0,0-32.8-2-46.6,10.1l1.7-5.5"/>
			<path class="st37" d="M1023.5,632.3c0,0,12.9-6.3,24.3,1.1c0,0-17.6-4.4-26.4,0.8l1.5-2.8"/>
			<path class="st37" d="M1023.8,640.5c0,0,23.6,10.8,44.1-3c0,0-31.6,8.6-47.8-0.4l2.9,5"/>
		</g>
		<path class="st38" d="M1039.4,675.3c0,0,29.5-3.6,47.1,46.7c0,0-40.9,21.9-65.3-5.7S1039.4,675.3,1039.4,675.3z"/>
		<g class="st39">
			<path class="st37" d="M1028.1,681.7c0,0,25.6,2.3,36.6,24.7c0,0-23.1-23.4-41.4-23.6l4.9-2.9"/>
			<path class="st37" d="M1023.7,685c0,0,13.8,4,17.4,17.1c0,0-10.1-15-20.2-17l3-1"/>
			<path class="st37" d="M1018.3,691.3c0,0,10.4,23.8,34.8,27.2c0,0-29.3-14.7-35.3-32.2l-1.2,5.7"/>
		</g>
		<path class="st38" d="M1006.3,724.7c0,0,20.9,21.1-8.1,65.8c0,0-42.4-18.9-35.4-55.1S1006.3,724.7,1006.3,724.7z"/>
		<g class="st39">
			<path class="st37" d="M987.4,718.2c0,0,19,17.2,14.3,41.8c0,0-4.3-32.6-18.8-43.8l5.7,0.6"/>
			<path class="st37" d="M981.9,718.1c0,0,8.6,11.5,3.6,24.1c0,0,0.9-18-5.8-25.7l3,1"/>
			<path class="st37" d="M973.8,719.9c0,0-6.1,25.3,11.3,42.7c0,0-14.5-29.4-8.8-47l-4.3,3.8"/>
		</g>
		<path class="st38" d="M944,732.3c0,0,1.7,29.7-49.6,44c0,0-19.3-42.2,9.9-64.8S944,732.3,944,732.3z"/>
		<g class="st39">
			<path class="st37" d="M935.9,717.3c0,0,0,25.7-21.4,38.6c0,0,21.3-25.1,19.9-43.3l3.4,4.6"/>
			<path class="st37" d="M932.2,713.1c0,0-2.7,14.1-15.5,18.8c0,0,14-11.4,15.2-21.6l1.3,2.9"/>
			<path class="st37" d="M925.5,708.4c0,0-22.9,12.4-24.1,37c0,0,12.1-30.4,29-38l-5.7-0.7"/>
		</g>
		<path class="st38" d="M892.9,697.7c0,0-20.8,21.1-65.9-7.2c0,0,18.3-42.6,54.6-36.2S892.9,697.7,892.9,697.7z"/>
		<g class="st39">
			<path class="st37" d="M899.1,678c0,0-15.7,20.3-40.5,17.4c0,0,32.2-6.8,42.2-22.1l-0.2,5.7"/>
			<path class="st37" d="M898.7,672.5c0,0-10.7,9.5-23.7,5.4c0,0,18.1-0.5,25.2-7.8l-0.7,3.1"/>
			<path class="st37" d="M896.3,664.6c0,0-25.7-4.1-41.7,14.6c0,0,28.2-16.7,46.2-12.3l-4.1-4"/>
		</g>
		<ellipse class="st40" cx="963.1" cy="655.7" rx="81.1" ry="82.4"/>
		<ellipse class="st41" cx="963.2" cy="655.5" rx="72.8" ry="73.9"/>
		<path class="st35" d="M970.3,851.1c0,0,6.3-85,112-71.7c0,0-5.1,99.9-110.1,82.1C972.1,861.5,968.4,860.4,970.3,851.1z"/>
		<path class="st42" d="M971.2,851.1c0,0,51.2-71.1,109.8-71.1c0,0-51.6,2.4-109.8,77.8L971.2,851.1z"/>
		<path class="st43" d="M970.9,855.1v-14.7c0,0,15.9-54.6,70.6-61.6c0,0,29.3-4.5,39.4,1.3C1080.9,780,1026.2,776.9,970.9,855.1z"/>
		<path class="st35" d="M961.7,877.2c0,0-6.3-85-112-71.7c0,0,5.1,99.9,110.1,82.1C959.8,887.6,963.5,886.5,961.7,877.2z"/>
		<path class="st42" d="M960.8,877.2c0,0-51.2-71.1-109.8-71.1c0,0,51.6,2.4,109.8,77.8L960.8,877.2z"/>
		<path class="st43" d="M961,881.2v-14.7c0,0-15.9-54.6-70.6-61.6c0,0-29.3-4.5-39.5,1.3C851,806.2,905.7,803,961,881.2z"/>
	</g>
</g>
</svg>
