<?xml version="1.0" encoding="utf-8"?>
<!-- Generator: Adobe Illustrator 25.2.3, SVG Export Plug-In . SVG Version: 6.00 Build 0)  -->
<svg version="1.1" id="Layer_1" xmlns="http://www.w3.org/2000/svg" xmlns:xlink="http://www.w3.org/1999/xlink" x="0px" y="0px"
	 viewBox="0 0 1600 900" style="enable-background:new 0 0 1600 900;" xml:space="preserve">
<style type="text/css">
	.st0{fill:#FFFFFF;}
	.st1{opacity:0.5;fill:#BDE070;enable-background:new    ;}
	.st2{opacity:0.5;}
	.st3{opacity:0.6;}
	.st4{fill:#30A9E0;stroke:#001751;stroke-width:4;stroke-miterlimit:10;}
	.st5{fill:#FFFDF8;stroke:#4F4F4F;stroke-width:2;stroke-miterlimit:10;}
	.st6{fill:#EE9534;stroke:#351A00;stroke-width:3;stroke-miterlimit:10;}
	.st7{fill:#FCEB3E;stroke:#352D00;stroke-width:3;stroke-miterlimit:10;}
	.st8{fill:#5FB229;stroke:#001751;stroke-width:4;stroke-miterlimit:10;}
	.st9{fill:#984094;stroke:#280042;stroke-width:3;stroke-miterlimit:10;}
	.st10{opacity:0.3;enable-background:new    ;}
	.st11{fill:#231E13;}
	.st12{fill:#FFFBF0;}
	.st13{fill:#FF4848;stroke:#490404;stroke-width:2;stroke-miterlimit:10;}
	.st14{fill:none;}
	.st15{fill:#2E6300;}
	.st16{fill:#42A90E;}
	.st17{fill:#5BB900;}
	.st18{fill:#50CA0A;}
	.st19{fill:#71DD2A;}
	.st20{fill:#307206;}
	.st21{fill:#E5F550;}
	.st22{fill:#509B00;}
	.st23{fill:#50CA0A;stroke:#33560A;stroke-width:0.5;stroke-miterlimit:10;}
	.st24{fill:#D1CA3B;}
	.st25{fill:#510000;}
	.st26{fill:#7C0000;}
	.st27{fill:#C85A5F;}
	.st28{fill:#EB7D86;}
	.st29{fill:#99252E;}
	.st30{fill:#752A2A;}
	.st31{fill:#B28F00;}
	.st32{fill:#FCCDD1;}
	.st33{fill:#4AAA0C;}
	.st34{fill:#66D61E;}
	.st35{fill:#FCFAE6;stroke:#424015;stroke-width:0.5;stroke-miterlimit:10;}
	.st36{fill:#EFEBBD;}
	.st37{stroke:#EA6907;stroke-width:2;stroke-miterlimit:10;}
	.st38{fill:none;stroke:#33560A;stroke-width:0.5;stroke-miterlimit:10;}
</style>
<rect class="st0" width="1600" height="900"/>
<rect class="st1" width="1600" height="900"/>
<g class="st2">
	<g class="st3">
		<circle class="st4" cx="528.5" cy="156.1" r="39.1"/>
		<circle class="st4" cx="588" cy="126.3" r="39.1"/>
		<circle class="st4" cx="641.1" cy="158.1" r="39.1"/>
		<circle class="st4" cx="644.1" cy="221.8" r="39.1"/>
		<circle class="st4" cx="583.3" cy="249.8" r="39.1"/>
		<circle class="st4" cx="526.3" cy="217.1" r="39.1"/>
		<circle class="st5" cx="586.3" cy="188.9" r="69.9"/>
	</g>
	<path d="M571.3,208.9c0-0.4,0-0.8-0.1-1.2c0-0.4-0.1-0.8-0.1-1.4s-0.1-1.1-0.1-1.6c-1.2,1.6-2.8,2.9-4.6,3.6
		c-1.9,0.8-3.9,1.3-6,1.3c-3.9,0-6.9-1.3-9.1-3.8c-2.2-2.6-3.3-6.2-3.3-10.9c0-5.7,1.7-10.1,5.2-13.2c3.5-3.1,8.4-4.6,14.9-4.6
		c1,0,2,0,2.9,0.1s1.7,0.1,2.6,0.3s1.8,0.3,2.7,0.5s1.9,0.4,3,0.8v20.2c0,1.1,0,2.2,0.1,3.4s0.1,2.3,0.2,3.3
		c0.1,1.2,0.2,2.3,0.3,3.5L571.3,208.9z M569.8,185.8c-0.7-0.2-1.5-0.3-2.2-0.4c-0.7-0.1-1.3-0.1-1.9-0.1c-2.3-0.1-4.5,0.8-6.1,2.5
		c-1.5,2-2.3,4.5-2.2,7c-0.1,1.6,0.3,3.2,1.3,4.5c0.9,1.1,2.3,1.7,3.7,1.6c1,0,2-0.2,2.8-0.6c0.9-0.4,1.7-1,2.3-1.8
		c0.7-0.8,1.2-1.8,1.6-2.8c0.4-1.2,0.6-2.4,0.6-3.6V185.8z"/>
	<path d="M609.9,208.9v-17.7c0-1-0.1-2-0.5-2.9c-0.2-0.6-0.6-1.1-1.1-1.5c-0.4-0.3-0.9-0.5-1.3-0.6c-0.4-0.1-0.8-0.1-1.2-0.1
		c-0.5,0-1,0.1-1.5,0.3c-0.8,0.3-1.6,0.7-2.2,1.3c-0.9,0.9-1.5,1.9-2,3c-0.6,1.7-0.9,3.5-0.8,5.3v12.9h-9.4v-20.6
		c0-1.8-0.2-3.6-0.4-5.4c-0.2-1.5-0.6-3-1.1-4.4h9.4c0.2,0.5,0.4,1.1,0.6,1.6c0.1,0.4,0.3,1,0.4,1.8c1.4-1.4,3-2.5,4.9-3.3
		c1.7-0.7,3.5-1.1,5.3-1.1c1.4,0,2.8,0.3,4.1,0.8c1.3,0.5,2.4,1.3,3.3,2.3c1,1.1,1.7,2.3,2.2,3.7c0.6,1.6,0.8,3.2,0.8,4.9v19.6
		H609.9z"/>
</g>
<g class="st2">
	<g class="st3">
		<circle class="st6" cx="280" cy="372.3" r="33.9"/>
		<circle class="st6" cx="331.5" cy="346.5" r="33.9"/>
		<circle class="st6" cx="377.4" cy="374" r="33.9"/>
		<circle class="st6" cx="380" cy="429.1" r="33.9"/>
		<circle class="st6" cx="327.4" cy="453.4" r="33.9"/>
		<circle class="st6" cx="278.2" cy="425" r="33.9"/>
		<circle class="st5" cx="330" cy="400.7" r="60.5"/>
	</g>
	<path d="M318.3,404.5c0,2.4-0.4,4.8-1.2,7.1c-0.8,2-2,3.7-3.5,5.2c-1.6,1.4-3.4,2.5-5.4,3.2c-4.6,1.5-9.5,1.5-14.1,0
		c-2-0.7-3.9-1.8-5.4-3.2c-1.5-1.4-2.7-3.2-3.5-5.2c-0.9-2.3-1.3-4.7-1.3-7.1c0-2.4,0.4-4.7,1.2-6.9c0.8-1.9,1.9-3.7,3.5-5.1
		c1.6-1.4,3.4-2.5,5.4-3.2c4.6-1.4,9.6-1.4,14.2,0c2,0.6,3.9,1.7,5.4,3.1c1.5,1.4,2.7,3.2,3.5,5.1
		C317.9,399.7,318.4,402.1,318.3,404.5z M308.4,404.5c0.1-2-0.6-4.1-2-5.5c-1.5-1.4-3.4-2.1-5.4-2c-2-0.1-3.9,0.6-5.3,2
		c-1.3,1.5-2,3.5-1.9,5.5c-0.1,2.1,0.5,4.1,1.8,5.7c1.4,1.4,3.4,2.2,5.4,2c2,0.1,4-0.6,5.5-2C307.8,408.6,308.5,406.6,308.4,404.5z"
		/>
	<path d="M349.1,421v-18.6c0-1-0.1-2-0.5-3c-0.3-0.6-0.7-1.2-1.2-1.6c-0.4-0.3-0.9-0.6-1.4-0.6c-0.4-0.1-0.8-0.1-1.3-0.1
		c-0.5,0-1.1,0.1-1.6,0.3c-0.8,0.3-1.6,0.7-2.2,1.3c-0.9,0.9-1.6,2-2.1,3.2c-0.7,1.8-1,3.7-0.9,5.6V421h-10v-21.7
		c0-1.9-0.2-3.8-0.4-5.7c-0.2-1.6-0.6-3.1-1.2-4.6h10c0.2,0.6,0.5,1.1,0.6,1.7c0.2,0.6,0.3,1.3,0.4,1.9c1.5-1.5,3.2-2.6,5.1-3.4
		c1.8-0.7,3.7-1.1,5.6-1.1c1.5,0,3,0.3,4.4,0.9c1.3,0.6,2.5,1.4,3.5,2.4c1,1.1,1.8,2.4,2.3,3.9c0.6,1.6,0.9,3.4,0.8,5.1V421H349.1z"
		/>
</g>
<g class="st2">
	<g class="st3">
		
			<ellipse transform="matrix(0.1602 -0.9871 0.9871 0.1602 41.2859 332.1658)" class="st7" cx="215.9" cy="141.8" rx="44.3" ry="44.3"/>
		
			<ellipse transform="matrix(0.1735 -0.9848 0.9848 0.1735 127.6642 368.1814)" class="st7" cx="283.2" cy="108" rx="44.3" ry="44.3"/>
		<circle class="st7" cx="343.2" cy="144.1" r="44.3"/>
		<circle class="st7" cx="346.6" cy="216.1" r="44.3"/>
		
			<ellipse transform="matrix(0.1602 -0.9871 0.9871 0.1602 -11.3117 482.3647)" class="st7" cx="277.8" cy="247.8" rx="44.3" ry="44.3"/>
		
			<ellipse transform="matrix(0.1602 -0.9871 0.9871 0.1602 -28.7933 387.6375)" class="st7" cx="213.4" cy="210.7" rx="44.3" ry="44.3"/>
		<circle class="st5" cx="281.2" cy="178.9" r="79.1"/>
	</g>
	<path d="M250.2,201.3c0-0.5,0-0.9-0.1-1.4c0-0.4-0.1-0.9-0.1-1.5s-0.1-1.2-0.1-1.8c-1.3,1.8-3.1,3.2-5.2,4.1
		c-2.1,0.9-4.4,1.4-6.8,1.4c-4.3,0-7.7-1.4-10.1-4.3s-3.6-6.9-3.6-12.2c0-6.4,1.9-11.3,5.8-14.8c3.9-3.5,9.4-5.2,16.6-5.2
		c1.2,0,2.3,0,3.2,0.1s1.9,0.1,2.9,0.3s2,0.3,3,0.5c1,0.2,2.2,0.5,3.4,0.9v22.5c0,1.2,0,2.5,0.1,3.9s0.1,2.6,0.2,3.7
		c0.1,1.3,0.2,2.6,0.3,3.9H250.2z M248.6,175.4c-0.8-0.2-1.7-0.3-2.5-0.4c-0.8-0.1-1.5-0.1-2.1-0.1c-2.6-0.1-5.1,0.9-6.8,2.8
		c-1.6,1.9-2.4,4.5-2.4,7.8c-0.1,1.8,0.4,3.6,1.4,5.1c1,1.2,2.5,1.8,4.1,1.8c1.1,0,2.2-0.2,3.2-0.7c1-0.5,1.9-1.2,2.6-2
		c0.8-0.9,1.4-2,1.8-3.1c0.4-1.3,0.7-2.6,0.6-4V175.4z"/>
	<path d="M316.1,201.3v-17.3c0-3.1-0.4-5.3-1.3-6.5c-0.8-1.2-2.2-1.8-3.6-1.8c-0.8,0-1.6,0.2-2.4,0.6c-0.9,0.4-1.6,1.1-2.2,1.9
		c-0.7,1-1.3,2.2-1.6,3.5c-0.4,1.8-0.6,3.6-0.6,5.4v14.3h-10.6v-17.3c0-2.9-0.4-5-1.2-6.3c-0.9-1.4-2.5-2.1-4.1-2
		c-1.9,0.1-3.7,1.1-4.7,2.7c-1.3,1.8-2,4.7-2,8.6v14.3h-10.6v-21.9c0-1.3,0-2.4-0.1-3.5s-0.1-2-0.3-3c-0.1-0.9-0.3-1.8-0.6-2.7
		c-0.2-0.9-0.5-1.8-0.8-2.8h10.6c0.3,0.8,0.5,1.4,0.6,1.9s0.3,1,0.4,1.8c1.7-1.4,3.5-2.5,5.5-3.4c2.3-0.9,4.8-1.4,7.3-1.3
		c1.9,0,3.7,0.4,5.4,1.1c1.5,0.7,2.7,1.8,3.6,3.2c1.5-1.5,3.3-2.7,5.3-3.3c2.2-0.7,4.5-1.1,6.8-1.1c3.7,0,6.6,1.1,8.6,3.2
		c2,2.1,3,5.2,3,9.2v22.6L316.1,201.3z"/>
</g>
<g class="st2">
	<g class="st3">
		<circle class="st7" cx="1172.2" cy="644.6" r="44.8"/>
		<circle class="st7" cx="1240.4" cy="610.4" r="44.8"/>
		<circle class="st7" cx="1301.1" cy="646.9" r="44.8"/>
		<circle class="st7" cx="1304.5" cy="719.8" r="44.8"/>
		<circle class="st7" cx="1234.9" cy="751.8" r="44.8"/>
		<circle class="st7" cx="1169.8" cy="714.3" r="44.8"/>
		<circle class="st5" cx="1238.4" cy="682.1" r="80"/>
	</g>
	<path d="M1231.8,702.8c0-0.4,0-0.8-0.1-1.3s-0.1-0.9-0.1-1.5s-0.1-1.1-0.1-1.8c-1.3,1.7-3,3.1-5,3.9c-2,0.9-4.3,1.3-6.5,1.3
		c-4.2,0-7.4-1.4-9.8-4.1c-2.3-2.7-3.5-6.7-3.5-11.7c0-6.2,1.9-10.9,5.6-14.2s9.1-5,16-5c1.1,0,2.2,0,3.1,0.1s1.8,0.1,2.8,0.3
		s1.9,0.3,2.9,0.5s2.1,0.5,3.3,0.8v21.7c0,1.2,0,2.4,0.1,3.7s0.1,2.5,0.2,3.5c0.1,1.3,0.2,2.5,0.3,3.7L1231.8,702.8z M1230.2,678
		c-0.8-0.2-1.6-0.3-2.4-0.4c-0.7,0-1.4-0.1-2-0.1c-2.5-0.1-4.9,0.9-6.5,2.7c-1.6,1.8-2.3,4.3-2.3,7.5c-0.1,1.7,0.4,3.5,1.4,4.9
		c1,1.2,2.5,1.8,4,1.7c1.1,0,2.1-0.2,3.1-0.7c1-0.5,1.8-1.1,2.5-1.9c0.7-0.9,1.3-1.9,1.7-3c0.4-1.2,0.6-2.5,0.6-3.8L1230.2,678z"/>
	<path d="M1253.3,702.8v-26.3h-6.7v-7.2h6.7v-8.5h10v8.5h8.6v7.2h-8.6v26.3H1253.3z"/>
</g>
<g class="st2">
	<g class="st3">
		<circle class="st6" cx="1218" cy="160.2" r="50.2"/>
		<circle class="st6" cx="1294.4" cy="121.9" r="50.2"/>
		<circle class="st6" cx="1362.4" cy="162.8" r="50.2"/>
		<circle class="st6" cx="1366.3" cy="244.5" r="50.2"/>
		<circle class="st6" cx="1288.3" cy="280.5" r="50.2"/>
		<circle class="st6" cx="1215.2" cy="238.4" r="50.2"/>
		<circle class="st5" cx="1292.2" cy="202.3" r="89.6"/>
	</g>
	<path d="M1293.2,219.9c-0.4,1.3-1.2,2.5-2.3,3.3c-1.2,0.7-2.6,1.1-4,1c-1.4,0.1-2.8-0.3-4-1.1c-1.1-0.9-1.9-2.2-2.3-3.6l-7.5-22.8
		l-7.8,23.2c-0.3,1.3-1.1,2.4-2.2,3.2c-1.3,0.7-2.7,1.1-4.2,1c-0.6,0-1.2,0-1.8-0.1c-0.6-0.1-1.2-0.3-1.7-0.6
		c-0.6-0.3-1.1-0.8-1.5-1.4c-0.5-0.8-1-1.6-1.2-2.5l-12.3-34.1h11.9l5.1,15.6c0.2,0.6,0.4,1.2,0.6,2s0.4,1.5,0.7,2.3
		s0.5,1.8,0.8,2.8c0.1-0.7,0.3-1.4,0.5-2.1c0.2-0.6,0.4-1.3,0.6-2s0.4-1.4,0.6-2l4.9-16.5h14.2l5.3,17.2c0.1,0.6,0.3,1.1,0.5,1.7
		c0.2,0.6,0.4,1.2,0.6,1.8c0.2,0.6,0.4,1.3,0.5,2c0.2-0.6,0.3-1.2,0.5-1.8c0.3-1.1,0.6-2.2,1-3.3l5.2-17.6h12.3L1293.2,219.9z"/>
	<path d="M1347.5,196.2c0,1.9-0.5,3.8-1.6,5.4c-1.1,1.7-2.6,3.1-4.4,4.2c-2.1,1.2-4.4,2.1-6.8,2.7c-3,0.7-6,1-9,1c-0.3,0-0.7,0-1,0
		s-0.9,0-1.4,0c0.2,2,1.1,3.9,2.6,5.2c1.6,1.3,3.6,2,5.7,1.9c4.1,0,8.4-1.3,13-4v9.2c-2,1.2-4.1,2.1-6.4,2.8
		c-2.3,0.6-4.6,0.9-6.9,0.8c-2.7,0-5.4-0.4-8-1.3c-2.3-0.8-4.3-2.1-6-3.8c-1.7-1.7-3-3.8-3.8-6c-0.9-2.5-1.4-5.2-1.3-7.9
		c0-3,0.5-6,1.5-8.8c1-2.6,2.4-4.9,4.3-6.9c1.9-1.9,4.1-3.5,6.6-4.5c2.7-1.1,5.6-1.6,8.5-1.6c4.3,0,7.8,1.1,10.4,3.2
		C1346.2,189.9,1347.6,193,1347.5,196.2z M1335.9,197.1c0-1-0.5-1.8-1.2-2.4c-0.8-0.7-1.9-1-3-1c-1.9,0-3.7,0.7-5,2.1
		c-1.5,1.5-2.5,3.5-2.7,5.7c0.5,0.1,0.9,0.2,1.4,0.2h1.3C1332.8,201.6,1335.9,200.1,1335.9,197.1L1335.9,197.1z"/>
</g>
<g class="st2">
	<g class="st2">
		<circle class="st8" cx="874.7" cy="98.4" r="47.7"/>
		<circle class="st8" cx="947.3" cy="62" r="47.7"/>
		
			<ellipse transform="matrix(0.2898 -0.9571 0.9571 0.2898 622.1895 1040.207)" class="st8" cx="1012" cy="100.9" rx="47.7" ry="47.7"/>
		<circle class="st8" cx="1015.7" cy="178.5" r="47.7"/>
		<circle class="st8" cx="941.5" cy="212.7" r="47.7"/>
		<circle class="st8" cx="872.1" cy="172.7" r="47.7"/>
		<circle class="st5" cx="945.2" cy="138.4" r="85.2"/>
	</g>
	<path d="M944.8,158.2v-18c0-3.2-0.5-5.5-1.4-6.8c-0.9-1.2-2.3-1.9-3.8-1.9c-0.9,0-1.7,0.2-2.5,0.6c-0.9,0.5-1.7,1.1-2.3,1.9
		c-0.8,1.1-1.3,2.3-1.7,3.6c-0.4,1.9-0.7,3.8-0.6,5.7v14.9h-11v-18c0-3-0.4-5.2-1.3-6.6c-0.9-1.4-2.6-2.2-4.3-2.1
		c-2,0.1-3.8,1.1-4.9,2.8c-1.4,1.9-2.1,4.9-2.1,9v14.9h-11v-22.9c0-1.3,0-2.6-0.1-3.7c0-1.1-0.2-2.1-0.3-3.1
		c-0.1-0.9-0.3-1.9-0.6-2.8c-0.3-0.9-0.5-1.9-0.9-2.9h11l0.6,1.9c0.1,0.4,0.3,1.1,0.5,1.8c1.7-1.4,3.7-2.6,5.7-3.5
		c2.4-1,5-1.4,7.6-1.4c1.9,0,3.9,0.4,5.7,1.2c1.6,0.7,2.9,1.9,3.7,3.3c1.5-1.6,3.4-2.8,5.5-3.4c2.3-0.8,4.7-1.2,7.1-1.2
		c3.9,0,6.8,1.1,8.9,3.3s3.1,5.4,3.2,9.6v23.6L944.8,158.2z"/>
	<path d="M1000.5,131.8c0,1.8-0.5,3.6-1.5,5.1c-1.1,1.6-2.5,3-4.2,3.9c-2,1.2-4.2,2-6.5,2.5c-2.8,0.6-5.6,0.9-8.4,0.9
		c-0.3,0-0.6,0-1,0s-0.8,0-1.3,0c0.2,1.9,1.1,3.7,2.5,4.9c1.5,1.2,3.4,1.9,5.4,1.8c4.3-0.1,8.5-1.4,12.2-3.7v8.7
		c-1.9,1.1-3.9,2-6,2.6c-2.1,0.5-4.3,0.8-6.5,0.8c-2.6,0-5.1-0.4-7.5-1.3c-2.1-0.8-4.1-2-5.7-3.6c-1.6-1.6-2.8-3.5-3.6-5.6
		c-0.9-2.4-1.3-4.9-1.3-7.4c0-2.8,0.5-5.7,1.5-8.3c0.9-2.4,2.3-4.6,4.1-6.5c1.8-1.8,3.9-3.3,6.3-4.2c2.5-1,5.3-1.5,8-1.5
		c4.1,0,7.3,1,9.8,3C999.2,125.8,1000.6,128.7,1000.5,131.8z M989.5,132.6c0-0.9-0.4-1.7-1.1-2.3c-0.8-0.6-1.8-1-2.9-0.9
		c-1.8,0-3.5,0.7-4.7,1.9c-1.4,1.5-2.3,3.3-2.5,5.3c0.4,0.1,0.9,0.2,1.3,0.2h1.2C986.6,136.9,989.5,135.4,989.5,132.6L989.5,132.6z"
		/>
</g>
<g class="st2">
	<g class="st2">
		<circle class="st8" cx="464" cy="707.8" r="34.2"/>
		
			<ellipse transform="matrix(0.9239 -0.3827 0.3827 0.9239 -221.5574 249.3958)" class="st8" cx="516.1" cy="681.6" rx="34.2" ry="34.2"/>
		<circle class="st8" cx="562.5" cy="709.5" r="34.2"/>
		<circle class="st8" cx="565.2" cy="765.2" r="34.2"/>
		<circle class="st8" cx="512" cy="789.7" r="34.2"/>
		<circle class="st8" cx="462.1" cy="761" r="34.2"/>
		<circle class="st5" cx="514.6" cy="736.4" r="61.1"/>
	</g>
	<path d="M503.7,710.1c0,1.2-0.6,2.3-1.5,3c-2.2,1.6-5.2,1.6-7.4,0c-1-0.7-1.6-1.8-1.6-3c0-1.2,0.5-2.3,1.5-3
		c1.1-0.9,2.5-1.3,3.9-1.3c0.7,0,1.4,0.1,2,0.3c0.6,0.2,1.2,0.5,1.7,0.9c0.5,0.4,0.9,0.9,1.1,1.4C503.6,709,503.7,709.6,503.7,710.1
		z M493.7,747.5v-29.3h8.9v29.3H493.7z"/>
	<path d="M531.6,747.5v-16.6c0-0.9-0.1-1.8-0.4-2.7c-0.2-0.6-0.6-1.1-1-1.5c-0.4-0.3-0.8-0.5-1.3-0.6c-0.4-0.1-0.8-0.1-1.1-0.1
		c-0.5,0-0.9,0.1-1.4,0.3c-0.8,0.2-1.4,0.7-2,1.2c-0.8,0.8-1.4,1.8-1.8,2.8c-0.6,1.6-0.9,3.3-0.8,5v12.2h-8.9v-19.4
		c0-1.7-0.1-3.4-0.4-5.1c-0.2-1.4-0.5-2.8-1.1-4.1h8.9c0.2,0.5,0.4,1,0.6,1.5c0.1,0.4,0.2,1,0.4,1.7c1.3-1.3,2.9-2.4,4.6-3.1
		c1.6-0.7,3.3-1,5-1c1.3,0,2.7,0.3,3.9,0.8c1.2,0.5,2.2,1.2,3.1,2.2c0.9,1,1.6,2.2,2.1,3.4c0.5,1.5,0.8,3,0.8,4.6v18.4H531.6z"/>
</g>
<g class="st2">
	<g class="st3">
		<circle class="st4" cx="875.7" cy="710" r="33.8"/>
		<circle class="st4" cx="927.1" cy="684.2" r="33.8"/>
		<circle class="st4" cx="973" cy="711.7" r="33.8"/>
		<circle class="st4" cx="975.6" cy="766.7" r="33.8"/>
		<circle class="st4" cx="923" cy="790.9" r="33.8"/>
		<circle class="st4" cx="873.8" cy="762.6" r="33.8"/>
		<circle class="st5" cx="925.7" cy="738.3" r="60.4"/>
	</g>
	<path d="M916.8,720.7c0,1.3-0.6,2.5-1.7,3.3c-2.4,1.8-5.8,1.8-8.2,0c-1.1-0.8-1.7-2-1.8-3.4c-0.1-1.3,0.6-2.6,1.6-3.4
		c1.9-1.4,4.3-1.7,6.5-1c0.7,0.2,1.3,0.6,1.8,1c0.5,0.4,0.9,1,1.3,1.6C916.7,719.4,916.8,720,916.8,720.7z M905.8,762.1v-32.5h9.8
		v32.5L905.8,762.1z"/>
	<path d="M929.2,762.1v-25.5h-6.5v-7h6.5v-8.2h9.7v8.2h8.3v7h-8.3v25.5L929.2,762.1z"/>
</g>
<g class="st2">
	<g class="st2">
		<circle class="st9" cx="210.3" cy="594.5" r="40.9"/>
		<circle class="st9" cx="272.5" cy="563.2" r="40.9"/>
		<circle class="st9" cx="328" cy="596.5" r="40.9"/>
		<circle class="st9" cx="331.1" cy="663.1" r="40.9"/>
		<circle class="st9" cx="267.5" cy="692.4" r="40.9"/>
		<circle class="st9" cx="208" cy="658.2" r="40.9"/>
		<circle class="st5" cx="270.7" cy="628.7" r="73.1"/>
	</g>
	<path d="M248.5,650.6c-0.3-0.6-0.5-1.2-0.7-1.8c-0.2-0.7-0.3-1.4-0.4-2.1c-3,3.1-7,4.9-11.3,4.9c-1.6,0-3.3-0.3-4.8-1
		c-1.5-0.6-2.8-1.6-3.9-2.7c-1.1-1.2-2-2.6-2.5-4.1c-0.6-1.7-0.9-3.6-0.9-5.4c0-2.2,0.1-4.2,0.2-6.1s0.2-3.7,0.3-5.4s0-3.4,0-5.2
		s-0.2-3.5-0.4-5.5h10.7c0.2,1.8,0.3,3.4,0.3,5.1s0,3.2,0,4.8s-0.1,3.2-0.2,4.9s-0.1,3.4-0.1,5.3c0,1.1,0.1,2.2,0.5,3.3
		c0.5,1.3,1.6,2.2,2.9,2.4c0.5,0.1,0.9,0.1,1.4,0.1c0.6,0,1.2-0.1,1.7-0.3c0.9-0.3,1.8-0.8,2.4-1.5c0.9-1,1.7-2.1,2.1-3.4
		c0.7-1.9,1-4,0.9-6v-14.6h10.7v23.3c0,2,0.2,4.1,0.5,6.1c0.2,1.7,0.6,3.3,1.3,4.9H248.5z"/>
	<path d="M305.6,631.8c0,2.7-0.3,5.4-1.1,8c-0.7,2.3-1.7,4.4-3.2,6.3c-1.3,1.7-3,3.1-4.9,4c-3.3,1.5-7,1.9-10.5,0.9
		c-1.3-0.5-2.5-1.2-3.6-2.1v26.5h-11.2v-48.7c0-0.6,0-1.3-0.1-2s-0.2-1.6-0.3-2.5s-0.3-1.7-0.5-2.6c-0.2-0.8-0.4-1.6-0.7-2.4h10.9
		c0.2,0.5,0.4,1,0.6,1.6c0.2,0.7,0.3,1.5,0.3,2.2c1.4-1.5,3-2.8,4.9-3.7c1.7-0.8,3.6-1.2,5.5-1.1c1.9,0,3.9,0.4,5.7,1.1
		c1.7,0.7,3.2,1.8,4.4,3.2c1.3,1.4,2.2,3.1,2.8,4.9C305.3,627.5,305.6,629.6,305.6,631.8z M294.9,633.6c0.1-1.9-0.4-3.7-1.6-5.2
		c-1.1-1.2-2.7-1.9-4.4-1.8c-2-0.1-3.9,0.8-5.2,2.4c-1.3,1.8-2,4.1-1.9,6.3v4.7c1.6,1.4,3.6,2.2,5.7,2.1c2.1,0.1,4.1-0.7,5.5-2.3
		C294.4,638,295.1,635.8,294.9,633.6z"/>
</g>
<g class="st2">
	<g class="st2">
		<circle class="st9" cx="1313.5" cy="437.6" r="41.4"/>
		<circle class="st9" cx="1376.5" cy="406" r="41.4"/>
		<circle class="st9" cx="1432.8" cy="439.8" r="41.4"/>
		<circle class="st9" cx="1435.9" cy="507.2" r="41.4"/>
		<circle class="st9" cx="1371.5" cy="536.9" r="41.4"/>
		<circle class="st9" cx="1311.2" cy="502.2" r="41.4"/>
		<circle class="st5" cx="1374.7" cy="472.4" r="74"/>
	</g>
	<path d="M1359.2,449.6c0,1.4-0.7,2.8-1.9,3.6c-2.7,2-6.4,2-9.1,0c-1.2-0.9-1.9-2.3-2-3.8c-0.1-1.5,0.6-2.9,1.8-3.8
		c1.4-1.1,3-1.6,4.8-1.5c0.8,0,1.6,0.1,2.4,0.4c0.7,0.3,1.4,0.6,2,1.1c0.6,0.5,1,1.1,1.4,1.7C1359,448.1,1359.2,448.8,1359.2,449.6z
		 M1346.9,495.5v-36h10.9v36H1346.9z"/>
	<path d="M1393.4,495.5V475c0-1.1-0.1-2.3-0.5-3.3c-0.3-0.7-0.7-1.3-1.3-1.8c-0.4-0.4-1-0.6-1.6-0.7c-0.5-0.1-0.9-0.1-1.4-0.1
		c-0.6,0-1.2,0.1-1.7,0.3c-0.9,0.3-1.8,0.8-2.5,1.5c-1,1-1.8,2.2-2.3,3.5c-0.7,2-1.1,4.1-1,6.1v14.9h-10.9v-23.8
		c0-2.1-0.2-4.2-0.5-6.2c-0.2-1.7-0.7-3.4-1.3-5h10.9c0.3,0.6,0.5,1.2,0.7,1.9c0.1,0.5,0.3,1.2,0.4,2.1c1.6-1.6,3.5-2.9,5.6-3.8
		c1.9-0.8,4-1.2,6.1-1.2c1.6,0,3.3,0.3,4.8,1c1.4,0.6,2.7,1.5,3.8,2.7c1.1,1.2,2,2.7,2.5,4.2c0.6,1.8,1,3.7,0.9,5.6v22.5
		L1393.4,495.5z"/>
</g>
<rect class="st10" width="1600" height="900"/>
<path class="st11" d="M715.1,414.7c0,0-0.7-49.4-43.9-49.4c-6.5,0.1-12.9,1.2-19.1,3.1l-24.7-7l-9,1l-14,11.8l-5.1-10.6l-15.7-1.2
	c0,0-3-34.3-0.6-38.2c0,0-89.1,1.9-101.3,3.3c0,0,6.3,49.6,6.8,62.9l20.6-7.9c0,0,5.8,58-7.5,89l58.6-6.1l2.5-1.7l21.9-4.5l16,2.4
	l6.2,3.8l31.4-2.3l6.1-6.3c0,0,12.5,18.2,45.2,7.7C717.3,455.4,715.1,414.7,715.1,414.7z"/>
<path class="st12" d="M716.1,405.7c0,0-0.7-49.4-43.9-49.4c-6.5,0.1-12.9,1.2-19.1,3.1l-33.7-6l-14,11.8l-5.1-10.6l-15.7-1.2
	c0,0-3.6-39-1.2-42.9c0,0-74.7,7.7-100.8,8c0,0,6.6,47,7.1,60.3l20.3-5.3c0,0,5.8,58-7.5,89l58.6-6.1l2.5-1.7l34.1,2l3.8-4.1
	l3.1,4.3l35.7-0.3l4.9-8.9c0,0,12.5,18.2,45.2,7.7C718.3,446.4,716.1,405.7,716.1,405.7z"/>
<path class="st11" d="M725.5,334c0,0,5.8-7.3,58.5-8.4c0,0-2.1,55.6,0.5,59.7c4.8-3.8,10.5-6.4,16.5-7.7c0,0,22.1-27.1,57.3-6.6
	v-3.3l-4.3-1.8l9.2,1.4l-0.5-5l8.5-17l6-4.5l44.7,4.8l-7.1,20.6l7.1-0.3l9.9-21.3l7.2-4.3l37.8,3.4l-8.9,23.5l13.3-0.5l-1.3,6.6
	c0,0,22.1-21.8,54-6.2c0,0,14.1,7.9,38.3-6c0,0,22.6-16.6,38.9,20.4c11.9,26.9,7.1,41,7.1,41l-35.2,10.4l-23.6,27.4
	c0,0-6,4.2-20.8,10.2l-1.3-10.6c0,0-29.9,17.3-55.7-3c0,0-25.3,27-55.9,1.4c0,0-27.6,24.7-55.4-1.4c0,0-31.8,23.6-61-3.2
	c0,0-63,4-79.7,27.3C729.6,481,740.6,443.8,725.5,334z"/>
<path class="st12" d="M726.2,322.3c0,0,39.1-8.4,60-19.1c0,0-3.6,66.4-1,70.5c4.8-3.8,10.4-6.4,16.4-7.7c0,0,22.1-27.1,57.3-6.6V356
	l-4.3-1.8l1.3-7.4l7.9,2l5.4-16.1l53.3,1.1l-7.1,20.6l7.1-0.3l8.4-22l46.5-0.3l-8.9,23.5l13.3-0.5l-1.3,6.6c0,0,20.9-17.4,52.9-1.8
	c0,0,26.8-0.8,39.8-10c0,0,25.3-6.4,38.6,19.9s-1.5,44.7-1.5,44.7l-28,4l4.5,33.3c0,0-32.7,1-47.5,7l-1.3-10.6c0,0-29.9,17.3-55.7-3
	c0,0-25.3,27-55.9,1.4c0,0-27.6,24.7-55.4-1.4c0,0-31.2,24.4-58.2,0c0,0-65.6,8.8-83.8,20.6C729,465.8,741.2,432.1,726.2,322.3z"/>
<path class="st11" d="M607.8,495c0,0,9.4-2.1,10.4-2c15.7,2.2,36.6,0,46.1-2.6l7.2,12.8l11.6-15l10-2l56,4.4l-9.5,41.5
	c0,0,17.4-5.7,30.3,5.5c0,0,25.5-2.1,35.1-7.2c0,0,24.5-4.1,37.1,15c6.7-8.9,17.5-13.7,28.6-12.6c0,0,1.4-38.8-4.8-51.1
	c0,0,37.5-3.1,57.5-7.1l-2.3,59.9c0,0,24.8-9.9,46.6,8.5c0,0,12.6,11.9,12.3,35.4l-8.8,3.4c0,0,20.2,17.7,1.4,41.9
	c-15.7,20.1-52.9,4.8-52.9,4.8l-25.2,3.8l-11.4,2.3l-2.4-4c0,0-30.8,6.9-48.2-15.6l-14.7-0.5l1,10.3L770,636.4l-1-3.8
	c0,0-29.4,8.2-42-5.8l-26.8,7.9l-20.9,4l-2.3-6.8l-37.1,7.8l-14,2.9C625.9,642.6,633.4,577.7,607.8,495z"/>
<path class="st12" d="M608.8,485c0,0,41.9-0.7,56.5-4.6l7.2,12.8l11.6-15l66,2.4l-9.5,41.5c0,0,17.4-5.7,30.3,5.5
	c0,0,25.5-2.1,35.1-7.2c0,0,24.5-4.1,37.1,15c6.7-8.9,17.5-13.7,28.6-12.6c0,0,1.4-38.8-4.8-51.1c0,0,37.5-3.1,57.5-7.1l-2.3,59.9
	c0,0,24.8-9.9,46.6,8.5c0,0,12.6,11.9,12.3,35.4l-8.8,3.4c0,0,20.2,17.7,1.4,41.9c-15.7,20.1-51.4,6.1-51.4,6.1l-38.1,4.7l-2.4-4.4
	c0,0-29.3,7.3-45.3-12.9h-17.7l2.7,11.2c0,0-38.1,4.8-51.1,7.8l-0.2-3.7c0,0-29.4,8.2-42-5.8l-0.5,8.8l-47.2,3.1l-2.3-6.8l-4.3,8.7
	l-46.8,2C626.9,632.6,634.4,567.7,608.8,485z"/>
<path class="st13" d="M546.6,356.3c0,29.8,1.8,63.9,5.6,86.2c-13.9,0.5-29.1,2-29.1,2c3.3-22.2,4.4-55.8,0.7-86.7
	c-7.7,0.9-15.3,2.2-22.7,4.1c-0.3-10.3-1.3-20.6-3.1-30.7c23.5-1.3,50.7-0.7,72.3-3.4c0,0-0.2,15,0.3,29.1
	C562.5,356.2,554.5,356,546.6,356.3z"/>
<path class="st13" d="M630.3,440.8c-7.3-0.3-14.7,0.1-21.9,1.3c-1.4-7.4-3.5-14.7-6.2-21.8c-2.9,7.6-5,15.4-6.4,23.4
	c-7.3-0.7-14.6-0.9-21.9-0.5c-2.1-19-8.5-54.3-16-72.6c0,0,12.9-0.5,25.7-0.3c0,16.4,1.6,32.4,4.7,44c5.4-11.1,9.9-22.6,13.4-34.4
	c0,0,7.2,16,13.9,31.9c2.3-15.3,3.7-30.8,4.4-46.3c13.1,1,25.3,2.3,25.3,2.3C639.3,386.1,632.1,419.3,630.3,440.8z"/>
<path class="st13" d="M673.6,442.6c-9.7,0.7-25-4.1-29.1-23.9c-4.7-22.7,6.4-49.9,26.8-50c14.7-0.2,27.5,14.2,28.8,36.8
	C701.3,425.1,692.1,441.3,673.6,442.6z M671,392.9c-7,0.6-11.3,12.1-9.5,22.4c1.3,8.7,5.9,12.3,10.3,11.8c6.5-0.7,10-9.2,9.3-17.8
	C680.3,399,675.9,392.6,671,392.9z"/>
<path class="st13" d="M743.9,445.3c5.7-24.5,4.3-86-1.1-110.5c0,0,15.4-0.8,28.1-6.2c-2.5,23.4-3.3,63.3-0.3,86.3
	c9-3.6,20.3-7,31.4-7.5c-0.6,9.1-0.5,18.3,0.2,27.5C782.4,436.2,762.9,439.7,743.9,445.3z"/>
<path class="st13" d="M841.6,441.7c-13.6,1-29.1-6.7-34.3-27.5c-5.7-22.7,4.3-47.9,27-48.2c21.8-0.3,30.7,16.4,31.7,37.5
	c0,0-21.6,0.3-40.1,3.8c0.8,10.3,4.6,18.5,10,18c5.1-0.5,6.1-7.4,4.9-13.6c0,0,14.9-2,29-2.9C869.5,432.3,854.6,440.8,841.6,441.7z
	 M833.9,382.7c-3.9,0.6-6.7,5.9-7.8,13.2c5.8-0.2,11.5-0.7,17.2-1.6C842.2,387.2,838.9,382,833.9,382.7L833.9,382.7z"/>
<path class="st13" d="M895.7,442.3c-19-3.4-22.4-30.4-19.3-58.9c-3.8,0.2-6,0.3-6,0.3c0.3-7.4,1.3-14.2,1.3-14.2l6.9-0.3
	c1.4-7.9,3.3-15.8,5.6-23.5c11.1,0.2,22.4,0.6,22.4,0.6c-2.9,7-5.2,14.3-6.9,21.8l16.2-0.8c-1.1,5.9-1.7,12-1.8,18
	c-5.9-0.9-11.7-1.5-17.7-1.8c-3.4,20.5-2.5,36.5,1.1,37.8c3.6,1.5,5.6-6.5,5.4-16c11,3.8,20.9,8.3,20.9,8.3
	C921.4,435.9,909.1,444.8,895.7,442.3z"/>
<path class="st13" d="M948.2,442.3c-19-3.4-22.4-30.4-19.3-58.9c-3.8,0.2-6,0.3-6,0.3c0.3-7.4,1.3-14.2,1.3-14.2l6.9-0.3
	c1.4-7.9,3.3-15.8,5.6-23.5c11.1,0.2,22.4,0.6,22.4,0.6c-2.9,7-5.2,14.3-6.9,21.8l16.2-0.8c-1.1,5.9-1.7,12-1.8,18
	c-5.9-0.9-11.7-1.5-17.7-1.8c-3.4,20.5-2.5,36.5,1.1,37.8c3.6,1.5,5.6-6.5,5.4-16c11,3.8,20.9,8.3,20.9,8.3
	C973.8,435.9,961.6,444.8,948.2,442.3z"/>
<path class="st13" d="M1014.2,441.7c-13.6,1-29.1-6.7-34.3-27.5c-5.7-22.7,4.3-47.9,27-48.2c21.7-0.3,30.7,16.4,31.7,37.5
	c0,0-21.6,0.3-40.1,3.8c0.8,10.3,4.6,18.5,10,18c5.1-0.5,6-7.4,4.9-13.6c0,0,14.9-2,28.9-2.9
	C1042.2,432.3,1027.3,440.8,1014.2,441.7z M1006.5,382.7c-3.9,0.6-6.7,5.9-7.8,13.2c5.8-0.2,11.5-0.7,17.2-1.6
	C1014.9,387.2,1011.6,382,1006.5,382.7L1006.5,382.7z"/>
<path class="st13" d="M1080.3,404.7c0.3-9.1-1.8-15-4.9-15.7c-2.8-0.5-5.7,0.5-8.2,4.8c0.7,16.8,2.3,35.2,4.3,47.1
	c0,0-12.3-0.5-23.4,3.1c1.6-22.6,2.8-51.5-0.5-73.8c0,0,11.6-0.3,19.6-3.4c-0.2,2.6-0.3,5.6-0.3,8.7c6.2-5.7,14.9-8,21.4-6.9
	c10.8,1.8,16.4,12.4,16,30.8C1093.4,400.3,1080.3,404.7,1080.3,404.7z"/>
<path class="st13" d="M712.6,609.6c-8.8-0.3-17.5,0.3-26.2,1.8c0,0-0.8-23.2-7.7-41.4c-8,21.1-10,43.7-10,43.7
	c-8.2-1.4-16.4-2-24.7-1.6c-1.1-34.5-8-81.6-16.3-110.2c10.5,0,21-0.8,31.4-2.3c-0.7,22.3,0.2,44.7,2.8,66.9
	c5.6-13.2,11.8-30.4,14.9-43c4.3,14.4,10.5,31.6,18.5,44.7c2.9-22.6,2.9-54.1,1.5-72.5c0,0,15.4,0.7,31.2,1.5
	C720.8,524.1,714.4,567.7,712.6,609.6z"/>
<path class="st13" d="M752,611.1c-9.7,0.7-25-4.1-29.1-23.9c-4.7-22.7,6.4-49.9,26.8-50c14.7-0.2,27.5,14.2,28.8,36.8
	C779.7,593.6,770.5,609.8,752,611.1z M749.4,561.4c-7,0.7-11.3,12.1-9.5,22.4c1.3,8.7,5.9,12.3,10.3,11.8c6.5-0.7,10-9.2,9.3-17.8
	C758.7,567.4,754.3,561,749.4,561.4L749.4,561.4z"/>
<path class="st13" d="M814.5,573.1c0.3-9.2-1.8-15-4.9-15.7c-2.8-0.5-5.7,0.5-8.2,4.7c0.7,16.8,2.3,35.2,4.3,47.1
	c0,0-12.3-0.5-23.4,3.1c1.6-22.6,2.8-51.5-0.5-73.8c0,0,11.6-0.3,19.6-3.4c-0.2,2.6-0.3,5.6-0.3,8.7c6.2-5.7,14.9-8,21.4-6.9
	c10.8,1.8,16.3,12.4,16,30.7C827.6,568.7,814.5,573.1,814.5,573.1z"/>
<path class="st13" d="M908.9,609.4c-6-1-21.9,1.8-21.9,1.8c0.5-3.3,0.9-6.7,1-10c-4.8,4.1-10.9,6.3-17.2,6.4
	c-15.9,0.3-28.1-11-28.5-29.9c-0.3-15.9,8.2-38.4,27.5-39.6c7.4-0.3,14.5,2.8,19.3,8.5c-0.5-22.6-2.1-45.1-4.6-62
	c12.8-0.7,27-4.3,27-4.3C908,509,904.9,576.4,908.9,609.4z M878.4,561.7c-7.2-1.3-14.9,5.4-15.9,14.9c-0.7,7.5,4.9,12.6,11,12.1
	c6.4-0.3,11.1-4.4,12.6-12.8C887.4,568.7,885,562.8,878.4,561.7z"/>
<path class="st13" d="M943.2,611.1c-11.6-0.2-21.9-4.1-30.6-15.7c4.3-6.1,9.3-11.8,14.7-17c5.6,11.3,15.5,14.1,18,11.1
	c2-2.5,0.7-6.7-10-11.3c-9.6-4.1-18.2-10.1-18.6-20.9c-0.5-8.7,4.9-20.1,22.1-20.9c18.5-0.8,27.5,11.9,31.4,24.5
	c-7.3,0.9-14.5,3-21.1,6.2c-4.9-12.8-12.9-12.3-12.3-7.2c2,13.7,34,11,33.5,32C970,604.5,957.9,611.2,943.2,611.1z"/>
<rect class="st14" width="1600" height="900"/>
<path class="st15" d="M532.5,668.8c7,0,15.9-3.8,21.5-9.3c5.3-5.2,4.9-7.8,4.3-8.9c-1-1.7-4-1.8-6.2-0.8l0.1,0.2
	c2.2-0.9,5-0.9,6,0.7c0.6,1,0.9,3.5-4.3,8.6c-6.2,6.2-16.6,10.1-23.8,9c-2.8-0.4-4.9-1.7-5.9-3.5l-0.2,0.1c1.1,2,3.2,3.2,6.1,3.7
	C530.8,668.7,531.6,668.8,532.5,668.8z"/>
<path class="st16" d="M523.9,664.9c4,7.1,20.8,3.5,29.9-5.5s2.7-11.5-1.8-9.5"/>
<path class="st17" d="M577,671.2c0,0-2.4,0.1-1.4,3.4c-3.9-2.4-15.1-1.4-18.8-5.7C564.3,666.5,570.3,671.4,577,671.2z"/>
<path class="st15" d="M575.6,674.7c-1.6-1-4.5-1.4-7.5-1.8c-4.3-0.6-9.1-1.3-11.3-3.8l-0.1-0.1l0.2-0.1c1.4-0.5,2.9-0.7,4.4-0.7
	c2.7,0.1,5.4,0.6,7.9,1.5c2.6,0.9,5.3,1.4,8,1.5v0.3c-0.5,0-0.9,0.3-1.2,0.7c-0.4,0.8-0.4,1.7,0,2.5l0.1,0.3L575.6,674.7z
	 M569,669.9c-2.5-0.9-5.2-1.4-7.8-1.5c-1.4,0-2.8,0.2-4.2,0.6c2.2,2.3,6.9,3,11,3.6c2.9,0.4,5.7,0.8,7.4,1.7
	c-0.3-0.8-0.2-1.7,0.2-2.5c0.1-0.2,0.3-0.4,0.6-0.5C573.7,671.1,571.3,670.6,569,669.9z"/>
<path class="st16" d="M555.3,654.5c-4.6,6-4.5,6.3-10.3,10.2c-2.3,1.6-4.8,2.7-7.5,3.3c-1.9,0.3-6,2-4.5,5.2c1.7,4,7.3,0.4,9.6-1.1
	c1.7-1.1,3.6-1.6,5.6-1.6c2,0.2,4,0.8,5.9,1.6c2.7,1.1,8.6,3.5,12.4,6.3s9.8,4.2,11.4,0.6c1-2.3-0.5-5-5.1-6.2
	c-4-1.1-10.3-1.6-14.6-3.6c4.5-0.8,8.8,0.8,11.7,1.7s6.8,1.5,9,0.8c3.4-1.2,2.4-7.5-4.8-7.5c-7.1,0-17.3,1.2-18.7-0.4
	c15.5-13.3,3.8-18.9-3.5-13.7"/>
<path class="st18" d="M547.1,666c1.8-1.2,3.4-2.4,5-3.8c3.5-3.4,4.5-6.2,5.3-10.1c0.8-3.5,2-3.8,2.9-3.5c4,1.3,5,6.8-4.8,15.2
	c1.4,1.6,11.6,0.4,18.7,0.4c4.1,0,6.2,2,6.7,4c0.2,0.8-0.9,2.1-3.3,2.3c-2.4,0-4.8-0.3-7.1-1.1c-2.9-0.9-7.5-1-12-0.2
	c4.3,2,10.5,2.5,14.6,3.6c3.5,0.9,5.2,2.7,5.4,4.5c0.2,1.2-0.8,2.3-3.1,2.3c-2.4,0-6.3-2.2-8.3-3.6c-3.8-2.8-10.1-5-12.8-6.1
	c-2-0.8-4.1-1.1-6.2-1.1c-0.8,0.1-1.6-0.5-1.7-1.3C546.2,666.9,546.6,666.3,547.1,666z"/>
<path class="st19" d="M572.1,673.6c1.8,0.2,3.4,0.9,4.9,1.9c1.4,1.3-0.2,1.7-1.3,1c-1.3-0.9-2.6-1.8-4-2.6
	C571.3,673.7,571.2,673.4,572.1,673.6z"/>
<path class="st19" d="M574.3,665.1c1.3-0.1,2.7,0.1,3.9,0.7c1.3,0.8,0.1,1.3-0.8,0.9c-1.1-0.5-2.2-0.9-3.3-1.3
	C573.8,665.3,573.7,665.1,574.3,665.1z"/>
<path class="st15" d="M574,681.3c0.5,0,1.1-0.1,1.6-0.2c1.1-0.3,2-1,2.5-2c0.4-0.9,0.4-1.9,0-2.8c-0.7-1.6-2.5-2.8-5.2-3.5
	c-1.4-0.4-3-0.7-4.7-1c-3.2-0.5-6.4-1.3-9.4-2.4c4-0.6,7.8,0.7,10.6,1.6l0.6,0.2c2.7,0.9,6.7,1.6,9.1,0.8c1.4-0.5,2.2-1.9,1.9-3.4
	c-0.3-2.2-2.5-4.3-6.8-4.3c-2.1,0-4.6,0.1-6.9,0.2c-5.1,0.2-10.4,0.5-11.5-0.5c9.2-7.9,7.9-12.2,6.8-13.7c-1.9-2.7-6.8-2.8-10.6-0.2
	l0.1,0.2c3.6-2.5,8.5-2.4,10.3,0.2c2,2.9-0.6,8-6.9,13.4l-0.1,0.1l0.1,0.1c1,1.2,6.3,0.9,11.8,0.7c2.3-0.1,4.8-0.2,6.9-0.2
	c4.1,0,6.3,2.1,6.6,4.1c0.3,1.3-0.5,2.7-1.8,3.1c-2.3,0.8-6.3,0.1-8.9-0.8l-0.6-0.2c-2.9-1-6.9-2.3-11.1-1.5l-0.4,0.1l0.4,0.2
	c2.8,1.3,6.6,2,9.9,2.6c1.7,0.3,3.3,0.6,4.7,1c2.6,0.7,4.4,1.9,5,3.4c0.4,0.8,0.4,1.8,0,2.6c-0.4,1-1.3,1.7-2.3,1.9
	c-2.4,0.7-6-0.4-8.9-2.5c-3.8-2.8-9.6-5.1-12.4-6.3h-0.1c-1.9-0.8-3.9-1.4-5.9-1.6c-2-0.1-4,0.5-5.6,1.6c-1.8,1.1-5.4,3.5-7.8,2.8
	c-1.5-0.6-2.3-2.3-1.7-3.9c0,0,0,0,0,0c0.8-1.6,3.3-2.5,4.5-2.7c2.7-0.6,5.3-1.7,7.6-3.3c5-3.5,5.4-3.9,8.7-8.1
	c0.5-0.6,1.5-2.3,1.5-2.3c-0.7,0.8-1.2,1.5-1.7,2.1c-3.4,4.2-3.7,4.6-8.6,8c-2.3,1.6-4.8,2.7-7.5,3.2c-1.3,0.3-3.8,1.1-4.7,2.8
	c-0.7,1.7,0.1,3.6,1.8,4.3c0,0,0,0,0,0c2.5,0.8,6.2-1.6,8-2.8c1.6-1.1,3.6-1.6,5.5-1.5c2,0.2,4,0.8,5.9,1.6h0.1
	c2.8,1.1,8.5,3.4,12.3,6.2C568.6,680.2,571.3,681.1,574,681.3z"/>
<path class="st20" d="M559.6,648.5c0,0-1.3,0.1-2,2.8s-1.3,6.8-5.3,10.7s-5.1,3.4-6.1,4.9s-7.4,0.4-9,1.1s-3.9,1-4.7,0.7
	s3.4-10.9,3.6-10.9s19.3-9.1,19.3-9.1C556.7,648.2,558.2,648.1,559.6,648.5z"/>
<path class="st21" d="M562.9,651.6c-1,0-2.1,0.3-2.9,1c-1.4,1.3-1.5,3.5-0.2,4.9c0.2,0.3,0.5,0.5,0.8,0.7
	C560.7,658.1,563.7,654.9,562.9,651.6z"/>
<circle class="st21" cx="554.3" cy="661.9" r="1.1"/>
<path class="st22" d="M564.3,684c0,0-6-0.4-4.7,5.6c-2.7-2.7-9.4-6.7-12.7-11.9c4.3,0.9,7.5,1.8,10.7,3.6
	C559.7,682.5,561.9,683.4,564.3,684z"/>
<path class="st17" d="M560.8,685c-1.1,0.8-1.8,2.2-1.3,4.7c-2.2-2.2-7.1-5.3-10.7-9.2C553.1,680.4,556.8,683.4,560.8,685z"/>
<path class="st15" d="M559.5,689.8c-1.1-1.1-2.3-2.1-3.6-3c-3.1-2.4-6.9-5.4-9.1-9l-0.2-0.3l0.3,0.1c4.1,0.9,7.5,1.7,10.8,3.6
	c2.1,1.2,4.3,2.1,6.7,2.7v0.3h-0.2c-1.5-0.1-2.9,0.5-3.9,1.6c-0.7,1.1-0.9,2.6-0.5,3.9l0.1,0.4L559.5,689.8z M557.5,681.4
	c-3.2-1.8-6.4-2.6-10.4-3.5c2.3,3.4,5.9,6.3,8.9,8.6c1.3,1,2.5,2,3.4,2.8c-0.3-1.3-0.1-2.6,0.7-3.7c0.9-1,2.1-1.6,3.5-1.7
	C561.3,683.3,559.4,682.5,557.5,681.4L557.5,681.4z"/>
<path class="st16" d="M544.4,655.4c0.9,2.9,1.9,15.5,2,17.2c3.4,2.2,7.2,3.5,11.2,3.9c4.7,0.5,4.9-0.1,8.5,0.7s4.2,3.8,3.1,5.7
	s-3.9,2.7-8,1.2s-5.9-4.1-13.3-5.2c2.8,3.1,5.9,5.9,9.4,8.2c7.6,5.3,2.9,11.2-2.5,8.5c-2.9-1.5-5.7-6.2-6.9-8.9
	c-1.3-3-4.8-8.6-8-8.8s-6.2,3.6-10.5,3.1s-5-3.8-3.4-5.4s6.9-0.7,9-2.1s3.7-4.6,3.7-13.8"/>
<path class="st18" d="M535,675.9c-1.8,3.3-5.9,4.2-9.2,2.8c-0.6-1.1-0.5-2.4,0.4-3.3c1.3-1.3,4.9-0.9,7.3-1.5
	c0.7-0.1,1.4,0.4,1.6,1.1C535.2,675.3,535.1,675.6,535,675.9z"/>
<path class="st18" d="M552.4,690.8c-2.1-2.4-4.3-8.6-8.1-12.5c-0.9-1.2-2.1-2.2-3.4-2.9c-1.5-0.7-2.4-2.3-2.1-4c0.4-2.8,1-5.5,2-8.1
	c0.6-1.7,2.6-4.5,4.4-4.3c0.7,4.8,1.3,12.2,1.3,13.5c3.4,2.2,7.2,3.5,11.2,3.9c4.7,0.5,4.9-0.1,8.5,0.7s4.2,3.8,3.1,5.7
	s-3.8,1-7.8-0.5s-7.7-4.6-15.1-5.7c0.1,0.1,1.9,2.4,2,2.5c2.7,3,5.8,5.6,9.1,7.9c3,2.1,4.1,4.2,4,5.9
	C560.4,696.2,554.5,693.2,552.4,690.8z"/>
<path class="st19" d="M556,686.6c1.3,0.8,3.4,2.3,4.3,4.1s-0.9,1.6-1.7,0.4c-0.9-1.5-2-2.9-3.1-4.3
	C555.3,686.5,555.3,686.2,556,686.6z"/>
<path class="st19" d="M562.5,677.7c1.9-0.2,3.7,0.1,5.4,0.9c1.8,1.1,0.1,1.8-1.2,1.3c-1.4-0.6-2.9-1.2-4.4-1.7
	C561.9,678.1,561.6,677.7,562.5,677.7z"/>
<path class="st15" d="M557.7,696.3c1.4,0.1,2.8-0.7,3.5-1.9c0.9-1.7,0.5-4.6-3.6-7.5c-3.4-2.2-6.4-4.9-9.1-7.9
	c3.3,0.5,6.5,1.6,9.3,3.4c1.1,0.7,2.3,1.3,3.6,1.8c4.4,1.7,7.1,0.5,8.1-1.2c0.6-1,0.7-2.2,0.3-3.3c-0.6-1.4-1.9-2.3-3.4-2.6
	c-1.4-0.3-2.8-0.5-4.3-0.5c-1.4,0-2.9-0.1-4.3-0.2c-4-0.4-7.8-1.7-11.1-3.8c-0.1-1.9-1.1-14.3-2-17.2l-0.2,0.1
	c0.9,2.9,1.9,15.5,2,17.2v0.1h0.1c3.4,2.2,7.3,3.5,11.3,3.9c1.4,0.2,2.9,0.2,4.3,0.2c1.4,0,2.8,0.1,4.2,0.5c1.4,0.2,2.6,1.1,3.2,2.4
	c0.4,1,0.3,2.1-0.2,3c-1.2,2-4.3,2.5-7.8,1.1c-1.2-0.5-2.4-1.1-3.5-1.8c-3-1.8-6.3-3-9.8-3.5h-0.3l0.2,0.3c2.8,3.1,5.9,5.9,9.4,8.2
	c4,2.8,4.4,5.6,3.6,7.2s-3.2,2.5-5.9,1.1s-5.6-6.1-6.8-8.8c-1.4-3.3-4.9-8.7-8.1-8.9c-1.6,0.1-3.1,0.6-4.4,1.4
	c-1.8,1-3.8,1.9-6.1,1.7c-2.1-0.3-3.5-1.2-4-2.6c-0.3-0.9,0-1.9,0.6-2.6c0.8-0.8,2.6-1,4.4-1.1s3.5-0.3,4.5-1
	c1.9-1.3,3.8-4,3.8-13.9h-0.2c0,9.9-2,12.5-3.7,13.7c-1,0.7-2.7,0.8-4.4,1c-1.9,0.2-3.7,0.3-4.5,1.2c-0.8,0.7-1,1.9-0.7,2.9
	c0.5,1.5,2,2.5,4.2,2.8c2.4,0.3,4.4-0.8,6.2-1.7c1.3-0.8,2.8-1.3,4.3-1.4c3.2,0.2,6.7,6,7.9,8.8c1,2.4,3.8,7.3,6.9,8.9
	C555.7,696,556.7,696.3,557.7,696.3z"/>
<path class="st15" d="M548,678.9l0.2-0.2c-1-1.1-1.9-2.4-2.7-3.7c0.3,0.8,0.7,1.6,1.2,2.4C547.1,677.9,547.5,678.4,548,678.9z"/>
<path class="st16" d="M525.3,602.8c-2.7-10-14.2-18.8-30.1,7.7c0,0-5.7-0.1-7.8,3c-1.8-0.5-5.2,1.5-6.6,5.1s-1.9,7.7-4.1,10
	c-11.4,11.2-20.2,17.9-18.3,32.9c2.5,17.3,38,20,61.5,13c23.5-7,38.6-23.6,42.5-38.2c4.2-0.2,8.6-9.6,0.9-12.7
	c0.6-2.5,0-5.9-1.5-6.6c3.4-10.4-1.1-22.1-10.5-22.1c-6.3,0-8.5,6.2-10.1,8.3c-1.3,0.4-1.5-1.5-8.5-1.7
	C530,601.5,527.6,601.9,525.3,602.8z"/>
<path class="st23" d="M525.6,602.7c-3.7-9.9-13.6-19.3-30.5,7.9c-2.9-0.2-5.8,0.9-7.8,3c-1.8-0.5-5.7,1.6-7.3,5.6
	c-1.5,3.7-1.9,7.7-4.1,10c-11.4,11.2-19.6,16.1-15.2,29.9s22.8,12.6,52.9,1c23-8.8,39.4-10.6,43.4-25.2c10.7,4.8,14.1-8.4,6.2-11.1
	c0.5-0.9,0.3-5.8-1.2-6.5c4.7-21.8-9.5-24.7-15.3-20.9c-3.1,2-3.9,4.8-5.5,6.8c-0.3,0-1.3-1.8-8.5-1.7
	C528.6,601.6,526.5,602.2,525.6,602.7z"/>
<path class="st24" d="M456.5,662.8c5.8,16.2,41,18.4,63.2,11.8c23.6-7,38.6-23.6,42.5-38.2c1.9-0.1,3.5-1.4,4.1-3.2
	c0.7-2.9-1.9-6.6-4.1-2.1c-2.8,1-7.6,5.4-10,5.6s-8.4-3.3-12.4-3.7s-15.8,2.6-21.6,1.5s-21.6-13.3-28.9-13.7
	c0.9-3.2-3.1-6.3-6.5-2.4c-3.8,4.4-5.3,16.4,1.9,25c3.6,4.3,8.4,4.9,9.6,9.9C498.4,669.5,462.1,676.3,456.5,662.8z"/>
<path class="st21" d="M482.4,619.1c0.7-0.5,1.6-0.5,2.2,0.2c0.1,0.1,0.1,0.2,0.2,0.3c1.2,1.3,0.2,4.6,0.7,4.6
	c7.5-2.6,17.2,6.7,23,12.9c3.8,4.1,5.7,8.9,9.5,12.8c6.6,6.8,16.5,5.6,22.5,2.7c4.1-2,3.5-7.4,7.2-11.1c1.5-1.5,3.3-1.1,6.8-2.7
	c3-1.4,5.8-5.7,8.9-7.3c1.2-0.5,3.1-1,3,0.9c0,0.2-0.1,0.5-0.1,0.7c-0.5,1.8-2.2,3.1-4.1,3.2c-2.3,8.3-8.1,17.3-17.1,24.8
	c-6.2,4.9-17.1,8.9-24.3,10c-12.6,1.9-25.9-0.9-29.9-7.6c3-2.7,4.5-6.2,3.5-10.3c-1.2-5-6-5.6-9.6-9.9
	C477.9,635.2,479,623.9,482.4,619.1z"/>
<path class="st25" d="M502.7,627.8c8.9,6.4,14.1,16.7,18,20.4c2,1.8,4.5,3,7.2,3.3c4.9,0.9,10.2,0,12.5-1.8
	c3.5-2.9,1.7-8.6,10.8-12.8c0,0-6.1-2.9-9.3-4.1c-1.2-0.4-2.5-0.7-3.7-0.8c-3.8-0.1-7.5,0.1-11.2,0.8
	C519.7,634,516.3,633.5,502.7,627.8z"/>
<path class="st26" d="M527.9,651.5c4.9,0.9,10.2,0,12.5-1.8c3.5-2.9,1.7-8.6,10.8-12.8c0,0-6.1-2.9-9.3-4.1
	c-1.2-0.4-2.5-0.7-3.7-0.8C539.9,640.4,533.4,647.7,527.9,651.5z"/>
<path class="st27" d="M516,642.3c1.4,2.1,3,4,4.7,5.9c4.4,4.2,13.1,4.5,17.8,2.6l0,0c2.8-1.4,4.7-5.7,1.9-8.5s-7.3-2.8-9.4-0.7
	C523.7,636.7,516.3,639.4,516,642.3z"/>
<path class="st28" d="M527.2,649.3c-3.5-1.4-8-4.1-5.8-7.7c1.9-3.1,8.1-1.5,11,1.3c0.6-1.9,2.8-2.9,5-2.4c1.1,0.4,2.1,1,2.9,1.8
	c0.7,0.6,1.1,1.5,1.3,2.3C542.1,649.3,534.2,652,527.2,649.3z"/>
<path class="st29" d="M531.9,652c-4.7,0-8.8-1.4-11.3-3.7c-1.7-1.8-3.2-3.8-4.6-5.8l-0.1-0.1v0c0.2-1.7,2.8-3.5,6.7-3.5
	c3,0,5.9,1,8.3,2.8c1.1-1,2.6-1.5,4.2-1.5c2,0,4,0.8,5.4,2.2c1.1,1,1.5,2.5,1.3,4c-0.3,2-1.5,3.7-3.3,4.7l0,0
	C536.4,651.6,534.2,652,531.9,652L531.9,652z M541.5,646.2c0.2-1.4-0.2-2.8-1.2-3.8c-1.4-1.4-3.3-2.2-5.2-2.2c-1.5,0-3,0.5-4,1.5
	l-0.1,0.1l-0.1-0.1c-2.4-1.8-5.3-2.7-8.3-2.8c-3.7,0-6.2,1.7-6.5,3.3v0.1c1.4,2,2.9,4,4.6,5.8c2.4,2.3,6.5,3.7,11.2,3.7l0,0
	c2.2,0,4.4-0.3,6.5-1.1l0,0C540,649.7,541.2,648.1,541.5,646.2L541.5,646.2z"/>
<path class="st30" d="M534.2,646.4c0-0.7-0.1-1.3-0.5-1.9c-0.6-1.2-1.6-2.2-2.7-3l-0.1,0.2C532.5,642.9,533.7,644.6,534.2,646.4z"/>
<path class="st31" d="M520.6,648.3c-1.7-1.8-3.2-3.7-4.6-5.8c-3.4-4.6-7.6-10.4-13.4-14.6l-0.9-0.6l1,0.4c10.3,4.3,14.6,5.5,19,5.5
	c1.7,0,3.5-0.2,5.2-0.5c3.1-0.5,6.2-0.8,9.3-0.9c1.9-0.1,3.9,0.2,5.7,0.8c3.1,1.2,9.2,4.1,9.3,4.1l0.3,0.1l-0.3,0.1
	c-5.8,2.7-7.1,5.9-8.2,8.7c-0.5,1.6-1.4,3-2.5,4.1c-1.7,1.4-4.9,2.2-8.5,2.2l0,0C527.2,652,523.1,650.7,520.6,648.3z M541.9,632.9
	c-1.8-0.6-3.7-0.9-5.6-0.8c-3.1,0.1-6.2,0.4-9.3,0.9c-1.7,0.3-3.5,0.5-5.2,0.5c-4.3,0-8.5-1.2-18.1-5.2c5.4,4.2,9.4,9.6,12.6,14
	c1.4,2,2.9,3.9,4.6,5.7c2.4,2.3,6.5,3.7,11.2,3.7c3.5,0,6.8-0.8,8.4-2.2c1.2-1.1,2-2.5,2.5-4c1.3-3.9,4.3-7.1,8.1-8.7
	C549.7,636.3,544.6,634,541.9,632.9z"/>
<path class="st32" d="M533.5,645.4c-0.6-1.5-1.7-2.7-3.2-3.3c-0.4-0.2-0.8-0.1-0.5,0c1.5,1.1,2.7,2.4,3.6,3.9
	C533.7,646.5,533.7,645.9,533.5,645.4z"/>
<path class="st32" d="M541.1,645.4c-0.1-2.3-1.9-4.2-4.2-4.3c-0.4,0-0.5,0.1-0.2,0.2c2,0.6,3.6,2.3,4.1,4.3
	C541,646.2,541.1,645.8,541.1,645.4z"/>
<path class="st31" d="M470.3,674.5c-7.3-2.7-12.1-6.7-13.9-11.7l0.2-0.1c1.8,4.5,7.5,7.1,15.1,7.1c8.7,0,17.3-3.5,21-8.4
	c1.8-2.3,2.4-5.3,1.7-8.1c-0.7-3-2.7-4.4-5-6c-1.7-1.1-3.2-2.4-4.5-3.8c-7.1-8.4-5.9-20.5-1.9-25.1c0.8-1.1,2.1-1.8,3.5-1.9
	c1.1,0,2.1,0.5,2.7,1.4c0.6,0.8,0.8,1.8,0.5,2.8c4.1,0.3,10.9,4.3,17,7.8c4.8,2.8,9.3,5.4,11.8,5.9c1,0.2,2,0.2,3,0.2
	c3.5-0.1,7.1-0.4,10.5-1c2.4-0.4,4.8-0.6,7.2-0.8c0.3,0,0.6,0,0.8,0c2.4,0.4,4.8,1.2,7,2.2c2.2,0.8,4.2,1.6,5.3,1.5
	c1.3-0.1,3.4-1.5,5.5-2.9c1.4-1,2.9-1.9,4.4-2.6c0.9-1.8,1.7-2.1,2.3-2.1c0.6,0,1.1,0.3,1.4,0.8c0.7,1,0.9,2.3,0.6,3.5
	c-0.6,1.8-2.2,3.2-4.1,3.3c-2.1,7.5-7,15.3-13.9,21.9c-8.1,7.6-18,13.2-28.7,16.3c-8.3,2.4-16.9,3.5-25.6,3.5
	C485,678.2,476.8,676.9,470.3,674.5z M562.3,631.1L562.3,631.1L562.3,631.1c-1.6,0.8-3.1,1.7-4.5,2.7c-2.1,1.4-4.2,2.9-5.6,3
	c-1.2,0.1-3.1-0.7-5.4-1.6c-2.2-1-4.6-1.7-7-2.1c-0.2,0-0.5,0-0.8,0c-2.4,0.1-4.8,0.4-7.2,0.8c-3.5,0.6-7,0.9-10.6,1
	c-1,0-2-0.1-3-0.2c-2.6-0.5-7.1-3.1-11.9-5.9c-6.1-3.6-13-7.6-17-7.8h-0.2l0-0.2c0.3-0.9,0.1-2-0.5-2.8c-0.6-0.8-1.5-1.3-2.5-1.3
	c-1.3,0-2.6,0.7-3.4,1.8c-3.9,4.6-5.1,16.5,1.9,24.8c1.3,1.5,2.8,2.7,4.5,3.8c2.4,1.6,4.4,3.1,5.1,6.1c0.7,2.9,0.1,6-1.7,8.3
	c-3.7,5-12.4,8.5-21.2,8.5l0,0c-6.4,0-11.4-1.9-14-5.1c2.3,3.9,6.6,7.1,12.7,9.3c6.5,2.4,14.7,3.6,23.8,3.6c8.6,0,17.2-1.1,25.5-3.5
	c24.1-7.2,38.7-24.3,42.5-38.1v-0.1h0.1c1.9-0.1,3.5-1.4,4-3.1c0.3-1.1,0.1-2.3-0.5-3.3c-0.3-0.4-0.7-0.7-1.2-0.7
	C563.9,629.1,563.2,629.5,562.3,631.1z"/>
<path class="st18" d="M562.3,631.1c-3.9,1-6.8,7-11.1,6.7s-7.5-3.7-13.1-4s-14.5,3.6-21.8,2c-10.1-2.2-19.5-13.6-27-14.9
	c0,0,33.4-0.3,46.7,1.8S562.3,631.1,562.3,631.1z"/>
<path class="st33" d="M562.2,631c-1.3,0.4-2.6,1.2-3.6,2.2c-2.1,1.9-4.3,4.1-6.3,4.4c-1.2,0.1-2.4,0-3.5-0.4
	c-0.7-0.2-3.6-1.5-4.3-1.8c-1.5-0.7-3-1.2-4.6-1.5c-1.7-0.3-2.7-0.5-6.5,0.1s-5.9,1.3-8.6,1.6c-2.6,0.5-5.2,0.5-7.7,0.2
	c-3.4-0.5-7-2.5-9.5-4s-7.2-5-8.3-5.8c-2-1.5-4.2-2.8-6.4-4c-1.7-0.7-3.1-1.1-3.1-1.1c1-0.4,2-0.6,3.1-0.5c1.7,0.1,3.6,3.6,13.5,9.5
	s15.1,5.3,17.4,4.7s8.4-2.3,14.4-2s9,3.2,12.2,4c2.9,0.8,7-3.5,7-3.5S560.6,629.4,562.2,631z"/>
<path class="st15" d="M551.5,637.9c2.3,0,4.2-1.8,6.1-3.5c1.5-1.4,3-2.8,4.7-3.2l-0.1-0.3c-1.7,0.5-3.3,1.9-4.8,3.3
	c-1.9,1.8-3.9,3.6-6.3,3.4c-1.9-0.3-3.8-0.9-5.5-1.8c-2.3-1.2-4.9-2-7.5-2.2c-2.8,0-5.5,0.3-8.2,1c-4.4,0.9-9.3,1.9-13.6,0.9
	c-5.3-1.2-10.3-4.8-15.2-8.3c-4.3-3.1-8.3-6-11.8-6.6v0.3c3.5,0.6,7.5,3.5,11.7,6.5c4.9,3.5,9.9,7.2,15.3,8.3c4.3,1,9.3,0,13.7-0.9
	c2.7-0.6,5.4-1,8.1-1c2.6,0.3,5.1,1,7.5,2.2c1.7,0.9,3.6,1.5,5.6,1.8L551.5,637.9z"/>
<path class="st15" d="M486.6,623.2c3-3.4,6.3-3,6.3-3c-0.9-0.2-1.8-0.2-2.6,0.1c-0.9,0.3-1.8,0.8-2.5,1.4
	C487.3,622.1,486.9,622.6,486.6,623.2z"/>
<path class="st15" d="M560.2,629.4c1.6,0.7,2.7,2.2,3,3.9c0-0.6-0.1-1.3-0.5-1.8c-0.4-0.6-0.8-1.1-1.4-1.5
	C561,629.8,560.6,629.6,560.2,629.4z"/>
<path class="st15" d="M526.4,607.6c0.1-0.7,0.1-1.4,0-2.2c-0.2-1.1-0.6-2.1-1.1-3.1l0.1,0.4C526,604.3,526.3,606,526.4,607.6z"/>
<path class="st15" d="M540.4,607c0.1-1.8,0.7-3.5,1.6-5h-0.2c-0.7,0.9-1.2,2-1.5,3.1C540.1,605.7,540.1,606.4,540.4,607z"/>
<path class="st34" d="M543.5,599.4c-1.9,2.9-2.8,4.6-3.1,7.1c-0.1,0.6,0.1,0.6,0.2,0c0.8-3.5,2.3-5,3.2-6.5
	C545.4,597.2,543.8,598.8,543.5,599.4z"/>
<path class="st34" d="M526,604.8c-0.7-3.3-2.2-6.4-4.5-8.9c-1-1.1-1.2-0.7-0.5,0.3c1.8,2.7,3.4,5.6,4.6,8.6
	C526.2,606.3,526.5,606.9,526,604.8z"/>
<path class="st33" d="M558.9,600.4c0,0-3.5-2.2-9.1,0s-6.2,10.6-5.3,13.1c1.2,3.3,3.7,6,7.5,6.5c2.1,0.4,4.2,0.1,6.2-0.8
	L558.9,600.4z"/>
<ellipse transform="matrix(0.2355 -0.9719 0.9719 0.2355 -168.1994 1005.9314)" class="st35" cx="555.3" cy="609.9" rx="10.2" ry="9.5"/>
<path class="st36" d="M553,614.3c0,0-5.3,1-7-2.6c0.2,1.8,0.9,3.5,2,5c2,2.4,5.2,3.7,8.3,3.2c2.3-0.4,4.1-2,4.6-4.3
	C561,615.7,555.4,613.1,553,614.3z"/>
<path class="st23" d="M558.2,621.5c0,0-5.7-4.5-11,0"/>
<path class="st15" d="M558.2,621.5c-0.6-0.6-1.2-1.1-2-1.3c-2.3-1-5-1-7.3,0c-0.7,0.3-1.2,0.8-1.7,1.3
	C552.5,617.3,558.2,621.5,558.2,621.5z"/>
<path class="st19" d="M549.9,620.9c0-0.4,1.1-0.8,2.4-0.9s2.5,0.2,2.5,0.7s-1.1,0.8-2.4,0.9S549.9,621.3,549.9,620.9z"/>
<path class="st33" d="M505.2,605.6c-1.7,6.3-0.6,11.5,4.4,13.2c7,2.4,12.6-0.8,14.9-6.9c2-5.6-1-13.4-7-14.5
	C510.2,595.9,506.9,599.5,505.2,605.6z"/>
<ellipse transform="matrix(0.5 -0.866 0.866 0.5 -270.1772 748.8173)" class="st35" cx="513.4" cy="608.4" rx="11.1" ry="10.6"/>
<path class="st36" d="M510.1,612.7c0,0-6,0.1-7.3-4c-0.1,2,0.4,4,1.4,5.7c1.9,3,5.1,4.8,8.7,4.9c2.5,0,4.8-1.5,5.8-3.8
	C518.8,615.5,513,611.8,510.1,612.7z"/>
<path class="st23" d="M514.4,622.4c0,0-3.6-6.2-13-4.8"/>
<path class="st15" d="M514.4,622.4c-0.2-0.7-0.6-1.3-1.2-1.8c-1.6-1.5-4.8-3.5-10-3.4c-0.6,0-1.2,0.1-1.8,0.4
	C510.9,616.6,514.4,622.4,514.4,622.4z"/>
<path class="st19" d="M504.7,618.5c0.2-0.5,2-0.4,4.1,0.4s3.6,1.8,3.5,2.3s-2,0.4-4.1-0.4S504.5,619.1,504.7,618.5z"/>
<path class="st21" d="M473.5,631.5c0,0,1.7,2.2,0,4.1s-4.8,0.5-4.8,0.5S473.3,631.5,473.5,631.5z"/>
<circle class="st21" cx="471" cy="642.6" r="2.8"/>
<circle class="st21" cx="477.9" cy="647" r="1.6"/>
<circle class="st21" cx="471" cy="649.6" r="1.1"/>
<ellipse transform="matrix(0.9239 -0.3827 0.3827 0.9239 -193.723 242.9679)" class="st37" cx="513.9" cy="608.4" rx="6.7" ry="6.7"/>
<path class="st0" d="M511.3,600.8c0.9,0,1.6,0.7,1.6,1.6s-0.7,1.6-1.6,1.6s-1.6-0.7-1.6-1.6S510.4,600.8,511.3,600.8z"/>
<circle class="st37" cx="553.8" cy="610.4" r="6.7"/>
<circle class="st0" cx="551.2" cy="604.3" r="1.6"/>
<path class="st22" d="M427.9,677.6c0,0,4.8,1.2,4.2,4.4c7.8-1.4,16.6-2.5,17.6-7.1c-7.1-0.6-9.2,0.3-12.9,1.3
	C433.8,676.8,430.9,677.3,427.9,677.6z"/>
<path class="st15" d="M431.9,681.9c0.6-3-4-4.2-4.1-4.2l-0.7-0.2l0.8-0.1c3-0.3,5.9-0.7,8.9-1.4c0.5-0.1,1-0.3,1.4-0.4
	c2.4-0.8,4.9-1.1,7.4-1.1c1.2,0,2.5,0.1,4,0.2h0.1v0.1c-0.9,4.3-8.4,5.6-15.7,6.8l-2,0.3h-0.2L431.9,681.9z M445.6,674.8
	c-2.5,0-5,0.4-7.4,1.1c-0.5,0.1-0.9,0.3-1.4,0.4c-2.7,0.6-5.5,1.1-8.3,1.4c1.3,0.4,4,1.7,3.7,4.1l1.9-0.3c7.1-1.2,14.4-2.5,15.4-6.5
	C448,674.9,446.7,674.8,445.6,674.8L445.6,674.8z"/>
<path class="st15" d="M448.6,676c0.4-0.3,0.8-0.7,1.1-1c0.5-0.5,0.9-1.1,1.3-1.7c-0.8,0.9-1.6,1.8-2.5,2.6L448.6,676z"/>
<path class="st15" d="M463.7,672.2c1.3-0.3,2.3-1.2,2.9-2.4c1.6-3.4,0.3-9.4-1.5-13.9c-3.7-9.5-9.3-13.8-12.1-13.8l0,0
	c-0.8,0-1.5,0.5-2.1,1.6l0.2,0.1c0.5-1,1.2-1.5,1.9-1.5c2.7,0,8.2,4.3,11.9,13.6c1.8,4.5,3.1,10.4,1.5,13.7c-0.5,1.1-1.5,2-2.7,2.3
	L463.7,672.2z"/>
<path class="st20" d="M453,642.1c2.7,0,8.2,4.2,12,13.7c2.5,6.3,3.8,14.8-1.3,16.2L451,643.7C451.5,642.7,452.2,642.1,453,642.1z"/>
<path class="st18" d="M453,642.1c2.7,0,8.2,4.2,12,13.7c0.3,0.8,0.6,1.6,0.9,2.5c0.4,1.3-0.1,2.3-1,2.5c-5.3,0.5-8.8-6.2-9.8-10.7
	l-4-6.4C451.5,642.7,452.2,642.1,453,642.1z"/>
<path class="st17" d="M448.3,677.1c-2.9,2.8-9.9,3.7-16.3,4.8c0.2-1.2-0.4-2.5-1.4-3.1C436.5,678.6,443.7,675.6,448.3,677.1z"/>
<path class="st16" d="M455,648c-0.4,6.6,8.6,21.4,9.6,24.5s3.6,4.3,5.7,4.8s10.2,1.3,7.9,5.5s-11.3,1.3-13.2-0.6s-3.1-3.5-4.6-3.5
	c-2.5-0.2-4.9,0-7.3,0.6c-4.5,1.7-8.7,3.9-12.7,6.6c-4.4,2.9-11.4,5.7-13.8,2.4s1.3-6.3,6.5-7.3c4.6-0.9,12.5-2.5,15.5-5.1
	c-5-1.2-9.8,0.3-13.1,1.1s-7.9,1.7-10.1,0.3c-3-1.9-2.8-7.7,5.2-6.8c7.4,0.8,19.8,1.2,21.5-0.5c-3.4-5.7-3.9-28,1-27.9"/>
<path class="st18" d="M455,648c-0.4,6.6,5.5,20.9,6.4,24s6.8,4.8,8.8,5.3s10.1,1.3,7.9,5.5c-1.4,2.6-9.9,0.6-12.3-2
	c-1.9-2-4.3-4.1-5.9-4.1c-2.4,0.1-4.9,0.5-7.2,1.3c-4.5,1.5-8.8,3.5-12.8,6c-2.5,1.7-7.1,3.7-10.3,3.9c-3,0.2-3.9-1.3-3.9-1.6
	c0-2.5,3.1-4.5,7.2-5.3c4.3-0.8,11.5-2.3,14.8-4.6c0.8-0.7,1.6-1.4,2.4-2.2c-5-1.2-11.6,0.4-14.9,1.2s-7,1.2-8.6,0.7
	c-3.3-1.1-4.2-6.6,3.8-5.7c7.4,0.8,19.8,1.2,21.5-0.5c-3.4-5.7-3.9-28,1-27.9"/>
<path class="st19" d="M432.9,671.2c-1.9-0.3-4.5-0.5-5.7-0.1c-2.2,0.9-0.4,2.1,1.1,1.7c1.4-0.3,2.7-0.7,4.5-1
	C433.6,671.8,434.3,671.4,432.9,671.2z"/>
<path class="st19" d="M434,681.5c-1.9,0.5-4.7,1.3-5.7,2.2c-1.7,1.7,0.3,2.1,1.6,1.2s2.3-1.7,3.9-2.6
	C434.5,681.8,435.2,681.2,434,681.5z"/>
<path class="st19" d="M472.8,678.7c1.6,0.1,3.2,0.6,4.6,1.5c1.4,1.1-0.1,1.6-1.2,1c-1.2-0.8-2.5-1.5-3.8-2.1
	C472.1,678.9,472,678.7,472.8,678.7z"/>
<path class="st19" d="M455.8,643.6c-1.3-0.8-2.7-1.5-3.6-0.8s-1.8,3.4-2,5.5c-0.1,0.8,0.1,0.8,0.3,0.2c0.7-2.2,1.6-4.2,2.3-4.6
	c1-0.4,2.1-0.3,3,0.2C456.8,644.5,456.5,644.1,455.8,643.6z"/>
<path class="st15" d="M430,690c3,0,7-1.7,10.4-3.9c4-2.6,8.2-4.8,12.6-6.5c2-0.6,4.1-0.8,6.2-0.7h1c1.1,0,2.1,1,3.4,2.3
	c0.4,0.4,0.7,0.8,1.1,1.2c1.3,1.3,6.4,3.3,10,2.7c1.4-0.1,2.7-0.9,3.4-2.1c0.4-0.7,0.5-1.6,0.2-2.3c-0.9-2-4.7-2.7-7-3.2
	c-0.5-0.1-0.9-0.2-1.2-0.2c-3-0.7-4.9-2.3-5.6-4.7c-0.7-1.7-1.5-3.5-2.4-5.1c-2.8-5.7-7.2-14.4-7.2-19.4c-0.2,0.7-0.2,1.3-0.1,2
	c0.8,5.2,4.6,12.5,7.1,17.5c0.9,1.6,1.7,3.3,2.4,5.1c0.8,2.5,2.7,4.1,5.8,4.9c0.3,0.1,0.7,0.2,1.2,0.2c2.3,0.4,6,1.1,6.8,3
	c0.3,0.7,0.2,1.5-0.2,2.1c-0.7,1.1-1.9,1.9-3.2,2c-3.6,0.6-8.5-1.3-9.8-2.6c-0.4-0.4-0.8-0.8-1.1-1.2c-1.3-1.4-2.3-2.4-3.5-2.4
	c-0.3,0-0.6,0-1,0c-2.1-0.2-4.3,0-6.3,0.7c-4.5,1.7-8.7,3.9-12.7,6.5c-5,3.3-11.4,5.5-13.6,2.5c-0.7-0.8-0.9-1.9-0.6-2.9
	c0.7-1.9,3.3-3.5,7-4.2l0,0c4.7-0.9,12.5-2.5,15.5-5.2l0.2-0.2l-0.2-0.1c-4.7-1.1-9.2,0.1-12.5,0.9l-0.7,0.2c-5,1.3-8.3,1.4-10,0.3
	c-1.3-0.9-2-2.5-1.5-4c0.3-0.9,1.6-3.1,6.7-2.5c6.4,0.7,19.8,1.3,21.6-0.5l0.1-0.1V670c-2.7-4.6-3.7-21-0.9-26.3
	c0.5-1,1.1-1.5,1.8-1.5l0,0V642c-0.8,0-1.5,0.5-2.1,1.6c-1.3,2.4-1.9,7.4-1.6,13.4c0.2,5.8,1.2,10.7,2.5,13
	c-1.8,1.5-13.5,1.3-21.3,0.4c-5.3-0.6-6.6,1.7-7,2.7c-0.5,1.7,0.2,3.4,1.7,4.3c1.8,1.2,5.1,1.1,10.2-0.2l0.7-0.2
	c3.2-0.8,7.6-2,12.2-1c-3.1,2.5-10.6,4-15.2,4.9l0,0c-3.7,0.7-6.4,2.4-7.1,4.4c-0.4,1.1-0.1,2.3,0.6,3.2
	C427.3,689.5,428.6,690.1,430,690z"/>
<path class="st38" d="M452.7,642.1c0,0,1.9-0.5,5.6,2.8c4.8,4.8,7.9,11.1,8.7,17.9c0.9,8-2.6,9-2.6,9"/>
<circle class="st21" cx="454.4" cy="661.9" r="1.1"/>
<ellipse class="st21" cx="458.3" cy="672.2" rx="2" ry="1.7"/>
<path class="st21" d="M449.5,653.3c0,0,1.8-0.2,2.2,1c0.5,1.4-0.2,2.9-2.1,3.4C449.6,657.7,449.4,653.8,449.5,653.3z"/>
<path class="st22" d="M472,690.5c0,0,0.1-4.1-5.6-3.7c2.8-2.5,6.8-5.2,17.2-4.3C482.8,687.5,472,690.5,472,690.5z"/>
<path class="st17" d="M482.8,684.3c-2.6,3.9-10.8,6.2-10.8,6.2c0-1.7-1.2-3.2-2.9-3.5C473.1,684.3,478,683.4,482.8,684.3z"/>
<path class="st15" d="M471.9,690.5c0-0.8-0.3-1.6-0.9-2.2c-0.9-1-2.5-1.5-4.6-1.3H466l0.3-0.3c2.6-2.3,6.1-4.5,13.4-4.5
	c1.2,0,2.5,0.1,3.9,0.2h0.1v0.1c-0.7,5-11.2,8-11.6,8.1L471.9,690.5L471.9,690.5z M479.6,682.5c-7,0-10.4,2-12.9,4.2
	c2-0.1,3.5,0.4,4.5,1.4c0.6,0.6,0.9,1.4,0.9,2.3c1.3-0.4,10.5-3.2,11.3-7.7C482,682.5,480.8,682.5,479.6,682.5L479.6,682.5z"/>
<path class="st16" d="M490.4,648.3c-1.1-1.7-4.9-2.5-6.5,4.7c-2.8,12.9-0.8,23.3-1.6,24.2s-5.1,2.4-8.9,2.3s-10.8-0.4-13.7,3
	s-0.8,5.9,1.6,6.4s4.7-1.1,7.2-3.1s11.7-3.5,14.3-2.6c-0.6,2.3-5.8,5.3-10.1,6.5s-8.4,3.5-7.6,7.1s6,2.9,8.7,0.6
	c0.8-0.5,1.5-1.2,2-2c1-2,2.1-2.6,5.3-3.6c3.5-1,4.7-3.1,7.1-5.2s4.1-3.6,6.4-3s4.8,2.8,7.3,3s5.5-2,4.7-4.2s-4.7-3.8-9.1-2.8
	s-6.1-2.4-6.7-4.8s-2.4-11.3-1.3-15c3.6-2.6,3.5-5.6,3.3-6.6"/>
<path class="st18" d="M490.4,648.3c-1.1-1.7-4.9-2.5-6.5,4.7c-2.8,12.9-0.8,23.3-1.6,24.2s-5.1,2.4-8.9,2.3s-10.8-0.4-13.7,3
	s0.3,4.8,1.7,4.9c2.4,0.1,4-1.1,6.5-3.1s12.4-3.7,15-2.9c0.1,0.6,0,1.3-0.1,1.9c-0.8,2.3-5.9,5.2-10,6.3s-8.4,3.5-7.6,7.1
	s5.3,1.8,7.5-1s3-3.7,8-5.2c3.5-1,4.5-2.9,6.9-5s4.6-4.3,6.9-3.8s5.4,2.8,7.9,3.1s5.2-0.3,4.4-2.5s-4.7-3.8-9.1-2.8
	c-3.6,0.8-7.2-1.3-8.3-4.8c-0.5-2.4-2.2-12-1.1-15.7c2.9-0.5,5-3.1,4.7-6"/>
<path class="st19" d="M468.6,680.4c-2,0.1-5,0.3-6.1,1.1c-2,1.3,0,2.1,1.4,1.5c1.6-0.8,3.2-1.4,4.8-2
	C469.2,680.8,469.7,680.4,468.6,680.4z"/>
<path class="st19" d="M472,690.5c-1.7,0.5-4.3,1.5-5.7,3.1c-1.6,1.8,0.5,2,1.7,1s2.2-2.1,3.8-3.2C472.4,691,473,690.3,472,690.5z"/>
<path class="st15" d="M468.7,699.4c2-0.1,3.9-0.9,5.4-2.3c0.5-0.5,1-1,1.5-1.5c1.6-2.1,1.1-2.5,5.5-3.8c2.1-0.7,4.1-2,5.5-3.7
	c0.5-0.5,1-1,1.6-1.6c2.4-2.1,4.1-3.6,6.3-3c1.1,0.3,2.1,0.8,3.1,1.4c1.3,0.8,2.8,1.4,4.3,1.7c1.7,0.1,3.4-0.6,4.4-2
	c0.5-0.7,0.7-1.6,0.4-2.4c-0.8-2.2-4.6-3.9-9.3-2.9c-4.5,1-6-2.5-6.5-4.7c-0.3-1.1-2.5-11-1.4-14.9c1.7-1.2,2.9-2.9,3.3-4.9
	c0.1-0.6,0-1.2-0.1-1.8c0.1,2.6-1.2,5.1-3.4,6.5l0,0l0,0c-1.1,3.8,0.9,13.2,1.3,15.1s1.9,6,6.8,4.9c4.5-1,8.2,0.7,9,2.8
	c0.3,0.7,0.1,1.5-0.4,2.2c-1,1.3-2.6,2-4.2,1.9c-1.5-0.3-2.9-0.8-4.2-1.6c-1-0.6-2-1-3.1-1.4c-2.4-0.6-4.1,0.9-6.5,3
	c-0.6,0.5-1.1,1.1-1.7,1.6c-1.4,1.7-3.3,2.9-5.4,3.6c-4.7,1.4-3.9,1.6-5.5,3.7c-0.5,0.6-1,1.1-1.5,1.6c-1.5,1.4-4.4,2.7-6.5,2.1
	c-1.2-0.3-2.1-1.2-2.3-2.4c-0.8-4.2,5-6.3,7.5-7c4.3-1.2,9.6-4.2,10.2-6.6v-0.1h-0.1c-2.6-0.8-11.9,0.6-14.4,2.7s-4.9,3.5-7.1,3.1
	c-1.3-0.2-2.3-1.1-2.8-2.2c-0.3-0.8-0.3-2.2,1.2-3.9c2.9-3.3,9.9-3,13.6-2.9l0,0c3.9,0.1,8.1-1.4,9-2.3c0.3-0.3,0.3-1.5,0.2-4.1
	c-0.4-6.7,0.1-13.5,1.5-20.1c0.9-4.1,2.4-5.4,3.5-5.7c1.1-0.2,2.2,0.1,2.9,1c-0.2-0.6-0.7-1-1.3-1.2c-0.5-0.2-1.1-0.2-1.7-0.1
	c-1.1,0.3-2.7,1.6-3.6,5.9c-1.3,6.7-1.8,13.5-1.5,20.3c0.1,2.1,0.1,3.7-0.1,3.9c-0.8,0.8-5,2.3-8.8,2.2l0,0
	c-3.8-0.1-10.9-0.4-13.8,3c-1.6,1.8-1.6,3.3-1.3,4.2c0.5,1.3,1.6,2.2,2.9,2.4c2.3,0.4,4.6-0.9,7.3-3.1c2.4-1.9,11.4-3.4,14.1-2.7
	c-0.7,2.3-5.8,5.2-10,6.3c-2.6,0.7-8.6,2.8-7.7,7.3c0.2,1.3,1.2,2.3,2.5,2.6C467.9,699.4,468.3,699.4,468.7,699.4z"/>
<path class="st15" d="M482.9,683.1c0.1-0.4,0.1-0.8,0.1-1.2c0-0.5-0.2-1.1-0.5-1.5c0.3,0.9,0.3,1.8,0.1,2.7L482.9,683.1z"/>
<path class="st19" d="M488.8,647.6c-2.2-0.9-4.3,2.5-4.2,6.3c0,0.5,0.3,0.2,0.4-0.3c0.8-4,2.4-5.1,3.4-5.5
	C489.1,647.9,489,647.7,488.8,647.6z"/>
<path class="st21" d="M483.9,654.1c0,0,2.6,0.7,2.1,4s-3.2,3.3-3.2,3.3S483.5,654.6,483.9,654.1z"/>
<ellipse class="st21" cx="484.9" cy="668.3" rx="1.4" ry="1.2"/>
<ellipse transform="matrix(0.4304 -0.9027 0.9027 0.4304 -294.8371 872.2388)" class="st21" cx="543.7" cy="669.7" rx="1.2" ry="1.5"/>
</svg>
