<?xml version="1.0" encoding="utf-8"?>
<!-- Generator: Adobe Illustrator 25.2.3, SVG Export Plug-In . SVG Version: 6.00 Build 0)  -->
<svg version="1.1" id="Layer_1" xmlns="http://www.w3.org/2000/svg" xmlns:xlink="http://www.w3.org/1999/xlink" x="0px" y="0px"
	 viewBox="0 0 1600 900" style="enable-background:new 0 0 1600 900;" xml:space="preserve">
<style type="text/css">
	.st0{clip-path:url(#SVGID_2_);}
	.st1{fill:#429EAD;}
	.st2{opacity:0.4;fill:#136491;enable-background:new    ;}
	.st3{fill:#8BCAEA;}
	.st4{opacity:0.5;}
	.st5{opacity:0.49;fill:#FFFFFF;enable-background:new    ;}
	.st6{fill:#598D99;}
	.st7{fill:#476F7A;}
	.st8{fill:#DAE1E5;}
	.st9{opacity:0.3;}
	.st10{fill:#136491;}
	.st11{opacity:0.7;}
	.st12{fill:none;stroke:#A39FAA;stroke-miterlimit:10;}
	.st13{opacity:0.2;fill:#232423;enable-background:new    ;}
	.st14{fill:#4574B5;}
	.st15{opacity:0.28;fill:#5B7FB0;enable-background:new    ;}
	.st16{fill:#6A93CC;}
	.st17{opacity:0.28;}
	.st18{fill:#5B7FB0;}
	.st19{fill:#87ACE0;}
	.st20{opacity:0.4;fill:#BD8B5E;enable-background:new    ;}
	.st21{fill:#C9914C;}
	.st22{fill:#9F6031;}
	.st23{opacity:0.4;fill:#C9914C;enable-background:new    ;}
	.st24{fill:url(#SVGID_3_);}
	.st25{fill:#333232;}
	.st26{opacity:0.38;fill:#EBE6AC;enable-background:new    ;}
	.st27{opacity:0.4;fill:#333232;enable-background:new    ;}
	.st28{opacity:0.2;}
	.st29{fill:#232423;}
	.st30{clip-path:url(#SVGID_5_);}
	.st31{clip-path:url(#SVGID_7_);}
	.st32{fill:#595756;}
	.st33{fill:#02B272;}
	.st34{fill:#6D6F71;}
	.st35{clip-path:url(#SVGID_9_);}
	.st36{fill:#5A5C5E;}
	.st37{fill:#393B3D;}
	.st38{fill:#FF9300;}
	.st39{fill:#C66A06;}
	.st40{fill:#EFDCCA;}
	.st41{fill:#FFAD00;}
	.st42{fill:#FFC900;}
	.st43{clip-path:url(#SVGID_11_);}
	.st44{fill:#19CE89;}
	.st45{fill:#D4DBDD;}
	.st46{fill:#3B3E3F;}
	.st47{opacity:0.6;fill:#FFFFFF;enable-background:new    ;}
	.st48{fill:#84491C;}
	.st49{fill:#D27D42;}
	.st50{fill:#9F5424;}
	.st51{fill:#AF5F28;}
	.st52{opacity:0.4;}
	.st53{fill:#362A40;}
	.st54{fill:#4A4B4B;}
	.st55{opacity:0.6;fill:#4A4B4B;enable-background:new    ;}
	.st56{opacity:0.4;fill:#4A4B4B;enable-background:new    ;}
	.st57{opacity:0.5;fill:#4A4B4B;enable-background:new    ;}
	.st58{fill:#299ACE;}
	.st59{clip-path:url(#XMLID_3_);}
	.st60{opacity:0.9;}
	.st61{fill:#C5CE19;}
	.st62{fill:#DBE6FA;}
	.st63{fill:#FFFFFF;}
	.st64{fill:#F2D0AA;}
	.st65{opacity:0.2;fill:#FFFFFF;enable-background:new    ;}
	.st66{fill:#9DC13D;}
	.st67{fill:#54660A;}
	.st68{fill:#89AA30;}
	.st69{fill:#B7E259;}
	.st70{fill:#3B444F;}
	.st71{fill:#D4EF89;}
	.st72{fill:#C6DD73;}
	.st73{fill:#3269A5;}
	.st74{fill:#E6E7E8;}
	.st75{fill:#F75338;}
	.st76{fill:#5B5860;}
	.st77{fill:#414042;}
	.st78{opacity:0.75;}
	.st79{fill-rule:evenodd;clip-rule:evenodd;fill:#CC935E;}
	.st80{fill-rule:evenodd;clip-rule:evenodd;fill:#E6E7E8;}
	.st81{fill:#E0A46C;}
	.st82{fill:#56C4E3;}
	.st83{fill:#46BDDE;}
	.st84{fill:#4BCAED;}
	.st85{fill:#E7E7E8;}
	.st86{fill:#464647;}
	.st87{fill:#414142;}
	.st88{fill-rule:evenodd;clip-rule:evenodd;fill:#221F20;}
	.st89{fill-rule:evenodd;clip-rule:evenodd;fill:#404041;}
	.st90{fill-rule:evenodd;clip-rule:evenodd;fill:#FEFEFE;}
	.st91{fill-rule:evenodd;clip-rule:evenodd;fill:#E6E6E7;}
	.st92{fill-rule:evenodd;clip-rule:evenodd;fill:#E9DCBE;}
	.st93{fill-rule:evenodd;clip-rule:evenodd;fill:#F9ECD0;}
	.st94{fill-rule:evenodd;clip-rule:evenodd;fill:#D6C4AA;}
	.st95{fill:#BC6A60;}
	.st96{fill:#221F20;}
	.st97{fill:#A68875;}
	.st98{fill:#A18370;}
	.st99{fill:#AD8D7A;}
	.st100{fill-rule:evenodd;clip-rule:evenodd;fill:#90BB2B;}
	.st101{fill-rule:evenodd;clip-rule:evenodd;fill:#759E15;}
	.st102{fill-rule:evenodd;clip-rule:evenodd;fill:#A5D042;}
	.st103{fill-rule:evenodd;clip-rule:evenodd;fill:#A7D342;}
	.st104{fill-rule:evenodd;clip-rule:evenodd;fill:#9E4206;}
	.st105{fill-rule:evenodd;clip-rule:evenodd;fill:#963C09;}
	.st106{fill:#863202;}
	.st107{fill-rule:evenodd;clip-rule:evenodd;fill:#B5520A;}
	.st108{fill-rule:evenodd;clip-rule:evenodd;fill:#6D6E71;}
	.st109{fill:#6D6E71;}
	.st110{fill-rule:evenodd;clip-rule:evenodd;fill:#D0D2D4;}
	.st111{fill:#ED4E54;}
	.st112{fill:#58595B;}
	.st113{fill-rule:evenodd;clip-rule:evenodd;fill:#57585A;}
	.st114{fill-rule:evenodd;clip-rule:evenodd;fill:#FFFFFF;}
	.st115{fill-rule:evenodd;clip-rule:evenodd;fill:#3F3F41;}
	.st116{fill:#A1A6A4;}
	.st117{fill-rule:evenodd;clip-rule:evenodd;fill:#EA675F;}
	.st118{fill:#CC5A54;}
	.st119{fill-rule:evenodd;clip-rule:evenodd;fill:#CC5A54;}
	.st120{fill-rule:evenodd;clip-rule:evenodd;fill:#FFE12E;}
	.st121{fill:#6E6F71;}
	.st122{fill-rule:evenodd;clip-rule:evenodd;fill:#BC4049;}
	.st123{fill:#FEFEFE;}
	.st124{fill-rule:evenodd;clip-rule:evenodd;fill:#D1D3D4;}
	.st125{fill-rule:evenodd;clip-rule:evenodd;fill:#EFB279;}
	.st126{fill-rule:evenodd;clip-rule:evenodd;fill:#F4F4F4;}
	.st127{fill-rule:evenodd;clip-rule:evenodd;fill:#E5E6E7;}
	.st128{fill-rule:evenodd;clip-rule:evenodd;fill:#BBBDBF;}
	.st129{fill-rule:evenodd;clip-rule:evenodd;fill:#E0A46C;}
	.st130{fill:#F29E87;}
	.st131{fill:#DB8C76;}
	.st132{fill-rule:evenodd;clip-rule:evenodd;fill:#383D43;}
	.st133{fill-rule:evenodd;clip-rule:evenodd;fill:#58595B;}
	.st134{fill:#FEA68E;}
	.st135{fill-rule:evenodd;clip-rule:evenodd;fill:#F29E87;}
	.st136{fill-rule:evenodd;clip-rule:evenodd;fill:#FFB9A6;}
	.st137{opacity:0.11;fill:#024866;enable-background:new    ;}
	.st138{fill:#FB6F78;}
	.st139{fill:#A7332F;}
	.st140{fill:#9EDBC4;}
	.st141{fill:#3F8CBC;}
	.st142{fill:#F4D0C3;}
	.st143{fill:#161616;}
	.st144{fill:#ED4CC3;}
	.st145{fill:#6F67D6;}
</style>
<g>
	<g>
		<defs>
			<rect id="SVGID_1_" width="1600" height="900"/>
		</defs>
		<clipPath id="SVGID_2_">
			<use xlink:href="#SVGID_1_"  style="overflow:visible;"/>
		</clipPath>
		<g class="st0">
			<rect x="-6.5" y="367" class="st1" width="1620.8" height="206.2"/>
			<path class="st2" d="M1.1,560.9c152.9-44.6,269.2-50.8,349.4-47.3c53,2.3,102.8,9.3,176.8-5.3c55.4-10.9,77-24.6,170.7-45.5
				c51.5-11.5,77.2-17.2,111.5-19.4c75.8-4.9,114.3,12.3,168.7,20.2c137,19.9,253.2-36.4,278.4-48.6
				c99.4-48.2,160.8-121.8,194.6-172.1c40.7,43.9,86.4,82.9,136,116.4c5.5,3.7,11.1,7.3,16.6,10.9l4.7,190.8L1.1,560.9z"/>
			<rect x="1.1" y="-3.5" class="st3" width="1600" height="373"/>
			<g class="st4">
				<rect x="96.1" y="-3.5" class="st5" width="27.3" height="357.2"/>
				<rect x="9.4" y="-3.5" class="st5" width="27.2" height="357.2"/>
				<rect x="182.1" y="-3.5" class="st5" width="27.3" height="357.2"/>
				<rect x="268.1" y="-3.5" class="st5" width="27.3" height="357.2"/>
				<rect x="354.2" y="-3.5" class="st5" width="27.3" height="357.2"/>
				<rect x="440.2" y="-3.5" class="st5" width="27.3" height="357.2"/>
				<rect x="526.2" y="-3.5" class="st5" width="27.2" height="357.2"/>
				<rect x="612.3" y="-3.5" class="st5" width="27.2" height="357.2"/>
				<rect x="784.3" y="-3.5" class="st5" width="27.3" height="357.2"/>
				<rect x="870.4" y="-3.5" class="st5" width="27.2" height="357.2"/>
				<rect x="698.3" y="-3.5" class="st5" width="27.3" height="357.2"/>
				<rect x="956.4" y="-3.5" class="st5" width="27.2" height="357.2"/>
				<rect x="1042.5" y="-3.5" class="st5" width="27.3" height="357.2"/>
				<rect x="1128.5" y="-3.5" class="st5" width="27.2" height="357.2"/>
				<rect x="1214.5" y="-3.5" class="st5" width="27.3" height="357.2"/>
				<rect x="1300.6" y="-3.5" class="st5" width="27.3" height="357.2"/>
				<rect x="1386.6" y="-3.5" class="st5" width="27.2" height="357.2"/>
				<rect x="1472.7" y="-3.5" class="st5" width="27.3" height="357.2"/>
				<rect x="1569.1" y="-3.5" class="st5" width="27.2" height="357.2"/>
			</g>
			<rect x="3.5" y="354.2" class="st6" width="1598.3" height="15.8"/>
			<rect x="-8.4" y="555.5" class="st7" width="1615" height="51.3"/>
			<polygon class="st8" points="1604.7,900 0.8,900 0.8,585.5 530.5,585.5 820.8,585.5 963,585.5 1604.7,585.5 			"/>
			<g class="st9">
				<polygon class="st10" points="486.3,726.1 674.8,727.5 688.2,827.5 467.8,827.5 				"/>
				<path class="st10" d="M1292,724.8c3.3,0.8,282.7,2.5,282.7,2.5l212.5,100.2l-311.7-1.1L1292,724.8z"/>
				<path class="st10" d="M505.9,618.3l-8.7,48h169.4l-6.3-47L505.9,618.3z"/>
				<polygon class="st10" points="674.8,727.5 869.5,726.2 839.9,667.5 666.6,666.3 				"/>
				<path class="st10" d="M839.9,667.5l178.5,0.6L972.6,620l-157.8-0.5L839.9,667.5z"/>
				<polygon class="st10" points="869.5,726.2 922.1,829.3 1169.9,827.5 1073.7,726.2 				"/>
				<polygon class="st10" points="1169.9,827.5 1243.4,904.8 1608.8,900 1472.4,824.6 				"/>
				<polygon class="st10" points="467.8,827.6 454.8,906.7 167.1,908 219.3,826.4 				"/>
				<polygon class="st10" points="497.1,666.3 486.3,726.1 282.3,725 320.3,666.3 				"/>
				<polygon class="st10" points="79.7,724.7 282.3,725 219.3,826.4 -23.9,827.7 				"/>
				<path class="st10" d="M139,664.1l-59.3,60.6c0,0-212,1-210.3,0.1l106-60.3L139,664.1z"/>
				<polygon class="st10" points="189,616 139.9,666.3 320.3,666.3 347.8,616 				"/>
				<polygon class="st10" points="688.2,827.5 921.7,826.4 958.2,900 698.6,904.8 				"/>
				<polygon class="st10" points="1018.5,668.1 1073.7,726.2 1292,724.8 1191.2,668.7 				"/>
				<polygon class="st10" points="1103,620 1191.2,668.7 1434.2,669.5 1302.8,621.3 				"/>
				<polygon class="st10" points="972.7,619.9 1103,620 1043.4,587.1 942.3,587.1 				"/>
				<polygon class="st10" points="814.9,619.4 797.2,583.8 656.4,585.6 660.3,619.3 				"/>
				<polygon class="st10" points="505.9,618.3 347.8,616 365.6,583.8 510.8,587.1 				"/>
				<polygon class="st10" points="219.9,583.8 189,616 58.8,616.5 111.3,587.1 				"/>
				<path class="st10" d="M1222.2,579.8c0.6,0,80.6,41.5,80.6,41.5h298.3v-41.5H1222.2z"/>
			</g>
			<g class="st11">
				<line class="st12" x1="104.8" y1="590.8" x2="-179.9" y2="751.5"/>
				<line class="st12" x1="214.4" y1="590.8" x2="-67.1" y2="868.3"/>
				<line class="st12" x1="367.6" y1="590.8" x2="167.1" y2="908"/>
				<line class="st12" x1="448.1" y1="933" x2="510.8" y2="590.8"/>
				<line class="st12" x1="656.4" y1="590.8" x2="706.5" y2="960.2"/>
				<line class="st12" x1="800.4" y1="590.8" x2="976.5" y2="933"/>
				<line class="st12" x1="1256.9" y1="916.3" x2="945.1" y2="590.8"/>
				<line class="st12" x1="1608.8" y1="897.5" x2="1049.9" y2="590.8"/>
				<line class="st12" x1="1226.6" y1="590.8" x2="1616.9" y2="742.5"/>
				<line class="st12" x1="-169.8" y1="723.6" x2="1703.9" y2="726.3"/>
				<line class="st12" x1="-208.5" y1="825.5" x2="1667.5" y2="825.5"/>
				<line class="st12" x1="-150.6" y1="615.8" x2="1731.2" y2="622.2"/>
				<line class="st12" x1="-139.8" y1="663.4" x2="1742" y2="669.9"/>
			</g>
			<ellipse class="st13" cx="1439.1" cy="792.5" rx="92.9" ry="23"/>
			<path class="st14" d="M1423.6,780.5c-0.7,6.1-6.3,7.9-13.3,8.3s-14.1-0.2-14.8-7.4c-0.5-5.3,4-46.7,6.4-67.8
				c0.8-7.4,1.4-12.3,1.4-12.3l19.1,0.4c0,0,0.2,7,0.4,16.9C1423.4,740.5,1424.1,776.3,1423.6,780.5z"/>
			<path class="st15" d="M1423.6,780.5c-0.7,6.1-6.3,7.9-13.3,8.3s-14.1-0.2-14.8-7.4c-0.5-5.3,4-46.7,6.4-67.8
				c3.3-2.1,7.5-0.5,11-1.3c1.8-0.4,6,2.7,9.9,6.3C1423.4,740.5,1424.1,776.3,1423.6,780.5z"/>
			<path class="st14" d="M1504.2,780.3c-0.2,7.2-7.2,8.3-14.2,8.5c-1.7,0-3.5-0.1-5.2-0.3c-4.5-0.7-7.8-2.6-8.7-7
				c-0.7-3.9-2.6-36.1-3.8-58.1c-0.3-5.2-0.5-9.8-0.7-13.4c-0.2-4.4-0.4-7.2-0.4-7.2l19-1.9c0,0,0.3,1.7,0.9,4.6
				C1494.3,721.5,1504.3,774.2,1504.2,780.3z"/>
			<path class="st15" d="M1504.2,780.3c-0.2,7.2-7.2,8.3-14.2,8.5c-1.7,0-3.5-0.1-5.2-0.3c-1.6-9.3-8.6-45.4-12.5-65.1l-2.5-12.9
				l1.8-0.5c4-1,13.8-3.4,19.6-4.5C1494.3,721.5,1504.3,774.2,1504.2,780.3z"/>
			<path class="st16" d="M1403.6,718.8c0,0-2.4,72.7-3.5,78.7s-6.7,7.5-13.7,7.5s-14-1-14.3-8.2c0-1.6,0.1-3.1,0.4-4.7l0,0
				c1.8-15.3,9.4-59.7,11.5-71.8c0.3-2,0.5-3.1,0.5-3.1L1403.6,718.8z"/>
			<path class="st15" d="M1403.6,718.8c0,0-2.4,72.7-3.5,78.7s-6.7,7.5-13.7,7.5s-14-1-14.3-8.2c0-1.6,0.1-3.1,0.4-4.7
				c0.7,1.4,1.8,2.6,3.1,3.3c4.4,2,9.6,0.8,12.6-2.9c3.9-4.6,7.9-50.9,5.3-61.3c-2.1-8-7.2-10.3-9.4-10.9c0.3-2,0.5-3.1,0.5-3.1
				L1403.6,718.8z"/>
			<path class="st16" d="M1496.5,695.5c-0.4-0.8-1.1-1.5-1.9-2c-1.5-1.2-4.5-2.4-8.8-3.4c-10.3-2.4-27.6-4-47.3-4
				c-17.5,0-33.1,1.2-43.6,3.2c-6.9,1.3-11.5,2.8-13,4.6c-0.1,0.2-0.3,0.3-0.4,0.5c-1.7,2-2.9,6-2.9,10.5s1.2,8.6,2.9,10.5
				c2.4,4.6,27,8.3,57,8.3c9.2,0,17.9-0.3,25.7-1c6.5-0.5,13-1.3,19.5-2.5c5.4-1.1,9.2-2.4,10.9-3.8c2.3-1.3,4.1-6,4.1-11.6
				C1498.8,701.7,1498.1,698.5,1496.5,695.5z"/>
			<path class="st16" d="M1494.6,797c-0.4,7.2-7.4,8.1-14.4,8s-12.7-1.7-13.6-7.7c-0.1-0.4-0.1-1.1-0.2-2
				c-0.8-10.6-1.8-54.2-2.2-70.6c0-0.7,0-1.3,0-1.9c-0.1-2.7-0.1-4.3-0.1-4.3l19.1-1.3c0,0,0.2,1.1,0.5,3
				C1485.9,734.2,1494.9,790.7,1494.6,797z"/>
			<path class="st15" d="M1494.6,716.6c-1.8,1.4-5.6,2.7-10.9,3.8c2.2,13.8,11.3,70.3,10.9,76.6c-0.4,7.2-7.4,8.1-14.4,8
				s-12.7-1.7-13.6-7.7c-0.1-0.4-0.1-1.1-0.2-2c3.3,0,8.1,0,10.5-2.7c2.9-3.2,2.4-9.1,2.2-13c-0.4-8.6-0.8-17.3-1.7-25.9
				c-0.5-4.3-1.1-8.5-2-12.7c-0.8-3.9-1.5-7.9-3.2-11.5c-0.6-1.5-1.6-2.8-2.9-3.7c-0.5-0.3-5.1-1.7-5.1-1.1c0-0.7,0-1.3,0-1.9
				c-7.7,0.6-16.4,1-25.7,1c-30,0-54.6-3.6-57-8.3c-1.7-2-2.9-6-2.9-10.5s1.2-8.5,2.9-10.5c0.1-0.2,0.2-0.4,0.4-0.5
				c2.8,2.1,9.2,5.7,20.8,7c17,2,49.8,2.3,67.2,1c9.2-0.7,18.2-2.9,26.7-6.5c1.5,2.9,2.3,6.2,2.2,9.5
				C1498.7,710.7,1497,715.3,1494.6,716.6z"/>
			<g class="st17">
				<path class="st18" d="M1465.6,724c-0.6,0-1-0.4-1-1s0.4-1,1-1c0,0,4.6-0.3,8.6-0.8c2.5-0.3,4.9-0.7,7.4-1.2
					c0.6-0.1,1.1,0.2,1.2,0.8s-0.2,1.1-0.8,1.2c-2.5,0.6-5.1,1-7.6,1.3C1470.3,723.7,1465.7,724,1465.6,724L1465.6,724z"/>
			</g>
			<g class="st17">
				<path class="st18" d="M1402,722.8h-0.2c0,0-5.4-0.8-8.6-1.4c-2.7-0.6-5.4-1.4-8.1-2.3c-0.5-0.2-0.8-0.7-0.6-1.3l0,0
					c0.2-0.5,0.8-0.8,1.3-0.6c2.6,0.9,5.1,1.6,7.8,2.2c3.1,0.6,8.5,1.4,8.5,1.4c0.5,0.1,0.9,0.6,0.8,1.1l0,0
					C1402.9,722.4,1402.5,722.7,1402,722.8z"/>
			</g>
			<path class="st19" d="M1485.8,690.2c-10.2,2.3-26,3.8-43.9,3.8c-19.8,0-37.2-1.8-47-4.6c10.5-1.9,26.1-3.2,43.6-3.2
				C1458.2,686.2,1475.6,687.8,1485.8,690.2z"/>
			<path class="st20" d="M1023.8,588.2h173.4c1.4,0,2.6,1.2,2.6,2.6v4.3c0,1.4-1.2,2.6-2.6,2.6h-173.4c-1.4,0-2.6-1.2-2.6-2.6v-4.3
				C1021.2,589.3,1022.3,588.2,1023.8,588.2z"/>
			<path class="st21" d="M1101.7,480.7h8.8l0,0v104.4c0,0.4-0.4,0.8-0.8,0.8l0,0h-7.2c-0.4,0-0.8-0.4-0.8-0.8l0,0V480.7
				L1101.7,480.7z"/>
			<path class="st22" d="M1108.8,586.2h-5.5c-1.1,0-2-0.9-2-2V480.7c0-0.2,0.1-0.3,0.3-0.3h8.8c0.2,0,0.3,0.1,0.3,0.3l0,0v103.5
				C1110.7,585.3,1109.9,586.1,1108.8,586.2z M1102,481v103.2c0,0.7,0.6,1.3,1.3,1.3h5.5c0.7,0,1.3-0.6,1.3-1.3V481H1102z"/>
			<rect x="1101.7" y="480.7" class="st23" width="8.8" height="28.9"/>
			<path class="st21" d="M1052.1,593.9h-6.1c-0.9,0-1.7-0.7-1.7-1.6c0-0.2,0-0.3,0.1-0.5l31.2-111.1h9.5l-31.5,112
				C1053.4,593.4,1052.8,593.9,1052.1,593.9z"/>
			<path class="st22" d="M1052.1,594.2h-6.1c-1.1,0-2-1-1.9-2.1c0-0.1,0-0.3,0.1-0.4l31.2-111.1c0-0.1,0.2-0.2,0.3-0.2h9.5
				c0.1,0,0.2,0,0.2,0.1c0.1,0.1,0.1,0.2,0.1,0.3l-31.5,112C1053.7,593.6,1052.9,594.2,1052.1,594.2z M1075.9,481l-31.2,110.9
				c-0.1,0.4,0,0.8,0.2,1.2c0.3,0.3,0.7,0.5,1.1,0.5h6.1c0.6,0,1.1-0.4,1.3-1l31.4-111.6L1075.9,481L1075.9,481z"/>
			<polygon class="st23" points="1077,509.6 1085.1,480.7 1075.6,480.7 1067.5,509.6 			"/>
			<path class="st21" d="M1160.1,593.9h6.1c0.9,0,1.7-0.7,1.7-1.6c0-0.2,0-0.3-0.1-0.5l-31.3-111.1h-9.5l31.5,112
				C1158.7,593.4,1159.4,593.9,1160.1,593.9z"/>
			<path class="st22" d="M1166.2,594.2h-6.1c-0.9,0-1.6-0.6-1.9-1.4l-31.5-112c0-0.1,0-0.2,0-0.3c0.1-0.1,0.1-0.1,0.2-0.1h9.5
				c0.1,0,0.3,0.1,0.3,0.2l31.2,111.1c0.3,1.1-0.4,2.2-1.5,2.4C1166.4,594.2,1166.3,594.2,1166.2,594.2L1166.2,594.2z M1127.4,481
				l31.4,111.6c0.2,0.6,0.7,1,1.3,1h6.1c0.4,0,0.8-0.2,1.1-0.5c0.2-0.3,0.3-0.8,0.2-1.2L1136.3,481H1127.4z"/>
			<polygon class="st23" points="1144.7,509.6 1136.5,480.7 1127,480.7 1135.2,509.6 			"/>
			<path class="st23" d="M1107.1,480.7v103.5c0,0.9,0.7,1.7,1.7,1.7l0,0h0.1c0.9,0,1.7-0.7,1.7-1.6l0,0V480.7H1107.1z"/>
			<path class="st23" d="M1081.7,480.7l-31.2,111.1c-0.2,0.9,0.3,1.8,1.1,2c0.1,0,0.3,0.1,0.5,0.1l0,0c0.7,0,1.4-0.5,1.6-1.2
				l31.5-112L1081.7,480.7z"/>
			<path class="st23" d="M1136.5,480.7h-3.4l31.5,112c0.2,0.7,0.8,1.2,1.6,1.2l0,0c0.9,0,1.7-0.7,1.7-1.6c0-0.2,0-0.3-0.1-0.5
				L1136.5,480.7z"/>
			
				<radialGradient id="SVGID_3_" cx="1006.01" cy="105.43" r="274.39" gradientTransform="matrix(1 0 0 1 0 180)" gradientUnits="userSpaceOnUse">
				<stop  offset="0" style="stop-color:#EDC578"/>
				<stop  offset="0.21" style="stop-color:#EAC074"/>
				<stop  offset="0.44" style="stop-color:#E0B268"/>
				<stop  offset="0.7" style="stop-color:#D09B55"/>
				<stop  offset="0.79" style="stop-color:#C9914C"/>
				<stop  offset="1" style="stop-color:#C9914C"/>
			</radialGradient>
			<path class="st24" d="M1004.7,364.8h202.1c1.6,0,2.8,1.3,2.8,2.8v133.6c0,1.6-1.3,2.8-2.8,2.8h-202.1c-1.6,0-2.8-1.3-2.8-2.8
				V367.6C1001.9,366.1,1003.1,364.8,1004.7,364.8z"/>
			<path class="st22" d="M1206.8,504.4h-202.1c-1.7,0-3.2-1.4-3.2-3.1l0,0V367.6c0-1.7,1.4-3.1,3.2-3.1l0,0h202.1
				c1.7,0,3.1,1.4,3.1,3.1v133.6C1210,503,1208.6,504.4,1206.8,504.4z M1004.7,365.1c-1.4,0-2.5,1.1-2.5,2.5v133.6
				c0,1.4,1.1,2.5,2.5,2.5h202.1c1.4,0,2.5-1.1,2.5-2.5l0,0V367.6c0-1.4-1.1-2.5-2.5-2.5l0,0H1004.7z"/>
			<rect x="1008.1" y="370.8" class="st25" width="195.4" height="126.7"/>
			<path class="st22" d="M1203.8,497.8h-196V370.5h196V497.8z M1008.4,497.2h194.8V371.1h-194.8L1008.4,497.2L1008.4,497.2z"/>
			<polygon class="st22" points="1008,370.9 1002.7,365.7 1002.8,365.5 1008.2,370.7 			"/>
			<polygon class="st22" points="1002.5,502.6 1002.4,502.5 1008,497.5 1008.2,497.7 			"/>
			<polygon class="st22" points="1209.1,503 1203.4,497.5 1203.5,497.4 1209.2,502.8 			"/>
			<polygon class="st22" points="1203.5,370.9 1203.4,370.7 1208.9,365.7 1209,365.8 			"/>
			<polygon class="st26" points="1009.4,501.4 1205.4,501.4 1203.1,499 1012.1,499 			"/>
			<polygon class="st26" points="1204.9,371.2 1207.6,368.9 1207.6,499.9 1204.9,496.7 			"/>
			<path class="st27" d="M1008.1,370.8v126.7h195.4V370.8H1008.1z M1199.7,434.5c0,0-0.2,50.4-99.9,50.9c0,0-83.6-1.6-87-50.9v-58.4
				h186.9V434.5z"/>
			<g class="st28">
				<path class="st29" d="M281,782.9v17.9h-74.6c-5.8,0-31.2-10.8-28.9-22.8c1.4-7.1,11.2-7.5,19-5.2c4.1,1.1,8,2.7,11.7,4.8l71,5.3
					H281z"/>
				<path class="st29" d="M281,777.2v16.9h-73.4c-5.5,0-29.8-11.2-25.5-18.4c2.4-5.4,11.3-3.8,18.7-1.7s10.4,3,10.4,3L281,777.2
					L281,777.2z"/>
				<g>
					<g>
						<defs>
							<path id="SVGID_4_" d="M281,777.2v16.9h-73.4c-5.5,0-29.8-11.2-25.5-18.4c2.4-5.4,11.3-3.8,18.7-1.7s10.4,3,10.4,3L281,777.2
								L281,777.2z"/>
						</defs>
						<clipPath id="SVGID_5_">
							<use xlink:href="#SVGID_4_"  style="overflow:visible;"/>
						</clipPath>
						<g class="st30">
							<path class="st29" d="M179.9,775.9c0,0,6.6-3.3,16.3,0.7s10.9,16,10.9,16s6.1-9.4,20.3-12s54.2-1,54.2-1l-0.5-3.4
								c0,0-86.5-8.3-93.8-6.7S179.9,775.9,179.9,775.9z"/>
							<path class="st29" d="M217.1,780.5c0,0.3-0.6,0.5-1.4,0.5s-1.4-0.2-1.4-0.5s0.6-0.5,1.4-0.5S217.1,780.3,217.1,780.5z"/>
							<path class="st29" d="M216.6,789.2c0,0.3-0.6,0.5-1.4,0.5s-1.4-0.2-1.4-0.5s0.6-0.5,1.4-0.5S216.6,789,216.6,789.2z"/>
						</g>
					</g>
				</g>
				<path class="st29" d="M281,782.9v11.2l-1,2.7l1,4.1h74.5c5.8,0,31.2-10.8,28.9-22.8c-1.4-7.1-11.2-7.5-19-5.2
					c-4.1,1.1-8,2.7-11.7,4.8l-71,5.3L281,782.9z"/>
				<path class="st29" d="M281,777.2l69.7-0.2c0,0,3.1-0.8,10.4-3s16.2-3.7,18.7,1.7c4.3,7.2-20,18.4-25.5,18.4H281l-1.4-8.2
					l1.4-6.3V777.2L281,777.2z"/>
				<g>
					<g>
						<defs>
							<path id="SVGID_6_" d="M281,777.2l69.7-0.2c0,0,3.1-0.8,10.4-3s16.2-3.7,18.7,1.7c4.3,7.2-20,18.4-25.5,18.4H281l-1.4-8.2
								l1.4-6.3V777.2L281,777.2z"/>
						</defs>
						<clipPath id="SVGID_7_">
							<use xlink:href="#SVGID_6_"  style="overflow:visible;"/>
						</clipPath>
						<g class="st31">
							<path class="st29" d="M382.1,775.9c0,0-6.6-3.3-16.3,0.7s-10.9,16-10.9,16s-6.1-9.4-20.3-12s-54.2-1-54.2-1l0.5-3.4
								c0,0,86.5-8.3,93.8-6.7S382.1,775.9,382.1,775.9z"/>
							<path class="st29" d="M344.9,780.5c0,0.3,0.6,0.5,1.4,0.5s1.4-0.2,1.4-0.5s-0.6-0.5-1.4-0.5S344.9,780.3,344.9,780.5z"/>
							<path class="st29" d="M345.4,789.2c0,0.3,0.6,0.5,1.4,0.5s1.4-0.2,1.4-0.5s-0.6-0.5-1.4-0.5S345.4,789,345.4,789.2z"/>
						</g>
					</g>
				</g>
				<path class="st29" d="M354.9,796.2c0,0.6-0.5,1.2-1.2,1.2H207.8c-0.6,0-1.2-0.5-1.2-1.1l0,0l0,0c0-0.6,0.5-1.2,1.1-1.2l0,0
					h145.9C354.3,795.1,354.8,795.6,354.9,796.2z"/>
			</g>
			<rect x="216.8" y="781.7" class="st32" width="13.9" height="8.7"/>
			<path class="st33" d="M283.6,764.6v17.9h-74.5c-5.8,0-31.2-10.8-28.9-22.8c1.4-7.1,11.2-7.5,19-5.2c4.1,1.1,8.1,2.7,11.8,4.8
				l71,5.3H283.6z"/>
			<path class="st34" d="M283.6,758.9v16.9h-73.3c-5.5,0-29.8-11.2-25.5-18.4c2.4-5.4,11.3-3.8,18.7-1.7s10.4,3,10.4,3L283.6,758.9
				L283.6,758.9z"/>
			<g>
				<g>
					<defs>
						<path id="SVGID_8_" d="M283.6,758.9v16.9h-73.3c-5.5,0-29.8-11.2-25.5-18.4c2.4-5.4,11.3-3.8,18.7-1.7s10.4,3,10.4,3
							L283.6,758.9L283.6,758.9z"/>
					</defs>
					<clipPath id="SVGID_9_">
						<use xlink:href="#SVGID_8_"  style="overflow:visible;"/>
					</clipPath>
					<g class="st35">
						<path class="st36" d="M182.5,757.6c0,0,6.6-3.3,16.3,0.7s10.9,16,10.9,16s6.1-9.5,20.3-12s54.2-1,54.2-1l-0.5-3.4
							c0,0-86.5-8.3-93.8-6.7S182.5,757.6,182.5,757.6z"/>
						<path class="st37" d="M219.7,762.3c0,0.3-0.6,0.5-1.4,0.5s-1.4-0.2-1.4-0.5s0.6-0.5,1.4-0.5S219.7,762,219.7,762.3z"/>
						<path class="st37" d="M219.2,771c0,0.3-0.6,0.5-1.4,0.5s-1.4-0.2-1.4-0.5s0.6-0.5,1.4-0.5S219.2,770.7,219.2,771z"/>
					</g>
				</g>
			</g>
			<path class="st38" d="M237,798.5c0-7.4-6-13.3-13.3-13.3s-13.3,6-13.3,13.3s6,13.3,13.3,13.3l0,0C231,811.8,237,805.8,237,798.5
				L237,798.5z"/>
			<path class="st39" d="M231.2,798.5c0-4.1-3.4-7.5-7.5-7.5s-7.5,3.4-7.5,7.5s3.4,7.5,7.5,7.5l0,0
				C227.8,806,231.2,802.6,231.2,798.5L231.2,798.5z"/>
			<path class="st40" d="M226.8,798.5c0-1.7-1.4-3.2-3.1-3.2c-1.7,0-3.2,1.4-3.2,3.1s1.4,3.2,3.1,3.2l0,0
				C225.4,801.6,226.8,800.2,226.8,798.5z"/>
			<path class="st41" d="M214.6,789.6c2.6-2.6,6.1-4.1,9.8-4c5.3,0,9.3,4.6,10.1,6.4s0.5,3.5-1,3.8s-1.9-3.9-5.7-5.8
				c-3.1-1.6-6.7-1.4-9.6,0.5c-2.6,1.6-3.1,3.1-4.5,2.9S212.9,791,214.6,789.6z"/>
			<path class="st42" d="M222.1,786.4c-0.7,0-1.7,0.5-1.7,1.2s2.6,0.7,5,0.7c2.2,0.1,4.3,1.1,5.7,2.9c1.3,1.7,1.6,3.3,2.4,3.4
				s0.6-3-1.8-5.4S226.3,785.9,222.1,786.4z"/>
			<rect x="338.6" y="781.7" class="st32" width="13.9" height="8.7"/>
			<path class="st33" d="M283.6,764.6v11.2l-1,2.7l1,4.1h74.5c5.8,0,31.2-10.8,28.9-22.8c-1.4-7.1-11.2-7.5-19-5.2
				c-4.1,1.1-8,2.7-11.7,4.8l-71,5.3L283.6,764.6L283.6,764.6z"/>
			<path class="st34" d="M283.6,758.9l69.7-0.2c0,0,3.1-0.8,10.4-3s16.2-3.7,18.7,1.7c4.3,7.2-20,18.4-25.5,18.4h-73.3l-1.4-8.2
				l1.4-6.3L283.6,758.9L283.6,758.9z"/>
			<g>
				<g>
					<defs>
						<path id="SVGID_10_" d="M283.6,758.9l69.7-0.2c0,0,3.1-0.8,10.4-3s16.2-3.7,18.7,1.7c4.3,7.2-20,18.4-25.5,18.4h-73.3
							l-1.4-8.2l1.4-6.3L283.6,758.9L283.6,758.9z"/>
					</defs>
					<clipPath id="SVGID_11_">
						<use xlink:href="#SVGID_10_"  style="overflow:visible;"/>
					</clipPath>
					<g class="st43">
						<path class="st36" d="M384.7,757.6c0,0-6.6-3.3-16.3,0.7s-10.9,16-10.9,16s-6.1-9.5-20.3-12s-54.2-1-54.2-1l0.5-3.4
							c0,0,86.5-8.3,93.8-6.7S384.7,757.6,384.7,757.6z"/>
						<path class="st37" d="M347.5,762.3c0,0.3,0.6,0.5,1.4,0.5s1.4-0.2,1.4-0.5s-0.6-0.5-1.4-0.5S347.5,762,347.5,762.3z"/>
						<path class="st37" d="M348,771c0,0.3,0.6,0.5,1.4,0.5s1.4-0.2,1.4-0.5s-0.6-0.5-1.4-0.5S348,770.7,348,771z"/>
					</g>
				</g>
			</g>
			<path class="st38" d="M332.2,798.5c0-7.4,6-13.3,13.3-13.3s13.3,6,13.3,13.3s-6,13.3-13.3,13.3l0,0
				C338.1,811.8,332.2,805.8,332.2,798.5L332.2,798.5z"/>
			<path class="st39" d="M338,798.5c0-4.1,3.4-7.5,7.5-7.5s7.5,3.4,7.5,7.5s-3.4,7.5-7.5,7.5l0,0C341.4,806,338,802.6,338,798.5
				L338,798.5z"/>
			<path class="st40" d="M342.4,798.5c0-1.7,1.4-3.2,3.1-3.2s3.2,1.4,3.2,3.1c0,1.7-1.4,3.2-3.1,3.2l0,0
				C343.8,801.6,342.4,800.2,342.4,798.5z"/>
			<path class="st41" d="M354.6,789.6c-2.6-2.6-6.1-4.1-9.8-4c-5.3,0-9.3,4.6-10.1,6.4s-0.5,3.5,1,3.8s1.9-3.9,5.7-5.8
				c3.1-1.6,6.7-1.4,9.6,0.5c2.6,1.6,3.1,3.1,4.5,2.9S356.3,791,354.6,789.6z"/>
			<path class="st42" d="M347.1,786.4c0.7,0,1.7,0.5,1.7,1.2s-2.6,0.7-5,0.7c-2.2,0.1-4.3,1.1-5.7,2.9c-1.3,1.7-1.6,3.3-2.4,3.4
				s-0.6-3,1.8-5.4S342.9,785.9,347.1,786.4z"/>
			<path class="st44" d="M357.5,778c0,0.6-0.5,1.2-1.2,1.2H210.4c-0.6,0-1.2-0.5-1.2-1.1l0,0l0,0c0-0.6,0.5-1.2,1.1-1.2l0,0h145.9
				C357,776.8,357.5,777.4,357.5,778z"/>
			<ellipse class="st27" cx="250.4" cy="703.5" rx="37.9" ry="11"/>
			<path class="st45" d="M296.1,660.7c-1.4-9.9-6.2-19-13.7-25.6l-11.1-0.5l-8-9.4c-3.3-0.8-6.7-1.2-10.1-1.2
				c-5.9,0-11.7,1.2-17.1,3.4l-6.5,13.4l-14.8,5.8c-3.2,6-4.9,12.7-4.9,19.6c0,2.4,0.2,4.7,0.6,7.1l11.6,9.5l2,14.7
				c7.1,6.2,16,10,25.4,10.8l11.1-7.3l12.9,2.5c8.9-4.6,16-12.2,19.8-21.5l-2.4-11.8L296.1,660.7z"/>
			<path class="st46" d="M293.4,682c2.8-6.7,3.7-14.1,2.7-21.3l-4.7,8.8l-13.6-3.7L267.7,646l5.5-10.6l9.3-0.3
				c-5.4-4.8-12-8.2-19.1-9.9l7.8,9.3l-5.8,10l-23.3,3.9l-11-9.1l5.1-11.7c-9.1,3.8-16.6,10.6-21.3,19.2l14.8-5.8l0.1-0.2l9.1,9.9
				l-3.9,23.6l-13.3,8.2l-11-9c1.7,9.4,6.5,17.9,13.6,24.2l-2-14.5l14.3-6.6l23.2,10.6l1.3,14h-0.3l-11.1,7.2
				c1.2,0.1,2.4,0.2,3.7,0.2c7.1,0,14-1.7,20.3-4.9l-11.8-2.2l0.4-14.9l14.8-16.7l0.8-0.8l13.2,2.3L293.4,682z"/>
			<path class="st47" d="M250.2,629.7c23.3,0,42.2,18.5,42.2,41.2c0,5.9-1.3,11.8-3.9,17.2c4.9-6.9,7.6-15.1,7.6-23.5
				c0-22.8-18.9-41.2-42.3-41.2c-16.4-0.1-31.3,9.2-38.4,24C223.6,636.2,236.5,629.6,250.2,629.7z"/>
			<polygon class="st13" points="1210.4,590.4 1240.3,613.1 1477.1,614.7 1424.1,591.4 			"/>
			<rect x="1243.3" y="607.5" class="st48" width="14.6" height="1.9"/>
			<rect x="1436.2" y="607.5" class="st48" width="14.6" height="1.9"/>
			<rect x="1215.1" y="589" class="st48" width="14.6" height="1.9"/>
			<rect x="1238.8" y="454.9" class="st49" width="225.3" height="152.6"/>
			<path class="st50" d="M1238.8,454.9l-24.4,6.8c-0.1-3.5,0.5-10.3,0.4-13.9c6.4-2.7,12.2-4.1,24-8.1V454.9z"/>
			<rect x="1238.8" y="454.9" class="st48" width="225.3" height="7"/>
			<rect x="1252.2" y="476.5" class="st48" width="198.5" height="51.6"/>
			<rect x="1252.3" y="534.4" class="st48" width="198.5" height="51.6"/>
			<rect x="1254.1" y="474.9" class="st51" width="194.6" height="49.3"/>
			<rect x="1254.3" y="534.4" class="st51" width="194.6" height="49.3"/>
			<polygon class="st50" points="1254.1,476.5 1254.1,525.8 1448.7,525.8 1274.7,508 			"/>
			<polygon class="st50" points="1254.3,534.4 1254.3,583.7 1448.8,583.7 1274.8,566 			"/>
			<rect x="1238.8" y="439.7" class="st51" width="229.9" height="15.2"/>
			<path class="st51" d="M1238.8,454.9l-24.4,6.8c-0.2,42.1-0.4,84.2-0.6,126.3l25.1,19.4L1238.8,454.9z"/>
			<g class="st52">
				<path class="st53" d="M1355.8,439.6c0-2.3,2.2-4.1,4.8-4.1h64.9c2.6,0,4.8,1.9,4.8,4.1s-2.2,4.1-4.8,4.1h-64.9
					C1357.9,443.7,1355.8,441.8,1355.8,439.6z"/>
			</g>
			
				<rect x="1337.7" y="346.1" transform="matrix(0.707 -0.7072 0.7072 0.707 163.0957 1089.2052)" class="st54" width="116.8" height="3.3"/>
			<polygon class="st55" points="1360.4,385.9 1358.1,383.5 1374.2,367.5 1378.8,367.5 			"/>
			<rect x="1388.1" y="401.1" class="st54" width="10.1" height="19.3"/>
			<path class="st55" d="M1433.9,312.4l4.6-4.6l-2.3-2.3l-4.4,4.4C1432.6,310.6,1433.3,311.5,1433.9,312.4z"/>
			<path class="st54" d="M1356.7,389.6c-0.9-0.7-1.7-1.4-2.6-2.1l-0.4,0.5l2.3,2.3L1356.7,389.6z"/>
			<path class="st56" d="M1388.1,402.8c1.6,0.1,3.1,0.2,4.7,0.1c1.8,0,3.6-0.1,5.3-0.3v17.2c-0.9,0.2-1.9,0.3-2.8,0.3
				c-0.3,0,0.4-9.9,0-9.9c-1.3,0-6,0-7.2-0.1V402.8z"/>
			<path class="st54" d="M1391.9,407.1h1.1c16.6-0.2,32.4-7.1,43.8-19c23.6-24.6,23.2-63.6-0.9-87.7l-5.1,5.2
				c21.3,21.3,21.7,55.7,0.8,77.5c-21.1,21.9-56,22.5-77.9,1.4c0,0,0,0-0.1-0.1l-5.1,5.3C1360.1,400.8,1375.7,407.1,1391.9,407.1z"
				/>
			<path class="st54" d="M1423.4,433.2c-2.5-10.3-15.1-18.2-30.2-18.2s-27.8,7.9-30.2,18.2H1423.4z"/>
			<path class="st57" d="M1393.5,433.2h29.9c-2.4-10.3-14.9-18.1-29.9-18.2V433.2z"/>
			<path class="st54" d="M1358.7,435.6c0-1.3,1.1-2.4,2.4-2.4l0,0h63.2c1.3,0,2.4,1.1,2.4,2.4l0,0l0,0v4.5h-67.9L1358.7,435.6
				L1358.7,435.6z"/>
			<path class="st58" d="M1440.9,345.1c0-25.3-19.7-46.2-44.9-47.8c-1.8-0.1-3.6-0.1-5.7,0c-25.3,1.5-45,22.5-45,47.8
				c0,1.5,0.1,3.1,0.2,4.6l-0.2-0.4c2.1,24.1,21.8,42.8,46,43.7h1.5h0.6h1.5c24.2-0.9,43.9-19.6,46-43.7l-0.2,0.4
				C1440.8,348.1,1440.9,346.6,1440.9,345.1z"/>
			<g>
				<defs>
					<path id="XMLID_1_" d="M1440.9,345.1c0-25.3-19.7-46.2-44.9-47.8c-1.8-0.1-3.6-0.1-5.7,0c-25.3,1.5-45,22.5-45,47.8
						c0,1.5,0.1,3.1,0.2,4.6l-0.2-0.4c2.1,24.1,21.8,42.8,46,43.7h1.5h0.6h1.5c24.2-0.9,43.9-19.6,46-43.7l-0.2,0.4
						C1440.8,348.1,1440.9,346.6,1440.9,345.1z"/>
				</defs>
				<clipPath id="XMLID_3_">
					<use xlink:href="#XMLID_1_"  style="overflow:visible;"/>
				</clipPath>
				<g class="st59">
					<g class="st60">
						<path class="st61" d="M1364.4,383.9l-0.8-2.3l1.1-3.1l1.1-3.1l2.8-5.4c1.6-3.2,2.9-5.6,3-5.9s-0.2-0.4-1-1.2l-1-1.2l-0.1-3.8
							c0-2.3,0-4,0-4.3c0.2-0.4,0.5-0.7,0.8-0.9c0.6-0.5,1-1.1,1.2-1.9l0.4-1l-1.2-0.4l-1.4-0.5c0-0.3-0.2-0.9-0.3-1.5l-0.1-1.5
							l-0.8-0.3h-0.9l-2-2.7l-2.1-2.5l-0.4-1.6c-0.2-0.5-0.4-0.9-0.7-1.4c0-0.3-0.5-0.5-1-0.6l-0.9-0.3l-1.4-5.1l-1.4-5.1l0.9-2.3
							l0.8-2l-0.4-1.6c-0.1-0.7-0.3-1.3-0.5-1.9c0-0.3-0.3-0.4-0.7-0.2l-0.6-0.2c-0.1-0.4-0.1-0.8-0.2-1.2c-0.1-0.9,0-1.2,0.5-1
							l0.3,0.1c-0.4-1.4-0.9-2.7-1.6-4c-0.1,0-0.9-0.6-1.8-1.2l-1.7-0.9l-5.2,1.1c-2.8,0.5-5.2,0.8-5.2,0.8c0.1-0.3,0.8-0.6,1.9-1.4
							c0.7-0.3,1.3-0.7,1.9-1.1c0,0-0.3-0.7-0.7-1.4s-0.8-1.4-0.8-1.4c0.1-0.3,0.4-1.9,0.7-3.8c0.7-3.2,0.7-3.5,1-3.7
							c0.1,0,1.1-0.2,2.2-0.4l2.1-0.5l8.4,4c4.6,2.2,8.5,4.1,8.7,4.1s0.3,0.1,0.2-0.2c-0.1,0-0.5-0.8-1-1.5c-0.4-0.5-0.8-1.1-1-1.8
							c-0.1,0,0.1-0.5,0.8-1.7c0.3-0.6,0.7-1.2,1.1-1.6c0.1,0,4.8-0.4,10.6-1l10.3-0.8l2.5,1.1c3.7,1.5,4.3,1.8,4.2,2
							c0,0-1.9,1.4-4.2,2.6c-2.3,1.5-4.2,2.9-4.3,2.9s-0.1,0.3,0,0.3c0,0.3,1.3,2.5,2.7,5.3c1.5,2.5,2.7,4.9,2.7,4.9
							s-0.8,0.6-1.9,1.4l-1.7,0.9l-2.3-1.1c-0.8-0.5-1.5-1-2.2-1.6c0.2-0.5,0.4-1,0.7-1.5c0.3-0.5,0.5-1,0.7-1.5
							c0-0.3-0.2-0.3-0.7-0.5s-0.8-0.3-0.9,0c-0.3,0.3-0.5,0.6-0.8,0.9l-0.7,0.9l-0.1,1.1c0,0.4-0.1,0.7-0.2,1.1l-1.5-0.5
							c-2.3-1.1-1.9-1.2-3.4,0c-0.5,0.4-1,0.8-1.4,1.3c0,0.4,0.1,0.7,0.3,1c0.2,0.6,0.7,1.1,1.3,1.3c0.3,0.4,0.7,0.7,1.2,1
							c0.4,0.6,0.7,1.3,0.9,2c0.2,0.7,0.4,1.4,0.7,2c0.8-0.7,1.4-1.6,1.9-2.5c0,0,0-0.3,0-0.6s0-0.6,0.4-1.9s0.5-1.5,0.7-1.5
							c0.6,0.2,5.4,3,5.4,3.3c0.5,1.3,1,2.6,1.3,3.9c1,3.2,1.2,3.6,1,3.8c-0.1,0-1.9,0.5-4,1c-1.3,0.4-2.6,0.8-3.9,1
							c-0.2,0.4-0.4,0.8-0.6,1.3l-0.4,1l-0.6-0.2c-0.6-0.2-0.6-0.2-1.3,0.1s-0.8,0.6-0.8,0.9c-0.2,1.4,0,1.1-2,2.2
							c-0.6,0.2-1.2,0.5-1.8,0.8c-0.1,0.5-0.2,0.9-0.2,1.4c-0.1,1.7,0,1.4-0.8,1.2s-0.7-0.2-0.8-1.1c-0.4-1.3-0.2-1.2-2.4-2
							l-2.1-0.7c-0.9,0.8-1.8,1.7-2.6,2.6c0.2,0.9,0.6,1.7,1.2,2.4c0.4,0,0.8,0,1.3-0.1l1-0.2l0.4,0.4l0.4,0.4l-0.3,0.8
							c-0.2,0.5-0.4,1-0.5,1.3l-0.2,0.5l0.6,0.2c0.3,0.1,0.6,0.2,0.6,0.5c0,0.4,0,0.8-0.1,1.1c-0.3,1.6-0.4,1.3,1.2,1.9l1.4,0.5
							l1.5-0.1l1.6-0.3l0.7,0.8c0.8,0.5,1.6,1,2.4,1.4l1.8,0.6c0,0.5-0.1,0.9-0.2,1.4c-0.2,0.8-0.3,1.4-0.2,1.4l1.4,0.5
							c0.4,0.2,0.9,0.4,1.2,0.7c0,0.5-0.1,0.9-0.2,1.4c-0.2,0.8-0.2,1.4-0.2,1.4c0,0.3,0.3,0.4,0.9,0.6l0.9,0.3l1.9,2.7
							c1,1.5,1.8,2.9,1.8,2.9s-0.5,0.4-1.1,0.8s-1.1,0.8-1.1,0.8s-0.4,1-0.9,2l-0.7,1.5l-0.8,0.6c-1,0.5-14.8,8.8-15.2,9.2
							c-0.3,0.2-0.3,0.2-0.3,0.8c0,0.5-0.1,0.9-0.3,1.4l-0.3,0.8l-1.1,0.8c-0.4,0.1-0.7,0.3-1,0.5c0,0.3,0.1,0.7,0.3,1
							c0.1,0.6,0.2,1.2,0.2,1.2c-0.4,0.5-0.9,0.9-1.5,1.2c-0.1,0-0.4-1.3-0.9-2.6L1364.4,383.9z M1469.6,416.3
							c-0.1-0.4-0.1-0.8,0-1.2c0.2-1.4,0.1-1.1,2.7-2.8c1.2-0.7,2.3-1.5,2.3-1.5c0.1-0.5,0-1-0.2-1.5c-0.2-0.6-0.3-1.2-0.3-1.2
							c0.3-0.4,0.8-0.8,1.2-1c0.1,0.4,0.2,0.9,0.3,1.3l0.2,1.2l-0.4,1.9c-0.6,2.7-0.4,2.4-2.7,4l-2,1.3l-0.5-0.2L1469.6,416.3
							L1469.6,416.3z M1460.8,407c-0.4-0.1-0.8-0.3-0.9-0.6c-0.5-1-1.1-2-1.8-2.9c-0.5-0.9-1-1.8-1.6-2.6c-0.1,0-0.2,0.2-0.3,0.5
							l-0.2,0.2c-2.2-0.1-4.4-0.2-6.6-0.5c0.1-0.4,0.4-0.9,0.7-1.2l0.7-1.2c0.1-0.3-0.1-0.6-0.4-0.7l-0.4-0.7l0.5-1.6l0.6-1.8
							l0.4-0.1c0.8-0.3,9.8-3,9.9-3s0.7,0.8,1.4,1.6c0.4,0.7,0.9,1.3,1.4,1.9c0.1,0,0.3-0.2,0.5-0.7c0.2-0.4,0.4-0.8,0.7-1.2
							l0.6,0.2l0.5,0.2l1,4.7c0.4,1.6,0.7,3.3,0.9,4.9c0,0-4.9,5.2-5.3,5.4C1462.8,407.9,1461.9,407.6,1460.8,407L1460.8,407z
							 M1409,386.4c-0.5-0.4-1.1-0.6-1.7-0.9c0-0.3,0-2.6,0-5.5l0.1-5.4l0.7-0.6l0.7-0.4l0.4-1.3l0.5-1.5l-0.3-0.7
							c-0.2-0.8-0.4-1.5-0.7-2.3l-0.4-1.3l0.7-0.3c0.2-0.1,0.4-0.2,0.6-0.4c-0.3-0.4-0.6-0.8-1-1.2l-0.8-1.4l-2.7-0.9
							c-2.6-1.2-2.6-1.2-2.9-1.6s-0.6-1-0.9-2c-0.4-0.7-0.8-1.4-0.8-1.4c0-0.3,0.5-1.9,1.1-3.7l1-3.1l4.6-2.2l4.5-1.9l2,0.4l2,0.4
							l0.3,0.7c0.3,0.7,0.3,0.7,0.1,1.2l-0.3,0.8l1.2,1c0.7,0.5,1.2,1,1.3,1c0.4-0.1,0.7-0.3,1-0.5c0.3-0.1,0.7-0.2,1-0.2
							c0.2,0.2,0.4,0.5,0.5,0.7l0.4,0.4l2,1l2,0.7c-0.1-0.5-0.3-0.9-0.5-1.3c-0.1,0-0.4-1.6-0.9-1.3c-0.3,1-1.1,0.6-1.2,0.5
							s-0.4-0.7-0.8-1.1c-0.5-0.7-0.6-1.1-0.6-1.4l0.3-1.4c0.2-0.8,0.1-1.6-0.3-2.4c-0.9-2.6-1-2.6-1.2-2.7
							c-0.2,0.2-0.3,0.2-0.4,0.5c0,0,0.2,0.9,0.4,1.9c0.4,1.6,0.4,1.9,0.2,2.1c-0.5,0.5-1,0.9-1.7,1.2c-0.1,0-0.1-0.3,0.1-1.7
							c0.1-0.8-0.1-0.9-1.1-2.7l-0.5-0.7l-0.9,0.6c-0.8,0.3-0.8,0.3-1.1-0.1l-0.5-0.2c-1,0.3-1.9,0.8-2.8,1.4
							c-1.4,0.6-2.8,1.4-2.9,1.3s-0.1-0.3-0.1-3.2c0-2,0-2,0.6-1.5l1.4,0.5l0.9,0.3l0.4-0.4c0.6-0.6,0.6-0.7,0.3-1.6
							c-0.2-0.3-0.2-0.6-0.2-0.9c0.4-0.2,0.8-0.4,1.2-0.5c1-0.5,1.2-0.5,1.7-0.3c0.7-0.1,1.4-0.3,2-0.8c0.6-0.2,1.1-0.5,1.5-0.9
							c0-0.3,0-0.6,0-0.9s0-0.6,0-0.6c0.1-0.3,1.1-0.5,1.3-0.4c0.1,0.2,0.2,0.4,0.3,0.7l0.1,0.9l1.9,0.4l1.9,0.7
							c0.2-0.2,0.3-0.5,0.5-0.7l0.3-0.5l2.2-0.1c1.3-0.1,2.3-0.4,2.4-0.4c0-0.2,0-0.4-0.1-0.6l-0.2-0.4l-1.3-0.1
							c-0.7,0-1.4,0.1-1.5,0.1c-0.1-0.7-0.2-1.4-0.1-2.1c0.3-0.2,0.7-0.4,1.1-0.5c0.6-0.4,1.1-0.5,1.2-0.8c-0.2-0.5-0.4-1-0.7-1.4
							c-0.2,0.2-3.5,2.6-3.5,2.6c0.1,0.2,0.1,0.4,0.2,0.7l0.2,0.6l-0.4,1l-0.4,1l-1-0.1c-1.6,0-1.7,0-1.7-0.9
							c-0.1-0.3-0.1-0.6-0.1-0.9c-0.4-0.1-0.9-0.2-1.4-0.2l-1.3-0.4c0.3-0.9,0.6-1.7,1.1-2.5c0.4-0.4,6-4.6,6.3-4.8s1-0.2,2.7,0
							c0.9-0.1,1.8-0.1,2.7,0.1c0.2,0,1.6,1.1,3.3,2.3c1,0.7,2.1,1.4,3.2,2c0.2,0.1-1.7,1.7-1.9,1.6c-0.3,0.2-0.2,0.2-1.3-0.5
							l-1.1-0.4c0,0.5,0.1,0.9,0.4,1.3l0.4,1.3l0.5-0.1c0.3-0.2,1.8-0.5,3.4-1.1l2.8-0.8l1.8,0.3l1.8,0.6c0.1-0.3-0.2-0.9-0.5-1.9
							s-0.5-1.9-0.5-1.9s0.9-0.6,1.9-1.1l2-1.3l2.2-0.1c2.2-0.4,2.3-0.4,2.4,0c0.1,0.5,0,0.9-0.1,1.4c-0.6,0-1.3,0.1-1.9,0.2
							c-0.7-0.1-1.4-0.1-2.1,0.1c-1,0.4-2,1-2.9,1.6c-0.1,0.3,0.2,0.6,1.6,2.6c0.7,0.8,1.3,1.6,1.3,1.6s0-0.3,0-0.6
							s-0.1-0.6-0.1-0.6c1.1-0.7,2.2-1.3,3.4-1.7c0.1,0,1.1,0.7,2.3,1.3s2.2,1.3,2.2,1.3s0.4-0.4,0.7-0.6l0.6-0.7l4.9-0.4l4.9-0.4
							l1.7,1.2c0.8,0.6,1.7,1.1,2.7,1.5c0.4,0.4,0.9,0.6,0.8,0.9c0,0-1,0.2-2.4,0.6s-2.3,0.6-2.3,0.7s2.7,1.5,5.9,2.9
							c3.2,1.7,6,2.9,6.3,3c0.4,0.1,0.5,0.1,1.9-0.5c0.5-0.4,1.1-0.7,1.7-0.9c0.1,0.4,0.2,0.8,0.3,1.2c0,0.4,0.1,0.8,0.2,1.2
							c0.1,0,1.5,0.8,3.1,1.6l3.1,1.3l0.7,0.8c0.9,0.9,0.9,0.9,3.6,1.5c0.8,0.1,1.6,0.3,2.4,0.5l0.4,0.1l-1.3,3.9
							c-0.7,2.1-1.4,3.9-1.5,4.1c-0.8-0.3-1.7-0.5-2.6-0.6c-0.9-0.3-1.8-0.5-2.7-0.6c-0.3,0.4-0.4,0.8-0.5,1.3l-0.3,1l-2.2,1.6
							c-0.8,0.6-1.5,1.2-2.4,1.8c-0.1,0,0-0.3-0.1-0.3c0.1-0.5,0.7-3.8,0.8-4.1c0,0,0.5-0.4,1.1-0.8c0.7-0.6,1.2-1,1.2-1
							c0.1-0.3,0.1-0.3-3.2-0.8l-2.8-0.7l-2.1,0.5c-1.1,0.2-2.1,0.4-2.2,0.4c-0.4,0.4-0.6,0.9-0.8,1.5c0.4,0.1,0.8,0.2,1.2,0.1
							c0.4,0.1,0.8,0.2,1.2,0.1c-0.1,0.7-0.3,1.4-0.5,2.1l-0.5,1.8l-0.4,0.2l-0.6-0.2c-0.7-0.3-1,0-1.4,0.7
							c-0.3,0.5-0.6,0.9-0.7,0.9s-1.1,0.5-2.2,0.7c-1.2,0.5-2,0.8-2,0.8c-0.1,0.3-0.1,0.6,0,0.9c0,0.4-0.1,0.8-0.3,1.1
							c-0.8,0.3-1.6,0.5-2.5,0.6c-0.1-0.5-0.1-1,0-1.4c0-0.5,0-1,0-1.4c-0.6,0-1.2,0.1-1.7,0.3c-0.1,0.3-0.5,1.5-1,3.1
							c-0.6,2.4-0.8,2.9-0.9,2.9c-0.2,0.2-1.9,0.5-3.9,1c-2.1,0.7-3.7,1-3.8,1.3c0,0,0.2,0.6,0.3,1.5c0.1,0.5,0.2,1,0.2,1.5
							c-1,0.4-2.1,0.7-3.3,0.9c-0.1-0.4-0.2-0.8-0.3-1.2c0-1.2-0.1-1.5-0.3-1.5c-0.4-0.1-0.5,0.1-0.6,1.5l-0.2,1.4l0.8,1.1
							c0.2,0.4,0.5,0.8,0.8,1.2c0,0.3-0.3,0.7-0.7,0.6c-0.3,0.2-0.4,0.1-0.9,0c-0.7-0.5-0.7-0.5-0.8,0s0,0.9,0.5,1s0.7,0.2,0.7,1.7
							c0,0.5,0,1,0.1,1.5c0.4,0.5,0.9,0.9,1.4,1.4c0.9,0.9,1.3,1.3,1.3,1.6s-0.2,1.1-0.3,1s-0.8-0.6-1.7-1.2
							c-0.6-0.4-1.1-0.7-1.8-0.9c-0.1,0-3.1-8.6-3.1-8.6c0.1-0.3,0.3-0.2,1,0.3c0.8,0.3,1,0.3,1,0.1c0,0-0.1-2-0.2-4.4l-0.3-4.1
							l0.3-1c0.3-1,0.4-1.3,0.2-1.4c-0.4-0.4-0.6-0.2-1.2,0.8l-0.6,1l-1.8,0.5c-0.7,0.3-1.4,0.6-2.1,1c-0.1,0-0.4,0.5-0.7,1.2
							l-0.5,1.3l-1.2,0.2c-0.4-0.1-0.9-0.2-1.3-0.2c-0.2,0-0.2-0.6-0.2-1.8c0-3.7,0-3.4-0.4-3.9l-0.4-0.4l0.4-1.3
							c0.4-1,0.5-1.6,0.4-1.6c-0.4-0.4-8.1-4.8-8.2-4.8c0,1,0.1,2,0.3,3c0.3,0.1,0.7,0.1,1,0h0.8l0.4,1.3c0.3,0.4,0.5,0.8,0.4,1.3
							c0,0-2.1,1.6-2.5,1.7c-0.7,0.1-1.5,0.1-2.3,0.1c-1.3,0.1-2.1,0.2-2.1-0.1c-0.3-1.6-0.6-3.2-0.7-4.9c-0.3-2.7-0.5-5.1-0.6-5.1
							c-0.1-0.3-0.7-0.5-1-0.4c-0.1,0-0.3,0.2-0.5,0.7l-0.4,1l0.3,3.6c0.4,3.3,0.4,3.3,0.8,4.3c0.8,1.1,1.2,1.8,1.4,1.6l1.5,0.5
							l1.3,0.4c-1.4,1.3-2.9,2.5-4.4,3.7c-2.4,2.1-4.4,3.7-4.4,3.7c-0.1,0.3-0.1,0.6,0,0.9c0.2,0.3,0.1,0.6-0.1,1.7
							c-0.5,2.1-0.3,1.9-2.4,2.6c-0.3,0.2-0.4,0.4-0.8,1.5c-0.2,0.5-0.5,1-0.6,1.2c-1,0.8-6.4,4.5-6.5,4.4L1409,386.4L1409,386.4z
							 M1425.9,348.1c1.1-0.5,1-0.5,3.4,0.6c0.5,0.4,1.1,0.6,1.6,0.9c0-0.5,0-1-0.1-1.5c-0.3-1.3-0.4-1.6-1.1-1.8
							c-0.3-0.1-0.3-0.1-0.5,0.4s-0.3,0.5-0.9,0.3c-0.3-0.1-0.5-0.2-0.7-0.8l-0.3-1l-1.3,1c-0.5,0.2-0.9,0.6-1.3,1
							c-0.1,0.3-0.1,1.1,0,1.1C1425.3,348.2,1425.6,348.1,1425.9,348.1L1425.9,348.1z M1440.4,352.7c0.1,0,0.3-0.5,0.3-0.8l0.1-0.5
							l-0.4-0.2c-0.5-0.2-0.6-0.2-0.8,0.9c-0.1,0.5-0.1,0.5,0.3,0.7S1440.3,352.7,1440.4,352.7L1440.4,352.7z M1343.5,359.2
							c-0.3-0.4-0.5-0.8-0.4-1c0.3-0.2,0.7-0.4,1-0.5l0.4-0.1l0.6,0.5c0.1,0.4,0.3,0.7,0.5,1c-0.3,0.5-0.8,0.9-1.4,1
							C1343.9,359.7,1343.7,359.5,1343.5,359.2L1343.5,359.2z M1420.8,384.1c-0.4-0.7-0.8-1.4-0.8-1.4c0.4-0.9,1-1.8,1.6-2.6
							c1-0.5,2.1-0.9,3.2-1.2c0.3,0.1,0.7,0.8,0.6,1.1c-1.1,1.8-2.3,3.5-3.6,5.1C1421.6,385.3,1421.4,384.9,1420.8,384.1
							L1420.8,384.1z M1341.1,355.7c-0.2-0.3-0.4-0.6-0.5-1c0.5-0.6,1.1-1,1.8-1.4c0.4,0.9,0.6,1.9,0.8,2.9c-0.4,0.3-1,0.4-1.5,0.4
							C1341.6,356.3,1341.3,356.1,1341.1,355.7L1341.1,355.7z M1465.3,390.4c-1.8-1.2-3.2-2.3-3.3-2.3c0.2-1,0.4-2,0.7-2.9
							c0.2-0.2,6.6,4.3,6.7,4.3c0,0.9-0.1,1.9-0.2,2.8C1469.1,392.8,1469,392.5,1465.3,390.4L1465.3,390.4z M1457.6,385.7
							c-0.1,0-0.2-0.4-0.2-0.4s2.1-2.4,2.2-2.4c0.2-0.2,1.3,0.4,1.3,0.7c-0.3,0.5-0.7,0.9-1.2,1.3c-1.1,1-1.1,1-1.5,0.9
							L1457.6,385.7z M1454.2,384c-0.5-0.5-1-0.6-1-0.9c0.1-0.4,0.3-0.9,0.5-1.3l0.5-1.3l1.6-0.9c0.5-0.2,1.1-0.4,1.7-0.6
							c0.4,1,0.7,2.1,0.8,3.2c0,0-0.6,0.7-1.2,1.3C1455.7,385,1455.7,385.1,1454.2,384z M1340.3,332.7c-0.3-0.5-0.6-0.9-1.1-1.2
							c-0.3-0.1-0.6-0.1-0.9,0s-0.7,0.2-1.1,0.2c-0.3-0.1-3.1-4-3.2-4c0.1-0.4,0.4-0.9,0.7-1.2c0,0,0.9,0.9,2,1.8s2,1.8,2,1.8
							c0.4,0,0.7-0.1,1.1-0.2s0.7-0.2,1.1-0.2c0.6,1,1,2,1.4,3.1c-0.1,0.3-1,1.1-1.1,1.1C1341,333.6,1340.6,333.2,1340.3,332.7z
							 M1374.1,343.4c-0.6-0.5-1.2-1-1.2-1s0.5-1.3,0.7-1.2c0.2-0.2,2.5,1.7,2.6,1.8c0,0.3-0.5,1-0.7,0.9
							C1375.3,344.1,1374.8,343.9,1374.1,343.4L1374.1,343.4z M1471.6,372.9c0-0.7,0.1-1.5,0.3-2.2l0.4,0.1c0.2,0.1,0.3,0.7,0.6,1.9
							c0.2,0.5,0.3,1,0.4,1.6c-0.5,0.3-1,0.5-1.6,0.6C1471.5,374.2,1471.5,373.6,1471.6,372.9L1471.6,372.9z M1331,324.9
							c-0.1-0.9-0.2-1.8-0.1-2.6c0.1-0.3,0.3,0.1,1.4,1.1c0.6,0.5,1.1,1,1.1,1c-0.7,0.4-1.4,0.6-2.2,0.7L1331,324.9L1331,324.9z
							 M1467.9,368.8c-0.1-0.6-0.3-1-0.2-0.9c0.1-0.3,1.1-0.5,2.3-0.7c0.8-0.3,1.6-0.5,2.4-0.6c0.5-0.6,1-1.2,1.4-1.8
							c0.4-0.6,0.9-1.3,1.4-1.8c0.1,0,0.4,0.1,1,0.9c0.2,0.4,0.5,0.8,0.8,1.1c-1.2,1.3-2.5,2.5-3.8,3.6c-1.6,0.5-3.2,0.8-4.8,1
							C1468.3,369.5,1468.2,369.2,1467.9,368.8L1467.9,368.8z M1478.4,363.4c-0.2-0.3-0.1-0.6,0-0.6c1-0.3,2-0.4,3-0.4
							c0.2,0.1,0.7,1.1,0.7,1.1c-1.1,0.4-2.3,0.5-3.5,0.5C1478.5,363.9,1478.4,363.7,1478.4,363.4L1478.4,363.4z M1412.6,336.9
							c0.1-0.3,0.3-0.5,0.5-0.7c0.6-0.6,0.7-0.9,0.4-1.3c-0.1-0.3-0.3-1-0.4-1.3l-0.3-0.7l0.9-0.6c0.6-0.4,0.9-0.5,0.9-0.3
							c0.1,0.4,0.1,0.8,0.1,1.2c0,0.9,0.1,0.9,0.6,2l0.6,1.1l-0.3,0.8c-0.2,0.5-0.4,0.7-0.5,0.7c-0.2,0.2-0.7,0-1.3-0.2
							C1412.9,337.3,1412.6,337.2,1412.6,336.9L1412.6,336.9z M1334.3,302.9c-0.1,0,2.6-7.8,2.7-7.7s1.5,1.4,3.3,2.9l3.2,3.1
							l0.2,0.7c0.1,0.4,0.1,0.8,0.1,1.2l-2.8-1c-2.7-0.9-2.9-1-3.5-0.9c-0.2-0.1-0.4,0-0.6,0.1c0,0.3,0.1,0.7,0.3,1
							c0.2,0.3,0.3,0.6,0.3,1c0,0-0.7,0-1.5,0C1334.3,303.2,1334.3,303.2,1334.3,302.9L1334.3,302.9z M1396.3,324.1
							c-0.3-0.1-0.4-0.4-0.9-2.9c-0.3-1.5-0.5-3.1-0.5-3.1s0.2-1.7,0.5-3.6c0.2-1.6,0.5-3.3,0.4-3.3c-0.5-1-1-2-1.7-2.9
							c-0.4,0-0.9,0.1-1.3,0.1s-0.8,0-1.2-0.1c-0.4-0.7-0.6-1.5-0.7-2.3c1.9-1.6,3.9-3,6-4.3c0.3-0.2,17.4,3.3,17.7,3.5
							c1.2,1.6,2.2,3.3,3,5c-0.1,0.3-0.7,0.6-1.4,1s-1.3,0.4-1.4,0.7c0,0-0.6,1.2-1.1,2.5c-0.3,0.9-0.7,1.7-1.2,2.5
							c-0.9,0.9-1.8,1.7-2.8,2.5c-2.5,2.3-2.7,2.3-3.1,2.4c-1,0-2.1,0-3.1,0.1h-2.6l-1.3,1.6l-1.2,1.3l-0.9-0.3L1396.3,324.1
							L1396.3,324.1z M1408.4,325.9c-0.1-0.7-0.2-1.4-0.3-2.1c0.2,0,3.9,0.2,4,0.2c0.4,0.7,0.7,1.5,0.9,2.3c0,0-3.7,1.4-4.1,1.5
							C1408.7,327.3,1408.5,326.6,1408.4,325.9L1408.4,325.9z"/>
						<path class="st62" d="M1418.6,333.7l0.7,0.2l1.6-1.4l0.6-1.1l2.1-2.1c0,0,1.3-2,1.8-1.8c0.8,0,1.6-0.2,2.4-0.5l3.2,0.9
							l2.2,1.1l2.4,1.2l1.7,1l0.3,0.1c0.2-0.3,0.4-0.4,0.3-0.5c-1.1-0.6-2.1-1.3-3.2-2c-1.7-1.1-3.2-2.2-3.3-2.3
							c-0.9-0.1-1.8-0.1-2.7-0.1c-1.7-0.3-2.4-0.3-2.7,0s-5.9,4.3-6.3,4.8C1419.2,332,1418.8,332.8,1418.6,333.7z"/>
						<path class="st62" d="M1495.3,349.3c-0.4-0.1-0.7-0.1-1.1-0.2c-2.7-0.6-2.7-0.6-3.6-1.5l-0.7-0.8l-3.1-1.3
							c-1.6-0.9-3-1.6-3.1-1.6c-0.1-0.4-0.2-0.8-0.2-1.2c0-0.4-0.1-0.8-0.3-1.2c-0.6,0.2-1.1,0.5-1.7,0.9c-1.4,0.7-1.5,0.6-1.9,0.5
							c-0.3-0.1-3.1-1.4-6.3-3c-3.3-1.4-5.9-2.9-5.9-2.9s0.9-0.3,2.3-0.7s2.4-0.6,2.4-0.6c0.1-0.3-0.3-0.4-0.8-0.9
							c-0.9-0.4-1.8-0.9-2.7-1.5l-1.7-1.2l-4.9,0.4l-4.9,0.4l-0.6,0.7c-0.3,0.2-0.7,0.6-0.7,0.6s-0.9-0.6-2.2-1.3s-2.2-1.3-2.3-1.3
							c-1.2,0.4-2.4,1-3.4,1.7c0,0,0,0.3,0.1,0.6s0,0.6,0,0.6s-0.6-0.8-1.3-1.6c-1.4-1.9-1.7-2.3-1.6-2.6c0.9-0.6,1.9-1.2,2.9-1.6
							c0.7-0.2,1.4-0.2,2.1-0.1c0.6-0.1,1.3-0.2,1.9-0.2c0.1-0.5,0.2-0.9,0.1-1.4c-0.1-0.3-0.2-0.3-2.4,0l-2.2,0.1l-2,1.3
							c-1,0.5-1.9,1.1-1.9,1.1s0.2,0.9,0.5,1.9s0.6,1.7,0.5,1.9l-0.7-0.2c0.1,0.4,0.1,0.6,0.1,0.6c0.7,0,1.3,0.2,1.8,0.6
							c0.4,0.4,0.9,0.7,1.4,0.9l2.5-1l1.2,1.5l2.4,4.4l3.7,1.6l2.6-2.3l3.8-0.6l3,1.6l3.4-0.5c0,0,2.4,1.8,2.1,2.2s2,1.6,2.4,1.8
							s3.4,0,3.8,0.4c1.3,0.4,2.6,0.6,4,0.8l2.9,3.3l2.3,0.6l2.7,0.5l2.6-0.1L1495.3,349.3z"/>
						<path class="st63" d="M1379.8,310c0.4,0.3,3.2,3.8,3.2,3.8c0.2-0.3,0.5-0.6,0.8-0.9c0.1-0.3,0.5-0.1,0.9,0s0.8,0.3,0.7,0.5
							c-0.1,0.2-0.2,0.4-0.3,0.6c0.1,0,0.1,0.1,0.2,0.1c0.3,0.5,3.3,3,3.3,3c0.4,0.4,0.8,0.8,1.2,1.2l0.3-0.2
							c1.1-0.8,1.9-1.4,1.9-1.4s-1.1-2.4-2.7-4.9c-1.4-2.8-2.7-5-2.7-5.3c-0.1,0-0.1-0.3,0-0.3s2-1.3,4.3-2.9
							c2.2-1.3,4.1-2.6,4.2-2.6c0.1-0.3-0.5-0.5-4.2-2l-2.5-1.1l-10.3,0.8c-5.8,0.6-10.5,1-10.6,1c-0.4,0.5-0.8,1-1.1,1.6
							c-0.7,1.2-1,1.7-0.8,1.7c0.2,0.7,0.6,1.3,1,1.8c0.5,0.8,1,1.5,1,1.5c0,0.3,0,0.3-0.2,0.2s-4-2-8.7-4.1l-8.4-4l-2.1,0.5
							c-1.1,0.2-2.1,0.4-2.2,0.4s-0.2,0.3-0.4,1.1c0.4,0.1,0.7,0.1,0.7,0.1s1.3-0.5,1.7-0.2c1,0.5,2,0.9,3,1.2l2.8,1.3l3.2,3.5
							l4.5,1.6c1.3-0.2,2.7-0.4,4-0.4c1,0.9,1.9,1.9,2.8,2.9l3-0.6c0,0,3.3,1.5,3.7,1.7s1.6-2.2,2-2
							C1378,309.4,1378.9,309.7,1379.8,310z"/>
						<path class="st62" d="M1409.1,327.9c0.4-0.1,4.1-1.5,4.1-1.5c-0.2-0.8-0.5-1.6-0.9-2.3c-0.1,0-3.9-0.2-4-0.2
							c0,0.7,0.1,1.4,0.3,2.1C1408.6,326.6,1408.8,327.3,1409.1,327.9z"/>
						<path class="st63" d="M1406.6,321.9c0.5-0.1,0.6-0.1,3.1-2.4c1-0.8,1.9-1.6,2.8-2.5c0.4-0.8,0.8-1.6,1.2-2.5
							c0.5-1.3,1.1-2.5,1.1-2.5c0.1-0.2,0.7-0.3,1.4-0.7s1.3-0.7,1.4-1c-0.8-1.8-1.8-3.5-3-5c-0.3-0.1-17.5-3.6-17.7-3.5
							c-2.1,1.3-4.1,2.7-6,4.3c0.1,0.8,0.3,1.6,0.7,2.3c0.4,0.1,0.8,0.2,1.2,0.1c0.4-0.1,0.9-0.1,1.3-0.1c0.6,0.9,1.2,1.9,1.7,2.9
							c0,0-0.2,1.7-0.4,3.3c-0.3,1.9-0.6,3.6-0.5,3.6s0.2,1.5,0.5,3.1c0.5,2.5,0.6,2.8,0.9,2.9l1.3,0.4l0.9,0.3l1.2-1.3l1.3-1.5h2.6
							C1404.6,321.9,1405.6,321.9,1406.6,321.9z"/>
						<path class="st64" d="M1460.2,401.6l2,1.1l1.8-2.8l-1.4-2.8l-1.9-1.2l0.2-3l-0.6-1.3l-0.8-0.4c-2.7,0.8-7.5,2.3-8.1,2.5
							l-0.4,0.1l-0.6,1.8l-0.3,1c0.1,0,0.1,0,0.2,0c0.5,0.4,1.1,0.2,1.9,0.8s2.5,1,3.2,1.5s3.6-0.5,3.6-0.5L1460.2,401.6z"/>
						<path class="st61" d="M1440.4,351.3l0.4,0.2l-0.1,0.5c0,0.3-0.2,0.8-0.3,0.8s-0.4,0.2-0.6,0.1s-0.4-0.1-0.3-0.7
							C1439.8,351.1,1439.9,351.1,1440.4,351.3z"/>
						<path class="st64" d="M1430.2,367.4l-1.3-0.4l1.2,0.5L1430.2,367.4z"/>
						<path class="st65" d="M1366,378.5l1-1.5l0.7-3l2.1-4.2l1.7-5.7c-0.1,0.3-1.4,2.7-3,5.9l-2.8,5.4l-1.1,3.1l-1.1,3.1l0.8,2.3
							c0.5,1.3,0.8,2.6,0.9,2.6c0.6-0.3,1.1-0.7,1.5-1.2c0,0-0.1-0.6-0.2-1.2c-0.2-0.3-0.3-0.7-0.3-1c0.3-0.2,0.6-0.4,1-0.5l1.1-0.8
							l0.3-0.8c0.1-0.4,0.2-0.7,0.3-1.1l-1.5,0.4L1366,378.5z"/>
						<path class="st64" d="M1408.9,346.3c0.5-0.2,0.9-0.4,1.4-0.6l-1.5,0.3C1408.8,346.2,1408.9,346.3,1408.9,346.3z"/>
						<path class="st61" d="M1422.5,351.8c0.1,0,0.2,0,0.4-1l-1,0.1C1422.2,351.3,1422.4,351.8,1422.5,351.8z"/>
						<path class="st65" d="M1386.1,359.4c-0.4,0.1-0.8,0.3-0.7,0.6c0.1,0.9,0,1.9-0.1,2.8c-0.1,0.7-0.5,1.9-0.2,2.6
							c0.4,0.5,0.8,1,1.3,1.5l0.6-1.2c0,0,0.5-0.4,1.1-0.8s1.1-0.8,1.1-0.8s-0.8-1.4-1.8-2.9L1386.1,359.4z"/>
					</g>
				</g>
			</g>
			<path class="st65" d="M1438.5,337.7c0-11-4.7-21.5-13-28.8c-5.6-3.3-11.8-5.3-18.3-5.7c-1.5-0.1-3-0.1-4.8,0
				c-21.3,1.3-37.9,19-37.9,40.3c0,1.3,0.1,2.6,0.2,3.9l-0.2-0.4c0.3,3.4,1,6.7,2.1,9.9c10.6,18.4,34.2,24.7,52.6,14.1
				C1431.1,364.1,1438.4,351.4,1438.5,337.7L1438.5,337.7z"/>
			<polygon class="st48" points="1214.4,461.8 1214.4,467 1238.8,461.9 1238.8,454.9 			"/>
			<path class="st66" d="M1265,327.9c0,0-2.6-9.7-7.9-13.2c-4.3-2.8-1.4,6.4-11.2,9c-1,0.3-1.7,1.3-1.5,2.4
				c0.6,2.8,2.6,6.6,7.8,12.8C1258.9,346.8,1265,327.9,1265,327.9z"/>
			<path class="st66" d="M1263.9,330.8c-1-3.8-2.6-8.9-4.5-11c-3.2-3.5-5.5-1.5-6.9-0.6l0,0c-1,1.5-2.4,2.7-4,3.5
				c-1.2,1.3-1.5,3.2-0.6,4.8c2.8,4.5,5.9,8.9,9.2,13C1260.1,339.1,1262.6,334,1263.9,330.8z"/>
			<path class="st67" d="M1299.6,327.9c0,0,2.6-9.7,7.9-13.2c4.3-2.8,1.4,6.4,11.2,9c1,0.3,1.7,1.3,1.5,2.4
				c-0.6,2.8-2.6,6.6-7.8,12.8C1305.6,346.8,1299.6,327.9,1299.6,327.9z"/>
			<path class="st66" d="M1300.7,330.8c1-3.8,2.6-8.9,4.5-11c3.2-3.5,5.5-1.5,6.9-0.6l0,0c1,1.5,2.4,2.7,4,3.5
				c1.2,1.3,1.4,3.2,0.6,4.8c-2.8,4.5-5.9,8.9-9.2,13C1304.5,339.1,1302,334,1300.7,330.8z"/>
			<path class="st68" d="M1282.3,324.3L1282.3,324.3c-23.2,0-42.1,18.8-42.1,42.1v63.9c0,5.9,4.8,10.6,10.6,10.6h63
				c5.9,0,10.6-4.8,10.6-10.6v-63.9C1324.4,343.1,1305.6,324.3,1282.3,324.3L1282.3,324.3z"/>
			<path class="st69" d="M1257,435.2c-6.1,0-11-4.5-11-10.1v-54.9c0-18.1,15.3-33.6,34.9-34.3c20.7-0.7,37.7,14.5,37.7,33.4V425
				c0,5.6-4.9,10.1-11,10.1L1257,435.2L1257,435.2z"/>
			<path class="st70" d="M1282.3,330.7c20.9,0,38.1,16.6,38.8,37.5c0-0.4,0-0.9,0-1.3c0-21.5-17.4-38.8-38.8-38.8
				c-21.5,0-38.8,17.4-38.8,38.8c0,0.4,0,0.9,0,1.3C1244.1,347.3,1261.3,330.7,1282.3,330.7z"/>
			<path class="st70" d="M1271.9,325.6c1-5.6,5.6-11.8,10.4-11.8s9.4,6.2,10.4,11.8c1.7,0.4,3.3,1,4.9,1.6
				c-0.3-8.4-7-18.2-15.3-18.2s-15.1,9.8-15.3,18.2C1268.6,326.6,1270.2,326,1271.9,325.6z"/>
			<path class="st67" d="M1314.3,438.2c-13.8,2.6-56.3,1.7-70,0.4l0,0c1.9,1.5,4.2,2.3,6.6,2.3h63c5.9,0,10.6-4.8,10.6-10.6v-63.9
				c0-5.4-1-10.8-3.1-15.8C1322.3,364.7,1326.7,435.8,1314.3,438.2z"/>
			<path class="st66" d="M1318.6,425.1v-55.7c0-8.3-3.3-16.2-9.1-22.1c-0.3,24.3-7.7,69.5-55.4,87.6c0.9,0.2,1.9,0.3,2.9,0.4h50.7
				C1313.7,435.2,1318.6,430.7,1318.6,425.1z"/>
			<path class="st71" d="M1258.5,392.5c-4.6,0-8.3,3.7-8.3,8.3l0,0v24.4c0,3.2,3,5.8,6.7,5.8h50.7c3.7,0,6.7-2.6,6.7-5.8v-24.3
				c0-4.6-3.7-8.3-8.3-8.3l0,0L1258.5,392.5z"/>
			<path class="st72" d="M1308.1,392.7c-2.8,7.5-13.3,30.3-40.5,38.2h40c3.7,0,6.7-2.6,6.7-5.8v-24.4
				C1314.3,397,1311.7,393.7,1308.1,392.7z"/>
			<path class="st67" d="M1314.3,425.1v-24.3c0-1.9-0.6-3.7-1.8-5.1c-1.6,8.7-6.5,27.1-20.5,35.3h15.6
				C1311.3,430.9,1314.3,428.3,1314.3,425.1z"/>
			<path class="st70" d="M1306,392.5h-47.5c-4.6,0-8.3,3.7-8.3,8.3l0,0v1.6c0-4.6,3.7-8.3,8.3-8.3l0,0h47.5c4.6,0,8.3,3.7,8.3,8.3
				l0,0v-1.6C1314.3,396.2,1310.6,392.5,1306,392.5L1306,392.5z"/>
			<path class="st70" d="M1250.7,401.4l-0.3-0.9h-0.2l-0.3,0.9c-0.6,0.1-1,0.7-1,1.3v5.7c0,0.7,0.6,1.3,1.4,1.3
				c0.7,0,1.3-0.6,1.3-1.3v-5.7C1251.6,402.1,1251.3,401.6,1250.7,401.4z"/>
			<g class="st4">
				<path class="st73" d="M1333.5,237.4l82.7-28l10-126.3l-72-50h-117.7l-72,50l10,126.3l70,24.2c2.9,13.9,5.2,33.8,4.6,61.8
					c-0.1,1.3,1,2.4,2.3,2.5l0,0c1.3,0,2.3-1.1,2.3-2.4v-0.3l7.9-8.9l9.2,11.5c0.3,0.4,0.7,0.6,1.2,0.6l0,0c0.4,0,0.9-0.2,1.2-0.5
					l9.3-11.2l8.6,9.9c0.3,0.3,0.7,0.5,1.1,0.5l0,0c0.4,0,0.9-0.2,1.1-0.5l8.6-10.5l8.1,9.2v0.3c0,1.3,1,2.4,2.3,2.4l0,0
					c1.3-0.1,2.3-1.2,2.3-2.5c-0.5-25.3,1.3-44.1,3.8-57.7L1333.5,237.4z M1299.9,238.2l-7.2,8.1l-7.1-7.8L1299.9,238.2z
					 M1292.8,251.1l7.9,8.7l-8.7,10.4l-8.1-9.1L1292.8,251.1z M1290.6,248.7l-8.8,10l-8.8-10l8.7-9.8L1290.6,248.7z M1279.7,261
					l-7.8,8.8l-8.8-10.1l7.7-8.6L1279.7,261z M1277.6,238.8l-6.7,7.5l-6.4-7.2L1277.6,238.8z M1249.6,235.4l5.4,1.9l-4.3,4.3
					C1250.3,239.4,1250,237.4,1249.6,235.4L1249.6,235.4z M1251.3,245.9l-0.1-0.4l7.1-7l2.1,0.7l8.4,9.5l-7.7,8.6L1251.3,245.9z
					 M1252,251.5l7,8.2l-5.8,6.5C1252.9,260.9,1252.5,256,1252,251.5L1252,251.5z M1253.8,290.5c0-4.9,0-9.6-0.1-14l5.9,7.4
					L1253.8,290.5z M1253.5,271.2v-0.6l7.7-8.6l8.8,10.2l-8.2,9.3L1253.5,271.2z M1272,294.4l-8.3-10.4l8.3-9.4l8.4,9.7L1272,294.4z
					 M1282.4,281.8l-8.3-9.6l7.8-8.8l8.2,9.2L1282.4,281.8z M1292.1,293.1l-7.6-8.8l7.7-9.2l7.7,8.6L1292.1,293.1z M1310,290.5
					l-6-6.9l6.2-7.5C1309.9,280.6,1309.9,285.4,1310,290.5L1310,290.5z M1310.3,270.9l-8.5,10.4l-7.6-8.6l8.7-10.5l7.4,8.2V270.9z
					 M1310.5,265.9l-5.7-6.2l6.9-8.3C1311.2,255.9,1310.8,260.7,1310.5,265.9L1310.5,265.9z M1312.4,245.7l-9.7,11.7l-7.8-8.6
					l9.3-10.6h0.8l7.5,7.1C1312.5,245.4,1312.4,245.5,1312.4,245.7L1312.4,245.7z M1313.1,241.4l-3.6-3.4l4.2-0.1
					C1313.4,239,1313.3,240.2,1313.1,241.4L1313.1,241.4z"/>
			</g>
			<path class="st74" d="M1203.1,210.4l39.5,13.7c13,4.5,34.9,8.2,48.6,8.2h16.3c13.8,0,35.7-3.6,48.7-8l41.4-14
				c13-4.4,24.6-19.2,25.7-32.9l6.1-76.4c1.1-13.7-7.3-31.3-18.6-39.2l-30.9-21.5c-11.3-7.8-31.8-14.2-45.5-14.2h-67.7
				c-13.8,0-34.2,6.4-45.5,14.3L1190,61.7c-11.3,7.8-19.7,25.5-18.6,39.2l6,76.4C1178.6,191,1190.1,205.9,1203.1,210.4z"/>
			<path class="st75" d="M1205.7,202.8l39.5,13.7c12.1,4.2,33.2,7.7,46,7.7h16.3c12.8,0,34-3.5,46.1-7.6l41.4-14
				c10-3.4,19.4-15.5,20.3-26l6-76.4c0.9-10.8-6.2-25.8-15.2-32l-30.9-21.5c-10-7-28.8-12.8-41-12.8h-67.7c-12.2,0-31,5.9-41,12.8
				l-30.9,21.5c-8.9,6.2-16,21.1-15.2,32l6,76.4C1186.3,187.2,1195.7,199.4,1205.7,202.8z M1198.5,74l30.9-21.5
				c8.9-6.2,26.2-11.6,37-11.6h67.7c10.8,0,28.1,5.4,37,11.6L1402,74c6.9,4.8,12.8,17.3,12.2,25.7l-6,76.4
				c-0.6,7.7-8.2,17.4-15.5,19.9l-41.4,14c-11.4,3.9-31.9,7.2-43.9,7.2h-16.3c-12,0-32.4-3.4-43.7-7.4l-39.5-13.6
				c-7.4-2.6-14.9-12.3-15.6-20.1l-6-76.4C1185.7,91.3,1191.6,78.8,1198.5,74z"/>
			<path class="st75" d="M1340.2,181.4c7.5,0,13.5-6,13.5-13.5v-67.5c0-7.5-6-13.5-13.5-13.5h-77.7c-7.5,0-13.5,6-13.5,13.5v67.5
				c0,7.5,6,13.5,13.5,13.5H1340.2z M1256,167.9v-67.5c0-3.6,2.9-6.5,6.5-6.5h77.7c3.6,0,6.5,2.9,6.5,6.5v67.5
				c0,3.6-2.9,6.5-6.5,6.5h-77.7C1258.9,174.4,1256,171.5,1256,167.9z"/>
			<rect x="1285.5" y="163.4" class="st76" width="29.6" height="22.2"/>
			<path class="st63" d="M1264.7,206.6c-3.5-10-6.8-13.9-7.1-14.3c-0.8-0.9-2.2-1-3.1-0.2l-0.1,0.1c-0.9,0.9-1,2.4-0.1,3.4
				c0.2,0.2,16.3,19.9,14.9,89.8c-0.1,1.3,1,2.4,2.3,2.5h0.1c1.3,0,2.3-1.1,2.3-2.4v-0.3l7.9-8.9l9.2,11.5c0.3,0.4,0.7,0.6,1.2,0.6
				l0,0c0.5,0,0.9-0.2,1.2-0.6l9.3-11.2l8.6,9.9c0.3,0.3,0.7,0.5,1.1,0.5l0,0c0.4,0,0.9-0.2,1.1-0.5l8.6-10.5l8.1,9.2v0.3
				c0,1.3,1,2.4,2.3,2.4l0,0c1.3-0.1,2.3-1.2,2.3-2.5c-1.4-69.7,14.7-89.6,14.9-89.8c0.9-1,0.8-2.5-0.1-3.4s-2.3-0.9-3.1,0l-0.1,0.1
				c-0.3,0.4-3.6,4.3-7.1,14.3l-14.6,16.5l-9.9-9.4c0.2-7.7,2.2-15.3,6-22.1c0.5-0.8,0.3-1.7-0.4-2.3c-0.7-0.5-1.6-0.3-2.1,0.4
				c0,0,0,0.1-0.1,0.1c-4.1,7.1-6.3,15.1-6.5,23.4l-9.8,11l-9.7-10.7c-0.2-8.3-2.4-16.4-6.5-23.7c-0.4-0.7-1.3-0.9-2-0.5
				c0,0-0.1,0-0.1,0.1c-0.7,0.5-0.9,1.5-0.4,2.3c3.7,6.7,5.8,14.2,6,21.9l-9.7,9.6L1264.7,206.6z M1266.9,213.9l10,11.4l-6.3,6.3
				C1269.7,225.6,1268.5,219.8,1266.9,213.9L1266.9,213.9z M1271.3,235.9c0-0.1,0-0.3-0.1-0.4l7.9-7.8l9.7,11l-7.7,8.6L1271.3,235.9
				z M1290.9,241.1l8.8,10l-7.8,8.8l-8.8-10.2L1290.9,241.1z M1272,241.5l7,8.2l-5.8,6.5C1272.9,250.9,1272.5,246,1272,241.5
				L1272,241.5z M1273.8,280.5c0-4.9,0-9.6-0.1-14l5.9,7.4L1273.8,280.5z M1273.5,261.3c0-0.2,0-0.4,0-0.6l7.7-8.6l8.8,10.2
				l-8.2,9.3L1273.5,261.3z M1292,284.4l-8.3-10.4l8.3-9.4l8.4,9.7L1292,284.4z M1302.4,271.9l-8.3-9.6l7.8-8.8l8.2,9.2
				L1302.4,271.9z M1303.9,251.1l8.8-10l7.9,8.7l-8.7,10.4L1303.9,251.1z M1312.1,283.1l-7.6-8.8l7.6-9.2l7.7,8.6L1312.1,283.1z
				 M1329.9,280.5l-6-6.9l6.2-7.5C1329.9,270.6,1329.9,275.4,1329.9,280.5L1329.9,280.5z M1330.2,260.9l-8.5,10.4l-7.6-8.6l8.7-10.4
				l7.4,8.2V260.9z M1330.5,255.9l-5.7-6.2l6.9-8.3C1331.2,245.9,1330.8,250.7,1330.5,255.9L1330.5,255.9z M1336.7,213.9
				c-1.6,5.7-2.8,11.6-3.7,17.4l-6.4-6.1L1336.7,213.9z M1324.6,227.7l7.9,7.5l-0.1,0.5l-9.7,11.7l-7.8-8.6L1324.6,227.7z
				 M1312.8,216.4l9.5,9l-9.6,10.8l-8.9-9.8L1312.8,216.4z M1301.7,228.9l8.9,9.8l-8.8,9.9l-8.8-10L1301.7,228.9z M1290.4,216.5
				l9.2,10.1l-8.7,9.7l-9.6-10.8L1290.4,216.5z"/>
			<path class="st77" d="M1360.5,195.8c2.8,0,5-2.2,5-5s-2.2-5-5-5h-117.3c-2.8,0-5,2.2-5,5s2.2,5,5,5H1360.5z"/>
			<g class="st78">
				<path class="st79" d="M960,209.4l3.6-36h-9.7l3.5,35.8l0,0c0.1,0.6,0.7,1.1,1.3,1.1C959.3,210.3,959.8,210,960,209.4L960,209.4z
					"/>
				<polygon class="st80" points="953.9,173.4 954.9,183.6 962.6,183.6 963.6,173.4 958.7,173.4 				"/>
				<path class="st79" d="M1116.4,209.4l3.6-36h-9.7l3.5,35.8l0,0c0.2,0.7,0.9,1.2,1.6,1.1C1115.8,210.2,1116.2,209.9,1116.4,209.4
					L1116.4,209.4z"/>
				<polygon class="st80" points="1110.2,173.4 1111.3,183.6 1118.9,183.6 1120,173.4 1115.1,173.4 				"/>
				<rect x="929.9" y="165.9" class="st81" width="214.1" height="13"/>
				<path class="st79" d="M1114.9,176.2c0,0,23.5,1.5,28.3-8.4h0.9v11.1H929.9v-2.8L1114.9,176.2z"/>
				<rect x="1033" y="102.7" class="st82" width="89.8" height="63.2"/>
				<path class="st83" d="M1122.8,165.9v-63.2h-1.5c-1.6,7.7-11,46.7-37.4,63.2H1122.8z"/>
				<path class="st84" d="M1040.4,119.5c0,0-0.3-13,14.8-13s58.7-0.3,56.6,6.5s-18.7,44.2-37.5,47.6s-32,1.9-34-5.6
					S1040.4,119.5,1040.4,119.5z"/>
				<rect x="1033" y="108.4" class="st85" width="89.8" height="4.6"/>
				<rect x="1029.2" y="97.4" class="st82" width="97.4" height="12.5"/>
				<path class="st83" d="M1126.6,109.8V97.4h-3.2c-1.7,3.4-5.4,8.2-13.1,12.5L1126.6,109.8L1126.6,109.8z"/>
				<path class="st84" d="M1040.7,99.8c0,0-8.9-0.9-8.9,3.9s8.3,3.8,16.3,3.8h52.6c4.9,0.2,9.7-1.2,13.8-3.8
					c6.8-4.4-10.7-3.8-18.5-3.9S1040.7,99.8,1040.7,99.8z"/>
				<rect x="1065.4" y="116.5" class="st86" width="25" height="7.6"/>
				<path class="st87" d="M1074.4,124.1h15.9v-7.6h-4.3C1082.8,119.9,1078.9,122.5,1074.4,124.1z"/>
				<path class="st88" d="M1092.4,54.4l1.3,0.6l-1,2.3l0.2,0.1c0.1,0.1,0.2,0.2,0.2,0.3l-5.9,14.1c0,0.1-0.2,0.2-0.3,0.2l0,0
					l-1.7-0.7c-0.1,0-0.2-0.2-0.2-0.3l0,0l5.9-14.1c0-0.1,0.2-0.2,0.3-0.2l0,0h0.2L1092.4,54.4z"/>
				<path class="st89" d="M1097.7,43.7c3.4,1.5,5.1,5.4,3.6,8.9c-1.5,3.4-5.4,5.1-8.9,3.6c-3.4-1.5-5.1-5.4-3.6-8.9
					C1090.3,43.8,1094.3,42.2,1097.7,43.7z"/>
				<path class="st90" d="M1097.4,44.4c3.1,1.3,4.5,4.8,3.2,7.8c-1.3,3.1-4.8,4.5-7.8,3.2c-3.1-1.3-4.5-4.8-3.2-7.8c0,0,0,0,0-0.1
					C1090.9,44.6,1094.4,43.1,1097.4,44.4z"/>
				<path class="st91" d="M1100.3,47c1.8,2.8,0.9,6.5-1.9,8.3s-6.5,0.9-8.3-1.9c-0.2-0.4-0.4-0.8-0.6-1.2L1100.3,47z"/>
				<polygon class="st89" points="1086.2,68.1 1088.4,69.1 1087.8,70.5 1085.6,69.6 				"/>
				<path class="st91" d="M1094,46.9c0.6,0.5,1.4,0.4,1.8-0.2c0.5-0.6,0.4-1.4-0.2-1.8s-1.4-0.4-1.8,0.2
					C1093.4,45.6,1093.4,46.5,1094,46.9L1094,46.9z"/>
				<path class="st92" d="M1111.1,49.1L1095,87.7c-1.7-1.8-4.1-2.8-6.5-2.7l16.1-38.6c0.8-1.8,2.8-2.6,4.6-1.9l0,0
					C1111,45.2,1111.8,47.3,1111.1,49.1L1111.1,49.1L1111.1,49.1z"/>
				<path class="st93" d="M1111.1,49.1l-3.8,9.2c-1.3-4.6-1.1-9.5,0.4-14.1c0.5,0,1.1,0.1,1.6,0.3l0,0
					C1111,45.2,1111.8,47.3,1111.1,49.1L1111.1,49.1L1111.1,49.1z"/>
				<path class="st94" d="M1093.7,86.6l-0.2-0.1l14.3-34.3c0-0.1,0.1-0.1,0.2-0.1s0.1,0.1,0.1,0.2l0,0L1093.7,86.6z"/>
				<path class="st94" d="M1092.3,85.8l-0.2-0.1l15.1-36.2c0-0.1,0.1-0.1,0.2-0.1s0.1,0.1,0.1,0.2L1092.3,85.8z"/>
				<path class="st94" d="M1090.8,85.3l-0.3-0.1l14.3-34.3c0-0.1,0.1-0.1,0.2-0.1s0.1,0.1,0.1,0.2L1090.8,85.3z"/>
				<path class="st95" d="M1088.3,86.8c-0.1,0.3-0.4,0.4-0.7,0.3l0,0c-0.3-0.1-0.4-0.4-0.3-0.7l0,0l0,0l0,0c0-0.1,0,0,0,0l16.7-40.1
					c0.9-2.1,3.2-3,5.3-2.2l0,0c2.1,0.9,3.1,3.2,2.2,5.3l-16.7,40.1c0,0.1,0-0.1,0,0l0,0l0,0c-0.1,0.3-0.4,0.4-0.7,0.3l0,0
					c-0.3-0.1-0.4-0.4-0.3-0.7l0,0l0,0c0-0.1,0,0.1,0,0l16.7-40.1c0.3-0.7,0.3-1.6,0-2.3s-0.9-1.4-1.6-1.7l0,0
					c-0.7-0.3-1.6-0.3-2.3,0c-0.7,0.3-1.3,0.9-1.6,1.6L1088.3,86.8C1088.4,86.9,1088.4,86.7,1088.3,86.8L1088.3,86.8L1088.3,86.8z"
					/>
				<path class="st92" d="M1118.7,52.3l-16.1,38.6c-1.7-1.8-4.1-2.8-6.5-2.7l16.1-38.6c0.8-1.8,2.8-2.6,4.6-1.9l0,0
					C1118.6,48.4,1119.5,50.5,1118.7,52.3z"/>
				<path class="st93" d="M1118.7,52.3l-3.8,9.2c-1.3-4.6-1.1-9.5,0.4-14.1c0.5,0,1.1,0.1,1.6,0.3l0,0
					C1118.6,48.4,1119.5,50.5,1118.7,52.3L1118.7,52.3z"/>
				<path class="st94" d="M1101.3,89.8l-0.2-0.1l14.3-34.3c0-0.1,0.1-0.1,0.2-0.1l0,0c0.1,0,0.1,0.1,0.1,0.1l0,0L1101.3,89.8z"/>
				<path class="st94" d="M1099.9,89l-0.2-0.1l15.1-36.2c0-0.1,0.1-0.1,0.1-0.1l0,0c0.1,0,0.1,0.1,0.1,0.2L1099.9,89z"/>
				<path class="st94" d="M1098.4,88.4l-0.3-0.1l14.3-34.3c0-0.1,0.1-0.1,0.1-0.1l0,0c0.1,0,0.1,0.1,0.1,0.2L1098.4,88.4z"/>
				<path class="st96" d="M1096,89.9c-0.1,0.3-0.4,0.4-0.7,0.3c-0.3-0.1-0.4-0.4-0.3-0.7l0,0l0,0c0-0.1,0,0,0-0.1l16.7-40.1
					c0.9-2.1,3.2-3,5.3-2.2l0,0c2.1,0.9,3.1,3.2,2.2,5.3l0,0l-16.7,40.1c0,0.1,0-0.1,0,0l0,0l0,0c-0.1,0.3-0.4,0.4-0.7,0.3l0,0
					c-0.3-0.1-0.4-0.4-0.3-0.7l0,0l0,0c0-0.1,0,0.1,0,0l16.7-40.1c0.3-0.7,0.3-1.6,0-2.3s-0.9-1.3-1.6-1.6l0,0
					c-0.7-0.3-1.6-0.3-2.3,0c-0.7,0.3-1.3,0.9-1.6,1.6L1096,89.9C1096,90,1096,89.8,1096,89.9L1096,89.9L1096,89.9z"/>
				<rect x="1062.8" y="59.2" class="st97" width="54.3" height="38.2"/>
				<path class="st98" d="M1117.1,97.4V59.2h-0.9c-1,4.6-6.7,28.2-22.6,38.2H1117.1z"/>
				<path class="st99" d="M1067.3,69.3c0,0-0.2-7.9,9-7.9s35.5-0.2,34.2,3.9s-11.3,26.7-22.7,28.8s-19.4,1.2-20.5-3.4
					S1067.3,69.3,1067.3,69.3z"/>
				<rect x="1082.4" y="67.6" class="st86" width="15.1" height="4.6"/>
				<path class="st87" d="M1087.9,72.1h9.6v-4.6h-2.5C1093,69.6,1090.6,71.1,1087.9,72.1z"/>
				<path class="st100" d="M974.5,138.2c16.8-26.8-6.5-48.4-5.4-42.4c0.5,2.2,2.1,3,2.8,5.4C975.3,113.6,961.4,117.9,974.5,138.2
					L974.5,138.2z"/>
				<path class="st101" d="M974.5,138.2c16.8-26.8-6.5-48.4-5.4-42.4l0,0c7.7,2.9,12.4,23.8,3.9,39.9
					C973.4,136.4,974,137.3,974.5,138.2z"/>
				<path class="st101" d="M974.5,138.2c15.4-24.6-2.9-44.8-5.2-43.4c0,0-0.1,0.1-0.2,0.2l0,0c8.3,3.3,13.6,23.5,3.9,40.6
					C973.4,136.4,974,137.2,974.5,138.2L974.5,138.2z"/>
				<path class="st100" d="M974.8,138c34.8-13,28.4-49.8,25.2-43.4c-1.2,2.4-0.2,4.3-1.3,7C993,115.7,977,109.9,974.8,138z"/>
				<path class="st101" d="M974.8,138c34.8-13,28.4-49.8,25.2-43.4l0,0c5.1,8.1-5.4,31-24.8,40C975,135.7,974.9,136.8,974.8,138
					L974.8,138z"/>
				<path class="st101" d="M974.8,138c31.9-11.9,29.2-43.8,26-44.2c-0.1,0-0.2,0-0.3,0l0,0c5.4,9.1-4.1,31.6-25.4,40.7
					C974.9,135.6,974.8,136.8,974.8,138L974.8,138z"/>
				<path class="st100" d="M987.5,113.1c-0.4,10.2-4.2,16.8-11.4,20.1c3.9-4.4,7-10.6,9.3-18.6C985.4,114.6,986.1,114,987.5,113.1z"
					/>
				<path class="st102" d="M974.4,138.1c23.2-21.5,6.3-48.4,5.8-42.4c-0.2,2.2,1.3,3.5,1.3,5.9C981.6,114.7,967.1,115.2,974.4,138.1
					L974.4,138.1z"/>
				<path class="st101" d="M974.4,138.1c23.2-21.5,6.3-48.4,5.8-42.4l0,0c6.7,4.8,5.8,26.2-6.6,39.5
					C973.9,136.2,974.1,137.1,974.4,138.1L974.4,138.1z"/>
				<path class="st101" d="M974.4,138.1c21.3-19.7,8.9-44,6.2-43.2c-0.1,0-0.2,0.1-0.2,0.2l0,0c7.2,5.4,7,26.2-6.8,40.2
					C973.9,136.2,974.1,137.1,974.4,138.1z"/>
				<path class="st102" d="M975.9,138.9c8.7,1.6,17.7-2.1,24.4-8.1c5.1-4.6,8.6-10.7,10-17.4c0.6-2.3,0.7-4.8,0.2-7.1
					c-0.5-1.7-1.5-1-2,1.6C1004.3,130.1,979.2,116.6,975.9,138.9L975.9,138.9z"/>
				<path class="st103" d="M975.9,138.9c8.7,1.6,17.7-2.1,24.4-8.1c4-3.5,7-8,8.7-13c-8.3,13.5-18.9,18.9-31.8,16.1
					C976.6,135.5,976.1,137.2,975.9,138.9L975.9,138.9z"/>
				<path class="st101" d="M975.9,138.9c8.7,1.6,17.7-2.1,24.4-8.1c2.9-2.6,5.3-5.7,7.1-9.2c-8,12-20.2,16.3-30.4,13
					C976.5,136,976.1,137.5,975.9,138.9L975.9,138.9z"/>
				<path class="st100" d="M977.8,138.9c-8.9,0.3-17.3-4.6-23-11.4c-4.4-5.2-7-11.7-7.4-18.6c-0.1-2-0.3-4.8,0.8-7.1
					c0.8-1.6,1.7-0.8,1.7,1.9C950.9,126.3,977.7,116.3,977.8,138.9L977.8,138.9z"/>
				<path class="st100" d="M977.8,138.9c-8.9,0.3-17.3-4.6-23-11.4c-3.4-4.1-5.7-8.9-6.8-14.1c6.3,14.5,16,21.3,29.2,20.4
					C977.6,135.5,977.8,137.2,977.8,138.9L977.8,138.9z"/>
				<path class="st101" d="M977.8,138.9c-8.9,0.3-17.3-4.6-23-11.4c-2.5-3-4.5-6.4-5.8-10.1c6.3,13,17.7,19,28.3,17
					C977.7,135.9,977.9,137.4,977.8,138.9L977.8,138.9z"/>
				<path class="st100" d="M975.2,116.3c2.6,4.2,3.6,11.6,2.9,22.2c2.5-7.9,1.9-15.8-2-23.8C976.1,114.7,975.8,115.3,975.2,116.3
					L975.2,116.3z"/>
				<path class="st100" d="M963.7,120.9c2.4,6.2,7.1,12.3,14.3,18.3c-7.9-5.6-13.1-11.8-15.4-18.7
					C962.8,120.8,963.2,120.9,963.7,120.9z"/>
				<path class="st102" d="M978,139.2c-29.8-22.1-13.5-55.7-12.2-48.7c0.5,2.6-1,4.2-0.7,7.1C966.6,112.7,983.7,111.5,978,139.2z"/>
				<path class="st103" d="M978,139.2c-29.8-22.1-13.5-55.7-12.2-48.7l0,0c-7.2,6.4-3.4,31.3,12.8,45.3
					C978.4,136.9,978.2,138,978,139.2z"/>
				<path class="st101" d="M978,139.2c-27.3-20.3-16-50.2-12.8-49.6l0.3,0.1l0,0c-7.7,7.2-4.9,31.5,13.1,46.1
					C978.4,136.9,978.2,138,978,139.2z"/>
				<path class="st104" d="M996,165.2c0,0.3-0.1,0.5-0.3,0.7h-33.8c-0.1-0.2-0.2-0.5-0.2-0.7c-0.3-1.5-2.7-11.9-7.3-31.2h48.7
					C1002.1,137.8,999.8,148.2,996,165.2L996,165.2z"/>
				<path class="st105" d="M996,165.2c0,0.3-0.1,0.5-0.3,0.7h-33.8c-0.1-0.2-0.2-0.5-0.2-0.7c-0.1-0.5-0.5-2.2-1.1-5.1
					c9.4-0.4,25.6-1.9,38.3-7.8C998,156.1,997,160.3,996,165.2L996,165.2z"/>
				<path class="st106" d="M954.4,136.4c-1.4,0-2.5-1.1-2.5-2.4l0,0c0-1.3,1.1-2.4,2.4-2.4c0,0,0,0,0.1,0h48.7
					c1.3,0,2.4,1.1,2.5,2.4l0,0c0,1.3-1.1,2.4-2.5,2.4H954.4z"/>
				<path class="st107" d="M963.2,138.1c-11.4,2,1.5,19.7,15,17.3c14.3-2.6,17.4-5,18.4-9.5s0.2-9.2-12.1-8.6
					S967.9,137.1,963.2,138.1L963.2,138.1z"/>
				<path class="st104" d="M954.8,133.4c-0.8,0.6-0.8,1.5,2.2,2c5.6,1,32.6-0.1,35.3-0.8s-3.4-2.6-8.9-2.4S957.9,131.1,954.8,133.4
					L954.8,133.4z"/>
			</g>
			<path class="st108" d="M311.6,219.8c26.7,0,48.3-21.7,48.2-48.4s-21.7-48.3-48.4-48.2c-26.6,0-48.2,21.6-48.2,48.3
				C263.3,198.2,284.9,219.8,311.6,219.8z"/>
			<path class="st90" d="M311.6,215.7c24.4,0,44.2-19.9,44.1-44.3c0-24.4-19.9-44.2-44.3-44.1c-24.4,0-44.1,19.8-44.1,44.2
				C267.3,195.9,287.1,215.7,311.6,215.7z"/>
			<path class="st108" d="M311.6,132.8c1,0,1.8-0.8,1.8-1.7s-0.8-1.8-1.7-1.8c-1,0-1.8,0.8-1.8,1.7
				C309.8,132,310.6,132.8,311.6,132.8L311.6,132.8z"/>
			<path class="st108" d="M290.5,135c0.8-0.5,1.9-0.2,2.4,0.7s0.2,1.9-0.7,2.4c-0.8,0.5-1.9,0.2-2.4-0.6
				C289.3,136.6,289.6,135.5,290.5,135C290.4,135,290.4,135,290.5,135z"/>
			<path class="st108" d="M275,150.4c0.5-0.8,1.5-1.1,2.4-0.6l0,0c0.8,0.5,1.1,1.5,0.7,2.3c0,0,0,0,0,0.1c-0.5,0.8-1.5,1.1-2.3,0.7
				l0,0C274.8,152.3,274.5,151.3,275,150.4L275,150.4z"/>
			<path class="st108" d="M269.3,171.5c0-1,0.8-1.8,1.8-1.7s1.8,0.8,1.7,1.8c0,1-0.8,1.7-1.7,1.7
				C270.1,173.3,269.3,172.5,269.3,171.5L269.3,171.5z"/>
			<path class="st108" d="M275,192.6c-0.5-0.8-0.2-1.9,0.6-2.4c0.8-0.5,1.9-0.2,2.4,0.6s0.2,1.9-0.6,2.4l0,0
				C276.5,193.7,275.5,193.5,275,192.6z"/>
			<path class="st108" d="M290.5,208.1c-0.8-0.5-1.1-1.5-0.7-2.4l0,0c0.4-0.9,1.4-1.3,2.3-0.8s1.3,1.4,0.8,2.3
				c0,0.1-0.1,0.2-0.2,0.3C292.3,208.3,291.3,208.6,290.5,208.1L290.5,208.1L290.5,208.1z"/>
			<path class="st108" d="M311.6,213.7c-1,0-1.8-0.8-1.8-1.7s0.8-1.8,1.7-1.8s1.8,0.8,1.8,1.7l0,0
				C313.3,212.9,312.5,213.7,311.6,213.7z"/>
			<path class="st108" d="M332.7,208.1c-0.8,0.5-1.9,0.2-2.4-0.6l0,0c-0.5-0.9-0.2-1.9,0.7-2.4l0,0c0.8-0.5,1.9-0.2,2.4,0.6
				C333.9,206.5,333.6,207.6,332.7,208.1L332.7,208.1z"/>
			<path class="st108" d="M348.2,192.6c-0.4,0.9-1.5,1.2-2.3,0.8s-1.2-1.5-0.8-2.3c0-0.1,0.1-0.2,0.1-0.2c0.4-0.9,1.5-1.2,2.3-0.8
				s1.2,1.5,0.8,2.3C348.3,192.5,348.2,192.6,348.2,192.6z"/>
			<path class="st108" d="M353.9,171.5c0,1-0.8,1.8-1.7,1.8c-1,0-1.8-0.8-1.8-1.7c0-1,0.8-1.8,1.7-1.8
				C353,169.8,353.8,170.5,353.9,171.5z"/>
			<path class="st108" d="M348.2,150.4c0.5,0.8,0.2,1.9-0.6,2.4l0,0c-0.8,0.5-1.9,0.2-2.4-0.7l0,0c-0.5-0.8-0.2-1.8,0.6-2.3
				c0,0,0,0,0.1,0C346.6,149.3,347.7,149.6,348.2,150.4L348.2,150.4L348.2,150.4z"/>
			<path class="st108" d="M332.7,135c0.8,0.5,1.1,1.5,0.7,2.4c-0.5,0.8-1.5,1.1-2.4,0.7c-0.8-0.5-1.1-1.5-0.7-2.4l0,0
				C330.8,134.8,331.9,134.5,332.7,135z"/>
			<path class="st109" d="M310.3,172.3c-0.4-0.7-0.2-1.6,0.5-2c0,0,0,0,0.1,0c0.7-0.4,1.6-0.1,2,0.6l17.1,29.2
				c0.4,0.7,0.2,1.6-0.5,2l0,0c-0.7,0.4-1.6,0.2-2-0.6L310.3,172.3z"/>
			<path class="st109" d="M312.3,170.2c0.7,0.4,1,1.2,0.6,1.9v0.1c-0.4,0.7-1.3,1-2,0.6l-24.3-13c-0.7-0.4-1-1.3-0.6-2s1.2-1,2-0.6
				l0,0L312.3,170.2z"/>
			<path class="st109" d="M312.3,171.5c0,0.4-0.4,0.7-0.8,0.7s-0.6-0.3-0.7-0.7v-36c0-0.4,0.4-0.7,0.8-0.7s0.6,0.3,0.7,0.7V171.5z"
				/>
			<path class="st110" d="M311.6,173.6c1.2,0,2.1-1,2.1-2.1c0-1.2-1-2.1-2.1-2.1s-2.1,0.9-2.1,2.1
				C309.4,172.7,310.4,173.6,311.6,173.6L311.6,173.6z"/>
			<path class="st90" d="M311.6,173.2c0.9,0,1.7-0.7,1.7-1.7c0-0.9-0.7-1.7-1.7-1.7c-0.9,0-1.7,0.7-1.7,1.7
				C309.9,172.4,310.7,173.2,311.6,173.2L311.6,173.2z"/>
			<path class="st77" d="M262.7,480.6c-1.4,0-2.9-0.5-4-1.4c-4-3-5.1-10.8-5.1-19.4v-1.1h2.2v1.1c0,9.8,1.8,15.5,4.2,17.7
				c0.9,0.9,2.2,1.2,3.4,0.9l1-0.3l0.6,2.1l-1.1,0.3C263.6,480.5,263.2,480.6,262.7,480.6z"/>
			<path class="st63" d="M267.9,469.7h64.4c1.8,0,3.3,1.5,3.3,3.3v12.7c0,1.8-1.5,3.3-3.3,3.3h-64.4c-1.8,0-3.3-1.5-3.3-3.3V473
				C264.5,471.2,266,469.7,267.9,469.7z"/>
			<path class="st74" d="M332.3,489c1.8,0,3.3-1.5,3.3-3.3V473c0-1.8-1.5-3.3-3.3-3.3h-4.4c-4.5,7.9-10.8,14.6-18.6,19.4L332.3,489z
				"/>
			<rect x="269.4" y="475.6" class="st111" width="7" height="7.4"/>
			<circle class="st77" cx="286.9" cy="479.4" r="6.7"/>
			<circle class="st112" cx="286.9" cy="479.4" r="5.8"/>
			<circle class="st109" cx="284.8" cy="476.6" r="0.9"/>
			<path class="st109" d="M290.3,482c0,0.5-0.4,0.9-0.9,0.9s-0.9-0.4-0.9-0.9s0.4-0.9,0.9-0.9S290.3,481.5,290.3,482L290.3,482z"/>
			<circle class="st77" cx="304.9" cy="479.4" r="6.7"/>
			<circle class="st112" cx="304.9" cy="479.4" r="5.8"/>
			<circle class="st109" cx="302.8" cy="476.6" r="0.9"/>
			<circle class="st109" cx="307.4" cy="482" r="0.9"/>
			<circle class="st77" cx="322.9" cy="479.4" r="6.7"/>
			<circle class="st112" cx="322.9" cy="479.4" r="5.8"/>
			<path class="st109" d="M321.7,476.6c0,0.5-0.4,0.9-0.9,0.9s-0.9-0.4-0.9-0.9s0.4-0.9,0.9-0.9S321.7,476.1,321.7,476.6
				L321.7,476.6z"/>
			<circle class="st109" cx="325.4" cy="482" r="0.9"/>
			<rect x="263.7" y="475.3" class="st109" width="0.8" height="8.4"/>
			<path class="st113" d="M300.6,354.2h-12.8c-0.1,6.1-2.3,11.9-6,16.6h41.6c-3.7-4.8-5.9-10.6-6-16.6H300.6z"/>
			<path class="st88" d="M238.3,260.8h128.9c3.1,0,5.6,2.5,5.6,5.6V350c0,3.1-2.5,5.6-5.6,5.6H238.3c-3.1,0-5.6-2.5-5.6-5.6v-83.6
				C232.7,263.4,235.2,260.9,238.3,260.8z"/>
			<path class="st114" d="M238.3,264.3h128.9c1.2,0,2.1,0.9,2.1,2.1l0,0v74.1c0,1.2-0.9,2.1-2.1,2.1l0,0H238.3
				c-1.2,0-2.1-0.9-2.1-2.1v-74.1C236.1,265.3,237.1,264.3,238.3,264.3z"/>
			<path class="st80" d="M369,265.4c0.2,0.3,0.3,0.7,0.3,1v74.1c0,1.2-0.9,2.1-2.1,2.1l0,0H238.3c-0.5,0-1.1-0.2-1.5-0.6L369,265.4z
				"/>
			<path class="st115" d="M302.7,351.5c1.4,0,2.5-1.1,2.5-2.5s-1.1-2.5-2.5-2.5s-2.5,1.1-2.5,2.5l0,0
				C300.3,350.4,301.4,351.5,302.7,351.5z"/>
			<path class="st115" d="M276,368.8h53.3c2.1,0,3.9,1.7,3.9,3.9v1.4h-61.1v-1.4C272.2,370.5,273.9,368.8,276,368.8z"/>
			<path class="st115" d="M349.9,365.8c4.7-0.1,8.6,3.5,8.8,8.2h-17.6C341.2,369.4,345.1,365.7,349.9,365.8z"/>
			<path class="st88" d="M354.8,367.3c2.4,1.5,3.8,4,3.8,6.8h-17.5c0-0.5,0-0.9,0.1-1.4L354.8,367.3z"/>
			<path class="st116" d="M201.2,268.6c-9.1,9.2-15.1,18.1-18.6,29.5c-3.6,11.6-4.7,51.2-4.1,71.6l-5.8,0.1
				c-0.6-21,0.6-61.1,4.4-73.4c3.8-12.5,10.2-22,20-31.9L201.2,268.6z"/>
			<path class="st117" d="M175.9,362.2c7.9,0,14.4,4.7,14.4,10.6v0.1h-28.8v-0.1C161.5,366.9,167.9,362.2,175.9,362.2L175.9,362.2z"
				/>
			<path class="st118" d="M159,374.1c-0.7-0.1-1.3-0.7-1.2-1.5c0.1-0.7,0.6-1.2,1.2-1.2h33.7c0.7,0.1,1.3,0.7,1.2,1.5
				c-0.1,0.7-0.6,1.2-1.2,1.2H159z"/>
			<path class="st119" d="M228,290.3c-6.8,7-13.7,11.4-15.3,9.8s2.6-8.5,9.4-15.5s13.7-11.4,15.3-9.8S234.8,283.3,228,290.3
				L228,290.3z"/>
			<path class="st120" d="M227.4,288.8c-3,3-7.9,3.1-10.9,0.1s-3.1-7.9-0.1-10.9s7.8-3.1,10.9-0.1
				C230.3,280.9,230.4,285.7,227.4,288.8L227.4,288.8z"/>
			<path class="st117" d="M212.6,300c-2.5-1.1-4.8-2.6-6.7-4.5c-5.7-5.3-8-13.3-6-20.8c-0.1-0.1-0.2-0.2-0.3-0.3l-5-4.9
				c-3.3-3.3-3.4-8.6-0.2-11.9l0,0c3.3-3.3,8.6-3.4,11.9-0.1l5,4.8c0.1,0.1,0.2,0.2,0.3,0.3c7.5-2.2,15.5-0.1,21,5.4
				c2,1.9,3.6,4.3,4.8,6.8c-5.7,2.4-10.8,6-15,10.4C218.2,289.5,214.9,294.5,212.6,300z"/>
			<path class="st119" d="M199.9,274.7c-0.1-0.1-0.2-0.2-0.3-0.3l-5-4.9c-3.3-3.3-3.4-8.6-0.2-11.9l0,0c3.3-3.3,8.6-3.4,11.9-0.1
				l5,4.8c0.1,0.1,0.2,0.2,0.3,0.3C205.8,264.1,201.3,268.8,199.9,274.7L199.9,274.7z"/>
			<polygon class="st121" points="441.1,333.4 436.9,373.6 439.5,372.8 443.2,373.6 			"/>
			<path class="st114" d="M445.7,328.8h31.7c2.7,0.2,4.8,2.4,4.6,5.1v35c0.1,2.7-2,5-4.6,5.1h-31.7c-2.7-0.2-4.8-2.4-4.6-5.1v-35
				C441,331.2,443,328.9,445.7,328.8z"/>
			<path class="st122" d="M445.7,328.8h31.7c2.7,0.2,4.8,2.4,4.6,5.1v6h-41v-6C441,331.2,443,328.9,445.7,328.8L445.7,328.8z"/>
			<path class="st123" d="M447,335c0-0.4,0.1-0.8,0.2-1.2c0.1-0.2,0.2-0.5,0.4-0.7c0.2-0.2,0.3-0.3,0.5-0.4c0.3-0.1,0.6-0.2,0.9-0.2
				c0.6,0,1.1,0.2,1.5,0.7c0.8,1.1,0.8,2.5,0,3.6c-0.8,0.8-2.1,0.8-3,0l0,0C447.2,336.3,447,335.7,447,335z M447.9,335
				c0,0.4,0.1,0.9,0.3,1.2c0.4,0.5,1.1,0.6,1.5,0.2c0.1-0.1,0.1-0.1,0.2-0.2c0.2-0.4,0.4-0.8,0.3-1.3c0-0.4-0.1-0.9-0.3-1.2
				c-0.2-0.3-0.5-0.4-0.9-0.4c-0.3,0-0.7,0.1-0.9,0.4C448,334.1,447.8,334.6,447.9,335L447.9,335z"/>
			<path class="st123" d="M454.8,335.6l0.9,0.3c-0.1,0.4-0.3,0.9-0.6,1.2c-0.3,0.3-0.7,0.4-1.1,0.4c-0.5,0-1.1-0.2-1.4-0.6
				c-0.4-0.5-0.6-1.1-0.6-1.8c0-0.7,0.2-1.3,0.6-1.9c0.4-0.4,0.9-0.7,1.5-0.7c0.5,0,1,0.2,1.3,0.5c0.2,0.3,0.4,0.6,0.4,0.9l-0.9,0.2
				c0-0.2-0.2-0.4-0.3-0.6c-0.2-0.1-0.4-0.2-0.6-0.2c-0.3,0-0.6,0.1-0.8,0.4c-0.2,0.4-0.3,0.8-0.3,1.2c0,0.5,0.1,0.9,0.3,1.3
				c0.2,0.2,0.5,0.4,0.8,0.4c0.2,0,0.4-0.1,0.6-0.3C454.7,336.2,454.8,335.9,454.8,335.6z"/>
			<path class="st123" d="M457.4,337.4v-4h-1.3v-0.8h3.4v0.8h-1.3v4H457.4z"/>
			<path class="st123" d="M460.1,335c0-0.4,0.1-0.8,0.2-1.2c0.1-0.2,0.2-0.5,0.4-0.7c0.2-0.2,0.3-0.3,0.6-0.4
				c0.3-0.1,0.6-0.2,0.9-0.2c0.6,0,1.1,0.2,1.5,0.7s0.6,1.2,0.6,1.8c0,0.7-0.2,1.3-0.6,1.8c-0.8,0.8-2.2,0.8-3,0l0,0
				C460.3,336.3,460.1,335.7,460.1,335z M461,335c0,0.4,0.1,0.9,0.3,1.2c0.2,0.3,0.5,0.4,0.9,0.4c0.3,0,0.7-0.1,0.9-0.4
				c0.2-0.4,0.4-0.8,0.3-1.3c0-0.4-0.1-0.9-0.3-1.2c-0.4-0.5-1.1-0.5-1.6-0.1l-0.1,0.1C461.1,334.1,461,334.6,461,335L461,335z"/>
			<path class="st123" d="M465.2,332.6h1.7c0.3,0,0.5,0,0.8,0c0.2,0,0.3,0.1,0.5,0.2c0.1,0.1,0.3,0.2,0.3,0.4
				c0.1,0.2,0.1,0.4,0.1,0.6s-0.1,0.4-0.2,0.6s-0.3,0.3-0.4,0.4c0.2,0.1,0.5,0.2,0.6,0.4c0.1,0.2,0.2,0.5,0.2,0.7s0,0.4-0.1,0.6
				s-0.2,0.4-0.4,0.5c-0.2,0.1-0.4,0.2-0.6,0.2h-1h-1.5V332.6z M466.1,333.4v1.1h1.2c0.1,0,0.3-0.1,0.4-0.2s0.1-0.2,0.1-0.4
				c0-0.1,0-0.3-0.1-0.4s-0.2-0.2-0.3-0.2c-0.2,0-0.5,0-0.7,0L466.1,333.4z M466.1,335.3v1.3h0.8c0.2,0,0.4,0,0.6,0
				c0.1,0,0.2-0.1,0.3-0.2c0.1-0.1,0.1-0.3,0.1-0.4s0-0.3-0.1-0.4s-0.2-0.2-0.3-0.2c-0.3-0.1-0.5-0.1-0.8-0.1L466.1,335.3z"/>
			<path class="st123" d="M469.6,337.4v-4.8h3.2v0.8h-2.3v1.1h2.2v0.8h-2.2v1.3h2.4v0.8L469.6,337.4z"/>
			<path class="st123" d="M473.4,337.4v-4.8h1.8c0.3,0,0.7,0,1,0.1c0.2,0.1,0.4,0.3,0.5,0.5s0.2,0.5,0.2,0.8s-0.1,0.6-0.3,0.9
				c-0.2,0.2-0.5,0.4-0.9,0.4c0.2,0.1,0.3,0.2,0.5,0.4c0.2,0.2,0.4,0.5,0.5,0.8l0.5,0.9h-1l-0.6-1c-0.1-0.2-0.3-0.5-0.5-0.7
				c-0.1-0.1-0.2-0.2-0.3-0.2c-0.1,0-0.3-0.1-0.4-0.1h-0.2v2L473.4,337.4z M474.3,334.6h0.6c0.3,0,0.5,0,0.8-0.1
				c0.1,0,0.2-0.1,0.2-0.2s0.1-0.2,0-0.3c0-0.1,0-0.3-0.1-0.4s-0.2-0.2-0.3-0.2c-0.2,0-0.4,0-0.6,0h-0.7L474.3,334.6z"/>
			<path class="st96" d="M454.6,350.5c1.6-0.1,3.1,0.7,4,2c1.1,1.6,1.7,4.3,1.7,8s-0.6,6.4-1.7,8c-0.9,1.3-2.4,2.1-4,2
				c-1.7,0-3.2-0.8-4.1-2.2c-1-1.5-1.6-4.1-1.6-7.8s0.6-6.3,1.7-7.9C451.4,351.2,453,350.4,454.6,350.5z M454.6,353.6
				c-0.4,0-0.8,0.2-1.1,0.4c-0.4,0.4-0.7,1-0.7,1.5c-0.3,1.6-0.4,3.3-0.4,4.9c-0.1,1.6,0,3.2,0.3,4.7c0.1,0.6,0.4,1.2,0.8,1.7
				c0.3,0.3,0.7,0.4,1.1,0.4s0.8-0.2,1.1-0.4c0.4-0.4,0.7-1,0.8-1.5c0.3-1.6,0.4-3.2,0.4-4.9c0.1-1.6-0.1-3.2-0.3-4.7
				c-0.1-0.6-0.4-1.2-0.8-1.7C455.4,353.7,455,353.6,454.6,353.6z"/>
			<path class="st96" d="M465.4,359.5c-0.8-0.3-1.5-0.9-1.9-1.7c-0.4-0.7-0.6-1.5-0.6-2.4c0-1.3,0.5-2.6,1.4-3.6
				c2.2-1.9,5.6-1.9,7.8,0c0.9,1,1.4,2.3,1.4,3.6c0,0.9-0.2,1.7-0.6,2.4c-0.4,0.7-1,1.3-1.8,1.6c0.9,0.4,1.7,1.1,2.2,1.9
				c0.5,0.9,0.8,1.9,0.8,2.9c0.1,1.6-0.5,3.2-1.5,4.4c-1.1,1.1-2.6,1.8-4.1,1.7c-1.5,0-2.9-0.5-4-1.4c-1.3-1.1-2-2.8-1.9-4.5
				c0-1,0.2-2,0.7-2.9C463.7,360.7,464.5,360,465.4,359.5z M465.8,364.1c-0.1,0.9,0.2,1.7,0.7,2.4c0.4,0.6,1.1,0.9,1.8,0.9
				c0.7,0,1.3-0.3,1.7-0.8c0.5-0.7,0.7-1.6,0.7-2.4s-0.2-1.6-0.7-2.2c-0.4-0.5-1.1-0.8-1.8-0.8c-0.7-0.1-1.5,0.3-1.9,0.9
				C466,362.7,465.8,363.4,465.8,364.1z M466.1,355.8c0,0.6,0.2,1.3,0.6,1.8c0.9,0.8,2.2,0.8,3.1,0c0.4-0.5,0.6-1.1,0.6-1.8
				c0-0.6-0.2-1.2-0.6-1.7c-0.4-0.4-0.9-0.7-1.5-0.6c-0.6,0-1.2,0.2-1.5,0.6C466.3,354.6,466.1,355.2,466.1,355.8L466.1,355.8z"/>
			<path class="st96" d="M450.4,347.7v-4.8h1.3l0.8,3.3l0.8-3.3h1.3v4.8h-0.8v-3.8l-0.9,3.8h-0.8l-0.9-3.8v3.8H450.4z"/>
			<path class="st96" d="M455.2,345.9c0-0.3,0.1-0.6,0.2-0.9s0.3-0.5,0.6-0.6c0.2-0.2,0.5-0.2,0.8-0.2c0.4,0,0.9,0.2,1.2,0.5
				c0.6,0.8,0.6,1.8,0,2.6c-0.3,0.3-0.7,0.5-1.1,0.5c-0.3,0-0.6-0.1-0.8-0.2c-0.3-0.1-0.5-0.4-0.6-0.6
				C455.2,346.6,455.2,346.2,455.2,345.9z M456,345.9c0,0.3,0.1,0.6,0.2,0.8c0.2,0.3,0.6,0.4,0.9,0.1c0.1,0,0.1-0.1,0.1-0.1
				c0.2-0.2,0.2-0.5,0.2-0.8s-0.1-0.6-0.2-0.8c-0.2-0.3-0.6-0.4-0.9-0.1c-0.1,0-0.1,0.1-0.1,0.1C456.1,345.4,456,345.6,456,345.9
				L456,345.9z"/>
			<path class="st96" d="M462,347.7h-0.8v-1.8c0-0.2,0-0.5,0-0.7c0-0.1-0.1-0.2-0.2-0.3c-0.1-0.1-0.2-0.1-0.3-0.1
				c-0.1,0-0.3,0-0.4,0.1s-0.2,0.2-0.2,0.4c-0.1,0.3-0.1,0.5-0.1,0.8v1.6h-0.8v-3.5h0.8v0.5c0.2-0.4,0.6-0.6,1-0.6
				c0.2,0,0.3,0,0.5,0.1c0.1,0.1,0.3,0.2,0.3,0.3c0.1,0.1,0.1,0.2,0.2,0.4c0,0.2,0,0.4,0,0.6V347.7z"/>
			<path class="st96" d="M465.9,347.7h-0.8v-0.5c-0.1,0.2-0.3,0.3-0.5,0.4s-0.3,0.1-0.5,0.1c-0.4,0-0.7-0.2-0.9-0.5
				c-0.3-0.4-0.4-0.9-0.4-1.3c0-0.5,0.1-0.9,0.4-1.3c0.2-0.3,0.6-0.5,1-0.5s0.7,0.2,0.9,0.5v-1.7h0.8V347.7z M463.7,345.9
				c0,0.3,0,0.5,0.1,0.8c0.1,0.2,0.3,0.4,0.6,0.4c0.2,0,0.4-0.1,0.5-0.3c0.1-0.2,0.2-0.5,0.2-0.8s0-0.6-0.2-0.9s-0.6-0.4-0.8-0.2
				c-0.1,0-0.1,0.1-0.2,0.2C463.7,345.3,463.6,345.6,463.7,345.9z"/>
			<path class="st96" d="M467.5,345.3l-0.8-0.1c0.1-0.3,0.2-0.5,0.4-0.7c0.3-0.2,0.6-0.3,0.9-0.2c0.3,0,0.6,0,0.8,0.1
				c0.2,0.1,0.3,0.2,0.4,0.4c0.1,0.3,0.1,0.5,0.1,0.8v1.1c0,0.2,0,0.4,0,0.7c0,0.2,0.1,0.3,0.1,0.5h-0.8l-0.1-0.3c0-0.1,0-0.1,0-0.1
				c-0.1,0.1-0.3,0.3-0.5,0.3c-0.2,0.1-0.3,0.1-0.5,0.1c-0.3,0-0.6-0.1-0.8-0.3c-0.2-0.2-0.3-0.5-0.3-0.7s0-0.4,0.1-0.5
				s0.2-0.3,0.4-0.4c0.2-0.1,0.4-0.2,0.6-0.2c0.3,0,0.5-0.1,0.8-0.2v-0.1c0-0.1,0-0.3-0.1-0.4s-0.3-0.1-0.5-0.1
				c-0.1,0-0.2,0-0.3,0.1C467.6,345,467.5,345.1,467.5,345.3z M468.6,346l-0.5,0.1c-0.2,0-0.3,0.1-0.5,0.1c-0.1,0.1-0.2,0.2-0.2,0.3
				c0,0.1,0,0.2,0.1,0.3c0.1,0.1,0.2,0.1,0.3,0.1c0.2,0,0.3-0.1,0.4-0.2s0.2-0.2,0.2-0.3c0-0.1,0-0.3,0-0.4H468.6z"/>
			<path class="st96" d="M469.7,344.2h0.9l0.7,2.5l0.7-2.5h0.9l-1.1,3.3l-0.2,0.6c-0.1,0.2-0.1,0.3-0.2,0.5
				c-0.1,0.1-0.1,0.2-0.2,0.3c-0.1,0.1-0.2,0.1-0.3,0.1c-0.1,0-0.3,0.1-0.4,0.1c-0.2,0-0.3,0-0.5-0.1l-0.1-0.7c0.1,0,0.2,0,0.4,0
				c0.2,0,0.3-0.1,0.4-0.2s0.2-0.3,0.2-0.5L469.7,344.2z"/>
			<path class="st124" d="M517.8,609.1c0,4.8-90.6,8.7-202.3,8.7s-202.3-3.9-202.3-8.7s90.6-8.7,202.3-8.7S517.8,604.3,517.8,609.1z
				"/>
			<rect x="115.4" y="374.1" class="st81" width="400.1" height="17"/>
			<path class="st79" d="M477.5,387.4c0,0,30.6,1.9,36.8-10.9h1.2V391H115.4v-3.6H477.5z"/>
			<rect x="481.9" y="391" class="st81" width="21.6" height="218.1"/>
			<path class="st79" d="M498.9,548.7c0,0,2.5,51.1-13.8,58.9v1.5h18.4V391h-4.6V548.7z"/>
			<rect x="130.2" y="391" class="st81" width="21.6" height="218.1"/>
			<path class="st79" d="M147.2,548.7c0,0,2.4,51.1-13.9,58.9v1.5h18.4V391h-4.6v157.7H147.2z"/>
			<polygon class="st125" points="503.3,459.5 130.2,459.5 130.4,391 503.4,391 			"/>
			<rect x="130.4" y="391" class="st74" width="373.1" height="7.2"/>
			<path class="st124" d="M338.4,404.1h140.4c3.1,0,5.6,2.5,5.6,5.6v35.9c0,3.1-2.5,5.5-5.6,5.5l0,0H338.4c-3.1,0-5.6-2.5-5.6-5.5
				l0,0v-35.9C332.8,406.6,335.3,404.1,338.4,404.1z"/>
			<path class="st126" d="M334.9,399.4h140.4c3.1,0,5.6,2.5,5.6,5.5v35.9c0,3.1-2.5,5.6-5.6,5.6H334.9c-3.1,0-5.5-2.5-5.5-5.6v-35.9
				C329.4,401.9,331.9,399.4,334.9,399.4z"/>
			<path class="st127" d="M480.9,419.3v21.6c0,3.1-2.5,5.6-5.6,5.6H439C456.5,439.7,471.8,429.7,480.9,419.3L480.9,419.3z
				 M356.9,446.5h-22c-3.1,0-5.5-2.5-5.5-5.6v-18.5C336.3,432.7,345.8,441,356.9,446.5z"/>
			<path class="st128" d="M405.1,423.4c5.8,0,10.4-4.7,10.4-10.4c0-5.8-4.7-10.4-10.4-10.4c-5.8,0-10.4,4.7-10.4,10.4l0,0
				C394.7,418.7,399.4,423.4,405.1,423.4L405.1,423.4z"/>
			<path class="st129" d="M405.1,419.4c3.5,0,6.4-2.9,6.4-6.4s-2.9-6.4-6.4-6.4s-6.4,2.9-6.4,6.4
				C398.8,416.5,401.6,419.3,405.1,419.4z"/>
			<path class="st79" d="M410.2,409.1c0.8,1.1,1.3,2.5,1.3,3.8c0,3.5-2.9,6.4-6.4,6.4c-1.4,0-2.8-0.5-3.9-1.3
				C404.1,417.9,409.3,416.8,410.2,409.1L410.2,409.1z"/>
			<path class="st129" d="M400.3,412.3c0,0,0.9-4.4,4.7-4.4C414.9,407.7,399.4,422.7,400.3,412.3z"/>
			<path class="st124" d="M164.2,404.1h140.4c3.1,0,5.6,2.5,5.6,5.6v35.9c0,3.1-2.5,5.5-5.6,5.5l0,0H164.2c-3.1,0-5.6-2.5-5.6-5.5
				l0,0v-35.9C158.6,406.6,161.1,404.1,164.2,404.1z"/>
			<path class="st126" d="M160.7,399.4h140.4c3.1,0,5.6,2.5,5.6,5.5v35.9c0,3.1-2.5,5.6-5.6,5.6H160.7c-3.1,0-5.5-2.5-5.5-5.6v-35.9
				C155.2,401.9,157.7,399.4,160.7,399.4z"/>
			<path class="st127" d="M306.7,419.3v21.6c0,3.1-2.5,5.6-5.6,5.6h-36.3C282.3,439.7,297.6,429.7,306.7,419.3L306.7,419.3z
				 M182.7,446.5h-22c-3.1,0-5.5-2.5-5.5-5.6v-18.5C162.1,432.6,171.6,441,182.7,446.5z"/>
			<path class="st127" d="M231,423.4c5.8,0,10.4-4.7,10.4-10.5s-4.7-10.4-10.5-10.4c-5.7,0-10.4,4.7-10.4,10.4
				C220.5,418.8,225.2,423.4,231,423.4z"/>
			<path class="st129" d="M231,419.4c3.5,0,6.4-2.9,6.4-6.4s-2.9-6.4-6.4-6.4s-6.4,2.9-6.4,6.4S227.5,419.4,231,419.4z"/>
			<path class="st79" d="M236,409.1c0.8,1.1,1.3,2.5,1.3,3.8c0,3.5-2.9,6.4-6.4,6.4c-1.4,0-2.8-0.5-3.9-1.4
				C229.9,417.9,235.1,416.8,236,409.1L236,409.1z"/>
			<path class="st129" d="M226.1,412.3c0,0,0.9-4.4,4.7-4.4C240.6,407.7,225.2,422.7,226.1,412.3z"/>
			<path class="st124" d="M427.5,632c0,4.1-27.9,7.5-62.3,7.5s-62.3-3.4-62.3-7.5s27.9-7.5,62.3-7.5S427.5,627.8,427.5,632z"/>
			<path class="st130" d="M311.6,491.5c-2.6,0-4.6-2.1-4.6-4.6s2.1-4.6,4.6-4.6l0,0c35.6-2.8,71.4-2.8,107,0c2.6,0,4.6,2.1,4.6,4.6
				s-2.1,4.6-4.6,4.6H311.6z"/>
			<path class="st131" d="M418.7,482.2c-9.9-0.7-19.8-1.3-29.7-1.6c-12.2,4.2-29.4,8.7-51.7,10.9h81.4c2.6,0,4.6-2.1,4.6-4.6
				S421.2,482.2,418.7,482.2z"/>
			<path class="st132" d="M359.1,600.5v-52c0-1.4,0.6-2.8,1.7-3.8v-48.2c0-2,1.7-3.7,3.7-3.7h1.5c2,0,3.7,1.6,3.7,3.7l0,0v48.3
				c1.1,0.9,1.7,2.3,1.7,3.8v52L359.1,600.5z"/>
			<path class="st112" d="M314.3,622.2c18.1-25.1,51.9-33.2,79.4-19.1c8.9,4.5,16.5,11,22.3,19.1l-3.2,2.3h-5
				c-4.8-6-10.9-10.9-17.7-14.4c-3.2-1.6-6.5-2.9-10-3.9c1.2,1.2,2.3,2.4,3.3,3.6c3.5,4.4,6.1,9.3,7.9,14.6h-8.5
				c-1.4-3.5-3.3-6.8-5.7-9.7c-3.3-4.1-7.4-7.5-12-10.1c-4.6,2.6-8.7,6-12,10.1c-2.3,3-4.2,6.2-5.6,9.7H339
				c1.8-5.3,4.5-10.2,7.9-14.6c1-1.3,2.1-2.5,3.3-3.6c-10.9,3.1-20.6,9.5-27.7,18.3h-5L314.3,622.2z"/>
			<path class="st132" d="M318.4,634.4c3.9,0,7.1-3.2,7.1-7.2c0-3.9-3.2-7.1-7.1-7.1s-7.1,3.2-7.1,7.1l0,0
				C311.3,631.2,314.5,634.4,318.4,634.4z"/>
			<path class="st132" d="M343.3,634.4c3.9,0,7.1-3.2,7.1-7.2c0-3.9-3.2-7.1-7.1-7.1s-7.1,3.2-7.1,7.1l0,0
				C336.2,631.2,339.4,634.4,343.3,634.4z"/>
			<path class="st132" d="M386.6,634.4c3.9,0,7.1-3.2,7.1-7.2c0-3.9-3.2-7.1-7.1-7.1s-7.1,3.2-7.1,7.1l0,0
				C379.5,631.2,382.7,634.4,386.6,634.4z"/>
			<path class="st132" d="M411.6,634.4c3.9,0,7.1-3.2,7.1-7.2c0-3.9-3.2-7.1-7.1-7.1s-7.1,3.2-7.1,7.1l0,0
				C404.5,631.2,407.7,634.4,411.6,634.4z"/>
			<path class="st133" d="M365.5,490.9h-54.6c7.6,9,29,15.4,54.1,15.4s46.5-6.4,54.1-15.4H365.5z"/>
			<rect x="394.4" y="418" class="st112" width="9.2" height="77.6"/>
			<rect x="326.8" y="418" class="st112" width="9.2" height="77.6"/>
			<path class="st134" d="M324.4,369H406c7.8,0,14.2,6.3,14.2,14.2v45.2c0,7.8-6.3,14.2-14.2,14.2h-81.6c-7.8,0-14.2-6.3-14.2-14.2
				v-45.2C310.2,375.3,316.6,369,324.4,369z"/>
			<path class="st135" d="M407.1,369.1c-4.3,18.7-15.2,55.5-35.9,73.5H406c7.8,0,14.2-6.3,14.2-14.2v-45.2
				C420.2,375.8,414.5,369.6,407.1,369.1z"/>
			<path class="st136" d="M317.4,390.6c0,0,0.4-17.4,17.4-17.4h52.3c0,0,14.1,0.9,6.1,17.4s-19.4,45.6-33.3,45.6h-37.3
				c0,0-5.2,0.4-5.2-21.8V390.6z"/>
			<path class="st137" d="M1155.3,705.9c-0.1,3.7-14,6.5-31.2,6.2s-31-3.5-30.9-7.2s14-6.5,31.2-6.2S1155.4,702.2,1155.3,705.9z"/>
			<path class="st138" d="M1137,654.7c0-4-9.3-7.2-20.7-7.2s-20.7,3.2-20.7,7.2v48.8c0,4,9.3,7.2,20.7,7.2s20.7-3.2,20.7-7.2V654.7z
				"/>
			<path class="st139" d="M1135.2,655.2c0,3.3-8.5,6-18.9,6s-18.9-2.7-18.9-6s8.5-6,18.9-6S1135.2,651.9,1135.2,655.2z"/>
			<path class="st140" d="M1144.3,561.2l-16.2-2l-12.7,102h0.9c6.8,0,12.6-1.1,16-2.8L1144.3,561.2z"/>
			<path class="st141" d="M1132.1,640.4l-4.1-0.5c-0.2,0-0.3-0.2-0.3-0.3c0-0.2,0.2-0.3,0.3-0.3l0,0l4.1,0.5c0.2,0,0.3,0.2,0.3,0.3
				S1132.2,640.4,1132.1,640.4L1132.1,640.4L1132.1,640.4z"/>
			<path class="st141" d="M1132.4,638l-4.1-0.5c-0.2,0-0.3-0.2-0.3-0.3l0,0c0-0.2,0.2-0.3,0.3-0.3l4.1,0.5c0.2,0,0.3,0.2,0.3,0.3
				l0,0C1132.7,637.9,1132.5,638,1132.4,638z"/>
			<path class="st141" d="M1132.7,635.6l-4.1-0.5c-0.2,0-0.3-0.2-0.3-0.3l0,0c0-0.2,0.2-0.3,0.3-0.3l4.1,0.5c0.2,0,0.3,0.2,0.2,0.4
				C1132.9,635.5,1132.8,635.6,1132.7,635.6z"/>
			<path class="st141" d="M1131.2,647.5l-4.1-0.5c-0.2,0-0.3-0.2-0.3-0.3l0,0c0-0.2,0.2-0.3,0.3-0.3l4.1,0.5c0.2,0,0.3,0.2,0.3,0.3
				l0,0C1131.5,647.5,1131.3,647.6,1131.2,647.5z"/>
			<path class="st141" d="M1131.5,645.2l-6.5-0.8c-0.2,0-0.3-0.2-0.3-0.3s0.2-0.3,0.3-0.3l6.4,0.8c0.2,0,0.3,0.2,0.2,0.4
				C1131.7,645.1,1131.6,645.2,1131.5,645.2L1131.5,645.2z"/>
			<path class="st141" d="M1131.8,642.8l-4.1-0.5c-0.2,0-0.3-0.2-0.3-0.3c0-0.2,0.2-0.3,0.3-0.3l0,0l4.1,0.5c0.2,0,0.3,0.2,0.3,0.3
				C1132.1,642.7,1131.9,642.8,1131.8,642.8L1131.8,642.8z"/>
			<path class="st141" d="M1130.6,652.3l-4.1-0.5c-0.2,0-0.3-0.1-0.3-0.3s0.1-0.3,0.3-0.3h0.1l4.1,0.5c0.2,0,0.3,0.2,0.3,0.3
				C1130.9,652.2,1130.8,652.3,1130.6,652.3L1130.6,652.3z"/>
			<path class="st141" d="M1130.9,649.9l-4.1-0.5c-0.2,0-0.3-0.2-0.3-0.3c0-0.2,0.2-0.3,0.3-0.3l0,0l4.1,0.5c0.2,0,0.3,0.2,0.3,0.3
				S1131,650,1130.9,649.9L1130.9,649.9L1130.9,649.9z"/>
			<path class="st141" d="M1129.7,659.5l-4.1-0.5c-0.2,0-0.3-0.2-0.3-0.3c0-0.2,0.2-0.3,0.3-0.3l0,0l4.1,0.5c0.2,0,0.3,0.2,0.3,0.3
				S1129.8,659.5,1129.7,659.5L1129.7,659.5L1129.7,659.5z"/>
			<path class="st141" d="M1130,657.1l-6.4-0.8c-0.2,0-0.3-0.1-0.3-0.3s0.1-0.3,0.3-0.3h0.1l6.5,0.8c0.2,0,0.3,0.2,0.3,0.3
				S1130.2,657.1,1130,657.1L1130,657.1L1130,657.1z"/>
			<path class="st141" d="M1130.3,654.7l-4.1-0.5c-0.2,0-0.3-0.2-0.3-0.3l0,0c0-0.2,0.2-0.3,0.3-0.3l4.1,0.5c0.2,0,0.3,0.2,0.2,0.4
				C1130.5,654.6,1130.4,654.7,1130.3,654.7z"/>
			<path class="st141" d="M1135,616.6l-4.1-0.5c-0.2,0-0.3-0.2-0.3-0.3l0,0c0-0.2,0.2-0.3,0.3-0.3l0,0l4.1,0.5
				c0.2,0,0.3,0.2,0.3,0.3C1135.3,616.5,1135.2,616.6,1135,616.6L1135,616.6z"/>
			<path class="st141" d="M1135.3,614.2l-4.1-0.5c-0.2,0-0.3-0.2-0.3-0.3c0-0.2,0.2-0.3,0.3-0.3l0,0l4.1,0.5c0.2,0,0.3,0.2,0.3,0.3
				C1135.6,614.1,1135.5,614.2,1135.3,614.2L1135.3,614.2z"/>
			<path class="st141" d="M1135.6,611.8l-4.1-0.5c-0.2,0-0.3-0.2-0.3-0.3l0,0c0-0.2,0.2-0.3,0.3-0.3l4.1,0.5c0.2,0,0.3,0.2,0.3,0.3
				l0,0C1135.9,611.7,1135.8,611.8,1135.6,611.8z"/>
			<path class="st141" d="M1134.1,623.7l-4.1-0.5c-0.2,0-0.3-0.2-0.3-0.3c0-0.2,0.2-0.3,0.3-0.3l0,0l4.1,0.5c0.2,0,0.3,0.2,0.3,0.3
				C1134.5,623.6,1134.3,623.7,1134.1,623.7L1134.1,623.7z"/>
			<path class="st141" d="M1134.4,621.3l-6.4-0.8c-0.2,0-0.3-0.1-0.3-0.3s0.1-0.3,0.3-0.3h0.1l6.4,0.8c0.2,0,0.3,0.2,0.3,0.3
				S1134.6,621.4,1134.4,621.3L1134.4,621.3z"/>
			<path class="st141" d="M1134.7,619l-4.1-0.5c-0.2,0-0.3-0.2-0.3-0.3l0,0c0-0.2,0.2-0.3,0.3-0.3l4.1,0.5c0.2,0,0.3,0.2,0.3,0.3
				l0,0C1135.1,618.9,1134.9,619,1134.7,619L1134.7,619z"/>
			<path class="st141" d="M1133.6,628.5l-4.1-0.5c-0.2,0-0.3-0.2-0.3-0.3l0,0c0-0.2,0.2-0.3,0.3-0.3l4.1,0.5c0.2,0,0.3,0.2,0.3,0.3
				l0,0C1133.9,628.4,1133.7,628.5,1133.6,628.5z"/>
			<path class="st141" d="M1133.8,626.1l-4.1-0.5c-0.2,0-0.3-0.2-0.3-0.3l0,0c0-0.2,0.2-0.3,0.3-0.3l4.1,0.5c0.2,0,0.3,0.2,0.3,0.3
				C1134.2,626,1134,626.1,1133.8,626.1C1133.9,626.1,1133.9,626.1,1133.8,626.1z"/>
			<path class="st141" d="M1133,633.3l-6.4-0.8c-0.2,0-0.3-0.2-0.3-0.3s0.2-0.3,0.3-0.3l6.4,0.8c0.2,0,0.3,0.2,0.3,0.3
				C1133.3,633.2,1133.2,633.3,1133,633.3L1133,633.3z"/>
			<path class="st141" d="M1133.3,630.9l-4.1-0.5c-0.2,0-0.3-0.2-0.3-0.3s0.2-0.3,0.3-0.3l4.1,0.5c0.2,0,0.3,0.2,0.3,0.3
				S1133.4,630.9,1133.3,630.9L1133.3,630.9z"/>
			<path class="st141" d="M1138,592.8l-4.1-0.5c-0.2,0-0.3-0.2-0.3-0.3l0,0c0-0.2,0.2-0.3,0.3-0.3l4.1,0.5c0.2,0,0.3,0.2,0.3,0.3
				l0,0C1138.3,592.7,1138.2,592.8,1138,592.8z"/>
			<path class="st141" d="M1138.3,590.4l-4.1-0.5c-0.2,0-0.3-0.2-0.3-0.3l0,0c0-0.2,0.2-0.3,0.3-0.3l4.1,0.5c0.2,0,0.3,0.2,0.3,0.3
				C1138.6,590.3,1138.5,590.4,1138.3,590.4L1138.3,590.4z"/>
			<path class="st141" d="M1138.6,588l-4.1-0.5c-0.2,0-0.3-0.2-0.3-0.3c0-0.2,0.2-0.3,0.3-0.3l0,0l4.1,0.5c0.2,0,0.3,0.2,0.3,0.3
				C1138.9,587.9,1138.8,588,1138.6,588L1138.6,588z"/>
			<path class="st141" d="M1137.1,599.9l-4.1-0.5c-0.2,0-0.3-0.2-0.3-0.3l0,0c0-0.2,0.2-0.3,0.3-0.3l4.1,0.5c0.2,0,0.3,0.2,0.3,0.3
				C1137.4,599.8,1137.3,599.9,1137.1,599.9L1137.1,599.9z"/>
			<path class="st141" d="M1137.4,597.5l-6.4-0.8c-0.2,0-0.3-0.2-0.3-0.3s0.2-0.3,0.3-0.3l6.4,0.8c0.2,0,0.3,0.2,0.3,0.3
				C1137.7,597.4,1137.6,597.5,1137.4,597.5L1137.4,597.5z"/>
			<path class="st141" d="M1137.7,595.1l-4.1-0.5c-0.2,0-0.3-0.2-0.3-0.3c0-0.2,0.2-0.3,0.3-0.3l0,0l4.1,0.5c0.2,0,0.3,0.2,0.3,0.3
				S1137.9,595.2,1137.7,595.1L1137.7,595.1L1137.7,595.1z"/>
			<path class="st141" d="M1136.5,604.7l-4.1-0.5c-0.2,0-0.3-0.2-0.3-0.3c0-0.2,0.2-0.3,0.3-0.3l0,0l4.1,0.5c0.2,0,0.3,0.2,0.3,0.3
				S1136.7,604.7,1136.5,604.7L1136.5,604.7z"/>
			<path class="st141" d="M1136.8,602.3l-4.1-0.5c-0.2,0-0.3-0.2-0.3-0.3l0,0c0-0.2,0.2-0.3,0.3-0.3l4.1,0.5c0.2,0,0.3,0.2,0.3,0.3
				l0,0C1137.1,602.2,1137,602.3,1136.8,602.3z"/>
			<path class="st141" d="M1135.9,609.4l-6.5-0.8c-0.2,0-0.3-0.2-0.3-0.3s0.2-0.3,0.3-0.3l6.4,0.8c0.2,0,0.3,0.2,0.3,0.3l0,0
				C1136.2,609.3,1136.1,609.4,1135.9,609.4L1135.9,609.4z"/>
			<path class="st141" d="M1136.2,607l-4.1-0.5c-0.2,0-0.3-0.2-0.3-0.3c0-0.2,0.2-0.3,0.3-0.3l0,0l4.1,0.5c0.2,0,0.3,0.2,0.3,0.3
				C1136.5,606.9,1136.4,607,1136.2,607L1136.2,607z"/>
			<path class="st141" d="M1141,568.9l-4.1-0.5c-0.2,0-0.3-0.2-0.3-0.3c0-0.2,0.2-0.3,0.3-0.3l0,0l4.1,0.5c0.2,0,0.3,0.2,0.3,0.3
				C1141.3,568.8,1141.2,568.9,1141,568.9L1141,568.9z"/>
			<path class="st141" d="M1141.3,566.5l-4.1-0.5c-0.2,0-0.3-0.2-0.3-0.3l0,0c0-0.2,0.2-0.3,0.3-0.3l0,0l4.1,0.5
				c0.2,0,0.3,0.2,0.3,0.3l0,0C1141.6,566.4,1141.4,566.6,1141.3,566.5z"/>
			<path class="st141" d="M1141.6,564.2l-4.1-0.5c-0.2,0-0.3-0.2-0.3-0.3l0,0c0-0.2,0.2-0.3,0.3-0.3l4.1,0.5c0.2,0,0.3,0.2,0.3,0.3
				l0,0C1141.9,564.1,1141.7,564.2,1141.6,564.2z"/>
			<path class="st141" d="M1140.1,576.1l-4.1-0.5c-0.2,0-0.3-0.2-0.3-0.3l0,0c0-0.2,0.2-0.3,0.3-0.3l0,0l4.1,0.5
				c0.2,0,0.3,0.2,0.3,0.3l0,0C1140.4,576,1140.3,576.1,1140.1,576.1z"/>
			<path class="st141" d="M1140.4,573.7l-6.5-0.8c-0.2,0-0.3-0.2-0.3-0.3c0-0.2,0.2-0.3,0.3-0.3l0,0l6.4,0.8c0.2,0,0.3,0.2,0.3,0.3
				l0,0C1140.7,573.6,1140.6,573.7,1140.4,573.7z"/>
			<path class="st141" d="M1140.7,571.3l-4.1-0.5c-0.2,0-0.3-0.2-0.3-0.3s0.2-0.3,0.3-0.3l4.1,0.5c0.2,0,0.3,0.2,0.3,0.3
				C1141,571.2,1140.8,571.3,1140.7,571.3L1140.7,571.3z"/>
			<path class="st141" d="M1139.5,580.8l-4.1-0.5c-0.2,0-0.3-0.2-0.3-0.3s0.2-0.3,0.3-0.3l4.1,0.5c0.2,0,0.3,0.2,0.3,0.3
				C1139.8,580.7,1139.7,580.9,1139.5,580.8L1139.5,580.8z"/>
			<path class="st141" d="M1139.8,578.5l-4.1-0.5c-0.2,0-0.3-0.2-0.3-0.3c0-0.2,0.2-0.3,0.3-0.3l0,0l4.1,0.5c0.2,0,0.3,0.2,0.3,0.3
				C1140.1,578.4,1140,578.5,1139.8,578.5L1139.8,578.5z"/>
			<path class="st141" d="M1138.9,585.6l-6.4-0.8c-0.2,0-0.3-0.1-0.3-0.3s0.1-0.3,0.3-0.3h0.1l6.4,0.8c0.2,0,0.3,0.2,0.3,0.3l0,0
				C1139.2,585.5,1139.1,585.6,1138.9,585.6z"/>
			<path class="st141" d="M1139.2,583.2l-4.1-0.5c-0.2,0-0.3-0.2-0.3-0.3l0,0c0-0.2,0.2-0.3,0.3-0.3l4.1,0.5c0.2,0,0.3,0.2,0.3,0.3
				l0,0C1139.5,583.1,1139.4,583.2,1139.2,583.2z"/>
			<polygon class="st142" points="1104.9,614.7 1110.6,614.5 1107.4,602.3 			"/>
			<polygon class="st143" points="1106.6,605.6 1108.4,605.5 1107.4,602.1 			"/>
			<path class="st144" d="M1104.8,614l1.4-0.6l2.5-0.1l1.9,0.5l1.2,47.2c-2-0.1-3.9-0.4-5.9-0.8L1104.8,614z"/>
			<polygon class="st142" points="1115.6,618.4 1121.2,618.7 1119,606.3 			"/>
			<polygon class="st143" points="1117.9,609.5 1119.8,609.6 1119,606.1 			"/>
			<path class="st145" d="M1115.5,617.8l1.4-0.5l2.5,0.1l1.9,0.7l-2.1,43.1c-1.9,0.1-3.9,0.1-5.8,0L1115.5,617.8z"/>
		</g>
	</g>
</g>
</svg>
