<?xml version="1.0" encoding="utf-8"?>
<!-- Generator: Adobe Illustrator 25.2.3, SVG Export Plug-In . SVG Version: 6.00 Build 0)  -->
<svg version="1.1" id="Layer_1" xmlns="http://www.w3.org/2000/svg" xmlns:xlink="http://www.w3.org/1999/xlink" x="0px" y="0px"
	 viewBox="0 0 1600 900" style="enable-background:new 0 0 1600 900;" xml:space="preserve">
<style type="text/css">
	.st0{clip-path:url(#SVGID_2_);}
	.st1{fill:#7DB1E1;}
	.st2{fill:#71DB91;}
	.st3{fill:#84DF66;}
	.st4{fill:url(#SVGID_3_);}
	.st5{fill:url(#SVGID_4_);}
	.st6{fill:url(#SVGID_5_);}
	.st7{fill:#429B21;}
	.st8{opacity:0.5;}
	.st9{fill:#B56528;}
	.st10{fill:#0E623C;}
	.st11{fill:#088883;}
	.st12{fill:#44C24A;}
	.st13{fill:url(#SVGID_6_);}
	.st14{fill:#A3661D;}
	.st15{fill:#6E4910;}
	.st16{fill:#815315;}
	.st17{fill:#E5AB55;}
	.st18{fill:#865519;}
	.st19{opacity:0.63;fill:#6E4910;enable-background:new    ;}
	.st20{opacity:0.51;fill:#6E4910;enable-background:new    ;}
	.st21{fill:#0C4E2C;}
	.st22{fill:#087B60;}
	.st23{fill:#0B1E33;}
	.st24{opacity:0.3;fill:#050505;enable-background:new    ;}
	.st25{opacity:0.21;fill:#050505;enable-background:new    ;}
	.st26{opacity:0.18;fill:#050505;enable-background:new    ;}
	.st27{fill:#0A4223;}
	.st28{fill:#093D21;}
	.st29{fill:#264922;}
	.st30{fill:#0C3D23;}
	.st31{fill:#085E20;}
	.st32{fill:#4DBA3E;}
	.st33{fill:#308929;}
	.st34{fill:#114416;}
	.st35{fill:#42A329;}
	.st36{fill:#4B9B75;}
	.st37{fill:url(#SVGID_7_);}
	.st38{fill:#67A952;}
	.st39{fill:#053A1A;}
	.st40{fill:#969453;}
	.st41{fill:#82822B;}
	.st42{fill:#7C542D;}
	.st43{fill:#63462E;}
	.st44{opacity:0.45;fill:#E6C37F;enable-background:new    ;}
	.st45{fill:#BFBD67;}
	.st46{opacity:0.46;fill:#D8D877;enable-background:new    ;}
	.st47{fill:#EAD5A0;}
	.st48{opacity:0.47;fill:#D8D877;enable-background:new    ;}
	.st49{fill:#7A593D;}
	.st50{fill:#AD8359;}
	.st51{fill:#B8854E;}
	.st52{opacity:0.49;fill:#BFBD67;enable-background:new    ;}
	.st53{opacity:0.59;fill:#BFBD67;enable-background:new    ;}
	.st54{opacity:0.68;fill:#7DB1E1;enable-background:new    ;}
	.st55{fill:#1C5525;}
	.st56{fill:#CAADA9;}
	.st57{fill:#8E5E4F;}
	.st58{fill:#42210D;}
	.st59{fill:#471E0A;}
	.st60{fill:#D8B629;}
	.st61{fill:#A88E13;}
	.st62{fill:#685904;}
	.st63{fill:#A88E15;}
	.st64{opacity:0.79;fill:#EAD168;enable-background:new    ;}
	.st65{opacity:0.71;fill:#EAD168;enable-background:new    ;}
	.st66{fill:#6B5711;}
	.st67{fill:#A9890F;}
	.st68{fill:#645400;}
	.st69{fill:#CCB7B4;}
	.st70{fill:#A08D84;}
	.st71{fill:#2978CD;}
	.st72{opacity:0.64;fill:#135AA9;enable-background:new    ;}
	.st73{fill:#135AA9;}
	.st74{opacity:0.18;fill:#FCEBEE;enable-background:new    ;}
	.st75{fill:#135087;}
	.st76{fill:#D8A5AB;}
	.st77{fill:#51190F;}
	.st78{fill:#4DAAD5;}
	.st79{fill:#2179A5;}
	.st80{fill:#26538B;}
	.st81{opacity:0.5;fill:#1E5794;enable-background:new    ;}
	.st82{fill:#274F90;}
	.st83{opacity:0.5;fill:#EAD168;enable-background:new    ;}
	.st84{opacity:0.48;fill:#88F1E2;enable-background:new    ;}
	.st85{fill:#1E5794;}
	.st86{fill:#1C578E;}
	.st87{opacity:0.57;fill:#041D27;enable-background:new    ;}
	.st88{opacity:0.5;fill:#88F1E2;enable-background:new    ;}
	.st89{fill:#18364B;}
	.st90{fill:#DC1546;}
	.st91{opacity:0.64;fill:#AE142A;enable-background:new    ;}
	.st92{fill:#900C21;}
	.st93{opacity:0.5;fill:#F18897;enable-background:new    ;}
	.st94{opacity:0.5;fill:#540A14;enable-background:new    ;}
	.st95{opacity:0.5;fill:#5C081B;enable-background:new    ;}
	.st96{opacity:0.5;fill:#5D0A1C;enable-background:new    ;}
	.st97{fill:#5D090F;}
	.st98{fill:#521C11;}
	.st99{fill:#BE2BD1;}
	.st100{fill:#A322BB;}
	.st101{fill:#810C91;}
	.st102{opacity:0.79;fill:#E388F1;enable-background:new    ;}
	.st103{opacity:0.53;fill:#E388F1;enable-background:new    ;}
	.st104{fill:#E388F1;}
	.st105{opacity:0.65;fill:#E388F1;enable-background:new    ;}
	.st106{opacity:0.5;fill:#E388F1;enable-background:new    ;}
	.st107{fill:#590168;}
	.st108{fill:#550D5C;}
	.st109{fill:#5E046D;}
	.st110{fill:url(#SVGID_8_);}
	.st111{fill:url(#SVGID_9_);}
	.st112{fill:url(#SVGID_10_);}
	.st113{fill:url(#SVGID_11_);}
	.st114{fill:url(#SVGID_12_);}
	.st115{fill:url(#SVGID_13_);}
	.st116{fill:#1C7E2E;}
	.st117{opacity:0.54;fill:#6E4910;enable-background:new    ;}
	.st118{opacity:0.64;fill:#6E4910;enable-background:new    ;}
	.st119{fill:url(#SVGID_14_);}
	.st120{fill:#033318;}
	.st121{fill:#228835;}
	.st122{fill:#142416;}
	.st123{opacity:0.63;fill:#825415;enable-background:new    ;}
	.st124{fill:#1F852B;}
	.st125{opacity:0.8;fill:#1A3589;enable-background:new    ;}
</style>
<g>
	<defs>
		<rect id="SVGID_1_" width="1600" height="900"/>
	</defs>
	<clipPath id="SVGID_2_">
		<use xlink:href="#SVGID_1_"  style="overflow:visible;"/>
	</clipPath>
	<g class="st0">
		<path class="st1" d="M1638,466L-5,450V-35h1652c0.9,69.5,0.9,140.5,0,213C1645.7,276.8,1642.7,372.8,1638,466z"/>
		<path class="st2" d="M-8.9,250.2c0,0,25.3,5.6,12.2,27.6c70.5-24.2,111.5-2.3,108,27c72.3-5.1,92.3,47.2,64.4,59
			c0,0,60.1-23,115.8,9c55.7-28.1,188.1,12.4,222.1,33.2l-515.7,1.2L-8.9,250.2z"/>
		<path class="st3" d="M1169.4,379c0,0-10.1-8.8-15.1-10.7s23.3-3.1,35.2,8.2c-15.7-13.2-20.7-16.4-20.7-16.4
			c-14.5-10.1,11.9-11.3,35.8,12.6l3.8,5c0,0-2.6-9.2,14.1-24.4s12.9-10.2,12.9-10.2s-15.7,20.1-13.2,33.3
			c15.7-18.9,25.8-32.1,52.8-28.3v0.6c0,0-25.1,11.3-29.2,30.2c6.8-3.8,27.9-27,56.8-15.1c-11.9,0.6-23.1,6.1-31,15.1L1169.4,379z"
			/>
		<path class="st3" d="M1392.4,376c0,0-10.1-8.8-15.1-10.7s23.3-3.1,35.2,8.2c-15.7-13.2-20.7-16.4-20.7-16.4
			c-14.5-10.1,11.9-11.3,35.8,12.6l3.8,5c0,0-2.6-9.2,14.1-24.4s12.9-10.2,12.9-10.2s-15.7,20.1-13.2,33.3
			c15.7-18.9,25.8-32.1,52.8-28.3v0.6c0,0-25.1,11.3-29.2,30.2c6.8-3.8,27.9-27,56.8-15.1c-11.9,0.6-23.1,6.1-31,15.1L1392.4,376z"
			/>
		
			<linearGradient id="SVGID_3_" gradientUnits="userSpaceOnUse" x1="854.9225" y1="856.8985" x2="720.4125" y2="-274.6915" gradientTransform="matrix(1 0 0 -1 0 900)">
			<stop  offset="0.15" style="stop-color:#9AF460"/>
			<stop  offset="0.25" style="stop-color:#8AEB5C"/>
			<stop  offset="0.44" style="stop-color:#61D351"/>
			<stop  offset="0.56" style="stop-color:#44C24A"/>
		</linearGradient>
		<path class="st4" d="M2,391c196.7-1.9,393.3-3.9,589.9-6.1c239.7-2.7,479.3-5.7,719-9c227.2-7.7,297.1-4,297.1-4V535H0
			C0.7,487,1.3,439,2,391z"/>
		
			<linearGradient id="SVGID_4_" gradientUnits="userSpaceOnUse" x1="-116.35" y1="430.976" x2="1653.9044" y2="430.976" gradientTransform="matrix(1 0 0 -1 0 900)">
			<stop  offset="0.43" style="stop-color:#6EC94C"/>
			<stop  offset="0.52" style="stop-color:#6ECC50"/>
			<stop  offset="1" style="stop-color:#44C24A"/>
		</linearGradient>
		<path class="st5" d="M-116.3,448.7c137.3-8.7,274.7-17.3,412-26c445.8-28.1,899.1,86.5,1340.1,14.9c1.9-0.3,10.2-1.9,14.8,2.6
			c12.8,12.5-14.8,57.8-14.8,57.8l-1738.9,21.9L-116.3,448.7z"/>
		
			<linearGradient id="SVGID_5_" gradientUnits="userSpaceOnUse" x1="-17.69" y1="388.5473" x2="1606" y2="388.5473" gradientTransform="matrix(1 0 0 -1 0 900)">
			<stop  offset="0.33" style="stop-color:#199E2F"/>
			<stop  offset="0.52" style="stop-color:#429B21"/>
			<stop  offset="1" style="stop-color:#44C24A"/>
		</linearGradient>
		<path class="st6" d="M-17.7,480.2C99.8,467,218.2,462.2,336.4,466c288.1,9.4,341.8,43,533,25c117.2-11,208.2-53,427.8-44
			s308.9,15,308.9,15v102l-871.4,9l-751.1,4.2C-16.9,544.8-17.3,512.5-17.7,480.2z"/>
		<path class="st7" d="M267.7,473.4c0,0-4.4-28.1,11.9-35S267.7,473.4,267.7,473.4z"/>
		<path class="st7" d="M336.7,470.2c0,0-18.2-21.2-24.5-22.5s2.5-13.8,20.7,4.4C332.9,452.1,338.6,460.9,336.7,470.2z"/>
		<path class="st7" d="M341.4,470.2c0,0-7.6-36.9-17.8-53.1s10.5-10.6,17.8,16.9S341.4,470.2,341.4,470.2z"/>
		<path class="st7" d="M347.1,470.2c0,0,2.8-32.5,24.8-35S356.1,447.7,347.1,470.2z"/>
		<path class="st7" d="M698.4,479.3c0,0-24.6-16.1-17.2-29.3C687.2,439.3,698.4,479.3,698.4,479.3z"/>
		<path class="st7" d="M702.4,477.6c0,0-12.9-16.3-6-24.7S702.4,477.6,702.4,477.6z"/>
		<path class="st7" d="M1208.7,500.1c0,0-13.2-19.4-5-33.1C1203.6,467,1207.4,493.3,1208.7,500.1z"/>
		<path class="st7" d="M1211.8,500.1c0,0-13.8-47.5,25.1-70.6C1236.9,429.5,1216.2,459.5,1211.8,500.1z"/>
		<path class="st7" d="M1213.7,500.1c0,0,7.5-43.1,31.3-54.4C1245,445.7,1219.3,482,1213.7,500.1z"/>
		<path class="st7" d="M1321.4,498c0,0-22.9-6.7-17.6-24.4C1307.6,461.1,1321.4,498,1321.4,498z"/>
		<path class="st7" d="M1326.1,496.1c0,0-12.9-21.3-4.7-30S1326.1,496.1,1326.1,496.1z"/>
		<path class="st7" d="M1369,502.1c0,0-22.6-5-22-18.8S1369,502.1,1369,502.1z"/>
		<path class="st7" d="M1375,502.1c0,0-12.6-34.4-22-43.1s16.3-9.5,22,26.5V502.1z"/>
		<path class="st7" d="M1377.4,502.1c0,0-6.3-26.8,17.3-28.1C1405.3,473.4,1377.4,502.1,1377.4,502.1z"/>
		<path class="st7" d="M1395.3,495.3c0,0,3.8-20,18.2-21.3S1395.3,495.3,1395.3,495.3z"/>
		<g class="st8">
			<path class="st9" d="M1691.3,545.7l-213.6-0.6l-213.6-0.4c-142.4-0.2-284.8-0.2-427.2,0s-284.8,0.8-427.2,1.9l-106.8,1
				c-35.6,0.4-71.2,1-106.8,1.5l-26.7,0.4l-26.7,0.5l-53.4,1.2c-8.9,0.2-17.8,0.3-26.7,0.6L36,552.8l-53.4,1.7l53.4-2l26.7-1
				c8.9-0.3,17.8-0.5,26.7-0.7l53.4-1.3l26.7-0.7l26.7-0.5l53.4-0.9l26.7-0.5l13.4-0.2l13.4-0.2l106.8-1.3l106.8-0.9
				c35.6-0.3,71.2-0.5,106.8-0.7c71.2-0.4,142.4-0.7,213.6-0.8c142.4-0.1,284.8,0,427.2,0.4l213.6,1L1691.3,545.7z"/>
		</g>
		<path class="st7" d="M52.7,473.4c0,0,5.3-36.7,26.7-41.2C79.3,432.2,71.7,460,52.7,473.4z"/>
		<path class="st10" d="M1289,453.5c12.2-14.6,27.3-29.5,45.3-40.2c40.2-24,74.9-16,96.4-6.6c32.8-59.3,80.2-62,111.2-2.7
			c11.8-51.2,41-36.4,80.2,2c38.3-30.3,75.7-0.7,87.5,15.5c72,10.7,108,19.2,107.9,25.3C1817.4,460.4,1641.2,462.6,1289,453.5z"/>
		<path class="st11" d="M249.3,143.6c-0.2,6.2-2.1,12.3-5.6,17.4c-8.8,12.5-23.5,12.1-25.1,12.1l0.5-27.8l-9.1,0.4V161
			c-3.9,0.8-8,0.2-11.5-1.6c-7.5-3.8-10-11.7-10.3-13l-3.8,0.1c0.8,2.5,1.5,5,2.3,7.6c-3.1,1.9-6.8,2.5-10.4,1.6
			c-6.5-1.8-9.2-8-9.5-8.8H164c0,0,1.8,17.6,23.9,11.7c4,6.1,13.4,12.7,22.1,9.4c-0.5,19.1-3.4,93.9-3.4,93.9h10.2l1.8-82
			c9.3-0.5,18.1-4.8,24.3-11.8c9.1-10.2,9.8-22.3,9.9-25.3L249.3,143.6z"/>
		<path class="st11" d="M261.1,103.9c0,0-78.1-31.8-125.2,0c-40,31,1.1,44.3,28,43c41.6-0.5,92.5-3.9,92.5-3.9
			S312.9,133.5,261.1,103.9z"/>
		<path class="st11" d="M1616.5,147.5c-18.1-15.6-44-22.3-66.5-16.5c-30.7,7.9-51.3,37.8-43,69.4c-9-19.1-30.3-32.2-54.3-33.4
			c-34.8-1.8-54.8,22.2-55.7,23.3c0-4.2-0.4-31.7-26-49.3c-25.4-17.4-64.9-17.8-96,0.4c-8.4-32.3-39.3-56.7-76-60.6
			c-43.3-4.7-86.9,20-99,58.6c-40.5-35.1-101.7-39.3-139-15c-40.1,26.1-34.4,73.3-34,76.1c-28.7-29.5-75.5-41.7-118-30.9
			c-38.7,9.8-68,37.3-76,71.1c-23.6-17.5-56.4-19.2-77.4-6.1S634,270.2,634,273.2c-6.4-0.7-24.6-1.9-43.5,7
			c-24.4,11.4-32,31.1-33.5,35.3c1.9-56.3-54-57-86-39.4c23-37.6-60-133-140-43.5c-2.8-3.9-19.5-26.8-50.3-30.9
			c-33.9-4.6-71.4,15.4-85.7,49.8c-24.5-16.3-52.7-26.1-82-28.5c-7.5-0.6-79.4-5.5-107,30.1c-7.3,9.4-9.6,19.1-12,29.3
			c-4.2,17.8-3.7,36.3,1.3,53.9C-0.5,359.9,3.8,383.4,8,407h1178.7l420.8,4.1L1616.5,147.5z"/>
		<path class="st7" d="M69.9,473.4c0,0,9.4-22.4,30.1-31C100,442.4,102.1,474,69.9,473.4z"/>
		<path class="st7" d="M52.7,473.4c0,0-29.9-16.5-31-28.1S38.7,438,52.7,473.4z"/>
		<path class="st12" d="M1481.9,455.5c0,0-3.7-39.9,18-44.9C1499.9,410.6,1497.1,448.3,1481.9,455.5z"/>
		
			<linearGradient id="SVGID_6_" gradientUnits="userSpaceOnUse" x1="802" y1="595.07" x2="802" y2="-194.51" gradientTransform="matrix(1 0 0 -1 0 900)">
			<stop  offset="0.19" style="stop-color:#895A12"/>
			<stop  offset="0.23" style="stop-color:#966417"/>
			<stop  offset="0.31" style="stop-color:#B77D25"/>
			<stop  offset="0.34" style="stop-color:#C4872A"/>
		</linearGradient>
		<rect x="-4" y="473" class="st13" width="1612" height="429"/>
		<path class="st14" d="M-5,702.7c0,0,164.5-56.7,236.7-51.7s112.5,46.4,144,51.7s275.9,30.7,296.6,0s72.4-1.3,33.5-52
			s139.3-8.3,165.1,0s93,62.3,134.2,44.3c0,0,147.5-52,188.6-44s307-20.2,406.3,20.9V481.6c0,0-220.7,2.4-210.7,20.4
			s-177.6,58-195.6,46s45.2-35-34.1-38s-244.8,2-244.8,10s-47.2,33-67.2,18s-119.4-10-157.5-5s-123.4-5-77.3-18
			s131.4-46.9-23.1-33.4S386.2,542,337.1,530s-106.3-7-85.3,16S73.2,571,63.2,556S-5,576.7-5,576.7V702.7z"/>
		<ellipse class="st15" cx="376" cy="578" rx="76" ry="14"/>
		<ellipse class="st16" cx="55" cy="627" rx="76" ry="14"/>
		<ellipse class="st17" cx="975.5" cy="603.5" rx="51.5" ry="11.5"/>
		<ellipse class="st18" cx="1296.5" cy="575.5" rx="51.5" ry="11.5"/>
		<ellipse class="st19" cx="1218.5" cy="620.5" rx="51.5" ry="11.5"/>
		<ellipse class="st20" cx="568.5" cy="637.5" rx="51.5" ry="11.5"/>
		<ellipse class="st19" cx="625" cy="661.5" rx="36" ry="10.5"/>
		<path class="st21" d="M798.9,105.5l47.1,22.8l-17.7,33.3l-53.7-19.8l45.5,28.5l-17.9,22.2c0,0-19-31.7-57.7-18.3l2.2-27l45-51.9
			L798.9,105.5z"/>
		<path class="st22" d="M814.8,131.3c0,0,46.2-23.7,49.5-30s-20.4-15-23.4-10.5S814.8,131.3,814.8,131.3z"/>
		<path class="st10" d="M531.1,334.2l87.2-145l46,37.8l-31.9-51.5l19.8-29.7l39.4,25l-27.3-39.8l19-16.8l54.5,22.3l-39.5-44.4
			l26-21.1l46.3,43.2l-29.3-43.2l10.8-17.6L795.5,96l-24.7-47.4l21.9-8.9c0,0,11.5,43.7,14.2,39.8s-5.6-39.8-5.6-39.8l10-1.7
			l6.8,29.3V38h40c0,0-113.4,120-125.5,136.6s-42.7,54.7-42.7,54.7S595,380.1,593.2,384.7s-11.6,17.6-11.6,17.6s-14.6-5.6-16.8-10.2
			S531.1,334.2,531.1,334.2z"/>
		<path class="st21" d="M854.7,38.6L874,80h-46.1l42.5,12.1l-6.2,22.6c0,0-49.7-8.4-50.5-8.8l41.1,19.2l-18.3,33.3l-55.6-19.8
			l47.1,32.5l-18.5,18.3l-59.7-18.3l45.8,43.4l-27.7,45.8l-45.8-35.6l37.2,49.2l-28,38.9l-46.5-44.8l32.6,50.8L701,350.3L655.6,330
			l35.8,33.2l-16.2,28.6L636,424.1L570.6,402l111.2-172.6C681.8,229.4,837.6,48.2,854.7,38.6z"/>
		<path class="st21" d="M121.5,50.9l-52.3,1.5l2.5,37.6l57.1,3.9l-53.2,7.4l7.3,27.6c0,0,30.3-21.2,60.1,6.9l9.1-25.6l-19.8-65.8
			L121.5,50.9z"/>
		<path class="st22" d="M96.4,68c0,0-32.4-40.5-32.9-47.6s24.7-5.3,25.6,0S96.4,68,96.4,68z"/>
		<path class="st10" d="M272.3,369.5l-20.2-168l-57.5,15.7l50.1-33.9l-5.9-35.2l-46.2,6.7l41.2-25.1l-10.5-23.1l-58.9-1.9l54.2-24.3
			l-15.1-29.8l-59.9,20.4l44.4-27.4L185.4,23l-56.9,20.9l41.9-33.1L154.1-6.3c0,0-28.4,35.2-29.3,30.5s21.4-34,21.4-34l-8.5-5.6
			l-18.1,24l12-26.7L95.2-34.5c0,0,54.4,155.9,58.6,176s16.6,67.4,16.6,67.4s24.7,176.4,24.6,181.4s3.4,20.8,3.4,20.8
			s15.6,0.9,19.5-2.4S272.3,369.5,272.3,369.5z"/>
		<path class="st21" d="M98.1-33.3L63.5-3.4l42.1,18.9L61.9,9.2l-3.6,23.2c0,0,48.8,12.6,49.8,12.6l-45.4,0.7l3.1,37.9l58.8,4.7
			L68.3,98.7l9.4,24.3l62,7.8l-59.6,20.9l6.5,53.2L143,191l-54.1,29.6l9.6,46.9l60.7-21.9l-50.5,33l2,35.3l49.8,0l-46.2,15.7
			l3.1,32.8l22.5,45.5l68.7,6.5l-30.9-203C177.8,211.5,109.7-17.5,98.1-33.3z"/>
		<path class="st23" d="M330.1,223.2c0,0,20.1-8.9,19.7-8.7s3.2,4.6,3.2,4.6L330.1,223.2z"/>
		<path class="st10" d="M419.8,341.5l-58.2-110l54.6-17.3L358,213l-13.7-31.5l40.8-18.7l-46.4,1.2l-3.6-24.1l46.5-32.2l-56.5,8.6
			l-3.5-32l59.1-14.7l-50.2,1l-8.6-18l56.9-12.7l-51.2-5l4.2-22.3c0,0,41.4,13.7,39.6,9.5S336.3,5.7,336.3,5.7l3.9-9l27.2,9.9
			L343.7-8.7L364.5-41c0,0,37.8,154.3,45,172.7s21.9,63.1,21.9,63.1s72.5,155.4,75.3,159.3s8.2,18.6,8.2,18.6s-12.1,8.9-17,8.3
			S419.8,341.5,419.8,341.5z"/>
		<path class="st21" d="M363.9-41l43.4,6.6L383.8,1.8l31.4-26.9l15.2,16.8c0,0-32,34.5-32.8,35l36.5-22.1l17.7,31.9l-44.3,33.2
			l50.3-19.9L456.9,77L418,111l58.5-13l23.1,45.8L447.5,161l58.8-3.4l17.3,42.4l-60,12.9l57.7,1.1l17.2,29.2l-39.5,25l45.1-10.6
			l15,27.8l6.3,47.7l-51.2,39.6l-83.5-177.9C430.8,194.8,363-22.6,363.9-41z"/>
		<path class="st23" d="M224.1,251.2c0,0,20.1-8.9,19.7-8.7s3.2,4.6,3.2,4.6L224.1,251.2z"/>
		<path class="st21" d="M313.8,369.5l-58.2-110l54.6-17.3L252,241l-13.7-31.5l40.8-18.7l-46.4,1.2l-3.6-24.1l46.5-32.2l-56.5,8.6
			l-3.5-32l59.1-14.7l-50.2,1l-8.6-18l56.9-12.7l-51.2-5l4.2-22.3c0,0,41.4,13.7,39.6,9.5s-35.2-16.3-35.2-16.3l3.9-9l27.2,9.9
			l-23.7-15.3L258.5-13c0,0,37.8,154.3,45,172.7s21.9,63.1,21.9,63.1s72.5,155.4,75.3,159.3s8.2,18.6,8.2,18.6s-12.1,8.9-17,8.3
			S313.8,369.5,313.8,369.5z"/>
		<path class="st21" d="M257.9-13l43.4,6.6l-23.4,36.1l31.4-26.9l15.2,16.8c0,0-32,34.5-32.8,35l36.5-22.1l17.7,31.9l-44.3,33.2
			l50.3-19.9l-0.9,27.3L312,139l58.5-13l23.1,45.8L341.5,189l58.8-3.4l17.3,42.4l-60,12.9l57.7,1.1l17.2,29.2l-39.6,25l45.1-10.6
			l15,27.8l6.3,47.7l-51.2,39.6l-83.5-177.9C324.8,222.8,257,5.4,257.9-13z"/>
		<ellipse class="st24" cx="427" cy="604" rx="159" ry="33"/>
		<ellipse class="st25" cx="762" cy="610.5" rx="159" ry="34.5"/>
		<ellipse class="st26" cx="994" cy="678.5" rx="159" ry="38.5"/>
		<ellipse class="st26" cx="1269" cy="630.5" rx="159" ry="29.5"/>
		<path class="st27" d="M304,435.7l-87.5-99.7l86.2-6.3c0,0-45.1-16.6-92.7-11.3c0,0-109.5-109-57.5-154.9
			c29.4-18.5,76.7-0.8,76.7-0.8l2.8,69.5c0,0,14.5-39.7,14.5-54c0,0,43.9,27.6,61.3,50.6s57.1,65.5,57.1,65.5l-21.2,71.7
			c0,0,38.5-34.5,39-45.1l58.3,64L304,435.7z"/>
		<path class="st10" d="M324.4,428.1L249.1,334l51.1-3.2c0,0-39.3-17-64.6-13.5c-33.5-31-69.2-87.8-67.9-99.1s10.6-60.2,62.2-44.8
			L229,228l18.4-39.4c0,0,92.1,90.1,105.8,144.2l-6.8,31.1l19-17.9l42.8,51L324.4,428.1z"/>
		<polygon class="st27" points="372.7,410.1 154.1,167 164.6,163.1 393.6,402.4 		"/>
		<path class="st28" d="M593.5,394.5c0,0,38.3-167.5,28.7-175.5c-36.3-4.5-54.6-7.2-54.6-7.2s20.2-24.1,53.5-24.6
			c0,0,4.1-79.2-28.6-136.5c0,0-23,24-34.2,24.1s11.7-24,17.7-27.4c4.3-2.5,8.3-5.4,12.1-8.6c0,0-33.3-69.1-79.1-63
			S487.6,60.9,489.4,78s9.1,46.4,9.1,46.4l53.2,43.6l-47.6-18.7l3.4,49.8l35.9,1.4L511,211.4l-0.8,75.3l27.8,13c0,0-4,8.5-29.2-4.4
			c-3.4,18.6-5.6,37.4-6.8,56.3L593.5,394.5z"/>
		<path class="st10" d="M508,339.2l7-54.7c0,0,14.5,5.5,20.8,1.7l-20.5-10.4l2.3-77l22.4-7.8l-24.1-1.2l0.4-42.3l32.1,11.3
			L505,124.1c0,0-11.7-89.8-6.3-106.1s39.7-55.2,70.7,24.1c0,0-38.9,43.5,8.1,16.6c0,0,31.7,90.2,22.7,120.6
			c-23.1,11-24.9,13.2-24.9,13.2s-9,17.6,22.7,10.6l4,1.1c0,0-7.8,145.7-14,163.8s-2.9,6.2-2.9,6.2L508,339.2z"/>
		<path class="st27" d="M531,365.2c0,0,19-61.6,22.1-108.9s-4.4-132.4-7.6-154.2S515.1-12.9,506-23.8c0,0,40.3,46.2,51,112.3
			c12,65.1,13.1,154.4,11.1,171.1S546,372.1,546,372.1L531,365.2z"/>
		<path class="st21" d="M753.8,390.2l70.2-90.2l-77.4-0.8c0,0,38.9-16.6,81.8-14.7c0,0,89.1-99.3,39.1-136
			C839.8,134.3,799,152,799,152l3,59.8c0,0-16.1-33.3-17.2-45.5c0,0-37,26-50.7,46.7s-45.8,59.3-45.8,59.3l24.6,60.4
			c0,0-37.2-27.6-38.4-36.6l-47,58L753.8,390.2z"/>
		<path class="st10" d="M735,384.8l59.7-84.8h-45.8c0,0,33.7-16.7,56.6-15c27.4-28.4,54.8-79,52.8-88.6s-14.3-51.1-59-35.1l5,46.8
			l-19.5-32.8c0,0-75.1,82.2-83,129.4l8.5,26.3l-18.4-14.3l-34.1,46L735,384.8z"/>
		<polygon class="st27" points="690.4,371.8 866.3,151.5 856.6,148.7 671.1,366.3 		"/>
		<path class="st29" d="M212.6,347.1c0,0-62.6-132-72.2-132.4c-23.2,16-35.1,23.8-35.1,23.8s-0.6-26.7,18.3-44.4
			c0,0-37.7-55.1-85.5-76.3c0,0-1.1,28.1-7.5,34s-5.4-22.1-3.6-27.6c1.2-4,2.1-8,2.6-12.1c0,0-54.1-28.8-77.4-0.7
			s30.8,68.1,40.4,78.5s28.7,26.2,28.7,26.2l52.8,1.4L37.1,230l27.2,31.5l21.4-17.9l-13.2,24.3l37.7,50.8l22.6-5.8
			c0,0,2,7.8-19,12.3c11.3,21.8,75.9,92.7,75.9,92.7L212.6,347.1z"/>
		<path class="st21" d="M188.8,415.2l-69.4-91c0,0,11.8-4.1,13.5-10.3l-18,4l-39.5-55l9.5-17.8l-15.3,12.3l-22.2-29.7l25.5-9.7
			L28,217.6c0,0-54.8-56.3-60.2-70.6s-5.3-60.3,55.8-22c0,0-0.5,51.7,13.8,7.1c0,0,67.2,45.6,77.9,71.8c-8.2,20.4-8.1,22.8-8.1,22.8
			s3.9,17.2,19.4-5l3-1.4c0,0,72.7,106,78.5,122s35.9,52.9,35.9,52.9L188.8,415.2z"/>
		<path class="st30" d="M191.5,409.6c0,0-50-100.5-72.1-133.8S49.9,189.7,37,176.7s-75.7-60.8-86.4-63.4c0,0,46.6,9.8,86.2,48.4
			c39.8,37.3,85.7,96.4,92.9,108.6c7.3,12.2,71.9,140.1,71.9,140.1L191.5,409.6z"/>
		<path class="st21" d="M545.9,357c0,0,13.2-189.9,24.5-194.9c35.1,8.5,53,12.4,53,12.4s-11.8-32.7-42.7-45.4
			c0,0,19.3-84.8,66.6-133c0,0,14.5,33.6,24.9,37.8s-3.9-29.5-8.5-35.3c-3.2-4.2-6.2-8.7-8.7-13.4c0,0,51.2-60.5,92.2-37.2
			s-5,97.2-11.7,114.5S713.5,108,713.5,108l-62.4,26.4l49.8-2.3l-17.8,51l-33.9-11.7l27.1,23.4l-21.3,79.4l-29.7,3.5
			c0,0,1.2,10.4,28.5,6c-3.4,31.9-47.4,148.4-47.4,148.4L545.9,357z"/>
		<path class="st10" d="M606,428.4L646.4,285c0,0-16,0.5-21-6.1l23.4-3.6l21.5-85.5l-19.7-17.1l24.1,7.8l12.6-46.6l-35,0.1
			l53.5-21.5c0,0,39.3-94.3,39-114.2s-21.9-75.8-76.9-0.5c0,0,24.8,62.7-13.1,15.1c0,0-59,87-59.6,123.9c19.3,20.9,20.3,24,20.3,24
			s3.4,22.8-25.6,3l-4.2-0.3c0,0-37.4,163.1-36.9,185.3s-18.2,81.1-18.2,81.1L606,428.4z"/>
		<path class="st27" d="M600.2,423.1c0,0,12.9-145.7,23.8-196.5s42.8-137.4,52.2-159.3s62-109.5,73.7-117.6c0,0-51.1,33.8-80.4,99.4
			C639.2,113.1,612,206.5,609,224.7s-20.5,204.2-20.5,204.2L600.2,423.1z"/>
		<path class="st21" d="M484.7,398.6c0,0-60.8-185.9-70.5-188c-23.7,17.4-35.9,25.9-35.9,25.9s0-35.6,19.4-56.1
			c0,0-37.1-79.5-85-115.6c0,0-1.7,37.2-8.3,44s-5-30.3-3.2-37.3c1.3-5.1,2.2-10.3,2.9-15.6c0,0-54.1-47.2-78.3-13.6
			s29.8,95.6,39.4,111.1c9.6,15.5,28.5,39.6,28.5,39.6l53.2,10.5L309.5,214l26.9,46.3l22-20.3l-13.8,30.2l37.1,73.7l23-4
			c0,0,1.9,10.6-19.5,13.3c11.1,31,24.1,58.8,24.1,58.8L484.7,398.6z"/>
		<path class="st10" d="M454.3,490l-63.3-137.9c0,0,12-3.6,13.9-11.4l-18.3,2.4l-38.9-79.7l9.9-22.1l-15.7,13.9L320,212l26-8.7
			l-45.4-7.9c0,0-54.4-83.9-59.6-103.9s-4.1-81.1,56.8-20c0,0-1.5,68.7,13.8,11.8c0,0,67.1,71.7,77.4,108.3c-8.7,25.7-8.6,29-8.6,29
			s3.6,23.6,19.7-3.5l3.1-1.3c0,0,71.5,153,77.1,175.2s1.4,8.1,1.4,8.1L454.3,490z"/>
		<path class="st27" d="M433.1,407.7c0,0-19.5-71.3-41.2-119.2s-68.6-126-81.4-145.4s-75.3-93.4-86.1-98.5c0,0,46.9,20.7,86.2,78.6
			c39.6,56.1,84.8,142.3,91.9,159.7s43,122.7,43,122.7L433.1,407.7z"/>
		<path class="st31" d="M1046.3,705.5c0,0,58.7-24.8,84.1-25.3s-8.9-23.7-56.2-2C1074.1,678.3,1048.1,692.8,1046.3,705.5z"/>
		<path class="st31" d="M1050.6,704.4c0,0,64.9-60.2,79.7-63.5s-6.2-23-57.5,27.1C1072.8,668.1,1047.6,695.8,1050.6,704.4z"/>
		<path class="st31" d="M1058.4,690.8c0,0,47.5-62.9,61-68.5S1084.1,616.5,1058.4,690.8z"/>
		<path class="st31" d="M1067.5,668.9c0,0,40.9-50.8,32.3-70.4S1082,638.7,1067.5,668.9z"/>
		<path class="st31" d="M1062.7,665.1c0,0,37.1-65.9,15.5-85.4S1079.1,615.5,1062.7,665.1z"/>
		<path class="st31" d="M1060.8,663.5c0,0,6.7-33.5-15.5-48S1061.5,652.2,1060.8,663.5z"/>
		<path class="st31" d="M1300.9,638.3c0,0,46.7-19.8,66.9-20.1s-7.1-18.8-44.7-1.6C1323.1,616.6,1302.4,628.2,1300.9,638.3z"/>
		<path class="st31" d="M1304.4,637.4c0,0,51.7-47.9,63.4-50.5s-4.9-18.3-45.7,21.6C1322.1,608.5,1302,630.5,1304.4,637.4z"/>
		<path class="st31" d="M1310.6,626.6c0,0,37.8-50,48.5-54.5S1331,567.5,1310.6,626.6z"/>
		<path class="st31" d="M1317.9,609.2c0,0,32.5-40.4,25.7-56S1329.4,585.1,1317.9,609.2z"/>
		<path class="st31" d="M1314,606.1c0,0,29.5-52.4,12.3-67.9S1327,566.6,1314,606.1z"/>
		<path class="st31" d="M1312.5,604.9c0,0,5.3-26.6-12.3-38.2S1313.1,595.8,1312.5,604.9z"/>
		<path class="st31" d="M971.1,697.5c0,0-58.7-24.9-84.1-25.3s8.9-23.7,56.2-2C943.2,670.3,969.3,684.8,971.1,697.5z"/>
		<path class="st31" d="M966.8,696.4c0,0-64.9-60.2-79.8-63.5s6.2-23,57.5,27.1C944.5,660.1,969.7,687.8,966.8,696.4z"/>
		<path class="st31" d="M958.9,682.8c0,0-47.5-62.9-61-68.5S933.3,608.5,958.9,682.8z"/>
		<path class="st31" d="M949.8,660.9c0,0-40.9-50.8-32.3-70.4S935.3,630.7,949.8,660.9z"/>
		<path class="st31" d="M954.6,657.1c0,0-37.1-65.9-15.5-85.4S938.3,607.5,954.6,657.1z"/>
		<path class="st31" d="M956.6,655.5c0,0-6.7-33.5,15.5-48S955.8,644.2,956.6,655.5z"/>
		<path class="st32" d="M378.9,345.6c0.5,1.3,1.1,2.6,1.6,4s0.9,2.7,1.3,4s0.8,2.7,1,4.1s0.5,2.8,0.7,4.2c0.4,2.8,0.5,5.7,0.3,8.5
			c-0.1,2.9-0.7,5.7-1.6,8.5l-0.3,0.8l-0.5-0.7c-2.1-2.6-4.3-5.2-6.5-7.7s-4.6-4.9-7.1-7.2c-2.4-2.3-5-4.5-7.7-6.5
			c-2.7-2-5.6-3.7-8.8-5c3.2,1.1,6.3,2.6,9.1,4.6c2.8,1.9,5.5,4.1,8,6.4c2.5,2.3,4.9,4.7,7.2,7.2s4.5,5,6.6,7.8l-0.8,0.1
			c0.9-2.6,1.5-5.4,1.6-8.1c0.2-2.8,0.1-5.6-0.1-8.4c-0.3-2.8-0.8-5.6-1.4-8.3c-0.3-1.4-0.7-2.7-1.1-4.1L378.9,345.6z"/>
		<path class="st32" d="M381,378.6c-1.7-1.1-3.5-2-5.3-2.9c-0.9-0.4-1.8-0.9-2.8-1.3s-1.9-0.8-2.8-1.1l-2.9-1l-2.9-0.9
			c-1.9-0.5-3.9-0.9-5.9-1.2l-1.5-0.3l-1.5-0.2c-1-0.1-2-0.3-3-0.3c-2-0.1-4-0.2-6,0c-4,0.2-8.1,0.7-12,1.6c1-0.3,2-0.6,2.9-0.8
			c1-0.3,2-0.5,3-0.7l3-0.5c1-0.2,2-0.2,3-0.3c2-0.2,4.1-0.2,6.1-0.1c1,0,2,0.2,3.1,0.3l1.4,0.2l1.5,0.3c4,0.7,8,1.8,11.8,3.4
			C374.1,374.1,377.7,376.1,381,378.6z"/>
		<path class="st32" d="M356.3,388.2c1.9-1.3,3.8-2.5,5.8-3.6c2-1.1,4.1-2.1,6.2-3c2.1-0.9,4.3-1.6,6.5-2.2c2.2-0.6,4.5-1,6.8-1.2
			h0.3l0.1,0.3c1.2,2.1,2.2,4.3,3.1,6.6c0.9,2.2,1.8,4.5,2.6,6.8s1.5,4.6,2.2,6.9s1.3,4.7,1.9,7c-0.4-1.1-0.8-2.3-1.1-3.4l-1.2-3.3
			c-0.8-2.3-1.6-4.5-2.5-6.8s-1.7-4.5-2.7-6.7s-2-4.4-3.1-6.4l0.4,0.2c-2.2,0.1-4.5,0.5-6.6,1.1c-2.2,0.6-4.4,1.2-6.5,2
			c-2.1,0.8-4.2,1.7-6.2,2.7c-1,0.5-2,1-3,1.5L356.3,388.2z"/>
		<path class="st32" d="M378.9,345.6c0.5,1.3,1.1,2.6,1.6,4s0.9,2.7,1.3,4s0.8,2.7,1,4.1s0.5,2.8,0.7,4.2c0.4,2.8,0.5,5.7,0.3,8.5
			c-0.1,2.9-0.7,5.7-1.6,8.5l-0.3,0.8l-0.5-0.7c-2.1-2.6-4.3-5.2-6.5-7.7s-4.6-4.9-7.1-7.2c-2.4-2.4-5-4.5-7.7-6.5
			c-2.7-2-5.6-3.7-8.8-5c3.2,1.1,6.3,2.6,9.1,4.6c2.8,1.9,5.5,4.1,8,6.4c2.5,2.3,4.9,4.7,7.2,7.2s4.5,5,6.6,7.8l-0.8,0.1
			c0.9-2.6,1.5-5.4,1.6-8.1c0.2-2.8,0.1-5.6-0.1-8.4c-0.3-2.8-0.8-5.6-1.4-8.3c-0.3-1.4-0.7-2.7-1.1-4.1L378.9,345.6z"/>
		<path class="st32" d="M381,378.5c-1.7-1.1-3.5-2-5.3-2.9c-0.9-0.4-1.8-0.9-2.8-1.3s-1.9-0.8-2.8-1.1l-2.9-1l-2.9-0.9
			c-2-0.5-3.9-0.9-5.9-1.2l-1.5-0.3l-1.5-0.2c-1-0.1-2-0.3-3-0.3c-2-0.1-4-0.2-6,0c-4,0.2-8.1,0.7-12,1.6c1-0.3,2-0.6,2.9-0.8
			c1-0.3,2-0.5,3-0.7l3-0.5c1-0.2,2-0.2,3-0.3c2-0.2,4.1-0.2,6.1-0.1c1,0,2,0.2,3.1,0.3l1.5,0.1l1.5,0.3c4,0.7,8,1.8,11.8,3.4
			C374.1,374.1,377.7,376.1,381,378.5z"/>
		<path class="st32" d="M356.3,388.1c1.9-1.3,3.8-2.5,5.8-3.6c2-1.1,4.1-2.1,6.2-3c2.1-0.9,4.3-1.6,6.5-2.2c2.2-0.6,4.5-1,6.8-1.2
			h0.3l0.1,0.3c1.2,2.1,2.2,4.3,3.1,6.6c0.9,2.2,1.8,4.5,2.6,6.8s1.5,4.6,2.2,6.9s1.3,4.7,1.9,7c-0.4-1.1-0.8-2.3-1.1-3.4l-1.2-3.4
			c-0.8-2.3-1.6-4.5-2.5-6.8s-1.7-4.5-2.7-6.7c-0.9-2.2-2-4.3-3.1-6.4l0.4,0.2c-2.2,0.1-4.5,0.5-6.6,1c-2.2,0.5-4.3,1.3-6.5,2
			s-4.2,1.7-6.3,2.7c-1,0.5-2,1-3,1.5L356.3,388.1z"/>
		<path class="st32" d="M415.6,394.9l-1.7-1.8c-0.6-0.6-1.1-1.2-1.7-1.7c-1.2-1.1-2.4-2.2-3.7-3.2c-0.6-0.5-1.3-1-1.9-1.5l-2-1.3
			c-0.7-0.4-1.4-0.8-2.1-1.2c-0.7-0.4-1.4-0.8-2.1-1.1c-2.9-1.4-6-2.4-9.1-3.1c-3.1-0.7-6.3-0.9-9.5-0.8l-1.3,0.1l0.8-0.9
			c2.4-2.5,5.1-4.6,8.2-6.1c3-1.6,6.2-2.8,9.5-3.7c1.6-0.4,3.3-0.8,5-1c1.7-0.3,3.3-0.4,5-0.5c0.8-0.1,1.7-0.1,2.5-0.1h2.5
			c1.7,0.1,3.4,0.2,5,0.4c-1.7,0-3.4-0.1-5-0.1l-2.5,0.1c-0.8,0-1.7,0.1-2.5,0.2c-1.7,0.1-3.3,0.4-5,0.7c-1.6,0.3-3.3,0.7-4.9,1.1
			c-3.2,0.9-6.3,2.2-9.2,3.8c-2.9,1.6-5.6,3.6-7.8,6l-0.4-0.8c3.3-0.2,6.6,0.1,9.8,0.9c3.2,0.7,6.3,1.8,9.2,3.3
			c0.7,0.4,1.5,0.7,2.2,1.2c0.7,0.4,1.4,0.8,2.1,1.3l2,1.4c0.6,0.5,1.3,1,1.9,1.5c1.2,1,2.4,2.2,3.6,3.3
			C413.5,392.4,414.5,393.7,415.6,394.9z"/>
		<path class="st33" d="M561.3,357.2c0.1,1.9,0.2,3.8,0.2,5.8s0,3.9-0.1,5.8s-0.3,3.9-0.5,5.8c-0.1,1-0.2,1.9-0.4,2.9l-0.5,2.8
			c-0.8,3.8-1.9,7.5-3.4,11.1c-1.4,3.6-3.4,7-5.8,10.1l-0.5,0.6l-0.3-0.8c-1.5-4.3-3.2-8.6-5-12.8s-3.8-8.4-5.9-12.4
			c-2.1-4.1-4.5-8-7.1-11.8c-2.6-3.8-5.7-7.3-9.2-10.2c3.6,2.8,6.9,6.2,9.6,9.9c2.7,3.7,5.2,7.6,7.4,11.7c2.2,4,4.2,8.2,6.1,12.4
			s3.6,8.5,5.1,12.9l-0.8-0.2c2.3-3,4.2-6.3,5.7-9.8c1.5-3.5,2.6-7.2,3.5-10.9l0.6-2.8c0.2-0.9,0.3-1.9,0.5-2.8
			c0.3-1.9,0.5-3.8,0.7-5.7s0.2-3.8,0.3-5.7L561.3,357.2z"/>
		<path class="st33" d="M549.5,400.5c-1.7-2.2-3.6-4.2-5.5-6.1c-1-1-2-1.9-3-2.9s-2.1-1.8-3.1-2.7s-2.2-1.7-3.2-2.5l-3.3-2.4
			l-3.5-2.2l-0.9-0.5l-0.9-0.5l-1.8-1l-1.8-1l-1.9-0.9c-1.3-0.5-2.5-1.2-3.8-1.7c-2.6-1-5.1-2-7.8-2.7c-5.3-1.5-10.7-2.6-16.2-3.1
			l4.1,0.3c1.4,0.1,2.8,0.2,4.1,0.4l4.1,0.7c0.7,0.1,1.3,0.3,2,0.5l2,0.5c2.7,0.7,5.3,1.6,7.9,2.6c1.3,0.5,2.5,1.1,3.8,1.7l1.9,0.9
			l1.8,1c4.9,2.6,9.5,5.8,13.7,9.4C542.6,391.8,546.4,395.9,549.5,400.5z"/>
		<path class="st33" d="M513.7,402.1c1.5-0.4,3-0.8,4.5-1.1s3-0.7,4.6-0.9c3.1-0.5,6.2-0.8,9.3-1c3.1-0.2,6.2-0.1,9.3,0.1
			c3.1,0.2,6.2,0.7,9.3,1.5l0.3,0.1v0.3c0.6,3.2,1,6.5,1.2,9.8c0.2,3.3,0.4,6.6,0.4,9.8s0,6.6-0.1,9.8s-0.3,6.5-0.6,9.8l0.1-4.9
			v-4.9c0-3.3,0-6.5-0.2-9.8s-0.3-6.5-0.5-9.8c-0.2-3.2-0.7-6.5-1.2-9.7l0.3,0.4c-2.9-0.8-6-1.3-9-1.5c-3.1-0.2-6.1-0.3-9.2-0.2
			c-3.1,0.1-6.2,0.4-9.2,0.8c-1.5,0.2-3,0.5-4.6,0.7L513.7,402.1z"/>
		<path class="st33" d="M561.3,357.1c0.1,1.9,0.2,3.8,0.2,5.8s0,3.9-0.1,5.8s-0.3,3.8-0.5,5.8c-0.1,1-0.2,1.9-0.4,2.9l-0.5,2.8
			c-0.8,3.8-1.9,7.5-3.4,11.1c-1.4,3.6-3.4,7-5.8,10.1l-0.5,0.6l-0.3-0.8c-1.5-4.3-3.2-8.6-5-12.8s-3.8-8.4-6-12.4
			c-2.1-4.1-4.5-8-7.1-11.8c-2.6-3.8-5.6-7.2-9.1-10.2c3.6,2.8,6.9,6.2,9.6,9.9c2.7,3.7,5.2,7.6,7.4,11.7c2.2,4,4.2,8.2,6.1,12.4
			s3.6,8.5,5.1,12.9l-0.8-0.2c2.3-3,4.2-6.3,5.7-9.8c1.5-3.5,2.6-7.2,3.5-10.9l0.6-2.8c0.2-0.9,0.3-1.9,0.5-2.8
			c0.3-1.9,0.5-3.8,0.7-5.7s0.2-3.8,0.3-5.7L561.3,357.1z"/>
		<path class="st33" d="M549.6,400.3c-1.7-2.2-3.6-4.2-5.5-6.1c-1-1-2-1.9-3-2.8s-2-1.8-3.1-2.7s-2.2-1.7-3.2-2.5l-3.3-2.4l-3.5-2.2
			L527,381l-0.9-0.5l-1.8-1l-1.8-1l-1.9-0.9c-1.3-0.6-2.5-1.2-3.8-1.7c-2.6-1-5.1-2-7.8-2.7c-5.3-1.5-10.7-2.6-16.2-3.1l4.1,0.3
			c1.4,0,2.8,0.2,4.1,0.4l4.1,0.7c0.7,0.1,1.3,0.3,2,0.5l2,0.5c2.7,0.7,5.3,1.6,7.9,2.6c1.3,0.5,2.5,1.1,3.8,1.7l1.9,0.9l1.8,1
			c4.9,2.6,9.5,5.8,13.7,9.4C542.6,391.7,546.4,395.8,549.6,400.3z"/>
		<path class="st33" d="M513.7,401.9c1.5-0.4,3-0.8,4.5-1.1s3-0.7,4.6-0.9c3.1-0.5,6.2-0.9,9.3-1c3.1-0.2,6.2-0.1,9.3,0.1
			c3.1,0.2,6.2,0.7,9.3,1.5l0.3,0.1l0.1,0.3c0.6,3.2,1,6.5,1.2,9.8c0.2,3.3,0.4,6.6,0.4,9.8s0,6.6-0.1,9.8s-0.3,6.5-0.6,9.8l0.1-4.9
			v-4.9c0-3.3,0-6.5-0.2-9.8s-0.3-6.5-0.5-9.8c-0.2-3.2-0.7-6.5-1.2-9.7l0.3,0.4c-2.9-0.8-6-1.3-9-1.5c-3.1-0.2-6.1-0.3-9.2-0.2
			c-3.1,0.1-6.2,0.4-9.2,0.8c-1.5,0.1-3.1,0.5-4.6,0.7L513.7,401.9z"/>
		<path class="st33" d="M586.9,436.6l-1.4-3l-0.7-1.5l-0.3-0.8l-0.4-0.7c-1-2-2.1-3.9-3.3-5.7c-0.6-0.9-1.2-1.8-1.8-2.7l-2-2.6
			c-0.7-0.9-1.4-1.7-2.2-2.5c-0.8-0.8-1.4-1.6-2.3-2.4l-2.4-2.2l-2.5-2.1c-1.7-1.3-3.5-2.6-5.4-3.7c-3.7-2.3-7.7-4-11.9-5.2
			l-1.2-0.3l1.1-0.6c4.1-2.1,8.5-3.6,13.1-4.3c4.5-0.8,9.2-1,13.8-0.7c2.3,0.2,4.6,0.5,6.8,0.9c1.1,0.2,2.3,0.3,3.4,0.6l3.3,0.8
			c1.1,0.3,2.2,0.6,3.3,1l3.3,1.1c2.1,0.8,4.2,1.7,6.3,2.6c-2.1-0.8-4.3-1.6-6.4-2.4l-3.3-1c-1.1-0.4-2.2-0.6-3.3-0.9l-3.3-0.8
			c-1.1-0.3-2.2-0.4-3.3-0.6c-2.2-0.4-4.5-0.6-6.8-0.7c-4.5-0.2-9.1,0-13.5,0.8c-4.4,0.7-8.8,2.1-12.7,4.2l-0.2-0.9
			c4.3,1.2,8.4,3.1,12.1,5.4c1.9,1.2,3.7,2.4,5.5,3.8l2.6,2.1l2.4,2.3c0.8,0.7,1.5,1.6,2.3,2.4c0.8,0.8,1.5,1.7,2.1,2.5l2,2.7
			c0.6,0.9,1.2,1.9,1.8,2.8c1.2,1.9,2.2,3.8,3.1,5.8C585.3,432.4,586.1,434.5,586.9,436.6z"/>
		<path class="st34" d="M376,432.2c12.8-15.6,28.8-31.6,47.8-43.1c42.4-25.8,79-17.1,101.7-7c34.6-63.5,84.6-66.4,117.3-2.9
			c12.5-54.8,43.3-39,84.6,2.1c40.4-32.5,79.8-0.7,92.3,16.6c76,11.5,113.9,20.5,113.8,27.1C933.4,439.5,747.5,441.9,376,432.2z"/>
		<path class="st35" d="M924.7,801.2c0,0-25.7-28.1-40.7-35.6s14.4-8.1,34.5,15.3C918.5,780.9,928.5,795,924.7,801.2z"/>
		<path class="st35" d="M932.3,801.2c0,0-17.1-45.6-24.9-51.2s12.3-8.8,24.9,28.5C932.3,778.4,937.3,798.1,932.3,801.2z"/>
		<path class="st35" d="M941.4,801.2c0,0-6.6-41.9-12.9-48.2S952.3,760,941.4,801.2z"/>
		<path class="st35" d="M945.1,801.2c0,0-0.3-34.9,13.2-40.3S950.5,783.7,945.1,801.2z"/>
		<path class="st35" d="M949.5,801.2c0,0,8.5-40,29.2-41S962.4,775,949.5,801.2z"/>
		<path class="st35" d="M727.7,792.2c0,0-25.7-28.1-40.7-35.6s14.4-8.1,34.5,15.3C721.5,771.9,731.5,786,727.7,792.2z"/>
		<path class="st35" d="M735.3,792.2c0,0-17.1-45.6-24.9-51.2s12.3-8.8,24.9,28.5C735.3,769.4,740.3,789.1,735.3,792.2z"/>
		<path class="st35" d="M744.4,792.2c0,0-6.6-41.9-12.9-48.2S755.3,751,744.4,792.2z"/>
		<path class="st35" d="M748.1,792.2c0,0-0.3-34.9,13.2-40.3S753.5,774.7,748.1,792.2z"/>
		<path class="st35" d="M752.5,792.2c0,0,8.5-40,29.2-41S765.4,766,752.5,792.2z"/>
		<path class="st36" d="M715.8,408.7c0,0-9.9,15.5-8.1,30.9c0,0,15.4-24.5,30.8-17c0,0,29.7,11.9,34.9,20.7c0,0-7.2-36.7-17.9-40.4
			c0,0,28.4-1.3,35.5,7.6c0,0-13.6-23.4-31.5-22c0,0,14.7-20.4,39-22.2c0,0-49.8-4-59,14.5c0,0-11.3-16.8-31.7-18.7
			c0,0,12.7,17.6,14.1,28.4c0,0-33.3-13-58.2,5.2c0,0,29.7-5,34.9,4c0,0-23.5,15.5-22.8,24.2"/>
		
			<linearGradient id="SVGID_7_" gradientUnits="userSpaceOnUse" x1="-73.48" y1="432.0925" x2="1681.0408" y2="432.0925" gradientTransform="matrix(1 0 0 -1 0 900)">
			<stop  offset="0.43" style="stop-color:#228835"/>
			<stop  offset="0.52" style="stop-color:#228835"/>
			<stop  offset="1" style="stop-color:#76DF57"/>
		</linearGradient>
		<path class="st37" d="M-73.5,448.2c136.1-8.4,272.2-16.8,408.3-25.2c441.9-27.2,891.2,83.9,1328.2,14.4c1.9-0.3,10.1-1.8,14.7,2.5
			c12.7,12.1-14.7,56-14.7,56L-60.4,517.2C-64.8,494.2-69.1,471.2-73.5,448.2z"/>
		<path class="st31" d="M418.1,607.5c0,0-58.7-24.9-84.1-25.3s8.9-23.7,56.2-2C390.2,580.3,416.3,594.8,418.1,607.5z"/>
		<path class="st31" d="M413.8,606.4c0,0-64.9-60.2-79.8-63.5s6.2-23,57.5,27.1C391.5,570.1,416.7,597.8,413.8,606.4z"/>
		<path class="st31" d="M405.9,592.8c0,0-47.5-62.9-61-68.5S380.3,518.5,405.9,592.8z"/>
		<path class="st31" d="M396.8,570.9c0,0-40.9-50.8-32.3-70.4S382.3,540.7,396.8,570.9z"/>
		<path class="st31" d="M401.6,567.1c0,0-37.1-65.9-15.5-85.4S385.3,517.5,401.6,567.1z"/>
		<path class="st31" d="M403.6,565.5c0,0-6.7-33.5,15.5-48S402.8,554.2,403.6,565.5z"/>
		<polygon class="st38" points="-48.4,420.5 1677.7,440 1674,473 -73.5,448.2 		"/>
		<path class="st27" d="M126.5,370.2c0,0,34.3-111,118.5-62.1c27.7-68.8,72-61.1,98.6-12.4c36.6-105.2,75.3,18.3,75.3,18.3
			c25.5-89.2,80.9,14,80.9,14c39.9-57.9,77.5,24.4,77.5,24.4c38.8-42.5,108.5,17.8,108.5,17.8L126.5,370.2z"/>
		<path class="st39" d="M-85,238.3c0,0,96.1-22.7,74.5,33.6c69.8-33.1,109.8-2.5,100.6,29c53.4-5,100.6,58,62.6,75.4
			c0,0,54.4-23.2,108.8,11.6c32.8-36.4,202.2,13.2,216.5,41.4c-66.7,0.8-563,0-563,0V238.3z"/>
		<path class="st27" d="M326,361.3c0,0,79.7-144.9,223.1-70.4c74.9-113.6,194.5,0,194.5,0c22.3-144.9,130.7,10,130.7,10
			s25.5-72.8,154.6-5.7c105.2-33.2,130.7,44.8,130.7,44.8c44.6,3.5,283.7,21.4,283.7,21.4H326z"/>
		<path class="st10" d="M1040.2,436c12.6-10.7,26.8-19.4,42.2-25.6c40-16.4,76.7-12.1,93.6-9c13.3-27.6,62.4-39.4,117.4-7.5
			c-48.3-70.4-16.7-20.1-35-48.6s23.3-70.4,46.6-6.7l14.2,38.5c0,0-13.3-35.8-14.2-71.9c-0.4-17.2,5.8-27.6,13.3-28.3
			c10-0.9,20.3,31.9,21.7,36.5c7.9,25.1,6.9,45.6,8.2,45.5c1,0,2.4-11.6,1.2-25.6c-1.8-21.8-7.8-25.2-7.6-38.1
			c0.2-13.1,6.8-34.1,25.9-42.4c16.7-7.2,36.2-1.8,47.3,8.9c6.8,6.7,11.2,15.5,12.4,24.9c8.3,55.3-2.5,57.8,11.7-0.8
			s90.8-63.7,86.6,9.2l-3.3,35.2l3.5,2.5c0,0,62.9-73.7,106.7-61.2c-30.1,71.4-30.5,134.2-0.3,156.1c5.3,3.9,12.6,7.2,22.9,8.4
			L1040.2,436z"/>
		<path class="st40" d="M971,312.7c-10.1-20,37.9-102.6,113.9-70.8c0,0,16.9,11.6,17.9,28.4c2,17.5-36.9,50.2-79.3,61.6
			c-41.4,11.1-42.4,1.3-51.8-17.7C971.5,313.7,971.3,313.2,971,312.7z"/>
		<path class="st41" d="M1058.2,234.7c0,0,14.1,22.4-21.2,23c-12.6,3-22,16.2-23,19.7s-13.8,7.3-19.7,8.4s-24,19.6-17.1,38.9
			c4-12.1,73.1-78.8,125.5-55c-1.2-8.1-4.7-15.7-10-21.9C1079.6,232.6,1060.6,234.4,1058.2,234.7z"/>
		
			<ellipse transform="matrix(0.9129 -0.4082 0.4082 0.9129 -31.8117 451.0886)" class="st42" cx="1041.1" cy="300.1" rx="61.4" ry="23.5"/>
		<path class="st43" d="M1104.2,272.1c-5.2-13.7-37.8-12.3-72.7,3s-58.9,38.8-53.7,52.4s37.8,12.3,72.7-3S1109.5,285.8,1104.2,272.1
			z M1048.7,321.3c-30,13.1-57.9,14.3-62.4,2.6s16.1-31.9,46.1-45s57.9-14.3,62.4-2.5S1078.7,308.1,1048.7,321.3z"/>
		<path class="st44" d="M1051.9,291c0,0,6.8-9.7,6.6-17.3l10.4-2.7c0,0-1.7,16.5-10.7,20L1051.9,291z"/>
		<path class="st44" d="M1084.7,269.1c0,0-10.6,17.2-24.4,24.6c1,5.1,0,3.5,0,3.5c13.5-3.6,24.9-12.6,31.5-24.9
			C1084.7,268.9,1084.7,269.1,1084.7,269.1z"/>
		<path class="st44" d="M1061.6,299.9c0,0,15.8,2.5,19.8,0s-3.5,4.2-3.5,4.2s-12.2,2.2-13.7,0
			C1063.3,302.7,1062.4,301.3,1061.6,299.9z"/>
		<path class="st44" d="M1047.3,292.7c0,0,3.5-8.6,1.3-15.9l-6.3,2.7c0,0,1,13.9,0,15.6S1047.3,292.7,1047.3,292.7z"/>
		<path class="st44" d="M1029.1,284.6c0,0,8.7,11.8,11.4,12.8l-3.7,2.8c0,0-16.6-5.6-15.6-11L1029.1,284.6z"/>
		<path class="st44" d="M1033.7,302.2c0,0-23.1-2-26-4.8l-8.7,7.4c0,0,25.1,2.6,31.9,0.3L1033.7,302.2"/>
		<path class="st44" d="M1029.5,306c0,0-35.9,15.4-43.8,14.4c0.4,7.5,3.6,7.4,3.6,7.4s30.3-8.5,41.6-18.1
			C1029.4,306,1029.5,306,1029.5,306z"/>
		<path class="st44" d="M1030.9,309.7c0,0-12.8,19.6-17.3,21.7c13.3-2.5,14.9-3.6,14.9-3.6s6.2-12.5,5.2-15
			C1033.2,311.4,1032.2,310.3,1030.9,309.7z"/>
		<ellipse class="st45" cx="1022" cy="261.5" rx="9.4" ry="8.8"/>
		<ellipse class="st46" cx="987.7" cy="287.9" rx="6.6" ry="6.9"/>
		<path class="st47" d="M1028.2,305c0,0,14-16.1,30.8-14.2c11.7,11.1,43.2,105.6-2,139.1c-21.6,21.3-37.2-0.2-33.4-16.7
			s13.6-70.3,12.9-76.2S1034.8,307.7,1028.2,305z"/>
		<path class="st48" d="M1007.1,250.4c5.9,5.9-1.2,24-17.6,14.4c0.8-10.3,0-2.1,0-2.1S1003.5,250.9,1007.1,250.4z"/>
		<path class="st49" d="M1028.6,304.3c3-3.3,6.5-6.2,10.3-8.5c6.5-3.8,14-5.7,21.5-5.6c6.3,4.3,18.2,44,19.6,58.2
			c1.2,12.4,5.4,44.9-11.6,70.3c-3.6,5.3-12.2,18.2-25.7,19.8c-1.9,0.2-3.9,0.2-5.8,0c5.3-5.8,23.4-27.1,24.4-59.1
			c1.2-37-21.3-60.6-21.8-61.2c-1.1-1.1-2.4-2.1-3.8-2.8c-0.6-0.3-1.3-0.6-2-0.8L1028.6,304.3z"/>
		<path class="st50" d="M1034.7,330.7c0,0,20.5,13.1,12.9,66.6c-8.1,37-10.6,41.3-10.6,41.3s11.4-1.9,14.9-6.6s16.2-21.7,11.6-62.2
			s-13.6-49-29.8-55L1034.7,330.7z"/>
		<path class="st51" d="M1038.5,352.7c0.4-1-4.8,65.9-7.6,68.9S1030.1,374.8,1038.5,352.7z"/>
		<ellipse class="st52" cx="1088.3" cy="253.3" rx="7.2" ry="7.6"/>
		<path class="st53" d="M1045.7,234.9c-2.2,19.8,21.3,18.4,28.9,2.7C1074.6,237.6,1059.1,233.2,1045.7,234.9z"/>
		<path class="st40" d="M1288.9,300.7c11.4-21.1-42.8-108.5-128.8-74.8c0,0-19.1,12.3-20.3,30c-2.3,18.6,41.7,53.1,89.7,65.1
			c46.8,11.7,47.9,1.4,58.6-18.8C1288.4,301.7,1288.7,301.2,1288.9,300.7z"/>
		<path class="st41" d="M1190.4,218.2c0,0-16,23.7,24,24.3c14.3,3.1,24.8,17.1,26,20.8s15.6,7.7,22.2,8.9s27.2,20.8,19.3,41.1
			c-4.6-12.8-82.6-83.3-141.9-58.2c1.4-8.6,5.3-16.7,11.3-23.1C1166.2,216,1187.7,217.9,1190.4,218.2z"/>
		
			<ellipse transform="matrix(0.3798 -0.9251 0.9251 0.3798 484.012 1297.012)" class="st42" cx="1209.3" cy="287.5" rx="25.1" ry="68.6"/>
		<path class="st43" d="M1199,313.3c39.4,16.2,76.2,17.6,82.1,3.1s-21.2-39.3-60.7-55.4s-76.2-17.6-82.1-3.1
			C1132.4,272.3,1159.6,297.1,1199,313.3z M1149,262.2c5.1-12.4,36.7-11.2,70.5,2.7s57.2,35.2,52.1,47.6s-36.7,11.2-70.5-2.7
			S1144,274.6,1149,262.2L1149,262.2z"/>
		<path class="st44" d="M1197.6,277.9c0,0-7.7-10.3-7.4-18.3l-11.7-2.9c0,0,2,17.4,12.1,21.1L1197.6,277.9z"/>
		<path class="st44" d="M1160.5,254.6c0,0,12,18.2,27.6,26c-1.1,5.4,0,3.7,0,3.7s-23.3-4.6-35.6-26.4
			C1160.5,254.4,1160.5,254.6,1160.5,254.6z"/>
		<path class="st44" d="M1186.5,287.1c0,0-17.9,2.7-22.4,0s4,4.5,4,4.5s13.8,2.3,15.5,0C1184.7,290.2,1185.6,288.7,1186.5,287.1z"/>
		<path class="st44" d="M1202.7,279.6c0,0-4-9.1-1.4-16.8l7.1,2.9c0,0-1.1,14.7,0,16.5S1202.7,279.6,1202.7,279.6z"/>
		<path class="st44" d="M1223.3,271c0,0-9.8,12.5-12.9,13.5l4.2,3c0,0,18.8-5.9,17.6-11.6L1223.3,271z"/>
		<path class="st44" d="M1218.1,289.6c0,0,26.1-2.1,29.4-5l9.9,7.8c0,0-28.4,2.8-36.1,0.3l-3.1-2.9"/>
		<path class="st44" d="M1222.9,293.7c0,0,40.6,16.2,49.5,15.2c-0.5,8-4,7.8-4,7.8s-34.2-9-47-19.1
			C1223,293.7,1222.9,293.7,1222.9,293.7z"/>
		<path class="st44" d="M1221.3,297.5c0,0,14.5,20.8,19.5,23c-15-2.7-16.8-3.8-16.8-3.8s-7.1-13.2-5.9-15.8
			C1218.7,299.3,1219.8,298.1,1221.3,297.5z"/>
		<ellipse class="st45" cx="1232" cy="246.7" rx="10.7" ry="9.1"/>
		<circle class="st46" cx="1270.3" cy="274.7" r="7.6"/>
		<path class="st47" d="M1224.3,292.6c0,0-15.9-17-34.9-15c-13.2,11.7-48.8,111.6,2.2,147c24.4,22.5,42.1-0.2,37.7-17.7
			s-15.3-74.3-14.6-80.6S1216.8,295.4,1224.3,292.6z"/>
		<path class="st48" d="M1248.2,234.8c-6.6,6.3,1.3,25.4,19.9,15.2c-0.9-10.9,0-2.2,0-2.2S1252.3,235.4,1248.2,234.8z"/>
		<path class="st49" d="M1223.8,291.9c-3.4-3.6-7.3-6.6-11.7-9c-7.5-4-15.8-6.1-24.3-5.9c-7.1,4.6-20.5,46.5-22.1,61.5
			c-1.4,13.1-6.1,47.4,13.1,74.3c4,5.6,13.7,19.2,29,20.9c2.2,0.2,4.4,0.2,6.6,0c-6-6.2-26.4-28.7-27.5-62.5
			c-1.3-39.1,24-64.1,24.7-64.7c1.3-1.2,2.7-2.2,4.3-3c0.7-0.3,1.5-0.6,2.3-0.9C1220,299.1,1221.9,295.5,1223.8,291.9z"/>
		<path class="st50" d="M1217,319.7c0,0-23.1,13.9-14.6,70.4c9.1,39.1,12,43.6,12,43.6s-12.8-2-16.8-7s-18.3-23-13.1-65.8
			s15.3-51.9,33.7-58.2L1217,319.7z"/>
		<path class="st51" d="M1212.7,343c-0.4-1.1,5.4,69.7,8.6,72.8S1222.1,366.4,1212.7,343z"/>
		<circle class="st52" cx="1156.5" cy="238.2" r="8.2"/>
		<path class="st53" d="M1204.5,218.5c2.5,20.9-24,19.5-32.6,2.9C1171.9,221.4,1189.4,216.7,1204.5,218.5z"/>
		<path class="st40" d="M1304.3,353.9c-5.9-10.9,22.1-56,66.4-38.6c0,0,9.9,6.3,10.5,15.5c1.2,9.6-21.5,27.4-46.2,33.6
			c-24.2,6-24.7,0.7-30.2-9.7C1304.5,354.4,1304.4,354.1,1304.3,353.9z"/>
		<path class="st41" d="M1355.1,311.3c0,0,8.3,12.2-12.4,12.5c-7.4,1.6-12.8,8.8-13.4,10.8s-8,4-11.4,4.6s-14,10.7-10,21.2
			c2.4-6.6,42.6-43,73.2-30c-0.7-4.5-2.7-8.6-5.8-11.9C1367.5,310.2,1356.5,311.1,1355.1,311.3z"/>
		
			<ellipse transform="matrix(0.9255 -0.3788 0.3788 0.9255 -31.0803 535.5164)" class="st42" cx="1345.5" cy="346.7" rx="35.3" ry="12.9"/>
		<path class="st43" d="M1381.9,331.7c-3.1-7.5-22-6.7-42.4,1.6s-34.3,21.1-31.3,28.6s22,6.7,42.4-1.6S1385,339.2,1381.9,331.7z
			 M1349.5,358.5c-17.5,7.2-33.7,7.8-36.4,1.4s9.4-17.4,26.9-24.5s33.7-7.8,36.4-1.4S1367,351.4,1349.5,358.5z"/>
		<path class="st44" d="M1351.4,342c0,0,4-5.3,3.8-9.4l6-1.5c0,0-1,9-6.3,10.9H1351.4z"/>
		<path class="st44" d="M1370.5,330c0,0-6.2,9.4-14.2,13.4c0.6,2.8,0,1.9,0,1.9s12-2.4,18.3-13.6
			C1373.3,331.1,1371.9,330.6,1370.5,330z"/>
		<path class="st44" d="M1357.1,346.8c0,0,9.2,1.4,11.6,0s-2,2.3-2,2.3s-7.1,1.2-8,0C1358.1,348.4,1357.6,347.6,1357.1,346.8z"/>
		<path class="st44" d="M1348.7,343c0,0,2.1-4.7,0.7-8.7l-3.7,1.5c0,0,0.6,7.6,0,8.5S1348.7,343,1348.7,343z"/>
		<path class="st44" d="M1338.1,338.5c0,0,5.1,6.4,6.7,7l-2.1,1.5c0,0-9.7-3-9.1-6L1338.1,338.5z"/>
		<path class="st44" d="M1340.8,348.1c0,0-13.5-1.1-15.2-2.6l-5.1,4c0,0,14.6,1.4,18.6,0.1L1340.8,348.1"/>
		<path class="st44" d="M1338.3,350.2c0,0-20.9,8.4-25.5,7.9c0.3,4.1,2.1,4,2.1,4s17.7-4.6,24.3-9.9
			C1338.8,351.5,1338.5,350.9,1338.3,350.2z"/>
		<path class="st44" d="M1339.2,352.2c0,0-7.5,10.7-10.1,11.9c7.8-1.4,8.7-2,8.7-2s3.6-6.8,3-8.2
			C1340.5,353.1,1339.9,352.5,1339.2,352.2z"/>
		<ellipse class="st45" cx="1333.8" cy="326" rx="5.7" ry="4.7"/>
		<circle class="st46" cx="1313.7" cy="340.1" r="3.8"/>
		<path class="st47" d="M1337.6,349.7c0,0,8.2-8.8,18-7.8c6.8,6,25.2,57.6-1.1,75.8c-12.6,11.6-21.7-0.1-19.4-9.1s7.9-38.3,7.5-41.5
			S1341.4,351.1,1337.6,349.7z"/>
		<path class="st48" d="M1325.3,319.9c3.4,3.2-0.7,13.1-10.3,7.9c0.4-5.6,0-1.1,0-1.1S1323.2,320.2,1325.3,319.9z"/>
		<path class="st49" d="M1337.8,349.3c1.8-1.8,3.8-3.4,6-4.6c3.9-2.1,8.2-3.1,12.5-3c3.7,2.4,10.6,24,11.4,31.7
			c0.7,6.8,3.2,24.5-6.7,38.3c-2.1,2.9-7.1,9.9-15,10.8c-1.1,0.1-2.3,0.1-3.4,0c3.1-3.2,13.6-14.8,14.2-32.2
			c0.3-12.4-4.3-24.3-12.7-33.4c-0.7-0.6-1.4-1.1-2.2-1.5c-0.4-0.2-0.8-0.3-1.2-0.4L1337.8,349.3z"/>
		<path class="st50" d="M1341.4,363.6c0,0,11.9,7.1,7.5,36.3c-4.7,20.2-6.2,22.5-6.2,22.5s6.6-1,8.7-3.6s9.4-11.9,6.8-33.9
			s-7.9-26.8-17.3-30L1341.4,363.6z"/>
		<path class="st51" d="M1343.6,375.6c0.2-0.6-2.8,35.9-4.4,37.5S1338.7,387.7,1343.6,375.6z"/>
		<circle class="st52" cx="1372.5" cy="321.5" r="4.1"/>
		<path class="st53" d="M1347.8,311.4c-1.3,10.8,12.4,10,16.8,1.5C1364.6,312.9,1355.6,310.5,1347.8,311.4z"/>
		<path class="st31" d="M791.3,631.5c0,0,58.7-24.8,84.1-25.3s-8.9-23.7-56.2-2C819.1,604.3,793.1,618.8,791.3,631.5z"/>
		<path class="st31" d="M795.6,630.4c0,0,64.9-60.2,79.7-63.5s-6.2-23-57.5,27.1C817.8,594.1,792.6,621.8,795.6,630.4z"/>
		<path class="st31" d="M803.4,616.8c0,0,47.5-62.9,61-68.5S829.1,542.5,803.4,616.8z"/>
		<path class="st31" d="M812.5,594.9c0,0,40.9-50.8,32.3-70.4S827,564.7,812.5,594.9z"/>
		<path class="st31" d="M807.7,591.1c0,0,37.1-65.9,15.5-85.4S824.1,541.5,807.7,591.1z"/>
		<path class="st31" d="M805.8,589.5c0,0,6.7-33.5-15.5-48S806.5,578.2,805.8,589.5z"/>
		<path class="st54" d="M1642,441c-540.7-3-1097.3-9-1638-12V-44l1643,9L1642,441z"/>
		<path class="st55" d="M-103,426.9c12.2-16.4,27.3-33.1,45.3-45.2c40.2-27,74.9-18,96.4-7.4c32.8-66.5,80.2-69.6,111.2-3
			c11.9-57.5,41-40.9,80.2,2.3c38.3-34,75.7-0.7,87.5,17.4c32.9-3.6,66.2-1.1,98.3,7.4c3.1,0.8,56.6,15.4,56,24.1
			C471.1,435.6,349,442.8-103,426.9z"/>
		<path class="st55" d="M334,425.1c12.2-17.8,27.3-36,45.3-49.2c40.1-29.4,74.9-19.5,96.4-8c32.8-72.5,80.3-75.7,111.3-3.3
			c11.8-62.6,41-44.5,80.2,2.5c38.3-37,75.7-0.8,87.5,19c33-3.9,66.4-1.2,98.3,8.1c3.1,0.9,56.6,16.7,56,26.2
			C908.1,434.6,786,442.4,334,425.1z"/>
		<path class="st31" d="M730.1,644.5c0,0-58.7-24.9-84.1-25.3s8.9-23.7,56.2-2C702.2,617.3,728.3,631.8,730.1,644.5z"/>
		<path class="st31" d="M725.8,643.4c0,0-64.9-60.2-79.8-63.5s6.2-23,57.5,27.1C703.5,607.1,728.7,634.8,725.8,643.4z"/>
		<path class="st31" d="M717.9,629.8c0,0-47.5-62.9-61-68.5S692.3,555.5,717.9,629.8z"/>
		<path class="st31" d="M708.8,607.9c0,0-40.9-50.8-32.3-70.4S694.3,577.7,708.8,607.9z"/>
		<path class="st31" d="M713.6,604.1c0,0-37.1-65.9-15.5-85.4S697.3,554.5,713.6,604.1z"/>
		<path class="st31" d="M715.6,602.5c0,0-6.7-33.5,15.5-48S714.8,591.2,715.6,602.5z"/>
		<path class="st56" d="M813.6,482.1c0.5,27.8,2,50.3,3.4,66.1c1.8,21.5,3.1,29.4,1,42.4c-2,12.3-6,37.3-25,50.5
			c-24.8,17.3-65.3,7.6-81.2-17c-9.3-14.5-7.6-30.2-5.2-52c5.5-50,31.5-93.9,31.5-93.9S809.7,484.5,813.6,482.1z"/>
		<path class="st57" d="M783.4,493c0,0,29.6,135-77.4,118.4c0,0,37,29.1,58,19.3s49.8-20,45.9-41.4s-1.4-92-1.4-92L783.4,493z"/>
		<path class="st58" d="M770.3,649.5c-18.8,2.8-33.3-4.3-38.2-6.8c-5.3-2.6-10.1-6.1-14.3-10.2c-3.4-3.2-6.2-7.1-8.3-11.4
			c-1.6-3.6-3.5-9.7-3.5-9.7l0,0c0,0,84,38.6,96-47l1-81.9l10.4-0.5l5.8,91.4c0.8,31-9.8,58.5-29,69.5
			C781.6,647.8,771.4,649.4,770.3,649.5z"/>
		<path class="st59" d="M738.1,478.2l-5.8,10.8c0,0,66.1,4.5,70.6,11.6s11.8-0.3,11.8-0.3l-1.2-18.2L738.1,478.2z"/>
		<path class="st60" d="M577.3,359.3c11-21.9,33.3-58.2,74.7-84.3c88.1-55.6,217.8-36.4,279,36c26.2,31,53.9,88.3,32.2,126.9
			c-12.7,22.6-36.4,33.9-71.8,39.2c-128,18.9-257.4-20.3-270.4-31.5S552.4,421.5,577.3,359.3z"/>
		<path class="st61" d="M903,284c0,0-2.2,60.4-17.6,59.4s-47.4-4.1-47.7,21.2s-41.9,53.9-67.3,23.2s-66.8-9.2-86.7,9.5
			s-101.4,13-109.5-7.7c0,0-3.5,16.5-0.5,21.3s68.1,46.3,100.8,33.8s64.8,1.5,71.9,12.7s91.9,35,100.9,6.7s-6.1-44.5,23.3-35.4
			s62.9,22.2,66,6s10.5-18.3,10.1-34S948,337,948,337S916.8,290.5,903,284z"/>
		<path class="st62" d="M935,336.7c0,0,98.2,115.9-43.7,140.3c-38.4,4.2-77.1,5.3-115.7,3.4c0,0-54-2.7-109.7-15.8
			c-13.1-3.2-25.8-7.5-38.2-12.8c-13.9-6-26.8-14-38.4-23.7c-4.2-3.6-8.8-7.1-12.5-13.5c-3.3-5.9-5.2-12.5-5.5-19.3
			c67.5,30,101,25,119.2,14.2c5.9-3.5,15.1-10,27.7-9.6c22,0.6,38,21.1,47,31.5c12.3,14.5,57.9,13.2,65.1-17.8s45.3-41.1,63.5-18.6
			S935,336.7,935,336.7z"/>
		
			<ellipse transform="matrix(0.2112 -0.9775 0.9775 0.2112 330.244 960.2407)" class="st63" cx="760" cy="275.5" rx="13" ry="21.3"/>
		
			<ellipse transform="matrix(0.2496 -0.9684 0.9684 0.2496 336.4707 1122.9054)" class="st64" cx="892.7" cy="344.4" rx="11.9" ry="14.2"/>
		<ellipse class="st64" cx="600.5" cy="368" rx="13.5" ry="14"/>
		<ellipse class="st65" cx="662.5" cy="321" rx="13.5" ry="14"/>
		<ellipse class="st66" cx="764.5" cy="363" rx="19.5" ry="20"/>
		<ellipse class="st65" cx="657.5" cy="419" rx="13.5" ry="14"/>
		<ellipse class="st65" cx="807.5" cy="443" rx="13.5" ry="14"/>
		<ellipse class="st65" cx="909.5" cy="418" rx="13.5" ry="14"/>
		<ellipse class="st67" cx="849.5" cy="297" rx="13.5" ry="14"/>
		<path class="st68" d="M959,373.1c2.2,1.7,65.2,125.1-145.4,109c-118.6-11-195.4-9.4-239.8-71.1c43,28.3,47.2,47.2,200.3,62.8
			c151.6,11.7,173.7-35.5,179.2-60.9S959,373.1,959,373.1z"/>
		<path class="st69" d="M222.2,428.9c3.6,13,7,23.4,9.4,30.6c3.4,9.9,4.9,13.4,5.6,19.8c0.7,6,2.2,18.2-3.7,26.6
			c-7.7,11-24.9,11.2-34.2,1.6c-5.5-5.7-6.7-13.3-8.4-23.8c-4-24.1,0.9-47.8,0.9-47.8l0,0C191.9,436,221,430.5,222.2,428.9z"/>
		<path class="st70" d="M225.7,512.5c-5,2.4-10.6,2.8-15.9,1.3c-2.5-0.6-4.8-1.7-6.9-3.1c-1.8-1.2-3.4-2.6-4.6-4.4
			c-1.1-1.5-3.4-4-3.4-4l0.9-0.1c0,0,37.9,8.2,32.1-33.3l-9.6-38.5l4.1-1.5l13.5,42.2c4.1,14.4,9.4,27.9,3.2,35.3
			C236.1,509.7,226.1,512.3,225.7,512.5z"/>
		<path class="st70" d="M191.9,436l-1,5.8c0,0,26.7-5.7,29.3-2.9s4.6-1.5,4.6-1.5l-2.7-8.4L191.9,436z"/>
		<path class="st71" d="M113.8,399.1c1.1-9.9,5-31.7,22.3-49.1c31.2-31.3,86.6-28.4,116.3-3.6c1.9,1.6,29.1,24.7,22.9,47.4
			c-2.3,8.5-9,16.7-22.9,23.6c-48.3,24-104.3,20.8-110.7,17.1S111.5,431.2,113.8,399.1z"/>
		<path class="st72" d="M232,335.8c0,0,7.8,18.1,1.6,19.5s-19.2,3.7-16.3,15.5s-9.9,30.2-23.7,18.8s-27.5,3.5-33.1,14.7
			s-38.5,18-44.2,9.3c0,0,0.6,8.1,2.4,10.1s32.6,13.7,44,4s25.8-6.9,30-2.5s40.6,5.6,40.7-8.7s-7.9-20.2,4.9-19.4s27.6,3,26.9-5
			s1.9-9.8-0.2-17.2s-10-26.5-10-26.5S238.3,337.3,232,335.8z"/>
		<path class="st73" d="M252.3,346.4c0,0,53,42.8,0,71c-14.6,6.5-29.8,11.6-45.3,15.2c-14.9,3.3-30,5.1-45.3,5.5
			c-5.6,0.1-11.2-0.5-16.7-1.5c-6.3-1.2-12.4-3.4-18.1-6.6c-2.5-1.2-4.7-2.8-6.6-4.9c-2.1-2.5-3.6-5.3-4.6-8.4
			c30.4,6.1,43-0.1,48.9-7.4c1.9-2.4,4.7-6.5,9.8-7.8c8.8-2.3,17.6,5.4,22.4,9.3c6.6,5.3,24.5-0.6,23.5-16s12.9-24.6,22.8-16.2
			S252.3,346.4,252.3,346.4z"/>
		
			<ellipse transform="matrix(6.981287e-03 -1 1 6.981287e-03 -164.2276 511.6768)" class="st74" cx="175.5" cy="338.5" rx="6.5" ry="8.5"/>
		<ellipse transform="matrix(0.2265 -0.974 0.974 0.2265 -163.1328 507.5528)" class="st74" cx="238" cy="356.5" rx="5.5" ry="6"/>
		<ellipse transform="matrix(0.989 -0.1476 0.1476 0.989 -57.7005 22.6182)" class="st74" cx="123.5" cy="400" rx="5.5" ry="7"/>
		<ellipse transform="matrix(0.989 -0.1476 0.1476 0.989 -53.2111 25.104)" class="st74" cx="142.5" cy="371" rx="5.5" ry="7"/>
		
			<ellipse transform="matrix(0.9794 -0.2018 0.2018 0.9794 -72.5061 45.7098)" class="st74" cx="188" cy="378.5" rx="7.9" ry="9.6"/>
		<ellipse transform="matrix(0.989 -0.1476 0.1476 0.989 -60.0401 27.0968)" class="st74" cx="152.5" cy="418" rx="5.5" ry="7"/>
		<ellipse transform="matrix(0.989 -0.1476 0.1476 0.989 -58.3278 36.1732)" class="st74" cx="214.5" cy="411" rx="5.5" ry="7"/>
		<ellipse transform="matrix(0.989 -0.1476 0.1476 0.989 -54.5141 41.5305)" class="st74" cx="252.5" cy="388" rx="5.5" ry="7"/>
		<ellipse transform="matrix(0.989 -0.1476 0.1476 0.989 -47.561 35.2246)" class="st74" cx="213.5" cy="338" rx="5.5" ry="7"/>
		<path class="st75" d="M270.4,368c1.1,0.5,41.6,45.5-45.7,61.7c-49.4,8.4-78.2,17.2-103.7-3.9c20.9,7.2,22.7,14.9,86.6,4.8
			c62.9-11.7,66.1-33.9,65.2-45.2C272.5,379.6,271.7,373.8,270.4,368z"/>
		<path class="st31" d="M502.3,637.5c0,0,58.7-24.8,84.1-25.3s-8.9-23.7-56.2-2C530.1,610.3,504.1,624.8,502.3,637.5z"/>
		<path class="st31" d="M506.6,636.4c0,0,64.9-60.2,79.7-63.5s-6.2-23-57.5,27.1C528.8,600.1,503.6,627.8,506.6,636.4z"/>
		<path class="st31" d="M514.4,622.8c0,0,47.5-62.9,61-68.5S540.1,548.5,514.4,622.8z"/>
		<path class="st31" d="M523.5,600.9c0,0,40.9-50.8,32.3-70.4S538,570.7,523.5,600.9z"/>
		<path class="st31" d="M518.7,597.1c0,0,37.1-65.9,15.5-85.4S535.1,547.5,518.7,597.1z"/>
		<path class="st31" d="M516.8,595.5c0,0,6.7-33.5-15.5-48S517.5,584.2,516.8,595.5z"/>
		<path class="st31" d="M439.1,637.5c0,0-58.7-24.9-84.1-25.3s8.9-23.7,56.2-2C411.2,610.3,437.3,624.8,439.1,637.5z"/>
		<path class="st31" d="M434.8,636.4c0,0-64.9-60.2-79.8-63.5s6.2-23,57.5,27.1C412.5,600.1,437.7,627.8,434.8,636.4z"/>
		<path class="st31" d="M426.9,622.8c0,0-47.5-62.9-61-68.5S401.3,548.5,426.9,622.8z"/>
		<path class="st31" d="M417.8,600.9c0,0-40.9-50.8-32.3-70.4S403.3,570.7,417.8,600.9z"/>
		<path class="st31" d="M422.6,597.1c0,0-37.1-65.9-15.5-85.4S406.3,547.5,422.6,597.1z"/>
		<path class="st31" d="M424.6,595.5c0,0-6.7-33.5,15.5-48S423.8,584.2,424.6,595.5z"/>
		<path class="st76" d="M1330.9,527.2c-2.7,22.5-4,41-4.7,54c-0.9,17.6-0.7,24.2-4,34.5c-3.1,9.7-9.3,29.5-26.7,38
			c-22.8,11.1-55.8-1.6-66.3-23.4c-6.2-12.8-3-25.4,1.5-42.8c10.3-39.9,37.2-72.3,37.2-72.3S1327.3,528.7,1330.9,527.2z"/>
		<path class="st57" d="M1251.8,538.5c0,0,49.2,3.2,42.2,41.3s-47,51.6-68,39.4c30,22.5,89.9,33,92.4-14.1s4.4-66.6,4.4-66.6
			l-67.5-8L1251.8,538.5z"/>
		<path class="st77" d="M1275.6,657.6c-11.2-0.1-22.1-3.6-31.3-10c-4.1-2.7-7.8-6.1-10.8-10c-2.5-3-4.4-6.5-5.6-10.2
			c-0.9-3.1-1.8-8.2-1.8-8.2l0,0c0,0,66.1,41.2,85.9-26.7l10.2-66.2l8.8,0.8l-5.6,74.6c-2.8,25.2-14.9,46.1-32.2,52.8
			C1287.5,656.5,1281.6,657.6,1275.6,657.6z"/>
		<path class="st77" d="M1262.7,519.3l-7.3,11.2c0,0,58.7,10,61.3,17.9s10.7,0.6,10.7,0.6l2.6-19.7L1262.7,519.3z"/>
		<path class="st78" d="M1128.6,425.5c10.1-18,33.3-53.4,76.4-75.5c75.9-38.8,176.5-17.6,225,41c18.2,22,43.2,66.3,26.7,97.6
			c-3,5.7-11.2,26-61.6,33.2c-108.7,15.5-218.6-16.6-229.5-25.8S1107.4,476.4,1128.6,425.5z"/>
		<path class="st79" d="M1414,374c0,0-7.8,45.3-20.9,44.5s-40.2-3.4-40.5,17.3s-35.6,44.1-57.1,19s-56.7-7.5-73.6,7.8
			s-86.1,10.6-93-6.3c0,0-3,13.5-0.4,17.5s57.8,37.8,85.5,27.7s55,1.3,61,10.4s78,28.6,85.7,5.5s-5.2-36.4,19.8-29
			s53.4,18.1,56.1,4.9s25.7-20.3,25.3-33.2s-15-44-15-44S1425.7,379.3,1414,374z"/>
		<path class="st80" d="M1438,405c0,0,80.6,102.8-39.9,122.8c-32.6,3.4-65.4,4.4-98.2,2.8c0,0-45.8-2.2-93.1-12.9
			c-11.1-2.6-21.9-6.1-32.4-10.5c-11.7-4.9-22.7-11.4-32.6-19.4c-3.6-3-7.5-5.8-10.6-11c-2.8-4.8-4.4-10.2-4.7-15.7
			c57.3,24.5,85.8,20.5,101.2,11.6c5-2.9,12.8-8.2,23.5-7.9c18.7,0.5,32.3,17.2,39.9,25.8c10.4,11.8,49.1,10.8,55.3-14.6
			s38.5-33.6,53.9-15.2S1438,405,1438,405z"/>
		
			<ellipse transform="matrix(0.2016 -0.9795 0.9795 0.2016 671.6282 1549.9967)" class="st81" cx="1286.6" cy="363" rx="10.6" ry="17.7"/>
		<ellipse transform="matrix(0.22 -0.9755 0.9755 0.22 681.1026 1695.823)" class="st82" cx="1401" cy="422" rx="9.9" ry="12.1"/>
		<circle class="st83" cx="1150.5" cy="438.5" r="11.5"/>
		<circle class="st84" cx="1204.5" cy="399.5" r="11.5"/>
		<circle class="st85" cx="1290.5" cy="434.5" r="16.5"/>
		<circle class="st83" cx="1199.5" cy="480.5" r="11.5"/>
		<circle class="st86" cx="1326.5" cy="499.5" r="11.5"/>
		<circle class="st87" cx="1413.5" cy="479.5" r="11.5"/>
		<circle class="st88" cx="1362.5" cy="380.5" r="11.5"/>
		<path class="st89" d="M1457,439c1.8,1.4,54,106.2-124.8,93c-100.8-9-165.9-7.7-203.6-58.2c36.5,23.2,40.1,38.6,170,51.4
			c128.7,9.6,147.5-29,152.1-49.8C1453.4,463.4,1455.5,451.2,1457,439z"/>
		<path class="st56" d="M509.2,455.9c4,30.1,8.3,54.4,11.5,71.4c4.5,23.1,6.8,31.5,6.3,45.9c-0.5,13.6-1.5,41.2-19,57.8
			c-22.9,21.8-65.1,16.2-84.2-8.5c-11.2-14.6-11.4-31.8-11.7-55.8c-0.7-54.9,20.3-105.8,20.3-105.8S505.5,459.1,509.2,455.9z"/>
		<path class="st57" d="M426,479c29.9,4.1,54.6,23.1,62,48c10.3,34.7-13.7,78.5-59,91c18.2,0.2,49.9-2.5,77.5-23.6
			c4.1-3.1,7.9-6.5,11.5-10.2l-12.8-117.1c-28.7-16.1-57.5-17-71.3-3.1C430,468.2,427.2,473.4,426,479z"/>
		<path class="st58" d="M486.2,642.8c-18.7,5.4-34.2-0.6-39.4-2.7c-5.7-2.2-11-5.4-15.7-9.3c-3.9-3.1-7.2-7-9.7-11.3
			c-2.1-3.5-4.4-6.9-6.9-10.1l2.2,0.1c0,0,89.5,31.6,91.1-62.7c0.6-12.6-1.1-27.1-3.8-46.7c-0.7-4.8-4.7-13.5-8-20
			c-4.7-9.2-13.6-14.9-18-18c8.1-1,23.1-5,31.2-6.1l17,98.4c4.7,33.5,12.5,65.3-5.5,79.5C512.7,640.2,487.3,642.5,486.2,642.8z"/>
		<path class="st59" d="M432.4,461l-4.5,12.4c0,0,67.4-3.2,72.8,3.9s11.9-1.8,11.9-1.8l-3.4-19.6L432.4,461z"/>
		<path class="st90" d="M255.3,351.6c9.6-25,33.9-77,88.7-110.6c93-57.1,224.7-30.6,278,38c21.9,28.2,44.4,81.3,31.8,113.6
			c-1.3,3.2-2.8,6.4-4.5,9.4c-6.6,11-21.7,27.4-62.2,38.9c-127.1,36.3-262.7,9.5-277.2-1S237.7,422.3,255.3,351.6z"/>
		<path class="st91" d="M581,243c0,0-0.5,52.8-16.3,53.5s-48.4,1.4-45.6,28.8S483.4,389,454,358.9s-68.6-1.8-86.4,21
			s-101,26.5-111.7,5.1c0,0-1.5,18.3,2.1,23.2c3.6,4.9,74.6,41.8,106,24.3s65.6-6.3,74.2,4.9s97.2,26.7,102.9-5.1
			s-11.6-47.6,19.2-41.3s66.3,16.4,67.5-1.6s8.4-21.1,6-38.2S630,289,630,289S595.8,248.4,581,243z"/>
		<path class="st92" d="M622,279c0,0,105.5,118-34.9,161.9c-38.3,9.2-77.2,15.2-116.5,17.9c0,0-54.8,3.7-112.8-3.7
			c-13.6-1.8-27.1-4.9-40.1-9.3c-14.9-4.8-28.9-11.9-41.7-21c-4.7-3.4-9.8-6.6-14.3-13.1c-4.1-6.1-6.8-13-8-20.2
			c71.9,24.2,105.3,14.7,122.3,0.7c5.6-4.5,14-12.7,26.9-13.9c22.3-2.1,41,18.2,51.4,28.5c14.2,14.2,60.1,7.2,63.6-27.4
			s40.8-50.1,61.9-28S622,279,622,279z"/>
		
			<ellipse transform="matrix(0.1304 -0.9915 0.9915 0.1304 137.0534 633.2797)" class="st93" cx="429.5" cy="238.5" rx="14.3" ry="21.6"/>
		
			<ellipse transform="matrix(0.2284 -0.9736 0.9736 0.2284 152.0132 791.8341)" class="st93" cx="575.5" cy="300" rx="12.9" ry="14.6"/>
		
			<ellipse transform="matrix(0.9966 -8.228640e-02 8.228640e-02 0.9966 -28.4712 24.1704)" class="st93" cx="279" cy="357.5" rx="14" ry="15.5"/>
		
			<ellipse transform="matrix(0.9966 -8.228640e-02 8.228640e-02 0.9966 -23.5014 28.7472)" class="st93" cx="337" cy="299.5" rx="14" ry="15.5"/>
		
			<ellipse transform="matrix(0.9976 -6.958237e-02 6.958237e-02 0.9976 -22.0213 31.8037)" class="st94" cx="445.5" cy="332" rx="19.5" ry="22"/>
		
			<ellipse transform="matrix(0.9966 -8.228640e-02 8.228640e-02 0.9966 -32.3652 29.6889)" class="st95" cx="344" cy="407.5" rx="14" ry="15.5"/>
		
			<ellipse transform="matrix(0.9966 -8.228640e-02 8.228640e-02 0.9966 -32.3365 42.3806)" class="st93" cx="498" cy="413.5" rx="14" ry="15.5"/>
		
			<ellipse transform="matrix(0.9966 -8.228640e-02 8.228640e-02 0.9966 -28.7849 50.56)" class="st96" cx="599" cy="374.5" rx="14" ry="15.5"/>
		
			<ellipse transform="matrix(0.9966 -8.228640e-02 8.228640e-02 0.9966 -18.8387 43.8852)" class="st93" cx="523" cy="250.5" rx="14" ry="15.5"/>
		<path class="st97" d="M650,337.8c2.5,1.4,84.6,115.5-135,120.9c-124,1.2-197.6,10.7-251.9-45.1c48.3,23.3,49.8,41.1,210,40.9
			c158-3.8,174.4-52.1,176.5-77.4S650,337.8,650,337.8z"/>
		<path class="st76" d="M1061.2,549c1.7,27.6,4.1,50.1,6.1,65.8c2.7,21.3,4.4,29.1,2.8,42.2c-1.6,12.3-4.8,37.4-24,51.3
			c-25.1,18.2-67.8,10.2-85.3-13.7c-10.3-14-9.1-29.8-7.5-51.6c3.7-50,29.1-94.8,29.1-94.8l0,0C982.4,548.2,1057.2,551.7,1061.2,549
			z"/>
		<path class="st57" d="M974.3,564.7c0,0,55.5-2.4,60.1,29.4s0.6,97.3-79.4,88.1c20,22.6,23.6,26.2,23.6,26.2l80.1-33.4
			c4.3-32-1-103.3-1-103.3l-3.3-12.3l-74.1-4.9L974.3,564.7z"/>
		<path class="st77" d="M1023.4,717.5c-19.5,3.6-34.8-3-40-5.2c-5.6-2.4-10.7-5.6-15.3-9.6c-3.7-3.1-6.7-6.8-9-11
			c-1.8-3.5-4-9.5-4-9.5l0,0c0,0,88.9,35,98-50.7l-2.3-81.6l10.8-0.9l9.6,90.7c2.1,30.8-7.9,58.6-27.4,70.3
			C1035.1,715.3,1024.5,717.3,1023.4,717.5z"/>
		<path class="st98" d="M982.4,548.2l-5.6,11c0,0,69.1,1.8,74,8.7s12.3-0.8,12.3-0.8l-1.9-18.1L982.4,548.2z"/>
		<path class="st99" d="M810.2,436.3c8.5-17.4,24.4-44.7,52.8-68.3c88.7-73.7,242.9-65.2,315,12c25.4,27.3,55.8,79.3,38,117.2
			c-3.4,7.3-12.4,32.5-74.1,43.7c-132.6,24.1-269-9.8-283-20.3S786.7,499.4,810.2,436.3z"/>
		<path class="st100" d="M1137.6,368.3c0,0,9.1,40-7.1,39.6s-49.5-2.1-48.8,23s-41.5,55.4-69.2,25.9s-69.9-6.4-89.9,13
			s-105.2,17-114.4-3.2c0,0-3,16.6,0.3,21.3s72.8,43.3,106.3,29.6s67.5-1.1,75.4,9.7s97.2,31.1,105.4,2.6s-8.1-44.1,22.9-36.2
			s66.4,19.5,69.1,3.3s10.3-18.6,9.2-34.3s-9.8-57.7-9.8-57.7S1152.3,374.2,1137.6,368.3z"/>
		<path class="st101" d="M1181.9,399.2c0,0,106.9,111.5-39.9,141.6c-39.9,5.7-80.1,8.4-120.4,8.1c0,0-56.3-0.5-114.8-11.3
			c-13.7-2.6-27.2-6.4-40.3-11.2c-14.6-5.4-28.4-12.8-40.9-22.1c-4.6-3.4-9.5-6.7-13.6-12.9c-3.7-5.7-5.9-12.2-6.5-19
			c71.5,27.1,106.2,20.8,124.8,9.3c6-3.8,15.3-10.6,28.5-10.7c23-0.3,40.5,19.4,50.2,29.5c13.4,13.9,60.8,10.8,67.1-20.4
			s45.6-42.8,65.5-21.1S1181.9,399.2,1181.9,399.2z"/>
		
			<ellipse transform="matrix(0.1597 -0.9872 0.9872 0.1597 497.5427 1275.4866)" class="st102" cx="998" cy="345.5" rx="13.2" ry="22.2"/>
		
			<ellipse transform="matrix(0.1516 -0.9884 0.9884 0.1516 560.7584 1477.2651)" class="st103" cx="1140.9" cy="412" rx="11.9" ry="15.1"/>
		<ellipse class="st104" cx="834.5" cy="444" rx="14.5" ry="14"/>
		<circle class="st105" cx="898" cy="394" r="14"/>
		<circle class="st103" cx="1006" cy="432" r="20"/>
		<ellipse class="st106" cx="895.5" cy="493" rx="14.5" ry="14"/>
		<ellipse class="st107" cx="1053.5" cy="510" rx="14.5" ry="14"/>
		<ellipse class="st108" cx="1158.5" cy="481" rx="14.5" ry="14"/>
		<ellipse class="st106" cx="1091.5" cy="363" rx="14.5" ry="14"/>
		<path class="st109" d="M1208.4,434.5c2.3,1.6,72.9,122-147.2,114.5c-124.1-6.1-204-1.4-252.7-61.1c46,26.5,51,45.1,211.2,54.5
			c158.4,5.5,179.6-42.5,184.3-68S1208.4,434.5,1208.4,434.5z"/>
		
			<linearGradient id="SVGID_8_" gradientUnits="userSpaceOnUse" x1="1567.61" y1="410.9029" x2="1613.9965" y2="410.9029" gradientTransform="matrix(1 0 0 -1 0 900)">
			<stop  offset="0" style="stop-color:#429B21"/>
			<stop  offset="0.99" style="stop-color:#43B53D"/>
		</linearGradient>
		<path class="st110" d="M1567.6,499.3c0,0,29.4-13.8,42.1-14.1s-4.4-13.2-28.1-1.1C1581.6,484.1,1568.5,492.2,1567.6,499.3z"/>
		
			<linearGradient id="SVGID_9_" gradientUnits="userSpaceOnUse" x1="1569.6593" y1="420.8534" x2="1611.9982" y2="420.8534" gradientTransform="matrix(1 0 0 -1 0 900)">
			<stop  offset="0" style="stop-color:#429B21"/>
			<stop  offset="0.99" style="stop-color:#43B53D"/>
		</linearGradient>
		<path class="st111" d="M1569.8,498.6c0,0,32.5-33.5,39.9-35.4s-3.1-12.8-28.8,15.1C1580.9,478.4,1568.3,493.8,1569.8,498.6z"/>
		
			<linearGradient id="SVGID_10_" gradientUnits="userSpaceOnUse" x1="1573.71" y1="428.594" x2="1605.4089" y2="428.594" gradientTransform="matrix(1 0 0 -1 0 900)">
			<stop  offset="0" style="stop-color:#429B21"/>
			<stop  offset="0.99" style="stop-color:#43B53D"/>
		</linearGradient>
		<path class="st112" d="M1573.7,491.1c0,0,23.8-35,30.5-38.1S1586.5,449.7,1573.7,491.1z"/>
		
			<linearGradient id="SVGID_11_" gradientUnits="userSpaceOnUse" x1="1578.26" y1="441.7951" x2="1595.0065" y2="441.7951" gradientTransform="matrix(1 0 0 -1 0 900)">
			<stop  offset="0" style="stop-color:#429B21"/>
			<stop  offset="0.99" style="stop-color:#43B53D"/>
		</linearGradient>
		<path class="st113" d="M1578.3,478.9c0,0,20.5-28.3,16.2-39.2S1585.5,462,1578.3,478.9z"/>
		
			<linearGradient id="SVGID_12_" gradientUnits="userSpaceOnUse" x1="1575.85" y1="448.1243" x2="1586.981" y2="448.1243" gradientTransform="matrix(1 0 0 -1 0 900)">
			<stop  offset="0" style="stop-color:#429B21"/>
			<stop  offset="0.99" style="stop-color:#43B53D"/>
		</linearGradient>
		<path class="st114" d="M1575.8,476.8c0,0,18.6-36.7,7.7-47.5S1584,449.1,1575.8,476.8z"/>
		
			<linearGradient id="SVGID_13_" gradientUnits="userSpaceOnUse" x1="1563.6807" y1="438.2056" x2="1575.3425" y2="438.2056" gradientTransform="matrix(1 0 0 -1 0 900)">
			<stop  offset="0" style="stop-color:#429B21"/>
			<stop  offset="0.99" style="stop-color:#43B53D"/>
		</linearGradient>
		<path class="st115" d="M1574.9,475.9c0,0,3.3-18.6-7.7-26.8S1575.2,469.6,1574.9,475.9z"/>
		<path class="st116" d="M438.1,641.5c0,0-10.1-33.7-38.1-54.6c0,0,39.5,15.2,48.8,50.6c0,0-8.9-23.5,12.2-49.5
			c0,0-16.1,35.2,0,50.1c0,0,16.4,4.9,22.7-22.1c0,0,13.9,8,1.6,25.5C485.3,641.5,456.2,654,438.1,641.5z"/>
		<path class="st116" d="M460.9,638.1c0,0,31.7-18.4,29.4-67.7c0,0,17.9,31,2.3,56.8s-36,10.4-36,10.4"/>
		<path class="st116" d="M485.3,641.5c-0.3,0.5,26.1-18.2,24.9-58.4c0,0,4,47.7-12.6,57.3s-16.6,2.7-16.6,2.7"/>
		<path class="st31" d="M732.1,644.5c0,0-10.1-33.7-38.1-54.6c0,0,39.5,15.2,48.8,50.6c0,0-8.9-23.5,12.2-49.5c0,0-16.1,35.2,0,50.1
			c0,0,16.4,4.9,22.7-22.1c0,0,13.9,8,1.6,25.5C779.3,644.5,750.2,657,732.1,644.5z"/>
		<path class="st31" d="M754.9,641.1c0,0,31.7-18.4,29.4-67.7c0,0,17.8,31,2.3,56.8s-36,10.4-36,10.4"/>
		<path class="st31" d="M779.3,644.5c-0.3,0.5,26.1-18.2,24.9-58.4c0,0,4,47.7-12.6,57.3s-16.6,2.7-16.6,2.7"/>
		<path class="st31" d="M986.1,714.5c0,0-10.1-33.7-38.1-54.6c0,0,39.5,15.2,48.8,50.6c0,0-8.9-23.5,12.2-49.5c0,0-16.1,35.2,0,50.1
			c0,0,16.4,4.9,22.7-22.1c0,0,13.9,8,1.6,25.5C1033.3,714.5,1004.2,727,986.1,714.5z"/>
		<path class="st31" d="M1008.9,711.1c0,0,31.7-18.4,29.4-67.7c0,0,17.8,31,2.3,56.8s-36,10.4-36,10.4"/>
		<path class="st31" d="M1033.3,714.5c-0.3,0.5,26.1-18.2,24.9-58.4c0,0,4,47.7-12.6,57.3s-16.6,2.7-16.6,2.7"/>
		<path class="st31" d="M1247.8,653c0,0-9-30.6-33.8-49.6c0,0,35,13.8,43.2,46c0,0-7.9-21.4,10.8-45c0,0-14.2,32,0,45.5
			c0,0,14.5,4.5,20.1-20.1c0,0,12.3,7.3,1.4,23.2C1289.6,653,1263.8,664.3,1247.8,653z"/>
		<path class="st31" d="M1268,649.8c0,0,28.1-16.7,26-61.5c0,0,15.8,28.1,2,51.5s-31.9,9.4-31.9,9.4"/>
		<path class="st31" d="M1289.6,653c-0.2,0.4,23.1-16.5,22.1-53c0,0,3.6,43.3-11.1,52s-14.7,2.4-14.7,2.4"/>
		<ellipse class="st117" cx="1525.5" cy="601.5" rx="71.5" ry="24.5"/>
		<ellipse class="st118" cx="154.5" cy="589.5" rx="58.5" ry="19.5"/>
		
			<linearGradient id="SVGID_14_" gradientUnits="userSpaceOnUse" x1="-15.42" y1="95.745" x2="1608.02" y2="95.745" gradientTransform="matrix(1 0 0 -1 0 900)">
			<stop  offset="0.33" style="stop-color:#199E2F"/>
			<stop  offset="0.52" style="stop-color:#429B21"/>
			<stop  offset="1" style="stop-color:#44C24A"/>
		</linearGradient>
		<path class="st119" d="M-11.2,765.2c122.8,0.4,243.9,1,314.2,4.5c79.3,4,119.4,7.5,221,11.4c74,2.8,66,1.4,189.5,5
			c152.3,4.5,176.7,7,239.5,5c79.7-2.5,70.9-7.4,160-12c247.5-12.7,371.3-19.3,396-17c11.2,1,47,4.9,72-17c17.6-15.4,23-37.6,25-52
			c2,57.6,0,151.4,2,209L-15.4,915.5C-12.4,876.5-14.2,804.2-11.2,765.2z"/>
		<path class="st120" d="M1461,870c0,0-61,3.2-62-8s20.1-68.1,59.8-74.6c0,0-10.6-19.3-39.7,0c-25.9,22.5-30.2,37.2-30.2,37.2
			s-0.4-51.7,47.9-76.9c-14.6-4.8-44.2,8.6-66.5,65.5c-1.1-32.2,9.5-67.7,17.5-85.6s-41.3,13.7-36,89.9c-9.5-42.9,2.7-88.7,9-94.8
			c5.8-6.1-46.6,10-21.7,91.6c-48.1-71.3-62.4-68.1-85.7-66c47.6,30,59.8,49.4,72.5,86.9c0,0-51.9-67.6-101.6-28.4
			c-12.7,14.5-10.6,15-10.6,15s61.4-20.9,105.3,34.3c-9.9,4.8-20.2,8.7-30.7,11.8c-38.4,11.3-72.6,8.8-95.2,4.8
			c0,0,12.7-13.4,16.4-22.5s-16.9-22.5-20.6,5.9c-2.6-5-6.7-9.1-11.6-11.8c-4.1-2.2-12.8-5.5-14.8-2.8c-3,3.9,0,13.6,19.6,31.3
			l-61.9-4.8c0,0,14.8-9.1,15.9-25.8s-20.7-18.2-21.7,21.5c-49.2-1.6-54.5-0.5-54.5-0.5c-1.2-2.3-2.5-4.7-3.7-7
			c3.7-24.2,12.2-39.2,15.3-40.2s-26.4-4.3-29.3,36.5c-2.4-6.4-6.9-11.8-12.8-15.2c-5.3-3-13.6-5.4-14.9-3.2
			c-2.5,4.2,24.7,19,22.1,28.1c-4.1,14.1-78.2,6.1-80.4,5.9C822.3,853.3,804,894.3,582,892H312.7c-10,0-5.8,0.5-5.8,0.5
			s34.4-15,36-28.9s-25.9,4.3-42.3,20.9c13.2-32.7,9.2-24.1,9.2-24.1s-1.2-21.5-16,7.5c-7.4,22-5.3,19.3-5.3,19.3L60.8,907H1461V870
			z"/>
		<path class="st121" d="M1,508c0,0,195.6,38.6,321.5,1.5l23.9-4.1C346.4,505.4,99.5,471.5,1,508z"/>
		<path class="st120" d="M1547.4,921c0,0-151-1.2-156-41.5s125.7-4,179.1,23.3c-163.1-128.9-77.6-53.7-124.9-99.5
			s-9.4-84.9,72.8-18.3c68,67.6,88,87.4,88,87.4s-57.4-101.1-82.2-156s20.9-108.2,76.4-15.6c3.9-34.8,4.2-38.2,4.2-38.2
			s-4.4,52.1-0.9-8.4s58-39.2,43.3,52c25.1-38.6-8.8,6.6,28.3-35s93.3-20.8,50,62.6s-29.8,59.6-29.8,59.6l-31.2,53.1l93.2-69.3
			c64.8-40.9,98.8-17.6,29.1,51.8c-46,38.4-85.4,68.6-85.4,68.6s42.4-12,110.9-34.5s76.6,36.7-2.3,56.3
			C1714.7,919,1547.4,921,1547.4,921"/>
		<path class="st122" d="M1617.8,846.7c0,0-77.2-164-79.1-170.6S1622.8,820.8,1617.8,846.7"/>
		<path class="st122" d="M1451.7,775.8c0,0,130.1,121.3,146.6,131.1C1598.4,906.9,1465.4,775.4,1451.7,775.8"/>
		<path class="st122" d="M1564.6,912.8c0,0-153-24-156.3-26.8S1548.3,904.9,1564.6,912.8"/>
		<path class="st122" d="M1591.6,773.6c0,0,0.1-50.1,0.6-52.3S1583.1,747.4,1591.6,773.6"/>
		<path class="st122" d="M1564.5,720.9c0,0-6.2-27.3-4.1-37S1565.9,712.1,1564.5,720.9"/>
		<path class="st122" d="M1571.1,747.2L1538,729C1538,729,1555.8,731.1,1571.1,747.2"/>
		<path class="st122" d="M1598.1,804.8l-32.2-11.1C1565.9,793.7,1586.3,794.9,1598.1,804.8"/>
		<path class="st122" d="M1487.5,802.3c0,0-18.1-26.4-19.3-32.8S1485,783.8,1487.5,802.3"/>
		<path class="st122" d="M1509.7,829.4l-42.2-11.7C1467.5,817.7,1489.5,817.8,1509.7,829.4"/>
		<path class="st122" d="M1530.4,841.4c0.1,0.1-10.4-21.5-8.2-32.2s4.7,22.2,8.3,32.3"/>
		<path class="st122" d="M1557.9,867.5c0,0-7.5-25.6-6.7-33.9S1562.4,858,1557.9,867.5"/>
		<path class="st122" d="M1473.8,873.2l43.3,28.7C1517.1,901.9,1499.4,898.4,1473.8,873.2"/>
		<path class="st122" d="M1453.7,891.4c0,0-30.4-15.3-35.1-21.1S1449,883.4,1453.7,891.4"/>
		<ellipse class="st123" cx="829.5" cy="734" rx="37.5" ry="14"/>
		<path class="st124" d="M191.2,502.1c0,0-7.5-18-28.3-29.3c0,0,29.3,8.1,36.2,27.1c0,0-6.6-12.6,9-26.5c0,0-11.9,18.9,0,26.8
			c0,0,12.1,2.6,16.8-11.8c0,0,10.3,4.3,1.2,13.7C226.2,502.1,204.6,508.8,191.2,502.1z"/>
		<path class="st124" d="M208.2,500.3c0,0,23.5-9.8,21.8-36.3c0,0,13.2,16.6,1.7,30.4s-26.8,5.6-26.8,5.6"/>
		<path class="st124" d="M226.2,502.1c-0.2,0.3,19.3-9.8,18.5-31.3c0,0,3,25.5-9.3,30.7s-12.3,1.4-12.3,1.4"/>
		<rect class="st125" width="1600" height="900"/>
	</g>
</g>
</svg>
