<svg id="Layer_1" data-name="Layer 1" xmlns="http://www.w3.org/2000/svg" xmlns:xlink="http://www.w3.org/1999/xlink" width="1600" height="900" viewBox="0 0 1600 900">
  <defs>
    <style>
      .cls-1 {
        fill: none;
      }

      .cls-2 {
        clip-path: url(#clip-path);
      }

      .cls-3 {
        fill: #f8efce;
      }

      .cls-4 {
        opacity: 0.32;
      }

      .cls-5 {
        fill: #6ebbd5;
      }

      .cls-6 {
        fill: #a2c60a;
      }

      .cls-7 {
        fill: #4bb1a4;
      }

      .cls-8 {
        fill: #005f9e;
      }

      .cls-9 {
        fill: #f7a81d;
      }

      .cls-10 {
        fill: #f6bf46;
      }

      .cls-11 {
        fill: #f6d330;
      }

      .cls-12 {
        fill: #f7903c;
      }

      .cls-13 {
        fill: #ff5a00;
      }

      .cls-14 {
        fill: #4ed8c7;
      }

      .cls-15 {
        fill: #f7c50c;
      }

      .cls-16 {
        fill: #e7007e;
      }

      .cls-17 {
        fill: #94007e;
      }

      .cls-18 {
        fill: #f46606;
      }

      .cls-19 {
        opacity: 0.4;
      }

      .cls-20 {
        opacity: 0.3;
      }
    </style>
    <clipPath id="clip-path">
      <rect class="cls-1" width="1600" height="900"/>
    </clipPath>
  </defs>
  <g class="cls-2">
    <rect class="cls-3" width="1600" height="900"/>
    <g class="cls-4">
      <path class="cls-5" d="M615.65,878.33l-12.87.15,0-3,11.13-.13,2.89-5.16,2.62,1.47Zm9.61-17.14-2.62-1.47,5.87-10.46,2.62,1.47ZM637,840.26l-2.62-1.47,5.88-10.46,2.61,1.47Zm11.74-20.93-2.61-1.47L652,807.4l2.61,1.46Zm11.75-20.93-2.62-1.47,4.64-8.27-.4-.68,2.58-1.53,1.28,2.16Zm-1.93-22.26L656,777.67l-6.13-10.32,2.58-1.53ZM590.79,878.63l-12,.15,0-3,12-.15ZM646.3,755.5,643.73,757l-6.13-10.31,2.58-1.54ZM566.79,878.93l-12,.15,0-3,12-.15Zm67.26-144.06-2.58,1.53-6.13-10.32,2.58-1.53ZM542.79,879.23l-12,.15,0-3,12-.15Zm79-165-2.58,1.53-6.13-10.31,2.58-1.53Zm-103,165.3-6,.07-4-6.65,2.58-1.53,3.07,5.16,4.26-.05ZM604.1,703.29l-12,.15,0-3,12-.15ZM505.3,861.1l-2.58,1.53-6.13-10.32,2.58-1.53Zm74.8-157.51-12,.15,0-3,12-.15ZM493,840.46,490.46,842l-6.13-10.32,2.58-1.53ZM556.1,703.89l-12,.15,0-3,12-.15ZM480.78,819.83l-2.58,1.53-6.13-10.31,2.58-1.54ZM532.1,704.19l-12,.14,0-3,12-.14Zm-63.57,95L466,800.73l-5.68-9.57,1.27-2.27,2.62,1.47-.43.76Zm1.5-19.31-2.62-1.47L473.28,768l2.62,1.47ZM481.77,759l-2.62-1.47L485,747l2.62,1.46ZM493.51,738l-2.62-1.47,5.88-10.47,2.61,1.47Zm11.74-20.93-2.61-1.47,5.87-10.47,2.61,1.47Z"/>
      <path class="cls-6" d="M814.37,174.77l-5.57,9.74L806.2,183l4.71-8.24-.4-.67,2.59-1.51Zm-11.53,20.15-6,10.42-2.6-1.49,6-10.42Zm-11.91,20.84-6,10.41-2.61-1.49,6-10.41ZM779,236.59l-6,10.41-2.6-1.49,6-10.41Zm-11.92,20.83-3.79,6.64-12.87.05v-3l11.13-.05,2.94-5.13Zm40-95.19-2.59,1.51-6-10.37,2.59-1.51ZM738.43,264.16l-12,0v-3l12,0ZM795,141.49,792.39,143l-6-10.37,2.6-1.51ZM714.43,264.25l-12,.05v-3l12-.05Zm68.46-143.49-2.59,1.51-6-10.37,2.59-1.51ZM690.43,264.35l-12,0v-3l12,0ZM770.81,100l-2.59,1.51-6-10.37,2.59-1.51ZM666.43,264.45l-6,0-3.9-6.68,2.59-1.51,3,5.18h4.26ZM753.21,88.93l-12,0,0-3,12,0Zm-100.12,157-2.59,1.51-6-10.37,2.59-1.51ZM729.21,89l-12,0v-3l12,0ZM641,225.17l-2.59,1.51-6-10.36,2.59-1.51Zm64.2-136-12,.05v-3l12-.05ZM628.93,204.44l-2.6,1.51-6-10.37,2.59-1.51ZM681.21,89.22l-12,0v-3l12,0ZM616.84,183.7l-2.59,1.51-5.6-9.61,1.29-2.26,2.61,1.49-.44.75Zm43.37-92.21-6,10.42-2.6-1.49,6-10.41Zm-11.92,20.84-5.95,10.41-2.61-1.49,6-10.41Zm-11.91,20.83-6,10.42-2.6-1.49,5.95-10.42ZM624.46,154l-6,10.42-2.6-1.49,6-10.42Z"/>
      <path class="cls-5" d="M818,876.44,767,965.73l-102.87.41L612.3,877.27,663.38,788l102.86-.41Zm-52.82,86.3,49.35-86.28-50-85.88-99.4.4-49.35,86.28,50,85.88Z"/>
      <path class="cls-7" d="M462.52,615.69l-12.87.16,0-3,11.14-.14,2.89-5.16,2.62,1.47Zm9.61-17.13-2.62-1.47,5.87-10.47,2.62,1.47Zm11.74-20.94-2.62-1.46,5.87-10.47,2.62,1.47Zm11.74-20.93L493,555.23l5.87-10.47,2.62,1.47Zm11.74-20.93-2.62-1.47,4.65-8.27-.4-.67,2.57-1.53,1.29,2.16Zm-1.92-22.26L502.85,515l-6.13-10.32,2.58-1.53ZM437.65,616l-12,.15,0-3,12-.15Zm55.52-123.14-2.58,1.54-6.13-10.32,2.58-1.53ZM413.65,616.29l-12,.15,0-3,12-.14Zm67.26-144.06-2.58,1.53-6.12-10.31,2.57-1.54ZM389.65,616.59l-12,.15,0-3,12-.15Zm79-165-2.58,1.53L460,442.81l2.58-1.53Zm-103,165.29-6,.07-4-6.65,2.58-1.53,3.07,5.16,4.26-.05ZM451,440.66l-12,.15,0-3,12-.15Zm-98.8,157.8L349.58,600l-6.13-10.31,2.58-1.53ZM427,441l-12,.15,0-3,12-.15ZM339.9,577.83l-2.57,1.53L331.2,569l2.58-1.53ZM403,441.25l-12,.15,0-3,12-.15ZM327.65,557.19l-2.58,1.54-6.13-10.32,2.58-1.53ZM379,441.55l-12,.15,0-3,12-.15Zm-63.58,95-2.58,1.53-5.68-9.56,1.28-2.28,2.61,1.47-.43.76Zm1.5-19.3-2.61-1.47,5.87-10.47,2.61,1.47Zm11.75-20.94L326,494.86l5.87-10.47,2.62,1.47Zm11.74-20.93-2.62-1.47,5.87-10.46,2.62,1.47Zm11.74-20.93L349.5,453l5.87-10.46L358,444Z"/>
      <path class="cls-5" d="M664.89,613.81l-51.07,89.28L511,703.51l-51.79-88.87,51.07-89.29,102.86-.42ZM612.08,700.1l49.35-86.28-50-85.88-99.39.4-49.36,86.28,50,85.88Z"/>
      <path class="cls-8" d="M514.71,877.63l-51.07,89.29-102.86.41L309,878.46l51.07-89.29,102.86-.41Zm-52.81,86.3,49.35-86.28L461.2,791.77l-99.39.4-49.36,86.28,50.05,85.88Z"/>
      <path class="cls-7" d="M969.88,789l-51.07,89.29L816,878.74l-51.79-88.87,51.07-89.29,102.86-.41Zm-52.81,86.29,49.35-86.28-50-85.88-99.39.4-49.35,86.29,50,85.88Z"/>
      <path class="cls-9" d="M965.12,86.34l-51.07,89.29L811.19,176,759.4,87.17,810.47-2.12l102.86-.42.44.75Zm-52.81,86.29,49.35-86.28L911.61.47l-99.39.4L762.86,87.15l50,85.88Z"/>
      <path class="cls-6" d="M814.94,350.16l-51.07,89.29L661,439.87,609.22,351l51.07-89.28,102.86-.42Zm-52.81,86.3,49.35-86.28L761.43,264.3l-99.39.4L612.68,351l50.05,85.88Z"/>
      <path class="cls-10" d="M916,350.29l-102.86,1.27-52.53-88.43L811,173.42l102.86-1.28,52.53,88.44Zm-101.16-1.75,99.39-1.23,48.62-86.69-50.76-85.46-99.39,1.23L764.1,263.08Z"/>
      <path class="cls-11" d="M1117.82,173l-51.07,89.29-102.86.41L912.1,173.84l51.07-89.29L1066,84.14l.44.75ZM1065,259.31,1114.36,173l-50-85.88-99.4.4-49.35,86.28,50.05,85.88Z"/>
      <path class="cls-12" d="M1067,86.67,964.14,87.94,911.61-.5l50.32-89.71,102.86-1.27L1117.32-3ZM965.83,84.92l99.39-1.23L1113.85-3l-50.76-85.46L963.7-87.23,915.07-.54Z"/>
      <path class="cls-13" d="M661.64,87l-5.44,9.51L653.53,95l4.6-8-.42-.68,2.6-1.44Zm-11.26,19.69-5.82,10.17-2.67-1.53,5.82-10.17ZM638.74,127l-5.82,10.17-2.66-1.52,5.81-10.18Zm-11.63,20.35-5.82,10.17L618.62,156l5.82-10.17Zm-11.64,20.34-3.71,6.48-13-.22-.07-3,11.27.19,2.87-5ZM654,74.42l-2.59,1.44L645,65.48l2.6-1.44Zm-67.39,99.32-12.16-.2-.07-3,12.15.2ZM641.3,53.67l-2.59,1.44-6.34-10.38,2.6-1.44Zm-79,119.67-12.16-.2-.07-3,12.15.2ZM628.63,32.92,626,34.36,619.7,24l2.6-1.43ZM538,172.94l-12.15-.21-.08-3,12.16.2ZM616,12.17l-2.59,1.44L607,3.24l2.59-1.44ZM513.65,172.53l-6.07-.1-4.09-6.69,2.6-1.43,3.17,5.18,4.32.08ZM597.9.85,585.74.65l-.07-3,12.15.2ZM499.75,153.93l-2.59,1.44L490.82,145l2.6-1.44ZM573.59.44,561.44.24l-.08-3,12.16.2ZM487.08,133.18l-2.59,1.44-6.34-10.37,2.6-1.44ZM549.28,0l-12.15-.2-.08-3,12.16.21ZM474.41,112.43l-2.59,1.44-6.34-10.37,2.6-1.44ZM525-.36l-12.15-.2-.07-3,12.15.2ZM461.74,91.69l-2.59,1.44-5.88-9.62,1.27-2.21,2.66,1.52-.42.75Zm42-90.24-5.82,10.17-2.66-1.53L501.08-.08ZM492.12,21.79,486.3,32l-2.67-1.52,5.82-10.18ZM480.48,42.14l-5.82,10.17L472,50.78l5.82-10.17ZM468.84,62.48,463,72.65l-2.67-1.52L466.17,61Z"/>
      <circle class="cls-7" cx="512.62" cy="351.84" r="11.14"/>
      <polygon class="cls-9" points="904.26 156.68 823.42 157.01 782.71 87.15 822.85 16.97 903.7 16.65 944.41 86.5 904.26 156.68"/>
      <polygon class="cls-9" points="1055.17 242.45 974.32 242.78 933.61 172.92 973.76 102.74 1054.61 102.42 1095.31 172.27 1055.17 242.45"/>
      <polygon class="cls-12" points="1055.96 68.53 975.11 68.86 934.4 -0.99 974.54 -71.17 1055.39 -71.5 1096.1 -1.65 1055.96 68.53"/>
      <polygon class="cls-5" points="757.28 946.36 676.43 946.69 635.72 876.84 675.87 806.66 756.71 806.33 797.42 876.18 757.28 946.36"/>
      <polygon class="cls-7" points="452.06 596.72 371.22 597.04 330.51 527.19 370.65 457.01 451.5 456.69 492.21 526.54 452.06 596.72"/>
      <polygon class="cls-7" points="907.73 860.43 826.88 860.76 786.17 790.9 826.32 720.72 907.16 720.4 947.87 790.25 907.73 860.43"/>
      <circle class="cls-6" cx="966.55" cy="262.24" r="11.14"/>
      <circle class="cls-6" cx="763.69" cy="262.93" r="11.14"/>
      <circle class="cls-7" cx="661.66" cy="438.73" r="11.14"/>
      <circle class="cls-7" cx="510.14" cy="525.97" r="11.14"/>
      <circle class="cls-7" cx="460.9" cy="614.63" r="11.14"/>
      <circle class="cls-5" cx="511.82" cy="702" r="11.14"/>
      <circle class="cls-5" cx="463.31" cy="790.33" r="11.14"/>
      <circle class="cls-5" cx="612.62" cy="701.7" r="11.14"/>
      <circle class="cls-5" cx="664.75" cy="789.45" r="11.14"/>
      <circle class="cls-8" cx="512.94" cy="877.71" r="11.14"/>
      <circle class="cls-14" cx="763.52" cy="437.9" r="11.14"/>
      <circle class="cls-6" cx="661.3" cy="262.97" r="11.14"/>
      <circle class="cls-15" cx="761.17" cy="87.09" r="11.14"/>
      <circle class="cls-9" cx="914.63" cy="174.6" r="11.14"/>
      <circle class="cls-6" cx="914.44" cy="349.16" r="11.14"/>
      <circle class="cls-12" cx="964.07" cy="86.42" r="11.14"/>
      <circle class="cls-12" cx="1066.82" cy="86.94" r="11.14"/>
      <circle class="cls-15" cx="812.05" cy="174.54" r="11.14"/>
      <circle class="cls-11" cx="1065.74" cy="261.04" r="11.14"/>
      <circle class="cls-7" cx="461.07" cy="439.95" r="11.14"/>
      <g>
        <path class="cls-6" d="M359.32,266l-51.07,89.29-102.86.41L153.6,266.87l51.07-89.29,102.86-.41.44.74Zm-52.81,86.29,49.35-86.28-50.05-85.88-99.4.4-49.35,86.28,50.05,85.88Z"/>
        <circle class="cls-6" cx="307.38" cy="353.83" r="11.14"/>
      </g>
      <circle class="cls-14" cx="663.3" cy="613.58" r="11.14"/>
      <circle class="cls-14" cx="764.8" cy="613.68" r="11.14"/>
      <circle class="cls-14" cx="612.8" cy="526.73" r="11.14"/>
      <polygon class="cls-6" points="1213.75 155.8 1132.9 156.13 1092.2 86.28 1132.34 16.09 1213.19 15.77 1253.89 85.62 1213.75 155.8"/>
      <path class="cls-13" d="M1374.22,612.3l-102.86,1.27-52.53-88.43,50.32-89.71L1372,434.15l52.53,88.44Zm-101.16-1.75,99.39-1.23,48.62-86.69-50.76-85.46-99.39,1.23-48.63,86.69Z"/>
      <path class="cls-16" d="M1221.08,349.66l-102.85,1.28L1065.7,262.5,1116,172.79l102.85-1.28L1271.4,260Zm-101.16-1.74,99.39-1.24L1267.94,260l-50.76-85.46-99.39,1.23-48.63,86.69Z"/>
      <path class="cls-16" d="M1423.46,347.78l-51.07,89.29-102.86.41-.44-.75-51.35-88.12,51.07-89.29,102.86-.41.43.75Zm-52.82,86.29L1420,347.79l-50-85.88-99.4.41L1221.2,348.6l50,85.87Z"/>
      <path class="cls-16" d="M1525.28,523.66l-12.87.16,0-3,11.13-.14,2.89-5.15L1529,517Zm9.61-17.13-2.62-1.47,5.87-10.47,2.62,1.47Zm11.74-20.93-2.62-1.47,5.87-10.47,2.62,1.47Zm11.74-20.94-2.62-1.46,5.88-10.47,2.61,1.47Zm11.74-20.93-2.61-1.47,4.64-8.27-.4-.67,2.58-1.53,1.28,2.16Zm-1.92-22.26-2.58,1.53-6.13-10.32,2.58-1.53ZM1500.41,524l-12,.15,0-3,12-.15Zm55.52-123.14-2.58,1.54-6.13-10.32,2.58-1.53Zm-79.51,123.43-12,.15,0-3,12-.15Zm67.26-144.06-2.58,1.53L1535,371.42l2.58-1.54Zm-91.26,144.36-12,.15,0-3,12-.15Zm79-165-2.58,1.53-6.13-10.32,2.58-1.53Zm-103,165.29-6,.07-4-6.65,2.58-1.53,3.07,5.16,4.26,0Zm85.3-176.23-12,.15,0-3,12-.15Zm-98.8,157.8-2.58,1.54-6.12-10.32,2.58-1.53Zm74.81-157.5-12,.14,0-3,12-.14ZM1402.67,485.8l-2.58,1.53L1394,477l2.58-1.53Zm63.06-136.58-12,.15,0-3,12-.15Zm-75.32,115.94-2.58,1.54-6.13-10.32,2.58-1.53Zm51.32-115.64-12,.15,0-3,12-.15Zm-63.58,95-2.58,1.53-5.68-9.56,1.28-2.28,2.62,1.47-.43.76Zm1.51-19.31-2.62-1.46,5.87-10.47,2.62,1.47Zm11.74-20.93-2.62-1.46,5.87-10.47,2.62,1.47Zm11.74-20.93-2.62-1.47,5.87-10.46,2.62,1.47Zm11.74-20.93-2.61-1.47,5.87-10.46,2.61,1.46Z"/>
      <path class="cls-17" d="M1525.17,348.15l-102.86,1.28L1369.78,261l50.33-89.71L1523,170l52.53,88.44ZM1424,346.4l99.39-1.23L1572,258.48,1521.27,173l-99.39,1.24-48.63,86.68Z"/>
      <polygon class="cls-16" points="1361.85 418.36 1281 418.69 1240.29 348.83 1280.44 278.65 1361.29 278.33 1401.99 348.18 1361.85 418.36"/>
      <circle class="cls-13" cx="1371.13" cy="435.64" r="11.14"/>
      <circle class="cls-16" cx="1219.89" cy="349.14" r="11.14"/>
      <circle class="cls-17" cx="1269.81" cy="260.58" r="11.14"/>
      <circle class="cls-16" cx="1118.89" cy="349.32" r="11.14"/>
      <circle class="cls-16" cx="1421.77" cy="347.11" r="11.14"/>
      <circle class="cls-16" cx="1523.08" cy="347.23" r="11.14"/>
      <circle class="cls-17" cx="1371.52" cy="260.97" r="11.14"/>
      <polygon class="cls-17" points="1268.23 83.93 1265.8 88.18 1268.41 89.67 1269.98 86.92 1369.38 86.52 1419.42 172.4 1370.07 258.68 1270.67 259.08 1224.82 180.4 1219.62 177.42 1268.52 261.34 1268.95 262.09 1371.81 261.67 1422.88 172.38 1371.53 84.26 1371.1 83.51 1268.23 83.93"/>
      <polygon class="cls-17" points="304.87 179.15 307.5 183.28 357.55 263 308.45 178.77 354.21 90.82 453.51 86.47 506.94 170.29 461.06 258.46 357.55 263 307.5 183.28 355.86 266.05 462.05 261.42 462.92 261.38 510.4 170.14 455.11 83.39 353.22 87.86 352.35 87.9 304.87 179.15"/>
      <polygon class="cls-5" points="1362.2 243.11 1281.35 243.44 1240.64 173.59 1280.78 103.41 1361.63 103.08 1402.34 172.93 1362.2 243.11"/>
      <path class="cls-8" d="M208.57,529.66,203,539.4l-2.6-1.49,4.7-8.23-.39-.68,2.59-1.51ZM197,549.81l-6,10.42-2.6-1.49,6-10.41Zm-11.91,20.84-6,10.41-2.61-1.49,6-10.41Zm-11.92,20.83-6,10.42-2.6-1.49,6-10.42Zm-11.92,20.83L157.5,619l-12.87,0v-3l11.13,0,2.94-5.14Zm40-95.19-2.59,1.51-6-10.37,2.59-1.51ZM132.63,619.05l-12,.05v-3l12-.05Zm56.55-122.67-2.6,1.51-6-10.36,2.59-1.51ZM108.63,619.15l-12,0v-3l12-.05Zm68.46-143.5-2.59,1.51-6-10.37,2.59-1.51ZM84.63,619.24l-12,0v-3l12,0ZM165,454.91l-2.59,1.51-6-10.37,2.6-1.51ZM60.63,619.34l-6,0-3.9-6.68,2.59-1.51,3,5.19,4.26,0Zm86.78-175.51-12,.05,0-3,12-.05ZM47.29,600.8l-2.59,1.51-6-10.37,2.59-1.51Zm76.12-156.88-12,.05,0-3,12-.05ZM35.21,580.07l-2.59,1.51-6-10.37,2.6-1.51ZM99.41,444l-12,.05,0-3,12-.05ZM23.12,559.33l-2.59,1.51-6-10.37L17.08,549ZM75.41,444.12l-12,.05,0-3,12-.05ZM11,538.59,8.45,540.1l-5.6-9.61,1.29-2.26,2.6,1.49-.43.76Zm43.37-92.2-6,10.41-2.6-1.49L51.8,444.9ZM42.49,467.22l-6,10.42-2.6-1.49,6-10.42ZM30.58,488.05l-6,10.42L22,497l6-10.42ZM18.66,508.89l-6,10.41-2.6-1.49,6-10.41Z"/>
      <path class="cls-5" d="M156.94,443.28l-12.86.16,0-3,11.13-.14,2.9-5.16,2.61,1.47Zm9.61-17.14-2.61-1.46,5.87-10.47,2.62,1.47Zm11.75-20.93-2.62-1.47,5.87-10.46,2.62,1.47ZM190,384.28l-2.62-1.47,5.87-10.46,2.62,1.46Zm11.74-20.93-2.62-1.47,4.64-8.27-.4-.67L206,351.4l1.29,2.17Zm-1.92-22.26-2.58,1.53-6.13-10.32,2.58-1.53Zm-67.78,102.5-12,.14,0-3,12-.15ZM187.6,320.45,185,322l-6.13-10.31,2.58-1.53ZM108.08,443.88l-12,.15,0-3,12-.15Zm67.26-144.06-2.58,1.53L166.63,291l2.58-1.53ZM84.08,444.18l-12,.15,0-3,12-.15Zm79-165-2.58,1.54-6.13-10.32,2.58-1.53Zm-103,165.3-6,.07-4-6.65,2.58-1.53,3.06,5.16,4.27,0Zm85.3-176.24-12,.15,0-3,12-.15ZM46.59,426.05,44,427.58l-6.13-10.31,2.58-1.54Zm74.8-157.51-12,.15,0-3,12-.15ZM34.33,405.42,31.75,407l-6.12-10.32,2.58-1.53ZM97.39,268.84l-12,.15,0-3,12-.15ZM22.08,384.78l-2.58,1.53L13.37,376,16,374.46ZM73.4,269.14l-12,.15,0-3,12-.15Zm-63.58,95-2.58,1.53-5.68-9.57,1.27-2.27,2.62,1.47-.43.76Zm1.5-19.31-2.61-1.46,5.87-10.47,2.61,1.47Zm11.74-20.93-2.61-1.47L26.32,312l2.61,1.46ZM34.81,303l-2.62-1.47,5.87-10.46,2.62,1.46Zm11.74-20.93-2.62-1.47,5.87-10.47,2.62,1.47Z"/>
      <path class="cls-5" d="M359.32,441.39l-51.07,89.29-102.86.42L153.6,442.22l51.07-89.28,102.86-.42Zm-52.81,86.3,49.35-86.28-50.05-85.88-99.4.4-49.35,86.28,50.05,85.88Z"/>
      <polygon class="cls-5" points="298.57 511.31 217.72 511.64 177.02 441.79 217.16 371.61 298.01 371.28 338.71 441.13 298.57 511.31"/>
      <circle class="cls-5" cx="206.04" cy="354.41" r="11.14"/>
      <circle class="cls-8" cx="54.23" cy="442.66" r="11.14"/>
      <circle class="cls-5" cx="207.17" cy="530.1" r="11.14"/>
      <polygon class="cls-13" points="150.15 597.64 69.3 597.97 28.59 528.12 68.74 457.94 149.59 457.61 190.29 527.46 150.15 597.64"/>
      <polygon class="cls-6" points="293.98 331.01 213.13 331.34 172.43 261.48 212.57 191.3 293.42 190.98 334.12 260.83 293.98 331.01"/>
      <polygon class="cls-18" points="1516.35 683.07 1435.5 683.4 1394.79 613.55 1434.93 543.37 1515.78 543.04 1556.49 612.89 1516.35 683.07"/>
      <polygon class="cls-18" points="453.82 945.74 372.97 946.07 332.26 876.21 372.4 806.03 453.25 805.71 493.96 875.56 453.82 945.74"/>
      <polygon class="cls-9" points="1215.49 685.71 1131.19 686.05 1088.74 613.21 1130.6 540.03 1214.9 539.69 1257.35 612.53 1215.49 685.71"/>
    </g>
    <g class="cls-19">
      <g>
        <path d="M695.31,195.71a12,12,0,0,0-.08-1.35c-.05-.42-.1-.92-.12-1.5S695,191.67,695,191a12.48,12.48,0,0,1-5.16,4.09,16.79,16.79,0,0,1-6.76,1.38q-6.51,0-10.13-4.28T669.32,180q0-9.6,5.83-14.79T691.74,160c1.18,0,2.25,0,3.22.08s1.92.14,2.89.28,2,.3,3,.51,2.15.5,3.38.87V184.3c0,1.21,0,2.49.08,3.84s.13,2.58.24,3.69c.1,1.32.21,2.61.31,3.88Zm-1.65-25.84a17.49,17.49,0,0,0-2.51-.4c-.75-.05-1.45-.08-2.09-.08a8.44,8.44,0,0,0-6.78,2.82c-1.61,1.87-2.42,4.48-2.42,7.81a7.74,7.74,0,0,0,1.45,5.07,5.07,5.07,0,0,0,4.12,1.74,7.19,7.19,0,0,0,3.18-.71,8,8,0,0,0,2.62-2A9.59,9.59,0,0,0,693,181a11.75,11.75,0,0,0,.65-4Z"/>
        <path d="M738.36,195.71V175.92a8.08,8.08,0,0,0-.51-3.21,4.51,4.51,0,0,0-1.23-1.72,3.18,3.18,0,0,0-1.51-.69,9,9,0,0,0-1.34-.11,8.05,8.05,0,0,0-1.67.3,5.86,5.86,0,0,0-2.42,1.45,10,10,0,0,0-2.18,3.37,15.43,15.43,0,0,0-1,6v14.44H716V172.66a39.13,39.13,0,0,0-.48-6,19.73,19.73,0,0,0-1.26-4.86h10.54a14,14,0,0,1,.67,1.83c.13.47.28,1.16.44,2.06a16.4,16.4,0,0,1,5.43-3.65,15.78,15.78,0,0,1,5.91-1.19,11.49,11.49,0,0,1,4.62.93,11,11,0,0,1,3.69,2.58,11.94,11.94,0,0,1,2.44,4.09,15.6,15.6,0,0,1,.9,5.44v21.84Z"/>
      </g>
      <g>
        <path d="M250.62,283a31.44,31.44,0,0,1-1.14,9.16,16,16,0,0,1-3.1,5.91,11.26,11.26,0,0,1-4.66,3.2,16.78,16.78,0,0,1-5.85,1,49.53,49.53,0,0,1-6-.37,21.79,21.79,0,0,1-5.69-1.45V293.6a37.73,37.73,0,0,0,5.17,1.45,22.4,22.4,0,0,0,4.35.51,7.6,7.6,0,0,0,3.23-.68,6.31,6.31,0,0,0,2.52-2.16,11.21,11.21,0,0,0,1.63-3.92,25.47,25.47,0,0,0,.58-5.87v-3a10.3,10.3,0,0,1-3.85,2.27,16,16,0,0,1-4.18.5,13.14,13.14,0,0,1-5.27-1,11.38,11.38,0,0,1-4-2.84,12.68,12.68,0,0,1-2.57-4.42,18.61,18.61,0,0,1,.49-12.83,15,15,0,0,1,4-5.37,17.85,17.85,0,0,1,6.3-3.42,27.61,27.61,0,0,1,8.35-1.18c1,0,1.81,0,2.54,0a21.5,21.5,0,0,1,2.15.17c.71.09,1.46.21,2.26.37s1.73.37,2.78.64Zm-9-22.56-1.77-.27q-.6-.06-1.56-.06a8.58,8.58,0,0,0-6.23,2.19,8.06,8.06,0,0,0-2.26,6,5.72,5.72,0,0,0,1.5,4.25,5.05,5.05,0,0,0,3.72,1.49,10.9,10.9,0,0,0,2.43-.27,4.29,4.29,0,0,0,2.12-1.22,6.54,6.54,0,0,0,1.5-2.73,17,17,0,0,0,.55-4.83Z"/>
        <path d="M289.86,267.09a17.13,17.13,0,0,1-1.11,6.4,12.88,12.88,0,0,1-3.16,4.68,13.76,13.76,0,0,1-4.91,2.89,20.89,20.89,0,0,1-12.71,0,13.68,13.68,0,0,1-4.91-2.89,13.35,13.35,0,0,1-3.2-4.68,16.73,16.73,0,0,1-1.14-6.4,16.44,16.44,0,0,1,1.11-6.23,12.94,12.94,0,0,1,3.13-4.65,13.28,13.28,0,0,1,4.91-2.9,21.74,21.74,0,0,1,12.81,0,13.64,13.64,0,0,1,4.91,2.83,12.59,12.59,0,0,1,3.16,4.65A16.94,16.94,0,0,1,289.86,267.09Zm-9,0a6.71,6.71,0,0,0-1.82-5,6.64,6.64,0,0,0-4.87-1.79,6.25,6.25,0,0,0-4.81,1.79,7,7,0,0,0-1.68,5,7.45,7.45,0,0,0,1.64,5.16,6.2,6.2,0,0,0,4.85,1.82,6.59,6.59,0,0,0,4.94-1.79A7.14,7.14,0,0,0,280.88,267.1Z"/>
      </g>
      <g>
        <path d="M1300.1,544.64q0-.45-.06-1.11a12.42,12.42,0,0,1-.11-1.24c0-.48-.06-1-.1-1.51a10.26,10.26,0,0,1-4.26,3.37,13.86,13.86,0,0,1-5.58,1.15,10.34,10.34,0,0,1-8.36-3.54q-3-3.53-3-10.07,0-7.92,4.81-12.2t13.69-4.29c1,0,1.86,0,2.66.07s1.59.12,2.38.23,1.62.25,2.46.42,1.77.42,2.78.72v18.58c0,1,0,2.06.07,3.17s.11,2.13.2,3.05c.08,1.09.17,2.16.26,3.2Zm-1.37-21.32a12.32,12.32,0,0,0-2.06-.33c-.62,0-1.2-.07-1.73-.07a7,7,0,0,0-5.59,2.33,9.55,9.55,0,0,0-2,6.44,6.4,6.4,0,0,0,1.2,4.19,4.17,4.17,0,0,0,3.39,1.44,6,6,0,0,0,2.63-.59,6.83,6.83,0,0,0,2.17-1.67,8.17,8.17,0,0,0,1.46-2.55,9.58,9.58,0,0,0,.53-3.31Z"/>
        <path d="M1354.41,544.64V530.41q0-3.85-1.11-5.34a3.51,3.51,0,0,0-3-1.49,4.49,4.49,0,0,0-2,.46,5,5,0,0,0-1.78,1.53,7.87,7.87,0,0,0-1.3,2.85,17.3,17.3,0,0,0-.49,4.48v11.74h-8.7V530.41a10.17,10.17,0,0,0-1-5.19,3.65,3.65,0,0,0-3.36-1.64,4.74,4.74,0,0,0-3.87,2.2q-1.63,2.21-1.63,7.12v11.74h-8.7V526.57c0-1.06,0-2-.07-2.89s-.12-1.68-.23-2.44a19.82,19.82,0,0,0-.45-2.22q-.3-1.08-.69-2.28h8.7l.49,1.52a14.08,14.08,0,0,1,.36,1.46,20,20,0,0,1,4.53-2.78,14.68,14.68,0,0,1,6-1.08,10.17,10.17,0,0,1,4.46.94,6.62,6.62,0,0,1,3,2.65,9.64,9.64,0,0,1,4.38-2.68,18.11,18.11,0,0,1,5.63-.91,9.33,9.33,0,0,1,7.07,2.6q2.49,2.61,2.49,7.56v18.62Z"/>
      </g>
      <path d="M252.34,460.93c0-.37,0-.82-.08-1.35s-.1-.93-.13-1.51-.07-1.2-.12-1.84a12.43,12.43,0,0,1-5.19,4.1,16.78,16.78,0,0,1-6.79,1.4q-6.54,0-10.17-4.3t-3.64-12.27q0-9.63,5.86-14.85t16.67-5.22c1.19,0,2.26,0,3.23.08s1.94.15,2.91.28,2,.3,3,.52,2.15.5,3.39.87v22.62c0,1.23,0,2.51.08,3.87s.13,2.59.24,3.7c.1,1.33.21,2.63.32,3.9Zm-1.66-26a15.18,15.18,0,0,0-2.52-.4c-.75-.05-1.46-.08-2.1-.08a8.48,8.48,0,0,0-6.81,2.83c-1.62,1.88-2.43,4.5-2.43,7.84a7.81,7.81,0,0,0,1.45,5.1,5.09,5.09,0,0,0,4.14,1.75,7.31,7.31,0,0,0,3.2-.72,7.8,7.8,0,0,0,2.63-2,9.85,9.85,0,0,0,1.79-3.1,11.85,11.85,0,0,0,.65-4Z"/>
      <g>
        <path d="M405.81,198.83a5.29,5.29,0,0,1-1.85,2.63,5.57,5.57,0,0,1-3.17.78,5.18,5.18,0,0,1-3.21-.85,5.94,5.94,0,0,1-1.82-2.83l-5.93-18.1-6.21,18.45a4.48,4.48,0,0,1-1.78,2.55,6.13,6.13,0,0,1-3.32.78,9.75,9.75,0,0,1-1.46-.1,3.55,3.55,0,0,1-2.51-1.53,7.09,7.09,0,0,1-1-2l-9.77-27.1h9.42l4,12.39c.14.45.29,1,.45,1.6s.34,1.21.52,1.8.4,1.41.63,2.18a13.56,13.56,0,0,1,.42-1.7c.14-.5.29-1,.46-1.6l.45-1.6,3.91-13.07h11.3l4.19,13.68a13.25,13.25,0,0,0,.38,1.33c.17.48.32.94.46,1.4a9.94,9.94,0,0,1,.42,1.56c.14-.45.28-.93.42-1.43.23-.91.48-1.77.76-2.59l4.12-14h9.77Z"/>
        <path d="M449,180a7.89,7.89,0,0,1-1.24,4.33,10.25,10.25,0,0,1-3.5,3.31,19.18,19.18,0,0,1-5.44,2.13,30.31,30.31,0,0,1-7.11.77c-.24,0-.52,0-.84,0s-.69,0-1.13,0a6.41,6.41,0,0,0,2.09,4.15,6.65,6.65,0,0,0,4.52,1.5A20.59,20.59,0,0,0,446.64,193v7.33a20.2,20.2,0,0,1-5.06,2.2,21.27,21.27,0,0,1-5.48.66,18,18,0,0,1-6.31-1.05,12.74,12.74,0,0,1-4.79-3,13.64,13.64,0,0,1-3-4.75,17.63,17.63,0,0,1-1-6.24,19.31,19.31,0,0,1,1.22-7,16.3,16.3,0,0,1,3.42-5.48,15.11,15.11,0,0,1,5.27-3.56,17.82,17.82,0,0,1,6.77-1.25,12.79,12.79,0,0,1,8.27,2.51A8.19,8.19,0,0,1,449,180Zm-9.28.7a2.43,2.43,0,0,0-1-1.92,3.63,3.63,0,0,0-2.41-.8,5.48,5.48,0,0,0-4,1.64,7.75,7.75,0,0,0-2.14,4.5,6.16,6.16,0,0,0,1.11.14h1Q439.73,184.24,439.73,180.68Z"/>
      </g>
      <g>
        <path d="M1172.42,275.16V260.4q0-4-1.15-5.54a3.65,3.65,0,0,0-3.1-1.55,4.7,4.7,0,0,0-2,.48,5.31,5.31,0,0,0-1.85,1.58,8.55,8.55,0,0,0-1.35,3,18.37,18.37,0,0,0-.5,4.64v12.18h-9V260.4a10.6,10.6,0,0,0-1.05-5.38,3.77,3.77,0,0,0-3.49-1.71,4.91,4.91,0,0,0-4,2.29q-1.69,2.28-1.69,7.38v12.18h-9V256.41c0-1.09,0-2.09-.06-3s-.13-1.74-.24-2.53a17.52,17.52,0,0,0-.48-2.31c-.2-.74-.44-1.53-.71-2.36h9l.5,1.58a14.07,14.07,0,0,1,.38,1.51,20.87,20.87,0,0,1,4.69-2.89,15.37,15.37,0,0,1,6.2-1.12,10.52,10.52,0,0,1,4.63,1,6.78,6.78,0,0,1,3.06,2.74,10,10,0,0,1,4.55-2.78,18.82,18.82,0,0,1,5.83-.95q4.76,0,7.34,2.71t2.57,7.84v19.31Z"/>
        <path d="M1218.08,253.51a7.73,7.73,0,0,1-1.2,4.21,10.08,10.08,0,0,1-3.41,3.22,18.89,18.89,0,0,1-5.28,2.07,29.35,29.35,0,0,1-6.92.75c-.23,0-.51,0-.81,0s-.68,0-1.1,0a6.22,6.22,0,0,0,2,4,6.46,6.46,0,0,0,4.39,1.46,20.1,20.1,0,0,0,10-3.06v7.13a19.93,19.93,0,0,1-4.92,2.13,20.59,20.59,0,0,1-5.33.65,17.54,17.54,0,0,1-6.14-1,12.55,12.55,0,0,1-4.65-2.95,13.17,13.17,0,0,1-2.91-4.61,17,17,0,0,1-1-6.08,18.72,18.72,0,0,1,1.19-6.82,15.77,15.77,0,0,1,3.32-5.32,14.59,14.59,0,0,1,5.12-3.46,17.13,17.13,0,0,1,6.58-1.22,12.38,12.38,0,0,1,8,2.44A7.93,7.93,0,0,1,1218.08,253.51Zm-9,.68a2.36,2.36,0,0,0-.93-1.86,3.53,3.53,0,0,0-2.35-.78,5.36,5.36,0,0,0-3.86,1.59,7.54,7.54,0,0,0-2.09,4.38,5.73,5.73,0,0,0,1.08.13h1Q1209.06,257.65,1209.06,254.19Z"/>
      </g>
      <g>
        <path d="M1001.29,150.91a3.76,3.76,0,0,1-1.56,3,6.31,6.31,0,0,1-7.58,0,4.07,4.07,0,0,1-1.63-3.12,3.68,3.68,0,0,1,1.5-3.13,6.51,6.51,0,0,1,6-.92,5.5,5.5,0,0,1,1.7.95,5,5,0,0,1,1.16,1.45A3.68,3.68,0,0,1,1001.29,150.91Zm-10.23,38.26v-30h9.07v30Z"/>
        <path d="M1029.81,189.17v-17a6.85,6.85,0,0,0-.45-2.77,3.92,3.92,0,0,0-1.06-1.48,2.75,2.75,0,0,0-1.29-.59,9.39,9.39,0,0,0-1.16-.1,6.67,6.67,0,0,0-1.43.27,4.78,4.78,0,0,0-2.08,1.25,8.41,8.41,0,0,0-1.88,2.89,13.34,13.34,0,0,0-.82,5.13v12.43h-9.07V169.33a34.38,34.38,0,0,0-.41-5.18,17,17,0,0,0-1.09-4.18h9.07a13.08,13.08,0,0,1,.58,1.57c.11.41.24,1,.38,1.78a14.09,14.09,0,0,1,4.67-3.14,13.6,13.6,0,0,1,5.08-1,9.93,9.93,0,0,1,4,.8,9.35,9.35,0,0,1,3.17,2.23,10,10,0,0,1,2.11,3.52,13.51,13.51,0,0,1,.77,4.68v18.79Z"/>
      </g>
      <g>
        <path d="M710.17,695a4,4,0,0,1-1.7,3.29,6.83,6.83,0,0,1-8.19,0,4.44,4.44,0,0,1-1.77-3.38,4,4,0,0,1,1.62-3.38,7.08,7.08,0,0,1,6.46-1,5.74,5.74,0,0,1,1.85,1,5.28,5.28,0,0,1,1.25,1.56A4,4,0,0,1,710.17,695ZM699.1,736.4V703.92h9.82V736.4Z"/>
        <path d="M722.5,736.4V710.93H716v-7h6.5v-8.19h9.67v8.19h8.34v7h-8.34V736.4Z"/>
      </g>
      <g>
        <path d="M391.19,550a11.22,11.22,0,0,1-.55-1.49c-.11-.39-.23-1-.36-1.69a12.7,12.7,0,0,1-9.15,4,9.47,9.47,0,0,1-3.85-.79,9.76,9.76,0,0,1-3.12-2.18,9.46,9.46,0,0,1-2-3.35,12.48,12.48,0,0,1-.71-4.35c0-1.77,0-3.41.13-4.93s.15-3,.19-4.36,0-2.77,0-4.16-.15-2.86-.32-4.42H380c.13,1.41.21,2.78.23,4.09s0,2.62,0,3.91-.07,2.61-.13,3.94-.1,2.75-.1,4.25a7.06,7.06,0,0,0,.41,2.66A2.91,2.91,0,0,0,382.8,543a8.87,8.87,0,0,0,1.15.09,6.46,6.46,0,0,0,1.39-.25,4.38,4.38,0,0,0,2-1.19,7.84,7.84,0,0,0,1.73-2.75,13.19,13.19,0,0,0,.74-4.87V522.19h8.63v18.86a32.15,32.15,0,0,0,.39,4.92,16.17,16.17,0,0,0,1,4Z"/>
        <path d="M437.3,534.77a22.09,22.09,0,0,1-.9,6.49,15.74,15.74,0,0,1-2.56,5,11.49,11.49,0,0,1-3.94,3.27,12.09,12.09,0,0,1-8.44.71,10,10,0,0,1-2.9-1.68v21.45h-9.08V530.74a15.37,15.37,0,0,0-.1-1.66c-.06-.63-.15-1.3-.26-2s-.24-1.4-.39-2.11a14.33,14.33,0,0,0-.55-1.94H417a6.64,6.64,0,0,1,.48,1.27,15.11,15.11,0,0,1,.27,1.78,13.68,13.68,0,0,1,3.91-3,10.22,10.22,0,0,1,4.47-.91,11.33,11.33,0,0,1,4.57.9,10.16,10.16,0,0,1,3.54,2.56,11.69,11.69,0,0,1,2.28,4A15.65,15.65,0,0,1,437.3,534.77Zm-8.62,1.45a6.16,6.16,0,0,0-1.29-4.17,4.45,4.45,0,0,0-3.56-1.5,5.09,5.09,0,0,0-4.18,1.91,7.9,7.9,0,0,0-1.54,5.13v3.75a6.81,6.81,0,0,0,4.59,1.73,5.51,5.51,0,0,0,4.37-1.82A7.34,7.34,0,0,0,428.68,536.22Z"/>
      </g>
      <g>
        <path d="M1164.37,593.62a3.83,3.83,0,0,1-1.6,3.1,6.43,6.43,0,0,1-7.71,0,4.14,4.14,0,0,1-1.67-3.18,3.76,3.76,0,0,1,1.53-3.19,6.21,6.21,0,0,1,4-1.3,6.07,6.07,0,0,1,2,.36,5.44,5.44,0,0,1,1.74,1,5,5,0,0,1,1.18,1.47A3.87,3.87,0,0,1,1164.37,593.62Zm-10.42,39V602h9.24V632.6Z"/>
        <path d="M1193.42,632.6V615.24a7.07,7.07,0,0,0-.45-2.81,4.11,4.11,0,0,0-1.08-1.51,2.81,2.81,0,0,0-1.32-.6,8.12,8.12,0,0,0-1.18-.1,6.85,6.85,0,0,0-1.46.27,5,5,0,0,0-2.12,1.27,8.51,8.51,0,0,0-1.91,3,13.35,13.35,0,0,0-.84,5.22V632.6h-9.24V612.38a34.3,34.3,0,0,0-.42-5.27,17.49,17.49,0,0,0-1.11-4.26h9.24a12,12,0,0,1,.59,1.6c.12.42.25,1,.39,1.81a14.47,14.47,0,0,1,4.76-3.2,13.88,13.88,0,0,1,5.18-1,10.1,10.1,0,0,1,4,.81,9.5,9.5,0,0,1,3.23,2.27,10.52,10.52,0,0,1,2.15,3.58,13.79,13.79,0,0,1,.78,4.77V632.6Z"/>
      </g>
    </g>
    <rect class="cls-20" width="1600" height="900"/>
  </g>
</svg>
