<?xml version="1.0" encoding="utf-8"?>
<!-- Generator: Adobe Illustrator 25.3.1, SVG Export Plug-In . SVG Version: 6.00 Build 0)  -->
<svg version="1.1" id="Layer_1" xmlns="http://www.w3.org/2000/svg" xmlns:xlink="http://www.w3.org/1999/xlink" x="0px" y="0px"
	 viewBox="0 0 1600 900" style="enable-background:new 0 0 1600 900;" xml:space="preserve">
<style type="text/css">
	.st0{clip-path:url(#SVGID_2_);}
	.st1{opacity:0.3;}
	.st2{fill:#136491;}
	.st3{opacity:0.7;}
	.st4{fill:none;stroke:#A39FAA;stroke-miterlimit:10;}
	.st5{clip-path:url(#SVGID_4_);}
	.st6{fill:#F8EFCE;}
	.st7{opacity:0.32;}
	.st8{fill:#6EBBD5;}
	.st9{fill:#A2C60A;}
	.st10{fill:#4BB1A4;}
	.st11{fill:#005F9E;}
	.st12{fill:#F7A81D;}
	.st13{fill:#F6BF46;}
	.st14{fill:#F6D330;}
	.st15{fill:#F7903C;}
	.st16{fill:#FF5A00;}
	.st17{fill:#4ED8C7;}
	.st18{fill:#F7C50C;}
	.st19{fill:#E7007E;}
	.st20{fill:#94007E;}
	.st21{fill:#F46606;}
	.st22{opacity:0.4;}
	.st23{opacity:0.3;enable-background:new    ;}
	.st24{fill:#231E13;}
	.st25{fill:#FFFBF0;}
	.st26{fill:#FF4848;stroke:#490404;stroke-width:2;stroke-miterlimit:10;}
	.st27{fill:#3B2314;}
	.st28{fill:#5D3C2A;}
	.st29{opacity:0.3;fill:#895B46;stroke:#231F20;stroke-width:0.75;stroke-miterlimit:10;enable-background:new    ;}
	.st30{fill:#B73E7B;stroke:#561D1D;}
	.st31{fill:#E585B3;stroke:#FFE6E6;stroke-width:0.75;}
	.st32{fill:#E4609C;stroke:#561D1D;}
	.st33{fill:#F38FBB;stroke:#FFE6E6;stroke-width:0.75;}
	.st34{fill:#231F20;}
	.st35{fill:#3B2314;stroke:#210F00;stroke-width:0.5;stroke-miterlimit:10;}
	.st36{fill:#FFE743;stroke:#705B01;stroke-miterlimit:10;}
	.st37{opacity:0.24;fill:#3B2314;enable-background:new    ;}
	.st38{opacity:0.3;fill:#E0AA24;stroke:#EAC71C;stroke-width:0.25;stroke-miterlimit:10;enable-background:new    ;}
	.st39{fill:#754C28;}
	.st40{fill:#FFF19C;}
	.st41{fill:#FBF5B0;stroke:#832F0A;stroke-width:0.25;stroke-linecap:round;stroke-linejoin:round;}
	.st42{fill:#FEFDEB;stroke:#832F0A;stroke-width:0.25;stroke-linecap:round;stroke-linejoin:round;}
	.st43{fill:#F2EFDA;}
	.st44{fill:#381B0D;}
	.st45{fill:#FFFFFF;}
	.st46{fill:#4C4218;}
	.st47{fill:#00AAD4;stroke:#003875;stroke-width:0.5;stroke-miterlimit:10;}
	.st48{fill:#14DAEF;}
	.st49{fill:#895800;stroke:#473300;stroke-miterlimit:10;}
	.st50{fill:#FDBD2C;stroke:#47201F;stroke-miterlimit:10;}
	.st51{fill:#F79420;}
	.st52{fill:#221F1F;}
	.st53{fill:url(#SVGID_5_);}
	.st54{fill:#F93A3A;}
	.st55{fill:url(#SVGID_6_);}
	.st56{fill:#FFDA22;}
	.st57{fill:url(#SVGID_7_);}
	.st58{fill:url(#SVGID_8_);}
	.st59{fill:#BA2025;}
	.st60{fill:#FFC10D;}
	.st61{fill:url(#SVGID_9_);}
	.st62{fill:url(#SVGID_10_);}
	.st63{fill:url(#SVGID_11_);}
	.st64{fill:url(#SVGID_12_);}
	.st65{fill:url(#SVGID_13_);}
	.st66{fill:url(#SVGID_14_);}
	.st67{fill:url(#SVGID_15_);}
	.st68{fill:url(#SVGID_16_);}
	.st69{fill:url(#SVGID_17_);}
	.st70{fill:url(#SVGID_18_);}
	.st71{fill:url(#SVGID_19_);}
	.st72{fill:url(#SVGID_20_);}
	.st73{fill:url(#SVGID_21_);}
	.st74{fill:url(#SVGID_22_);}
	.st75{fill:#B71D29;}
	.st76{fill:url(#SVGID_23_);}
	.st77{fill:#221F1F;stroke:#EEE8D2;stroke-width:4;stroke-miterlimit:10;}
	.st78{fill:url(#SVGID_24_);}
	.st79{fill:url(#SVGID_25_);}
	.st80{fill:url(#SVGID_26_);}
	.st81{fill:#ECE5E3;stroke:#5F4D45;stroke-miterlimit:10;}
	.st82{fill:#0B1E34;}
	.st83{fill:#ECE5E3;}
	.st84{fill:#83381B;}
	.st85{fill:#550F0E;}
	.st86{fill:#440A0A;}
	.st87{fill:#E95F5E;}
	.st88{fill:#F27373;}
	.st89{fill:#F4C813;}
	.st90{fill:#FDBD2C;}
	.st91{fill:#F3BA19;}
</style>
<g>
	<g id="Layer_1_1_">
		<g>
			<g>
				<defs>
					<rect id="SVGID_1_" x="1650" width="1600" height="900"/>
				</defs>
				<clipPath id="SVGID_2_">
					<use xlink:href="#SVGID_1_"  style="overflow:visible;"/>
				</clipPath>
				<g class="st0">
					<g class="st1">
						<path class="st2" d="M1789,664.1l-59.3,60.6c0,0-212,1-210.3,0.1l106-60.3L1789,664.1z"/>
					</g>
					<g class="st3">
						<line class="st4" x1="1754.8" y1="590.8" x2="1470.1" y2="751.5"/>
						<line class="st4" x1="1864.4" y1="590.8" x2="1582.9" y2="868.3"/>
						<line class="st4" x1="1480.2" y1="723.6" x2="3353.9" y2="726.3"/>
						<line class="st4" x1="1441.5" y1="825.5" x2="3317.5" y2="825.5"/>
						<line class="st4" x1="1499.4" y1="615.8" x2="3381.2" y2="622.2"/>
						<line class="st4" x1="1510.2" y1="663.4" x2="3392" y2="669.9"/>
					</g>
				</g>
			</g>
		</g>
		<g>
			<g>
				<defs>
					<rect id="SVGID_3_" width="1600" height="900"/>
				</defs>
				<clipPath id="SVGID_4_">
					<use xlink:href="#SVGID_3_"  style="overflow:visible;"/>
				</clipPath>
				<g class="st5">
					<rect class="st6" width="1600" height="900"/>
					<g class="st7">
						<path class="st8" d="M615.7,878.3l-12.9,0.2v-3l11.1-0.1l2.9-5.2l2.6,1.5L615.7,878.3z M625.3,861.2l-2.6-1.5l5.9-10.5
							l2.6,1.5L625.3,861.2z M637,840.3l-2.6-1.5l5.9-10.5l2.6,1.5L637,840.3z M648.7,819.3l-2.6-1.5l5.9-10.5l2.6,1.5L648.7,819.3z
							 M660.5,798.4l-2.6-1.5l4.6-8.3l-0.4-0.7l2.6-1.5l1.3,2.2L660.5,798.4z M658.6,776.1l-2.6,1.5l-6.1-10.3l2.6-1.5L658.6,776.1z
							 M590.8,878.6l-12,0.2v-3l12-0.2V878.6z M646.3,755.5l-2.6,1.5l-6.1-10.3l2.6-1.5L646.3,755.5z M566.8,878.9l-12,0.2v-3
							l12-0.2V878.9z M634,734.9l-2.6,1.5l-6.1-10.3l2.6-1.5L634,734.9z M542.8,879.2l-12,0.2v-3l12-0.2V879.2z M621.8,714.2
							l-2.6,1.5l-6.1-10.3l2.6-1.5L621.8,714.2z M518.8,879.5l-6,0.1l-4-6.7l2.6-1.5l3.1,5.2h4.3V879.5z M604.1,703.3l-12,0.2v-3
							l12-0.2V703.3z M505.3,861.1l-2.6,1.5l-6.1-10.3l2.6-1.5L505.3,861.1z M580.1,703.6l-12,0.2v-3l12-0.2V703.6z M493,840.5
							l-2.5,1.5l-6.1-10.3l2.6-1.5L493,840.5z M556.1,703.9l-12,0.2v-3l12-0.2V703.9z M480.8,819.8l-2.6,1.5l-6.1-10.3l2.6-1.5
							L480.8,819.8z M532.1,704.2l-12,0.1v-3l12-0.1V704.2z M468.5,799.2l-2.5,1.5l-5.7-9.6l1.3-2.3l2.6,1.5l-0.4,0.8L468.5,799.2z
							 M470,779.9l-2.6-1.5l5.9-10.4l2.6,1.5L470,779.9z M481.8,759l-2.6-1.5L485,747l2.6,1.5L481.8,759z M493.5,738l-2.6-1.5
							l5.9-10.5l2.6,1.5L493.5,738z M505.2,717.1l-2.6-1.5l5.9-10.5l2.6,1.5L505.2,717.1z"/>
						<path class="st9" d="M814.4,174.8l-5.6,9.7l-2.6-1.5l4.7-8.2l-0.4-0.7l2.6-1.5L814.4,174.8z M802.8,194.9l-6,10.4l-2.6-1.5
							l6-10.4L802.8,194.9z M790.9,215.8l-6,10.4l-2.6-1.5l6-10.4L790.9,215.8z M779,236.6l-6,10.4l-2.6-1.5l6-10.4L779,236.6z
							 M767.1,257.4l-3.8,6.6h-12.9v-3h11.1l2.9-5.1L767.1,257.4z M807.1,162.2l-2.6,1.5l-6-10.4l2.6-1.5L807.1,162.2z M738.4,264.2
							h-12v-3h12V264.2z M795,141.5l-2.6,1.5l-6-10.4l2.6-1.5L795,141.5z M714.4,264.2h-12v-3h12V264.2z M782.9,120.8l-2.6,1.5
							l-6-10.4l2.6-1.5L782.9,120.8z M690.4,264.4h-12v-3h12V264.4z M770.8,100l-2.6,1.5l-6-10.4l2.6-1.5L770.8,100z M666.4,264.5
							h-6l-3.9-6.7l2.6-1.5l3,5.2h4.3L666.4,264.5z M753.2,88.9h-12v-3h12V88.9z M653.1,245.9l-2.6,1.5l-6-10.4l2.6-1.5L653.1,245.9
							z M729.2,89h-12v-3h12V89z M641,225.2l-2.6,1.5l-6-10.4l2.6-1.5L641,225.2z M705.2,89.2l-12,0.1v-3l12-0.1V89.2z M628.9,204.4
							l-2.6,1.5l-6-10.4l2.6-1.5L628.9,204.4z M681.2,89.2h-12v-3h12V89.2z M616.8,183.7l-2.6,1.5l-5.6-9.6l1.3-2.3l2.6,1.5
							l-0.4,0.8L616.8,183.7z M660.2,91.5l-6,10.4l-2.6-1.5l6-10.4L660.2,91.5z M648.3,112.3l-6,10.4l-2.6-1.5l6-10.4L648.3,112.3z
							 M636.4,133.2l-6,10.4l-2.6-1.5l6-10.4L636.4,133.2z M624.5,154l-6,10.4l-2.6-1.5l6-10.4L624.5,154z"/>
						<path class="st8" d="M818,876.4l-51,89.3l-102.9,0.4l-51.8-88.9l51.1-89.3l102.9-0.4L818,876.4z M765.2,962.7l49.3-86.3
							l-50-85.9l-99.4,0.4l-49.3,86.3l50,85.9L765.2,962.7z"/>
						<path class="st10" d="M462.5,615.7l-12.9,0.2v-3l11.1-0.1l2.9-5.2l2.6,1.5L462.5,615.7z M472.1,598.6l-2.6-1.5l5.9-10.5
							l2.6,1.5L472.1,598.6z M483.9,577.6l-2.6-1.5l5.9-10.5l2.6,1.5L483.9,577.6z M495.6,556.7l-2.6-1.5l5.9-10.5l2.6,1.5
							L495.6,556.7z M507.3,535.8l-2.6-1.5l4.6-8.3l-0.4-0.7l2.6-1.5l1.3,2.2L507.3,535.8z M505.4,513.5l-2.6,1.5l-6.1-10.3l2.6-1.5
							L505.4,513.5z M437.6,616l-12,0.2v-3l12-0.2V616z M493.2,492.9l-2.6,1.5l-6.1-10.3l2.6-1.5L493.2,492.9z M413.6,616.3l-12,0.2
							v-3l12-0.1V616.3z M480.9,472.2l-2.6,1.5l-6.1-10.3l2.6-1.5L480.9,472.2z M389.6,616.6l-12,0.2v-3l12-0.2V616.6z M468.6,451.6
							l-2.6,1.5l-6.1-10.3l2.6-1.5L468.6,451.6z M365.6,616.9l-6,0.1l-4-6.7l2.6-1.5l3.1,5.2h4.3V616.9z M451,440.7l-12,0.1v-3
							l12-0.1V440.7z M352.2,598.5l-2.6,1.5l-6.1-10.3l2.6-1.5L352.2,598.5z M427,441l-12,0.1v-3l12-0.1V441z M339.9,577.8l-2.6,1.5
							l-6.1-10.4l2.6-1.5L339.9,577.8z M403,441.2l-12,0.1v-3l12-0.1V441.2z M327.6,557.2l-2.6,1.5l-6.1-10.3l2.6-1.5L327.6,557.2z
							 M379,441.5l-12,0.1v-3l12-0.1V441.5z M315.4,536.5l-2.6,1.5l-5.7-9.6l1.3-2.3l2.6,1.5l-0.4,0.8L315.4,536.5z M316.9,517.2
							l-2.6-1.5l5.9-10.5l2.6,1.5L316.9,517.2z M328.7,496.3l-2.7-1.5l5.9-10.5l2.6,1.5L328.7,496.3z M340.4,475.4l-2.6-1.5
							l5.9-10.5l2.6,1.5L340.4,475.4z M352.1,454.5l-2.6-1.5l5.9-10.5l2.6,1.5L352.1,454.5z"/>
						<path class="st8" d="M664.9,613.8l-51.1,89.3L511,703.5l-51.8-88.9l51.1-89.3l102.9-0.4L664.9,613.8z M612.1,700.1l49.3-86.3
							l-50-85.9l-99.4,0.4l-49.4,86.3l50,85.9L612.1,700.1z"/>
						<path class="st11" d="M514.7,877.6l-51.1,89.3l-102.9,0.4L309,878.5l51.1-89.3l102.9-0.4L514.7,877.6z M461.9,963.9l49.4-86.3
							l-50.1-85.9l-99.4,0.4l-49.4,86.3l50,85.9L461.9,963.9z"/>
						<path class="st10" d="M969.9,789l-51.1,89.3L816,878.7l-51.8-88.9l51.1-89.3l102.9-0.4L969.9,789z M917.1,875.3l49.3-86.3
							l-50-85.9l-99.4,0.4l-49.3,86.3l50,85.9L917.1,875.3z"/>
						<path class="st12" d="M965.1,86.3L914,175.6L811.2,176l-51.8-88.8l51.1-89.3l102.9-0.4l0.4,0.8L965.1,86.3z M912.3,172.6
							l49.3-86.3l-50-85.9l-99.4,0.4l-49.4,86.3l50,85.9L912.3,172.6z"/>
						<path class="st9" d="M814.9,350.2l-51.1,89.3L661,439.9L609.2,351l51.1-89.3l102.9-0.4L814.9,350.2z M762.1,436.5l49.3-86.3
							l-50-85.9l-99.4,0.4L612.7,351l50,85.9L762.1,436.5z"/>
						<path class="st13" d="M916,350.3l-102.9,1.3l-52.5-88.4l50.4-89.7l102.9-1.3l52.5,88.4L916,350.3z M814.8,348.5l99.4-1.2
							l48.6-86.7L912,175.1l-99.4,1.2L764,263L814.8,348.5z"/>
						<path class="st14" d="M1117.8,173l-51.1,89.3l-102.9,0.4L912,173.8l51.1-89.3l102.8-0.4l0.4,0.8L1117.8,173z M1065,259.3
							l49.4-86.3l-50-85.9L965,87.5l-49.3,86.3l50,85.9L1065,259.3z"/>
						<path class="st15" d="M1067,86.7L964.1,88L911.6-0.5l50.3-89.7l102.9-1.3L1117.3-3L1067,86.7z M965.8,84.9l99.4-1.2L1113.8-3
							L1063-88.5l-99.4,1.2L915.1-0.5L965.8,84.9z"/>
						<path class="st16" d="M661.6,87l-5.4,9.5l-2.7-1.5l4.6-8l-0.4-0.7l2.6-1.4L661.6,87z M650.4,106.7l-5.8,10.2l-2.7-1.5
							l5.8-10.2L650.4,106.7z M638.7,127l-5.8,10.2l-2.7-1.5l5.8-10.2L638.7,127z M627.1,147.4l-5.8,10.2l-2.7-1.5l5.8-10.2
							L627.1,147.4z M615.5,167.7l-3.7,6.5l-13-0.2l-0.1-3l11.3,0.2l2.9-5L615.5,167.7z M654,74.4l-2.6,1.4L645,65.5l2.6-1.4
							L654,74.4z M586.6,173.7l-12.2-0.2l-0.1-3l12.2,0.2L586.6,173.7z M641.3,53.7l-2.6,1.4l-6.3-10.4l2.6-1.4L641.3,53.7z
							 M562.3,173.3l-12.2-0.2l-0.1-3l12.2,0.2L562.3,173.3z M628.6,32.9l-2.6,1.4L619.7,24l2.6-1.4L628.6,32.9z M538,172.9
							l-12.2-0.2l-0.1-3l12.2,0.2L538,172.9z M616,12.2l-2.6,1.4L607,3.2l2.6-1.4L616,12.2z M513.7,172.5l-6.1-0.1l-4.1-6.7l2.6-1.4
							l3.2,5.2l4.3,0.1L513.7,172.5z M597.9,0.9l-12.2-0.2l-0.1-3l12.2,0.2L597.9,0.9z M499.8,153.9l-2.6,1.4l-6.3-10.4l2.6-1.4
							L499.8,153.9z M573.6,0.4l-12.2-0.2l-0.1-3l12.2,0.2L573.6,0.4z M487.1,133.2l-2.6,1.4l-6.3-10.4l2.6-1.4L487.1,133.2z
							 M549.3,0l-12.2-0.2l-0.1-3L549.2-3L549.3,0z M474.4,112.4l-2.6,1.4l-6.3-10.4l2.6-1.4L474.4,112.4z M525-0.4l-12.2-0.2
							l-0.1-3l12.2,0.2L525-0.4z M461.7,91.7l-2.6,1.4l-5.9-9.6l1.3-2.2l2.7,1.5l-0.4,0.8L461.7,91.7z M503.7,1.5l-5.8,10.2
							l-2.7-1.5L501,0L503.7,1.5z M492.1,21.8L486.3,32l-2.7-1.5l5.8-10.2L492.1,21.8z M480.5,42.1l-5.8,10.2l-2.7-1.5l5.8-10.2
							L480.5,42.1z M468.8,62.5L463,72.7l-2.7-1.5l5.8-10.1L468.8,62.5z"/>
						
							<ellipse transform="matrix(0.1602 -0.9871 0.9871 0.1602 83.2332 801.4288)" class="st10" cx="512.6" cy="351.8" rx="11.1" ry="11.1"/>
						<polygon class="st12" points="904.3,156.7 823.4,157 782.7,87.2 822.8,17 903.7,16.6 944.4,86.5 						"/>
						<polygon class="st12" points="1055.2,242.4 974.3,242.8 933.6,172.9 973.8,102.7 1054.6,102.4 1095.3,172.3 						"/>
						<polygon class="st15" points="1056,68.5 975.1,68.9 934.4,-1 974.5,-71.2 1055.4,-71.5 1096.1,-1.6 						"/>
						<polygon class="st8" points="757.3,946.4 676.4,946.7 635.7,876.8 675.9,806.7 756.7,806.3 797.4,876.2 						"/>
						<polygon class="st10" points="452.1,596.7 371.2,597 330.5,527.2 370.6,457 451.5,456.7 492.2,526.5 						"/>
						<polygon class="st10" points="907.7,860.4 826.9,860.8 786.2,790.9 826.3,720.7 907.2,720.4 947.9,790.2 						"/>
						<circle class="st9" cx="966.5" cy="262.2" r="11.1"/>
						<circle class="st9" cx="763.7" cy="262.9" r="11.1"/>
						<circle class="st10" cx="661.7" cy="438.7" r="11.1"/>
						<circle class="st10" cx="510.1" cy="526" r="11.1"/>
						<circle class="st10" cx="460.9" cy="614.6" r="11.1"/>
						
							<ellipse transform="matrix(0.9239 -0.3827 0.3827 0.9239 -229.6854 249.2941)" class="st8" cx="511.8" cy="702" rx="11.1" ry="11.1"/>
						<circle class="st8" cx="463.3" cy="790.3" r="11.1"/>
						<circle class="st8" cx="612.6" cy="701.7" r="11.1"/>
						<circle class="st8" cx="664.8" cy="789.5" r="11.1"/>
						
							<ellipse transform="matrix(0.9239 -0.3827 0.3827 0.9239 -296.8392 263.0894)" class="st11" cx="512.9" cy="877.7" rx="11.1" ry="11.1"/>
						<circle class="st17" cx="763.5" cy="437.9" r="11.1"/>
						<circle class="st9" cx="661.3" cy="263" r="11.1"/>
						<circle class="st18" cx="761.2" cy="87.1" r="11.1"/>
						<circle class="st12" cx="914.6" cy="174.6" r="11.1"/>
						<circle class="st9" cx="914.4" cy="349.2" r="11.1"/>
						<circle class="st15" cx="964.1" cy="86.4" r="11.1"/>
						<circle class="st15" cx="1066.8" cy="86.9" r="11.1"/>
						<circle class="st18" cx="812" cy="174.5" r="11.1"/>
						<circle class="st14" cx="1065.7" cy="261" r="11.1"/>
						<circle class="st10" cx="461.1" cy="440" r="11.1"/>
						<path class="st9" d="M359.3,266l-51.1,89.3l-102.9,0.4l-51.8-88.8l51.1-89.3l102.9-0.4l0.4,0.7L359.3,266z M306.5,352.3
							l49.4-86.3l-50-85.9l-99.4,0.4l-49.4,86.3l50.1,85.9L306.5,352.3z"/>
						<circle class="st9" cx="307.4" cy="353.8" r="11.1"/>
						<circle class="st17" cx="663.3" cy="613.6" r="11.1"/>
						<circle class="st17" cx="764.8" cy="613.7" r="11.1"/>
						<circle class="st17" cx="612.8" cy="526.7" r="11.1"/>
						<polygon class="st9" points="1213.8,155.8 1132.9,156.1 1092.2,86.3 1132.3,16.1 1213.2,15.8 1253.9,85.6 						"/>
						<path class="st16" d="M1374.2,612.3l-102.9,1.3l-52.5-88.4l50.3-89.7l102.9-1.3l52.5,88.4L1374.2,612.3z M1273.1,610.5
							l99.4-1.2l48.6-86.7l-50.8-85.5l-99.4,1.2l-48.6,86.7L1273.1,610.5z"/>
						<path class="st19" d="M1221.1,349.7l-102.8,1.3l-52.5-88.4l50.3-89.7l102.8-1.3l52.6,88.5L1221.1,349.7z M1119.9,347.9
							l99.4-1.2l48.6-86.7l-50.8-85.5l-99.4,1.2l-48.6,86.7L1119.9,347.9z"/>
						<path class="st19" d="M1423.5,347.8l-51.1,89.3l-102.9,0.4l-0.4-0.8l-51.3-88.1l51.1-89.3l102.9-0.4l0.4,0.8L1423.5,347.8z
							 M1370.6,434.1l49.4-86.3l-50-85.9l-99.4,0.4l-49.4,86.3l50,85.9L1370.6,434.1z"/>
						<path class="st19" d="M1525.3,523.7l-12.9,0.2v-3l11.1-0.1l2.9-5.2l2.6,1.5L1525.3,523.7z M1534.9,506.5l-2.6-1.5l5.9-10.5
							l2.6,1.5L1534.9,506.5z M1546.6,485.6l-2.6-1.5l5.9-10.5l2.6,1.5L1546.6,485.6z M1558.4,464.7l-2.6-1.5l5.9-10.5l2.6,1.5
							L1558.4,464.7z M1570.1,443.7l-2.6-1.5l4.6-8.3l-0.4-0.7l2.6-1.5l1.3,2.2L1570.1,443.7z M1568.2,421.5l-2.6,1.5l-6.1-10.3
							l2.6-1.5L1568.2,421.5z M1500.4,524l-12,0.2v-3l12-0.2V524z M1555.9,400.9l-2.6,1.5l-6.1-10.3l2.6-1.5L1555.9,400.9z
							 M1476.4,524.3l-12,0.2v-3l12-0.2V524.3z M1543.7,380.2l-2.6,1.5l-6.1-10.3l2.6-1.5L1543.7,380.2z M1452.4,524.6l-12,0.2v-3
							l12-0.2V524.6z M1531.4,359.6l-2.6,1.5l-6.1-10.3l2.6-1.5L1531.4,359.6z M1428.4,524.9l-6,0.1l-4-6.7l2.6-1.5l3.1,5.2h4.3
							V524.9z M1513.7,348.6l-12,0.1v-3l12-0.1V348.6z M1414.9,506.4l-2.6,1.5l-6.1-10.3l2.6-1.5L1414.9,506.4z M1489.7,348.9
							l-12,0.1v-3l12-0.1V348.9z M1402.7,485.8l-2.6,1.5L1394,477l2.6-1.5L1402.7,485.8z M1465.7,349.2l-12,0.1v-3l12-0.1V349.2z
							 M1390.4,465.2l-2.6,1.5l-6.1-10.3l2.6-1.5L1390.4,465.2z M1441.7,349.5l-12,0.1v-3l12-0.1V349.5z M1378.2,444.5l-2.6,1.5
							l-5.7-9.6l1.3-2.3l2.6,1.5l-0.4,0.8L1378.2,444.5z M1379.7,425.2l-2.6-1.5l5.9-10.5l2.6,1.5L1379.7,425.2z M1391.4,404.3
							l-2.6-1.5l5.9-10.5l2.6,1.5L1391.4,404.3z M1403.1,383.3l-2.6-1.5l5.9-10.5l2.6,1.5L1403.1,383.3z M1414.9,362.4l-2.6-1.5
							l5.9-10.5l2.6,1.5L1414.9,362.4z"/>
						<path class="st20" d="M1525.2,348.1l-102.9,1.3l-52.5-88.4l50.3-89.7L1523,170l52.5,88.4L1525.2,348.1z M1424,346.4l99.4-1.2
							l48.6-86.7l-50.7-85.5l-99.4,1.2l-48.6,86.7L1424,346.4z"/>
						<polygon class="st19" points="1361.8,418.4 1281,418.7 1240.3,348.8 1280.4,278.6 1361.3,278.3 1402,348.2 						"/>
						<circle class="st16" cx="1371.1" cy="435.6" r="11.1"/>
						<circle class="st19" cx="1219.9" cy="349.1" r="11.1"/>
						<circle class="st20" cx="1269.8" cy="260.6" r="11.1"/>
						<circle class="st19" cx="1118.9" cy="349.3" r="11.1"/>
						<circle class="st19" cx="1421.8" cy="347.1" r="11.1"/>
						<circle class="st19" cx="1523.1" cy="347.2" r="11.1"/>
						<circle class="st20" cx="1371.5" cy="261" r="11.1"/>
						<polygon class="st20" points="1268.2,83.9 1265.8,88.2 1268.4,89.7 1270,86.9 1369.4,86.5 1419.4,172.4 1370.1,258.7 
							1270.7,259.1 1224.8,180.4 1219.6,177.4 1268.5,261.3 1268.9,262.1 1371.8,261.7 1422.9,172.4 1371.5,84.3 1371.1,83.5 						
							"/>
						<polygon class="st20" points="304.9,179.1 307.5,183.3 357.5,263 308.5,178.8 354.2,90.8 453.5,86.5 506.9,170.3 461.1,258.5 
							357.5,263 307.5,183.3 355.9,266 462,261.4 462.9,261.4 510.4,170.1 455.1,83.4 353.2,87.9 352.4,87.9 						"/>
						<polygon class="st8" points="1362.2,243.1 1281.3,243.4 1240.6,173.6 1280.8,103.4 1361.6,103.1 1402.3,172.9 						"/>
						<path class="st11" d="M208.6,529.7l-5.6,9.7l-2.6-1.5l4.7-8.2l-0.4-0.7l2.6-1.5L208.6,529.7z M197,549.8l-6,10.4l-2.6-1.5
							l6-10.4L197,549.8z M185.1,570.7l-6,10.4l-2.6-1.5l6-10.4L185.1,570.7z M173.2,591.5l-6,10.4l-2.6-1.5l6-10.4L173.2,591.5z
							 M161.2,612.3l-3.8,6.7h-12.9v-3h11.1l2.9-5.1L161.2,612.3z M201.2,517.1l-2.6,1.5l-6-10.4l2.6-1.5L201.2,517.1z M132.6,619
							h-12v-3h12V619z M189.2,496.4l-2.6,1.5l-6-10.4l2.6-1.5L189.2,496.4z M108.6,619.2h-12v-3h12V619.2z M177.1,475.7l-2.6,1.5
							l-6-10.4l2.6-1.5L177.1,475.7z M84.6,619.2h-12v-3h12V619.2z M165,454.9l-2.6,1.5l-6-10.4l2.6-1.5L165,454.9z M60.6,619.3h-6
							l-3.9-6.7l2.6-1.5l3,5.2h4.3L60.6,619.3z M147.4,443.8h-12v-3h12V443.8z M47.3,600.8l-2.6,1.5l-6-10.4l2.6-1.5L47.3,600.8z
							 M123.4,443.9h-12v-3h12V443.9z M35.2,580.1l-2.6,1.5l-6-10.4l2.6-1.5L35.2,580.1z M99.4,444h-12v-3h12V444z M23.1,559.3
							l-2.6,1.5l-6-10.4l2.5-1.5L23.1,559.3z M75.4,444.1h-12v-3h12V444.1z M11,538.6l-2.6,1.5l-5.6-9.6l1.3-2.3l2.6,1.5l-0.4,0.8
							L11,538.6z M54.4,446.4l-6,10.4l-2.6-1.5l6-10.4L54.4,446.4z M42.5,467.2l-6,10.4l-2.6-1.5l6-10.4L42.5,467.2z M30.6,488
							l-6,10.4L22,497l6-10.4L30.6,488z M18.7,508.9l-6,10.4l-2.6-1.5l6-10.4L18.7,508.9z"/>
						<path class="st8" d="M156.9,443.3l-12.9,0.2v-3l11.1-0.1l2.9-5.2l2.6,1.5L156.9,443.3z M166.6,426.1l-2.6-1.5l5.9-10.5
							l2.6,1.5L166.6,426.1z M178.3,405.2l-2.6-1.5l5.9-10.5l2.6,1.5L178.3,405.2z M190,384.3l-2.6-1.5l5.9-10.5l2.6,1.5L190,384.3z
							 M201.7,363.4l-2.6-1.5l4.6-8.3l-0.4-0.7l2.6-1.5l1.3,2.2L201.7,363.4z M199.8,341.1l-2.6,1.5l-6.1-10.3l2.6-1.5L199.8,341.1z
							 M132,443.6l-12,0.1v-3l12-0.1V443.6z M187.6,320.5L185,322l-6.1-10.3l2.6-1.5L187.6,320.5z M108.1,443.9l-12,0.1v-3l12-0.1
							V443.9z M175.3,299.8l-2.6,1.5l-6.1-10.4l2.6-1.5L175.3,299.8z M84.1,444.2l-12,0.1v-3l12-0.1V444.2z M163.1,279.2l-2.6,1.5
							l-6.1-10.3l2.6-1.5L163.1,279.2z M60.1,444.5l-6,0.1l-4-6.6l2.6-1.5l3.1,5.2H60L60.1,444.5z M145.4,268.2l-12,0.1v-3l12-0.1
							V268.2z M46.6,426l-2.6,1.5l-6.1-10.3l2.6-1.5L46.6,426z M121.4,268.5l-12,0.1v-3l12-0.1V268.5z M34.3,405.4l-2.6,1.6
							l-6.1-10.3l2.6-1.5L34.3,405.4z M97.4,268.8l-12,0.1v-3l12-0.1V268.8z M22.1,384.8l-2.6,1.5L13.4,376l2.6-1.5L22.1,384.8z
							 M73.4,269.1l-12,0.1v-3l12-0.1V269.1z M9.8,364.1l-2.6,1.5L1.5,356l1.3-2.3l2.6,1.5L5,356.1L9.8,364.1z M11.3,344.8l-2.6-1.5
							l5.9-10.5l2.6,1.5L11.3,344.8z M23.1,323.9l-2.6-1.5l5.9-10.4l2.6,1.5L23.1,323.9z M34.8,303l-2.6-1.5l5.9-10.5l2.6,1.5
							L34.8,303z M46.6,282.1l-2.6-1.5l5.9-10.5l2.6,1.5L46.6,282.1z"/>
						<path class="st8" d="M359.3,441.4l-51.1,89.3l-102.9,0.4l-51.8-88.9l51.1-89.3l102.9-0.4L359.3,441.4z M306.5,527.7l49.4-86.3
							l-50-85.9l-99.4,0.4l-49.4,86.3l50.1,85.9L306.5,527.7z"/>
						<polygon class="st8" points="298.6,511.3 217.7,511.6 177,441.8 217.2,371.6 298,371.3 338.7,441.1 						"/>
						<circle class="st8" cx="206" cy="354.4" r="11.1"/>
						<ellipse class="st11" cx="54.2" cy="442.7" rx="11.1" ry="11.1"/>
						<circle class="st8" cx="207.2" cy="530.1" r="11.1"/>
						<polygon class="st16" points="150.1,597.6 69.3,598 28.6,528.1 68.7,457.9 149.6,457.6 190.3,527.5 						"/>
						<polygon class="st9" points="294,331 213.1,331.3 172.4,261.5 212.6,191.3 293.4,191 334.1,260.8 						"/>
						<polygon class="st21" points="1516.3,683.1 1435.5,683.4 1394.8,613.5 1434.9,543.4 1515.8,543 1556.5,612.9 						"/>
						<polygon class="st21" points="453.8,945.7 373,946.1 332.3,876.2 372.4,806 453.2,805.7 494,875.6 						"/>
						<polygon class="st12" points="1215.5,685.7 1131.2,686 1088.7,613.2 1130.6,540 1214.9,539.7 1257.3,612.5 						"/>
					</g>
					<g class="st22">
						<path d="M695.3,195.7c0-0.5,0-0.9-0.1-1.4c0-0.4-0.1-0.9-0.1-1.5s-0.1-1.2-0.1-1.9c-1.3,1.8-3.1,3.2-5.2,4.1
							c-2.1,0.9-4.4,1.4-6.8,1.4c-4.3,0-7.7-1.4-10.1-4.3s-3.6-6.9-3.6-12.2c0-6.4,1.9-11.3,5.8-14.8s9.4-5.2,16.6-5.2
							c1.2,0,2.2,0,3.2,0.1s1.9,0.1,2.9,0.3s2,0.3,3,0.5s2.2,0.5,3.4,0.9v22.6c0,1.2,0,2.5,0.1,3.8s0.1,2.6,0.2,3.7
							c0.1,1.3,0.2,2.6,0.3,3.9L695.3,195.7L695.3,195.7z M693.7,169.9c-0.8-0.2-1.7-0.3-2.5-0.4c-0.8-0.1-1.5-0.1-2.1-0.1
							c-2.6-0.1-5.1,0.9-6.8,2.8c-1.6,1.9-2.4,4.5-2.4,7.8c-0.1,1.8,0.4,3.6,1.5,5.1c1,1.2,2.6,1.8,4.1,1.7c1.1,0,2.2-0.2,3.2-0.7
							s1.9-1.2,2.6-2c0.8-0.9,1.4-2,1.8-3.1c0.4-1.3,0.7-2.6,0.7-4L693.7,169.9z"/>
						<path d="M738.4,195.7v-19.8c0-1.1-0.1-2.2-0.5-3.2c-0.3-0.7-0.7-1.3-1.2-1.7c-0.4-0.4-1-0.6-1.5-0.7c-0.4-0.1-0.9-0.1-1.3-0.1
							c-0.6,0-1.1,0.1-1.7,0.3c-0.9,0.3-1.7,0.8-2.4,1.4c-0.9,1-1.7,2.1-2.2,3.4c-0.7,1.9-1.1,4-1,6v14.4H716v-23.1c0-2-0.2-4-0.5-6
							c-0.2-1.7-0.6-3.3-1.3-4.9h10.5c0.3,0.6,0.5,1.2,0.7,1.8c0.1,0.5,0.3,1.2,0.4,2.1c1.5-1.6,3.4-2.8,5.4-3.6
							c1.9-0.8,3.9-1.2,5.9-1.2c1.6,0,3.2,0.3,4.6,0.9c1.4,0.6,2.7,1.5,3.7,2.6c1.1,1.2,1.9,2.6,2.4,4.1c0.6,1.7,0.9,3.6,0.9,5.4
							v21.8L738.4,195.7z"/>
						<path d="M250.6,283c0.1,3.1-0.3,6.2-1.1,9.2c-0.6,2.2-1.7,4.2-3.1,5.9c-1.3,1.4-2.9,2.5-4.7,3.2c-1.9,0.7-3.9,1-5.9,1
							s-4-0.1-6-0.4c-2-0.2-3.9-0.7-5.7-1.5v-6.9c1.7,0.6,3.4,1.1,5.2,1.5c1.4,0.3,2.9,0.5,4.4,0.5c1.1,0,2.2-0.2,3.2-0.7
							s1.9-1.2,2.5-2.2c0.8-1.2,1.3-2.5,1.6-3.9c0.4-1.9,0.6-3.9,0.6-5.9v-3c-1.1,1-2.4,1.8-3.9,2.3c-1.4,0.4-2.8,0.5-4.2,0.5
							c-1.8,0-3.6-0.3-5.3-1c-1.5-0.6-2.9-1.6-4-2.8c-1.1-1.3-2-2.8-2.6-4.4c-1.4-4.2-1.2-8.7,0.5-12.8c0.9-2.1,2.3-3.9,4-5.4
							c1.8-1.6,4-2.7,6.3-3.4c2.7-0.8,5.5-1.2,8.4-1.2c1,0,1.8,0,2.5,0s1.4,0.1,2.1,0.2c0.7,0.1,1.5,0.2,2.3,0.4s1.7,0.4,2.8,0.6
							L250.6,283z M241.6,260.4l-1.8-0.3c-0.4,0-0.9-0.1-1.6-0.1c-2.3-0.1-4.5,0.7-6.2,2.2c-1.6,1.6-2.4,3.8-2.3,6
							c-0.1,1.6,0.4,3.1,1.5,4.2c1,1,2.3,1.5,3.7,1.5c0.8,0,1.6-0.1,2.4-0.3c0.8-0.2,1.5-0.6,2.1-1.2c0.7-0.8,1.2-1.7,1.5-2.7
							c0.4-1.6,0.6-3.2,0.6-4.8v-4.5H241.6z"/>
						<path d="M289.9,267.1c0,2.2-0.3,4.4-1.1,6.4c-0.7,1.8-1.8,3.4-3.2,4.7c-1.4,1.3-3.1,2.3-4.9,2.9c-4.1,1.3-8.6,1.3-12.7,0
							c-1.8-0.6-3.5-1.6-4.9-2.9s-2.5-2.9-3.2-4.7c-0.8-2-1.2-4.2-1.1-6.4c0-2.1,0.3-4.2,1.1-6.2c0.7-1.8,1.8-3.3,3.1-4.6
							c1.4-1.3,3.1-2.3,4.9-2.9c4.2-1.3,8.6-1.3,12.8,0c1.8,0.6,3.5,1.6,4.9,2.8c1.4,1.3,2.5,2.9,3.2,4.6
							C289.5,262.8,289.9,264.9,289.9,267.1z M280.9,267.1c0.1-1.8-0.6-3.7-1.8-5c-1.3-1.2-3.1-1.9-4.9-1.8
							c-1.8-0.1-3.5,0.5-4.8,1.8c-1.2,1.4-1.8,3.2-1.7,5c-0.1,1.9,0.5,3.7,1.6,5.2c1.3,1.3,3,2,4.9,1.8c1.8,0.1,3.6-0.5,4.9-1.8
							C280.4,270.9,281,269,280.9,267.1L280.9,267.1z"/>
						<path d="M1300.1,544.6c0-0.3,0-0.7-0.1-1.1c-0.1-0.4-0.1-0.8-0.1-1.2c0-0.5-0.1-1-0.1-1.5c-1.1,1.5-2.6,2.6-4.3,3.4
							c-1.8,0.8-3.7,1.2-5.6,1.2c-3.2,0.2-6.3-1.1-8.4-3.5c-2-2.4-3-5.7-3-10.1c0-5.3,1.6-9.3,4.8-12.2c3.2-2.9,7.8-4.3,13.7-4.3
							c1,0,1.9,0,2.7,0.1s1.6,0.1,2.4,0.2s1.6,0.2,2.5,0.4s1.8,0.4,2.8,0.7v18.6c0,1,0,2.1,0.1,3.2s0.1,2.1,0.2,3
							c0.1,1.1,0.2,2.2,0.3,3.2h-7.9V544.6z M1298.7,523.3c-0.7-0.2-1.4-0.3-2.1-0.3c-0.6,0-1.2-0.1-1.7-0.1
							c-2.1-0.1-4.2,0.7-5.6,2.3c-1.4,1.8-2.1,4.1-2,6.4c-0.1,1.5,0.3,3,1.2,4.2c0.8,1,2.1,1.5,3.4,1.4c0.9,0,1.8-0.2,2.6-0.6
							c0.8-0.4,1.6-1,2.2-1.7c0.6-0.8,1.1-1.6,1.5-2.5c0.4-1.1,0.5-2.2,0.5-3.3V523.3z"/>
						<path d="M1354.4,544.6v-14.2c0-2.6-0.4-4.3-1.1-5.3s-1.8-1.5-3-1.5c-0.7,0-1.4,0.2-2,0.5c-0.7,0.4-1.3,0.9-1.8,1.5
							c-0.6,0.9-1.1,1.8-1.3,2.8c-0.4,1.5-0.5,3-0.5,4.5v11.7h-8.7v-14.2c0.1-1.8-0.2-3.6-1-5.2c-0.7-1.1-2-1.8-3.4-1.6
							c-1.6,0-3,0.9-3.9,2.2c-1.1,1.5-1.6,3.8-1.6,7.1v11.7h-8.7v-18.1c0-1.1,0-2-0.1-2.9s-0.1-1.7-0.2-2.4s-0.3-1.5-0.4-2.2
							c-0.2-0.7-0.4-1.5-0.7-2.3h8.7l0.5,1.5c0.1,0.5,0.3,1,0.4,1.5c1.4-1.1,2.9-2.1,4.5-2.8c1.9-0.8,3.9-1.1,6-1.1
							c1.5,0,3.1,0.3,4.5,0.9c1.2,0.6,2.3,1.5,3,2.7c1.2-1.3,2.7-2.2,4.4-2.7c1.8-0.6,3.7-0.9,5.6-0.9c2.6-0.2,5.2,0.8,7.1,2.6
							c1.7,1.7,2.5,4.3,2.5,7.6v18.6L1354.4,544.6L1354.4,544.6z"/>
						<path d="M252.3,460.9c0-0.4,0-0.8-0.1-1.4s-0.1-0.9-0.1-1.5s-0.1-1.2-0.1-1.8c-1.3,1.8-3.1,3.2-5.2,4.1
							c-2.1,0.9-4.5,1.4-6.8,1.4c-4.4,0-7.7-1.4-10.2-4.3c-2.4-2.9-3.6-7-3.6-12.3c0-6.4,2-11.4,5.9-14.9s9.5-5.2,16.7-5.2
							c1.2,0,2.3,0,3.2,0.1s1.9,0.1,2.9,0.3s2,0.3,3,0.5s2.1,0.5,3.4,0.9v22.6c0,1.2,0,2.5,0.1,3.9s0.1,2.6,0.2,3.7
							c0.1,1.3,0.2,2.6,0.3,3.9L252.3,460.9z M250.7,434.9c-0.8-0.2-1.7-0.3-2.5-0.4c-0.8,0-1.5-0.1-2.1-0.1
							c-2.6-0.1-5.1,0.9-6.8,2.8c-1.6,1.9-2.4,4.5-2.4,7.8c-0.1,1.8,0.4,3.6,1.4,5.1c1,1.2,2.6,1.8,4.1,1.8c1.1,0,2.2-0.2,3.2-0.7
							s1.9-1.2,2.6-2c0.8-0.9,1.4-2,1.8-3.1c0.4-1.3,0.7-2.6,0.6-4L250.7,434.9z"/>
						<path d="M405.8,198.8c-0.3,1-1,2-1.9,2.6c-1,0.6-2.1,0.8-3.2,0.8c-1.1,0.1-2.3-0.2-3.2-0.9c-0.9-0.7-1.5-1.7-1.8-2.8
							l-5.9-18.1l-6.2,18.4c-0.3,1-0.9,1.9-1.8,2.6c-1,0.6-2.2,0.8-3.3,0.8c-0.5,0-1,0-1.5-0.1c-1-0.1-1.9-0.7-2.5-1.5
							c-0.4-0.6-0.8-1.3-1-2l-9.8-27.1h9.4l4,12.4c0.1,0.4,0.3,1,0.5,1.6s0.3,1.2,0.5,1.8s0.4,1.4,0.6,2.2c0.1-0.6,0.2-1.1,0.4-1.7
							c0.1-0.5,0.3-1,0.5-1.6l0.5-1.6l3.9-13.1h11.3l4.2,13.7c0.1,0.4,0.2,0.9,0.4,1.3c0.2,0.5,0.3,0.9,0.5,1.4s0.3,1,0.4,1.6
							c0.1-0.4,0.3-0.9,0.4-1.4c0.2-0.9,0.5-1.8,0.8-2.6l4.1-14h9.8L405.8,198.8z"/>
						<path d="M449,180c0,1.5-0.4,3-1.2,4.3c-0.9,1.4-2.1,2.5-3.5,3.3c-1.7,1-3.5,1.7-5.4,2.1c-2.3,0.5-4.7,0.8-7.1,0.8
							c-0.2,0-0.5,0-0.8,0s-0.7,0-1.1,0c0.2,1.6,0.9,3.1,2.1,4.1c1.3,1,2.9,1.6,4.5,1.5c3.7-0.1,7.2-1.2,10.3-3.2v7.3
							c-1.6,1-3.3,1.7-5.1,2.2c-1.8,0.5-3.6,0.7-5.5,0.7c-2.1,0-4.3-0.3-6.3-1.1c-1.8-0.6-3.4-1.7-4.8-3c-1.3-1.4-2.3-3-3-4.8
							c-0.7-2-1-4.1-1-6.2c0-2.4,0.4-4.8,1.2-7c0.8-2,1.9-3.9,3.4-5.5c1.5-1.5,3.3-2.8,5.3-3.6c2.2-0.9,4.5-1.3,6.8-1.2
							c3-0.1,5.9,0.7,8.3,2.5C447.9,175,449.1,177.4,449,180z M439.7,180.7c0-0.8-0.4-1.5-1-1.9c-0.7-0.5-1.5-0.8-2.4-0.8
							c-1.5,0-2.9,0.6-4,1.6c-1.2,1.2-1.9,2.8-2.1,4.5c0.4,0.1,0.7,0.1,1.1,0.1h1C437.2,184.2,439.7,183.1,439.7,180.7L439.7,180.7z
							"/>
						<path d="M1172.4,275.2v-14.8c0-2.7-0.4-4.5-1.2-5.5c-0.7-1-1.9-1.6-3.1-1.6c-0.7,0-1.4,0.2-2,0.5c-0.7,0.4-1.4,0.9-1.8,1.6
							c-0.6,0.9-1.1,1.9-1.3,3c-0.4,1.5-0.5,3.1-0.5,4.6v12.2h-9v-14.8c0.1-1.9-0.2-3.7-1.1-5.4c-0.8-1.2-2.1-1.8-3.5-1.7
							c-1.6,0.1-3.1,0.9-4,2.3c-1.1,1.5-1.7,4-1.7,7.4v12.2h-9v-18.7c0-1.1,0-2.1-0.1-3s-0.1-1.7-0.2-2.5s-0.3-1.6-0.5-2.3
							s-0.4-1.5-0.7-2.4h9l0.5,1.6c0.2,0.5,0.3,1,0.4,1.5c1.4-1.2,3-2.1,4.7-2.9c2-0.8,4.1-1.2,6.2-1.1c1.6,0,3.2,0.3,4.6,1
							c1.3,0.6,2.3,1.5,3.1,2.7c1.2-1.3,2.8-2.3,4.6-2.8c1.9-0.6,3.8-0.9,5.8-0.9c3.2,0,5.6,0.9,7.3,2.7s2.6,4.4,2.6,7.8v19.3
							L1172.4,275.2z"/>
						<path d="M1218.1,253.5c0,1.5-0.4,3-1.2,4.2c-0.9,1.3-2,2.4-3.4,3.2c-1.6,1-3.4,1.6-5.3,2.1c-2.3,0.5-4.6,0.8-6.9,0.8
							c-0.2,0-0.5,0-0.8,0s-0.7,0-1.1,0c0.1,1.5,0.9,3,2,4c1.2,1,2.8,1.5,4.4,1.5c3.5-0.1,7-1.2,10-3.1v7.1
							c-1.5,0.9-3.2,1.6-4.9,2.1c-1.7,0.4-3.5,0.7-5.3,0.6c-2.1,0-4.2-0.3-6.1-1c-1.7-0.6-3.3-1.6-4.7-3c-1.3-1.3-2.3-2.9-2.9-4.6
							c-0.7-1.9-1-4-1-6.1c0-2.3,0.4-4.6,1.2-6.8c0.7-2,1.9-3.8,3.3-5.3s3.2-2.7,5.1-3.5c2.1-0.8,4.3-1.2,6.6-1.2
							c2.9-0.1,5.7,0.7,8,2.4C1217,248.6,1218.1,251,1218.1,253.5z M1209.1,254.2c0-0.7-0.3-1.4-0.9-1.9c-0.7-0.5-1.5-0.8-2.3-0.8
							c-1.4,0-2.8,0.6-3.9,1.6c-1.2,1.2-1.9,2.7-2.1,4.4c0.4,0.1,0.7,0.1,1.1,0.1h1C1206.7,257.6,1209.1,256.5,1209.1,254.2
							L1209.1,254.2z"/>
						<path d="M1001.3,150.9c0,1.2-0.6,2.3-1.6,3c-2.2,1.7-5.3,1.7-7.6,0c-1-0.7-1.6-1.9-1.6-3.1c-0.1-1.2,0.5-2.4,1.5-3.1
							c1.7-1.3,4-1.6,6-0.9c0.6,0.2,1.2,0.5,1.7,0.9s0.9,0.9,1.2,1.4C1001.2,149.7,1001.3,150.3,1001.3,150.9z M991.1,189.2v-30h9.1
							v30H991.1z"/>
						<path d="M1029.8,189.2v-17c0-0.9-0.1-1.9-0.4-2.8c-0.2-0.6-0.6-1.1-1.1-1.5c-0.4-0.3-0.8-0.5-1.3-0.6
							c-0.4-0.1-0.8-0.1-1.2-0.1c-0.5,0-1,0.1-1.4,0.3c-0.8,0.2-1.5,0.7-2.1,1.2c-0.8,0.8-1.5,1.8-1.9,2.9c-0.6,1.6-0.9,3.4-0.8,5.1
							v12.4h-9.1v-19.9c0-1.7-0.1-3.5-0.4-5.2c-0.2-1.4-0.6-2.8-1.1-4.2h9.1c0.2,0.5,0.4,1,0.6,1.6c0.1,0.4,0.2,1,0.4,1.8
							c1.3-1.4,2.9-2.4,4.7-3.1c1.6-0.7,3.3-1,5.1-1c1.4,0,2.7,0.3,4,0.8c1.2,0.5,2.3,1.3,3.2,2.2c0.9,1,1.7,2.2,2.1,3.5
							c0.5,1.5,0.8,3.1,0.8,4.7v18.8L1029.8,189.2z"/>
						<path d="M710.2,695c0,1.3-0.6,2.5-1.7,3.3c-2.4,1.8-5.8,1.8-8.2,0c-1.1-0.8-1.7-2-1.8-3.4c-0.1-1.3,0.6-2.6,1.6-3.4
							c1.9-1.4,4.3-1.7,6.5-1c0.7,0.2,1.3,0.6,1.8,1s0.9,1,1.2,1.6C710,693.7,710.2,694.3,710.2,695z M699.1,736.4v-32.5h9.8v32.5
							H699.1z"/>
						<path d="M722.5,736.4v-25.5H716v-7h6.5v-8.2h9.7v8.2h8.3v7h-8.3v25.5H722.5z"/>
						<path d="M391.2,550c-0.2-0.5-0.4-1-0.5-1.5c-0.1-0.4-0.2-1-0.4-1.7c-2.4,2.5-5.7,4-9.1,4c-1.3,0-2.6-0.3-3.9-0.8
							c-1.2-0.5-2.2-1.3-3.1-2.2c-0.9-1-1.6-2.1-2-3.3c-0.5-1.4-0.7-2.9-0.7-4.3c0-1.8,0-3.4,0.1-4.9s0.1-3,0.2-4.4s0-2.8,0-4.2
							s-0.1-2.9-0.3-4.4h8.5c0.1,1.4,0.2,2.8,0.2,4.1s0,2.6,0,3.9s-0.1,2.6-0.1,3.9s-0.1,2.8-0.1,4.2c0,0.9,0.1,1.8,0.4,2.7
							c0.4,1,1.3,1.7,2.4,1.9c0.4,0.1,0.8,0.1,1.1,0.1c0.5,0,0.9-0.1,1.4-0.2c0.8-0.2,1.5-0.6,2-1.2c0.8-0.8,1.4-1.7,1.7-2.8
							c0.6-1.6,0.8-3.2,0.7-4.9v-11.8h8.6V541c0,1.6,0.1,3.3,0.4,4.9c0.2,1.4,0.5,2.7,1,4L391.2,550z"/>
						<path d="M437.3,534.8c0,2.2-0.3,4.4-0.9,6.5c-0.5,1.8-1.4,3.5-2.6,5c-1.1,1.4-2.4,2.5-3.9,3.3c-2.6,1.2-5.6,1.5-8.4,0.7
							c-1.1-0.4-2-1-2.9-1.7V570h-9.1v-39.3c0-0.6,0-1.1-0.1-1.7c-0.1-0.6-0.1-1.3-0.3-2s-0.2-1.4-0.4-2.1c-0.1-0.7-0.3-1.3-0.5-1.9
							h8.8c0.2,0.4,0.4,0.8,0.5,1.3c0.1,0.6,0.2,1.2,0.3,1.8c1.1-1.2,2.4-2.2,3.9-3c1.4-0.6,2.9-0.9,4.5-0.9s3.1,0.3,4.6,0.9
							c1.4,0.6,2.6,1.5,3.5,2.6c1,1.2,1.8,2.5,2.3,4C437.1,531.3,437.3,533,437.3,534.8z M428.7,536.2c0.1-1.5-0.4-3-1.3-4.2
							c-0.9-1-2.2-1.6-3.6-1.5c-1.6-0.1-3.2,0.6-4.2,1.9c-1.1,1.5-1.6,3.3-1.5,5.1v3.8c1.3,1.1,2.9,1.7,4.6,1.7
							c1.7,0.1,3.3-0.6,4.4-1.8C428.2,539.8,428.8,538,428.7,536.2L428.7,536.2z"/>
						<path d="M1164.4,593.6c0,1.2-0.6,2.4-1.6,3.1c-2.3,1.7-5.4,1.7-7.7,0c-1-0.8-1.6-1.9-1.7-3.2s0.5-2.4,1.5-3.2
							c1.1-0.9,2.6-1.3,4-1.3c0.7,0,1.4,0.1,2,0.4c0.6,0.2,1.2,0.6,1.7,1s0.9,0.9,1.2,1.5C1164.2,592.4,1164.3,593,1164.4,593.6z
							 M1153.9,632.6V602h9.2v30.6H1153.9z"/>
						<path d="M1193.4,632.6v-17.4c0-1-0.1-1.9-0.4-2.8c-0.2-0.6-0.6-1.1-1.1-1.5c-0.4-0.3-0.8-0.5-1.3-0.6
							c-0.4-0.1-0.8-0.1-1.2-0.1c-0.5,0-1,0.1-1.5,0.3c-0.8,0.2-1.5,0.7-2.1,1.3c-0.8,0.9-1.5,1.9-1.9,3c-0.6,1.7-0.9,3.4-0.8,5.2
							v12.6h-9.2v-20.2c0-1.8-0.1-3.5-0.4-5.3c-0.2-1.5-0.6-2.9-1.1-4.3h9.2c0.2,0.5,0.4,1.1,0.6,1.6c0.1,0.4,0.2,1,0.4,1.8
							c1.4-1.4,3-2.5,4.8-3.2c1.6-0.7,3.4-1,5.2-1c1.4,0,2.7,0.3,4,0.8c1.2,0.5,2.3,1.3,3.2,2.3c0.9,1,1.7,2.3,2.2,3.6
							c0.5,1.5,0.8,3.1,0.8,4.8v19.1L1193.4,632.6L1193.4,632.6z"/>
					</g>
					<rect class="st23" width="1600" height="900"/>
					<path class="st24" d="M537.3,401.9c0,0-17.4-38.3-66.6-14.6c-36,17.3-18.2,64.3-1.3,72.4l-18.8,36.4c0,0,12.6,34.2,56,34.5
						c19.3,0.1,30.7-10.8,30.7-10.8l-0.9,4.9l9.1,3.2l19.3-1.5c0,0-3.5,43.6,43.8,47C652.3,576.5,657,530,657,530l29.4-3.9l6-4.2
						l2.2,3.1l36.3,5.5c0,0,1-7.1,3.1-11.8c4.6,7.8,13,12.8,22.1,13c15.6,0.5,38.5-12.5,44.5-58.8l-19.8-9l5.2-37.1l-13.5-0.7
						c0,0,3.1-18.7,8-26.7c0,0-28.9-3.2-54.9,2l-4,26.3l-7,1.8c0,0-2.5-4.9-12.5-6.5l-3.6-61.9c0,0-35.4,2.9-58.5,13.5
						c0,0,6.5,31.5,7,39.5l-28.6,8.3c-9.3-3.4-19.6-2.2-27.8,3.4c0,0,0.3-30.3-29-33.2C561.4,392.6,543.8,392.3,537.3,401.9z"/>
					<path class="st25" d="M535.5,392.9c0,0-26.6-34.9-66.6-14.6c-35.6,18-18.2,64.3-1.3,72.4L448.8,487c0,0,12.6,34.2,56,34.5
						c19.3,0.1,30.7-10.8,30.7-10.8v9.1l26.5-2c0,0-2.6,43.2,44.7,46.6c43.7,3.1,48.4-43.4,48.4-43.4l29.4-3.9l6-4.2l1.8,5.2
						l28.9,4.2c0,0,8.8-7.8,10.9-12.5c4.6,7.8,13,12.8,22.1,13c15.6,0.5,38.5-12.5,44.5-58.8l-19.8-9l5.2-37.1l-13.5-0.7
						c0,0,3.1-18.7,8-26.7c0,0-28.9-3.6-54.9,1.6l-4.1,26.7l-7,1.8c0,0-2.5-4.9-12.5-6.5l-3.6-61.9c0,0-35.4,2.9-58.5,13.5
						c0,0,6.5,31.5,7,39.5l-28.6,8.3c-9.3-3.4-19.6-2.2-27.8,3.4c0,0,0.3-30.3-29-33.2C559.6,383.6,541.9,383.3,535.5,392.9z"/>
					<path class="st24" d="M796.4,387.9c0,0,29.1,97.5,26,142.9h46.1l6.6-7.3l5.9,7.3l34.3-5.5c0,0,23.9,16.3,51.7-1l5.5,5.5
						l45.4-4.2V511l9.7-2.1c0,0,10.4,24.3,48.2,15.3l3.5,5.5l35.7-1.7l3.5-6.2c0,0,18,14.6,38.5,5.2s26.7-25.4,22.2-42.3
						c-2.5-9.5-6.2-13.4-6.2-13.4l13.5-7c0,0-7.3-35.9-35.9-43.2c-16.4-4.2-27.6,1-27.6,1s-0.3-47.2-2.7-58l-62.2,6.8l13.2,50.3
						c0,0-19.6-5.4-31.7,9.7c0,0-13.2-14.9-36.6-4l-1.3-5.7c0,0-17.8,1-38,2.9l1.6,3.7c0,0-10.6-11.3-34-3.1l9.7-41.1
						c0,0-21.2-5.4-54.1-11.8c-3-0.6-7.5,0.8-8.9,0.9l-6.9,29.8l-13-18.6C858.3,383.9,810.4,386.5,796.4,387.9z"/>
					<path class="st25" d="M794.2,378.9c0,0,29.1,97.4,26,142.9h46.1l6.6-7.3l5.9,7.3l34.3-5.5c0,0,23.9,16.3,51.7-1l5.5,5.5
						l45.4-4.2V502l9.7-2.1c0,0,10.4,24.3,48.2,15.3l3.5,5.5l35.7-1.7l3.5-6.2c0,0,18,14.6,38.5,5.2s26.7-25.4,22.2-42.3
						c-2.5-9.5-6.2-13.4-6.2-13.4l13.5-7c0,0-7.3-35.9-35.9-43.2c-16.4-4.2-27.6,1-27.6,1s1-51.9-1.5-62.7l-63.5,11.5l13.2,50.3
						c0,0-19.6-5.4-31.7,9.7c0,0-13.2-14.9-36.6-4l-2.3-10.2c-11.9,3.8-24.2,6.4-36.6,7.6l1.2,3.5c0,0-10.6-11.3-34-3.1l9.8-41.1
						c-20.7-5.3-41.7-8.9-63-10.9l-6.9,29.8l-14.2-26.8C854.9,366.7,804.8,378.8,794.2,378.9z"/>
					<path class="st26" d="M509.8,503c-16.4,0-30.9-6.5-41-21.3c5-8.1,10.5-15.9,16.4-23.4c7.5,14.6,25.5,21.4,31.6,14.6
						c4.9-5.4,0-14.1-15.7-21.3c-14.9-6.9-30.1-14.9-30.6-33c-0.3-10.5,5.9-26.8,26.6-28.3c20.8-1.5,35.8,10.8,43.5,27
						c-8.1,4.1-15.8,8.9-23.1,14.2c-2.5-7-8.7-12.3-14.4-12.3c-4.6,0-6.9,3.3-6.4,7c0.7,7,7.5,9.5,19.3,13.9
						c17.5,6.2,27.6,17.2,28,30.7C544.3,492.5,526.3,503,509.8,503z"/>
					<path class="st26" d="M563.8,423.6c-7.5,2.5-15.5,0-17.2-6.2c-1.6-5.7,1.3-11.6,7.8-14.4c7.5-3.4,16.2-1,18,5.6
						C573.9,414.3,571.9,420.9,563.8,423.6z M549.4,503.4c3.3-20.6,2-51-1-71.1c7.8-0.7,15.6-1.9,23.2-3.6
						c-1.3,18.3,0.2,54,2.5,71.5C574.1,500.2,562,501.5,549.4,503.4z"/>
					<path class="st26" d="M647.3,506.2c-4.7,20.9-19.6,39.9-41.4,37.6c-20.6-2.1-28.8-21.9-23.1-42.2c8,3.5,16.3,6.1,24.8,7.9
						c-1.3,5.2-0.8,12.4,3.9,13.6c6.5,1.5,15.2-8.5,18.3-25.5c0.7-3.9,1.3-7.7,1.6-11.3c-6.5,9.3-17,15.5-28.3,14.9
						c-19.3-1.3-26.2-19.8-23.5-37.5c2.6-17,16.8-32.9,32.5-32.5c7,0.1,13.7,3.1,18.3,8.3c-0.8-4.1-1.6-8.3-2.8-12.6
						c10.1-1.5,22.4-2.5,22.4-2.5C651.4,445.7,653.9,476.6,647.3,506.2z M607.3,457.6c-5.9,7.5-5.4,14.4-2.8,17.8
						c4.3,5.6,13.2,3.3,18.2-2.9c4.6-5.7,5.4-14.2,2.3-18.3C621.7,450.1,612.7,450.9,607.3,457.6z"/>
					<path class="st26" d="M691.3,499.2c8.7-24.5,5.4-46.9-1.3-48.9c-3.6-1-6.7,1-9.5,4.7c0,17.8,0.7,34.3,2.3,46.3
						c-7.4,0.1-14.9,0.7-22.2,1.8c2.3-35.3,0.8-91.9-2.8-124.3c13.1-2.8,27.2-5.4,27.2-5.4c-1.8,14.2-3.4,38.3-4.1,62.6
						c5.5-4.7,12.7-6.7,19.8-5.6c19.8,3.1,25.2,30.6,15.7,72.6C708.1,501.2,699.7,499.9,691.3,499.2z"/>
					<path class="st26" d="M749.2,502.6c-19-3.4-22.4-30.4-19.3-58.9c-3.8,0.2-6.1,0.3-6.1,0.3c0.3-7.4,1.3-14.2,1.3-14.2l6.9-0.3
						c1.4-7.9,3.3-15.8,5.6-23.5c11.1,0.2,22.4,0.7,22.4,0.7c-2.9,7-5.2,14.3-6.9,21.8l16.2-0.8c-1.1,5.9-1.7,12-1.8,18
						c-5.9-0.9-11.7-1.5-17.7-1.8c-3.4,20.4-2.5,36.5,1.1,37.8c3.6,1.5,5.6-6.5,5.4-16c11,3.8,20.9,8.3,20.9,8.3
						C774.9,496.2,762.6,505.1,749.2,502.6z"/>
					<path class="st26" d="M901.1,501.5c-8.8-0.3-17.5,0.3-26.2,1.8c0,0-0.8-23.2-7.7-41.4c-8,21.1-10,43.7-10,43.7
						c-8.1-1.4-16.4-2-24.7-1.6c-1.2-34.5-8-81.6-16.4-110.2c10.5,0,21-0.8,31.4-2.3c-0.7,22.3,0.2,44.7,2.8,66.9
						c5.6-13.2,11.8-30.4,14.9-43c4.2,14.4,10.5,31.6,18.5,44.6c2.9-22.6,2.9-54.1,1.5-72.4c0,0,15.4,0.7,31.2,1.5
						C909.3,416,902.9,459.6,901.1,501.5z"/>
					<path class="st26" d="M940.5,503c-9.7,0.6-25-4.1-29.1-23.9c-4.7-22.7,6.4-49.9,26.8-50c14.7-0.2,27.5,14.2,28.8,36.8
						C968.2,485.5,959,501.6,940.5,503z M937.9,453.3c-7,0.7-11.3,12.1-9.5,22.4c1.3,8.7,5.9,12.3,10.3,11.8
						c6.5-0.6,10-9.2,9.3-17.8C947.2,459.3,942.8,452.9,937.9,453.3L937.9,453.3z"/>
					<path class="st26" d="M1003,465c0.3-9.2-1.8-15-4.9-15.7c-2.8-0.5-5.7,0.5-8.2,4.7c0.7,16.8,2.3,35.2,4.3,47.1
						c0,0-12.3-0.5-23.4,3.1c1.6-22.6,2.8-51.5-0.5-73.8c0,0,11.6-0.3,19.6-3.4c-0.2,2.6-0.3,5.6-0.3,8.7c6.2-5.7,14.9-8,21.4-6.9
						c10.8,1.8,16.3,12.4,16,30.7C1016.1,460.6,1003,465,1003,465z"/>
					<path class="st26" d="M1097.3,501.3c-6-1-21.9,1.8-21.9,1.8c0.5-3.3,0.9-6.7,1-10c-4.8,4.1-10.9,6.3-17.2,6.4
						c-15.9,0.3-28.1-11-28.5-29.9c-0.3-15.9,8.2-38.4,27.5-39.6c7.4-0.3,14.5,2.8,19.3,8.5c-0.5-22.6-2.1-45.1-4.6-62
						c12.8-0.7,27-4.2,27-4.2C1096.5,400.9,1093.4,468.3,1097.3,501.3z M1066.9,453.6c-7.2-1.3-14.9,5.4-15.9,14.9
						c-0.7,7.5,4.9,12.6,11,12.1c6.4-0.3,11.1-4.4,12.6-12.8C1075.9,460.6,1073.5,454.7,1066.9,453.6L1066.9,453.6z"/>
					<path class="st26" d="M1131.7,503c-11.6-0.2-21.9-4.1-30.6-15.7c4.3-6.1,9.3-11.8,14.7-17c5.6,11.3,15.5,14.1,18,11.1
						c2-2.5,0.7-6.7-10-11.3c-9.7-4.1-18.2-10.1-18.7-20.9c-0.5-8.7,4.9-20.1,22.1-20.9c18.5-0.8,27.5,11.9,31.4,24.5
						c-7.3,0.9-14.5,3-21.1,6.2c-4.9-12.8-12.9-12.3-12.3-7.2c2,13.7,34,11,33.5,32C1158.5,496.4,1146.4,503.1,1131.7,503z"/>
				</g>
			</g>
		</g>
		<path class="st27" d="M360.9,720.6c0,0-2.6,5.7-5.1,5.8s-17.6-7.4-17.6-7.4l-1.1,1.9l15.7,7c2.5,1.4,5.7,0.6,7.3-1.7
			c3-4.1,4.2-5.7,4.2-5.7L360.9,720.6z"/>
		<path class="st27" d="M334.9,720.2l-1.2,3c0,0-0.4,2.9-3.8,9.9s-11.5,6.8-11,0.8s4.7-16.8,10.8-18.3c0.5-0.5,1.2-0.8,1.9-1
			c2.1-0.2,4.1,0.8,5.1,2.6l1.6,0.8l-1.9,2.8l-1.2-0.8L334.9,720.2z"/>
		<path class="st28" d="M335.9,720.9l1.5,0.8l2-2.9l-1.6-0.9c-1-1.8-3.1-2.8-5.1-2.6c-0.7,0.2-1.4,0.5-1.9,1
			c-6,1.5-10.3,12.3-10.7,18.3s7.6,6.2,11-0.8s3.8-9.9,3.8-9.9l1.1-2.7L335.9,720.9z"/>
		<path class="st29" d="M327.1,724.3l3.9,1.5c0,0-2.5,6.3-3.9,8.1s-5.5,0-2.8-4.8L327.1,724.3z"/>
		<path class="st29" d="M329.3,719.3c1.3,1.1,2.8,1.8,4.5,2.2l-0.7,1.2c0,0-4-0.6-4.6-2.3l0.6-1L329.3,719.3z"/>
		<path class="st27" d="M337.4,721.6l2-2.9C339.4,718.7,340.3,722.3,337.4,721.6z"/>
		<path class="st30" d="M364.8,656.4c0,0-4.8-8.5-12.5-8.4s-7.2,10.7-4.7,14.4s9.7,14.4,22.6,19.7S367.5,666.9,364.8,656.4z"/>
		<path class="st31" d="M364.6,657c0,0-4.5-7.9-11.5-7.7s-6.7,9.9-4.4,13.3s9,13.3,20.9,18.2S367.1,666.8,364.6,657z"/>
		<path class="st30" d="M388.4,682.5c0,0-8.1,3.8-13.9-2.1s-14.3-25.4-12.7-38.2c1.4-11.2,8.6-16.2,13.9-14
			c6.1,2.7,5.8,15.5,5.9,23.1C381.7,665.7,388.4,682.5,388.4,682.5z"/>
		<path class="st31" d="M386.7,679.4c0,0-7.3,3.3-12.6-2s-13.2-22.8-11.8-34.3c1.2-10,7.7-14.5,12.5-12.4c5.6,2.4,5.3,13.9,5.5,20.8
			C380.5,664.3,386.7,679.4,386.7,679.4z"/>
		<path class="st32" d="M336.9,672c0,0-9.6-4.7-16.5,0.2s0.1,14.2,4.7,15.9s17.7,7,32.7,3.7S345.9,679.9,336.9,672z"/>
		<path class="st33" d="M337.1,672.7c0,0-8.9-4.3-15.2,0.2s0.1,13.1,4.4,14.8s16.4,6.5,30.2,3.5S345.4,680,337.1,672.7z"/>
		<path class="st32" d="M375.6,681.5c0,0-6.1,8-15,6.2s-28.8-14-35.3-26.6c-5.7-11-2.3-20,3.8-21.2c7.2-1.4,14.8,10.4,19.7,17.3
			C357.9,669.9,375.6,681.5,375.6,681.5z"/>
		<path class="st33" d="M373.8,681.6c0,0-7.4,5.2-15.5,3.7s-26.1-12.4-32-23.7c-5.1-9.8-2-17.9,3.5-19c6.5-1.3,13.4,9.2,17.8,15.3
			C356,669.4,373.8,681.6,373.8,681.6z"/>
		<path class="st34" d="M406,636.2c0,0,7.3-16.8,20.9-23.5l0.6,1.2c0,0-12.5,5.8-20.3,23.3L406,636.2z"/>
		<path class="st34" d="M425.1,614L425.1,614c-0.7-1.4-0.1-3,1.2-3.7l5.9-2.9c1.3-0.7,3-0.1,3.6,1.2v0.1c0.7,1.3,0.1,3-1.2,3.6
			l-5.9,2.9C427.4,615.9,425.8,615.4,425.1,614z"/>
		<path class="st34" d="M376.2,647.3c0,0-13.6-12.2-28.8-12.8v1.3c0,0,13.8,0.1,28.2,12.8L376.2,647.3z"/>
		<path class="st34" d="M337.7,634.7L337.7,634.7c0-1.6,1.3-2.7,2.8-2.7l6.6,0.2c1.5,0,2.7,1.3,2.6,2.8v0.1c0,1.5-1.3,2.7-2.8,2.6
			l-6.6-0.2C338.9,637.5,337.7,636.2,337.7,634.7z"/>
		<path class="st35" d="M424.5,694.5c0,0,1.6,1.5,2.5,0.9c1.4-1-0.1-2.4-0.1-2.4C426,693.4,425.2,693.9,424.5,694.5z"/>
		<path class="st35" d="M424,691c-4.8,4.8-10.9,8-17.6,9.2c0,0-3.5-0.8-6.6-8.9s-3.5-8.4-3.5-8.4s-1.7-0.4-1.5,0.7s4.7,15.6,10,18.3
			c4.7,2.3,20.7-7.3,21.3-9.1S424.8,690.2,424,691z"/>
		<path class="st36" d="M403.9,676.1c-1.5,16.8-10.8,32-25.1,41c-9.2,5.8-53.6,7-40-23.3c7.7-14.4,22.5-13.1,34.2-12.3
			c2.5,0.2,6.6-1.7,8.3-3.2l2-1.4L403.9,676.1z"/>
		<path class="st27" d="M368.6,681.2c0,0-1.4,20.2,25.1,22.2c-1.7,2.3-3.6,4.5-5.6,6.5c0,0-26.6-5.3-25.7-28.9h3L368.6,681.2z"/>
		<path class="st27" d="M352.1,682.5c0,0-2.3,28.7,31.2,31.6c-1.3,1.1-2.7,2.1-4.2,3s-3.1,1.6-4.8,2c0,0-27-4.9-28.3-33.6
			c0.1-0.1,0.6-0.5,1.3-0.8c0.6-0.3,1.1-0.6,1.7-0.9C350,683.3,351,682.9,352.1,682.5z"/>
		<path class="st27" d="M379.2,679.7c0,0,7.8,12.7,20.4,13.3c-0.7,1.9-1.6,3.7-2.7,5.4c0,0-20.1-4.1-22.2-17l2-0.6
			c0.2-0.1,0.5-0.2,0.7-0.3L379.2,679.7z"/>
		<path class="st27" d="M338.2,695.2c-0.6,1.1-4.5,8.9,0,16.3s16,11.5,27.2,8.9C348.6,719.2,337.8,705.1,338.2,695.2z"/>
		<path class="st27" d="M319.8,716.5l16.2,7.4c0,0,5.4,1.9,8.1-2.2c2.5-3.1,5.1-7.1,6.4-9.1c0.5-0.7,1.4-0.9,2.1-0.5l0,0
			c0.9,0.6,1.1,1.9,0.5,2.8c-0.1,0.1-0.1,0.2-0.2,0.2L344,725c0,0-3.4,3.1-10.7-0.3c-8.7-4-14.7-6.7-14.7-6.7L319.8,716.5z"/>
		<path class="st27" d="M315.7,717.3l-1.3,3.3c0,0-0.5,3.2-4.1,10.9s-12.5,7.4-12,0.9s5.2-18.4,11.8-20c0.6-0.5,1.3-0.9,2.1-1
			c2-0.4,4.2,0.8,5.6,2.8l1.7,0.9l-2.1,3l-1.4-0.8L315.7,717.3z"/>
		<path class="st28" d="M316.8,718.1l1.6,0.8l2.2-3.2l-1.7-0.9c-1.4-2.1-3.6-3.2-5.6-2.8c-0.8,0.2-1.5,0.5-2.1,1
			c-6.6,1.6-11.2,13.4-11.8,20s8.4,6.8,12-0.9s4.1-10.9,4.1-10.9l1-2.4L316.8,718.1z"/>
		<path class="st29" d="M307.3,721.8l4.3,1.6c0,0-2.8,7-4.3,8.9s-6,0-3-5.2L307.3,721.8z"/>
		<path class="st29" d="M309.7,716.3c1.4,1.2,3.1,2,4.9,2.3l-0.7,1.3c0,0-4.4-0.7-5-2.5l0.7-1.1H309.7z"/>
		<path class="st27" d="M320.6,715.7c0,0,0.1,3.5-2.2,3.2L320.6,715.7z"/>
		<path class="st37" d="M391.5,684.4c0,0-0.7,8.8-12.8,15.9s-37.2,9-42.5,1.8c0,0-1.7,9.4,8.6,15.5c10,5.9,28.8,2,32.6,0.3
			c4.7-2.1,14.9-11,19.6-19.7c2.4-4.4,4.3-9.1,5.6-14c0,0,2.1-7.4,0-8.7c-4.6-2.7-16.1-0.3-19.5,1.5c-0.8,0.5-1.6,1-2.4,1.7
			C380.6,678.9,387.1,683.8,391.5,684.4z"/>
		<path class="st36" d="M372.6,665.8c3.4,13.6,17.1,16.8,32.2,13.7s23.9-10.8,20.5-24.5s-16.4-22.6-31.5-19.5
			C375,639.3,369.2,652.1,372.6,665.8z"/>
		<path class="st38" d="M375.5,646.3c0,0-5.7,36.2,39.4,29.9c-0.5,0.1,2.5-0.1-10,3.3c-2.8,0.7-5.7,1.1-8.5,1.2
			c-4.3,0.2-8.5-0.5-12.4-2.2c-2.5-1.2-4.8-2.7-6.8-4.5C371.5,668.5,369.4,654.5,375.5,646.3z"/>
		
			<ellipse transform="matrix(0.9627 -0.2707 0.2707 0.9627 -163.4479 134.2293)" class="st39" cx="404.9" cy="659.7" rx="1.1" ry="1.8"/>
		<path class="st40" d="M386.7,637.9c-0.9,0.4-1.9,0.8-2.7,1.2c-0.9,0.5-1.7,1-2.5,1.6c-1.2,1-2.2,2.1-3.1,3.4
			c-0.5,0.7-1,1.4-1.4,2.2c-0.2,0.4-0.4,0.8-0.6,1.2s-0.4,0.8-0.5,1.2c-0.6,1.6-1,3.3-1.2,5c0,0.4,0,0.9,0,1.3s0,0.9,0,1.3
			s0.1,0.8,0.2,1.3l0.1,0.6c0,0.2,0.1,0.4,0.1,0.6c0.1,0.4,0.2,0.8,0.3,1.2c0.1,0.2,0.1,0.4,0.2,0.6l0.2,0.6
			c0.1,0.4,0.3,0.8,0.4,1.2l0.5,1.1c0.6,1.3,1.5,2.5,2.4,3.6c1.1,1.3,3.3,3.2,4.6,3.6c-1.6-2.8-3.3-5.2-4-8.1
			c-0.4-1.4-0.6-2.9-0.8-4.4c0-0.4-0.1-0.7-0.1-1.1s0-0.7-0.1-1s0-0.7,0-1.1s0-0.7,0-1c0.3-2.9,1.1-5.7,2.4-8.3
			c0.6-1.1,1.3-2.2,2-3.3C384,640.9,385.6,639.2,386.7,637.9z"/>
		<path class="st34" d="M371.7,658.8c0.9,0.9,1.7,2,2.2,3.3c0.9,2.4,0.9,5.1,0,7.6c-0.9-1.9-1.5-4-1.9-6.1
			C371.7,661.9,371.6,660.3,371.7,658.8z"/>
		<path class="st34" d="M421.9,647c0,0-2.8,5.5,3.8,9.8c-0.5-2.5-1.3-4.9-2.4-7.2C422.9,648.7,422.5,647.8,421.9,647z"/>
		<path class="st34" d="M401.9,634.7c0,0-5.5-1.4-13.4,1.9C387.8,638.5,401.7,638.6,401.9,634.7z"/>
		<path class="st41" d="M404.4,652c1.6,5.5,6,8.8,10,7.4s5.8-6.8,4.2-12.3s-6-8.8-10-7.4S402.8,646.6,404.4,652z"/>
		<path class="st37" d="M404.8,655.3c1.4,4.7,5.6,7.5,9.4,6.2s5.8-6.2,4.4-11s-5.6-7.5-9.4-6.2S403.5,650.6,404.8,655.3z"/>
		<path class="st42" d="M404.9,653.2c1.4,4.8,5.6,7.5,9.4,6.2s5.8-6.2,4.4-11s-5.6-7.5-9.4-6.2S403.5,648.5,404.9,653.2z"/>
		<g>
			<path class="st43" d="M407.8,640.1c-2.6,2-3.7,6.4-2.5,10.8c1.5,5.1,5.7,8.3,9.4,7c2.5-0.9,4.2-3.6,4.5-6.9c0,4-1.8,7.5-4.8,8.5
				c-3.9,1.3-8.4-2-10-7.4C403,647,404.5,641.9,407.8,640.1z"/>
		</g>
		<path class="st44" d="M408.1,651.7c0.4,2.6,2.4,4.4,4.5,4s3.4-2.9,3-5.5s-2.4-4.4-4.5-4S407.7,649.1,408.1,651.7z"/>
		<path class="st45" d="M413.4,648.9c0,0.6,0.6,1.1,1.2,1.1h0.1c0.7-0.2,1.1-0.9,0.9-1.6c0-0.6-0.6-1.1-1.2-1.1h-0.1
			C413.7,647.6,413.3,648.2,413.4,648.9z"/>
		<path class="st41" d="M381.4,657c1.6,5.4,6,8.7,9.8,7.4s5.8-6.8,4.2-12.1s-6-8.7-9.8-7.4S379.8,651.7,381.4,657z"/>
		<path class="st37" d="M381.8,660.3c1.4,4.7,5.5,7.5,9.3,6.2s5.8-6.1,4.4-10.8s-5.5-7.5-9.3-6.2S380.4,655.6,381.8,660.3z"/>
		<path class="st42" d="M381.9,658.2c1.4,4.7,5.5,7.5,9.3,6.2s5.8-6.1,4.4-10.8s-5.5-7.5-9.3-6.2S380.5,653.5,381.9,658.2z"/>
		<g>
			<path class="st43" d="M384.7,645.3c-2.6,2-3.7,6.3-2.5,10.6c1.5,5.1,5.6,8.2,9.2,7c2.5-0.8,4.1-3.5,4.4-6.8c0,4-1.8,7.3-4.7,8.4
				c-3.9,1.3-8.3-2-9.8-7.4C379.9,652.1,381.4,647.1,384.7,645.3z"/>
		</g>
		<path class="st44" d="M385,656.4c0.4,2.6,2.4,4.4,4.5,4s3.4-2.8,3-5.4s-2.4-4.4-4.5-4S384.6,653.8,385,656.4z"/>
		<path class="st45" d="M389.9,653.2c0,0.6,0.5,1,1.1,1c0.1,0,0.1,0,0.2,0c0.7-0.2,1.1-0.8,1-1.5c0-0.6-0.5-1-1.1-1
			c-0.1,0-0.1,0-0.2,0C390.3,651.9,389.8,652.6,389.9,653.2z"/>
		<path class="st46" d="M393.8,670.2c2,0.2,4,0.3,6.1,0.2c1.9,0,3.9-0.3,5.8-0.7c1.9-0.5,3.6-1.3,5.2-2.3l1.2-0.9l1.1-1
			c0.2-0.2,0.4-0.3,0.5-0.5l0.5-0.6c0.3-0.4,0.7-0.8,1-1.2c-0.2,0.5-0.4,1-0.5,1.5c-0.1,0.2-0.2,0.5-0.3,0.7
			c-0.1,0.2-0.3,0.5-0.4,0.7l-0.9,1.3c-0.4,0.4-0.8,0.8-1.1,1.2c-1.6,1.5-3.6,2.5-5.7,3.1c-2.1,0.5-4.2,0.6-6.4,0.3
			C397.6,671.8,395.6,671.1,393.8,670.2z"/>
		<path class="st47" d="M401.9,671.4l31.8,31.3l4.6-2.5l-30.1-30.5L401.9,671.4z M438.5,700.1c-0.4,0.1-0.8,0.3-1.1,0.6l-3.5,2
			c-0.1,0.1,0,0.5,0.4,0.7s0.7,0.3,1,0.1l4.5-2c0.3-0.2,0-0.7-0.4-1c-0.2-0.1-0.3-0.3-0.5-0.4L438.5,700.1z M440.4,702.1
			c-0.1,0-0.3,0-0.4,0.1l-4.5,1.4c-0.4,0.1-0.2,0.5,0.1,0.7c0.3,0.3,0.7,0.4,1,0.2l4.7-1.2c0.4-0.1,0.2-0.7,0-1
			C441,702.1,440.7,702,440.4,702.1L440.4,702.1z M442.2,703.8c-0.1,0-0.2,0-0.3,0l-5.1,0.8c-0.5,0.1-0.5,0.4-0.3,0.7s0.6,0.5,1,0.3
			l5.1-0.8c0.5-0.1,0.4-0.4,0.2-0.6S442.6,703.8,442.2,703.8L442.2,703.8z M443.1,705.5H443l-5.4,0.2c-0.5,0-0.6,0.2-0.5,0.5
			c0.1,0.4,0.5,0.6,0.9,0.5l5.4-0.2c0.5,0,0.5-0.2,0.4-0.5C443.7,705.6,443.4,705.4,443.1,705.5L443.1,705.5z M438,706.9
			c-0.5,0-0.6,0.3-0.6,0.6s0.2,0.5,0.8,0.5l5.5,0.1c0.5,0,0.5-0.2,0.5-0.5s-0.2-0.5-0.7-0.5L438,706.9z M438.2,708.1
			c-0.5,0-0.7,0.2-0.6,0.5s0.3,0.9,0.8,0.9l5.4-0.2c0.5,0,0.5-0.2,0.5-0.5s-0.1-0.5-0.6-0.5L438.2,708.1z M438.4,709.5l8,57.7
			c0,0.3,8.7,49.7,9,49.7h2.7c0.5,0,3-0.2,2.9-0.8l-17-106.7L438.4,709.5z"/>
		<polygon class="st48" points="408.3,669.7 438.2,700.1 436.8,700.9 406,670.4 		"/>
		<path class="st48" d="M443.8,709.6l17,106.6c-0.6,0.3-1.2,0.4-1.9,0.5c-0.9,0-9.6-49-9.6-49l-7.8-58L443.8,709.6z"/>
		<path class="st48" d="M437,701.1c0,0.5,0.4,1,0.9,1.1l1.8-0.8c0,0,0.3-0.2-0.3-0.7s-0.9-0.5-0.9-0.5L437,701.1z"/>
		<path class="st48" d="M438.5,702.7c0,0-0.3,0.7,0.7,0.9l2-0.5c0,0,0.4-0.2-0.1-0.8s-1.5-0.1-1.5-0.1L438.5,702.7z"/>
		<path class="st48" d="M439.8,704.2c0,0-0.2,0.7,0.6,0.8l2.5-0.4c0,0,0.2-0.1-0.1-0.4l-0.2-0.3c-0.1,0-0.3,0-0.5,0L439.8,704.2z"/>
		<path class="st48" d="M440.8,705.7c-0.2,0.2-0.1,0.6,0.1,0.7c0,0,0,0,0.1,0l2.5-0.1c0,0,0.2,0,0.1-0.3s-0.2-0.5-0.3-0.5
			C442.5,705.5,441.7,705.6,440.8,705.7z"/>
		<path class="st48" d="M441.2,707.1c-0.2,0.2-0.2,0.5,0,0.8l0,0c0,0,2.5,0.1,2.7,0s0.2-0.2,0.1-0.3s-0.1-0.5-0.4-0.5
			S441.3,707,441.2,707.1z"/>
		<path class="st48" d="M441.3,708.3c0.9,0,1.8,0,2.7,0.2c0.2,0.2,0.2,0.5,0.1,0.7c-0.9,0.1-1.8,0.1-2.7,0
			C441.4,709.2,440.9,708.7,441.3,708.3z"/>
		<path class="st35" d="M417.2,677.3c0,0,1.7-1.7,3.5-0.9s0.9,3.5-0.5,4.5S414.4,681.3,417.2,677.3z"/>
		<path class="st35" d="M416.3,682.3c0,0-6.1,13.1-13.4,15c-3.7,1-15.9-12.8-15.9-12.8s-1.5-0.4-1.1,1.6c0.3,1.2,10.4,12,16,13.3
			s15.6-13.4,15.6-13.4l1.8-0.5C419.3,685.5,419.2,679.9,416.3,682.3z"/>
		<path class="st35" d="M416.8,683.8c0,0,4.2-6.9-0.4-6.5s-3.2,7.3-3.2,7.3l1.6,1.4"/>
		<path class="st35" d="M415.9,687.6c0,0,1.4,1.7,2.4,1.5c2.1-0.5,5.8-5.5,3.6-6.6s-3.6,2.5-3.6,2.5"/>
		<path class="st35" d="M415.8,682.8c0,0,1.7-4.5,4.1-3.2c2.7,1.5-1.8,6.5-1.8,6.5"/>
		<path class="st35" d="M429.4,689.3c0,0,1.4-0.3,1.7,0.7c0.3,1.2-0.3,2.4-1.5,2.9c-1.3,0.5-2.6-0.1-1.9-1.9
			S429.4,689.3,429.4,689.3z"/>
		<path class="st35" d="M428.7,686.7c0,0,2.9,1,0.5,3.8s-3.4,1.2-3.6,0.8s-0.4-1.5,0.9-2.6S428.7,686.7,428.7,686.7z"/>
		<path class="st35" d="M424.8,686.3c-0.7,0.6-0.8,1.7-0.2,2.3c0,0.1,0.1,0.1,0.2,0.2c1.3,1.4,4.3-1.5,4-2.8
			c-0.2-0.8-1.8-2.8-4.5-0.4"/>
		<path class="st35" d="M421.4,690.5c0.9-0.2,1.9-0.2,2.9,0c0.8,0.4,1.9,1.3-1.4,2.5s-3.2-2.3-2.4-3.3"/>
		<path class="st49" d="M1191.3,397.7c0,0,0.1-2.7-2.3-2.2s-7.2,14.2-7.2,14.2l-8.7,0.3c-2.5,0.7-4.6,2.4-5.7,4.7
			c-3.3,6.8-0.6,6.1,5-0.5c0.3-0.4,1,2.7,1.3,2.3s0.1-4.1,0.4-4.4l7.6,1.4c1,0.2,2-0.3,2.4-1.2L1191.3,397.7z"/>
		<path class="st49" d="M1209,429.4L1209,429.4c-1.3-0.7-5.9-1-8.8-0.5c0,0,3.3-6.9,5-10c0.2-0.3-2.2-2-2.2-2s-5.1,12.3-3.5,12.9
			c1,0.4,7.2,0.1,7.2,0.1c-3.5,2.6-7.6,7.7-7.5,10.3C1200.6,442.6,1207.2,434.2,1209,429.4z"/>
		<path class="st50" d="M1195.2,408c0.4,1.4,0.9,2.7,1.5,4.1c2.1,5.1,5.3,9.7,9.2,13.5c1.8,1.7,3.8,3.3,5.8,4.6
			c4.2,2.7,8.9,4.6,13.8,5.5c2.7,0.5,5.5,0.8,8.3,0.6c4.9-0.3,8.9-1.7,11.1-4c2.6-2.7,2.6-6.7-1.6-11.3c-0.8-0.9-1.6-1.7-2.4-2.5
			c-1.2-1.2-2.5-2.4-3.8-3.5c-4.2-3.5-8.8-6.6-13.6-9.3c-1.7-1-3.4-1.9-5-2.7c-8-4.1-16.3-7.4-24.9-9.9
			C1182.4,393.8,1195.2,408,1195.2,408z"/>
		<path class="st51" d="M1203.8,399.5c-2,7.4-5.3,10.4-5.2,14.1c0.2,4.1,5,9.5,7.2,11.5c2,1.8,4.2,3.5,6.5,4.9
			c3.9,2.6,8.4,4.4,13,5.3c2.8,0.6,5.7,0.8,8.6,0.7c4.9-0.2,8.9-2,11.1-4.3l-1-0.1c-20.1-2.2-42-11.5-36.7-19.3
			c10.7-15.7,0.4-15,0.4-15L1203.8,399.5z"/>
		<path class="st52" d="M1201.1,397c-8-5.4-15-19.1-18.4-24.8c-4.5-7.5-8.8-15.2-12.9-22.8c-10-19-18.6-38.5-23.7-58.1
			c-3.9-14.9-6.7-30.9-2.9-44.1c1.4-5,4.3-9.3,9.1-11.5c5.9-2.6,13.7-0.9,20.7,2c9.1,3.7,17.8,9.6,26.3,15.1
			c9.3,5.9,24.8,10.2,34.8,11c18.1,1.6,31.8,18.4,30.6,34.5c-0.6,8.8-15.3,30.1-19.1,37.3c-4.4,8.2-8.6,16.5-13.2,24.6
			s-9.5,15.8-13.3,24.4c-2.2,4.9-4.4,14.7-11.6,14.7C1205.1,399.2,1202.9,398.4,1201.1,397z"/>
		
			<linearGradient id="SVGID_5_" gradientUnits="userSpaceOnUse" x1="16332.0723" y1="-7950.2046" x2="16471.3418" y2="-7950.2046" gradientTransform="matrix(-3.000000e-02 0.61 0.69 0.21 7250.7803 -8062.0601)">
			<stop  offset="1.000000e-02" style="stop-color:#E68625"/>
			<stop  offset="1" style="stop-color:#F9A748"/>
		</linearGradient>
		<path class="st53" d="M1218.7,402.2c3.8,0.9,7.6,1.3,11.5,1.2c7.6,0.1,14.9-1.1,22.1-2.1c13.6-2.1,26.7-6.1,39.1-12.1
			c5.8-2.8,11.2-6.1,16.3-9.9c4.6-3.4,9.1-7.2,12.2-12s4.2-10.9-0.9-17c-4.3-5-11-7.9-16.8-9.9c-10.2-3.4-20.9-5.3-31.6-5.6
			c-5.4-0.2-10.9,0.1-15.6,1.7c-4.3,1.6-8.2,4.3-11.2,7.8c-7,7.4-11.8,16.9-16.7,25.8c-2.4,4.4-4.8,8.8-7.2,13.2
			c-1.2,2.3-2.4,4.5-3.7,6.8c-1,1.8-2.6,3.6-2.8,5.9C1213.1,398.7,1215.3,401.4,1218.7,402.2z"/>
		<path class="st54" d="M1204.6,352.8c0.5,3.9,0.5,7.8,0,11.7c-0.4,5.5-1,10.9-0.4,16.7c0,0.3,0.1,0.5,0.1,0.8
			c-1.4-3.6-2.8-7.2-4-10.9c-1.8-5.4-3.5-10.8-5-16.2c-0.8-3-1.4-6-2.2-9C1197.1,341.6,1203.7,347.1,1204.6,352.8z"/>
		<path class="st54" d="M1165.5,269.3c0.4-2.5,3-9.5,7.5-6.3c3.8,2.7,2.8,10.2,2.6,13.2c-0.4,5.1-1.6,9.8-1.8,14.9
			c-0.7,12.3,0.1,25.5,4.7,38.6c-0.5,0.5-0.9,1.1-1.3,1.7c-0.9,1.7-1.2,3.6-1.1,5.6c-0.1-1.9-1.6-4.7-2.3-6.7
			c-0.7-2.3-1.4-4.5-2.1-6.8c-1.3-4.7-2.5-9.4-3.4-14.1c-1.8-9-2.8-18.2-3-27.4C1165.4,277.7,1164.9,273.4,1165.5,269.3
			C1165.5,269.4,1165.5,269.3,1165.5,269.3z"/>
		<path class="st54" d="M1177.7,272.2c2.6-4.2,8.8-6,14.8-2.6c9,5.2,6.4,14.2,4.4,20.1c-3,9.1-6,17.5-6.4,27.7c-0.4,7-0.2,14,0.5,21
			c-1.6-4-4.3-8.7-8.5-9.8c-0.7-0.2-1.5-0.2-2.2,0.1c-6.3-18.4-4.4-35.9-2.9-53C1177.5,274.8,1177.6,273.6,1177.7,272.2z"/>
		<path class="st54" d="M1213.4,294.5c0,0.1-0.1,0.2-0.2,0.2c-0.1,0.2-0.1,0.5,0,0.7c-0.5,3.3-1.3,6.5-2.3,9.7
			c-4.3,13.5-7.4,27.3-6.5,42.5c-0.8-1.3-1.9-2.4-3.2-3.3c-3-2-5.8-2.5-7.9-1.5c-0.7-5.1-1.1-10.2-1.2-15.3c-0.3-6.4,0-12.8,1-19.2
			c1-5.5,3-10.6,4.8-15.7c1.3-3.7,3-7.8,2.9-12.2l0,0c2.8-0.1,7.3-0.3,9.9,2.4c1.7,1.9,2.7,4.3,2.8,6.9
			C1213.6,291.3,1213.5,292.9,1213.4,294.5z"/>
		<path class="st54" d="M1234.8,300.3c2.8,6.2,1.3,12.1-0.5,17.2c-2.6,7.3-6.1,14.1-9,21.2c-1.4,3.4-2.6,6.8-3.6,10.3
			c-0.4,1.4-0.6,2.9-0.9,4.4c-0.5-0.4-0.9-0.7-1.4-1c-4.1-2.3-9-2.9-12.7-1.7c-0.9-10.4-0.2-20.8,2.2-30.9c1.6-6.8,4.3-13,5.8-19.9
			c0.3-1.4,0.6-3,0.9-4.6C1219.6,289.9,1231,292,1234.8,300.3z"/>
		<path class="st54" d="M1207.8,391.6c-0.9-6-2-12.1-1.8-18s1.3-11.4,0.9-17.3c-0.1-1.1-0.2-2.2-0.4-3.2c3.8-1.5,11.2-0.4,14.2,2.9
			c-2.7,5.4-5,11-7,16.7c-1.3,3.9-2.4,7.9-3.2,11.9c-0.4,2.3-0.9,4.6-1.6,6.8c-0.2,0.6-0.4,1.1-0.6,1.7
			C1208.2,392.6,1208,392.1,1207.8,391.6z"/>
		<path class="st54" d="M1191.1,345c0.7,2.9,1.3,5.8,2,8.7c1.8,7.4,4.1,14.6,6.8,21.8c2,5.4,4.3,10.8,5.9,16.2
			c0.2,1.1,0.3,2.1,0.5,3.2c-0.2-1.6-3.3-5.1-4.4-6.7c-1.5-2.3-2.9-4.5-4.3-6.8c-2.9-4.7-5.6-9.4-8.2-14.1c-3.3-6.1-6.7-12.3-9-18.6
			c-1.8-5.1-4-12.8-0.8-16.6c2.1-2.5,4.7-1.6,6.8,1.8C1188.7,337.2,1190.2,341,1191.1,345z"/>
		
			<linearGradient id="SVGID_6_" gradientUnits="userSpaceOnUse" x1="16332.0723" y1="-7950.2046" x2="16471.3418" y2="-7950.2046" gradientTransform="matrix(-3.000000e-02 0.61 0.69 0.21 7250.7803 -8062.0601)">
			<stop  offset="1.000000e-02" style="stop-color:#1F0C0D"/>
			<stop  offset="1" style="stop-color:#565759"/>
		</linearGradient>
		<path class="st55" d="M1218.7,402.2c3.8,0.9,7.6,1.3,11.5,1.2c7.6,0.1,14.9-1.1,22.1-2.1c13.6-2.1,26.7-6.1,39.1-12.1
			c5.8-2.8,11.2-6.1,16.3-9.9c4.6-3.4,9.1-7.2,12.2-12s4.2-10.9-0.9-17c-4.3-5-11-7.9-16.8-9.9c-10.2-3.4-20.9-5.3-31.6-5.6
			c-5.4-0.2-10.9,0.1-15.6,1.7c-4.3,1.6-8.2,4.3-11.2,7.8c-7,7.4-11.8,16.9-16.7,25.8c-2.4,4.4-4.8,8.8-7.2,13.2
			c-1.2,2.3-2.4,4.5-3.7,6.8c-1,1.8-2.6,3.6-2.8,5.9C1213.1,398.7,1215.3,401.4,1218.7,402.2z"/>
		<path class="st54" d="M1266.6,349.8l-0.3,0.3c0,0,0,0,0,0.1c-1.3,1.4-2.8,2.7-4.4,3.9c-4.3,3.3-9.1,6.1-13.4,9.4
			c-7,5.2-13.6,11-19.8,17.2c-3.1,3-5.9,6.2-8.5,9.5c-2.1,3-4,6.1-5.9,9.1c-0.7-1-1.1-2.2-1-3.5c0.2-2.3,1.8-4,2.8-5.9
			c1.3-2.2,2.4-4.5,3.7-6.8c2.4-4.4,4.8-8.8,7.2-13.2l2.2-4.1c2-2.4,3.2-5.5,5.1-7.8c3.2-3.5,6.6-6.7,10.4-9.6
			c3-2.6,6.4-4.6,10.2-5.9c3.2-1,8-1.7,11.7,1C1269.1,345.3,1268.3,347.7,1266.6,349.8z"/>
		<path class="st54" d="M1214.8,399.9c2.7-4.5,5.7-8.8,9-12.9c3.7-4.2,7.6-8.2,11.7-12c7.1-6.5,14.7-12.3,22.8-17.6
			c3-2,6.4-4.2,8.6-7.1l0,0c2.6-3,6.4-5.1,10.3-6.7s9.2-3.2,14.1-1.1c1.8,0.8,4.1,2.3,4.8,4.1c0.5,1.4,0.3,3.1-0.7,4.3
			c-1.8,2.3-4,4.1-6.5,5.4l-0.6,0.1c-0.1,0-0.2,0.1-0.2,0.2v0.1l-1.2,0.6c-5.2,2.7-10.9,4.8-16.4,7.1c-6.2,2.7-12.4,5.5-18.3,8.6
			c-0.9,0.4-1.7,0.8-2.5,1.2c-0.1,0-0.2,0.1-0.1,0.2l0,0c-1.2,0.6-2.3,1.3-3.5,2c-5.8,3.4-11.4,7.2-16.8,11.4l-1,0.6
			c-0.1,0.1-0.1,0.1-0.1,0.2c-1.7,1.4-3.5,2.8-5.1,4.3c-2,1.8-3.8,3.7-5.5,5.8c-0.6,0.6-1.2,1.3-1.8,2
			C1215.4,400.6,1215.1,400.3,1214.8,399.9z"/>
		<path class="st54" d="M1244.2,380.8c4.7-2,10.3-4.2,16.3-3.3c2.4,0.4,5.2,1.5,6.6,3.8c2.2,3.4,0.3,6.6-1.4,8.7
			c-4.2,5.1-10.4,8.9-16.6,11.7l-0.1,0.1c-6.2,1-12.5,1.6-18.7,1.7c-3.9,0.1-7.7-0.4-11.5-1.2c-0.8-0.2-1.6-0.5-2.3-1
			c1.5-1.5,2.9-3.1,4.3-4.7c2.3-2.4,4.8-4.6,7.4-6.6c0.6-0.5,1.1-0.9,1.7-1.4C1234.3,385.6,1239.1,383,1244.2,380.8z"/>
		<path class="st56" d="M1254.2,373c5.5-2.3,11.3-3.8,17.2-4.2c5-0.2,12.7,0.9,14.7,7.2c1.3,4.1-1.1,7.6-3.4,10
			c-2.5,2.5-5.3,4.7-8.4,6.4c-5.7,3.1-11.5,5.8-17.6,8.1c-1.5,0.3-3,0.5-4.5,0.8l-1.1,0.2c4-1.9,7.7-4.3,11.1-7.1
			c3-2.5,9-7.6,5.5-13c-2.8-4.5-8.1-4.9-12.2-4.5c-5.8,0.6-11,2.9-15.8,5.2c-1.7,0.8-3.4,1.7-5,2.6c0.9-0.7,1.9-1.3,2.8-2
			c4.8-3.3,9.9-6.4,15.1-9.1C1253.2,373.4,1253.7,373.2,1254.2,373z"/>
		<path class="st54" d="M1308.1,362.5c-0.2,0-0.3,0.2-0.3,0.4c-0.3,0.3-0.7,0.6-1,0.9c-2.2,1.7-4.6,3.2-7.1,4.3
			c-4.6,2.2-9.4,3.8-14.4,4.7c-0.1,0-0.1,0.1-0.2,0.1c-1.5-1.8-3.4-3.1-5.6-3.8c-5.7-2-11.7-0.8-16.5,0.4c-1.9,0.5-3.7,1-5.5,1.6
			c0.6-0.3,1.2-0.6,1.8-0.9c7.1-3.4,14.5-6.3,21.7-9.5c2.8-1.2,5.6-2.5,8.3-4c4.7-1,20.3-6.6,20.6,1.4
			C1309.9,359.8,1309.3,361.4,1308.1,362.5L1308.1,362.5z"/>
		<path class="st54" d="M1308.5,363.3c3.2,0.8,2,3.8,1.1,5.4c-1.4,2.3-3,4.4-4.9,6.2c-2.4,2.4-5.7,4.1-8.8,5.7
			c-4.4,2.3-9,4.3-13.2,6.8c1.8-1.7,3.2-3.8,4.1-6.1c1-2.7,0.5-5.7-1.2-7.9l0,0c5.6-1,11-2.8,16-5.5
			C1303.7,366.8,1306.6,365.3,1308.5,363.3z"/>
		
			<linearGradient id="SVGID_7_" gradientUnits="userSpaceOnUse" x1="16332.0625" y1="-7935.2256" x2="16471.3535" y2="-7935.2256" gradientTransform="matrix(-3.000000e-02 0.61 0.69 0.21 7250.7803 -8062.0601)">
			<stop  offset="1.000000e-02" style="stop-color:#E68625"/>
			<stop  offset="1" style="stop-color:#F9A748"/>
		</linearGradient>
		<path class="st57" d="M1285.1,373c-1.5-1.8-3.4-3.1-5.6-3.8c-5.5-1.9-11.3-0.9-16,0.3c3.2-1.6,6.6-2.9,10-3.9
			c3.5-1.1,7.2-1.6,10.8-1.4c2.3,0.2,4.6,0.7,6.8,1.5c0.9,0.4,2.5,1,3,2c0.6,1.2-0.6,2.1-1.3,2.7c-0.2,0.1,0,0.4,0.1,0.5
			c-2.5,0.9-5.1,1.5-7.7,2C1285.2,372.9,1285.1,373,1285.1,373z"/>
		
			<linearGradient id="SVGID_8_" gradientUnits="userSpaceOnUse" x1="16332.0625" y1="-7915.8711" x2="16471.3418" y2="-7915.8711" gradientTransform="matrix(-3.000000e-02 0.61 0.69 0.21 7250.7803 -8062.0601)">
			<stop  offset="1.000000e-02" style="stop-color:#E68625"/>
			<stop  offset="1" style="stop-color:#F9A748"/>
		</linearGradient>
		<path class="st58" d="M1285.4,373.4c3.2-0.6,6.4-1.4,9.5-2.6c2.9,0.1,6.2,1.8,6.2,5.3c0,0.6-0.1,1.1-0.2,1.7c-1.7,1-3.4,2-5.2,2.9
			c-4.4,2.3-9,4.3-13.2,6.8c1.8-1.7,3.2-3.8,4.1-6.1C1287.6,378.7,1287.2,375.7,1285.4,373.4L1285.4,373.4z"/>
		<path class="st59" d="M1160,247.9c0.6-2.2-0.8-4.4-3-5c-0.3-0.1-0.6-0.1-0.9-0.1c-0.9-0.1-1.8,0.1-2.7,0.5
			c-1.4,0.7-2.2,2.2-2.2,3.8c0.2,2.1,2.2,3.3,4.2,3.6C1157.5,251,1159.4,249.8,1160,247.9z"/>
		<path class="st60" d="M1173.2,252.1c-2.1-3.1,0.9-5.3,3.8-4.8c0.3,0,0.4,0.2,0.3,0.4c0.3,0.1,0.6,0.2,0.8,0.4
			c2.4,1.4,3.2,4.7,1.4,5.9S1174.8,254.5,1173.2,252.1z"/>
		
			<linearGradient id="SVGID_9_" gradientUnits="userSpaceOnUse" x1="4934.4966" y1="-3441.9941" x2="4929.502" y2="-3443.6257" gradientTransform="matrix(-5.000000e-02 0.82 0.91 0.27 4575.6099 -2851.3799)">
			<stop  offset="1.000000e-02" style="stop-color:#E68625"/>
			<stop  offset="1" style="stop-color:#F9A748"/>
		</linearGradient>
		<path class="st61" d="M1193.1,260.4c-0.4-0.7-0.2-1.6,0.5-2l0.1-0.1c0.8-0.6,1.9-0.6,2.6,0.1c1.1,0.7,1.4,2.1,0.7,3.2
			c-0.2,0.2-0.3,0.4-0.6,0.6C1195.3,262.9,1193.7,261.6,1193.1,260.4z"/>
		
			<linearGradient id="SVGID_10_" gradientUnits="userSpaceOnUse" x1="4951.2168" y1="-3411.8137" x2="4938.1665" y2="-3416.0437" gradientTransform="matrix(-5.000000e-02 0.82 0.91 0.27 4575.6099 -2851.3799)">
			<stop  offset="1.000000e-02" style="stop-color:#E68625"/>
			<stop  offset="1" style="stop-color:#F9A748"/>
		</linearGradient>
		<path class="st62" d="M1214.6,277.1c-0.1-1.9,1.2-3.7,3-4.3c3.5-1.3,7.9,0.9,9.3,5c1.3,3.8-1.2,6.8-5.1,6.5
			S1214.2,280.2,1214.6,277.1z"/>
		
			<linearGradient id="SVGID_11_" gradientUnits="userSpaceOnUse" x1="4946.5698" y1="-3386.6875" x2="4933.5098" y2="-3390.9275" gradientTransform="matrix(-5.000000e-02 0.82 0.91 0.27 4575.6099 -2851.3799)">
			<stop  offset="1.000000e-02" style="stop-color:#E68625"/>
			<stop  offset="1" style="stop-color:#F9A748"/>
		</linearGradient>
		<path class="st63" d="M1237.7,280.1c-0.1-1.9,1.2-3.7,3-4.3c3.5-1.3,7.9,0.9,9.3,5c1.3,3.8-1.2,6.8-5.1,6.5
			S1237.3,283.2,1237.7,280.1z"/>
		
			<linearGradient id="SVGID_12_" gradientUnits="userSpaceOnUse" x1="4964.2725" y1="-3387.7107" x2="4957.916" y2="-3389.7695" gradientTransform="matrix(-5.000000e-02 0.82 0.91 0.27 4575.6099 -2851.3799)">
			<stop  offset="1.000000e-02" style="stop-color:#E68625"/>
			<stop  offset="1" style="stop-color:#F9A748"/>
		</linearGradient>
		<path class="st64" d="M1240.8,300.3c-1.6-1.4-1.5-3.3-0.1-3.9c0.5-0.5,1.3-0.8,2-0.7c2.2,0.2,4,2.5,3.6,4.4
			S1242.5,301.8,1240.8,300.3z"/>
		
			<linearGradient id="SVGID_13_" gradientUnits="userSpaceOnUse" x1="14945.8398" y1="-5930.7134" x2="14940.5303" y2="-5932.4434" gradientTransform="matrix(-5.000000e-02 0.82 0.91 0.27 7390.0298 -10332.7207)">
			<stop  offset="1.000000e-02" style="stop-color:#E68625"/>
			<stop  offset="1" style="stop-color:#F9A748"/>
		</linearGradient>
		<path class="st65" d="M1243,317.5c-2.2-1.5-1-3.9,0.8-4.1c0.5,0,1,0.1,1.4,0.4c0.2,0.1,0.3,0.1,0.4,0.2c0.6,0.5,1,1.2,1,2
			c0.1,0.7-0.2,1.5-0.8,1.9C1245,318.5,1243.9,318.1,1243,317.5z"/>
		
			<linearGradient id="SVGID_14_" gradientUnits="userSpaceOnUse" x1="14964.7148" y1="-5937.1411" x2="14959.4053" y2="-5938.8608" gradientTransform="matrix(-5.000000e-02 0.82 0.91 0.27 7390.0298 -10332.7207)">
			<stop  offset="1.000000e-02" style="stop-color:#E68625"/>
			<stop  offset="1" style="stop-color:#F9A748"/>
		</linearGradient>
		<path class="st66" d="M1236.2,331.1c-1.1-0.5-1.5-1.8-1-2.9c0.3-0.7,1-1.1,1.8-1.2c0.5,0,1,0.1,1.4,0.4c0.1,0.1,0.3,0.1,0.4,0.2
			c0.6,0.5,1,1.2,1,2c0.1,0.7-0.2,1.5-0.8,1.9C1238.2,332.2,1237.1,331.8,1236.2,331.1z"/>
		
			<linearGradient id="SVGID_15_" gradientUnits="userSpaceOnUse" x1="14985.3652" y1="-5944.7061" x2="14981.293" y2="-5946.0269" gradientTransform="matrix(-5.000000e-02 0.82 0.91 0.27 7390.0298 -10332.7207)">
			<stop  offset="1.000000e-02" style="stop-color:#E68625"/>
			<stop  offset="1" style="stop-color:#F9A748"/>
		</linearGradient>
		<path class="st67" d="M1228.8,346.2c-0.8-0.4-1.2-1.4-0.8-2.2c0.3-0.5,0.8-0.9,1.3-0.9c0.4,0,0.8,0.1,1.1,0.3
			c0.1,0,0.2,0.1,0.3,0.2c0.5,0.4,0.7,1,0.8,1.6c0.1,0.6-0.2,1.1-0.6,1.5C1230.3,347,1229.5,346.7,1228.8,346.2z"/>
		<path class="st54" d="M1184.3,369c-0.6-0.5-1.1-1.2-1.4-2c-0.4-1.1-1.1-2.1-1.5-3.2c-4.6-8.7-8.8-17.6-12.4-26.8
			c-4.2-10.2-8.9-20.3-13.2-30.5s-8.1-20.3-8.9-30.3c-0.4-4.4,0.2-8.9,1.9-13.1c0.8-1.9,2.5-5.6,5.7-4.3c2.3,0.9,3.3,3.8,3.9,5.8
			c0.6,2.4,1.1,4.9,1.5,7.4c1.8,10.8,2.3,21.5,4.2,32.4c2,10.9,4.9,21.7,8.8,32.1c1.9,5.3,4,10.7,6.1,16c1,2.5,2.1,5.1,3.1,7.6
			s1.8,5.2,3,7.8l0.3,0.5C1185.4,368.9,1184.7,369.3,1184.3,369z"/>
		
			<linearGradient id="SVGID_16_" gradientUnits="userSpaceOnUse" x1="15028.834" y1="-5971.1377" x2="14925.3438" y2="-6004.728" gradientTransform="matrix(-5.000000e-02 0.82 0.91 0.27 7390.0298 -10332.7207)">
			<stop  offset="1.000000e-02" style="stop-color:#E68625"/>
			<stop  offset="1" style="stop-color:#F9A748"/>
		</linearGradient>
		<path class="st68" d="M1196.7,355.5c0.8-1.6,3.2-2,4.5,0.2c1,2,1.6,4.3,1.7,6.5c0.7,6.1,0.4,12,0.9,18c-1.2-3.1-2.4-6.2-3.4-9.3
			c-1.4-4.4-2.8-8.7-4.1-13.1C1196.3,357.1,1196.4,356.3,1196.7,355.5z"/>
		
			<linearGradient id="SVGID_17_" gradientUnits="userSpaceOnUse" x1="15033.6709" y1="-5985.3711" x2="14929.7002" y2="-6019.1211" gradientTransform="matrix(-5.000000e-02 0.82 0.91 0.27 7390.0298 -10332.7207)">
			<stop  offset="1.000000e-02" style="stop-color:#E68625"/>
			<stop  offset="1" style="stop-color:#F9A748"/>
		</linearGradient>
		<path class="st69" d="M1177.5,326.6c0.3,1,0.7,2.1,1,3.1l-0.2,0.2C1178.1,328.8,1177.8,327.7,1177.5,326.6z"/>
		
			<linearGradient id="SVGID_18_" gradientUnits="userSpaceOnUse" x1="15029.3096" y1="-5972.6108" x2="14925.8203" y2="-6006.2109" gradientTransform="matrix(-5.000000e-02 0.82 0.91 0.27 7390.0298 -10332.7207)">
			<stop  offset="1.000000e-02" style="stop-color:#E68625"/>
			<stop  offset="1" style="stop-color:#F9A748"/>
		</linearGradient>
		<path class="st70" d="M1179.4,325.9c-1.5-8.3-2.7-16.9-1.4-24.5c0.4-2.9,1.4-5.7,3-8.1c1-1.4,3.6-5.1,6.3-3.3
			c4.4,2.8,4,9.1,3.4,12.4c-0.7,3.6-1.2,7.3-1.4,11c-0.3,4.7-0.2,9.4,0.3,14.1c0.3,2.3,0.7,4.6,1.1,6.9c0.1,1.3,0.2,2.7,0.4,4
			c-1.6-4-4.3-8.7-8.5-9.8c-0.7-0.2-1.5-0.2-2.2,0.1C1179.9,327.7,1179.6,326.8,1179.4,325.9z"/>
		
			<linearGradient id="SVGID_19_" gradientUnits="userSpaceOnUse" x1="15026.1025" y1="-5962.728" x2="14922.6123" y2="-5996.3179" gradientTransform="matrix(-5.000000e-02 0.82 0.91 0.27 7390.0298 -10332.7207)">
			<stop  offset="1.000000e-02" style="stop-color:#E68625"/>
			<stop  offset="1" style="stop-color:#F9A748"/>
		</linearGradient>
		<path class="st71" d="M1192.7,337.9c0.5-4.2,0-9,0.2-13.2c0.1-3.2,0.5-6.3,1.1-9.5c0.5-2.3,1.2-5,3.1-6.4c2.1-1.6,5.4-0.7,6.8,2.5
			c1.5,3.6,1.4,7.4,1.3,10.8c-0.2,3.2-0.7,6.3-0.8,9.6c0,1.4,0,2.8,0.1,4.2c-0.3,3.9-0.3,7.8-0.1,11.7c-0.8-1.3-1.9-2.4-3.2-3.3
			c-3-2-5.8-2.5-7.9-1.5C1193.1,341.2,1192.9,339.5,1192.7,337.9z"/>
		
			<linearGradient id="SVGID_20_" gradientUnits="userSpaceOnUse" x1="15020.5381" y1="-5945.5869" x2="14917.0479" y2="-5979.1768" gradientTransform="matrix(-5.000000e-02 0.82 0.91 0.27 7390.0298 -10332.7207)">
			<stop  offset="1.000000e-02" style="stop-color:#E68625"/>
			<stop  offset="1" style="stop-color:#F9A748"/>
		</linearGradient>
		<path class="st72" d="M1206.4,337.9c0.7-3.1,1-6.3,1.7-9.4c0.6-3.3,1.9-6.5,3.7-9.3c1.4-2.2,3.2-4.8,5.9-5.7
			c3.3-1,6.9,0.7,8.3,3.8c2.6,5.8,0.1,11.7-1.2,16.6c-1.2,4.5-2.1,9.1-2.6,13.7c-0.2,0.5-0.3,1.1-0.5,1.6c-0.4,1.4-0.6,2.9-0.9,4.4
			c-0.5-0.4-0.9-0.7-1.4-1c-4.1-2.3-9-2.9-12.7-1.7C1206.3,346.5,1206.3,342.2,1206.4,337.9z"/>
		
			<linearGradient id="SVGID_21_" gradientUnits="userSpaceOnUse" x1="15026.3438" y1="-5963.4883" x2="14922.8535" y2="-5997.0884" gradientTransform="matrix(-5.000000e-02 0.82 0.91 0.27 7390.0298 -10332.7207)">
			<stop  offset="1.000000e-02" style="stop-color:#E68625"/>
			<stop  offset="1" style="stop-color:#F9A748"/>
		</linearGradient>
		<path class="st73" d="M1207.8,391.6c-0.9-6-2-12.1-1.8-18c0.1-1.5,0.2-2.9,0.3-4.3c0.5-2.1,1.4-4.1,2.6-6c0.9-1.2,2.5-2.4,4.6-1.2
			c1.2,0.7,2,1.9,2.4,3.2c0.1,0.3,0.2,0.6,0.2,0.8c-0.9,2.2-1.7,4.4-2.4,6.6c-1.3,3.9-2.4,7.9-3.2,11.9c-0.4,2.3-0.9,4.6-1.6,6.8
			c-0.2,0.6-0.4,1.1-0.6,1.7C1208.2,392.6,1208,392.1,1207.8,391.6z"/>
		
			<linearGradient id="SVGID_22_" gradientUnits="userSpaceOnUse" x1="15031.8018" y1="-5980.2598" x2="14928.3018" y2="-6013.8496" gradientTransform="matrix(-5.000000e-02 0.82 0.91 0.27 7390.0298 -10332.7207)">
			<stop  offset="1.000000e-02" style="stop-color:#E68625"/>
			<stop  offset="1" style="stop-color:#F9A748"/>
		</linearGradient>
		<path class="st74" d="M1185.2,352.5c0.6-2.2,3.4-3.5,5.6-0.6c1.2,1.7,2.2,3.7,2.9,5.7c2.1,5.8,3.8,11.5,5.9,17.3
			s4.2,11.4,6.3,17.1c0.2,1,0.3,1.9,0.4,2.9c-0.2-1.6-3.3-5.1-4.4-6.7c-1.5-2.3-2.9-4.5-4.3-6.8c-2.9-4.7-5.6-9.4-8.2-14.1
			c-1.3-2.5-2.7-5-4-7.5C1184.9,357.3,1184.7,354.9,1185.2,352.5z"/>
		<path class="st60" d="M1313.9,359.2c0-0.7,0.4-1.3,1.1-1.5c1.4-0.4,2.8,0.4,3.3,1.8c0.4,0.8,0,1.8-0.8,2.1c-0.3,0.1-0.7,0.2-1,0.1
			C1315.1,361.5,1313.8,360.2,1313.9,359.2z"/>
		<path class="st75" d="M1302.1,347.9c0-1.3,0.8-2.4,2-2.8c2.3-0.9,5.2,0.6,6.1,3.2c0.7,1.5,0,3.3-1.5,4c-0.6,0.3-1.2,0.3-1.9,0.2
			C1304.3,352.3,1301.8,349.9,1302.1,347.9z"/>
		
			<linearGradient id="SVGID_23_" gradientUnits="userSpaceOnUse" x1="6386.2759" y1="-5316.6768" x2="6381.3457" y2="-5318.2764" gradientTransform="matrix(-3.000000e-02 0.61 0.69 0.21 5123.6802 -2478.3398)">
			<stop  offset="1.000000e-02" style="stop-color:#E68625"/>
			<stop  offset="1" style="stop-color:#F9A748"/>
		</linearGradient>
		<path class="st76" d="M1272.8,338.9c0-0.5,0.3-1,0.8-1.2c1.1-0.3,2.3,0.3,2.7,1.4c0.3,0.7,0,1.4-0.7,1.7c-0.2,0.1-0.5,0.1-0.8,0.1
			C1273.7,340.8,1272.7,339.8,1272.8,338.9z"/>
		<path class="st77" d="M1193.3,389.5c-6-7.4-7.6-21.3-8.8-27.2c-1.5-7.9-2.8-15.7-3.9-23.5c-2.5-19.3-3.3-38.6-0.5-56.6
			c2.1-13.7,5.8-27.9,15.1-37.4c3.7-3.9,8.7-6.1,14.1-6.1c7.1,0,14.5,4.4,20.5,9.3c7.8,6.4,14.4,14.6,20.9,22.1
			c7.1,8.3,21.4,17.6,31.3,22c18,8,25.2,26.9,17.3,39.8c-4.3,7-28.1,19.1-35,23.6c-7.9,5.1-15.6,10.4-23.7,15.3s-16.3,9.4-23.8,15.1
			c-4.3,3.2-10.5,10.5-18,7.8C1196.7,392.9,1194.7,391.4,1193.3,389.5z"/>
		
			<linearGradient id="SVGID_24_" gradientUnits="userSpaceOnUse" x1="18956.3203" y1="-5117.5537" x2="19095.5996" y2="-5117.5537" gradientTransform="matrix(-0.29 0.49 0.62 0.42 9960.7402 -6775.3203)">
			<stop  offset="1.000000e-02" style="stop-color:#E68625"/>
			<stop  offset="1" style="stop-color:#F9A748"/>
		</linearGradient>
		<path class="st78" d="M1209.3,400.3c3.6,2.2,7.4,3.9,11.3,5.3c7.8,2.9,15.8,4.6,23.6,6.4c14.8,3.3,30,4.9,45.2,4.5
			c7-0.1,14-0.8,20.9-2.1c6.1-1.1,12.3-2.6,17.5-5.3s8.8-7.4,6-14.3c-2.3-5.7-8.1-10.6-13.2-14.4c-9.3-6.7-19.5-12.2-30.2-16.4
			c-5.5-2.2-11.2-4-16.7-4.4c-5-0.3-10,0.5-14.7,2.2c-10.3,3.5-19.1,9.5-27.8,15.1c-4.3,2.7-8.6,5.5-12.8,8.2
			c-2.2,1.4-4.3,2.8-6.6,4.2c-1.8,1.1-4.2,2-5.3,3.8C1205,395.4,1206.2,398.4,1209.3,400.3z"/>
		<path class="st56" d="M1215.2,354.4c-1,3.6-2.9,6.6-4.8,9.6c-2.7,4.3-5.5,8.6-7.2,13.6c-0.1,0.2-0.2,0.5-0.2,0.7
			c0.1-3.5,0.1-7,0.4-10.4c0.4-5.1,0.8-10.2,1.6-15.2c0.4-2.8,1-5.5,1.5-8.2C1212.1,342.5,1216.5,349.4,1215.2,354.4z"/>
		<path class="st54" d="M1209.2,271.3c1.4-1.9,7-6.7,10.3-2.4c2.8,3.6-1.3,9.4-2.8,11.8c-2.5,4-5.7,7.5-8,11.6
			c-5.8,9.9-10.4,21-11,33.5c-0.7,0.2-1.4,0.5-2,0.9c-1.5,1-2.7,2.5-3.4,4.2c0.7-1.6,0.3-4.5,0.4-6.3c0.2-2.1,0.4-4.3,0.7-6.4
			c0.6-4.4,1.3-8.6,2.3-12.9c1.9-8.2,4.6-16.1,8.2-23.7C1205.7,278.1,1206.9,274.3,1209.2,271.3L1209.2,271.3z"/>
		<path class="st54" d="M1220.6,278.1c4.4-2.5,11.6-1.7,16.3,3.3c7.2,7.6,0.7,14-3.7,18.2c-6.8,6.3-13.4,12.2-18,20.4
			c-3.2,5.6-5.9,11.4-8.1,17.5c0-3.9-0.9-8.8-4.8-11.2c-0.7-0.4-1.5-0.7-2.3-0.7c1-17.5,10.2-31.1,18.8-44.7
			C1219.3,280.2,1219.9,279.2,1220.6,278.1z"/>
		<path class="st54" d="M1248.1,309.8l-0.2,0.1c-0.2,0.1-0.3,0.4-0.2,0.6c-1.9,2.6-4,4.9-6.4,7.1c-10,9.5-18.8,19.8-24.2,32.6
			c-0.3-1.4-1-2.8-1.9-3.9c-2.3-2.8-4.9-4.2-7.5-4.2c1.3-4.5,3-8.8,5.1-13c2.3-5.5,5.3-10.7,8.9-15.4c3.3-4.2,7.4-7.6,11.4-11.2
			c2.8-2.6,6.3-5.3,8-9l0,0c3,0.9,7.6,2.5,9.3,5.6c1,2.1,1,4.6,0,6.7C1249.6,307.2,1248.9,308.5,1248.1,309.8z"/>
		<path class="st54" d="M1267.8,322.4c0.3,6.2-3.6,10.4-7.6,14c-5.7,5.1-12.1,9.3-18,14.1c-2.8,2.2-5.4,4.6-7.9,7.2
			c-1,1-1.8,2.2-2.7,3.3c-0.3-0.5-0.7-0.9-1.1-1.3c-3.3-3.4-7.7-5.5-12.4-6.1c3.4-9.1,8.5-17.4,15-24.6c4.4-5,9.8-9.1,14.1-14.2
			c0.9-1,1.9-2.2,2.8-3.5C1256.4,308.2,1267.4,314.2,1267.8,322.4z"/>
		<path class="st56" d="M1202.5,387.6c1.5-5.3,2.8-10.7,5.6-15.4s6-8.9,8-13.9c0.4-0.9,0.7-1.9,0.9-2.8c4.5,0.1,11.7,3.9,13.4,7.7
			c-4.9,3.4-9.7,7.1-14.1,11.2c-2.9,2.6-5.7,5.5-8.2,8.6c-1.3,1.8-2.8,3.5-4.4,5c-0.4,0.4-0.9,0.8-1.4,1.2
			C1202.4,388.5,1202.4,388,1202.5,387.6z"/>
		<path class="st56" d="M1204.5,343c-0.4,2.7-1.1,5.3-1.5,7.9c-1.1,6.8-1.8,13.6-1.9,20.4c-0.1,5.2,0,10.5-0.6,15.5
			c-0.3,1-0.5,1.9-0.8,2.8c0.4-1.4-0.9-4.5-1.3-7.1c-0.5-3.3-1.2-6.6-2.1-9.8c-1.3-3.9-2.1-8-2.6-12.1c-0.9-6.3-1.8-12.6-1.6-18.6
			c0.2-4.9,1.2-12,6-13.9c3.2-1.3,5.4,0.5,6.3,4C1205.2,335.7,1205.2,339.4,1204.5,343z"/>
		<path class="st77" d="M1209.3,400.3c3.6,2.3,5.3,2.6,8.8,4.6c5.8,3.3,15.8,6.5,23.7,8.3c15.2,3.5,33.2,3.5,47.7,3.2
			c7-0.1,14-0.8,20.9-2.1c6.1-1.1,12.3-2.6,17.5-5.3s8.8-7.4,6-14.3c-2.3-5.7-8.1-10.6-13.2-14.4c-9.3-6.7-19.5-12.2-30.2-16.4
			c-5.5-2.2-11.2-4-16.7-4.4c-5-0.3-10,0.5-14.7,2.2c-10.3,3.5-19.1,9.5-27.8,15.1c-4.3,2.7-8.6,5.5-12.8,8.2
			c-2.2,1.4-4.3,2.8-6.6,4.2c-1.8,1.1-4.2,2-5.3,3.8C1205,395.4,1206.2,398.4,1209.3,400.3z"/>
		<path class="st54" d="M1280.3,374.9l-0.4,0.1h-0.1c-2,0.7-4,1.2-6.1,1.6c-5.8,1.1-11.9,1.7-17.7,2.8c-9.3,1.6-18.5,3.9-27.4,6.8
			c-4.3,1.3-8.5,2.9-12.7,4.7c-3.4,1.6-6.6,3.5-9.9,5.3c-0.3-0.9-0.2-1.8,0.4-2.5c1.2-1.8,3.5-2.7,5.3-3.8c2.2-1.4,4.4-3.5,6.6-4.9
			c4.3-2.8,8.5-5.5,12.8-8.2l4-2.6c3-1.2,5.5-3.4,8.5-4.5c4.8-1.7,9.7-3.1,14.7-4c4.2-1,8.6-1.4,12.9-1.1c3.7,0.4,8.9,1.5,11.6,5.1
			C1284.7,372.2,1282.8,373.8,1280.3,374.9z"/>
		<path class="st54" d="M1280.4,375.5c3.9-1.5,8.7-1.9,13.3-1.7s10.8,0.8,15,4.3c1.6,1.3,3.3,3.4,3.3,5.2c-0.1,1.5-1.1,2.8-2.4,3.3
			c-2.8,1.2-5.9,1.9-9,2l-0.6-0.1c-0.2-0.1-0.3,0.1-0.3,0.2l-1.5,0.1c-6.5,0.3-13.2-0.1-19.8-0.2c-7.5-0.1-15-0.1-22.4,0.3
			c-1,0-2.1,0-3.1,0c-0.2,0-0.2,0.1-0.2,0.2c-1.5,0.1-3,0.2-4.4,0.3c-7.4,0.7-14.7,1.7-22,3.2l-1.2,0.1c-0.1,0-0.2,0.1-0.2,0.1
			c-2.4,0.5-4.7,1-7.1,1.6c-2.7,0.7-5.4,1.6-8.1,2.7c-0.9,0.3-1.8,0.6-2.7,0.9c-0.2-0.3-0.5-0.7-0.6-1.1c4.7-2.8,9.6-5.2,14.6-7.3
			c5.5-2.1,11.2-3.9,17-5.5c10.1-2.7,20.3-4.7,30.7-6"/>
		<path class="st54" d="M1244.4,392.2c5.6,0.1,12.3,0.3,18.1,3.3c2.3,1.2,4.7,3.2,5.2,5.6c0.8,3.6-2.4,5.5-5.1,6.6
			c-6.4,2.6-14.3,3.5-21.9,3.5c0,0-1.5-0.3-1.6-0.3c-6.7-1.6-13.2-3.7-19.6-6.2c-3.8-1.4-6.2-3.4-9.7-5.7c-0.8-0.5-2,0.3-2.5-0.3
			c2.2-0.7,4.2-1.5,6.3-2.3c3.4-1.1,6.8-2,10.3-2.7c0.8-0.2,1.5-0.3,2.3-0.5C1232.3,392.4,1238.3,392.1,1244.4,392.2z"/>
		<path class="st56" d="M1257.9,389.5c6.6,0.1,13.1,1.1,19.4,2.9c5.2,1.6,12.7,5.4,12.2,11.4c-0.3,3.9-4.2,5.8-7.6,7
			c-3.7,1.2-7.5,1.9-11.3,2.1c-7.1,0.4-14.3,0.5-21.4,0.2c-1.7-0.3-3.3-0.7-5-1.1l-1.2-0.3c4.8-0.1,9.6-0.7,14.4-1.7
			c4.1-1,12.3-2.9,11-8.7c-1.1-4.7-6.4-7.1-10.7-8.2c-6.2-1.6-12.5-1.7-18.4-1.5c-2.1,0.1-4.2,0.2-6.2,0.3c1.2-0.2,2.5-0.4,3.7-0.6
			c6.3-1,12.7-1.6,19.2-1.9L1257.9,389.5z"/>
		<path class="st54" d="M1317.8,400.8c-0.1-0.1-0.3,0-0.4,0.1v0.1c-0.5,0.2-0.9,0.3-1.4,0.4c-3,0.6-6,0.9-9.1,0.9
			c-5.6,0.1-11.3-0.4-16.8-1.5c-0.1,0-0.2,0-0.2,0c-0.9-2.1-2.3-3.9-4.2-5.2c-5-3.7-11.8-5-17.2-5.8c-2.1-0.3-4.2-0.6-6.4-0.7
			c0.7,0,1.5,0,2.2-0.1c8.7-0.2,17.5,0.2,26.3,0.3c3.4,0,6.9,0.1,10.2-0.2c5.2,0.9,23.6,2.1,20.7,8.8
			C1320.6,399.3,1319.3,400.4,1317.8,400.8L1317.8,400.8z"/>
		<path class="st54" d="M1317.9,401.6c3,1.9,0.5,3.9-1.2,4.9c-2.4,1.4-5,2.5-7.6,3.3c-3.5,1.1-7.5,1.3-11.5,1.4
			c-5.5,0.2-11,0.2-16.4,0.7c2.4-0.7,4.7-1.9,6.7-3.5c2.1-1.7,2.9-4.5,2-7l0,0c6.2,1.3,12.5,1.7,18.7,1.5
			C1311.5,402.7,1315.1,402.6,1317.9,401.6z"/>
		<path class="st59" d="M1212.3,251.6c1.6-1.7,1-4.5-1.9-5.6c-1-0.4-2-0.6-3-0.6c-1.7,0.2-3.3,0.9-3.8,2.3c-0.7,1.8,1,3.6,2.8,4.5
			C1208.7,253.2,1211.1,252.9,1212.3,251.6z"/>
		<path class="st60" d="M1224.2,260c-0.8-3.3,3.1-4,5.9-2.5c0.3,0.1,0.3,0.3,0.2,0.4c0.2,0.2,0.5,0.4,0.7,0.6c1.9,2,1.4,5-1,5.4
			C1227.4,264.1,1225,262.5,1224.2,260z"/>
		<path class="st60" d="M1241.3,274.1c-0.1-0.7,0.5-1.4,1.2-1.5c0.1,0,0.2,0,0.3,0c1-0.2,2.1,0.2,2.6,1.1c0.7,0.9,0.5,2.1-0.4,2.8
			c-0.3,0.2-0.7,0.4-1,0.4C1242.5,277,1241.4,275.4,1241.3,274.1z"/>
		<path class="st60" d="M1258.8,296.2c0.6-1.6,2.8-2.5,4.8-2.4c4.1,0.2,7.7,3.7,7.5,7.5c-0.2,3.6-4.1,5.2-7.9,3.4
			S1257.1,298.6,1258.8,296.2z"/>
		<path class="st59" d="M1248.2,280.9c0.6-1.7,2.8-2.5,4.8-2.4c4.1,0.2,7.7,3.7,7.5,7.5c-0.2,3.6-4.1,5.2-7.9,3.4
			S1246.6,283.3,1248.2,280.9z"/>
		<path class="st60" d="M1279.1,306.9c0.6-1.6,2.8-2.5,4.8-2.4c4.1,0.2,7.7,3.7,7.5,7.5c-0.2,3.6-4.1,5.2-7.9,3.4
			S1277.4,309.3,1279.1,306.9z"/>
		<path class="st59" d="M1274,324.7c-1.1-1.8-0.2-3.3,1.5-3.3c0.8-0.2,1.6-0.2,2.3,0.2c2.2,1,3.2,3.5,1.9,4.9
			S1275.1,326.5,1274,324.7z"/>
		<path class="st60" d="M1269.2,339.6c-1.7-2,0.5-3.6,2.5-3.1c0.5,0.2,1,0.5,1.3,0.9c0.1,0.1,0.2,0.2,0.3,0.4c0.4,0.6,0.5,1.3,0.2,2
			s-0.9,1.2-1.6,1.3C1270.8,341,1269.8,340.5,1269.2,339.6z"/>
		<path class="st60" d="M1256.6,348.3c-1.7-2,0.5-3.6,2.5-3.1c0.5,0.1,1,0.5,1.3,0.9c0.1,0.1,0.2,0.2,0.3,0.3c0.4,0.6,0.5,1.4,0.2,2
			c-0.3,0.7-0.9,1.2-1.6,1.3C1258.2,349.8,1257.2,349.2,1256.6,348.3z"/>
		<path class="st60" d="M1242.8,358c-1.3-1.5,0.4-2.8,1.9-2.4c0.4,0.1,0.7,0.3,1,0.7c0.1,0.1,0.2,0.2,0.3,0.3
			c0.3,0.5,0.4,1.1,0.1,1.6c-0.2,0.5-0.7,0.9-1.2,1C1244,359.1,1243.2,358.7,1242.8,358z"/>
		<path class="st54" d="M1187.6,360.2c-0.4-0.7-0.6-1.4-0.6-2.2c0-1.1-0.2-2.1-0.3-3.2c-1.2-8.8-1.8-17.7-1.8-26.6
			c-0.2-10-0.8-20-1.1-30s0-19.7,3.3-28.2c1.5-3.9,4-7.4,7.4-10c1.6-1.2,4.9-3.7,7.7-1.4c2,1.6,1.8,4.4,1.6,6.2
			c-0.3,2.3-0.9,4.5-1.6,6.7c-2.6,9.6-6.4,18.6-9,28.2c-2.5,9.7-3.9,19.6-4.2,29.6c-0.2,5.1-0.2,10.3-0.2,15.4c0,2.5,0,5,0,7.4
			s-0.2,5-0.1,7.5v0.5C1188.8,360.6,1187.9,360.7,1187.6,360.2z"/>
		
			<linearGradient id="SVGID_25_" gradientUnits="userSpaceOnUse" x1="17000.5078" y1="-3929.7844" x2="16896.5488" y2="-3963.5247" gradientTransform="matrix(-0.39 0.66 0.82 0.56 11035.5195 -8593.5605)">
			<stop  offset="1.000000e-02" style="stop-color:#E68625"/>
			<stop  offset="1" style="stop-color:#F9A748"/>
		</linearGradient>
		<path class="st79" d="M1198,322.9c-0.1,1-0.2,2-0.2,2.9l-0.3,0.1C1197.7,324.9,1197.8,323.9,1198,322.9z"/>
		<path class="st60" d="M1325.1,400.2c0.3-0.6,1-0.9,1.7-0.8c1.4,0.1,2.6,1.2,2.7,2.6c-0.1,1.3-1.4,1.8-2.8,1.2
			S1324.5,401,1325.1,400.2z"/>
		<path class="st60" d="M1317.6,386.5c0.4-1.1,1.8-1.6,3.2-1.6c2.7,0.1,5,2.4,4.9,4.9c-0.1,2.3-2.7,3.4-5.2,2.2
			S1316.5,388.1,1317.6,386.5z"/>
		<path class="st60" d="M1291.1,368.3c0.3-0.5,0.8-0.8,1.4-0.7c1.2,0,2.1,1,2.2,2.1c0,1-1.2,1.5-2.2,1S1290.6,369,1291.1,368.3z"/>
		
			<linearGradient id="SVGID_26_" gradientUnits="userSpaceOnUse" x1="6937.8291" y1="-1287.3729" x2="6936.0791" y2="-1287.9429" gradientTransform="matrix(-0.39 0.66 0.82 0.56 5060.6704 -3481.1799)">
			<stop  offset="1.000000e-02" style="stop-color:#E68625"/>
			<stop  offset="1" style="stop-color:#F9A748"/>
		</linearGradient>
		<path class="st80" d="M1302,352.1c0.1-0.2,0.4-0.4,0.7-0.3c0.6,0,1,0.4,1,1c0,0.5-0.5,0.7-1.1,0.5S1301.8,352.4,1302,352.1z"/>
		<path class="st50" d="M1177.9,378.3c0.5,4.8,0.7,9.6,0.7,14.4c0.2,7.3,0.6,13.4,4.5,18.5c7.6,9.7,14.6,8.8,20.4,5.4
			c8.9-5.2,7.6-15.7,7.6-15.7c0-0.3,0-0.6-0.1-0.9l0,0c-1.1-3.5-9.2-12-14.1-10.9c-10.1,2.3-10.8-18.6-10.8-18.6
			C1183.2,365.7,1177.9,378.3,1177.9,378.3z"/>
		<path class="st51" d="M1178.6,392.7c0.2,7.3,0.6,13.4,4.5,18.5c7.6,9.7,14.6,8.8,20.4,5.4c8.9-5.2,7-15.7,7-15.7s0,6.4-14.9,6.7
			c0,0-10.1,0-13.5-7.5v-9.6L1178.6,392.7z"/>
		<path class="st51" d="M1179.4,401.7c0,0,15.9,1,21.2-12.4l-5.8-8.5l-15.4,12.8"/>
		<path class="st50" d="M1159.2,383.1c0,0-2.3-23.4,18.4-22.9c5.1,0.1,20.6,2.1,19.9,22.7c0.9,2.5,4.5,13.5-19.1,16.6
			c-1.2,0.8-6,4.4-8.4-0.6C1169.2,398.9,1153.6,396.7,1159.2,383.1z"/>
		<path class="st81" d="M1168.2,380.3c0.3,3.8-0.9,7.2-2.6,7.4s-3.3-2.9-3.6-6.7s0.8-7.1,2.4-7.3h0.1
			C1166.3,373.6,1168,376.7,1168.2,380.3z"/>
		<path class="st82" d="M1167,380.6c0,1.7-0.8,3.1-1.8,3.2s-1.6-1.2-1.7-3s0.7-3.2,1.7-3.3S1166.9,378.8,1167,380.6z"/>
		<ellipse class="st83" cx="1164.1" cy="378.5" rx="0.7" ry="1.1"/>
		<path class="st84" d="M1170.1,399.6c-0.3-0.7-0.5-1.4-0.7-2.1c0.3,0.7,0.6,1.3,0.9,1.9L1170.1,399.6z"/>
		<path class="st84" d="M1178,400l-0.2-0.3c1.5-1.2,3.3-2.4,3.3-2.4S1179.5,398.7,1178,400z"/>
		<path class="st85" d="M1177.8,366.6c0,0,4.2-4.6,6.8,2.3C1183,366.9,1180.3,366,1177.8,366.6z"/>
		<path class="st85" d="M1167.6,368c0,0-5-3.4-6.1,4C1162.6,369.6,1165,368.1,1167.6,368z"/>
		<path class="st84" d="M1163.6,389.2c-0.6,0-1.2-0.2-1.7-0.6c1,0.5,2.3,0.3,3.1-0.4l0.2,0.3C1164.8,389,1164.2,389.2,1163.6,389.2z
			"/>
		<path class="st86" d="M1166.4,391.3c2.4,1.6,4.3,3.9,5.4,6.6c0.9,2,3.2,2.4,5.3-1.9c1.3-2.8,2.2-5.8,2.7-8.9L1166.4,391.3z"/>
		<path class="st87" d="M1171.9,398.1c1,1.7,3.2,2,5.2-2.2c0-0.1,0-0.1,0.1-0.2C1174.1,393.6,1172.1,396.9,1171.9,398.1z"/>
		<path class="st88" d="M1173.8,395.5c-0.9,0.6-1.6,1.6-1.8,2.7c0.7,1.2,2,1.7,3.4,0.4C1175.4,397.2,1174.9,395.5,1173.8,395.5z"/>
		<path class="st84" d="M1177.3,396c1.3-2.8,2.2-5.8,2.8-8.9v-0.3l-14.1,4.4l0.3,0.2c2.4,1.6,4.2,3.9,5.3,6.5c0.3,0.9,1.1,1.5,2,1.5
			l0,0C1174.9,399.5,1176.2,398.2,1177.3,396z M1179.7,387.3c-0.5,2.9-1.4,5.8-2.7,8.5c-1.4,2.9-2.7,3.3-3.3,3.3l0,0
			c-0.8-0.1-1.5-0.6-1.7-1.3c-1.1-2.6-2.9-4.8-5.1-6.5L1179.7,387.3z"/>
		<path class="st89" d="M1174.6,377.4l-9.8-6.3c0,0,3.1,5.4,1.3,13.9c-0.8,3.6-2.7,6.5,1.5,7.5c8.7,2.2,12.3-4.7,12.3-4.7
			L1174.6,377.4z"/>
		<path class="st90" d="M1174.6,377.4l-9.9-6.4c0,0,3.2,5.5,1.3,14c-0.8,3.6-2.7,6.5,1.5,7.5c8.7,2.2,12.3-4.7,12.3-4.7
			L1174.6,377.4z"/>
		<path class="st84" d="M1170.8,393.1c-1.1,0-2.2-0.2-3.3-0.4c-1-0.1-1.9-0.7-2.4-1.6c-0.6-1.1-0.2-2.5,0.3-4.2
			c0.2-0.6,0.4-1.3,0.5-2c1.8-8.3-1.2-13.7-1.2-13.7c0.6,0.6,1,1.3,1.2,2.1c1.1,3.8,1.2,7.8,0.4,11.7c-0.2,0.7-0.3,1.4-0.5,2
			c-0.4,1.6-0.8,2.9-0.3,3.9c0.5,0.8,1.3,1.3,2.2,1.4c8.5,2.1,12.1-4.6,12.2-4.6l0.3,0.2c-0.8,1.3-1.8,2.4-3,3.2
			C1175.2,392.4,1173,393.2,1170.8,393.1z"/>
		<path class="st91" d="M1178.5,387L1178.5,387L1178.5,387z"/>
		<path class="st90" d="M1182.6,385.2l-4,1.8c0.3,0.3,2.3,2.1,5.6,0.5L1182.6,385.2z"/>
		<path class="st84" d="M1178.5,387L1178.5,387l0.2,0.1l0.2,0.2l0.3,0.2l0.2,0.1c0.1,0,0.1,0.1,0.2,0.1c0.1,0.1,0.3,0.1,0.4,0.2
			c0.2,0,0.3,0.1,0.5,0.1s0.3,0,0.5,0.1h0.5c0.2,0,0.3,0,0.5,0l0.5-0.1l0.4-0.1h0.2l0.2-0.1l0.3-0.1l0.2-0.1l-0.2,0.1l-0.3,0.1
			l-0.2,0.1l-0.2,0.1c-0.1,0-0.3,0.1-0.4,0.2l-0.5,0.1h-0.3h-0.3c-0.2,0-0.4,0-0.6,0s-0.4,0-0.6-0.1c-0.2,0-0.4-0.1-0.5-0.1
			l-0.2-0.1l-0.2-0.1c-0.1-0.1-0.3-0.2-0.4-0.2l-0.2-0.1l-0.1-0.1c-0.1-0.1-0.2-0.1-0.2-0.2C1178.6,387.1,1178.6,387,1178.5,387z"/>
		<path class="st81" d="M1185,377.2c0.3,4-1.3,7.4-3.3,7.6s-4-2.8-4.3-6.8s1.1-7.3,3.1-7.6S1184.7,373.3,1185,377.2z"/>
		<path class="st82" d="M1184.2,379.6c0-2-0.9-3.6-2.1-3.6s-2.1,1.6-2.1,3.6s0.9,3.6,2.1,3.6S1184.2,381.6,1184.2,379.6z"/>
		<ellipse class="st83" cx="1181.1" cy="377.7" rx="0.7" ry="1.1"/>
		<path class="st49" d="M1167.3,364c0.1,0.3,1,0.2,1-0.5s-4.6-9.5-15.5-11c-3.8-0.5-8.3,1-10.4,3.1c-1.1,1.1-1.6,2.6-0.8,3.8
			c1.7,2.7,5.6-4.8,11.7-4.7C1160,354.8,1165.4,360.1,1167.3,364z"/>
		<path class="st90" d="M1142.4,357.7c0,0,3.6-7.1,12.8-4.1C1155.2,353.7,1148.9,351.7,1142.4,357.7z"/>
		<path class="st49" d="M1179.4,362.5c0.1,0.3,0.4,0.5,0.8,0.4c0.1,0,0.3-0.1,0.3-0.3c0.3-0.6,0.1-10.8-8.7-18.1
			c-3.1-2.5-7.7-3.7-10.5-3c-1.4,0.2-2.4,1.4-2.4,2.9c0.3,3.3,6.9-1.1,12.3,2.4C1177.1,350.6,1179.5,358.1,1179.4,362.5z"/>
		<path class="st90" d="M1159.4,343.7c0,0,5.9-4.8,13.1,2.3C1172.6,346.1,1167.6,341.3,1159.4,343.7z"/>
		<path class="st49" d="M1212.2,415.4c0.8-1,1.8-0.2,1.6,1.2c-0.2,1.6-2.9,8.4-6.6,18.2c2.1,0,9.1-0.3,11.6,1.5
			c1.5,1.1,1,4.2-0.3,6.6s-5,7.5-6.8,7s-2-6.5,5-13.5c-6.3-0.6-10.4,0.1-10.6-0.8C1205.3,430.9,1211,417,1212.2,415.4z"/>
		<path class="st49" d="M1197.7,404.5c0,0,0.1-2.7-2.3-2.2s-7.2,14.2-7.2,14.2l-8.7,0.3c-1.2-0.2-2.4-0.2-3.6-0.1
			c-0.1,0,1.3,1.1,1.1,1.2c-0.3,0.2,0.4-0.3,0,0c-1.4,0.9-2.6,2.2-3.3,3.7c-3.7,7.4,0,5.9,6.8-2.7l7.6,1.4c1,0.2,2-0.3,2.4-1.2
			L1197.7,404.5z"/>
	</g>
</g>
</svg>
