<?xml version="1.0" encoding="utf-8"?>
<!-- Generator: Adobe Illustrator 25.2.3, SVG Export Plug-In . SVG Version: 6.00 Build 0)  -->
<svg version="1.1" id="Layer_1" xmlns="http://www.w3.org/2000/svg" xmlns:xlink="http://www.w3.org/1999/xlink" x="0px" y="0px"
	 viewBox="0 0 1600 900" style="enable-background:new 0 0 1600 900;" xml:space="preserve">
<style type="text/css">
	.st0{clip-path:url(#SVGID_2_);}
	.st1{fill:#7DB1E1;}
	.st2{fill:#71DB91;}
	.st3{fill:#84DF66;}
	.st4{fill:url(#SVGID_3_);}
	.st5{fill:url(#SVGID_4_);}
	.st6{fill:url(#SVGID_5_);}
	.st7{fill:#429B21;}
	.st8{opacity:0.5;}
	.st9{fill:#B56528;}
	.st10{fill:#0E623C;}
	.st11{fill:#088883;}
	.st12{fill:#44C24A;}
	.st13{fill:url(#SVGID_6_);}
	.st14{fill:#A3661D;}
	.st15{fill:#C48728;}
	.st16{fill:#6E4910;}
	.st17{fill:#815315;}
	.st18{fill:#E5AB55;}
	.st19{fill:#865519;}
	.st20{opacity:0.63;fill:#6E4910;enable-background:new    ;}
	.st21{opacity:0.51;fill:#6E4910;enable-background:new    ;}
	.st22{fill:#0C4E2C;}
	.st23{fill:#087B60;}
	.st24{fill:#0B1E33;}
	.st25{opacity:0.3;fill:#050505;enable-background:new    ;}
	.st26{opacity:0.18;fill:#050505;enable-background:new    ;}
	.st27{fill:#0A4223;}
	.st28{fill:#093D21;}
	.st29{fill:#264922;}
	.st30{fill:#0C3D23;}
	.st31{fill:#085E20;}
	.st32{fill:none;}
	.st33{fill:#4DBA3E;}
	.st34{fill:#308929;}
	.st35{fill:#114416;}
	.st36{fill:#42A329;}
	.st37{fill:#4B9B75;}
	.st38{fill:url(#SVGID_7_);}
	.st39{fill:#67A952;}
	.st40{fill:#053A1A;}
	.st41{fill:#969453;}
	.st42{fill:#82822B;}
	.st43{fill:#7C542D;}
	.st44{fill:#63462E;}
	.st45{opacity:0.45;fill:#E6C37F;enable-background:new    ;}
	.st46{fill:#BFBD67;}
	.st47{opacity:0.46;fill:#D8D877;enable-background:new    ;}
	.st48{fill:#EAD5A0;}
	.st49{opacity:0.47;fill:#D8D877;enable-background:new    ;}
	.st50{fill:#7A593D;}
	.st51{fill:#AD8359;}
	.st52{fill:#B8854E;}
	.st53{opacity:0.49;fill:#BFBD67;enable-background:new    ;}
	.st54{opacity:0.59;fill:#BFBD67;enable-background:new    ;}
	.st55{opacity:0.68;fill:#7DB1E1;enable-background:new    ;}
	.st56{fill:#1C5525;}
	.st57{fill:#D8A5AB;}
	.st58{fill:#8E5E4F;}
	.st59{fill:#51190F;}
	.st60{fill:#4DAAD5;}
	.st61{fill:#2179A5;}
	.st62{fill:#26538B;}
	.st63{opacity:0.15;fill:#1E5794;enable-background:new    ;}
	.st64{opacity:0.15;fill:#274F90;enable-background:new    ;}
	.st65{opacity:0.15;fill:#EAD168;enable-background:new    ;}
	.st66{opacity:0.15;fill:#88F1E2;enable-background:new    ;}
	.st67{opacity:0.15;fill:#1C578E;enable-background:new    ;}
	.st68{opacity:0.15;fill:#041D27;enable-background:new    ;}
	.st69{fill:#18364B;}
	.st70{fill:#CAADA9;}
	.st71{fill:#42210D;}
	.st72{fill:#471E0A;}
	.st73{fill:#DC1546;}
	.st74{opacity:0.64;fill:#AE142A;enable-background:new    ;}
	.st75{fill:#900C21;}
	.st76{opacity:0.15;fill:#F18897;enable-background:new    ;}
	.st77{opacity:0.15;fill:#540A14;enable-background:new    ;}
	.st78{opacity:0.15;fill:#5C081B;enable-background:new    ;}
	.st79{opacity:0.15;fill:#5D0A1C;enable-background:new    ;}
	.st80{fill:#5D090F;}
	.st81{fill:#521C11;}
	.st82{fill:#BE2BD1;}
	.st83{fill:#A322BB;}
	.st84{fill:#810C91;}
	.st85{opacity:0.15;fill:#E388F1;enable-background:new    ;}
	.st86{opacity:0.15;fill:#590168;enable-background:new    ;}
	.st87{opacity:0.15;fill:#550D5C;enable-background:new    ;}
	.st88{fill:#5E046D;}
	.st89{fill:#1C7E2E;}
	.st90{opacity:0.54;fill:#6E4910;enable-background:new    ;}
	.st91{opacity:0.64;fill:#6E4910;enable-background:new    ;}
	.st92{fill:url(#SVGID_8_);}
	.st93{fill:#104925;}
	.st94{fill:#033318;}
	.st95{fill:#228835;}
	.st96{fill:#142416;}
	.st97{opacity:0.63;fill:#825415;enable-background:new    ;}
</style>
<g>
	<defs>
		<rect id="SVGID_1_" width="1600" height="900"/>
	</defs>
	<clipPath id="SVGID_2_">
		<use xlink:href="#SVGID_1_"  style="overflow:visible;"/>
	</clipPath>
	<g class="st0">
		<path class="st1" d="M1622.8,509.9l-1643-16.1V6.8h1652c0.9,69.8,0.9,141.1,0,213.9C1630.5,319.9,1627.5,416.3,1622.8,509.9z"/>
		<path class="st2" d="M-24,293.2c0,0,25.3,5.6,12.2,27.7c70.5-24.3,111.5-2.3,108,27.1c72.3-5.1,92.3,47.4,64.4,59.3
			c0,0,60.1-23.2,115.8,9c55.7-28.2,188.1,12.4,222.1,33.3l-515.7,1.2L-24,293.2z"/>
		<path class="st3" d="M1154.2,422.5c0,0-10-8.8-15.1-10.7s23.3-3.2,35.2,8.2c-15.7-13.3-20.7-16.4-20.7-16.4
			c-14.5-10.1,11.9-11.4,35.8,12.6l3.8,5c0,0-2.6-9.3,14.1-24.5s12.9-10.2,12.9-10.2s-15.7,20.2-13.2,33.5
			c15.7-18.9,25.8-32.2,52.8-28.4v0.6c0,0-25.1,11.4-29.2,30.3c6.8-3.8,27.9-27.1,56.9-15.1c-12,0.6-23.1,6.1-31,15.1L1154.2,422.5z
			"/>
		<path class="st3" d="M1377.2,419.5c0,0-10-8.8-15.1-10.7s23.3-3.2,35.2,8.2c-15.7-13.3-20.7-16.4-20.7-16.4
			c-14.5-10.1,11.9-11.4,35.8,12.6l3.8,5c0,0-2.6-9.3,14.1-24.5s12.9-10.2,12.9-10.2s-15.7,20.2-13.2,33.5
			c15.7-18.9,25.8-32.2,52.8-28.4v0.6c0,0-25.1,11.4-29.2,30.3c6.8-3.8,27.9-27.1,56.9-15.1c-12,0.6-23.1,6.1-31,15.1H1377.2z"/>
		
			<linearGradient id="SVGID_3_" gradientUnits="userSpaceOnUse" x1="839.8642" y1="813.8483" x2="705.0843" y2="-319.9716" gradientTransform="matrix(1 0 0 -1 0 900)">
			<stop  offset="0.15" style="stop-color:#9AF460"/>
			<stop  offset="0.25" style="stop-color:#8AEB5C"/>
			<stop  offset="0.44" style="stop-color:#61D351"/>
			<stop  offset="0.56" style="stop-color:#44C24A"/>
		</linearGradient>
		<path class="st4" d="M-13.2,434.6c196.7-1.9,393.3-3.9,589.9-6.2c239.7-2.7,479.3-5.7,719-9c227.2-7.8,297.1-4,297.1-4v163.8
			h-1608C-14.5,531-13.8,482.8-13.2,434.6z"/>
		
			<linearGradient id="SVGID_4_" gradientUnits="userSpaceOnUse" x1="-131.51" y1="387.0507" x2="1638.7444" y2="387.0507" gradientTransform="matrix(1 0 0 -1 0 900)">
			<stop  offset="0.43" style="stop-color:#6EC94C"/>
			<stop  offset="0.52" style="stop-color:#6ECC50"/>
			<stop  offset="1" style="stop-color:#44C24A"/>
		</linearGradient>
		<path class="st5" d="M-131.5,492.5c137.3-8.7,274.7-17.4,412-26.1c445.8-28.2,899.1,86.9,1340.1,14.9c1.9-0.3,10.2-1.9,14.8,2.6
			c12.8,12.5-14.8,58-14.8,58l-1738.9,22L-131.5,492.5z"/>
		
			<linearGradient id="SVGID_5_" gradientUnits="userSpaceOnUse" x1="-32.85" y1="344.4695" x2="1590.84" y2="344.4695" gradientTransform="matrix(1 0 0 -1 0 900)">
			<stop  offset="0.33" style="stop-color:#199E2F"/>
			<stop  offset="0.52" style="stop-color:#429B21"/>
			<stop  offset="1" style="stop-color:#44C24A"/>
		</linearGradient>
		<path class="st6" d="M-32.8,524.1c117.5-13.3,235.9-18,354.1-14.2c288.1,9.5,341.8,43.1,533,25.1c117.2-11,208.2-53.2,427.8-44.2
			s308.9,15.1,308.9,15.1v102.5l-871.4,9l-751.1,4.2C-32.1,589.1-32.5,556.6-32.8,524.1z"/>
		<path class="st7" d="M252.6,517.3c0,0-4.4-28.3,11.9-35.2S252.6,517.3,252.6,517.3z"/>
		<path class="st7" d="M321.5,514.2c0,0-18.2-21.4-24.5-22.6s2.5-13.8,20.7,4.4C317.8,496,323.4,504.7,321.5,514.2z"/>
		<path class="st7" d="M326.3,514.2c0,0-7.6-37-17.8-53.4s10.5-10.7,17.8,17S326.3,514.2,326.3,514.2z"/>
		<path class="st7" d="M331.9,514.2c0,0,2.8-32.6,24.8-35.2S341,491.6,331.9,514.2z"/>
		<path class="st7" d="M683.3,523.2c0,0-24.6-16.2-17.2-29.4C672,483.1,683.3,523.2,683.3,523.2z"/>
		<path class="st7" d="M687.3,521.6c0,0-12.9-16.3-6-24.8S687.3,521.6,687.3,521.6z"/>
		<path class="st7" d="M1193.5,544.2c0,0-13.2-19.5-5-33.3C1188.5,510.9,1192.2,537.3,1193.5,544.2z"/>
		<path class="st7" d="M1196.6,544.2c0,0-13.8-47.7,25.1-71C1221.7,473.2,1201,503.4,1196.6,544.2z"/>
		<path class="st7" d="M1198.5,544.2c0,0,7.5-43.3,31.4-54.6C1229.9,489.5,1204.2,526,1198.5,544.2z"/>
		<path class="st7" d="M1306.3,542c0,0-22.9-6.7-17.6-24.5C1292.5,505,1306.3,542,1306.3,542z"/>
		<path class="st7" d="M1311,540.2c0,0-12.9-21.3-4.7-30.1S1311,540.2,1311,540.2z"/>
		<path class="st7" d="M1353.8,546.2c0,0-22.6-5-22-18.8S1353.8,546.2,1353.8,546.2z"/>
		<path class="st7" d="M1359.8,546.2c0,0-12.6-34.5-22-43.3s16.3-9.5,22,26.6V546.2z"/>
		<path class="st7" d="M1362.3,546.2c0,0-6.3-26.9,17.3-28.3C1390.2,517.3,1362.3,546.2,1362.3,546.2z"/>
		<path class="st7" d="M1380.2,539.3c0,0,3.8-20.1,18.2-21.4S1380.2,539.3,1380.2,539.3z"/>
		<g class="st8">
			<path class="st9" d="M1676.2,590l-213.6-0.6L1249,589c-142.4-0.2-284.8-0.2-427.2,0s-284.8,0.8-427.2,2l-106.8,1l-13.4,0.1
				l-13.4,0.2l-26.7,0.4l-53.4,0.8l-26.7,0.4l-26.7,0.6l-53.4,1.1l-13.3,0.3c-4.5,0.1-8.9,0.2-13.4,0.3L20.9,597l-53.4,1.7l53.4-2
				l26.7-1c4.5-0.2,8.9-0.3,13.3-0.4l13.4-0.3l53.4-1.4l26.7-0.7l26.7-0.5l53.4-0.9l26.7-0.5l13.4-0.2l13.4-0.2l106.8-1.3l106.8-0.9
				c35.6-0.3,71.2-0.5,106.8-0.7c71.2-0.4,142.4-0.7,213.6-0.8c142.4-0.1,284.8,0,427.2,0.4l213.6,1L1676.2,590z"/>
		</g>
		<path class="st7" d="M37.5,517.3c0,0,5.3-36.9,26.7-41.4C64.2,475.9,56.5,503.9,37.5,517.3z"/>
		<path class="st10" d="M1273.8,497.4c12.2-14.7,27.3-29.6,45.3-40.4c40.2-24.1,74.9-16.1,96.4-6.6c32.8-59.5,80.2-62.2,111.2-2.7
			c11.8-51.4,41-36.5,80.2,2c38.3-30.4,75.7-0.7,87.5,15.6c72,10.8,108,19.3,107.9,25.4C1802.3,504.3,1626.1,506.5,1273.8,497.4z"/>
		<path class="st11" d="M234.1,186.1c-0.2,6.2-2.1,12.3-5.6,17.5c-8.8,12.6-23.5,12.2-25.1,12.1l0.5-27.9l-9.1,0.4v15.5
			c-3.9,0.8-8,0.2-11.5-1.6c-7.5-3.8-10-11.7-10.3-13.1l-3.8,0.1c0.8,2.5,1.5,5.1,2.3,7.6c-3.1,1.9-6.8,2.5-10.4,1.6
			c-6.5-1.8-9.2-8-9.5-8.8h-2.8c0,0,1.8,17.6,23.9,11.8c4,6.2,13.4,12.8,22.1,9.5c-0.5,19.2-3.4,94.3-3.4,94.3h10.2l1.8-82.3
			c9.3-0.5,18.1-4.8,24.3-11.8c9.1-10.2,9.8-22.4,9.9-25.4L234.1,186.1z"/>
		<path class="st11" d="M245.9,146.3c0,0-78.1-31.9-125.2,0c-40,31.2,1.1,44.5,28,43.2c41.6-0.5,92.5-3.9,92.5-3.9
			S297.7,176,245.9,146.3z"/>
		<path class="st11" d="M1601.3,190.1c-18.1-15.7-44-22.3-66.5-16.5c-30.7,7.9-51.3,38-43,69.7c-9-19.2-30.3-32.3-54.3-33.5
			c-34.8-1.8-54.8,22.3-55.7,23.4c0-4.2-0.4-31.9-26-49.6c-25.4-17.5-64.9-17.9-96,0.4c-8.4-32.5-39.3-56.9-76-60.9
			c-43.3-4.7-86.9,20-99,58.8c-40.5-35.3-101.7-39.5-139-15.1c-40.1,26.2-34.4,73.6-34,76.4c-28.7-29.6-75.5-41.9-118-31.1
			c-38.7,9.9-68,37.4-76,71.4c-23.6-17.6-56.4-19.3-77.4-6.1s-21.6,35.8-21.6,38.8c-6.4-0.7-24.6-1.9-43.5,7
			c-24.4,11.5-32,31.2-33.5,35.5c1.9-56.5-54-57.2-86-39.6c23-37.8-60-133.5-140-43.7c-2.8-4-19.5-26.9-50.3-31
			c-33.9-4.6-71.4,15.5-85.7,50c-24.5-16.4-52.7-26.2-82-28.6c-7.5-0.6-79.4-5.5-107,30.2c-7.3,9.4-9.6,19.2-12,29.4
			c-4.2,17.9-3.7,36.5,1.3,54.1c4.2,23.7,8.5,47.3,12.7,71h1178.7l420.8,4.1L1601.3,190.1z"/>
		<path class="st7" d="M54.7,517.3c0,0,9.4-22.5,30.1-31.1C84.8,486.2,86.9,518,54.7,517.3z"/>
		<path class="st7" d="M37.5,517.3c0,0-29.9-16.5-31-28.2S23.5,481.8,37.5,517.3z"/>
		<path class="st12" d="M1466.7,499.4c0,0-3.7-40.1,18-45C1484.8,454.3,1481.9,492.1,1466.7,499.4z"/>
		
			<linearGradient id="SVGID_6_" gradientUnits="userSpaceOnUse" x1="807.3" y1="551.85" x2="807.3" y2="-241.12" gradientTransform="matrix(1 0 0 -1 0 900)">
			<stop  offset="0.19" style="stop-color:#895A12"/>
			<stop  offset="0.23" style="stop-color:#966417"/>
			<stop  offset="0.31" style="stop-color:#B77D25"/>
			<stop  offset="0.34" style="stop-color:#C4872A"/>
		</linearGradient>
		<rect x="-19.2" y="516.9" class="st13" width="1652.9" height="430.8"/>
		<path class="st14" d="M-20.2,747.6c0,0,166.1-57,239-51.9s113.6,46.6,145.4,51.9s278.5,30.8,299.4,0s73.1-1.3,33.8-52.3
			s140.6-8.3,166.7,0S958,758,999.5,739.9c91.6-6.2,183.3-11.2,275.1-14.9c108.4-4.4,216.8-7.2,325.4-8.3V525.5
			c0,0-222.8,2.4-212.7,20.5s-179.2,58.3-197.4,46.2s45.6-35.2-34.4-38.2s-247.1,2-247.1,10s-47.6,33.1-67.8,18.1s-120.5-10-159-5
			s-124.5-5-78-18.1s132.7-47-23.3-33.6s-205.6,60.7-255.2,48.6s-107.3-7-86.1,16.1s-180.2,25.1-190.4,10S-20.2,621-20.2,621
			L-20.2,747.6z"/>
		<path class="st15" d="M1626.8,800.2c-87.3-10.2-175.1-15.3-263-15.1c-100.2,0.3-84.4,7.2-213,9c-119,1.7-163-3.8-239,16.1
			c-57.7,15.1-61.9,25.9-112,40.2c-104.1,29.6-193.4,13.1-260,1C89.5,769.7,22,770.9-5.2,807.2c-24.3,32.5-14.5,91,9,129.6
			c89.8,147.1,418.8,66.5,965,26.1c250.3-18.5,463.9-22.5,626-21.7C1605.5,894.1,1616.2,847.1,1626.8,800.2z"/>
		<ellipse class="st16" cx="360.8" cy="622.4" rx="76" ry="14.1"/>
		<ellipse class="st17" cx="39.8" cy="671.6" rx="76" ry="14.1"/>
		<ellipse class="st18" cx="960.3" cy="648" rx="51.5" ry="11.5"/>
		<ellipse class="st19" cx="1281.3" cy="619.9" rx="51.5" ry="11.5"/>
		<ellipse class="st20" cx="1203.3" cy="665.1" rx="51.5" ry="11.5"/>
		<ellipse class="st21" cx="553.3" cy="682.2" rx="51.5" ry="11.5"/>
		<ellipse class="st20" cx="609.8" cy="706.3" rx="36" ry="10.5"/>
		<path class="st22" d="M783.8,147.9l47.1,22.9l-17.7,33.4l-53.7-19.9l45.5,28.6L787,235.2c0,0-19-31.8-57.7-18.3l2.2-27.1l45-52.1
			L783.8,147.9z"/>
		<path class="st23" d="M799.6,173.8c0,0,46.2-23.8,49.5-30.1s-20.4-15.1-23.4-10.5S799.6,173.8,799.6,173.8z"/>
		<path class="st10" d="M515.9,377.5L603.1,232l46,38l-31.9-51.7l19.8-29.9l39.4,25.1l-27.3-39.9l19-16.9l54.5,22.4l-39.5-44.6
			l26-21.2l46.3,43.3l-29.3-43.3L737,95.8l43.3,42.5l-24.7-47.6l21.9-9c0,0,11.5,43.9,14.2,40s-5.6-40-5.6-40l10-1.7l6.7,29.4V80.1
			h40c0,0-113.4,120.5-125.4,137.2s-42.7,54.9-42.7,54.9S579.9,423.6,578,428.3S566.4,446,566.4,446s-14.6-5.6-16.8-10.2
			S515.9,377.5,515.9,377.5z"/>
		<path class="st22" d="M839.6,80.7l19.3,41.6h-46.1l42.5,12.2l-6.2,22.7c0,0-49.7-8.4-50.5-8.9l41.1,19.3l-18.3,33.5l-55.6-19.9
			l47.1,32.6l-18.5,18.4l-59.7-18.4l45.8,43.6l-27.7,46l-45.8-35.7l37.2,49.4l-28,39.1l-46.5-45l32.6,51l-16.2,31.5l-45.4-20.4
			l35.8,33.4L660,435.4l-39.1,32.4l-65.4-22.3l111.2-173.3C666.7,272.3,822.5,90.3,839.6,80.7z"/>
		<path class="st22" d="M106.3,93.1L54,94.6l2.5,37.8l57.1,3.9l-53.2,7.4l7.3,27.7c0,0,30.3-21.2,60.1,7l9.1-25.7l-19.8-66
			L106.3,93.1z"/>
		<path class="st23" d="M81.3,110.2c0,0-32.5-40.7-32.9-47.8s24.7-5.4,25.6,0S81.3,110.2,81.3,110.2z"/>
		<path class="st10" d="M257.2,413l-20.2-168.7l-57.5,15.8l50.1-34.1l-5.9-35.3l-46.2,6.7l41.2-25.2L208.2,149l-58.9-1.9l54.2-24.4
			l-15.1-30l-59.9,20.5L173,85.6L170.3,65l-56.9,21l41.9-33.3L139,35.6c0,0-28.4,35.4-29.3,30.7s21.5-34.2,21.5-34.2l-8.5-5.7
			l-18.1,24.1l12-26.8L80.1,7.2c0,0,54.4,156.5,58.6,176.8s16.6,67.6,16.6,67.6s24.7,177.1,24.5,182.1s3.4,20.9,3.4,20.9
			s15.6,0.9,19.5-2.4S257.2,413,257.2,413z"/>
		<path class="st22" d="M82.9,8.5l-34.5,30l42,18.9l-43.7-6.3l-3.6,23.3c0,0,48.7,12.7,49.7,12.7l-45.4,0.7l3.1,38.1l58.8,4.7
			L53.1,141l9.4,24.4l62,7.8l-59.6,21l6.5,53.4l56.4-13.8l-54.1,29.8l9.6,47.1l60.7-22l-50.5,33.1l2,35.4l49.8,0l-46.3,15.8
			l3.1,32.9l22.5,45.7l68.7,6.6l-30.9-203.8C162.6,254.4,94.6,24.3,82.9,8.5z"/>
		<path class="st10" d="M140.3,388.5L64.1,256.9l-44.3,31.7l31.6-44.3l-17.4-27l-37.7,20.6l26.9-34.1L6.1,188.3l-51.7,17.6
			l38.5-37.7l-23.5-19.7l-44.8,36.4l28.9-37l-9.5-16l-42,35.8l24.8-40.9l-20.1-8.7c0,0-12.3,38.2-14.7,34.7s6.7-35,6.7-35l-9.3-1.9
			l-7.3,25.6l1.1-25.9l-37.3-1.6c0,0,101.6,110.4,112.3,125.6s37.9,50,37.9,50s83,137,84.6,141.1s10.2,16,10.2,16s13.9-4.4,16.1-8.4
			S140.3,388.5,140.3,388.5z"/>
		<path class="st22" d="M-151.6,38.9L-171,74.8l43,1.8l-40.1,9.1l5,20.2c0,0,46.7-5.5,47.5-5.9l-39.1,15.4l15.9,30.2l52.6-15.4
			l-45.2,26.9l16.6,16.9l56.4-13.9l-44.3,36.6l24.2,41.6l44.1-29.7l-36.5,42l24.7,35.5l45-37.8L-33.3,292l14,28.4l43.1-16.2
			l-34.6,28l14.1,25.9l35.4,30.1l61.8-17.1L3,214.3C3,214.3-135.9,48.1-151.6,38.9z"/>
		<path class="st24" d="M314.9,266l19.7-8.7c-0.4,0.2,3.2,4.7,3.2,4.7L314.9,266z"/>
		<path class="st10" d="M404.7,384.9l-58.2-110.5l54.6-17.3l-58.3-1.3l-13.7-31.6l40.8-18.7l-46.4,1.1l-3.6-24.2l46.5-32.4
			l-56.5,8.6l-3.5-32.1l59.1-14.8l-50.2,1l-8.6-18l56.9-12.8l-51.2-5l4.2-22.4c0,0,41.4,13.7,39.6,9.5s-35.2-16.4-35.2-16.4l3.9-9
			l27.2,10l-23.7-15.4l20.9-32.4c0,0,37.8,154.9,45,173.5s21.9,63.4,21.9,63.4s72.5,156.1,75.3,160s8.2,18.6,8.2,18.6
			s-12.1,8.9-17,8.3S404.7,384.9,404.7,384.9z"/>
		<path class="st22" d="M348.7,0.7l43.4,6.7l-23.4,36.3l31.4-27l15.2,16.8c0,0-32,34.7-32.8,35.1l36.5-22.2l17.7,32l-44.3,33.3
			l50.3-20l-0.9,27.4l-38.8,34.2l58.5-13.1l23.1,46l-52.1,17.3l58.8-3.4l17.3,42.6l-60,13l57.7,1.2l17.2,29.3l-39.5,25l45.1-10.7
			l15,27.9l6.3,47.9l-51.2,39.8l-83.5-178.7C415.6,237.6,347.8,19.3,348.7,0.7z"/>
		<path class="st24" d="M208.9,294.2l19.7-8.7c-0.4,0.2,3.2,4.7,3.2,4.7L208.9,294.2z"/>
		<path class="st22" d="M298.7,413l-58.2-110.5l54.6-17.3l-58.3-1.3l-13.7-31.6l40.8-18.7l-46.4,1.1l-3.6-24.2l46.5-32.4l-56.5,8.6
			l-3.5-32.1l59.1-14.8l-50.2,1l-8.6-18l56.9-12.8l-51.2-5l4.2-22.4c0,0,41.4,13.7,39.6,9.4s-35.2-16.4-35.2-16.4l3.9-9l27.2,10
			l-23.7-15.4l20.9-32.4c0,0,37.8,154.9,45,173.5s21.9,63.3,21.9,63.3s72.5,156.1,75.3,160s8.2,18.6,8.2,18.6s-12.1,8.9-17,8.3
			S298.7,413,298.7,413z"/>
		<path class="st22" d="M242.7,28.9l43.4,6.7l-23.4,36.3l31.4-27l15.2,16.8c0,0-32,34.7-32.8,35.2l36.5-22.2l17.7,32l-44.3,33.3
			l50.3-20l-0.9,27.4l-38.8,34.2l58.5-13.1l23.1,46l-52.1,17.3l58.8-3.4l17.3,42.6l-60,13l57.7,1.1l17.2,29.3l-39.5,25l45.1-10.6
			l15,27.9l6.3,47.9l-51.2,39.8l-83.5-178.7C309.6,265.7,241.8,47.4,242.7,28.9z"/>
		<ellipse class="st25" cx="418.7" cy="723.2" rx="159" ry="33.1"/>
		<ellipse class="st26" cx="861.5" cy="585.9" rx="159" ry="38.7"/>
		<ellipse class="st26" cx="1258.5" cy="695.3" rx="159" ry="29.6"/>
		<path class="st27" d="M288.8,479.5l-87.5-100.2l86.2-6.3c0,0-45.1-16.7-92.7-11.4c0,0-109.5-109.4-57.5-155.6
			c29.4-18.6,76.7-0.8,76.7-0.8l2.8,69.8c0,0,14.5-39.9,14.5-54.2c0,0,43.9,27.7,61.3,50.8s57.1,65.8,57.1,65.8l-21.2,72
			c0,0,38.5-34.6,39-45.3l58.3,64.2L288.8,479.5z"/>
		<path class="st10" d="M309.2,471.8l-75.3-94.6l51.1-3.2c0,0-39.3-17.1-64.6-13.6c-33.5-31.1-69.3-88.1-68-99.5s10.6-60.4,62.2-45
			l-0.8,54.8l18.4-39.6c0,0,92.1,90.5,105.9,144.9l-6.8,31.3l19-18l42.8,51.2L309.2,471.8z"/>
		<polygon class="st27" points="357.5,453.8 138.9,209.6 149.4,205.7 378.5,446 		"/>
		<path class="st28" d="M578.4,438.1c0,0,38.3-168.2,28.7-176.3c-36.3-4.5-54.6-7.2-54.6-7.2s20.2-24.2,53.5-24.7
			c0,0,4.1-79.6-28.6-137.1c0,0-23,24.1-34.2,24.2s11.7-24.1,17.7-27.5c4.3-2.5,8.3-5.4,12.1-8.7c0,0-33.3-69.4-79.2-63.2
			s-21.3,85.5-19.5,102.6s9.1,46.6,9.1,46.6l53.2,43.8L489,191.9l3.4,50l35.9,1.4l-32.5,11l-0.8,75.6l27.8,13.1c0,0-4,8.5-29.2-4.4
			c-3.3,18.7-5.6,37.5-6.7,56.5L578.4,438.1z"/>
		<path class="st10" d="M492.9,382.5l7-54.9c0,0,14.6,5.5,20.8,1.7l-20.5-10.4l2.4-77.3l22.4-7.9l-24.1-1.2l0.4-42.4l32.1,11.3
			l-43.5-34.9c0,0-11.7-90.2-6.3-106.5s39.7-55.5,70.7,24.2c0,0-38.9,43.7,8.1,16.7c0,0,31.7,90.6,22.7,121.1
			c-23.1,11.1-24.8,13.2-24.8,13.2s-9,17.7,22.7,10.7l4,1.1c0,0-7.8,146.3-14,164.5s-2.9,6.2-2.9,6.2L492.9,382.5z"/>
		<path class="st27" d="M515.9,408.6c0,0,19-61.9,22.1-109.4s-4.4-132.9-7.6-154.9S499.9,29,490.8,18c0,0,40.3,46.4,51,112.8
			c12,65.4,13.1,155.1,11.1,171.8s-22.1,113-22.1,113L515.9,408.6z"/>
		<path class="st22" d="M738.6,433.8l70.2-90.6l-77.4-0.8c0,0,38.9-16.7,81.8-14.7c0,0,89.1-99.8,39.1-136.6
			c-27.7-14.4-68.5,3.4-68.5,3.4l3,60c0,0-16.1-33.4-17.2-45.7c0,0-37,26.1-50.7,46.9s-45.8,59.5-45.8,59.5l24.6,60.6
			c0,0-37.1-27.6-38.4-36.7l-47,58.2L738.6,433.8z"/>
		<path class="st10" d="M719.8,428.4l59.7-85.1h-45.8c0,0,33.7-16.7,56.6-15.1c27.4-28.5,54.8-79.3,52.8-89s-14.3-51.3-59-35.3l5,47
			l-19.5-32.9c0,0-75.1,82.6-83,129.9l8.5,26.5l-18.4-14.4l-34.1,46.2L719.8,428.4z"/>
		<polygon class="st27" points="675.3,415.3 851.1,194.1 841.5,191.3 656,409.7 		"/>
		<path class="st29" d="M197.4,390.5c0,0-62.6-132.5-72.2-132.9c-23.2,16-35.1,23.9-35.1,23.9s-0.6-26.8,18.3-44.6
			c0,0-37.7-55.4-85.5-76.6c0,0-1.1,28.2-7.5,34.2s-5.4-22.2-3.6-27.7c1.2-4,2-8,2.6-12.1c0,0-54.1-28.9-77.4-0.7
			s30.8,68.4,40.4,78.9s28.7,26.3,28.7,26.3l52.7,1.4l-36.8,12.4l27.2,31.6l21.4-18L57.3,311l37.7,51l22.6-5.9c0,0,2,7.8-19,12.4
			c11.4,22,75.9,93.1,75.9,93.1L197.4,390.5z"/>
		<path class="st22" d="M173.6,458.9l-69.4-91.4c0,0,11.8-4.1,13.6-10.3l-18,4l-39.5-55.2l9.5-17.9l-15.3,12.4l-22.2-29.9l25.5-9.8
			l-44.9-0.4c0,0-54.8-56.6-60.2-71s-5.3-60.6,55.8-22.1c0,0-0.5,52,13.8,7.2c0,0,67.2,45.8,77.9,72.1c-8.2,20.4-8.1,22.9-8.1,22.9
			s3.9,17.3,19.4-5l3-1.4c0,0,72.7,106.5,78.5,122.6s35.9,53.1,35.9,53.1L173.6,458.9z"/>
		<path class="st30" d="M176.4,453.3c0,0-50-100.9-72.1-134.3s-69.5-86.5-82.4-99.6s-75.7-61.1-86.4-63.6c0,0,46.6,9.8,86.2,48.6
			c39.8,37.4,85.7,96.8,92.9,109.1s72,140.7,72,140.7L176.4,453.3z"/>
		<path class="st22" d="M530.7,400.5c0,0,13.2-190.7,24.5-195.7c35.1,8.6,53,12.5,53,12.5s-11.8-32.9-42.7-45.6
			c0,0,19.3-85.1,66.5-133.5c0,0,14.5,33.8,24.9,38s-3.9-29.6-8.5-35.4c-3.3-4.3-6.2-8.8-8.7-13.5c0,0,51.3-60.7,92.3-37.4
			s-5,97.6-11.7,115s-22.1,45.6-22.1,45.6l-62.4,26.5l49.8-2.3L668,225.9l-33.9-11.7l27.1,23.5l-21.3,79.7l-29.7,3.5
			c0,0,1.2,10.4,28.5,6.1c-3.4,32-47.4,149-47.4,149L530.7,400.5z"/>
		<path class="st10" d="M590.8,472.1l40.4-143.9c0,0-16,0.5-21-6.1l23.4-3.6l21.5-85.8l-19.7-17.2l24,7.9l12.7-46.8l-35,0.1
			l53.5-21.6c0,0,39.3-94.7,39-114.7s-21.9-76.1-76.9-0.5c0,0,24.8,62.9-13.1,15.2c0,0-59,87.4-59.6,124.4
			c19.3,21,20.4,24.1,20.4,24.1s3.4,22.9-25.6,3l-4.2-0.3c0,0-37.4,163.8-36.9,186.1s-18.2,81.5-18.2,81.5L590.8,472.1z"/>
		<path class="st27" d="M585.1,466.8c0,0,12.8-146.3,23.7-197.4s42.8-138,52.2-160s62-110,73.7-118.1c0,0-51.1,33.9-80.4,99.8
			c-30.2,64.3-57.4,158.1-60.4,176.4s-20.5,205.1-20.5,205.1L585.1,466.8z"/>
		<path class="st22" d="M469.6,442.2c0,0-60.8-186.7-70.5-188.8c-23.7,17.5-35.9,26-35.9,26s0-35.8,19.4-56.3c0,0-37.1-79.9-85-116
			c0,0-1.7,37.3-8.3,44.2s-5-30.4-3.2-37.4c1.3-5.2,2.3-10.4,2.9-15.8c0,0-54.2-47.4-78.3-13.7s29.8,96,39.4,111.6
			c9.6,15.6,28.5,39.8,28.5,39.8l53.3,10.5l-37.5,10.4l26.9,46.5l22-20.4l-13.9,30.3l37.1,74l23-4.1c0,0,1.9,10.7-19.5,13.3
			c11.1,31.1,24.1,59,24.1,59L469.6,442.2z"/>
		<path class="st10" d="M439.1,534l-63.3-138.5c0,0,12-3.6,13.9-11.5l-18.3,2.4l-38.9-80l9.9-22.2l-15.7,14l-21.9-43.4l26-8.8
			l-45.4-7.9c0,0-54.5-84.4-59.6-104.4s-4.1-81.4,56.8-20.1c0,0-1.5,69,13.8,11.8c0,0,67.1,72,77.4,108.7
			c-8.7,25.9-8.6,29.2-8.6,29.2s3.6,23.6,19.7-3.5l3.1-1.4c0,0,71.5,153.6,77.1,176s1.4,8.2,1.4,8.2L439.1,534z"/>
		<path class="st27" d="M417.9,451.4c0,0-19.5-71.6-41.2-119.7S308.1,205,295.3,185.6S220,91.8,209.1,86.7c0,0,46.9,20.7,86.2,78.9
			C335,222,380.2,308.5,387.3,326s43,123.2,43,123.2L417.9,451.4z"/>
		<path class="st31" d="M473.1,707.3c0,0,58.7-25,84.1-25.4s-8.9-23.8-56.2-2C501,679.9,474.9,694.5,473.1,707.3z"/>
		<path class="st31" d="M477.4,706.2c0,0,64.9-60.5,79.7-63.8s-6.2-23.1-57.5,27.3C499.7,669.7,474.5,697.5,477.4,706.2z"/>
		<path class="st31" d="M485.3,692.5c0,0,47.5-63.1,61-68.8S510.9,617.9,485.3,692.5z"/>
		<path class="st31" d="M494.4,670.5c0,0,40.9-51,32.3-70.7S508.8,640.1,494.4,670.5z"/>
		<path class="st31" d="M489.5,666.7c0,0,37.1-66.2,15.5-85.7S505.9,616.8,489.5,666.7z"/>
		<path class="st31" d="M487.6,665.1c0,0,6.7-33.6-15.5-48.3S488.4,653.8,487.6,665.1z"/>
		<path class="st31" d="M1270.8,707c0,0,46.7-19.9,66.9-20.2s-7.1-18.9-44.7-1.6C1292.9,685.3,1272.2,696.9,1270.8,707z"/>
		<path class="st31" d="M1274.2,706.1c0,0,51.7-48.1,63.4-50.7s-4.9-18.3-45.7,21.7C1291.9,677.1,1271.9,699.2,1274.2,706.1z"/>
		<path class="st31" d="M1280.5,695.3c0,0,37.8-50.2,48.5-54.7S1300.9,635.9,1280.5,695.3z"/>
		<path class="st31" d="M1287.7,677.8c0,0,32.5-40.6,25.7-56.3S1299.2,653.6,1287.7,677.8z"/>
		<path class="st31" d="M1283.9,674.7c0,0,29.5-52.7,12.3-68.2S1296.9,635,1283.9,674.7z"/>
		<path class="st31" d="M1282.3,673.5c0,0,5.3-26.7-12.3-38.4S1282.9,664.4,1282.3,673.5z"/>
		<path class="st31" d="M1237.9,715.3c0,0-58.7-25-84.1-25.4s8.9-23.8,56.2-2C1210.1,688,1236.1,702.6,1237.9,715.3z"/>
		<path class="st31" d="M1233.6,714.2c0,0-64.9-60.5-79.7-63.8s6.2-23.1,57.5,27.3C1211.3,677.7,1236.6,705.5,1233.6,714.2z"/>
		<path class="st31" d="M1225.7,700.6c0,0-47.5-63.1-61-68.8S1200.1,625.9,1225.7,700.6z"/>
		<path class="st31" d="M1216.6,678.6c0,0-40.9-51-32.3-70.7S1202.2,648.2,1216.6,678.6z"/>
		<path class="st31" d="M1221.5,674.7c0,0-37.1-66.2-15.5-85.7S1205.1,624.9,1221.5,674.7z"/>
		<path class="st31" d="M1223.4,673.2c0,0-6.7-33.6,15.5-48.3S1222.7,661.8,1223.4,673.2z"/>
		<rect x="164.8" y="-321.6" class="st32" width="1600" height="903.9"/>
		<path class="st33" d="M363.7,389c0.5,1.3,1.1,2.6,1.6,4s0.9,2.7,1.3,4.1s0.8,2.8,1,4.2s0.5,2.8,0.7,4.2c0.4,2.8,0.5,5.7,0.3,8.6
			c-0.1,2.9-0.7,5.7-1.6,8.5l-0.3,0.8l-0.5-0.7c-4.2-5.3-8.7-10.3-13.6-15c-2.4-2.4-5-4.6-7.7-6.6c-2.7-2-5.6-3.7-8.8-5
			c3.2,1.1,6.3,2.7,9.1,4.6c2.8,1.9,5.5,4.1,8,6.4c2.5,2.3,4.9,4.7,7.2,7.2s4.5,5.1,6.6,7.8l-0.8,0.1c0.9-2.6,1.5-5.4,1.6-8.2
			c0.2-2.8,0.1-5.6-0.1-8.4c-0.3-2.8-0.8-5.6-1.4-8.4c-0.3-1.4-0.7-2.7-1.1-4.1L363.7,389z"/>
		<path class="st33" d="M365.8,422.1c-1.7-1.1-3.5-2.1-5.3-2.9l-2.8-1.3c-0.9-0.4-1.9-0.8-2.8-1.1l-2.9-1l-2.9-0.9
			c-2-0.5-3.9-0.9-5.9-1.2l-1.5-0.3l-1.5-0.2c-1-0.1-2-0.3-3-0.3c-2-0.1-4-0.2-6,0c-4,0.2-8.1,0.7-12,1.6l2.9-0.8c1-0.3,2-0.5,3-0.7
			l3-0.5c1-0.2,2-0.2,3-0.3c2-0.2,4.1-0.2,6.1-0.1c1,0,2,0.2,3.1,0.3l1.5,0.1l1.5,0.3c4,0.7,8,1.8,11.8,3.4
			C359,417.7,362.5,419.7,365.8,422.1z"/>
		<path class="st33" d="M341.2,431.8c1.9-1.3,3.8-2.5,5.8-3.6c2-1.1,4.1-2.1,6.2-3c2.1-0.9,4.3-1.6,6.5-2.2c2.2-0.6,4.5-1,6.8-1.2
			h0.3l0.1,0.3c1.2,2.1,2.2,4.4,3.1,6.6c0.9,2.2,1.8,4.5,2.6,6.8s1.5,4.6,2.2,6.9s1.3,4.7,1.9,7c-0.4-1.1-0.8-2.3-1.1-3.4l-1.2-3.4
			c-0.8-2.3-1.6-4.6-2.5-6.8s-1.7-4.5-2.7-6.7s-2-4.4-3.1-6.5l0.4,0.2c-2.2,0.1-4.5,0.5-6.6,1.1c-2.2,0.6-4.4,1.2-6.5,2
			c-2.1,0.8-4.2,1.7-6.3,2.7c-1,0.5-2,1-3,1.5L341.2,431.8z"/>
		<path class="st33" d="M363.7,389c0.5,1.3,1.1,2.6,1.6,4s0.9,2.7,1.3,4.1s0.8,2.8,1,4.1s0.5,2.8,0.7,4.2c0.4,2.8,0.5,5.7,0.3,8.6
			c-0.1,2.9-0.7,5.7-1.6,8.5l-0.3,0.8l-0.5-0.7c-4.2-5.3-8.7-10.3-13.6-15c-2.4-2.4-5-4.6-7.7-6.6c-2.7-2.1-5.6-3.7-8.8-5
			c3.2,1.1,6.3,2.6,9.1,4.6c2.8,1.9,5.5,4.1,8,6.4c2.5,2.3,4.9,4.7,7.2,7.2s4.5,5.1,6.6,7.8l-0.8,0.1c0.9-2.6,1.5-5.4,1.6-8.2
			c0.2-2.8,0.1-5.6-0.1-8.4c-0.3-2.8-0.8-5.6-1.4-8.3c-0.3-1.4-0.7-2.7-1.1-4.1L363.7,389z"/>
		<path class="st33" d="M365.8,422c-1.7-1.1-3.5-2-5.3-2.9c-0.9-0.4-1.8-0.9-2.8-1.3s-1.9-0.8-2.8-1.1l-2.9-1l-2.9-0.9
			c-1.9-0.5-3.9-0.9-5.9-1.3l-1.5-0.3l-1.5-0.2c-1-0.1-2-0.3-3-0.3c-2-0.1-4-0.2-6,0c-4,0.2-8.1,0.7-12,1.6l2.9-0.8
			c1-0.3,2-0.5,3-0.7l3-0.5c1-0.2,2-0.2,3-0.3c2-0.2,4.1-0.2,6.1-0.1c1,0,2,0.2,3.1,0.3l1.5,0.1l1.5,0.3c4,0.7,7.9,1.8,11.7,3.3
			C358.9,417.5,362.5,419.5,365.8,422z"/>
		<path class="st33" d="M341.1,431.7c1.9-1.3,3.8-2.5,5.8-3.6c2-1.1,4.1-2.1,6.2-3c2.1-0.9,4.3-1.6,6.5-2.2c2.2-0.6,4.5-1,6.8-1.2
			h0.3l0.1,0.3c1.2,2.1,2.2,4.4,3.1,6.6c0.9,2.2,1.8,4.5,2.6,6.8s1.5,4.6,2.2,6.9s1.3,4.7,1.9,7c-0.4-1.1-0.8-2.3-1.1-3.5l-1.2-3.4
			c-0.8-2.3-1.6-4.6-2.5-6.8s-1.7-4.5-2.7-6.7s-2-4.4-3.1-6.5l0.4,0.2c-2.2,0.1-4.5,0.5-6.6,1.1c-2.2,0.5-4.3,1.3-6.5,2
			c-2.1,0.8-4.2,1.7-6.2,2.7c-1,0.5-2,1-3,1.5L341.1,431.7z"/>
		<path class="st33" d="M400.4,438.5l-1.7-1.8c-0.6-0.6-1.1-1.2-1.7-1.8c-1.2-1.1-2.4-2.2-3.7-3.2c-0.6-0.5-1.3-1-1.9-1.5l-2-1.3
			c-0.7-0.4-1.4-0.8-2.1-1.2c-0.7-0.4-1.4-0.8-2.1-1.1c-2.9-1.4-6-2.4-9.1-3.1c-3.1-0.7-6.3-1-9.5-0.8l-1.3,0.1l0.8-0.9
			c2.4-2.5,5.1-4.6,8.2-6.1c3-1.6,6.2-2.9,9.5-3.7c1.6-0.4,3.3-0.8,5-1c1.7-0.3,3.3-0.4,5-0.5c0.8-0.1,1.7-0.1,2.5-0.1h2.5
			c1.7,0.1,3.4,0.2,5,0.4c-1.7,0-3.4-0.1-5-0.1l-2.5,0.1c-0.8,0-1.7,0.1-2.5,0.2c-1.7,0.2-3.3,0.3-5,0.7s-3.3,0.7-4.9,1.1
			c-3.2,0.9-6.3,2.2-9.2,3.8c-2.9,1.6-5.6,3.6-7.8,6l-0.4-0.8c3.3-0.2,6.6,0.1,9.8,0.9c3.2,0.7,6.3,1.8,9.2,3.3
			c0.8,0.3,1.4,0.8,2.1,1.2c0.7,0.4,1.4,0.8,2.1,1.3l2,1.4c0.6,0.5,1.3,1,1.9,1.5c1.2,1.1,2.4,2.2,3.5,3.4
			C398.4,436,399.4,437.3,400.4,438.5z"/>
		<path class="st34" d="M546.1,400.6c0.1,1.9,0.2,3.9,0.2,5.8s0,3.9-0.1,5.8s-0.3,3.9-0.5,5.8c-0.1,1-0.2,1.9-0.4,2.9l-0.5,2.9
			c-0.8,3.8-1.9,7.5-3.4,11.1c-1.4,3.6-3.4,7.1-5.8,10.2l-0.5,0.6l-0.3-0.8c-1.5-4.3-3.2-8.6-5-12.8s-3.8-8.4-6-12.5
			c-2.1-4.1-4.5-8-7.1-11.8c-2.6-3.8-5.6-7.3-9.1-10.3c3.7,2.9,6.9,6.2,9.6,10c2.7,3.7,5.2,7.7,7.4,11.7c2.2,4.1,4.2,8.2,6.1,12.5
			s3.6,8.5,5.1,12.9l-0.8-0.2c2.3-3,4.2-6.3,5.7-9.9c1.5-3.5,2.6-7.2,3.5-10.9l0.6-2.8c0.2-0.9,0.3-1.9,0.5-2.8
			c0.3-1.9,0.5-3.8,0.7-5.7s0.2-3.8,0.3-5.8L546.1,400.6z"/>
		<path class="st34" d="M534.4,444.1c-1.7-2.2-3.6-4.2-5.5-6.2c-1-1-2-1.9-3-2.9s-2.1-1.8-3.1-2.7l-3.2-2.5l-3.3-2.4
			c-2.3-1.5-4.6-2.9-7.1-4.2l-1.8-1l-1.9-0.9c-1.3-0.6-2.5-1.2-3.7-1.7c-2.6-1-5.1-2-7.8-2.7c-5.3-1.5-10.7-2.6-16.2-3.1l4.1,0.3
			c1.4,0.1,2.8,0.2,4.1,0.4l4.1,0.7c0.7,0.1,1.3,0.3,2,0.5l2,0.5c2.7,0.7,5.3,1.6,7.9,2.6c1.3,0.5,2.5,1.1,3.8,1.7l1.9,0.9l1.8,1
			c4.9,2.6,9.5,5.8,13.7,9.5C527.4,435.4,531.2,439.5,534.4,444.1z"/>
		<path class="st34" d="M498.5,445.7c1.5-0.4,3-0.8,4.5-1.1s3-0.7,4.6-0.9c3.1-0.5,6.2-0.8,9.3-1c3.1-0.2,6.2-0.1,9.3,0.1
			c3.1,0.2,6.2,0.7,9.3,1.5l0.3,0.1l0,0.3c0.6,3.3,1,6.6,1.2,9.9c0.2,3.3,0.4,6.6,0.4,9.9s0,6.6-0.1,9.9s-0.3,6.6-0.6,9.9l0.1-4.9
			v-4.9c0-3.3,0-6.6-0.2-9.9s-0.3-6.6-0.5-9.8c-0.2-3.3-0.7-6.5-1.2-9.7l0.3,0.4c-2.9-0.8-6-1.3-9-1.5c-3.1-0.2-6.1-0.3-9.2-0.2
			c-3.1,0.1-6.2,0.4-9.2,0.8c-1.5,0.2-3,0.5-4.6,0.7L498.5,445.7z"/>
		<path class="st34" d="M546.1,400.5c0.1,1.9,0.2,3.9,0.2,5.8s0,3.9-0.1,5.8s-0.3,3.9-0.5,5.8c-0.1,1-0.2,1.9-0.4,2.9l-0.5,2.9
			c-0.8,3.8-1.9,7.5-3.4,11.1c-1.4,3.6-3.4,7.1-5.8,10.1l-0.5,0.7l-0.3-0.8c-1.5-4.3-3.2-8.6-5-12.8s-3.8-8.4-6-12.5
			c-2.1-4.1-4.5-8-7.1-11.8c-2.6-3.8-5.7-7.3-9.1-10.3c3.6,2.9,6.9,6.2,9.6,10c2.7,3.7,5.2,7.6,7.4,11.7c2.2,4,4.2,8.2,6.1,12.5
			s3.6,8.5,5.1,12.9l-0.8-0.2c2.3-3,4.2-6.3,5.7-9.9c1.5-3.5,2.6-7.2,3.5-10.9l0.6-2.8c0.2-0.9,0.3-1.9,0.5-2.8
			c0.3-1.9,0.5-3.8,0.7-5.7s0.2-3.8,0.3-5.8V400.5z"/>
		<path class="st34" d="M534.4,444c-1.7-2.2-3.6-4.2-5.5-6.1c-1-1-2-1.9-3-2.9s-2-1.8-3.1-2.7l-3.2-2.5l-3.3-2.4
			c-2.3-1.5-4.6-2.9-7.1-4.2l-1.8-1l-1.9-0.9c-1.3-0.6-2.5-1.2-3.8-1.7c-2.5-1-5.1-1.9-7.8-2.7c-5.3-1.5-10.7-2.6-16.2-3.1l4.1,0.3
			c1.4,0.1,2.8,0.2,4.1,0.4l4.1,0.7c0.7,0.1,1.3,0.3,2,0.5l2,0.5c2.7,0.7,5.3,1.6,7.9,2.6c1.3,0.5,2.5,1.1,3.8,1.7l1.9,0.9l1.8,1
			c4.9,2.6,9.5,5.8,13.7,9.5C527.5,435.3,531.2,439.4,534.4,444z"/>
		<path class="st34" d="M498.5,445.6c1.5-0.4,3-0.8,4.5-1.1s3-0.7,4.6-0.9c3.1-0.5,6.2-0.9,9.3-1c3.1-0.2,6.2-0.2,9.3,0.1
			c3.1,0.2,6.2,0.7,9.3,1.5l0.3,0.1l0.1,0.3c0.6,3.3,1,6.6,1.2,9.9c0.2,3.3,0.4,6.6,0.4,9.9s0,6.6-0.1,9.9s-0.3,6.6-0.6,9.9l0.1-4.9
			V474c0-3.3,0-6.6-0.2-9.9s-0.3-6.6-0.5-9.8c-0.2-3.3-0.7-6.5-1.2-9.7l0.3,0.4c-2.9-0.8-6-1.3-9-1.5c-3.1-0.2-6.1-0.3-9.2-0.2
			c-3.1,0.1-6.2,0.4-9.2,0.8c-1.5,0.2-3,0.5-4.6,0.7L498.5,445.6z"/>
		<path class="st34" d="M571.8,480.4l-1.3-3l-0.7-1.5l-0.3-0.8l-0.4-0.7c-1-2-2.1-3.9-3.3-5.7c-0.6-0.9-1.2-1.8-1.8-2.7l-2-2.6
			c-0.7-0.9-1.4-1.7-2.1-2.5c-0.8-0.8-1.5-1.6-2.3-2.4c-3.1-3.1-6.6-5.8-10.4-8c-3.7-2.3-7.7-4-12-5.2l-1.2-0.3l1.1-0.6
			c4.1-2.2,8.5-3.6,13.1-4.3c4.5-0.7,9.2-1,13.7-0.6c2.3,0.2,4.6,0.5,6.8,0.9c1.1,0.2,2.3,0.3,3.4,0.6l3.3,0.8
			c1.1,0.3,2.2,0.6,3.3,1l3.3,1.1c2.1,0.8,4.2,1.8,6.3,2.6c-2.1-0.8-4.3-1.6-6.4-2.4l-3.3-1c-1.1-0.4-2.2-0.7-3.3-0.9l-3.3-0.8
			c-1.1-0.3-2.2-0.4-3.4-0.6c-2.2-0.4-4.5-0.6-6.8-0.7c-4.5-0.2-9.1,0-13.5,0.8c-4.4,0.7-8.8,2.2-12.7,4.3l-0.2-0.9
			c4.3,1.2,8.4,3,12.2,5.4c1.9,1.2,3.7,2.4,5.5,3.8l2.6,2.1l2.4,2.3c0.8,0.8,1.5,1.6,2.3,2.5c0.8,0.8,1.5,1.7,2.1,2.6l2,2.7
			c0.6,0.9,1.2,1.9,1.8,2.8c1.1,1.9,2.2,3.8,3.1,5.9C570.2,476.2,570.9,478.3,571.8,480.4z"/>
		<path class="st35" d="M360.8,475.9c12.8-15.7,28.8-31.7,47.8-43.3c42.4-25.9,79-17.2,101.7-7.1c34.6-63.8,84.6-66.7,117.3-2.9
			c12.5-55.1,43.3-39.2,84.6,2.2c40.4-32.6,79.8-0.7,92.3,16.7c76,11.6,113.9,20.6,113.8,27.2C918.3,483.3,732.4,485.7,360.8,475.9z
			"/>
		<path class="st36" d="M909.6,846.6c0,0-25.7-28.3-40.8-35.8s14.4-8.2,34.5,15.4C903.3,826.2,913.3,840.3,909.6,846.6z"/>
		<path class="st36" d="M917.1,846.6c0,0-17.1-45.8-24.9-51.5s12.3-8.8,24.9,28.6C917.1,823.7,922.1,843.4,917.1,846.6z"/>
		<path class="st36" d="M926.2,846.6c0,0-6.6-42.1-12.9-48.3S937.2,805.1,926.2,846.6z"/>
		<path class="st36" d="M930,846.6c0,0-0.3-35,13.2-40.5S935.3,829,930,846.6z"/>
		<path class="st36" d="M934.4,846.6c0,0,8.5-40.2,29.2-41.1S947.2,820.2,934.4,846.6z"/>
		<path class="st36" d="M723.9,872.3c0,0-31.1-41.1-49.3-52.1s17.4-11.9,41.7,22.4C716.3,842.6,728.5,863.2,723.9,872.3z"/>
		<path class="st36" d="M733,872.3c0,0-20.6-66.7-30-75s14.9-12.8,30,41.6C733,839,739.1,867.8,733,872.3z"/>
		<path class="st36" d="M744,872.3c0,0-8-61.2-15.5-70.3S757.3,812,744,872.3z"/>
		<path class="st36" d="M748.5,872.3c0,0-0.4-51,15.9-58.9S755,846.7,748.5,872.3z"/>
		<path class="st36" d="M753.8,872.3c0,0,10.2-58.5,35.2-59.9S769.4,834,753.8,872.3z"/>
		<path class="st37" d="M700.6,452.3c0,0-9.9,15.5-8.1,31c0,0,15.4-24.6,30.7-17.1c0,0,29.7,12,34.9,20.8c0,0-7.2-36.9-17.8-40.5
			c0,0,28.4-1.3,35.5,7.6c0,0-13.6-23.5-31.5-22c0,0,14.7-20.5,39-22.3c0,0-49.8-4.1-59,14.5c0,0-11.3-16.8-31.7-18.7
			c0,0,12.7,17.7,14.1,28.5c0,0-33.3-13-58.2,5.2c0,0,29.7-5.1,34.9,4c0,0-23.5,15.6-22.8,24.3"/>
		
			<linearGradient id="SVGID_7_" gradientUnits="userSpaceOnUse" x1="-88.64" y1="388.1617" x2="1665.8408" y2="388.1617" gradientTransform="matrix(1 0 0 -1 0 900)">
			<stop  offset="0.43" style="stop-color:#228835"/>
			<stop  offset="0.52" style="stop-color:#228835"/>
			<stop  offset="1" style="stop-color:#76DF57"/>
		</linearGradient>
		<path class="st38" d="M-88.6,492.1c136.1-8.5,272.2-16.9,408.3-25.3c441.9-27.3,891.1,84.2,1328.1,14.5c1.9-0.3,10.1-1.8,14.7,2.6
			c12.7,12.1-14.7,56.3-14.7,56.3L-75.6,561.3C-79.9,538.2-84.3,515.2-88.6,492.1z"/>
		<polygon class="st39" points="-63.5,464.2 1662.5,483.8 1658.8,516.9 -88.6,492.1 		"/>
		<path class="st27" d="M111.3,399.4c0,0,34.3-138.1,118.5-77.3c27.7-85.6,72-76,98.6-15.5c36.5-131,75.3,22.9,75.3,22.9
			c25.5-111,80.9,17.4,80.9,17.4c39.9-72.1,77.5,30.4,77.5,30.4c38.8-52.9,108.6,22.1,108.6,22.1H111.3z"/>
		<path class="st40" d="M-100.2,235.2c0,0,96.1-28.2,74.5,41.9c69.8-41.2,109.8-3.1,100.6,36.1c53.4-6.2,100.6,72.1,62.6,93.8
			c0,0,54.4-28.9,108.8,14.4c32.8-45.4,202.2,16.5,216.6,51.5c-66.7,1-563,0-563,0L-100.2,235.2z"/>
		<path class="st27" d="M310.9,388.4c0,0,79.7-180.3,223.1-87.6c74.9-141.4,194.5,0,194.5,0c22.3-180.4,130.7,12.4,130.7,12.4
			s25.5-90.7,154.6-7.1c105.2-41.3,130.7,55.7,130.7,55.7c44.6,4.4,283.7,26.6,283.7,26.6H310.9z"/>
		<path class="st10" d="M968.8,474.8c13.2-11.4,28.1-20.7,44.2-27.5c41.9-17.6,80.3-13,98-9.6c14-29.6,65.4-42.2,123-8.1
			c-50.6-75.4-17.4-21.5-36.6-52.1s24.4-75.5,48.8-7.2l14.8,41.3c0,0-14-38.4-14.8-77.1c-0.4-18.5,6.1-29.6,13.9-30.3
			c10.5-1,21.2,34.1,22.8,39.1c8.3,26.9,7.2,48.9,8.5,48.8c1,0,2.5-12.4,1.3-27.5c-1.9-23.4-8.2-27-7.9-40.9
			c0.2-14,7.1-36.6,27.2-45.4c17.5-7.7,37.9-1.9,49.5,9.5c8.2,8.1,11.7,17.7,13,26.7c8.7,59.3-2.6,62,12.2-0.9s95-68.3,90.7,9.9
			l-3.5,37.7l3.7,2.7c0,0,65.9-79,111.8-65.6c-31.5,76.6-31.9,143.9-0.4,167.3c5.5,4.1,13.2,7.7,24,9L968.8,474.8z"/>
		<path class="st41" d="M871.8,292.5C855.8,264.1,932.1,147,1053,192.1c0,0,26.9,16.5,28.5,40.2c3.2,24.9-58.7,71.2-126.2,87.3
			c-65.9,15.7-67.5,1.9-82.4-25.2C872.6,293.8,872.2,293.2,871.8,292.5z"/>
		<path class="st42" d="M1010.5,181.8c0,0,22.5,31.8-33.8,32.6c-20.1,4.2-35,23-36.6,27.9s-21.9,10.3-31.3,11.9
			s-38.3,27.9-27.2,55.1c6.4-17.1,116.3-111.8,199.6-78.1c-2-11.7-7.6-22.5-15.8-31C1044.5,178.9,1014.3,181.4,1010.5,181.8z"/>
		
			<ellipse transform="matrix(0.9334 -0.3589 0.3589 0.9334 -33.11 371.1846)" class="st43" cx="983.4" cy="274.8" rx="96.1" ry="33.9"/>
		<path class="st44" d="M1083.7,235c-8.3-19.4-60.1-17.5-115.6,4.2s-93.7,55-85.4,74.4s60.1,17.5,115.6-4.2S1092,254.3,1083.7,235z
			 M995.4,304.6c-47.6,18.6-92,20.3-99.2,3.6s25.7-45.2,73.3-63.9s92-20.3,99.2-3.6S1043,286,995.4,304.6z"/>
		<path class="st45" d="M1000.4,261.8c0,0,10.8-13.8,10.5-24.5l16.5-3.8c0,0-2.8,23.4-17,28.3H1000.4z"/>
		<path class="st45" d="M1052.6,230.6c0,0-16.9,24.4-38.8,34.9c1.6,7.2,0,4.9,0,4.9s32.8-6.2,50.1-35.3
			C1052.6,230.4,1052.6,230.6,1052.6,230.6z"/>
		<path class="st45" d="M1016,274.3c0,0,25.1,3.6,31.5,0s-5.6,6-5.6,6s-19.4,3.1-21.8,0C1018.6,278.3,1017.3,276.3,1016,274.3z"/>
		<path class="st45" d="M993.2,264.1c0,0,5.6-12.3,2-22.6l-10,3.8c0,0,1.6,19.7,0,22.1S993.2,264.1,993.2,264.1z"/>
		<path class="st45" d="M964.2,252.6c0,0,13.9,16.7,18.2,18.1l-5.8,4c0,0-26.4-7.9-24.8-15.6L964.2,252.6z"/>
		<path class="st45" d="M971.5,277.5c0,0-36.8-2.8-41.3-6.8l-13.9,10.5c0,0,39.9,3.7,50.8,0.4l4.4-3.9"/>
		<path class="st45" d="M964.8,283c0,0-57.1,21.8-69.6,20.4c0.7,10.7,5.7,10.4,5.7,10.4s48.1-12,66.2-25.7
			C964.6,283,964.8,283,964.8,283z"/>
		<path class="st45" d="M967.1,288.2c0,0-20.4,27.8-27.5,30.8c21.2-3.6,23.7-5.1,23.7-5.1s9.9-17.7,8.3-21.3
			C970.7,290.6,969.1,289,967.1,288.2z"/>
		<ellipse class="st46" cx="952.8" cy="219.9" rx="15" ry="12.5"/>
		<ellipse class="st47" cx="898.3" cy="257.3" rx="10.5" ry="9.8"/>
		<path class="st48" d="M962.8,281.6c0,0,22.3-22.8,49.1-20.2c18.5,15.7,68.7,149.7-3.1,197.2c-34.3,30.3-59.2-0.3-53.1-23.7
			c6.3-23.4,21.6-99.6,20.5-108S973.3,285.3,962.8,281.6z"/>
		<path class="st49" d="M929.2,204.1c9.3,8.4-1.9,34-28,20.4c1.2-14.6,0-2.9,0-2.9S923.4,204.9,929.2,204.1z"/>
		<path class="st50" d="M963.4,280.6c4.8-4.8,10.4-8.9,16.4-12c10.6-5.4,22.3-8.1,34.2-7.9c10,6.1,28.9,62.3,31.1,82.5
			c1.9,17.6,8.7,63.6-18.4,99.7c-5.7,7.5-19.3,25.8-40.8,28.1c-3.1,0.3-6.2,0.3-9.2,0c8.4-8.3,37.2-38.5,38.8-83.9
			c1.9-52.4-33.8-86-34.7-86.8c-1.8-1.6-3.9-3-6.1-4c-1-0.5-2.1-0.8-3.2-1.1L963.4,280.6z"/>
		<path class="st51" d="M973.1,318c0,0,32.5,18.6,20.5,94.4c-12.8,52.5-16.9,58.5-16.9,58.5s18.1-2.7,23.7-9.4s25.7-30.8,18.5-88.3
			s-21.6-69.5-47.3-78L973.1,318z"/>
		<path class="st52" d="M979.1,349.2c0.6-1.5-7.6,93.4-12,97.6S965.8,380.6,979.1,349.2z"/>
		<ellipse class="st53" cx="1058.3" cy="208.3" rx="11.5" ry="10.7"/>
		<path class="st54" d="M990.7,182.1c-3.5,28,33.8,26.1,45.9,3.9C1036.6,186,1011.9,179.8,990.7,182.1z"/>
		<path class="st41" d="M1377.4,287.4c18.2-33.8-68.1-173.3-204.8-119.5c0,0-30.4,19.6-32.2,47.9c-3.6,29.6,66.3,84.8,142.6,104
			c74.4,18.7,76.2,2.2,93.2-30L1377.4,287.4z"/>
		<path class="st42" d="M1220.8,155.6c0,0-25.4,37.8,38.1,38.8c22.7,5,39.5,27.4,41.3,33.3s24.8,12.3,35.3,14.1s43.2,33.2,30.8,65.6
			c-7.3-20.4-131.4-133.1-225.6-93c2.2-13.8,8.4-26.7,17.9-37C1182.3,152.1,1216.4,155.1,1220.8,155.6z"/>
		
			<ellipse transform="matrix(0.3817 -0.9243 0.9243 0.3817 527.1672 1320.9111)" class="st43" cx="1250.9" cy="266.4" rx="40.1" ry="109.1"/>
		<path class="st44" d="M1234.5,307.4c62.7,25.8,121.2,28.1,130.6,5s-33.8-62.7-96.5-88.6s-121.2-28.1-130.6-5
			S1171.8,281.6,1234.5,307.4z M1155,225.8c8.1-19.8,58.3-17.9,112.1,4.3s90.9,56.2,82.8,76s-58.3,17.9-112.1-4.3
			S1146.9,245.6,1155,225.8z"/>
		<path class="st45" d="M1232.1,250.8c0,0-12.3-16.4-11.8-29.2l-18.6-4.6c0,0,3.1,27.8,19.3,33.8H1232.1z"/>
		<path class="st45" d="M1173.1,213.7c0,0,19,29.1,43.8,41.6c-1.8,8.6,0,5.9,0,5.9s-37.1-7.4-56.6-42.1
			C1173.2,213.4,1173.1,213.7,1173.1,213.7z"/>
		<path class="st45" d="M1214.6,265.6c0,0-28.4,4.3-35.6,0s6.3,7.1,6.3,7.1s21.9,3.7,24.6,0C1211.6,270.5,1213.1,268.1,1214.6,265.6
			z"/>
		<path class="st45" d="M1240.3,253.6c0,0-6.3-14.6-2.3-26.9l11.3,4.6c0,0-1.8,23.4,0,26.3S1240.3,253.6,1240.3,253.6z"/>
		<path class="st45" d="M1273,239.9c0,0-15.7,19.9-20.5,21.6l6.6,4.7c0,0,29.8-9.4,28-18.5L1273,239.9z"/>
		<path class="st45" d="M1264.8,269.5c0,0,41.6-3.3,46.7-8l15.7,12.5c0,0-45.1,4.4-57.3,0.5l-5-4.7"/>
		<path class="st45" d="M1272.4,276.1c0,0,64.5,25.9,78.6,24.3c-0.8,12.7-6.4,12.4-6.4,12.4s-54.4-14.3-74.8-30.6
			C1272.6,276.1,1272.4,276.1,1272.4,276.1z"/>
		<path class="st45" d="M1269.8,282.2c0,0,23,33.1,31,36.7c-23.9-4.3-26.7-6.1-26.7-6.1s-11.2-21.1-9.3-25.3
			C1265.6,285.1,1267.5,283.2,1269.8,282.2z"/>
		<ellipse class="st46" cx="1286.8" cy="201.1" rx="17" ry="14.6"/>
		<ellipse class="st47" cx="1347.8" cy="245.8" rx="12" ry="12"/>
		<path class="st48" d="M1274.7,274.4c0,0-25.2-27.2-55.5-24c-21,18.7-77.6,178.3,3.5,234.8c38.8,36,66.9-0.4,60-28.2
			c-7.1-27.9-24.4-118.6-23.2-128.7S1262.8,278.8,1274.7,274.4z"/>
		<path class="st49" d="M1312.6,182.1c-10.6,10,2.1,40.5,31.7,24.3c-1.4-17.3,0-3.5,0-3.5S1319.1,183,1312.6,182.1z"/>
		<path class="st50" d="M1273.9,273.2c-5.4-5.7-11.7-10.5-18.6-14.3c-11.9-6.4-25.2-9.7-38.7-9.4c-11.3,7.3-32.7,74.2-35.2,98.2
			c-2.2,20.9-9.8,75.7,20.8,118.7c6.4,9,21.8,30.7,46.2,33.5c3.5,0.4,7,0.4,10.4,0c-9.5-9.8-42-45.8-43.8-99.9
			c-2.1-62.4,38.2-102.3,39.2-103.3c2-1.9,4.4-3.5,6.8-4.8c1.2-0.6,2.4-1,3.6-1.4C1267.9,284.8,1270.9,279,1273.9,273.2z"/>
		<path class="st51" d="M1263,317.7c0,0-36.8,22.1-23.2,112.4c14.5,62.5,19.1,69.7,19.1,69.7s-20.4-3.2-26.8-11.1
			s-29.1-36.7-20.9-105.1s24.4-82.8,53.5-92.9L1263,317.7z"/>
		<path class="st52" d="M1256.2,354.8c-0.7-1.7,8.6,111.3,13.6,116.3S1271.2,392.2,1256.2,354.8z"/>
		<ellipse class="st53" cx="1166.8" cy="187.5" rx="13" ry="13.1"/>
		<path class="st54" d="M1243.1,156c4,33.4-38.2,31.1-51.9,4.6C1191.3,160.6,1219.2,153.2,1243.1,156z"/>
		<path class="st41" d="M1401.8,372.2c-9.4-17.4,35.1-89.4,105.6-61.6c0,0,15.7,10.1,16.6,24.7c1.9,15.3-34.2,43.8-73.5,53.6
			c-38.4,9.6-39.3,1.1-48.1-15.5C1402.3,373,1402,372.6,1401.8,372.2z"/>
		<path class="st42" d="M1482.6,304.2c0,0,13.1,19.5-19.7,20c-11.7,2.6-20.4,14.1-21.3,17.2s-12.8,6.4-18.2,7.3
			s-22.3,17.1-15.9,33.8c3.8-10.5,67.8-68.6,116.4-48c-1.2-7.1-4.4-13.7-9.2-19C1502.5,302.4,1484.9,304,1482.6,304.2z"/>
		
			<ellipse transform="matrix(0.9247 -0.3806 0.3806 0.9247 -26.9316 585.6187)" class="st43" cx="1467.4" cy="360.9" rx="56.1" ry="20.6"/>
		<path class="st44" d="M1525.3,336.9c-4.9-11.9-35-10.7-67.4,2.6s-54.6,33.8-49.8,45.7s35,10.7,67.4-2.6S1530.2,348.8,1525.3,336.9
			z M1473.8,379.6c-27.8,11.4-53.7,12.4-57.8,2.2s15-27.8,42.7-39.2s53.7-12.4,57.8-2.2S1501.6,368.2,1473.8,379.6L1473.8,379.6z"/>
		<path class="st45" d="M1476.8,353.2c0,0,6.3-8.5,6.1-15l9.6-2.4c0,0-1.6,14.4-9.9,17.4H1476.8z"/>
		<path class="st45" d="M1507.2,334.2c0,0-9.8,15-22.6,21.5c0.9,4.4,0,3,0,3s19.1-3.8,29.2-21.7
			C1507.2,334.1,1507.2,334.2,1507.2,334.2z"/>
		<path class="st45" d="M1485.8,361c0,0,14.7,2.2,18.4,0s-3.2,3.7-3.2,3.7s-11.3,1.9-12.7,0C1487.4,363.5,1486.6,362.3,1485.8,361z"
			/>
		<path class="st45" d="M1472.5,354.8c0,0,3.3-7.5,1.2-13.9l-5.8,2.4c0,0,0.9,12.1,0,13.6S1472.5,354.8,1472.5,354.8z"/>
		<path class="st45" d="M1455.7,347.7c0,0,8.1,10.3,10.6,11.1l-3.4,2.4c0,0-15.4-4.9-14.5-9.6L1455.7,347.7z"/>
		<path class="st45" d="M1459.9,363c0,0-21.4-1.7-24.1-4.1l-8.1,6.4c0,0,23.3,2.3,29.6,0.2L1459.9,363"/>
		<path class="st45" d="M1456,366.4c0,0-33.3,13.4-40.6,12.5c0.4,6.6,3.3,6.4,3.3,6.4s28.1-7.4,38.6-15.8
			C1455.9,366.4,1456,366.4,1456,366.4z"/>
		<path class="st45" d="M1457.3,369.5c0,0-11.9,17.1-16,18.9c12.3-2.2,13.8-3.1,13.8-3.1s5.8-10.9,4.8-13.1
			C1459.5,371,1458.5,370.1,1457.3,369.5z"/>
		<ellipse class="st46" cx="1448.8" cy="327.6" rx="9" ry="7.5"/>
		<ellipse class="st47" cx="1416.8" cy="350.2" rx="6" ry="6"/>
		<path class="st48" d="M1454.8,365.5c0,0,13-14,28.6-12.4c10.8,9.6,40,92-1.8,121.1c-20,18.6-34.5-0.2-30.9-14.6s12.6-61.2,12-66.4
			S1461,367.8,1454.8,365.5z"/>
		<path class="st49" d="M1435.2,317.9c5.4,5.1-1.1,20.9-16.3,12.5c0.7-8.9,0-1.8,0-1.8S1431.9,318.4,1435.2,317.9z"/>
		<path class="st50" d="M1455.2,364.9c2.8-2.9,6-5.4,9.6-7.4c6.1-3.3,13-5,19.9-4.9c5.9,3.8,16.8,38.3,18.1,50.7
			c1.1,10.8,5,39.1-10.7,61.2c-3.3,4.6-11.3,15.8-23.8,17.3c-1.8,0.2-3.6,0.2-5.4,0c4.9-5.1,21.7-23.6,22.6-51.5
			c1.1-32.2-19.7-52.8-20.2-53.3c-1.1-1-2.2-1.8-3.5-2.5c-0.6-0.3-1.2-0.5-1.9-0.7L1455.2,364.9z"/>
		<path class="st51" d="M1460.8,387.8c0,0,19,11.4,12,58c-7.5,32.2-9.8,36-9.8,36s10.5-1.6,13.8-5.7s15-18.9,10.8-54.2
			s-12.6-42.7-27.6-47.9L1460.8,387.8z"/>
		<path class="st52" d="M1464.3,407c0.4-0.9-4.4,57.4-7,60S1456.6,426.3,1464.3,407z"/>
		<ellipse class="st53" cx="1510.3" cy="320.6" rx="6.5" ry="6.5"/>
		<path class="st54" d="M1471.1,304.4c-2.1,17.2,19.7,16,26.8,2.4C1497.8,306.8,1483.4,303,1471.1,304.4z"/>
		<path class="st31" d="M818.9,600.9c0,0-58.7-25-84.1-25.4s8.9-23.8,56.2-2C791.1,573.5,817.1,588.1,818.9,600.9z"/>
		<path class="st31" d="M814.6,599.8c0,0-64.9-60.5-79.7-63.8s6.2-23.1,57.5,27.3C792.3,563.2,817.5,591.1,814.6,599.8z"/>
		<path class="st31" d="M806.7,596.1c0,0-47.5-63.1-61-68.8S781.1,521.5,806.7,596.1z"/>
		<path class="st31" d="M797.6,574.1c0,0-40.9-51-32.3-70.7S783.2,543.7,797.6,574.1z"/>
		<path class="st31" d="M802.5,570.3c0,0-37.1-66.2-15.5-85.7S786.1,520.4,802.5,570.3z"/>
		<path class="st31" d="M804.4,568.7c0,0-6.7-33.6,15.5-48.3S803.7,557.3,804.4,568.7z"/>
		<path class="st31" d="M383.9,715.3c0,0-58.7-25-84.1-25.4s8.9-23.8,56.2-2C356.1,688,382.1,702.6,383.9,715.3z"/>
		<path class="st31" d="M379.6,714.2c0,0-64.9-60.5-79.7-63.8s6.2-23.1,57.5,27.3C357.4,677.7,382.5,705.5,379.6,714.2z"/>
		<path class="st31" d="M371.7,700.6c0,0-47.5-63.1-61-68.8S346.1,625.9,371.7,700.6z"/>
		<path class="st31" d="M362.6,678.6c0,0-40.9-51-32.3-70.7S348.2,648.2,362.6,678.6z"/>
		<path class="st31" d="M367.5,674.7c0,0-37.1-66.2-15.5-85.7S351.1,624.9,367.5,674.7z"/>
		<path class="st31" d="M369.4,673.2c0,0-6.7-33.6,15.5-48.3S368.7,661.8,369.4,673.2z"/>
		<path class="st55" d="M1595.5,484.5l-1622-9.3V-15.3h1622V484.5z"/>
		<path class="st56" d="M-118.2,470.7c12.2-16.5,27.3-33.2,45.3-45.4c40.2-27.1,74.9-18,96.4-7.4c32.8-66.8,80.2-69.9,111.2-3
			c11.9-57.7,41-41,80.2,2.3c38.3-34.2,75.7-0.8,87.5,17.5c32.9-3.6,66.2-1.1,98.3,7.5c3.1,0.8,56.6,15.4,56,24.2
			C455.9,479.4,333.8,486.6-118.2,470.7z"/>
		<path class="st56" d="M318.9,468.9c12.2-17.9,27.3-36.2,45.3-49.4c40.1-29.5,74.9-19.6,96.4-8.1c32.8-72.7,80.2-76,111.2-3.3
			c11.8-62.8,41-44.7,80.2,2.5c38.3-37.2,75.7-0.8,87.5,19c33-3.9,66.4-1.2,98.3,8.1c3.1,0.9,56.6,16.8,56,26.4
			C892.9,478.4,770.8,486.2,318.9,468.9z"/>
		<path class="st57" d="M912,402.5c1.9,32.5,4.8,58.8,7.1,77.3c3.1,25.1,5.1,34.2,3.1,49.6c-1.9,14.5-5.7,43.9-28.1,60.3
			c-29.4,21.4-79.2,11.9-99.7-16.1c-12-16.5-10.6-35-8.7-60.7c4.4-58.8,34.2-111.4,34.2-111.4S907.3,405.5,912,402.5z"/>
		<path class="st58" d="M803.1,438.6c0,0,70.4-8,70.1,47.5s-53.3,84.7-86.1,72.8c48.1,24.1,135.3,23.7,127-43.4s-10.6-95-10.6-95
			l-97.4,5.9L803.1,438.6z"/>
		<path class="st59" d="M867,600.4c-22.8,4.2-40.7-3.5-46.8-6.2c-6.5-2.8-12.5-6.6-17.8-11.3c-3.3-3-7.4-6.8-10.5-12.9
			c-2.1-4.1-4.7-11.1-4.7-11.1l0,0c0,0,103.9,41.2,114.7-59.5l-2.5-95.9l12.7-1.1l11.1,106.6c2.4,36.2-9.3,68.8-32.2,82.6
			C880.7,597.8,868.4,600.2,867,600.4z"/>
		<path class="st59" d="M813.6,408.7l-7.5,17.7c0,0,85.5-0.9,91.2,9.7s15.3-1.9,15.3-1.9l-1.3-28.5L813.6,408.7z"/>
		<path class="st60" d="M600.3,310.5c9.7-28,33.5-83.7,88.8-125.8c97.3-74,244.9-69.7,328.3,0.6c31.3,26.4,77.8,82.5,62.5,130.8
			c-2.8,8.8-9.2,39.5-78.5,62.5c-149.6,49.4-313,32.1-330.8,22S583.4,387.7,600.3,310.5z"/>
		<path class="st61" d="M990.5,165.4c0,0,0.5,65.8-18.2,68s-57.7,5.5-52.8,34.7s-39,71.2-75.9,41.3s-82,3.8-102,29.7
			s-119,36.8-133,14.8c0,0-0.8,19.8,3.9,24.7s91.3,38.6,127.9,17.3s78-12.2,88.8-0.9s117.5,20.5,122.5-14s-16.5-50,20.6-45.9
			s80,12,80.5-7.4s31.1-35.2,27.3-53.3s-32.4-58.2-32.4-58.2S1008.4,170,990.5,165.4z"/>
		<path class="st62" d="M1032.2,203c0,0,139.9,124.5-25.1,183.3c-45.2,13.1-91.3,22.8-138,28.9c0,0-65.2,8.5-134.8,5.4
			c-16.3-0.8-32.5-3-48.4-6.6c-9.1-2-30-7.3-50.9-19.1c-5.8-3.3-12.1-6.3-17.8-12.8c-5.2-6.1-8.8-13.3-10.7-21
			c87.2,20,126.4,7.1,146-9.4c6.4-5.3,16-14.8,31.3-17.1c26.5-4.1,50,16.1,62.9,26.2c17.8,14,72.2,2.7,74.4-34.6
			s45.9-57.1,72.3-35.1S1032.2,203,1032.2,203z"/>
		
			<ellipse transform="matrix(2.408317e-02 -0.9997 0.9997 2.408317e-02 605.736 985.155)" class="st63" cx="807.5" cy="182.3" rx="15.2" ry="25.4"/>
		
			<ellipse transform="matrix(4.205010e-02 -0.9991 0.9991 4.205010e-02 706.6989 1209.8699)" class="st64" cx="984.3" cy="236.4" rx="14.2" ry="17.4"/>
		
			<ellipse transform="matrix(0.995 -9.966708e-02 9.966708e-02 0.995 -29.0694 64.8533)" class="st65" cx="634.5" cy="323.4" rx="16.5" ry="16.5"/>
		
			<ellipse transform="matrix(0.995 -9.950372e-02 9.950372e-02 0.995 -21.9484 71.3697)" class="st66" cx="704.5" cy="255.7" rx="16.6" ry="16.6"/>
		
			<ellipse transform="matrix(0.995 -9.966708e-02 9.966708e-02 0.995 -23.9836 84.261)" class="st63" cx="831.3" cy="282.2" rx="23.7" ry="23.6"/>
		
			<ellipse transform="matrix(0.995 -9.966708e-02 9.966708e-02 0.995 -33.3314 73.0487)" class="st65" cx="714.4" cy="370.1" rx="16.5" ry="16.5"/>
		
			<ellipse transform="matrix(0.995 -9.966708e-02 9.966708e-02 0.995 -31.868 91.3866)" class="st67" cx="898.7" cy="364.6" rx="16.5" ry="16.5"/>
		
			<ellipse transform="matrix(0.995 -9.985681e-02 9.985681e-02 0.995 -26.309 103.0787)" class="st68" cx="1016.5" cy="314.3" rx="16.5" ry="16.5"/>
		
			<ellipse transform="matrix(0.995 -9.966708e-02 9.966708e-02 0.995 -14.1358 92.5617)" class="st66" cx="919.3" cy="187.8" rx="16.5" ry="16.5"/>
		<path class="st69" d="M1067.7,246.1c3,1.4,103.3,136-152.7,162.7c-144.6,12.9-236.4,31.4-302.5-30.3
			c57.5,23.4,66.4,44.3,253.3,29.3c184.2-19.2,201-78.4,202.3-108.9C1068.9,281.4,1068.8,263.7,1067.7,246.1z"/>
		<path class="st70" d="M464.8,527.5c4.4,33.8,9.3,61.2,12.9,80.3c5,26,7.6,35.4,7,51.7c-0.6,15.3-1.7,46.4-21.3,65.1
			c-25.7,24.5-73,18.3-94.4-9.6c-12.6-16.4-12.8-35.8-13.1-62.8c-0.7-61.8,22.8-119,22.8-119S460.6,531,464.8,527.5z"/>
		<path class="st58" d="M371.5,553.4c33.5,4.7,61.2,26,69.5,54c11.5,39-15.3,88.4-66.1,102.4c20.4,0.2,55.9-2.8,86.9-26.5
			c4.6-3.5,8.9-7.3,12.9-11.5l-14.3-131.8c-32.1-18.2-64.5-19.2-79.9-3.5C377.3,539.7,373.6,544.9,371.5,553.4z"/>
		<path class="st71" d="M439,737.8c-20.9,6-38.3-0.7-44.2-3c-6.4-2.5-12.3-6.1-17.6-10.5c-3.3-2.9-7.5-6.5-10.9-12.8
			c-2.4-3.9-5-7.7-7.7-11.4l2.4,0.1c0,0,100.3,35.5,102.1-70.6c0.6-14.2-1.2-30.5-4.3-52.6c-0.7-5.3-5.2-15.2-9-22.5
			c-5.3-10.4-15.2-16.8-20.2-20.3c9-1.1,26-5.7,35-6.8l19.1,110.7c5.2,37.7,14,73.4-6.2,89.5C468.6,734.8,440.2,737.4,439,737.8z"/>
		<path class="st72" d="M378.7,533.2l-5,14c0,0,75.5-3.6,81.6,4.4s13.3-2,13.3-2l-3.8-22.1L378.7,533.2z"/>
		<path class="st73" d="M180.2,410.1c10.8-28.1,38-86.7,99.4-124.5c104.3-64.2,251.8-34.4,311.5,42.8
			c24.5,31.7,49.7,91.5,35.7,127.8c-1.4,3.6-3.2,7.2-5.1,10.6c-7.3,12.4-24.3,30.8-69.6,43.8c-142.4,40.8-294.4,10.7-310.6-1.1
			S160.6,489.6,180.2,410.1z"/>
		<path class="st74" d="M545.2,287.9c0,0-0.6,59.4-18.3,60.3s-54.2,1.5-51.1,32.4s-40,71.6-73,37.7s-76.9-2-96.9,23.6
			s-113.1,29.9-125.1,5.8c0,0-1.7,20.6,2.4,26.1s83.5,47.1,118.8,27.4s73.6-7.1,83.2,5.6c9.6,12.6,108.9,30,115.2-5.7
			s-13-53.5,21.6-46.5s74.3,18.4,75.6-1.9s9.4-23.8,6.8-43s-4.4-70-4.4-70S561.7,293.9,545.2,287.9z"/>
		<path class="st75" d="M591.1,328.4c0,0,118.2,132.8-39.1,182.2c-42.9,10.4-86.5,17.1-130.6,20.2c0,0-61.4,4.2-126.3-4.1
			c-15.3-2.1-30.4-5.5-45-10.4c-16.7-5.5-32.4-13.5-46.7-23.7c-5.2-3.8-11-7.5-16-14.7c-4.6-6.8-7.6-14.6-8.9-22.7
			c80.6,27.3,117.9,16.6,137,0.9c6.2-5.1,15.7-14.3,30.1-15.6c25-2.3,46,20.5,57.5,32c15.9,16,67.4,8.1,71.3-30.8
			s45.7-56.4,69.4-31.5S591.1,328.4,591.1,328.4z"/>
		
			<ellipse transform="matrix(0.1317 -0.9913 0.9913 0.1317 45.6114 617.6909)" class="st76" cx="375.4" cy="282.8" rx="16.1" ry="24.2"/>
		
			<ellipse transform="matrix(0.2362 -0.9717 0.9717 0.2362 69.6599 792.6355)" class="st76" cx="539" cy="352" rx="14.5" ry="16.3"/>
		
			<ellipse transform="matrix(0.9969 -7.898107e-02 7.898107e-02 0.9969 -32.2676 17.6325)" class="st76" cx="206.8" cy="416.7" rx="15.7" ry="17.5"/>
		
			<ellipse transform="matrix(0.9968 -7.974522e-02 7.974522e-02 0.9968 -27.2225 22.8896)" class="st76" cx="273" cy="352.3" rx="15.7" ry="17.5"/>
		
			<ellipse transform="matrix(0.9976 -6.982913e-02 6.982913e-02 0.9976 -26.1152 28.5509)" class="st77" cx="395.3" cy="387.8" rx="21.9" ry="24.8"/>
		
			<ellipse transform="matrix(0.9969 -7.898107e-02 7.898107e-02 0.9969 -36.4837 23.5601)" class="st78" cx="279.6" cy="473" rx="15.7" ry="17.5"/>
		
			<ellipse transform="matrix(0.9969 -7.898107e-02 7.898107e-02 0.9969 -36.4794 37.2098)" class="st76" cx="452.1" cy="479.8" rx="15.7" ry="17.5"/>
		
			<ellipse transform="matrix(0.9969 -7.898107e-02 7.898107e-02 0.9969 -32.6593 46.011)" class="st79" cx="565.3" cy="435.9" rx="15.7" ry="17.5"/>
		
			<ellipse transform="matrix(0.9969 -7.898107e-02 7.898107e-02 0.9969 -21.9045 38.8495)" class="st76" cx="480.2" cy="296.3" rx="15.7" ry="17.5"/>
		<path class="st80" d="M622.4,394.5c2.8,1.6,94.8,130-151.3,136c-138.9,1.3-221.4,12.1-282.3-50.7c54.1,26.3,55.8,46.2,235.3,46.1
			c177.1-4.3,195.4-58.6,197.8-87.1S622.4,394.5,622.4,394.5z"/>
		<path class="st57" d="M1287,554.2c1.5,24.3,3.6,44,5.3,57.8c2.4,18.8,3.9,25.6,2.4,37.1c-1.4,10.8-4.2,32.8-21,45.1
			c-22,16-59.3,9-74.6-12c-9-12.3-8-26.2-6.6-45.3c3.2-44,25.5-83.3,25.5-83.3l0,0C1218.1,553.5,1283.5,556.5,1287,554.2z"/>
		<path class="st58" d="M1211,568c0,0,48.5-2.1,52.6,25.8s0.5,85.5-69.4,77.4c17.5,19.8,20.7,23,20.7,23l70.1-29.4
			c3.8-28.1-0.9-90.7-0.9-90.7l-2.8-10.8l-64.8-4.3L1211,568z"/>
		<path class="st59" d="M1253.9,702.2c-11.9,2-24.1,0.4-35-4.6c-4.9-2.1-9.4-4.9-13.3-8.4c-3.2-2.7-5.9-6-7.9-9.7
			c-1.6-3.1-3.5-8.3-3.5-8.3l0,0c0,0,77.7,30.7,85.7-44.5l-1.9-71.7l9.5-0.8l8.4,79.7c1.8,27.1-6.9,51.4-24,61.7
			C1264.2,700.3,1254.9,702,1253.9,702.2z"/>
		<path class="st81" d="M1218.1,553.5l-4.9,9.7c0,0,60.4,1.6,64.8,7.6s10.7-0.7,10.7-0.7l-1.7-15.9L1218.1,553.5z"/>
		<path class="st82" d="M1067.4,455.2c7.4-15.3,21.3-39.2,46.2-60c77.6-64.7,212.4-57.3,275.5,10.5c22.3,23.9,48.8,69.6,33.3,102.9
			c-3,6.4-10.9,28.5-64.8,38.4c-116,21.2-235.3-8.6-247.5-17.9S1046.9,510.6,1067.4,455.2z"/>
		<path class="st83" d="M1353.8,395.5c0,0,7.9,35.1-6.2,34.8s-43.3-1.9-42.7,20.2s-36.3,48.7-60.5,22.8s-61.2-5.7-78.7,11.4
			s-92,15-100.1-2.8c0,0-2.6,14.6,0.3,18.7s63.7,38.1,93,26s59.1-1,65.9,8.5s85,27.3,92.2,2.3s-7.1-38.8,20.1-31.8
			s58.1,17.2,60.4,2.9s9-16.4,8-30.1s-8.6-50.7-8.6-50.7S1366.7,400.7,1353.8,395.5z"/>
		<path class="st84" d="M1392.5,422.7c0,0,93.5,97.9-34.9,124.4c-34.9,5-70.1,7.4-105.3,7.1c0,0-49.2-0.4-100.4-9.9
			c-12-2.3-23.8-5.6-35.2-9.9c-12.8-4.7-24.8-11.3-35.8-19.4c-3.9-3-8.3-5.9-11.8-11.3c-3.2-5-5.2-10.7-5.7-16.6
			c62.5,23.8,92.9,18.3,109.1,8.1c5.3-3.3,13.4-9.3,24.9-9.4c20.1-0.3,35.4,17.1,43.9,25.9c11.7,12.2,53.2,9.5,58.7-18
			s39.9-37.6,57.3-18.5S1392.5,422.7,1392.5,422.7z"/>
		
			<ellipse transform="matrix(0.1611 -0.9869 0.9869 0.1611 662.7331 1530.5254)" class="st85" cx="1231.7" cy="375.4" rx="11.6" ry="19.4"/>
		
			<ellipse transform="matrix(0.1545 -0.988 0.988 0.1545 718.4906 1707.4252)" class="st85" cx="1356.9" cy="433.9" rx="10.5" ry="13.2"/>
		<ellipse class="st85" cx="1088.7" cy="462" rx="12.7" ry="12.3"/>
		<ellipse class="st85" cx="1144.3" cy="418" rx="12.2" ry="12.3"/>
		<ellipse class="st85" cx="1238.7" cy="451.4" rx="17.5" ry="17.6"/>
		<ellipse class="st85" cx="1142.1" cy="505" rx="12.7" ry="12.3"/>
		<ellipse class="st86" cx="1280.3" cy="519.9" rx="12.7" ry="12.3"/>
		<ellipse class="st87" cx="1372.1" cy="494.5" rx="12.7" ry="12.3"/>
		<ellipse class="st85" cx="1313.5" cy="390.8" rx="12.7" ry="12.3"/>
		<path class="st88" d="M1415.8,453.7c2,1.4,63.8,107.2-128.7,100.6c-108.5-5.4-178.4-1.2-221-53.7c40.2,23.3,44.6,39.6,184.7,47.8
			c138.5,4.8,157.1-37.3,161.2-59.7S1415.8,453.7,1415.8,453.7z"/>
		<path class="st89" d="M407,739.8c0,0-12.1-47.4-45.7-76.8c0,0,47.4,21.4,58.5,71.2c0,0-10.6-33.1,14.6-69.7c0,0-19.3,49.5,0,70.4
			c0,0,19.6,6.9,27.2-31.1c0,0,16.6,11.3,1.9,35.9C463.5,739.8,428.7,757.4,407,739.8z"/>
		<path class="st89" d="M434.4,735c0,0,38-25.8,35.2-95.2c0,0,21.4,43.5,2.7,79.8s-43.2,14.6-43.2,14.6"/>
		<path class="st89" d="M463.5,739.8c-0.3,0.7,31.3-25.6,29.9-82.1c0,0,4.8,67.1-15.1,80.5s-19.9,3.7-19.9,3.7"/>
		<path class="st31" d="M835.9,596.8c0,0-10.1-33.8-38.1-54.8c0,0,39.5,15.3,48.8,50.9c0,0-8.9-23.7,12.2-49.8c0,0-16.1,35.3,0,50.3
			c0,0,16.4,4.9,22.7-22.2c0,0,13.9,8.1,1.6,25.6C883.1,596.8,854,609.4,835.9,596.8z"/>
		<path class="st31" d="M858.8,593.4c0,0,31.7-18.4,29.4-68c0,0,17.8,31.1,2.3,57s-36,10.4-36,10.4"/>
		<path class="st31" d="M883.1,596.8c-0.3,0.5,26.1-18.3,24.9-58.6c0,0,4,47.9-12.6,57.5s-16.6,2.7-16.6,2.7"/>
		<path class="st31" d="M1216.6,705.7c0,0-9-30.7-33.8-49.8c0,0,35,13.8,43.2,46.2c0,0-7.9-21.5,10.8-45.2c0,0-14.2,32.1,0,45.7
			c0,0,14.5,4.5,20.1-20.2c0,0,12.3,7.3,1.4,23.3C1258.4,705.7,1232.6,717.1,1216.6,705.7z"/>
		<path class="st31" d="M1236.8,702.6c0,0,28.1-16.7,26-61.7c0,0,15.8,28.2,2,51.8s-31.9,9.5-31.9,9.5"/>
		<path class="st31" d="M1258.4,705.7c-0.2,0.4,23.1-16.6,22.1-53.2c0,0,3.6,43.5-11.1,52.2s-14.7,2.4-14.7,2.4"/>
		<ellipse class="st90" cx="1510.3" cy="646" rx="71.5" ry="24.6"/>
		<ellipse class="st91" cx="139.3" cy="633.9" rx="58.5" ry="19.6"/>
		
			<linearGradient id="SVGID_8_" gradientUnits="userSpaceOnUse" x1="-14.16" y1="68.705" x2="1597" y2="68.705" gradientTransform="matrix(1 0 0 -1 0 900)">
			<stop  offset="0.33" style="stop-color:#199E2F"/>
			<stop  offset="0.52" style="stop-color:#429B21"/>
			<stop  offset="1" style="stop-color:#44C24A"/>
		</linearGradient>
		<path class="st92" d="M-5.2,807.2c122.8,0.4,222.8,4.1,293,7.7c79.3,4,119.4,7.6,221,11.4c74,2.8,66,1.4,189.5,5
			c152.3,4.5,176.7,7,239.5,5c79.7-2.5,70.9-7.5,160-12c247.5-12.8,371.3-19.4,396-17.1c11.2,1,47,4.9,72-17.1
			c17.6-15.4,23-37.7,25-52.2l6.2,173.4L-14.2,924.7L-5.2,807.2z"/>
		<path class="st93" d="M936.5,893.9c0,0,17.2-21.6,12.7-45.6s-18.7,45.6-18.7,45.6s6.7-84.1-23.2-93.7s17.9,93.7,17.9,93.7
			s-21.7-47.8-35.1-47.2s25.4,51.5,25.4,51.5h-79.7c0,0,49.1-32.7,31.1-35.6s-38.8,35.6-38.8,35.6s21.7-51.6,11.2-49.4
			S820,898.3,820,898.3l-50.8,4.8l-228.5,3.8c32.7-14.3,40.2-19.8,39.8-22s-10-1-14-0.2c-17.2,3.3-29,15.3-34.7,22.2l13-23.5
			c8.7-15.4,18.1-33.7,15.1-37.5c-0.7-0.9-2.5-1.4-8.7,2.3c-28.4,17.3-41.1,50-41.1,50c-0.2-4.7-1.5-21.8-12.1-33.8
			c-5.8-6.5-15-12.2-17.2-9.2c-4.2,5.7,17.4,42,17.4,42l-86.6-15.4L310,862.7l-176.3-17.3l-14.6,1.8c4-4.7,46.2-55.2,36.9-75.3
			c-1.4-3-4.4-6.2-11.1-7.6c-4.7,3.6-9,7.8-12.8,12.4c-19.5,23.7-23.5,55.1-24.6,68.7l-6.7,1.9c2-6.5,4.3-14.9,6.4-24.7
			c4.6-21.5,8.3-39.6,1.7-47.1c-0.7-0.8-3-3.5-5.6-2.8c-11.9,3-11.5,75.7-12.2,75.7c-0.4,0,2-27.1-7.8-50c-1.2-2.8-4.3-10-6.7-9.3
			c-2.9,0.8-3.1,13.1-3.1,18.1l6.3,38.3l-515.2,19.2v95.2l2108,15.6l-8.2-106l-702.3,24.5"/>
		<path class="st94" d="M2610.5,991.7h-769.8c0,0-9.7-52.8-33.1-54.8s17.5,54.8,17.5,54.8s-50.7-47-77.9-43.1s42.8,43.1,42.8,43.1
			s-576.8,9.8-672.3,0s-358.6-37.2-358.6-37.2s-7.8-35.2-31.2-39.1s17.5,40.3,17.5,40.3s-54.5-38.4-66.2-26.7s44.8,26.5,44.8,26.5
			H589.6c0,0,46.8-46.5,21.4-40.4s-39,40.2-39,40.2s11.7-41.9-13.6-49.7s0,52.8,0,52.8S546.7,923.2,535,931s0,25.5,0,25.5l-144.2,2
			c0,0,61-31.3,31.5-37.2s-43.2,39.1-43.2,39.1s29.2-43.1,0-47s-15.6,37.1-15.6,37.1h-74.2l-81.7-0.1c0,0,35.1-40.9,130.6-66.4
			c0,0-30.7-78-151.8,29.4c50.4-66.5,69.6-101.8,102.9-107.6c0,0-56.4-42.7-116.8,86.1c0,0,52.2-72.4-18.7-121.3
			c0,0,22.2,68.9,0,112.8c0,0,12.9-75.6-45.6-97.1c21.4,84.2,33.1,99.8,15.6,121.3c0,0,21.4-76.3-91.6-101.8l-3.9,2
			c0,0,72.1,21.5,74.1,94c0,0-26-68.5-122.2-47c0,0,112.4,21.8,112.4,93.9l-175.2-7.8v64.4l2693,15.6V991.7z"/>
		<path class="st31" d="M895.1,598.8c0,0,58.7-25,84.1-25.4s-8.9-23.8-56.2-2C923,571.5,896.9,586.1,895.1,598.8z"/>
		<path class="st31" d="M899.4,597.7c0,0,64.9-60.5,79.7-63.8s-6.2-23.1-57.5,27.3C921.7,561.2,896.5,589,899.4,597.7z"/>
		<path class="st31" d="M907.3,584.1c0,0,47.5-63.1,61-68.8S932.9,509.4,907.3,584.1z"/>
		<path class="st31" d="M916.4,562.1c0,0,40.9-51,32.3-70.7S930.8,531.7,916.4,562.1z"/>
		<path class="st31" d="M911.5,558.2c0,0,37.1-66.2,15.5-85.7S927.9,508.4,911.5,558.2z"/>
		<path class="st31" d="M909.6,556.7c0,0,6.7-33.6-15.5-48.3S910.3,545.3,909.6,556.7z"/>
		<path class="st94" d="M1445.8,915.7c0,0-61,3.2-62-8.1s20.1-68.4,59.8-74.9c0,0-10.6-19.4-39.7,0c-25.9,22.6-30.2,37.4-30.2,37.4
			s-0.4-51.9,47.9-77.3c-14.6-4.8-44.2,8.6-66.5,65.7c-1.1-32.3,9.5-68,17.5-86s-41.3,13.8-36,90.3c-9.5-43.1,2.7-89.1,9-95.2
			c5.8-6.1-46.6,10.1-21.7,92c-48.2-71.7-62.4-68.4-85.7-66.3c47.6,30.2,59.8,49.6,72.5,87.3c0,0-51.9-67.9-101.6-28.6
			c-12.7,14.5-10.6,15.1-10.6,15.1s61.4-21,105.3,34.5c-9.9,4.8-20.2,8.7-30.7,11.9c-38.4,11.3-72.6,8.8-95.2,4.8
			c0,0,12.7-13.5,16.4-22.6s-16.9-22.6-20.6,5.9c-2.6-5-6.7-9.1-11.6-11.8c-4.1-2.2-12.8-5.5-14.8-2.8c-3,3.9,0,13.6,19.6,31.4
			l-61.9-4.8c0,0,14.8-9.2,15.9-25.9s-20.7-18.3-21.7,21.5c-49.2-1.6-54.5-0.5-54.5-0.5l-3.7-7c3.7-24.2,12.2-39.3,15.3-40.4
			s-26.4-4.3-29.3,36.6c-2.4-6.4-6.9-11.8-12.8-15.3c-5.3-3-13.6-5.4-14.9-3.2c-2.5,4.2,24.7,19.1,22.1,28.3
			c-4.1,14.2-78.2,6.2-80.4,5.9c-133.9-14.6-152.1,26.5-374.1,24.2H297.5c-10,0-5.8,0.5-5.8,0.5s34.4-15,36-29s-25.9,4.3-42.3,21
			c13.2-32.9,9.2-24.3,9.2-24.3s-1.2-21.5-16,7.5c-7.4,22.1-5.3,19.4-5.3,19.4L99.1,952.8h1346.7V915.7z"/>
		<path class="st95" d="M-14.2,552.1c0,0,195.6,38.8,321.5,1.6l23.9-4.1C331.3,549.5,84.3,515.4-14.2,552.1z"/>
		<path class="st94" d="M1532.3,966.9c0,0-151-1.2-156-41.7s125.7-4,179.1,23.4c-163.1-129.5-77.6-54-124.9-99.9
			s-9.4-85.2,72.8-18.4c68,67.9,88,87.8,88,87.8s-57.4-101.5-82.2-156.7s20.9-108.6,76.4-15.6c3.9-35,4.2-38.4,4.2-38.4
			s-4.4,52.3-0.9-8.4s58-39.4,43.3,52.2c25.1-38.8-8.8,6.6,28.3-35.1s93.3-20.9,50,62.9s-29.8,59.8-29.8,59.8l-31.2,53.3l93.2-69.6
			c64.8-41.1,98.8-17.7,29.1,52.1c-46,38.5-85.4,68.9-85.4,68.9s42.4-12,110.9-34.7s76.6,36.9-2.3,56.5
			C1699.6,964.9,1532.3,966.9,1532.3,966.9"/>
		<path class="st96" d="M1602.6,892.3c0,0-77.2-164.7-79.1-171.4S1607.7,866.3,1602.6,892.3"/>
		<path class="st96" d="M1436.6,821c0,0,130.1,121.9,146.6,131.7C1583.2,952.7,1450.2,820.6,1436.6,821"/>
		<path class="st96" d="M1604.1,778.3c0,0-12.8-24.6-13.5-23.6S1602.7,759.9,1604.1,778.3"/>
		<path class="st96" d="M1576.4,818.8c0,0,0.1-50.3,0.6-52.5S1568,792.5,1576.4,818.8"/>
		<path class="st96" d="M1549.3,765.9c0,0-6.2-27.4-4.1-37.1S1550.8,757.1,1549.3,765.9"/>
		<path class="st96" d="M1556,792.3l-33.1-18.2C1522.9,774.1,1540.7,776.2,1556,792.3"/>
		<path class="st96" d="M1583,850.2l-32.2-11.2C1550.8,839,1571.2,840.2,1583,850.2"/>
		<path class="st96" d="M1472.3,847.6c0,0-18.1-26.5-19.3-33S1469.8,829,1472.3,847.6"/>
		<path class="st96" d="M1494.5,874.8l-42.2-11.7C1452.4,863.1,1474.4,863.2,1494.5,874.8"/>
		<path class="st96" d="M1515.2,886.9c0.1,0.1-10.4-21.6-8.2-32.4s4.7,22.3,8.3,32.5"/>
		<path class="st96" d="M1542.7,913.2c0,0-7.5-25.7-6.7-34.1S1547.2,903.5,1542.7,913.2"/>
		<path class="st94" d="M-54.7,955.8c0,0-151-1.2-156-41.7s125.7-4,179.1,23.4c-163.1-129.5-77.6-54-124.9-99.9s-9.4-85.2,72.8-18.4
			c68,67.9,88,87.8,88,87.8s-57.4-101.5-82.2-156.7S-57,641.7-1.5,734.7c3.9-35,4.2-38.4,4.2-38.4s-4.4,52.3-0.9-8.4
			s58-39.4,43.3,52.2c25.1-38.8-8.8,6.6,28.3-35.1s93.3-20.9,50,62.9s-29.8,59.8-29.8,59.8L62.5,881l93.2-69.6
			c64.8-41.1,98.8-17.7,29.1,52.1c-46,38.5-85.4,68.9-85.4,68.9s42.4-12,110.9-34.7s76.6,36.9-2.3,56.5
			C112.6,953.9-54.7,955.8-54.7,955.8"/>
		<path class="st96" d="M49.3,929.7l154.4-119.9C203.7,809.8,72.7,922,49.3,929.7"/>
		<path class="st96" d="M31.4,871.8l78.2-167.4C109.6,704.3,54.1,848.2,31.4,871.8"/>
		<path class="st96" d="M18,672.8c0,0-0.8,193.7,5,219.8C29.9,881.4,24.1,675.1,18,672.8"/>
		<path class="st96" d="M15.6,881.2c0,0-77.2-164.7-79.1-171.4S20.7,855.2,15.6,881.2"/>
		<path class="st96" d="M56.6,817.8l45.2-24.1C101.7,793.7,62.2,805.8,56.6,817.8"/>
		<path class="st96" d="M69,791.2c0,0-10.2-42.1-11.6-46.6S72.2,773.2,69,791.2"/>
		<path class="st96" d="M85.3,764.4c0,0,42.4-22,42.7-27.1C128.3,732.1,91,760.3,85.3,764.4"/>
		<path class="st96" d="M85.4,750.3l-8.7-34.5C76.7,715.9,90,735,85.4,750.3"/>
		<path class="st96" d="M78,907.4c0,0,17.5-43.5,23-48S82.3,900.1,78,907.4"/>
		<path class="st96" d="M107.5,889.1l54.7-16.1C162.1,873,132.3,874.4,107.5,889.1"/>
		<path class="st96" d="M152.3,849.7c0,0,2.3-29.5,7.1-34S157.2,845.9,152.3,849.7"/>
		<path class="st96" d="M172.3,836.3l35.4-10.5C207.6,825.8,196.3,834.9,172.3,836.3"/>
		<path class="st96" d="M25.6,790.8c0-2.3,17.2-26.8,17.2-26.8s-10.5,3-17.2,24.4"/>
		<path class="st96" d="M17.1,767.2c0,0-12.9-24.6-13.5-23.6S15.8,748.9,17.1,767.2"/>
		<path class="st96" d="M23.9,735.7L35,701C35,701,23,713.1,23.9,735.7"/>
		<ellipse class="st97" cx="814.3" cy="779.1" rx="37.5" ry="14.1"/>
		<path class="st14" d="M1422,581.1c-2.2,1.1-39.8-9.1-57.5,1s-36.7,25-8.7,24.6S1422,581.1,1422,581.1z"/>
	</g>
</g>
</svg>
