<svg id="Layer_1" data-name="Layer 1" xmlns="http://www.w3.org/2000/svg" width="1600" height="900" viewBox="0 0 1600 900">
  <defs>
    <style>
      .cls-1 {
        fill: #fff;
      }

      .cls-2 {
        fill: #bde070;
      }

      .cls-2, .cls-3 {
        opacity: 0.5;
      }

      .cls-4 {
        opacity: 0.6;
      }

      .cls-5 {
        fill: #30a9e0;
      }

      .cls-5, .cls-9 {
        stroke: #001751;
        stroke-width: 4px;
      }

      .cls-10, .cls-5, .cls-6, .cls-7, .cls-8, .cls-9 {
        stroke-miterlimit: 10;
      }

      .cls-6 {
        fill: #fffdf8;
        stroke: #4f4f4f;
        stroke-width: 2px;
      }

      .cls-7 {
        fill: #ee9534;
        stroke: #351a00;
      }

      .cls-10, .cls-7, .cls-8 {
        stroke-width: 3px;
      }

      .cls-8 {
        fill: #fceb3e;
        stroke: #352d00;
      }

      .cls-9 {
        fill: #5fb229;
      }

      .cls-10 {
        fill: #984094;
        stroke: #280042;
      }

      .cls-11 {
        opacity: 0.3;
      }

      .cls-12 {
        fill: none;
      }
    </style>
  </defs>
  <g>
    <rect class="cls-1" width="1600" height="900"/>
    <rect class="cls-2" width="1600" height="900"/>
    <g>
      <g class="cls-3">
        <g class="cls-4">
          <circle class="cls-5" cx="528.48" cy="156.13" r="39.13"/>
          <circle class="cls-5" cx="588" cy="126.26" r="39.13"/>
          <circle class="cls-5" cx="641.06" cy="158.14" r="39.13"/>
          <circle class="cls-5" cx="644.07" cy="221.8" r="39.13"/>
          <circle class="cls-5" cx="583.26" cy="249.84" r="39.13"/>
          <circle class="cls-5" cx="526.32" cy="217.06" r="39.13"/>
          <circle class="cls-6" cx="586.28" cy="188.91" r="69.88"/>
        </g>
        <g>
          <path d="M571.31,208.9a11.62,11.62,0,0,0-.07-1.21c0-.38-.09-.83-.11-1.35s-.06-1.06-.11-1.63a11.13,11.13,0,0,1-4.63,3.65,14.88,14.88,0,0,1-6,1.25q-5.83,0-9.08-3.84T548,194.84q0-8.58,5.21-13.24T568.12,177c1,0,2,0,2.87.07s1.73.13,2.59.25,1.76.27,2.67.46,1.92.45,3,.78v20.16c0,1.09,0,2.24.07,3.45s.12,2.3.21,3.3c.1,1.18.19,2.34.29,3.48Zm-1.48-23.15a16.24,16.24,0,0,0-2.24-.35c-.67-.05-1.3-.07-1.88-.07a7.58,7.58,0,0,0-6.07,2.52,10.4,10.4,0,0,0-2.16,7,6.9,6.9,0,0,0,1.3,4.54,4.49,4.49,0,0,0,3.68,1.57,6.6,6.6,0,0,0,2.85-.64,7.1,7.1,0,0,0,2.35-1.81,8.58,8.58,0,0,0,1.59-2.77,10.4,10.4,0,0,0,.58-3.59Z"/>
          <path d="M609.86,208.9V191.17a7.12,7.12,0,0,0-.46-2.87,4,4,0,0,0-1.1-1.54,2.77,2.77,0,0,0-1.35-.62,8.26,8.26,0,0,0-1.2-.1,7.13,7.13,0,0,0-1.49.27,5.25,5.25,0,0,0-2.17,1.3,9,9,0,0,0-2,3,13.8,13.8,0,0,0-.85,5.34V208.9h-9.44V188.25a36,36,0,0,0-.43-5.39,17.07,17.07,0,0,0-1.14-4.35h9.44a13.3,13.3,0,0,1,.61,1.64c.12.42.25,1,.39,1.84a14.73,14.73,0,0,1,4.87-3.26,14,14,0,0,1,5.28-1.07,10.34,10.34,0,0,1,4.14.83,9.67,9.67,0,0,1,3.3,2.32,10.56,10.56,0,0,1,2.19,3.66,13.86,13.86,0,0,1,.8,4.87V208.9Z"/>
        </g>
      </g>
      <g class="cls-3">
        <g class="cls-4">
          <circle class="cls-7" cx="280.03" cy="372.3" r="33.85"/>
          <circle class="cls-7" cx="331.53" cy="346.46" r="33.85"/>
          <circle class="cls-7" cx="377.43" cy="374.04" r="33.85"/>
          <circle class="cls-7" cx="380.05" cy="429.12" r="33.85"/>
          <circle class="cls-7" cx="327.43" cy="453.38" r="33.85"/>
          <circle class="cls-7" cx="278.17" cy="425.01" r="33.85"/>
          <circle class="cls-6" cx="330.04" cy="400.66" r="60.46"/>
        </g>
        <g>
          <path d="M318.32,404.47a19,19,0,0,1-1.23,7.08,14.14,14.14,0,0,1-3.5,5.18,15,15,0,0,1-5.43,3.2,23.28,23.28,0,0,1-14.08,0,15,15,0,0,1-5.43-3.2,14.61,14.61,0,0,1-3.54-5.18,18.56,18.56,0,0,1-1.26-7.08,18.23,18.23,0,0,1,1.23-6.91,14.31,14.31,0,0,1,3.46-5.14,14.72,14.72,0,0,1,5.43-3.21,24,24,0,0,1,14.19,0,14.75,14.75,0,0,1,5.43,3.13,13.82,13.82,0,0,1,3.5,5.14A18.78,18.78,0,0,1,318.32,404.47Zm-9.94,0a7.45,7.45,0,0,0-2-5.55,7.36,7.36,0,0,0-5.4-2,6.91,6.91,0,0,0-5.32,2,7.81,7.81,0,0,0-1.86,5.55,8.22,8.22,0,0,0,1.82,5.71,6.8,6.8,0,0,0,5.36,2,7.32,7.32,0,0,0,5.48-2A7.94,7.94,0,0,0,308.38,404.47Z"/>
          <path d="M349.13,421V402.35a7.66,7.66,0,0,0-.48-3,4.34,4.34,0,0,0-1.16-1.62,2.91,2.91,0,0,0-1.42-.65,9.6,9.6,0,0,0-1.27-.11,7.59,7.59,0,0,0-1.57.29A5.36,5.36,0,0,0,341,398.6a9.25,9.25,0,0,0-2.06,3.17,14.52,14.52,0,0,0-.9,5.63V421H328V399.27a38.36,38.36,0,0,0-.44-5.67,18.32,18.32,0,0,0-1.2-4.58h10a14.33,14.33,0,0,1,.63,1.72,19.64,19.64,0,0,1,.41,1.94,15.64,15.64,0,0,1,5.13-3.44,14.77,14.77,0,0,1,5.57-1.12,10.88,10.88,0,0,1,4.36.87,10.43,10.43,0,0,1,3.48,2.44,11.12,11.12,0,0,1,2.31,3.86,14.84,14.84,0,0,1,.84,5.13V421Z"/>
        </g>
      </g>
      <g class="cls-3">
        <g class="cls-4">
          <circle class="cls-8" cx="215.85" cy="141.82" r="44.26"/>
          <circle class="cls-8" cx="283.19" cy="108.03" r="44.26"/>
          <circle class="cls-8" cx="343.21" cy="144.09" r="44.26"/>
          <circle class="cls-8" cx="346.62" cy="216.11" r="44.26"/>
          <circle class="cls-8" cx="277.82" cy="247.83" r="44.26"/>
          <circle class="cls-8" cx="213.41" cy="210.74" r="44.26"/>
          <circle class="cls-6" cx="281.23" cy="178.9" r="79.05"/>
        </g>
        <g>
          <path d="M250.22,201.33a12.3,12.3,0,0,0-.09-1.35c0-.42-.09-.92-.12-1.51s-.07-1.19-.13-1.82a12.51,12.51,0,0,1-5.17,4.09,16.83,16.83,0,0,1-6.76,1.39q-6.52,0-10.15-4.29t-3.62-12.23q0-9.6,5.83-14.81t16.63-5.2c1.18,0,2.25,0,3.22.08s1.93.15,2.9.28,2,.3,3,.51,2.15.51,3.39.88V189.9c0,1.22,0,2.5.08,3.85s.13,2.58.23,3.69c.11,1.33.21,2.62.32,3.89Zm-1.67-25.88a16.08,16.08,0,0,0-2.5-.4c-.76-.05-1.46-.08-2.1-.08a8.48,8.48,0,0,0-6.79,2.82q-2.41,2.82-2.42,7.82a7.75,7.75,0,0,0,1.45,5.08,5,5,0,0,0,4.12,1.75,7.24,7.24,0,0,0,3.19-.72,7.89,7.89,0,0,0,2.63-2,9.83,9.83,0,0,0,1.78-3.1,11.72,11.72,0,0,0,.64-4Z"/>
          <path d="M316.13,201.33V184.06q0-4.68-1.34-6.49a4.31,4.31,0,0,0-3.63-1.81,5.43,5.43,0,0,0-2.37.57,6.09,6.09,0,0,0-2.17,1.85,9.92,9.92,0,0,0-1.57,3.47,20.93,20.93,0,0,0-.59,5.43v14.25H293.89V184.06c0-2.87-.41-5-1.23-6.3a4.43,4.43,0,0,0-4.09-2,5.75,5.75,0,0,0-4.68,2.68c-1.32,1.79-2,4.67-2,8.64v14.25H271.34V179.39c0-1.28,0-2.45-.08-3.5s-.14-2-.27-3a23.47,23.47,0,0,0-.56-2.7c-.24-.87-.52-1.79-.83-2.77h10.56c.26.83.46,1.44.59,1.85s.28,1,.44,1.77a24.75,24.75,0,0,1,5.49-3.38,17.93,17.93,0,0,1,7.25-1.31,12.43,12.43,0,0,1,5.42,1.15,8.11,8.11,0,0,1,3.59,3.21,11.87,11.87,0,0,1,5.32-3.25,22.23,22.23,0,0,1,6.83-1.11q5.57,0,8.58,3.17t3,9.17v22.6Z"/>
        </g>
      </g>
      <g class="cls-3">
        <g class="cls-4">
          <circle class="cls-8" cx="1172.24" cy="644.61" r="44.78"/>
          <circle class="cls-8" cx="1240.36" cy="610.43" r="44.78"/>
          <circle class="cls-8" cx="1301.07" cy="646.91" r="44.78"/>
          <circle class="cls-8" cx="1304.53" cy="719.76" r="44.78"/>
          <circle class="cls-8" cx="1234.93" cy="751.85" r="44.78"/>
          <circle class="cls-8" cx="1169.77" cy="714.33" r="44.78"/>
          <circle class="cls-6" cx="1238.38" cy="682.12" r="79.97"/>
        </g>
        <g>
          <path d="M1231.79,702.81c0-.36,0-.79-.08-1.3s-.09-.89-.12-1.45-.07-1.14-.12-1.75a12,12,0,0,1-5,3.93,16,16,0,0,1-6.49,1.33q-6.27,0-9.75-4.12t-3.47-11.74q0-9.23,5.6-14.22t16-5c1.14,0,2.17,0,3.1.07s1.85.14,2.78.27,1.88.29,2.86.49,2.06.49,3.25.84v21.66c0,1.17,0,2.4.07,3.7s.13,2.47.23,3.54c.1,1.27.2,2.52.31,3.74Zm-1.6-24.86a15.76,15.76,0,0,0-2.4-.38c-.73-.05-1.4-.08-2-.08a8.16,8.16,0,0,0-6.52,2.71c-1.55,1.8-2.32,4.31-2.32,7.51a7.45,7.45,0,0,0,1.39,4.88,4.86,4.86,0,0,0,4,1.68,7,7,0,0,0,3.07-.69,7.82,7.82,0,0,0,2.52-1.94,9.35,9.35,0,0,0,1.7-3,11.07,11.07,0,0,0,.62-3.85Z"/>
          <path d="M1253.3,702.81V676.5h-6.71v-7.24h6.71v-8.47h10v8.47h8.61v7.24h-8.61v26.31Z"/>
        </g>
      </g>
      <g class="cls-3">
        <g class="cls-4">
          <circle class="cls-7" cx="1218" cy="160.24" r="50.19"/>
          <circle class="cls-7" cx="1294.36" cy="121.92" r="50.19"/>
          <circle class="cls-7" cx="1362.42" cy="162.81" r="50.19"/>
          <circle class="cls-7" cx="1366.29" cy="244.49" r="50.19"/>
          <circle class="cls-7" cx="1288.27" cy="280.45" r="50.19"/>
          <circle class="cls-7" cx="1215.23" cy="238.4" r="50.19"/>
          <circle class="cls-6" cx="1292.15" cy="202.29" r="89.64"/>
        </g>
        <g>
          <path d="M1293.16,219.94a6.8,6.8,0,0,1-2.33,3.31,7,7,0,0,1-4,1,6.5,6.5,0,0,1-4-1.08,7.44,7.44,0,0,1-2.29-3.57L1273,196.81,1265.21,220a5.57,5.57,0,0,1-2.24,3.21,7.61,7.61,0,0,1-4.17,1,13.51,13.51,0,0,1-1.84-.13,4.92,4.92,0,0,1-1.67-.56,4.64,4.64,0,0,1-1.5-1.37,9,9,0,0,1-1.23-2.49l-12.3-34.11h11.86l5.1,15.6c.18.57.36,1.24.57,2s.42,1.53.66,2.27.5,1.78.79,2.75a16,16,0,0,1,.53-2.15c.17-.62.36-1.3.57-2s.39-1.39.57-2l4.92-16.46h14.23l5.28,17.23a14.11,14.11,0,0,0,.48,1.67c.2.6.39,1.19.57,1.76a11.41,11.41,0,0,1,.53,2c.17-.57.35-1.17.52-1.8.3-1.14.62-2.23,1-3.26l5.18-17.57h12.31Z"/>
          <path d="M1347.54,196.21a10,10,0,0,1-1.56,5.45,13,13,0,0,1-4.41,4.17,24.29,24.29,0,0,1-6.84,2.68,38.38,38.38,0,0,1-9,1c-.3,0-.65,0-1,0s-.88,0-1.43,0a8.12,8.12,0,0,0,2.64,5.23,8.34,8.34,0,0,0,5.68,1.89q6.11,0,13-4v9.23a25.21,25.21,0,0,1-6.37,2.76,26.51,26.51,0,0,1-6.9.84,22.7,22.7,0,0,1-8-1.32,16.12,16.12,0,0,1-6-3.82,17,17,0,0,1-3.78-6,22,22,0,0,1-1.32-7.86,24.33,24.33,0,0,1,1.54-8.83,20.52,20.52,0,0,1,4.31-6.9,19,19,0,0,1,6.63-4.48,22.4,22.4,0,0,1,8.52-1.58q6.51,0,10.41,3.16A10.29,10.29,0,0,1,1347.54,196.21Zm-11.68.88a3.06,3.06,0,0,0-1.21-2.42,4.56,4.56,0,0,0-3-1,6.92,6.92,0,0,0-5,2.07,9.71,9.71,0,0,0-2.7,5.66,7.21,7.21,0,0,0,1.4.18h1.3Q1335.85,201.57,1335.86,197.09Z"/>
        </g>
      </g>
      <g class="cls-3">
        <g class="cls-3">
          <circle class="cls-9" cx="874.72" cy="98.42" r="47.71"/>
          <circle class="cls-9" cx="947.3" cy="62.01" r="47.71"/>
          <circle class="cls-9" cx="1011.99" cy="100.87" r="47.71"/>
          <circle class="cls-9" cx="1015.67" cy="178.5" r="47.71"/>
          <circle class="cls-9" cx="941.51" cy="212.68" r="47.71"/>
          <circle class="cls-9" cx="872.09" cy="172.71" r="47.71"/>
          <circle class="cls-6" cx="945.2" cy="138.39" r="85.2"/>
        </g>
        <g>
          <path d="M944.81,158.21v-18q0-4.87-1.4-6.76a4.45,4.45,0,0,0-3.78-1.89,5.7,5.7,0,0,0-2.47.59,6.32,6.32,0,0,0-2.26,1.93,10.42,10.42,0,0,0-1.65,3.62,22.09,22.09,0,0,0-.61,5.66v14.86h-11v-18q0-4.48-1.29-6.57a4.61,4.61,0,0,0-4.26-2.08,6,6,0,0,0-4.88,2.79c-1.38,1.86-2.07,4.87-2.07,9v14.86h-11V135.34q0-2-.09-3.66c0-1.09-.15-2.12-.29-3.09a22.75,22.75,0,0,0-.58-2.8c-.25-.91-.54-1.88-.87-2.89h11l.63,1.92c.13.43.28,1.05.45,1.85a25.31,25.31,0,0,1,5.73-3.52,18.61,18.61,0,0,1,7.56-1.37,12.87,12.87,0,0,1,5.65,1.2,8.35,8.35,0,0,1,3.73,3.34,12.44,12.44,0,0,1,5.55-3.38,23,23,0,0,1,7.13-1.16q5.79,0,8.94,3.3t3.15,9.57v23.56Z"/>
          <path d="M1000.53,131.8a9.37,9.37,0,0,1-1.48,5.13,12.18,12.18,0,0,1-4.15,3.93,22.91,22.91,0,0,1-6.45,2.53,35.8,35.8,0,0,1-8.44.91c-.29,0-.62,0-1,0s-.83,0-1.35,0a7.59,7.59,0,0,0,2.49,4.92,7.85,7.85,0,0,0,5.36,1.78,24.54,24.54,0,0,0,12.19-3.72v8.69a23.83,23.83,0,0,1-6,2.61,25.33,25.33,0,0,1-6.5.79,21.36,21.36,0,0,1-7.49-1.25,15,15,0,0,1-5.67-3.6,15.86,15.86,0,0,1-3.56-5.63,20.71,20.71,0,0,1-1.25-7.41,23.14,23.14,0,0,1,1.45-8.32,19.41,19.41,0,0,1,4.06-6.5,17.85,17.85,0,0,1,6.25-4.22,21.07,21.07,0,0,1,8-1.49q6.12,0,9.81,3A9.71,9.71,0,0,1,1000.53,131.8Zm-11,.83a2.92,2.92,0,0,0-1.13-2.28,4.33,4.33,0,0,0-2.86-.95,6.55,6.55,0,0,0-4.72,1.94,9.27,9.27,0,0,0-2.55,5.34,7.18,7.18,0,0,0,1.32.17h1.23Q989.52,136.85,989.51,132.63Z"/>
        </g>
      </g>
      <g class="cls-3">
        <g class="cls-3">
          <circle class="cls-9" cx="464.04" cy="707.75" r="34.23"/>
          <circle class="cls-9" cx="516.12" cy="681.62" r="34.23"/>
          <circle class="cls-9" cx="562.53" cy="709.51" r="34.23"/>
          <circle class="cls-9" cx="565.17" cy="765.2" r="34.23"/>
          <circle class="cls-9" cx="511.97" cy="789.73" r="34.23"/>
          <circle class="cls-9" cx="462.15" cy="761.05" r="34.23"/>
          <circle class="cls-6" cx="514.61" cy="736.43" r="61.13"/>
        </g>
        <g>
          <path d="M503.73,710.13a3.67,3.67,0,0,1-1.53,3,6.16,6.16,0,0,1-7.4,0,4,4,0,0,1-1.6-3.05,3.62,3.62,0,0,1,1.47-3,5.93,5.93,0,0,1,3.86-1.25,6.09,6.09,0,0,1,2,.34,5.17,5.17,0,0,1,1.66.94,4.6,4.6,0,0,1,1.14,1.41A3.75,3.75,0,0,1,503.73,710.13Zm-10,37.37V718.18h8.86V747.5Z"/>
          <path d="M531.58,747.5V730.86a6.89,6.89,0,0,0-.43-2.69,3.79,3.79,0,0,0-1-1.45,2.67,2.67,0,0,0-1.26-.58,9,9,0,0,0-1.14-.1,6.78,6.78,0,0,0-1.39.26,4.83,4.83,0,0,0-2,1.22,8.34,8.34,0,0,0-1.83,2.83,13,13,0,0,0-.8,5V747.5h-8.86V728.12a32.81,32.81,0,0,0-.4-5.06,16.47,16.47,0,0,0-1.07-4.08h8.87a13.38,13.38,0,0,1,.56,1.53c.11.4.24,1,.37,1.74a13.79,13.79,0,0,1,4.57-3.07,13.31,13.31,0,0,1,5-1,9.64,9.64,0,0,1,3.88.78,9.19,9.19,0,0,1,3.1,2.17,10,10,0,0,1,2.06,3.44,13.2,13.2,0,0,1,.75,4.57V747.5Z"/>
        </g>
      </g>
      <g class="cls-3">
        <g class="cls-4">
          <circle class="cls-5" cx="875.7" cy="709.96" r="33.81"/>
          <circle class="cls-5" cx="927.14" cy="684.15" r="33.81"/>
          <circle class="cls-5" cx="972.99" cy="711.7" r="33.81"/>
          <circle class="cls-5" cx="975.6" cy="766.71" r="33.81"/>
          <circle class="cls-5" cx="923.04" cy="790.94" r="33.81"/>
          <circle class="cls-5" cx="873.84" cy="762.61" r="33.81"/>
          <circle class="cls-6" cx="925.65" cy="738.29" r="60.39"/>
        </g>
        <g>
          <path d="M916.84,720.68a4.05,4.05,0,0,1-1.7,3.29,6.83,6.83,0,0,1-8.19,0,4.44,4.44,0,0,1-1.77-3.38,4,4,0,0,1,1.62-3.38,7.08,7.08,0,0,1,6.46-1,6,6,0,0,1,1.85,1,5.28,5.28,0,0,1,1.25,1.56A4.07,4.07,0,0,1,916.84,720.68Zm-11.07,41.4V729.6h9.82v32.48Z"/>
          <path d="M929.17,762.08V736.61h-6.5v-7h6.5v-8.19h9.67v8.19h8.34v7h-8.34v25.47Z"/>
        </g>
      </g>
      <g class="cls-3">
        <g class="cls-3">
          <circle class="cls-10" cx="210.27" cy="594.45" r="40.91"/>
          <circle class="cls-10" cx="272.51" cy="563.22" r="40.91"/>
          <circle class="cls-10" cx="327.99" cy="596.55" r="40.91"/>
          <circle class="cls-10" cx="331.15" cy="663.12" r="40.91"/>
          <circle class="cls-10" cx="267.55" cy="692.44" r="40.91"/>
          <circle class="cls-10" cx="208.02" cy="658.16" r="40.91"/>
          <circle class="cls-6" cx="270.71" cy="628.73" r="73.06"/>
        </g>
        <g>
          <path d="M248.54,650.56a14.42,14.42,0,0,1-.68-1.85,21.23,21.23,0,0,1-.44-2.08,15.75,15.75,0,0,1-11.32,4.89,11.67,11.67,0,0,1-4.78-1,11.86,11.86,0,0,1-3.85-2.7,11.57,11.57,0,0,1-2.53-4.14,15.63,15.63,0,0,1-.89-5.39c0-2.19.06-4.22.16-6.1s.19-3.67.25-5.39,0-3.44,0-5.16-.19-3.54-.41-5.47h10.68c.16,1.76.25,3.44.28,5.07s0,3.24,0,4.84-.08,3.22-.16,4.87-.12,3.41-.12,5.27a8.85,8.85,0,0,0,.5,3.29,3.66,3.66,0,0,0,2.93,2.4,11.84,11.84,0,0,0,1.42.11,7.9,7.9,0,0,0,1.72-.31,5.6,5.6,0,0,0,2.42-1.47,9.74,9.74,0,0,0,2.13-3.4,16.14,16.14,0,0,0,.92-6V616.2h10.68v23.35a40,40,0,0,0,.48,6.09,19.59,19.59,0,0,0,1.29,4.92Z"/>
          <path d="M305.62,631.78a26.94,26.94,0,0,1-1.12,8,19.46,19.46,0,0,1-3.17,6.25,14.38,14.38,0,0,1-4.87,4.05A15.14,15.14,0,0,1,286,651a12.32,12.32,0,0,1-3.59-2.07v26.55H271.18V626.79c0-.58,0-1.26-.12-2s-.19-1.62-.32-2.49-.3-1.73-.48-2.6a18.59,18.59,0,0,0-.69-2.41h10.89a9.15,9.15,0,0,1,.58,1.57,19.08,19.08,0,0,1,.33,2.21,17.19,17.19,0,0,1,4.85-3.7,12.87,12.87,0,0,1,5.53-1.12,13.88,13.88,0,0,1,5.66,1.12,12.55,12.55,0,0,1,4.38,3.16,14.48,14.48,0,0,1,2.82,4.94A19.28,19.28,0,0,1,305.62,631.78Zm-10.68,1.79a7.67,7.67,0,0,0-1.59-5.17,5.54,5.54,0,0,0-4.41-1.84,6.3,6.3,0,0,0-5.18,2.36,9.8,9.8,0,0,0-1.9,6.34v4.65a8.45,8.45,0,0,0,5.68,2.14A6.87,6.87,0,0,0,293,639.8,9.12,9.12,0,0,0,294.94,633.57Z"/>
        </g>
      </g>
      <g class="cls-3">
        <g class="cls-3">
          <circle class="cls-10" cx="1313.48" cy="437.64" r="41.45"/>
          <circle class="cls-10" cx="1376.54" cy="406.01" r="41.45"/>
          <circle class="cls-10" cx="1432.75" cy="439.77" r="41.45"/>
          <circle class="cls-10" cx="1435.95" cy="507.22" r="41.45"/>
          <circle class="cls-10" cx="1371.51" cy="536.93" r="41.45"/>
          <circle class="cls-10" cx="1311.19" cy="502.2" r="41.45"/>
          <circle class="cls-6" cx="1374.71" cy="472.38" r="74.03"/>
        </g>
        <g>
          <path d="M1359.21,449.57a4.5,4.5,0,0,1-1.88,3.65,7.58,7.58,0,0,1-9.08,0,4.89,4.89,0,0,1-2-3.75,4.46,4.46,0,0,1,1.8-3.75,7.3,7.3,0,0,1,4.75-1.53,7.15,7.15,0,0,1,2.41.42,6.38,6.38,0,0,1,2,1.15,5.71,5.71,0,0,1,1.39,1.73A4.44,4.44,0,0,1,1359.21,449.57Zm-12.27,45.91v-36h10.88v36Z"/>
          <path d="M1393.43,495.48V475a8.42,8.42,0,0,0-.53-3.32,4.7,4.7,0,0,0-1.27-1.77,3.15,3.15,0,0,0-1.56-.71,9.77,9.77,0,0,0-1.39-.12,8.1,8.1,0,0,0-1.72.31,6.05,6.05,0,0,0-2.49,1.5,10.22,10.22,0,0,0-2.26,3.48,15.93,15.93,0,0,0-1,6.15v14.92h-10.88V471.67a40.37,40.37,0,0,0-.5-6.21,19.64,19.64,0,0,0-1.31-5h10.89a15.83,15.83,0,0,1,.7,1.89c.13.49.28,1.2.45,2.12a17,17,0,0,1,5.61-3.76,16.16,16.16,0,0,1,6.1-1.23,11.82,11.82,0,0,1,4.77,1,11.13,11.13,0,0,1,3.81,2.67,12.19,12.19,0,0,1,2.52,4.22,16,16,0,0,1,.92,5.62v22.55Z"/>
        </g>
      </g>
    </g>
    <rect class="cls-11" width="1600" height="900"/>
    <rect class="cls-12" width="1600" height="900"/>
  </g>
</svg>
