<svg id="Layer_1" data-name="Layer 1" xmlns="http://www.w3.org/2000/svg" xmlns:xlink="http://www.w3.org/1999/xlink" viewBox="0 0 326.12 423.88"><defs><style>.cls-1{fill:#232423;opacity:0.39;}.cls-2{fill:#1071b9;stroke:#002f49;}.cls-10,.cls-12,.cls-16,.cls-17,.cls-2,.cls-4,.cls-5,.cls-6,.cls-7,.cls-9{stroke-miterlimit:10;}.cls-3{fill:#1467a3;}.cls-4{fill:#ee1e23;stroke:#721e0e;}.cls-4,.cls-9{stroke-width:0.75px;}.cls-29,.cls-5{fill:#fff;}.cls-5,.cls-6,.cls-7{stroke:#969696;}.cls-6{fill:#cecece;}.cls-16,.cls-7{fill:none;}.cls-8{fill:#061922;}.cls-17,.cls-26,.cls-9{fill:#f9d1c6;}.cls-17,.cls-9{stroke:#323232;}.cls-10{fill:#077477;stroke:#0c7777;stroke-width:2px;}.cls-11,.cls-18{fill:#db9d8e;}.cls-11{opacity:0.63;}.cls-12{fill:#ffd939;}.cls-12,.cls-16{stroke:#5e4c00;}.cls-13{fill:#00b6c2;}.cls-14{fill:#0c7777;}.cls-15{fill:#0a2c2d;opacity:0.22;}.cls-19{fill:#f5968e;}.cls-20{fill:#951c27;}.cls-21{fill:#d26653;}.cls-22{fill:url(#linear-gradient);}.cls-23{fill:#342517;}.cls-24{fill:#f9feff;}.cls-25{fill:#350b02;}.cls-27{fill:#49442e;}.cls-28{fill:#fefffe;}.cls-30{fill:#dbdbdb;}.cls-31{fill:#9dd4f9;}.cls-32{fill:#ff603b;}.cls-33{fill:#324156;}.cls-34{fill:#c44931;}.cls-35{fill:#ff8269;}.cls-36{fill:url(#linear-gradient-2);}.cls-37{fill:#323232;}</style><linearGradient id="linear-gradient" x1="335.19" y1="473.35" x2="335.67" y2="484.54" gradientTransform="matrix(1.42, -0.12, 0.14, 1.64, -357.76, -616.53)" gradientUnits="userSpaceOnUse"><stop offset="0" stop-color="#e8d9d7"/><stop offset="0.4" stop-color="#efe5e4"/><stop offset="1" stop-color="#fff"/></linearGradient><linearGradient id="linear-gradient-2" x1="335.26" y1="473" x2="335.74" y2="484.24" xlink:href="#linear-gradient"/></defs><path class="cls-1" d="M47.87,396.77c-2.18,9.14,17.62,12.54,17.74,12.47,9.52-5.81,66.34-43.09,82.59-53.17a10.78,10.78,0,0,1,8.89-1.14L170.18,359c7.62,2,18,3,25.86,1.28a10.47,10.47,0,0,0,1.35-.4l7.2-2.6a10.79,10.79,0,0,1,11.74,3c10.12,11.38,30.53,33.78,39.13,47.67,11.18,18,17.5,16.66,30.3,10.53s20.85-18.86,13.56-32.42c-1.08-2-35.66-26.61-37.73-27.6l-57-33.77c-.6-.29,23.17-23.68,11.35-10.13l-42.24,6.92a10.78,10.78,0,0,0-7.59.73L117.62,345.9,56.3,377.62a10.85,10.85,0,0,0-5.55,7.09Z"/><path class="cls-2" d="M251.64,386s-29.07-37.38-42.77-53c-17.3-19.67,8.83-43.44,51.94-13.91,0,0,18.67,16.29,23.08,23.08Z"/><path class="cls-3" d="M206.71,329.2a31.22,31.22,0,0,0,3.78,4.75c1.93,1.85,42.1,52.08,42.1,52.08l10.63-14.13s-39.61-26.76-24.31-55.26C238.91,316.64,209.93,303,206.71,329.2Z"/><path class="cls-4" d="M298.48,331.65s-21-3.82-36.32,22.13-13.06,50.83-4.07,58.13S298.48,331.65,298.48,331.65Z"/><path class="cls-5" d="M254.7,404.87s-5.27-19,13.57-48.37,32.56-25.79,40.57-24.49c11.48,1.87,18.67,14.64,14.08,30.6s-16.46,44.29-37.16,55.84S255.88,411.36,254.7,404.87Z"/><path class="cls-6" d="M268.87,374.06s18.07-35.38,39.71-35.38,5.86,37.42,0,47.35-21.13,35.89-38.44,31.82S262,385.28,268.87,374.06Z"/><line class="cls-7" x1="319.62" y1="350.54" x2="298.48" y2="341.13"/><line class="cls-7" x1="318.96" y1="358.27" x2="291.07" y2="345.84"/><line class="cls-7" x1="282.52" y1="354.11" x2="316.13" y2="368.95"/><line class="cls-7" x1="312.82" y1="377.48" x2="276.33" y2="362.01"/><line class="cls-7" x1="307.54" y1="387.79" x2="270.05" y2="371.9"/><line class="cls-7" x1="301.51" y1="397.28" x2="265.05" y2="381.69"/><line class="cls-7" x1="294.58" y1="405.21" x2="262" y2="390.57"/><line class="cls-7" x1="286.79" y1="413.41" x2="260.21" y2="400.54"/><path class="cls-8" d="M85.54,385.63s-9,3.91-17.55-16.32-8.33-26.61-8.33-26.61,16.27-4.89,20.11,1.22S91.62,377.2,85.54,385.63Z"/><polygon class="cls-9" points="81.13 380.03 111.16 360.27 89.92 337.44 68.44 350.94 81.13 380.03"/><path class="cls-2" d="M172.51,329.46,86.75,384.13S95.89,372,60.87,341.2l69-41.06S188.05,295.38,172.51,329.46Z"/><path class="cls-4" d="M71.12,399.35s9.66-4.42,10.88-15S68,336,42.51,321.89,5.2,338.51,5.2,338.51Z"/><path class="cls-5" d="M20,319.16s25.72,5.3,47.67,51.68c14.27,30.13,5.56,37-6.93,38.58-13,1.64-66.35-59.33-57.64-80.67C7.57,317.71,20,319.16,20,319.16Z"/><path class="cls-6" d="M2,331.52s-4.5,15.66,23.08,47.81S59,409.69,60.7,409.42s6.94-11.95-8.83-37.88S9.83,314.18,2,331.52Z"/><line class="cls-7" x1="12.94" y1="363.39" x2="36.51" y2="349.32"/><line class="cls-7" x1="19.47" y1="372.02" x2="43.55" y2="358.82"/><line class="cls-7" x1="25.82" y1="380.66" x2="49.25" y2="367.35"/><line class="cls-7" x1="33.22" y1="388.56" x2="54.99" y2="376.99"/><line class="cls-7" x1="39.95" y1="395.84" x2="58.99" y2="385.37"/><line class="cls-7" x1="48.6" y1="402.91" x2="62.38" y2="396.48"/><line class="cls-7" x1="7.99" y1="353.53" x2="29.04" y2="340.48"/><line class="cls-7" x1="3.07" y1="343.05" x2="20.54" y2="332.31"/><path class="cls-3" d="M88.87,382.78l84.76-53.32c.66-1.17,5.21-9.36,1.57-16-2.25-4.14-6.55-5.67-9.1-6.54-16.2-5.51-38.35,4.88-43.95,7.64.45,3.16,2.65,20.38-9.25,35.72-5.49,7.07-14,13.46-27.23,17.15C85.67,367.4,90.49,374.72,88.87,382.78Z"/><path class="cls-10" d="M112.53,250.19s.82,9.1-7.35-2.86-14.92-29.62-14.92-29.62-2.66-6.08,2.46-4.19S112.53,250.19,112.53,250.19Z"/><path class="cls-11" d="M94.34,213l.21-.06c1.1,1.11,18.25,18.46,19.78,29.14a100.94,100.94,0,0,1-8.24,6.32c-4.89-13.7-13.53-26.53-17-31.34Z"/><path class="cls-12" d="M240.26,264.35l3.25,50.38s-42.69,20.56-114.42-7.87l-8.57,6.23a337.15,337.15,0,0,0,8.8-74.43l-8.08,8.75-5.87,6.36c-4.85-24.87-20.17-37.31-20.17-37.31a22.1,22.1,0,0,0,6-5.65c6.54-8.77,21.75-25.51,26.24-29.21,6.58-5.41,41.43-13.46,41.43-13.46s42.84-11.66,76.29,20.11l22.61,37.52,5.29,7.71s-10.89,10.77-32.62,22.05Z"/><line class="cls-13" x1="126.7" y1="241.69" x2="128.09" y2="213.84"/><polygon class="cls-14" points="125.7 241.64 128.09 213.84 127.7 241.74 125.7 241.64"/><line class="cls-13" x1="244.12" y1="260.66" x2="243.77" y2="223.46"/><polygon class="cls-14" points="243.12 260.67 243.77 223.46 245.12 260.65 243.12 260.67"/><path class="cls-15" d="M244.2,254.6l-.12,9.19L244,246.88s23.26-14.06,29-23.21l5.61,8.05S267.13,242.92,244.2,254.6Z"/><path class="cls-15" d="M122.24,248.74l-6.19,6.61c-5.21-25.94-21.43-39-21.43-39s2.55-2.4,6.27-5.86C106,215.58,121.71,232.36,122.24,248.74Z"/><line class="cls-16" x1="184.12" y1="187.8" x2="183.37" y2="266.27"/><circle class="cls-16" cx="189.6" cy="214.84" r="2.65"/><path class="cls-17" d="M209.26,163.71a21.42,21.42,0,0,1-2.18,8.72,22.15,22.15,0,0,1-8.85,9.2c-2.91,1.68-3.15.94-6.12,2.72-5.07,3-6.45,5.12-8.74,6.05-3.34,1.37-9-4.3-9.91-5-9.93-7.58-11.46-15.78-11.76-22-.06-1.14-.06-1.8-.06-1.8-.15-2.38-4.91-14-1.73-19,2.65-4.19,15.74-.22,15.74-.22l26.79,0c.06,2.45,5.15,4,6.8,8.58,1.54,4.32-.35,11.73,0,12.5Z"/><path class="cls-11" d="M207.62,164.28c-3.14,2.51-7.89,5.21-19.54,6a42.37,42.37,0,0,1-26.38-6.86c-.06-1.14-.06-1.8-.06-1.8-.61-1-5.45-11.13-2.27-16.15,10.72-4.19,35.47-1.83,35.47-1.83l14.1,9.91C210.49,157.9,207.31,163.51,207.62,164.28Z"/><path class="cls-9" d="M247.11,111C243.36,120,234.94,124,227.86,121s-4.73-8-1-16.86,4-7.92,10.75-11.57C252.45,84.57,250.86,102.13,247.11,111Z"/><path class="cls-18" d="M240.38,96.18a3.69,3.69,0,0,1,3.26.15c1.27.84,1.51,2.59,1.46,4.1A24.84,24.84,0,0,1,239.2,115a6.06,6.06,0,0,1-1.92,1.72,2.34,2.34,0,0,1-2.46-.11,2.69,2.69,0,0,1-.68-2.69c.53-2.41,2.63-4.09,4.32-5.89a4.65,4.65,0,0,0,1.12-1.66,1.83,1.83,0,0,0-.33-1.88,2.4,2.4,0,0,0-1.44-.58,13.27,13.27,0,0,0-3.21.13c-.53-1.57.71-3.14,1.58-4.31A9.72,9.72,0,0,1,240.38,96.18Z"/><path class="cls-9" d="M120.76,120.55c4.39,8.3,12,11.1,17.59,7.17s2.87-8.52-1.52-16.83-4.45-7.28-10.65-10C112.59,95.1,116.36,112.25,120.76,120.55Z"/><path class="cls-18" d="M124.37,104.91a2.74,2.74,0,0,0-2.73.6c-1,1-.92,2.77-.66,4.27a26.62,26.62,0,0,0,7,13.59,5.29,5.29,0,0,0,1.85,1.44,1.79,1.79,0,0,0,2.06-.45,3.1,3.1,0,0,0,.2-2.75c-.78-2.32-2.78-3.69-4.46-5.24a4.74,4.74,0,0,1-1.17-1.48,2.16,2.16,0,0,1,0-1.92,2,2,0,0,1,1.14-.77,9.64,9.64,0,0,1,2.72-.31c.23-1.63-1-3-1.93-4A8.45,8.45,0,0,0,124.37,104.91Z"/><path class="cls-9" d="M236.77,76.55c-1.29-32.19-19.93-52.27-56.42-49.95-35.41,2.25-54.83,21.91-53.55,54.1.6,14.88,5.71,40.33,5.71,41.14,0,29,36.4,45.53,57.35,43.2,14.88-1.66,47-25.08,44.93-49.7C234.72,114.54,237.36,91.43,236.77,76.55Z"/><path class="cls-19" d="M163,132.21s15.77.1,21.55-.49S208,129,208,129s-8.72,19.83-20.68,21.85C176.16,152.68,163,132.21,163,132.21Z"/><path class="cls-20" d="M185.67,131.82c-6.12.21-23.85-.66-23.85-.66s15.38,16,24.71,15.79,22.61-19.48,22.61-19.48S191.79,131.61,185.67,131.82Z"/><path class="cls-21" d="M194.44,139a31.13,31.13,0,0,0-5.29,0,5.71,5.71,0,0,0-2.86.94,16.14,16.14,0,0,0-8.27,0c-4.37,1.21-3.88,1.51-3.71,2.06,3.78,2.52,8.25,5.08,12.22,4.94,2.94-.11,6.47-2,8.91-4.24a27.16,27.16,0,0,0,2.77-2.22C199.2,139.8,198.12,139.35,194.44,139Z"/><path class="cls-18" d="M208,123.84s.33,6.1,2.9,6.68-.16-2-.8-3.07C209.78,126.89,208,123.84,208,123.84Z"/><path class="cls-18" d="M162.91,127.28s.45,6.08-2,7-.37-2,.4-3A34.13,34.13,0,0,0,162.91,127.28Z"/><path class="cls-22" d="M167.25,131.64s1.69,8.6,18.86,7.31S203,129.1,203,129.1a80.21,80.21,0,0,1-17.45,3.06C179.93,132.53,173.43,130.68,167.25,131.64Z"/><path class="cls-19" d="M161.82,131.16s12.43,4.28,23.07,3.06c22.57-2.6,24.25-6.75,24.25-6.75s-17.76,3.48-24.41,3.6C178.72,131.19,161.82,131.16,161.82,131.16Z"/><path class="cls-23" d="M167.8,80.36c-4.14-.76-18.47.34-21.34,9.28,0,0,11-5.23,21-4.58C167.43,85.06,169.9,80.75,167.8,80.36Z"/><path class="cls-23" d="M195.93,78.67c3.95-1.46,18.26-2.79,22.6,5.54,0,0-11.78-3.29-21.45-1C197.08,83.23,193.93,79.4,195.93,78.67Z"/><path class="cls-18" d="M145.67,64.62s10.46,10,50.22,7.58l-1.47-5.43s5.92,5.53,29.32,8.36l11.91,28.92-7-59.45-84.37-2.13L132.31,56.79,134,73.2s-5.77,26.46-3.65,37.55l5.74-20.3S146.44,95.16,145.67,64.62Z"/><path class="cls-23" d="M144.06,56.08s-3.22,13.07,50.22,13.13c0,0-1.42-.58-6.9-13.19,7.08,15.52,26.61,13.76,37,16.49l-2.45-15,13.77,46.58s3.48-11.12,4.46-17.23c0,0,1.43-15.59-1.84-26.34a18.48,18.48,0,0,1,4.26,8.1s2.2-28.94-20.38-47.2c0,0,3.88.8,12.29,4.56,0,0-16.39-24.8-47.88-24.37-16.48.22-40,4.89-46.43,21.81,0,0-15.37-6.26-22.73,19.63,0,0,5.72-9,12.9-9.4,0,0-10.19,3.82-12.78,28.35-2.44,23.17,4.19,35.66,12.64,51.34,0,0,1.58-19.93,5.7-34.19L137,87.78S144.16,88.33,144.06,56.08Z"/><path class="cls-24" d="M171,97.59c3.63,5.24,3.19,11,0,13.25-4.75,3.34-16,4.34-20.24-.43-4.09-4.62-2.14-13.1,4.49-16.77C161.07,90.42,167.46,92.51,171,97.59Z"/><path class="cls-25" d="M150,96.22c5.15-8.18,17.59-5.48,21.12,1.54a11.92,11.92,0,0,0-15.67-3.83,12.52,12.52,0,0,0-6.29,8.7,10.1,10.1,0,0,0,1.87,8C149.06,109.41,146.2,102.23,150,96.22Z"/><path class="cls-24" d="M196.51,97.31c-3.52,5.32-3,11.1.24,13.25,4.82,3.24,16.11,4,20.22-.86s1.86-13.14-4.84-16.67C206.26,89.94,199.91,92.17,196.51,97.31Z"/><path class="cls-26" d="M175.4,117.45a17,17,0,0,0,7.24,3.59c4.09.78,9.55-4.86,9.55-4.86"/><path class="cls-27" d="M175.4,117.45a42.26,42.26,0,0,0,4.38,1.84,19.19,19.19,0,0,0,2.18.62,7.58,7.58,0,0,0,1.06.18c.15,0,.3,0,.46,0l.49-.05a12.85,12.85,0,0,0,4.08-1.5c1.36-.73,2.72-1.56,4.14-2.39a13.59,13.59,0,0,1-3.28,3.69,9.79,9.79,0,0,1-4.71,2.19l-.71,0c-.24,0-.49,0-.73-.07a3.79,3.79,0,0,1-.67-.13,6.52,6.52,0,0,1-.63-.18,12.1,12.1,0,0,1-2.33-1A11.49,11.49,0,0,1,175.4,117.45Z"/><path class="cls-25" d="M217.47,95.5c-5.32-8.07-17.7-5.1-21.08,2A11.92,11.92,0,0,1,212,93.32a12.52,12.52,0,0,1,6.47,8.57,10,10,0,0,1-1.7,8.07C218.67,108.67,221.38,101.43,217.47,95.5Z"/><path class="cls-25" d="M155.09,113.16c-5.92-10.93,12.7-20,16-2.1C171.1,111.06,165.72,115.05,155.09,113.16Z"/><path class="cls-25" d="M196.26,110.66c-4.53-13.7,19.59-15.83,15.17,2A24.13,24.13,0,0,1,196.26,110.66Z"/><path class="cls-28" d="M202.38,100a2,2,0,1,1-2.56-1A1.95,1.95,0,0,1,202.38,100Z"/><path class="cls-28" d="M158.84,101.67a2,2,0,1,1-2.57-1.08A2,2,0,0,1,158.84,101.67Z"/><path class="cls-29" d="M112.37,307.13c-8.29-14.65-3.93-27.91-13.09-42-2.34-3.6-5.59-33.07-8.28-49.79,20.29-5.26,64.42-2.84,87.65,37.47,0,.38-11.45,52.4-12.46,57.86a65.75,65.75,0,0,0-24.86-7.43A63.65,63.65,0,0,0,112.37,307.13Z"/><path class="cls-30" d="M166.27,311l-.13-.06a65.17,65.17,0,0,0-24.81-7.43,63.9,63.9,0,0,0-28.92,3.86c-4-7.09-5.22-14-6.26-20.59-1.15-7.3-2.23-14.19-7-21.43-1.64-2.53-3.7-17.44-5.7-31.86-.92-6.61-2.64-18.22-2.64-18.22l.13,0c9.72-2.52,26.05-3.41,42.77,1.64a76.88,76.88,0,0,1,45,35.88c0,.18-.69,3.74-4.63,21.78C170.89,289.26,166.27,311,166.27,311Zm-31.44-8.17c2.16,0,4.34.09,6.51.29a65.5,65.5,0,0,1,24.76,7.38c.69-3.61,12.22-56.52,12.41-57.56-22.08-38.22-64.26-43.29-87.35-37.36.82,5.13,1.67,11.3,2.58,17.83,2,14.37,4,29.22,5.63,31.67,4.78,7.32,5.92,14.59,7,21.62,1,6.53,2.09,13.28,6,20.27A63.46,63.46,0,0,1,134.83,302.78Z"/><path class="cls-29" d="M99.8,278c-.41-.95-11.55-43.79-13.2-51.81,19.75-11.16,65.51-9.45,92.05,26.65,0,.38-11.45,52.4-12.46,57.86C158.8,306.75,110,284.53,99.8,278Z"/><path class="cls-30" d="M166.27,311l-.13-.06c-2.51-1.35-9.71-4.76-18.82-9.07-17.23-8.16-40.84-19.33-47.57-23.64-.36-.84-11.51-43.4-13.27-51.94l0-.17.11-.06c10.69-6,27.37-7.73,43.54-4.41a79.41,79.41,0,0,1,48.64,31.1c0,.18-.69,3.74-4.63,21.78C170.89,289.26,166.27,311,166.27,311Zm-66.38-33.1c6.77,4.32,30.31,15.46,47.51,23.6,9,4.25,16.07,7.61,18.7,9,.69-3.6,12.21-56.45,12.41-57.56A79.1,79.1,0,0,0,130.07,222c-16.07-3.3-32.64-1.64-43.31,4.33C88.6,235.11,99.28,276.06,99.89,277.85Z"/><path class="cls-31" d="M84.6,240.09c.73-.87.92-1.05,1.8-2,33.14-9.3,62-.7,80.57,14.68.71,5.91,3.76,67.45,2.56,75.11C143.05,319.24,108.26,234.41,84.6,240.09Z"/><path class="cls-32" d="M104.58,323c-5.29-23.59-14.48-57.37-20-82.9a86.09,86.09,0,0,1,82.05,14.44c.71,5.74,5,66,3.78,73.48C144,319.59,128.25,317.47,104.58,323Z"/><path class="cls-29" d="M253.43,306.87c2.39-10.66,1.75-85,3.95-101.71-18.32-4.72-70.25,7.82-78.72,48.11,0,.38,15,51.85,16.15,57.31C202.08,306.56,244.61,303.58,253.43,306.87Z"/><path class="cls-30" d="M194.73,310.83l0-.2c-.76-3.51-7.4-26.64-11.79-41.94-3.76-13.11-4.37-15.28-4.37-15.43a52.5,52.5,0,0,1,13.35-25.33,72,72,0,0,1,22.41-15.78c16.63-7.72,34.27-9.46,43.11-7.18l.13,0,0,.2c-1.05,8-1.46,29.68-1.85,50.61-.44,23.43-.86,45.57-2.1,51.13l0,.16-.11,0c-8.39-3.13-51.07-.44-58.55,3.7Zm-15.94-57.52c.09.43,15.17,52.94,16.1,57,4-2.09,17.21-3.78,28.64-4.54,10.71-.71,24.88-.9,29.81.86,1.21-5.79,1.64-28.7,2-50.86.39-20.77.8-42.25,1.84-50.47-8.84-2.22-26.35-.47-42.87,7.2C195.08,221.47,182.45,236,178.79,253.31Z"/><path class="cls-29" d="M253.43,306.87c2.39-10.66,9.59-76,11.79-92.73-20.44-5.08-67.55-.61-86.56,39.13,0,.38,15,51.85,16.15,57.31C202.08,306.56,244.61,303.58,253.43,306.87Z"/><path class="cls-30" d="M194.73,310.83l0-.2c-.76-3.51-7.4-26.64-11.79-41.94-3.76-13.11-4.37-15.28-4.37-15.43,10.53-22,29.13-32.08,42.85-36.55,17.54-5.73,34.6-5.07,43.86-2.76l.13,0s-1.85,15.08-3.18,26.36c-2.95,25-7,59.2-8.64,66.6l0,.16-.11,0c-8.39-3.13-51.07-.44-58.55,3.7Zm-15.94-57.52c.15.62,15.17,52.94,16.1,57,4-2.09,17.21-3.78,28.64-4.54,10.71-.71,24.88-.9,29.81.86,1.68-7.71,5.68-41.6,8.6-66.39,1.32-11.14,2.45-20.77,3.13-26C246,209.63,198.14,213,178.79,253.31Z"/><path class="cls-29" d="M266.58,275.55c.38-.95,3.1-42.83,3.83-50.52-18.88-9.15-67.11-5.8-92.13,28.75,0,.38,15.36,51.34,16.53,56.8C202.08,306.56,256.56,282.18,266.58,275.55Z"/><path class="cls-30" d="M194.73,310.83l0-.2c-.77-3.57-7.7-26.89-12.28-42.33-3.7-12.47-4.26-14.38-4.26-14.53,11-15.25,28.29-26.33,48.48-31,16.36-3.74,33.56-2.95,43.81,2,0,0-.91,13.26-1.64,23.53-1.17,16.61-1.9,26.74-2.11,27.27-6.41,4.25-31.54,16-49.85,24.6-10.39,4.86-19.37,9.06-22,10.51Zm-16.31-57c.19.7,15.51,52.32,16.47,56.48,2.76-1.51,11.21-5.46,21.87-10.45C235,291.35,260,279.66,266.48,275.4c.24-1.11,1.21-14.89,2.07-27.07.71-10.11,1.39-19.67,1.72-23.17-10.23-4.91-27.32-5.68-43.6-1.95C206.56,227.8,189.43,238.69,178.42,253.85Z"/><path class="cls-33" d="M192.68,254.45c0,1.17-5.45,3.54-12.82,3.57s-13.38-2.34-13.21-3.49c.13-.82,5.86-2.84,13.23-2.87S192.67,253.79,192.68,254.45Z"/><path class="cls-31" d="M166.93,262.11c-.05-3.67-.28-7.13-.3-9.58,9.78,2.69,17.18,2.87,26.05.16.14,1.62-.59,8.64-.41,10.57C185.92,266.39,172.25,267.44,166.93,262.11Z"/><path class="cls-34" d="M170.43,328c-.79-20-2.89-49.13-3.78-73.48,9.69,2,17.15,2.55,26-.08.68,5.23,3.23,66,4.06,73.65C190.39,331.14,175.74,333.18,170.43,328Z"/><path class="cls-31" d="M274.73,236.51c-.06-.3-.3-1.07-.56-1.83-26.78-6.34-63.37,2.48-81.49,18-.46,5.48,1.25,11.22,1.94,19.06C226.17,264.37,265.79,236.18,274.73,236.51Z"/><path class="cls-32" d="M261.47,326.05c4-26.16,9.48-63.87,13.26-89.54-26.77-6.15-63.92,2.84-82.05,17.94.23,5.25-1.4,67.7-.72,75.31C223.51,322.59,252.66,322.76,261.47,326.05Z"/><circle class="cls-35" cx="229.5" cy="283.6" r="27.97"/><path class="cls-29" d="M212.28,279a4.74,4.74,0,0,0,2.06-.26c1-.39,1.36-1,1.16-1.59s-.75-.81-2-.72c-1.62.11-2.61-.23-3-1-.47-1.09.26-2.49,2.14-3.2a5.07,5.07,0,0,1,2.31-.34c0,.43-.05.64-.08,1.06a4,4,0,0,0-1.91.24c-.93.34-1.27,1-1.07,1.49s.83.6,2,.55c1.61-.08,2.54.31,2.88,1.36.4,1.24-.39,2.42-2.21,3.11a5.84,5.84,0,0,1-2.34.41Z"/><path class="cls-29" d="M218.63,268.34c.12.44-.19.91-.86,1.09a.91.91,0,0,1-1.22-.51c-.13-.45.21-.94.83-1.11A.92.92,0,0,1,218.63,268.34Zm.71,9.67c-.81-2.86-1.21-4.29-2-7.14.65-.19,1-.28,1.63-.45l1.83,7.21C220.2,277.77,219.91,277.85,219.34,278Z"/><path class="cls-29" d="M229.59,268.62c0,.55,0,1.16.07,2.08.13,1.75.19,2.63.32,4.38s-.18,2.81-.86,3.53a4.5,4.5,0,0,1-2.68,1.21,5.66,5.66,0,0,1-2.63-.19l.15-1.08a5.08,5.08,0,0,0,2.37.2,2.36,2.36,0,0,0,2.24-2.91l-.08-.84h0a3.13,3.13,0,0,1-2.44,1.56,3.65,3.65,0,0,1-4.18-2.95,3.81,3.81,0,0,1,3.28-4.65,3,3,0,0,1,3,.93h0c0-.46,0-.69,0-1.14C228.7,268.69,229,268.67,229.59,268.62Zm-1.44,3.13a1.76,1.76,0,0,0-.16-.61,2.24,2.24,0,0,0-2.45-1.15,2.56,2.56,0,0,0-2.16,3.24,2.51,2.51,0,0,0,2.92,2.25,2.27,2.27,0,0,0,1.93-1.64,2.33,2.33,0,0,0,.05-.74Z"/><path class="cls-29" d="M232.21,264.92c.71,0,1.07,0,1.79-.05,0,1.9,0,2.85,0,4.75h0a2.84,2.84,0,0,1,1.21-1,4,4,0,0,1,1.74-.35,2.93,2.93,0,0,1,2.92,3.49c-.18,1.82-.28,2.74-.46,4.56-.59-.07-.89-.09-1.48-.14.13-1.76.19-2.64.32-4.39.09-1.24-.38-2.34-1.94-2.39a2.31,2.31,0,0,0-2.24,1.36,1.48,1.48,0,0,0-.11.66v4.6c-.59,0-.89,0-1.48,0Z"/><path class="cls-29" d="M245.29,267.13l-.39,2.19c1,.16,1.44.25,2.4.46l-.23,1.05c-.94-.2-1.41-.29-2.36-.46-.29,1.65-.44,2.47-.73,4.11-.17.95,0,1.53.85,1.7a3.7,3.7,0,0,0,.89.09c-.07.42-.1.63-.16,1.05a4,4,0,0,1-1.33-.08,2.37,2.37,0,0,1-1.49-.88,2.87,2.87,0,0,1-.27-2.08c.25-1.67.38-2.5.63-4.17-.56-.08-.85-.12-1.41-.18l.14-1.06c.57.07.86.1,1.43.19l.28-1.83Z"/><path class="cls-29" d="M209.49,292.54c1,1.24,1.48,1.86,2.43,3.13a23,23,0,0,1,1.4,2h.05a24.48,24.48,0,0,1-.12-2.47c0-1.62,0-2.43.08-4.07l1.27-.42c1,1.27,1.43,1.92,2.35,3.22a24.87,24.87,0,0,1,1.36,2.17l.05,0a17.27,17.27,0,0,1,0-2.52c.06-1.58.11-2.38.22-4l1.53-.37c-.43,3.21-.59,4.8-.78,8l-1.25.34c-.86-1.25-1.3-1.87-2.21-3.09-.52-.71-1-1.35-1.46-2.12h0a25.24,25.24,0,0,1,0,2.59c-.06,1.52-.07,2.28-.07,3.78l-1.22.45c-1.95-2.46-3-3.66-5.12-6Z"/><path class="cls-29" d="M229.59,291.47a3.91,3.91,0,0,1-3.47,4.5,4,4,0,1,1-1.07-7.89A3.69,3.69,0,0,1,229.59,291.47Zm-6.47,1a2.69,2.69,0,0,0,2.91,2.46c1.35-.2,2.23-1.54,2-3.25-.15-1.29-1.07-2.86-2.89-2.57A2.61,2.61,0,0,0,223.12,292.47Z"/><path class="cls-29" d="M231.39,289.94c-.06-.9-.13-1.68-.23-2.38l1.39-.09c0,.6.07.9.12,1.51h.07a2.51,2.51,0,0,1,2.34-1.76,2.19,2.19,0,0,1,.46,0v1.33a2.73,2.73,0,0,0-.53-.05,2.07,2.07,0,0,0-2,1.87,3.29,3.29,0,0,0,0,.65c.07,1.64.1,2.46.17,4.1-.56,0-.84,0-1.39.07C231.59,293.11,231.52,292.05,231.39,289.94Z"/><path class="cls-29" d="M244.91,284.23c-.45,3.75-.68,5.62-1.13,9.38-.08.69-.16,1.47-.17,2l-1.27-.15c0-.54,0-.81.07-1.35h0a3,3,0,0,1-2.8,1.3c-1.88-.12-3.3-1.71-3.29-4.06a3.76,3.76,0,0,1,4-4,2.89,2.89,0,0,1,2.52,1.38h0c.18-1.86.27-2.79.46-4.64C243.91,284.12,244.24,284.15,244.91,284.23Zm-2.33,6.61a2.42,2.42,0,0,0,0-.6,2.2,2.2,0,0,0-2.1-1.81c-1.62-.09-2.62,1.17-2.67,2.89s.71,2.87,2.26,3a2.2,2.2,0,0,0,2.26-1.5,2.27,2.27,0,0,0,.13-.61Z"/><path class="cls-29" d="M245.91,294.48a4.12,4.12,0,0,0,1.79.89c1,.19,1.62-.21,1.75-.84s-.19-1.14-1.21-1.72c-1.36-.77-2-1.64-1.82-2.56.19-1.25,1.48-2.13,3.34-1.77a4.53,4.53,0,0,1,2,.92c-.25.37-.37.56-.61.93a3.45,3.45,0,0,0-1.65-.8c-.92-.18-1.51.22-1.61.79s.34,1,1.34,1.61c1.33.79,1.89,1.64,1.62,2.78-.31,1.35-1.57,2-3.39,1.69a4.91,4.91,0,0,1-2.09-.9Z"/><path class="cls-9" d="M87.19,277.45s2.36,6.18,7.84,9.16,11.26,2.36,7-4.15l-4.07-2.89Z"/><path class="cls-9" d="M81.79,259s-2.2,13.61,15.3,12.81c9-1,17.85-8.43,8.6-12.08C99.22,261.86,89.55,264.72,81.79,259Z"/><path class="cls-9" d="M82.86,266.27s.78,16.93,15.08,13.3c5.55-1.28,12.3-5.64,7.75-10.72C101.51,270.83,90,274.32,82.86,266.27Z"/><path class="cls-9" d="M85.62,244s-.89,9.69,6.31,8.24c9.36-1.89,17.46-1.2,13.76,7.53-9.54,2.37-15.71,5.61-23.9-.73C77,249.48,83,245.27,85.62,244Z"/><path class="cls-9" d="M274.17,234.68s.9,6.43.14,9S264.58,245.52,263,246s-7.4,5.32-1.95,6.88c6.41,1.57,19.46,1.61,21.58-3.26S283.12,237.31,274.17,234.68Z"/><path class="cls-9" d="M261,252.85s-9.39,2.13-2.29,8.09c7.74,4.69,21.43.68,23.87-2.12s3-8.29,0-9.23S276.29,255.57,261,252.85Z"/><path class="cls-9" d="M261.45,262.42s-5.24,9.84,7.24,9.08c11.21-2.67,13.89-3.46,13.89-12.68C280.18,260.43,271,264.79,261.45,262.42Z"/><path class="cls-9" d="M279.86,267.6l-11.17,3.9s-4.52,4.61-4.5,6.57,3.58,6.3,10.28.93C279.58,273.63,280.6,271.19,279.86,267.6Z"/><path class="cls-12" d="M208,163s7.57,7.51-21.66,24.85c-1.9,5-2.17,1.95-2.17,1.95s12.36-4.92,23.83,8.93c8.51-6,19.38-35.17,1.79-42.35C208.68,156.88,208,163,208,163Z"/><path class="cls-12" d="M161.33,160.11s2.32,24.8,22.88,30.61c-7-2.92-17.49.52-25.22,11.32-9.7-20.6-6.62-29.54-5.54-32.66S156.3,159.2,161.33,160.11Z"/><path class="cls-1" d="M48.6,393.73c-2.19,9.17,6.5,20.09,14.6,15.25a3.79,3.79,0,0,0,.34-.2c9.56-5.84,68.25-42.24,84.56-52.36a10.86,10.86,0,0,1,8.94-1.15l13.13,4.07c7.65,2,18.12,3,26,1.28a10.16,10.16,0,0,0,1.36-.4l7.23-2.6a10.85,10.85,0,0,1,11.79,3c10.16,11.44,33.28,37.93,41.93,51.87,11.21,18.1,48.71-12.37,41.39-26-1.08-2-35.81-26.72-37.88-27.71l-57.28-33.91c-.6-.29,23.26-23.77,11.4-10.17l-42.41,7a10.86,10.86,0,0,0-7.62.73L117.4,346.21,55.85,378.06a10.87,10.87,0,0,0-5.58,7.12Z"/><path class="cls-2" d="M252,386.5S222.77,349,209,333.33c-17.37-19.75,8.86-43.62,52.14-14,0,0,18.75,16.36,23.18,23.18Z"/><path class="cls-3" d="M206.85,329.44a31,31,0,0,0,3.8,4.77c1.94,1.86,42.27,52.29,42.27,52.29l10.66-14.19s-39.76-26.87-24.4-55.48C239.18,316.83,210.08,303.09,206.85,329.44Z"/><path class="cls-4" d="M299,331.9s-21-3.83-36.46,22.22-13.13,51-4.09,58.36S299,331.9,299,331.9Z"/><path class="cls-5" d="M255,405.41s-5.28-19.08,13.63-48.56,32.69-25.89,40.72-24.59c11.53,1.88,18.75,14.71,14.15,30.72S307,407.46,286.21,419,256.22,411.93,255,405.41Z"/><path class="cls-6" d="M269.26,374.48S287.4,339,309.13,339s5.88,37.57,0,47.54-21.22,36-38.6,31.95S262.36,385.75,269.26,374.48Z"/><line class="cls-7" x1="320.21" y1="350.87" x2="298.99" y2="341.42"/><line class="cls-7" x1="319.54" y1="358.63" x2="291.55" y2="346.15"/><line class="cls-7" x1="282.96" y1="354.45" x2="316.7" y2="369.35"/><line class="cls-7" x1="313.39" y1="377.92" x2="276.75" y2="362.38"/><line class="cls-7" x1="308.08" y1="388.27" x2="270.44" y2="372.31"/><line class="cls-7" x1="302.03" y1="397.79" x2="265.42" y2="382.14"/><line class="cls-7" x1="295.07" y1="405.75" x2="262.36" y2="391.05"/><line class="cls-7" x1="287.25" y1="413.98" x2="260.56" y2="401.07"/><path class="cls-8" d="M85.2,386.09s-9,3.94-17.62-16.38S59.22,343,59.22,343s16.33-4.91,20.18,1.23S91.3,377.63,85.2,386.09Z"/><polygon class="cls-9" points="80.77 380.48 110.92 360.64 89.6 337.71 68.03 351.27 80.77 380.48"/><path class="cls-2" d="M172.51,329.7l-86.1,54.89s9.18-12.18-26-43.1l69.29-41.22S188.12,295.49,172.51,329.7Z"/><path class="cls-4" d="M70.72,399.87s9.7-4.44,10.93-15.07S67.54,336.31,42,322.1,4.54,338.79,4.54,338.79Z"/><path class="cls-5" d="M19.36,319.36s25.82,5.33,47.86,51.89c14.32,30.25,5.58,37.15-7,38.73-13,1.64-66.61-59.56-57.87-81C6.92,317.9,19.36,319.36,19.36,319.36Z"/><path class="cls-6" d="M1.29,331.77s-4.52,15.73,23.18,48,34,30.48,35.79,30.21,7-12-8.87-38S9.19,314.36,1.29,331.77Z"/><line class="cls-7" x1="12.31" y1="363.77" x2="35.98" y2="349.64"/><line class="cls-7" x1="18.87" y1="372.44" x2="43.05" y2="359.18"/><line class="cls-7" x1="25.24" y1="381.11" x2="48.77" y2="367.75"/><line class="cls-7" x1="32.67" y1="389.04" x2="54.53" y2="377.43"/><line class="cls-7" x1="39.42" y1="396.35" x2="58.54" y2="385.84"/><line class="cls-7" x1="48.11" y1="403.45" x2="61.95" y2="396.99"/><line class="cls-7" x1="7.34" y1="353.87" x2="28.48" y2="340.77"/><line class="cls-7" x1="2.4" y1="343.35" x2="19.94" y2="332.57"/><path class="cls-3" d="M88.54,383.23l85.1-53.53c.67-1.17,5.23-9.39,1.58-16.09-2.27-4.16-6.58-5.69-9.14-6.56-16.27-5.54-38.5,4.89-44.13,7.66.46,3.18,2.66,20.46-9.28,35.86-5.52,7.11-14.09,13.52-27.34,17.23C85.33,367.8,90.17,375.15,88.54,383.23Z"/><path class="cls-10" d="M112.29,250.12s.83,9.14-7.37-2.87-15-29.74-15-29.74-2.67-6.11,2.47-4.2S112.29,250.12,112.29,250.12Z"/><path class="cls-11" d="M94,212.83l.22-.07c1.1,1.11,18.32,18.54,19.85,29.26a100.64,100.64,0,0,1-8.27,6.34c-4.91-13.75-13.58-26.63-17-31.47Z"/><path class="cls-12" d="M240.53,264.34l3.27,50.57S200.94,335.56,128.93,307l-8.61,6.25a338.13,338.13,0,0,0,8.83-74.73L121,247.32l-5.89,6.39c-4.87-25-20.25-37.46-20.25-37.46a22.26,22.26,0,0,0,6-5.66c6.56-8.82,21.84-25.61,26.35-29.33,6.6-5.44,41.59-13.52,41.59-13.52s43-11.7,76.59,20.2l22.71,37.66,5.3,7.74s-10.93,10.82-32.75,22.14Z"/><line class="cls-13" x1="126.52" y1="241.59" x2="127.92" y2="213.62"/><polygon class="cls-14" points="125.52 241.54 127.92 213.62 127.52 241.64 125.52 241.54"/><line class="cls-13" x1="244.41" y1="260.63" x2="244.06" y2="223.28"/><polygon class="cls-14" points="243.41 260.64 244.06 223.28 245.41 260.62 243.41 260.64"/><path class="cls-15" d="M244.49,254.55l-.12,9.23-.09-17s23.35-14.12,29.11-23.31l5.63,8.08S267.51,242.82,244.49,254.55Z"/><path class="cls-15" d="M122,248.66l-6.21,6.64c-5.23-26-21.52-39.11-21.52-39.11s2.57-2.42,6.3-5.89C105.75,215.38,121.51,232.22,122,248.66Z"/><line class="cls-16" x1="184.17" y1="187.48" x2="183.42" y2="266.27"/><circle class="cls-16" cx="189.68" cy="214.63" r="2.66"/><path class="cls-17" d="M209.41,163.29a21.46,21.46,0,0,1-2.19,8.76,22.28,22.28,0,0,1-8.88,9.24c-2.92,1.68-3.16.94-6.15,2.72-5.09,3.05-6.48,5.15-8.77,6.08-3.36,1.37-9.06-4.32-9.95-5-10-7.61-11.5-15.84-11.81-22.06,0-1.14-.06-1.8-.06-1.8-.15-2.39-4.93-14-1.73-19.05,2.66-4.21,15.8-.22,15.8-.22l26.9,0c.05,2.46,5.17,4,6.82,8.62,1.55,4.33-.35,11.78,0,12.54Z"/><path class="cls-11" d="M207.77,163.87c-3.15,2.52-7.92,5.23-19.62,6.07a42.52,42.52,0,0,1-26.49-6.9c0-1.14-.06-1.8-.06-1.8-.61-1-5.47-11.18-2.28-16.22,10.77-4.2,35.62-1.83,35.62-1.83l14.15,9.94C210.64,157.46,207.45,163.1,207.77,163.87Z"/><path class="cls-9" d="M247.41,110.42c-3.76,9-12.21,13-19.33,10s-4.74-8-1-16.94,4-7.95,10.79-11.61C252.77,83.84,251.17,101.47,247.41,110.42Z"/><path class="cls-18" d="M240.65,95.5a3.67,3.67,0,0,1,3.28.15c1.27.84,1.52,2.59,1.47,4.12a25,25,0,0,1-5.93,14.62,6,6,0,0,1-1.93,1.73,2.36,2.36,0,0,1-2.47-.11,2.71,2.71,0,0,1-.68-2.7c.53-2.42,2.64-4.11,4.34-5.91a4.77,4.77,0,0,0,1.12-1.67,1.84,1.84,0,0,0-.33-1.89,2.4,2.4,0,0,0-1.44-.58,12.83,12.83,0,0,0-3.22.13c-.54-1.58.71-3.16,1.58-4.33A9.65,9.65,0,0,1,240.65,95.5Z"/><path class="cls-9" d="M120.56,120c4.4,8.34,12.08,11.14,17.66,7.2s2.88-8.56-1.52-16.89-4.47-7.32-10.7-10C112.36,94.41,116.15,111.63,120.56,120Z"/><path class="cls-18" d="M124.18,104.26a2.77,2.77,0,0,0-2.74.61c-1,1-.92,2.78-.66,4.28a26.81,26.81,0,0,0,7,13.65,5.32,5.32,0,0,0,1.86,1.44,1.76,1.76,0,0,0,2.06-.45,3.07,3.07,0,0,0,.2-2.77c-.78-2.32-2.79-3.7-4.47-5.25a4.67,4.67,0,0,1-1.18-1.49,2.16,2.16,0,0,1,0-1.92,2,2,0,0,1,1.14-.78,9.75,9.75,0,0,1,2.73-.31c.24-1.64-1-3-1.93-4.06A8.54,8.54,0,0,0,124.18,104.26Z"/><path class="cls-9" d="M237,75.79c-1.29-32.32-20-52.48-56.64-50.15-35.55,2.26-55,22-53.76,54.31.59,14.94,5.73,40.49,5.73,41.31,0,29.07,36.54,45.71,57.57,43.37,14.94-1.66,47.16-25.18,45.11-49.89C235,113.93,237.62,90.73,237,75.79Z"/><path class="cls-19" d="M162.94,131.67s15.84.1,21.64-.49,23.55-2.78,23.55-2.78-8.75,19.91-20.77,21.94C176.18,152.23,162.94,131.67,162.94,131.67Z"/><path class="cls-20" d="M185.73,131.28c-6.15.21-23.95-.67-23.95-.67s15.44,16.09,24.81,15.86,22.7-19.56,22.7-19.56S191.87,131.07,185.73,131.28Z"/><path class="cls-21" d="M194.53,138.51a32.67,32.67,0,0,0-5.31,0,5.73,5.73,0,0,0-2.87.94c-3.72-.79-6-.69-8.31,0-4.38,1.22-3.89,1.52-3.72,2.07,3.8,2.53,8.28,5.1,12.27,5,2.95-.11,6.49-2,8.95-4.25a29.82,29.82,0,0,0,2.78-2.24C199.31,139.29,198.22,138.84,194.53,138.51Z"/><path class="cls-18" d="M208.18,123.27s.34,6.12,2.92,6.7-.16-2-.81-3.07C209.94,126.33,208.18,123.27,208.18,123.27Z"/><path class="cls-18" d="M162.88,126.72s.45,6.11-2,7-.37-2,.4-3A35.27,35.27,0,0,0,162.88,126.72Z"/><path class="cls-36" d="M167.23,131.1s1.7,8.64,18.94,7.34,16.91-9.89,16.91-9.89a80.61,80.61,0,0,1-17.53,3.07C180,132,173.44,130.13,167.23,131.1Z"/><path class="cls-19" d="M161.78,130.61s12.48,4.31,23.16,3.08c22.67-2.61,24.35-6.78,24.35-6.78s-17.83,3.49-24.51,3.62C178.75,130.64,161.78,130.61,161.78,130.61Z"/><path class="cls-23" d="M167.79,79.62c-4.16-.77-18.55.33-21.43,9.31,0,0,11.1-5.25,21-4.6C167.41,84.33,169.89,80,167.79,79.62Z"/><path class="cls-23" d="M196,77.91c4-1.45,18.33-2.79,22.68,5.57,0,0-11.82-3.3-21.52-1C197.19,82.5,194,78.65,196,77.91Z"/><path class="cls-18" d="M145.57,63.81s10.5,10.06,50.42,7.62L194.51,66s6,5.55,29.44,8.39l12,29-7.06-59.68-84.7-2.13L132.15,56l1.74,16.47S128.1,99,130.23,110.13L136,89.74S146.34,94.47,145.57,63.81Z"/><path class="cls-23" d="M144,55.23s-3.24,13.13,50.41,13.18c0,0-1.42-.57-6.93-13.23,7.11,15.58,26.72,13.81,37.11,16.55l-2.47-15.1,13.83,46.76s3.49-11.16,4.47-17.29c0,0,1.43-15.65-1.84-26.45a18.66,18.66,0,0,1,4.28,8.14S245,38.73,222.35,20.4c0,0,3.9.81,12.34,4.58,0,0-16.45-24.91-48.07-24.47C170.08.73,146.47,5.42,140,22.41c0,0-15.43-6.28-22.82,19.71,0,0,5.74-9.07,12.94-9.44,0,0-10.23,3.83-12.82,28.46C114.86,84.4,121.51,97,130,112.68c0,0,1.58-20,5.72-34.32l1.17,8.7S144.05,87.62,144,55.23Z"/><path class="cls-24" d="M171,96.91c3.65,5.26,3.22,11.08.05,13.3-4.77,3.36-16.09,4.36-20.32-.43s-2.15-13.15,4.5-16.84C161,89.71,167.45,91.82,171,96.91Z"/><path class="cls-18" d="M171,96.91a14.89,14.89,0,0,1,2.19,4.64c-13.25-9.1-25,2.75-24.29-.36a12.93,12.93,0,0,1,6.33-8.25C161,89.71,167.45,91.82,171,96.91Z"/><path class="cls-25" d="M149.9,95.54c5.16-8.21,17.66-5.5,21.2,1.55a12,12,0,0,0-15.73-3.85,12.59,12.59,0,0,0-6.32,8.74,10.11,10.11,0,0,0,1.88,8C149,108.78,146.1,101.57,149.9,95.54Z"/><path class="cls-24" d="M196.61,96.63c-3.53,5.34-3,11.15.24,13.31,4.84,3.25,16.17,4,20.3-.87,4-4.73,1.87-13.19-4.86-16.74C206.4,89.23,200,91.47,196.61,96.63Z"/><path class="cls-26" d="M175.41,116.85a17.23,17.23,0,0,0,7.28,3.61c4.11.78,9.59-4.88,9.59-4.88"/><path class="cls-37" d="M175.41,116.85a23.2,23.2,0,0,0,4.2,2.3,14.69,14.69,0,0,0,2.24.74,5.56,5.56,0,0,0,2.24.22,11.44,11.44,0,0,0,4.3-1.72,36.15,36.15,0,0,0,3.89-2.81,19.31,19.31,0,0,1-3.58,3.29,10.39,10.39,0,0,1-4.52,2,6.4,6.4,0,0,1-2.52-.28,12.56,12.56,0,0,1-2.29-.91A15,15,0,0,1,175.41,116.85Z"/><path class="cls-18" d="M196.82,96.38a14.89,14.89,0,0,0-2.19,4.64c13.25-9.1,25,2.75,24.29-.36a13,13,0,0,0-6.33-8.25C206.76,89.18,200.34,91.29,196.82,96.38Z"/><path class="cls-25" d="M217.65,94.81c-5.34-8.09-17.77-5.12-21.16,2a12,12,0,0,1,15.64-4.19,12.56,12.56,0,0,1,6.5,8.6,10.07,10.07,0,0,1-1.71,8.1C218.85,108,221.58,100.77,217.65,94.81Z"/><path class="cls-25" d="M155,112.55c-5.94-11,12.75-20.07,16.08-2.11C171.1,110.44,165.7,114.44,155,112.55Z"/><path class="cls-25" d="M196.36,110c-4.54-13.76,19.66-15.9,15.23,2A24.23,24.23,0,0,1,196.36,110Z"/><path class="cls-28" d="M202.5,99.28a2,2,0,1,1-2.57-1A2,2,0,0,1,202.5,99.28Z"/><path class="cls-28" d="M158.79,101a2,2,0,1,1-2.58-1.08A2,2,0,0,1,158.79,101Z"/><path class="cls-29" d="M112.14,307.29c-8.33-14.71-4-28-13.14-42.14-2.35-3.61-5.62-33.2-8.32-50,20.37-5.28,64.68-2.85,88,37.62,0,.38-11.5,52.61-12.51,58.09a65.86,65.86,0,0,0-25-7.46A64,64,0,0,0,112.14,307.29Z"/><path class="cls-30" d="M166.25,311.13l-.13-.07a65.46,65.46,0,0,0-24.91-7.46,64.29,64.29,0,0,0-29,3.88c-4-7.12-5.24-14-6.28-20.68-1.16-7.32-2.24-14.24-7-21.52-1.65-2.53-3.73-17.5-5.73-32-.92-6.64-2.65-18.29-2.65-18.29l.13,0c9.76-2.53,26.16-3.42,42.94,1.65a77.16,77.16,0,0,1,45.17,36c0,.18-.7,3.75-4.64,21.86C170.89,289.35,166.25,311.13,166.25,311.13Zm-31.57-8.21q3.27,0,6.54.29a65.85,65.85,0,0,1,24.86,7.41c.69-3.62,12.27-56.75,12.46-57.79-22.16-38.37-64.52-43.47-87.7-37.51.82,5.15,1.68,11.35,2.59,17.91,2,14.42,4.06,29.33,5.66,31.78,4.79,7.36,5.94,14.66,7,21.71,1,6.56,2.09,13.34,6,20.35A63.56,63.56,0,0,1,134.68,302.92Z"/><path class="cls-29" d="M99.51,278c-.41-1-11.59-44-13.24-52,19.82-11.21,65.76-9.5,92.41,26.75,0,.38-11.5,52.61-12.51,58.09C158.75,306.9,109.76,284.6,99.51,278Z"/><path class="cls-30" d="M166.25,311.13l-.13-.07c-2.52-1.35-9.75-4.77-18.89-9.1-17.31-8.2-41-19.42-47.76-23.74-.36-.84-11.56-43.57-13.32-52.14l0-.17.11-.07c10.74-6.07,27.49-7.76,43.71-4.42a79.72,79.72,0,0,1,48.84,31.22c0,.18-.7,3.75-4.64,21.86C170.89,289.35,166.25,311.13,166.25,311.13ZM99.6,277.88c6.81,4.35,30.44,15.53,47.7,23.7,9,4.27,16.14,7.64,18.78,9,.69-3.62,12.25-56.67,12.46-57.79a79.41,79.41,0,0,0-48.64-31c-16.12-3.31-32.77-1.65-43.47,4.34C88.27,235,99,276.09,99.6,277.88Z"/><path class="cls-31" d="M84.25,240c.74-.87.93-1.06,1.81-2,33.28-9.34,62.25-.7,80.89,14.74.72,5.94,3.78,67.71,2.57,75.4C142.94,319.44,108,234.27,84.25,240Z"/><path class="cls-32" d="M104.32,323.21C99,299.52,89.78,265.61,84.25,240a86.47,86.47,0,0,1,82.38,14.49c.72,5.77,5,66.31,3.8,73.78C143.85,319.79,128.08,317.67,104.32,323.21Z"/><path class="cls-29" d="M253.75,307c2.4-10.71,1.76-85.31,4-102.12-18.39-4.74-70.53,7.85-79,48.3,0,.39,15,52.06,16.21,57.53C202.2,306.71,244.9,303.72,253.75,307Z"/><path class="cls-30" d="M194.82,311l0-.2c-.76-3.52-7.42-26.74-11.83-42.11-3.78-13.16-4.4-15.33-4.39-15.49A52.73,52.73,0,0,1,192,227.77a72,72,0,0,1,22.5-15.84c16.7-7.76,34.41-9.5,43.28-7.21l.13,0,0,.2c-1.06,8.07-1.47,29.8-1.87,50.81-.44,23.53-.85,45.75-2.11,51.33l0,.17-.12,0c-8.42-3.15-51.26-.44-58.77,3.71Zm-16-57.75c.1.43,15.23,53.15,16.16,57.25,4-2.1,17.28-3.8,28.76-4.56,10.75-.71,25-.9,29.93.86,1.21-5.81,1.64-28.81,2.06-51.06.39-20.85.79-42.42,1.84-50.67-8.88-2.23-26.45-.47-43,7.23C195.17,221.28,182.49,235.84,178.82,253.25Z"/><path class="cls-29" d="M253.75,307c2.4-10.71,9.64-76.3,11.85-93.1-20.52-5.11-67.82-.61-86.91,39.28,0,.39,15,52.06,16.21,57.53C202.2,306.71,244.9,303.72,253.75,307Z"/><path class="cls-30" d="M194.82,311l0-.2c-.76-3.52-7.42-26.74-11.83-42.11-3.78-13.16-4.4-15.33-4.39-15.49,10.57-22.1,29.24-32.2,43-36.7,17.61-5.75,34.73-5.08,44-2.77l.14,0s-1.86,15.13-3.2,26.46c-3,25.08-7,59.43-8.68,66.86l0,.17-.12,0c-8.42-3.15-51.26-.44-58.77,3.71Zm-16-57.75c.15.63,15.23,53.15,16.16,57.25,4-2.1,17.28-3.8,28.76-4.56,10.75-.71,25-.9,29.93.86,1.68-7.74,5.69-41.76,8.63-66.65,1.32-11.18,2.46-20.86,3.14-26.07C246.32,209.4,198.25,212.76,178.82,253.25Z"/><path class="cls-29" d="M267,275.58c.38-.95,3.11-43,3.84-50.72-19-9.19-67.38-5.83-92.49,28.87,0,.38,15.42,51.54,16.59,57C202.2,306.71,256.9,282.23,267,275.58Z"/><path class="cls-30" d="M194.82,311l0-.2c-.77-3.58-7.72-27-12.33-42.5-3.71-12.52-4.27-14.43-4.27-14.59,11.09-15.31,28.4-26.43,48.67-31.07,16.43-3.75,33.7-3,44,2,0,0-.92,13.31-1.65,23.63-1.18,16.67-1.91,26.84-2.12,27.37-6.44,4.26-31.67,16.11-50,24.7-10.43,4.88-19.44,9.09-22.07,10.55Zm-16.37-57.2c.18.7,15.57,52.52,16.53,56.7,2.77-1.51,11.26-5.48,22-10.49,18.33-8.57,43.42-20.3,49.92-24.58.24-1.12,1.21-14.95,2.08-27.17.71-10.16,1.39-19.75,1.72-23.27-10.27-4.93-27.43-5.7-43.77-2C206.7,227.64,189.5,238.57,178.45,253.8Z"/><path class="cls-33" d="M192.77,254.39c0,1.18-5.47,3.56-12.87,3.59s-13.44-2.35-13.27-3.51c.13-.82,5.88-2.84,13.28-2.88S192.76,253.73,192.77,254.39Z"/><path class="cls-31" d="M166.92,262.09c-.06-3.69-.28-7.16-.31-9.62,9.82,2.7,17.24,2.88,26.16.16.14,1.63-.6,8.67-.42,10.61C186,266.39,172.25,267.44,166.92,262.09Z"/><path class="cls-34" d="M170.43,328.25c-.79-20.12-2.9-49.33-3.8-73.78,9.73,2,17.22,2.56,26.14-.08.67,5.25,3.24,66.28,4.07,73.94C190.47,331.39,175.76,333.44,170.43,328.25Z"/><path class="cls-31" d="M275.14,236.39a17.68,17.68,0,0,0-.57-1.84c-26.88-6.37-63.61,2.48-81.8,18.08-.47,5.5,1.25,11.27,1.94,19.13C226.39,264.35,266.17,236.05,275.14,236.39Z"/><path class="cls-32" d="M261.83,326.28c4-26.26,9.51-64.12,13.31-89.89-26.88-6.18-64.18,2.85-82.37,18,.23,5.27-1.42,68-.73,75.61C223.72,322.8,253,323,261.83,326.28Z"/><circle class="cls-35" cx="229.73" cy="283.66" r="28.08"/><path class="cls-29" d="M212.44,279.07a4.8,4.8,0,0,0,2.07-.26c1-.4,1.37-1,1.17-1.6s-.76-.8-2-.72c-1.63.12-2.63-.22-3-1-.47-1.09.27-2.5,2.16-3.21a5.1,5.1,0,0,1,2.32-.34c0,.42-.06.64-.09,1.06a3.89,3.89,0,0,0-1.92.24c-.93.35-1.27,1-1.07,1.49s.83.61,2,.55c1.62-.07,2.55.32,2.89,1.37.4,1.24-.39,2.43-2.22,3.13a5.69,5.69,0,0,1-2.35.4Z"/><path class="cls-29" d="M218.82,268.34c.12.44-.2.91-.86,1.1a.94.94,0,0,1-1.23-.51c-.13-.46.21-.95.83-1.13A.93.93,0,0,1,218.82,268.34Zm.71,9.71-2-7.17c.65-.19,1-.28,1.63-.45.74,2.89,1.1,4.34,1.83,7.24C220.39,277.81,220.11,277.89,219.53,278.05Z"/><path class="cls-29" d="M229.82,268.62c0,.55,0,1.17.07,2.09.13,1.76.19,2.64.32,4.4s-.18,2.82-.86,3.54a4.54,4.54,0,0,1-2.69,1.22,5.69,5.69,0,0,1-2.64-.2c0-.43.08-.65.15-1.08a5.11,5.11,0,0,0,2.38.21,2.39,2.39,0,0,0,2.25-2.93l-.09-.84h0a3.15,3.15,0,0,1-2.46,1.58,3.66,3.66,0,0,1-4.19-3,3.84,3.84,0,0,1,3.29-4.68,3.08,3.08,0,0,1,3,.94h0c0-.45,0-.68,0-1.14Zm-1.45,3.14a1.66,1.66,0,0,0-.15-.61,2.26,2.26,0,0,0-2.46-1.15,2.57,2.57,0,0,0-2.17,3.25,2.51,2.51,0,0,0,2.92,2.26,2.31,2.31,0,0,0,2-1.65,2.07,2.07,0,0,0,0-.74Z"/><path class="cls-29" d="M232.45,264.9l1.79,0v4.77h0a2.85,2.85,0,0,1,1.21-1,4.08,4.08,0,0,1,1.75-.35,3,3,0,0,1,2.93,3.51c-.18,1.83-.28,2.74-.46,4.57l-1.49-.14c.13-1.76.2-2.65.33-4.41.09-1.24-.38-2.34-2-2.39a2.3,2.3,0,0,0-2.24,1.36,1.48,1.48,0,0,0-.11.66v4.62c-.6,0-.89,0-1.49,0Z"/><path class="cls-29" d="M245.59,267.12l-.4,2.2c1,.17,1.45.26,2.41.46l-.23,1.06c-.94-.2-1.42-.3-2.36-.46l-.74,4.13c-.17.95,0,1.53.86,1.7a3.67,3.67,0,0,0,.88.09c-.06.43-.09.64-.16,1.06a3.83,3.83,0,0,1-1.33-.09,2.26,2.26,0,0,1-1.49-.87,2.9,2.9,0,0,1-.28-2.09c.26-1.68.38-2.51.63-4.19l-1.41-.19.14-1.06,1.44.19.27-1.84C244.53,267.17,244.88,267.15,245.59,267.12Z"/><path class="cls-29" d="M209.64,292.64c1,1.24,1.49,1.87,2.44,3.14a24,24,0,0,1,1.41,2l0,0a24.33,24.33,0,0,1-.12-2.47c0-1.63,0-2.45.08-4.09l1.28-.41c1,1.27,1.44,1.92,2.36,3.22a23,23,0,0,1,1.37,2.18l.05,0a18.81,18.81,0,0,1-.05-2.53c.07-1.59.11-2.38.23-4l1.53-.38c-.43,3.22-.59,4.82-.78,8l-1.25.35c-.87-1.26-1.31-1.88-2.22-3.1-.53-.72-1-1.36-1.47-2.14h0a25.63,25.63,0,0,1,.05,2.61c-.06,1.52-.07,2.28-.07,3.8l-1.23.44c-2-2.47-3-3.67-5.14-6Z"/><path class="cls-29" d="M229.82,291.56a3.94,3.94,0,0,1-3.48,4.52,4,4,0,1,1-1.07-7.92A3.69,3.69,0,0,1,229.82,291.56Zm-6.5,1a2.71,2.71,0,0,0,2.92,2.48c1.36-.2,2.25-1.55,2-3.27-.15-1.29-1.07-2.87-2.9-2.58S223.05,291.14,223.32,292.56Z"/><path class="cls-29" d="M231.63,290c-.06-.91-.13-1.69-.23-2.4l1.39-.08c.05.6.07.9.12,1.51H233a2.52,2.52,0,0,1,2.36-1.77,1.61,1.61,0,0,1,.45,0v1.33a2.24,2.24,0,0,0-.54,0,2,2,0,0,0-2,1.86,3.41,3.41,0,0,0-.05.66c.07,1.65.11,2.47.18,4.12l-1.4.06C231.83,293.21,231.76,292.15,231.63,290Z"/><path class="cls-29" d="M245.2,284.29c-.45,3.77-.68,5.65-1.13,9.42-.08.69-.16,1.48-.18,2-.51-.07-.76-.1-1.27-.15,0-.55,0-.82.07-1.36h0a3,3,0,0,1-2.81,1.3c-1.88-.12-3.31-1.72-3.31-4.07a3.78,3.78,0,0,1,4-4.06,2.89,2.89,0,0,1,2.53,1.38h0c.19-1.86.28-2.8.46-4.66C244.2,284.18,244.53,284.21,245.2,284.29Zm-2.34,6.64a2,2,0,0,0,0-.6,2.21,2.21,0,0,0-2.11-1.82c-1.62-.09-2.62,1.18-2.67,2.9,0,1.57.7,2.89,2.26,3a2.21,2.21,0,0,0,2.27-1.51,2.28,2.28,0,0,0,.13-.6Z"/><path class="cls-29" d="M246.21,294.58a4.13,4.13,0,0,0,1.79.9c1,.19,1.63-.21,1.76-.85s-.19-1.14-1.21-1.73c-1.37-.77-2-1.63-1.83-2.57.19-1.25,1.49-2.13,3.35-1.77a4.52,4.52,0,0,1,2,.92l-.62.94a3.36,3.36,0,0,0-1.65-.81c-.92-.18-1.52.22-1.62.8s.35,1,1.35,1.61c1.33.8,1.89,1.65,1.63,2.8-.31,1.35-1.58,2-3.41,1.69a4.74,4.74,0,0,1-2.09-.91Z"/><path class="cls-9" d="M86.86,277.49s2.37,6.2,7.86,9.2,11.31,2.36,7-4.18l-4.08-2.89Z"/><path class="cls-9" d="M81.44,259s-2.22,13.66,15.35,12.86c9-1,17.92-8.47,8.64-12.14C98.94,261.83,89.22,264.71,81.44,259Z"/><path class="cls-9" d="M82.51,266.27s.78,17,15.14,13.35c5.57-1.29,12.35-5.67,7.78-10.77C101.23,270.84,89.66,274.34,82.51,266.27Z"/><path class="cls-9" d="M85.28,243.89s-.89,9.73,6.34,8.27c9.39-1.9,17.52-1.2,13.81,7.55-9.58,2.39-15.78,5.64-24-.72C76.65,249.4,82.61,245.18,85.28,243.89Z"/><path class="cls-9" d="M274.57,234.55s.91,6.46.15,9.08-9.77,1.8-11.4,2.25-7.43,5.34-2,6.91c6.43,1.58,19.54,1.61,21.66-3.27S283.56,237.19,274.57,234.55Z"/><path class="cls-9" d="M261.36,252.79s-9.43,2.14-2.3,8.13c7.77,4.7,21.51.67,24-2.14s3-8.32,0-9.26S276.71,255.52,261.36,252.79Z"/><path class="cls-9" d="M261.81,262.4s-5.27,9.88,7.27,9.12C280.33,268.83,283,268,283,258.78,280.62,260.4,271.36,264.78,261.81,262.4Z"/><path class="cls-9" d="M280.3,267.59l-11.22,3.93s-4.54,4.62-4.52,6.59,3.59,6.33,10.32.94C280,273.65,281,271.2,280.3,267.59Z"/><path class="cls-12" d="M208.18,162.53s7.61,7.54-21.74,24.95c-1.91,5-2.17,2-2.17,2s12.4-4.94,23.91,9c8.55-6,19.46-35.3,1.81-42.52C208.83,156.44,208.18,162.53,208.18,162.53Z"/><path class="cls-12" d="M161.29,159.68s2.33,24.9,23,30.73c-7-2.93-17.57.52-25.33,11.36-9.73-20.67-6.65-29.65-5.56-32.78S156.24,158.77,161.29,159.68Z"/></svg>