<svg id="Layer_1" data-name="Layer 1" xmlns="http://www.w3.org/2000/svg" viewBox="0 0 225.24 399.94"><defs><style>.cls-1{opacity:0.3;}.cls-2{fill:#342517;}.cls-3{fill:#e16faa;}.cls-3,.cls-41{stroke:#323232;}.cls-11,.cls-14,.cls-25,.cls-28,.cls-3,.cls-30,.cls-31,.cls-41,.cls-5,.cls-8{stroke-miterlimit:10;}.cls-4{fill:#ce5f9c;}.cls-5{fill:#faf079;stroke:#9a9435;}.cls-6{fill:#ba8313;}.cls-7{fill:#f86909;}.cls-11,.cls-8{fill:#f9dad2;stroke:#4c2606;}.cls-8{stroke-width:0.5px;}.cls-9{fill:#e8c0b8;}.cls-10{fill:#342516;}.cls-12{fill:#b26b51;}.cls-13,.cls-29{fill:#eaa698;}.cls-13{opacity:0.5;}.cls-14,.cls-15{fill:#fff;}.cls-14{stroke:#3d2d16;}.cls-14,.cls-41{stroke-width:0.75px;}.cls-16{fill:#8c3d35;}.cls-17{fill:#7a2f2b;}.cls-18{fill:#f9988f;}.cls-19{fill:#f58778;}.cls-20{fill:#fff7f4;}.cls-21{fill:#f48a71;}.cls-22{fill:#3d2d16;}.cls-23{fill:#350b02;}.cls-24{fill:#ef4b3b;}.cls-25{fill:#fe66ca;}.cls-25,.cls-28{stroke:#af1086;}.cls-25,.cls-28,.cls-31{stroke-width:2px;}.cls-26{fill:#fffa71;}.cls-27{fill:#cc0098;}.cls-28{fill:#e852bb;}.cls-30{fill:#e7d760;stroke:#baa73b;}.cls-31{fill:#077477;stroke:#0c7777;}.cls-32{fill:#db9d8e;opacity:0.63;}.cls-33{fill:#00b6c2;}.cls-34{fill:#0c7777;}.cls-35{fill:#0a2c2d;opacity:0.22;}.cls-36{fill:#dbdbdb;}.cls-37{fill:#9dd4f9;}.cls-38{fill:#ff603b;}.cls-39{fill:#324156;}.cls-40{fill:#c44931;}.cls-41{fill:#f9d1c6;}.cls-42{fill:#284b88;}.cls-43{fill:#5cddfb;}.cls-44{fill:#092967;}.cls-45{fill:#3ed3fe;}.cls-46{fill:#1f418b;}.cls-47{fill:#f6ecff;}.cls-48{fill:#fefeff;}.cls-49{fill:#37559d;}.cls-50{fill:#3acced;}.cls-51{fill:#19436d;}.cls-52{fill:#dae1e5;opacity:0.6;}</style></defs><path class="cls-1" d="M59.34,381.67,30.61,399.09s-37.67-5.34-2.36-21.74Z"/><path class="cls-1" d="M179.11,381.51s16.36,24.79,38.27,14.59S209.72,376.13,179.11,381.51Z"/><ellipse class="cls-1" cx="117.09" cy="364.44" rx="105.72" ry="21.13"/><path class="cls-2" d="M44.26,61s-13.83,36.49-9.45,65.9-10.73,38,8.52,54.58,56.9,23.95,73,8.16c0,0,10.69,3.16,36.29-.73s44.88-15.78,37.77-40.06-3.66-56.45-4.77-75.52-24.89-41.45-74.95-28S44.26,61,44.26,61Z"/><path class="cls-3" d="M79.52,280.93s-.26-17-8.84,32.61c0,0-2.27,21.57,48,19.73s49.68-8.08,49.68-8.08-6.08-31.08-22.94-47C145.41,278.17,95.45,261.32,79.52,280.93Z"/><path class="cls-4" d="M127.22,287.26s11,13.08,20.64,49.65c0,0-5.31-26-14.3-45.76,0,0-3.88-7.16,8.78-7.16,0,0,6.34-1.22,18,29,0,0-8.17-26.77-16.14-31.06S127.22,287.26,127.22,287.26Z"/><path class="cls-5" d="M78.09,274a14.39,14.39,0,0,0-.31,9.61c1.74,4.9,22.47,6.33,34.84,6.33,12.09,0,30.14-1.08,37.33-6.38a2.62,2.62,0,0,0,.83-1.06A8.27,8.27,0,0,0,149,273C144.18,267.85,104.34,264,78.09,274Z"/><path class="cls-3" d="M207.59,241.64s-8.6,11-37.71,14c0,0,3.32,22.23-3.33,44.71,0,0-10.4,7.7-51.16,7.07-48.94-.76-45.89-7.2-45.89-7.2S63.68,274,60.35,255.78c0,0-23.85-5.3-33.28-22,0,0,10.11-14.64,18.15-26.65a48.3,48.3,0,0,1,18.39-16.07c12.08-6.13,31.52-14.82,50.53-18.41l24.68,8.59s32.44,3.28,40.48,12.88S207.59,241.64,207.59,241.64Z"/><path class="cls-5" d="M126,249.8a6.68,6.68,0,0,1-.67,1.23,6.41,6.41,0,0,1-2.81,2.26c-1.71.72-6.75.18-7.45-1.9.81,2.42,2,3.63.75,6.34a8.26,8.26,0,0,1-1.66,2.34,9.94,9.94,0,0,1-3.61,2.3,7.63,7.63,0,0,1-1.81.42,6.84,6.84,0,0,1-1.28,0c-4.64-.44-7.88-5.7-6.59-10.54-.23.84-3.17,2.23-3.95,2.43a10.09,10.09,0,0,1-6.06-.17,7.6,7.6,0,0,1-1.64-.87,7.8,7.8,0,0,1-1.11-1,5.91,5.91,0,0,1-1.47-4.14h0c0-.33,0-.65,0-1,0-.14,0-.28,0-.41.61-4.54,4.82-7.85,9.31-6.35-2.51-2.78-4.49-6-3.43-8.66a4.55,4.55,0,0,1,.67-1.13,7.64,7.64,0,0,1,2.83-2.05,7.05,7.05,0,0,1,1.33-.47,6.65,6.65,0,0,1,1.57-.21,6.75,6.75,0,0,1,6.29,5.12c-.24-3,2.34-6.6,4.9-7.66a6.94,6.94,0,0,1,3.57-.4,10.09,10.09,0,0,1,1.7.36h0a10,10,0,0,1,3.84,2.13,6.72,6.72,0,0,1,.88,1,4.92,4.92,0,0,1,.37.56c2.65,4.72-1.59,8.92-5,11.73,3.86-1.62,9.09.48,10.48,4.45a6.1,6.1,0,0,1,.32,1.42l0,.27A6,6,0,0,1,126,249.8Z"/><path class="cls-6" d="M111.16,249.51c3.28-2.62,4.63-7.46.83-11.18a7.8,7.8,0,0,0-11.7.89c-2.66,3.44-2.34,8.59,1.46,10.93A8,8,0,0,0,111.16,249.51Z"/><path class="cls-7" d="M110.44,248.65c2.79-2.22,3.94-6.34.71-9.5a6.63,6.63,0,0,0-9.94.76c-2.26,2.92-2,7.29,1.24,9.28A6.82,6.82,0,0,0,110.44,248.65Z"/><path class="cls-3" d="M173,215.72l2.37,4.54s-5.87,8.15-25.75,10.51c0,0-3.79-9.46-4.64-16.09"/><path class="cls-3" d="M75.45,233.85s-2.13-8.38-1.56-23.57"/><path class="cls-8" d="M112,186c-22.43-.85-14.38-11.64-14.38-11.64,0-.9,0-1.72,0-2.48-.11-4.36-.19-6.66,1.32-9,1.78-2.78,5.76-5.62,11.22-6a20.91,20.91,0,0,1,9.38,1.39,9.46,9.46,0,0,1,5.71,9.16,26.69,26.69,0,0,0,.14,4.24c.52,4.17,2.09,4.24,2.09,4.24C128.84,185.72,112,186,112,186Z"/><path class="cls-9" d="M125.14,172a39.19,39.19,0,0,1-12.06,3.41c-5.62.52-11.86-1.89-15.2-3.43-.11-4.36-.19-6.66,1.33-9,1.77-2.78,5.75-5.62,11.21-6a21.05,21.05,0,0,1,9.38,1.39c3.65,1.51,5.2,5.22,5.06,9.17A27.29,27.29,0,0,0,125.14,172Z"/><path class="cls-10" d="M181.23,82c0,40.1-31.63,65.6-71,65.6S38.81,115.06,38.81,75,59.47.85,111.42.85C165.88.85,181.23,41.87,181.23,82Z"/><path class="cls-11" d="M55.54,113.93c-2.83-3.82-6.51-7.49-10.89-6.79S38.14,112,39,119s2.4,10.74,7.78,15,8.2,6.36,13.86,2.54C61.62,128.78,57,116.48,55.54,113.93Z"/><path class="cls-12" d="M57.14,133.64a15,15,0,0,1-1.83-1.06,6.9,6.9,0,0,1-2.58-3.15,6.59,6.59,0,0,1-.39-4,6.94,6.94,0,0,1,.83-2.13c.07-.14.16-.26.24-.39a2.6,2.6,0,0,0-.13-.24c-.25-.48-.51-1-.78-1.42a27.7,27.7,0,0,0-2.75-3.81A8.78,8.78,0,0,0,46,114.48a3,3,0,0,0-2.43.28,2.08,2.08,0,0,0-1.12,2,2,2,0,0,1,1.29-1.7,2.68,2.68,0,0,1,2.08,0,9.27,9.27,0,0,1,3.37,2.89A41.79,41.79,0,0,1,52,121.54c.33.47.66,1,1,1.46a6.27,6.27,0,0,0-1.2,2.27,6.74,6.74,0,0,0,.25,4.45,6.93,6.93,0,0,0,3,3.34,13.81,13.81,0,0,0,2,.91,3.23,3.23,0,0,0,2.16.22A3.47,3.47,0,0,1,57.14,133.64Zm-12.4-7.23a8.62,8.62,0,0,1-.82-4.42,33.86,33.86,0,0,1,.68-4.65,18.51,18.51,0,0,0-1.24,4.6,8.4,8.4,0,0,0,.71,4.8,9.19,9.19,0,0,0,3.36,3.5,22,22,0,0,0,4.31,2,46.19,46.19,0,0,1-4-2.5A9.57,9.57,0,0,1,44.74,126.41Z"/><path class="cls-11" d="M163.82,114.17c2.87-3.88,6.6-7.61,11.05-6.89s6.6,4.88,5.74,12-2.44,10.91-7.89,15.21-8.32,6.46-14.06,2.59C157.65,129.23,162.39,116.75,163.82,114.17Z"/><path class="cls-12" d="M160.14,134.72a3.34,3.34,0,0,0,2.2-.22,14.27,14.27,0,0,0,2-.93,7.1,7.1,0,0,0,3-3.39,6.85,6.85,0,0,0,.25-4.51,6.58,6.58,0,0,0-1.22-2.31c.31-.5.65-1,1-1.48a42.81,42.81,0,0,1,2.88-3.68,9.46,9.46,0,0,1,3.42-2.94,2.71,2.71,0,0,1,2.11,0,2,2,0,0,1,1.31,1.73,2.09,2.09,0,0,0-1.14-2,3,3,0,0,0-2.46-.28,8.82,8.82,0,0,0-3.81,3,27.71,27.71,0,0,0-2.79,3.87c-.28.47-.54,1-.8,1.44l-.12.25c.08.13.17.25.24.39a7.13,7.13,0,0,1,.84,2.16,6.7,6.7,0,0,1-.39,4.08,7.11,7.11,0,0,1-2.62,3.2,17.94,17.94,0,0,1-1.86,1.07A3.51,3.51,0,0,1,160.14,134.72Zm11.59-4.48a46.17,46.17,0,0,1-4.06,2.53,21.58,21.58,0,0,0,4.38-2.06,9.31,9.31,0,0,0,3.41-3.55,8.46,8.46,0,0,0,.72-4.87,18.64,18.64,0,0,0-1.26-4.67,33.58,33.58,0,0,1,.69,4.72,8.74,8.74,0,0,1-.83,4.48A9.68,9.68,0,0,1,171.73,130.24Z"/><path class="cls-11" d="M167.09,92.84c-.06.51,5.09,1,5,1.56-2,17.12-5.17,33.52-7.48,42a33,33,0,0,1-3.89,9,37.37,37.37,0,0,1-10.68,10.86,125.86,125.86,0,0,1-19,10.29,93.32,93.32,0,0,1-9.65,3.71,36.52,36.52,0,0,1-10.49,2,41.46,41.46,0,0,1-11.84-2.2c-9.15-2.86-18.82-7.81-24.06-10.57-7.65-4-17-12.56-19.13-21.67a421.39,421.39,0,0,1-8.19-42.63c-.78-5.75,4.16-8,8.89-25.08,6.34-22.91,15.08-32,51.19-32C170.81,38.17,169.1,75.16,167.09,92.84Z"/><path class="cls-13" d="M51.54,118.14s6-38.66,18.78-49.14S85,51.81,85,51.81s3.41,19.57,25.51,27.93l-1-11.74a28.61,28.61,0,0,0,13.13,11.74l-2.13-14.82a230.44,230.44,0,0,1,33,16c16,9.6,15.32,41.21,15.32,41.21l-6.43-65.56L107.77,33.85,73,32.48,49.44,64.92,53.09,90.2Z"/><ellipse class="cls-14" cx="135.71" cy="106.76" rx="10.57" ry="11.19"/><ellipse class="cls-15" cx="139.17" cy="100.61" rx="1.94" ry="2.05"/><ellipse class="cls-14" cx="81.84" cy="108.96" rx="10.3" ry="10.9"/><ellipse class="cls-15" cx="85.21" cy="102.97" rx="1.89" ry="2"/><path class="cls-16" d="M101.69,124.35a18.48,18.48,0,0,0,3.38,2.43A10.68,10.68,0,0,0,108.7,128a8.31,8.31,0,0,0,3.73-.3,12.53,12.53,0,0,0,3.6-2,6.63,6.63,0,0,1-3,3.38,7.29,7.29,0,0,1-4.63.86A8.33,8.33,0,0,1,101.69,124.35Z"/><path class="cls-13" d="M89.19,135.27c-.88-.35-1.92-1.78-2.72-2.27a6.33,6.33,0,0,0-2.66-.9c-1.22-.12-2.71.33-3,1.44a2.52,2.52,0,0,0,1.29,2.31,7.88,7.88,0,0,0,4.7,1.45,2.36,2.36,0,0,0,2-.74c.4-.57-.06-1.56-.78-1.45Z"/><path class="cls-13" d="M128.66,137.74c.57-.63,1.48-2.39,2.21-2.85a3.75,3.75,0,0,1,1.57-.62,2.69,2.69,0,0,1,2.68,1.72,3.18,3.18,0,0,1-.69,3,6.13,6.13,0,0,1-2.87,1.74,4.52,4.52,0,0,1-2.3.21,2,2,0,0,1-1.59-1.42,1.89,1.89,0,0,1,1-1.83,6.51,6.51,0,0,1,2.19-.73Z"/><path class="cls-17" d="M132.47,136.8a22.71,22.71,0,0,1-1,2.25c-2.18,4.38-7.36,12.45-13.93,15.46a18.35,18.35,0,0,1-15.28-.27c-6.28-3-9.12-6.47-12.72-12.38-1.17-1.93-2.42-4.11-3.9-6.6,0,0-.36-.47.23-.49a3.85,3.85,0,0,1,1,.17c3.53,1,12.48,6,26.35,5.28,10.66-.52,16.48-2.86,18.61-3.91a.46.46,0,0,1,.63.22A.36.36,0,0,1,132.47,136.8Z"/><path class="cls-18" d="M131.49,139.05c-2.18,4.38-7.36,12.45-13.93,15.46a18.35,18.35,0,0,1-15.28-.27c-6.28-3-9.12-6.47-12.72-12.38,4.19,4.62,11.26,10.69,19.85,11.28C121.17,153.94,129.19,142.72,131.49,139.05Z"/><path class="cls-19" d="M132.46,136.53a45.08,45.08,0,0,1-24.15,5.62c-12.8-.54-20.11-5.63-22.42-7.38a3.85,3.85,0,0,1,1,.17c3.53,1,12.48,6,26.35,5.28,10.66-.52,16.48-2.86,18.61-3.91A.46.46,0,0,1,132.46,136.53Z"/><path class="cls-20" d="M91.1,137.48c.27.11,15.17,9.06,35.65,1.68,0,0-3,6.75-15.3,7.39C97.33,147.28,91.1,137.48,91.1,137.48Z"/><path class="cls-21" d="M109.47,153c-2.91-.17-6.54-.94-8-2.23,2.57-2.53,5.88-.68,8.67-1.48,5.85-1.69,7.88.41,8.64,1.58C117.12,152.18,113.51,153.19,109.47,153Z"/><path class="cls-22" d="M85.73,83.29s-11.47-2-17,5.67c-.22.3-.74.16-.71-.2.18-2.32,1.43-7.08,8.56-8.48C87.85,78.09,85.73,83.29,85.73,83.29Z"/><path class="cls-22" d="M129.6,78.6s11.47-2,17,5.67c.22.3.74.16.71-.2-.18-2.32-1.43-7.08-8.56-8.48C127.48,73.4,129.6,78.6,129.6,78.6Z"/><path class="cls-10" d="M165.69,58.8c-5.42-28.65-15-24.26-40.49-29.63-11.64-2.45-11.67-10.91-23.51-9.73C95,20.11,76.92,16.87,61.18,43.8c-9.92,17-26.16,31.76-19.4,52C48,115,51.54,118.14,51.54,118.14l.49-2.83c.15-2.16.35-4.32.44-6.49,1.59-40.76,19.79-41.3,34.1-65.61,3.83,3.57,8.51,6.28,12.84,8.82,8.22,4.83,16.73,9,25.32,13s17.32,7.46,25.81,11.79c21.75,11.08,17.18,41.34,17.19,41.35-.13-.75,2.61-4.21,3-4.84a73.89,73.89,0,0,0,5.55-10.85C182.72,86.89,168.91,75.87,165.69,58.8Z"/><path class="cls-10" d="M107.77,50.66a37.33,37.33,0,0,0,0,24,51.87,51.87,0,0,1-21.88-36"/><path class="cls-10" d="M101.69,48.12s.36,8.74,18.86,27.22c0,0-6.85-12.2-3-24.68"/><path class="cls-23" d="M76.67,118.67c-4.77-9.18,10.22-16.77,12.89-1.76A12,12,0,0,1,76.67,118.67Z"/><path class="cls-23" d="M129.24,115.27c-3.58-11.42,15.57-13.44,12.07,1.47A12.4,12.4,0,0,1,129.24,115.27Z"/><path class="cls-24" d="M46.48,109.42A98.44,98.44,0,0,1,43,92.85a110.85,110.85,0,0,1-.87-17.13,26.07,26.07,0,0,1,.37-4.32c.27-1.42.56-2.83.85-4.25.57-2.84,1.28-5.66,2.13-8.44A72,72,0,0,1,52.5,42.66,59.33,59.33,0,0,1,63.7,29a68,68,0,0,1,14.55-9.91,70,70,0,0,1,34-7.46,74.88,74.88,0,0,1,33.56,9.13A60.68,60.68,0,0,1,160,31.38a45.66,45.66,0,0,1,5.64,7.08c.42.64.81,1.29,1.19,2s.68,1.3,1,1.95c.69,1.28,1.3,2.61,1.91,3.93a85.63,85.63,0,0,1,5.49,16.52c.62,2.83,1.15,5.67,1.51,8.54l.56,4.29a28.42,28.42,0,0,1,0,4.33c-.09,2.88-.34,5.74-.66,8.59S176,94.23,175.38,97a93.12,93.12,0,0,1-4.67,16.28,115,115,0,0,0,1.11-16.63,116.78,116.78,0,0,0-1.13-16.36c-.17-1.35-.45-2.68-.52-4s-.16-2.69-.37-4c-.34-2.67-.83-5.31-1.4-7.93a78.73,78.73,0,0,0-5-15.17c-.56-1.2-1.11-2.41-1.74-3.58-.31-.58-.61-1.2-.93-1.75s-.63-1.09-1-1.62a38.68,38.68,0,0,0-4.77-6,53.4,53.4,0,0,0-12.5-9.39,67.69,67.69,0,0,0-30.39-8.26,63,63,0,0,0-30.64,6.7,61.05,61.05,0,0,0-13,8.86,52.55,52.55,0,0,0-9.9,12.1,65,65,0,0,0-6.37,14.49c-.78,2.55-1.43,5.15-2,7.77-.27,1.32-.45,2.65-.62,4s-.45,2.65-.74,4a121.56,121.56,0,0,0-2.18,16.26c-.21,2.75-.31,5.52-.33,8.31S46.31,106.62,46.48,109.42Z"/><path class="cls-25" d="M178.65,54.9c-5.29,5.6-5.91,13.6-13.89,6.08s-4.87-23.77-4.87-23.77,16-4.05,24,3.48S183.93,49.3,178.65,54.9Z"/><path class="cls-25" d="M140.82,19.21c-5.29,5.6-13.24,6.69-5.26,14.21s24,3.48,24,3.48,3.11-16.24-4.86-23.77S146.11,13.61,140.82,19.21Z"/><circle class="cls-26" cx="152.15" cy="18.5" r="1.66"/><circle class="cls-26" cx="155.22" cy="25.01" r="1.66"/><circle class="cls-26" cx="145.33" cy="25.74" r="1.66"/><path class="cls-26" d="M149.08,33.84A1.66,1.66,0,1,1,149,31.5,1.65,1.65,0,0,1,149.08,33.84Z"/><circle class="cls-26" cx="140.77" cy="30.56" r="1.66"/><path class="cls-26" d="M158.32,28.88a1.65,1.65,0,0,0,.07,2.34,1.63,1.63,0,0,0,1.24.45c.05-1,.07-2.12,0-3.3A1.66,1.66,0,0,0,158.32,28.88Z"/><path class="cls-26" d="M158.12,21.85a1.61,1.61,0,0,0,.81.41,21.89,21.89,0,0,0-.84-2.8s0,0,0,0A1.66,1.66,0,0,0,158.12,21.85Z"/><path class="cls-26" d="M142.12,36.39l0,0a22.48,22.48,0,0,0,2.81.66,1.65,1.65,0,0,0-2.79-.68Z"/><path class="cls-26" d="M153.84,36.05a1.65,1.65,0,0,0-2.78,1.41c1.18,0,2.29-.12,3.29-.23A1.61,1.61,0,0,0,153.84,36.05Z"/><path class="cls-26" d="M146.26,17.5a1.65,1.65,0,0,0-.07-2.34,1.61,1.61,0,0,0-1.35-.43c-.44.66-.89,1.36-1.38,2.08a1.75,1.75,0,0,0,.45.76A1.66,1.66,0,0,0,146.26,17.5Z"/><path class="cls-26" d="M148.47,12.74a1.65,1.65,0,0,0,2.78-1.35,3.46,3.46,0,0,0-3.27-.18A1.67,1.67,0,0,0,148.47,12.74Z"/><path class="cls-26" d="M137.09,24.8A1.66,1.66,0,1,0,138.57,22c-.68.53-1.36,1-2,1.49A1.62,1.62,0,0,0,137.09,24.8Z"/><path class="cls-26" d="M134.88,29.56a1.65,1.65,0,0,0-.07-2.34,1.62,1.62,0,0,0-1.54-.4,3.47,3.47,0,0,0,.4,3.26A1.65,1.65,0,0,0,134.88,29.56Z"/><circle class="cls-26" cx="178.68" cy="43.54" r="1.66"/><circle class="cls-26" cx="171.58" cy="41.4" r="1.66"/><circle class="cls-26" cx="171.85" cy="50.77" r="1.66"/><path class="cls-26" d="M163.55,47.49a1.66,1.66,0,1,0,2.34-.06A1.66,1.66,0,0,0,163.55,47.49Z"/><circle class="cls-26" cx="167.3" cy="55.6" r="1.66"/><path class="cls-26" d="M168,38a1.66,1.66,0,0,1-2.86-1.14c1-.11,2.11-.2,3.29-.23A1.61,1.61,0,0,1,168,38Z"/><path class="cls-26" d="M175,37.78a1.56,1.56,0,0,1-.46-.79,21.67,21.67,0,0,1,2.84.67l0,.05A1.65,1.65,0,0,1,175,37.78Z"/><path class="cls-26" d="M161.41,54.59l0,0a22.07,22.07,0,0,1-.83-2.77,1.68,1.68,0,0,1,.78.41A1.65,1.65,0,0,1,161.41,54.59Z"/><path class="cls-26" d="M161.07,42.87a1.65,1.65,0,0,1-1.25,2.86c0-1.18,0-2.3,0-3.3A1.65,1.65,0,0,1,161.07,42.87Z"/><path class="cls-26" d="M180,49.36a1.66,1.66,0,0,1,2.86,1.26c-.64.47-1.32,1-2,1.49a1.7,1.7,0,0,1-.79-.4A1.68,1.68,0,0,1,180,49.36Z"/><path class="cls-26" d="M184.64,46.88a1.66,1.66,0,0,1-.06-2.34,1.63,1.63,0,0,1,1.25-.52,3.45,3.45,0,0,1,.37,3.26A1.69,1.69,0,0,1,184.64,46.88Z"/><path class="cls-26" d="M173.26,58.94A1.66,1.66,0,1,1,176,57.3c-.49.71-.94,1.41-1.37,2.07A1.64,1.64,0,0,1,173.26,58.94Z"/><path class="cls-26" d="M168.64,61.42a1.66,1.66,0,0,1,2.84,1.45,3.5,3.5,0,0,1-3.28-.21A1.67,1.67,0,0,1,168.64,61.42Z"/><path class="cls-27" d="M149.25,22.62c-2.53,1.68,6.14,9.19,6.14,9.19S151.77,20.93,149.25,22.62Z"/><path class="cls-27" d="M146.23,29.33c-.94,1.81,8.13,4.23,8.13,4.23S147.18,27.52,146.23,29.33Z"/><path class="cls-27" d="M174.74,46.68c-1.53,2.62-9.54-5.6-9.54-5.6S176.28,44.05,174.74,46.68Z"/><path class="cls-27" d="M168.22,50.07c-1.76,1-4.7-7.86-4.7-7.86S170,49,168.22,50.07Z"/><rect class="cls-28" x="154.77" y="32.06" width="9.95" height="9.95" rx="2.94" transform="translate(23.18 127.8) rotate(-46.66)"/><path class="cls-29" d="M146.27,106.39c-5.32-4.41-12.82-3.55-21.14,0,0-6.18,4.73-11.19,10.57-11.19S146.27,100.21,146.27,106.39Z"/><path class="cls-29" d="M92.43,109c-5.32-4.4-12.82-3.55-21.14,0,0-6.18,4.73-11.18,10.57-11.18S92.43,102.81,92.43,109Z"/><path class="cls-30" d="M48.79,135.19s5.06,10.54-1.17,12.33-4.29-10-4.29-10,1.62,9.93,3.54,3.79Z"/><path class="cls-30" d="M171.14,135.86s-5.06,10.53,1.17,12.32,4.29-10,4.29-10-1.62,9.92-3.54,3.78Z"/><path class="cls-31" d="M53.92,249.71s.72,7.93-6.4-2.49-13-25.83-13-25.83-2.32-5.3,2.14-3.65S53.92,249.71,53.92,249.71Z"/><path class="cls-32" d="M38.07,217.32l.18,0c1,1,15.91,16.1,17.24,25.4a84.46,84.46,0,0,1-7.18,5.51c-4.26-11.94-11.8-23.13-14.79-27.32Z"/><line class="cls-33" x1="66.28" y1="242.3" x2="67.49" y2="218.01"/><polygon class="cls-34" points="65.28 242.25 67.49 218.01 67.28 242.35 65.28 242.25"/><line class="cls-33" x1="168.65" y1="258.84" x2="168.35" y2="226.41"/><polygon class="cls-34" points="167.65 258.85 168.35 226.41 169.65 258.83 167.65 258.85"/><path class="cls-35" d="M168.72,253.56l-.1,8-.08-14.75s20.27-12.26,25.28-20.23l4.89,7S188.71,243.37,168.72,253.56Z"/><path class="cls-35" d="M58.92,245.84l-5.4,5.76c-4.54-22.61-18.68-34-18.68-34s2.22-2.1,5.46-5.12C44.77,216.93,58.45,231.56,58.92,245.84Z"/><path class="cls-15" d="M39.88,312.89c-9.16-16.18-4.34-30.83-14.46-46.36-2.58-4-6.18-36.52-9.14-55,22.4-5.81,71.14-3.14,96.79,41.37,0,.42-12.65,57.87-13.76,63.91a72.5,72.5,0,0,0-27.45-8.21A70.34,70.34,0,0,0,39.88,312.89Z"/><path class="cls-36" d="M99.4,317.11l-.14-.08a72.17,72.17,0,0,0-27.4-8.2,70.84,70.84,0,0,0-31.94,4.26c-4.44-7.83-5.77-15.44-6.92-22.74-1.27-8.05-2.46-15.66-7.68-23.67-1.81-2.79-4.09-19.26-6.3-35.18-1-7.3-2.91-20.12-2.91-20.12l.14,0C27,208.55,45,207.57,63.48,213.15a84.79,84.79,0,0,1,49.69,39.63c0,.19-.76,4.12-5.11,24C104.5,293.15,99.4,317.11,99.4,317.11Zm-34.72-9q3.58,0,7.19.32a72.46,72.46,0,0,1,27.34,8.15c.76-4,13.5-62.42,13.71-63.56-24.38-42.22-71-47.82-96.47-41.27.91,5.67,1.85,12.49,2.85,19.7,2.2,15.86,4.47,32.27,6.22,35,5.27,8.09,6.53,16.11,7.76,23.87,1.13,7.21,2.3,14.67,6.65,22.39A70.06,70.06,0,0,1,64.68,308.08Z"/><path class="cls-15" d="M26,280.71c-.45-1-12.75-48.36-14.57-57.21,21.81-12.33,72.34-10.44,101.65,29.42,0,.42-12.65,57.87-13.76,63.91C91.15,312.46,37.27,287.93,26,280.71Z"/><path class="cls-36" d="M99.4,317.11l-.14-.08c-2.78-1.48-10.72-5.25-20.78-10-19-9-45.1-21.35-52.54-26.11-.4-.92-12.72-47.93-14.65-57.35l0-.19.12-.07c11.81-6.68,30.23-8.54,48.08-4.87a87.66,87.66,0,0,1,53.72,34.35c0,.19-.76,4.12-5.11,24C104.5,293.15,99.4,317.11,99.4,317.11ZM26.09,280.54c7.48,4.78,33.48,17.08,52.47,26.07,9.9,4.69,17.75,8.41,20.65,9.94.77-4,13.48-62.34,13.71-63.56a87.39,87.39,0,0,0-53.5-34.14c-17.74-3.64-36-1.81-47.82,4.78C13.62,233.34,25.42,278.57,26.09,280.54Z"/><path class="cls-37" d="M9.2,238.84c.81-1,1-1.16,2-2.16,36.6-10.27,68.46-.77,89,16.21.79,6.53,4.16,74.49,2.83,82.95C73.76,326.26,35.34,232.57,9.2,238.84Z"/><path class="cls-38" d="M31.28,330.4c-5.85-26.06-16-63.36-22.08-91.56a95.13,95.13,0,0,1,90.62,15.95c.79,6.35,5.51,72.93,4.18,81.15C74.76,326.64,57.41,324.31,31.28,330.4Z"/><path class="cls-15" d="M195.65,312.6c2.64-11.77,1.94-93.84,4.37-112.33-20.23-5.22-77.59,8.63-86.94,53.13,0,.43,16.54,57.27,17.84,63.29C139,312.25,185.92,309,195.65,312.6Z"/><path class="cls-36" d="M130.83,317l-.05-.22c-.83-3.88-8.16-29.42-13-46.32-4.16-14.48-4.83-16.87-4.83-17a58,58,0,0,1,14.74-28A79.33,79.33,0,0,1,152.43,208c18.37-8.53,37.85-10.44,47.61-7.93l.14,0,0,.22c-1.16,8.87-1.61,32.78-2,55.89-.49,25.88-1,50.32-2.33,56.46l0,.18-.12,0c-9.26-3.46-56.39-.49-64.65,4.08Zm-17.6-63.53c.1.48,16.75,58.47,17.77,63,4.42-2.31,19-4.17,31.64-5,11.82-.78,27.47-1,32.92,1,1.33-6.39,1.81-31.69,2.27-56.16.43-22.95.87-46.67,2-55.74-9.76-2.46-29.09-.52-47.34,8C131.22,218.28,117.27,234.29,113.23,253.44Z"/><path class="cls-15" d="M195.65,312.6c2.64-11.77,10.6-83.92,13-102.41-22.57-5.62-74.6-.67-95.6,43.21,0,.43,16.54,57.27,17.84,63.29C139,312.25,185.92,309,195.65,312.6Z"/><path class="cls-36" d="M130.83,317l-.05-.22c-.83-3.88-8.16-29.42-13-46.32-4.16-14.48-4.83-16.87-4.83-17C124.57,229.08,145.11,218,160.26,213c19.38-6.33,38.21-5.6,48.44-3.05l.15,0s-2,16.65-3.52,29.11c-3.25,27.59-7.71,65.38-9.55,73.55l0,.18-.12,0c-9.26-3.46-56.39-.49-64.65,4.08Zm-17.6-63.53c.17.7,16.75,58.47,17.77,63,4.42-2.31,19-4.17,31.64-5,11.82-.78,27.47-1,32.92,1,1.85-8.51,6.27-45.93,9.5-73.31,1.45-12.3,2.7-22.95,3.45-28.68C187.48,205.21,134.6,208.91,113.23,253.44Z"/><path class="cls-15" d="M210.18,278c.42-1.05,3.42-47.3,4.22-55.79-20.84-10.11-74.11-6.41-101.74,31.75,0,.42,17,56.7,18.26,62.72C139,312.25,199.11,285.33,210.18,278Z"/><path class="cls-36" d="M130.83,317l-.05-.22c-.84-3.94-8.49-29.7-13.55-46.75-4.09-13.77-4.71-15.87-4.71-16.05,12.2-16.84,31.24-29.07,53.54-34.17,18.07-4.13,37.06-3.26,48.39,2.23,0,0-1,14.65-1.82,26-1.29,18.34-2.1,29.52-2.33,30.11-7.08,4.69-34.83,17.72-55.05,27.17-11.48,5.37-21.39,10-24.28,11.6Zm-18-62.93c.2.78,17.13,57.78,18.18,62.37,3.05-1.66,12.39-6,24.16-11.53,20.16-9.43,47.76-22.33,54.91-27,.26-1.24,1.33-16.45,2.28-29.9.79-11.16,1.54-21.72,1.9-25.59-11.3-5.42-30.17-6.27-48.15-2.16C143.9,225.28,125,237.3,112.82,254Z"/><path class="cls-39" d="M128.57,254.7c0,1.29-6,3.91-14.16,3.95s-14.78-2.58-14.59-3.86c.14-.9,6.47-3.13,14.61-3.17S128.56,254,128.57,254.7Z"/><path class="cls-37" d="M100.13,263.17c-.06-4.06-.3-7.88-.33-10.59,10.8,3,19,3.17,28.77.18.16,1.79-.66,9.54-.46,11.67C121.1,267.9,106,269.05,100.13,263.17Z"/><path class="cls-40" d="M104,335.94c-.87-22.13-3.19-54.25-4.18-81.15,10.7,2.24,18.94,2.82,28.75-.09.74,5.78,3.56,72.91,4.48,81.34C126,339.4,109.86,341.65,104,335.94Z"/><path class="cls-37" d="M219.18,234.9c-.07-.34-.33-1.19-.62-2-29.57-7-70,2.74-90,19.89-.51,6.05,1.38,12.4,2.14,21.05C165.55,265.66,209.31,234.53,219.18,234.9Z"/><path class="cls-38" d="M204.54,333.78c4.39-28.89,10.46-70.53,14.64-98.88-29.57-6.8-70.6,3.14-90.61,19.8.26,5.8-1.55,74.77-.8,83.17C162.62,330,194.8,330.15,204.54,333.78Z"/><path class="cls-41" d="M20,288.07s4.85,4.41,1.62,8.71c-2.57,3.43-14.53-4.58-17.87-9.73C2,284.29-.78,278.31,1.82,273.92c0,0-2.11-7,1.94-9.59,0,0-2.75-9.9,6.82-12.17h1.3Z"/><path class="cls-41" d="M3.76,280.72s3.41,7.63,15.42,8.27,8.63-7.38,8.63-7.38l-18.2-7.69"/><path class="cls-41" d="M11.55,266.12s24.34,4.54,21.75,12.49c-1.92,5.87-20.61,2.6-26.78-2.92"/><path class="cls-41" d="M8.47,266.52a31.32,31.32,0,0,0,14.6,5.84c8.52,1,10.71-3.16,7.55-6.33s-20-8.27-20-8.27"/><path class="cls-41" d="M209.35,283.87a79.44,79.44,0,0,1-3.84,7.56c-1.61,2.55,1,5.75,5.29,3.13s8.29-9.2,5.81-13.52S209.35,283.87,209.35,283.87Z"/><path class="cls-41" d="M219.66,273.23s2.87,4-3.06,9.3-24.77,2.87-15.13-5.78S219.66,273.23,219.66,273.23Z"/><path class="cls-41" d="M220.89,263.65s2.67,6.25-2.12,10.48-15.39,5.09-20.49,1.87-.64-8.26,3.24-8.47S220.89,263.65,220.89,263.65Z"/><path class="cls-41" d="M215.53,259.45s-13.19-1.52-15.27,4.33,14.34,8,19.89,1-2.92-14-2.92-14Z"/><path class="cls-42" d="M57.43,363.54s87.56-40.72,122.3-48.79c38-7.3,60.22,22.81,27.66,46.61-39.21,7.71-148,20.31-148,20.31S64.47,363.89,57.43,363.54Z"/><path class="cls-43" d="M54.18,378.19s9.77,5.51,7-7.77l-9.77-2-28.32-11s-10.52,5-2.5,26.81c5.76,10.52,8.27,13.53,23.3,3.26l10.78-6.27S49.66,378.94,54.18,378.19Z"/><path class="cls-44" d="M22.89,358,20.26,359c-5.72,1.7-2.16,37.77,12.08,34.21,7.74-4.18,22.6-12.54,22.6-12.54L30.63,395.42C15.62,398.67,7,369,18.72,358.58l3.09-1.4Z"/><path class="cls-44" d="M186,362.11s24.81-2.76,30.82-2.13c5.72,2.34,9.51,35.65-12.78,37.72-7.19,0-25.85-15.23-25.85-15.23l25.69,11s17.7-14.78,10.94-29.56Z"/><path class="cls-45" d="M184.23,362.9v-1.5h27.32s4.63-1.47,5.76,6.51c.62,9.15-.73,20.92-11.49,27.32,0,0-1,1.75-9.31-2a130.84,130.84,0,0,1-17.79-10.52v-2.51l-5.51,3.51s-7.27,2.25,4-21.3C180,360.39,182,360.14,184.23,362.9Z"/><circle class="cls-46" cx="33.56" cy="384.04" r="1.77"/><circle class="cls-46" cx="40.46" cy="384.04" r="1.77"/><circle class="cls-46" cx="47.36" cy="382.03" r="1.77"/><circle class="cls-46" cx="28.84" cy="368.02" r="1.77"/><circle class="cls-46" cx="53.17" cy="379.12" r="1.77"/><circle class="cls-46" cx="34.09" cy="364.48" r="1.77"/><path class="cls-47" d="M27.87,368.51l11.46,16s3.09,2.2,2.1-1c-2.87-4.19-11.24-16.2-11.24-16.2S27.43,365.42,27.87,368.51Z"/><path class="cls-47" d="M35.85,363.91l-.91,19.65s-1.39,3.53-2.3.31c.12-5.08.6-19.71.6-19.71S34.53,361.08,35.85,363.91Z"/><path class="cls-47" d="M43.23,362.73l-.91,19.64s-1.39,3.53-2.3.31c.13-5.07.61-19.71.61-19.71S41.92,359.9,43.23,362.73Z"/><path class="cls-47" d="M33.6,365.31l11.47,16s3.08,2.21,2.09-1c-2.87-4.19-11.24-16.2-11.24-16.2S33.16,362.23,33.6,365.31Z"/><circle class="cls-44" cx="200.94" cy="385.17" r="2.05"/><circle class="cls-44" cx="187.29" cy="383.12" r="2.05"/><circle class="cls-44" cx="181.17" cy="381.51" r="2.05"/><circle class="cls-44" cx="205.53" cy="367.87" r="2.05"/><circle class="cls-44" cx="192.84" cy="363.79" r="1.61"/><circle class="cls-44" cx="199.33" cy="364.23" r="1.61"/><circle class="cls-44" cx="193.56" cy="385.17" r="1.61"/><path class="cls-47" d="M40.5,363.22,52,379.2s3.08,2.2,2.09-1C51.2,374,42.82,362,42.82,362S40.06,360.13,40.5,363.22Z"/><path class="cls-48" d="M203.54,368.64l-9.67,14.89c-2,3.16.43,3.59,1.88,1.45.92-1.35,10.78-16.91,10.53-16.34h0c0-.15.21-1.61-.34-1.89S204.43,367.22,203.54,368.64Z"/><path class="cls-48" d="M196.94,366.16l-9.67,14.89c-2,3.16.43,3.59,1.88,1.45.92-1.35,10.78-16.92,10.53-16.34h0c0-.15.21-1.61-.34-1.89S197.83,364.73,196.94,366.16Z"/><path class="cls-42" d="M182.15,359.26S69.1,318,57.2,316.55c-20.29-6.91-39-1.44-45.17,10.15-1.1,2.09-3.64,7.82-1.4,17.16,0,0,2.45,18.9,51.12,26.26s108.63,14.35,108.63,14.35S170.58,365.56,182.15,359.26Z"/><path class="cls-48" d="M190.78,364.58l-9.68,14.89c-2,3.17.43,3.6,1.89,1.46.92-1.35,10.78-16.92,10.52-16.35h0c0-.15.21-1.61-.34-1.88S191.67,363.16,190.78,364.58Z"/><path class="cls-48" d="M193.8,365.31l1,17.72c.14,3.73-2.16,2.92-2.36.34-.13-1.63-1-20-1.05-19.42h0c.05-.14.61-1.5,1.23-1.46S193.73,363.63,193.8,365.31Z"/><path class="cls-48" d="M200.9,366.05l1,17.72c.14,3.73-2.15,2.92-2.36.34-.13-1.63-1-20-1-19.42h0c.06-.14.62-1.5,1.23-1.46S200.83,364.37,200.9,366.05Z"/><path class="cls-49" d="M132.39,342.53s33.4-13.89,41.66-17.19,16.84,5.29,4.13,24.46l-6.44,5.63Z"/><path class="cls-49" d="M97,360.86l-44.82-1.6s-17.38.79,0-16.73c14.4-13.23,25.65-9.26,42,0S112.57,361.42,97,360.86Z"/><path class="cls-50" d="M184.23,362.9s.8,10.81-5.51,17.29c-5.51,3.51-8.79,7.39-7.48-3.05a26.61,26.61,0,0,1,8.5-16.26S183.09,360.73,184.23,362.9Z"/><path class="cls-50" d="M46.84,367.2s4.37,7.48,8.1,11.35c3.09,1.74,8.93,1.72,6.3-8.51Z"/><path class="cls-51" d="M12,326.7s9.48-20,42.91-10.87,127.21,43.43,127.21,43.43S42.08,311.19,12,326.7Z"/><path class="cls-51" d="M119,336.46s39.19-17.35,59.47-21.41c23.61-6.79,36.37,5.8,36.37,5.8s-26.56-12.06-85.11,19.67C116.42,334.45,119,336.46,119,336.46Z"/><circle class="cls-15" cx="132.61" cy="107.39" r="1.89"/><circle class="cls-15" cx="78" cy="110.58" r="1.89"/><circle class="cls-52" cx="166.57" cy="278.11" r="28.08"/><path class="cls-15" d="M149.28,273.51a4.8,4.8,0,0,0,2.07-.26c1-.39,1.37-1,1.16-1.59s-.75-.81-2-.73c-1.63.12-2.63-.22-3-1-.47-1.09.27-2.5,2.16-3.21a5.1,5.1,0,0,1,2.32-.34c0,.42-.06.64-.09,1.06a4,4,0,0,0-1.92.24c-.93.35-1.27,1-1.07,1.5s.83.6,2,.55c1.61-.08,2.55.31,2.89,1.36.4,1.24-.4,2.43-2.22,3.13a5.89,5.89,0,0,1-2.35.41Z"/><path class="cls-15" d="M155.66,262.78c.12.44-.2.91-.86,1.1a.94.94,0,0,1-1.23-.51c-.14-.46.21-.95.83-1.12A.93.93,0,0,1,155.66,262.78Zm.71,9.71-2-7.17c.65-.19,1-.28,1.63-.45.73,2.9,1.1,4.34,1.83,7.24C157.23,272.25,157,272.33,156.37,272.49Z"/><path class="cls-15" d="M166.65,263.06c0,.55,0,1.17.08,2.09.13,1.76.19,2.64.32,4.4s-.18,2.82-.86,3.54a4.54,4.54,0,0,1-2.69,1.22,5.83,5.83,0,0,1-2.64-.19c0-.44.08-.66.14-1.09a5.17,5.17,0,0,0,2.39.21,2.39,2.39,0,0,0,2.25-2.93l-.09-.84h0a3.16,3.16,0,0,1-2.46,1.58,3.66,3.66,0,0,1-4.19-3,3.82,3.82,0,0,1,3.29-4.67,3.06,3.06,0,0,1,3,.93h0c0-.45,0-.68,0-1.14Zm-1.44,3.14a1.49,1.49,0,0,0-.16-.61,2.24,2.24,0,0,0-2.45-1.15,2.57,2.57,0,0,0-2.17,3.25,2.51,2.51,0,0,0,2.92,2.26,2.28,2.28,0,0,0,1.94-1.65,1.87,1.87,0,0,0,.05-.74Z"/><path class="cls-15" d="M169.29,259.35l1.79-.05v4.77h0a2.85,2.85,0,0,1,1.21-1,4.08,4.08,0,0,1,1.75-.35,3,3,0,0,1,2.93,3.51c-.19,1.83-.28,2.74-.46,4.57l-1.49-.14c.13-1.76.2-2.64.33-4.41.09-1.24-.38-2.34-2-2.39a2.31,2.31,0,0,0-2.24,1.36,1.5,1.5,0,0,0-.11.66v4.62h-1.49Z"/><path class="cls-15" d="M182.43,261.56l-.4,2.2c1,.17,1.45.26,2.41.47l-.23,1c-.94-.2-1.42-.29-2.37-.46l-.73,4.13c-.17.95,0,1.53.85,1.71a4.36,4.36,0,0,0,.89.09c-.06.42-.09.63-.16,1.05a3.9,3.9,0,0,1-1.34-.09,2.31,2.31,0,0,1-1.49-.87,2.9,2.9,0,0,1-.27-2.09l.63-4.19-1.41-.19.13-1.06,1.44.19.28-1.84C181.36,261.61,181.72,261.59,182.43,261.56Z"/><path class="cls-15" d="M146.48,287.08c1,1.24,1.49,1.87,2.44,3.14.52.7,1,1.35,1.41,2h0a24.68,24.68,0,0,1-.12-2.48c0-1.63,0-2.44.08-4.09l1.28-.41c1,1.27,1.44,1.92,2.36,3.22.54.79,1,1.49,1.37,2.18h0a18.88,18.88,0,0,1,0-2.53c.07-1.59.11-2.39.23-4,.61-.16.92-.23,1.53-.37-.43,3.21-.59,4.82-.78,8l-1.26.34c-.86-1.26-1.3-1.88-2.21-3.1-.53-.72-1-1.36-1.47-2.13h0a25.38,25.38,0,0,1,.05,2.6c-.06,1.53-.07,2.29-.07,3.8l-1.23.44c-2-2.47-3-3.67-5.14-6Z"/><path class="cls-15" d="M166.66,286a3.93,3.93,0,0,1-3.48,4.52,4,4,0,1,1-1.07-7.92A3.7,3.7,0,0,1,166.66,286Zm-6.5,1a2.71,2.71,0,0,0,2.92,2.48c1.36-.2,2.25-1.55,2-3.27-.15-1.29-1.07-2.86-2.9-2.58S159.89,285.58,160.16,287Z"/><path class="cls-15" d="M168.47,284.47c-.06-.91-.13-1.68-.23-2.4l1.39-.08c.05.6.07.91.12,1.51h.07a2.53,2.53,0,0,1,2.36-1.77,1.61,1.61,0,0,1,.45,0v1.33a2.16,2.16,0,0,0-.53,0,2.06,2.06,0,0,0-2,1.87,3.24,3.24,0,0,0-.05.65c.07,1.65.11,2.47.18,4.12-.56,0-.84,0-1.41.07C168.67,287.65,168.6,286.59,168.47,284.47Z"/><path class="cls-15" d="M182,278.73c-.45,3.77-.68,5.65-1.13,9.42-.08.69-.16,1.48-.18,2l-1.27-.15c0-.54,0-.81.07-1.36h0a3,3,0,0,1-2.81,1.3c-1.88-.12-3.31-1.72-3.31-4.07a3.79,3.79,0,0,1,4-4.06,2.88,2.88,0,0,1,2.53,1.39h0c.19-1.86.28-2.79.46-4.66Zm-2.34,6.65a2.08,2.08,0,0,0,0-.61,2.19,2.19,0,0,0-2.11-1.81c-1.62-.1-2.62,1.17-2.67,2.89s.7,2.89,2.26,3a2.24,2.24,0,0,0,2.27-1.51,2.27,2.27,0,0,0,.13-.61Z"/><path class="cls-15" d="M183.05,289a4.12,4.12,0,0,0,1.79.89c1,.2,1.63-.21,1.76-.85s-.19-1.14-1.22-1.72c-1.36-.78-2-1.64-1.82-2.57.19-1.26,1.48-2.13,3.35-1.78a4.57,4.57,0,0,1,2,.92l-.62.94a3.54,3.54,0,0,0-1.65-.81c-.92-.17-1.52.22-1.62.8s.35,1,1.35,1.61c1.33.8,1.89,1.65,1.63,2.8-.31,1.36-1.58,2-3.41,1.69a5,5,0,0,1-2.1-.9C182.73,289.64,182.83,289.43,183.05,289Z"/></svg>