<svg xmlns="http://www.w3.org/2000/svg" viewBox="0 0 245.76 234.62"><defs><style>.cls-1{isolation:isolate;}.cls-10,.cls-12,.cls-2{fill:#3b2314;}.cls-3{fill:#5d3c2a;}.cls-4{fill:#895b46;stroke:#231f20;}.cls-10,.cls-11,.cls-13,.cls-4{stroke-miterlimit:10;}.cls-4,.cls-6,.cls-8{stroke-width:0.75px;}.cls-13,.cls-4{opacity:0.3;}.cls-5{fill:#b73e7b;}.cls-5,.cls-7{stroke:#561d1d;}.cls-6{fill:#e585b3;}.cls-6,.cls-8{stroke:#ffe6e6;}.cls-7{fill:#e4609c;}.cls-8{fill:#f38fbb;}.cls-9{fill:#231f20;}.cls-10{stroke:#210f00;}.cls-10,.cls-15,.cls-17{stroke-width:0.5px;}.cls-11{fill:#ffe743;stroke:#705b01;}.cls-12{opacity:0.24;}.cls-13{fill:#e0aa24;stroke:#eac71c;stroke-width:0.25px;}.cls-14{fill:#754c28;}.cls-15{fill:#20a7c6;stroke:#20497a;}.cls-16{fill:#0795b9;}.cls-17{fill:#fefdeb;stroke:#832f0a;stroke-linecap:round;stroke-linejoin:round;}.cls-18{mix-blend-mode:multiply;}.cls-19{fill:#f2efda;}.cls-20{fill:#381b0d;}.cls-21{fill:#fff;}.cls-22{fill:#4c4218;}</style></defs><g class="cls-1"><g id="Layer_1" data-name="Layer 1"><path class="cls-2" d="M112.36,201s-4.61,10-9,10.23-31.08-13.1-31.08-13.1l-1.91,3.34L98.1,213.9s7.57,4.25,12.89-3,7.49-10.12,7.49-10.12Z"/><path class="cls-2" d="M66.29,200.32l-2.13,5.34s-.75,5.11-6.65,17.55-20.23,12-19.39,1.47,8.32-29.68,19-32.25a7.25,7.25,0,0,1,3.36-1.69c3.22-.61,6.76,1.22,9.08,4.61l2.78,1.51-3.38,4.86-2.12-1.36Z"/><path class="cls-3" d="M68.08,201.57l2.62,1.31,3.55-5.17-2.78-1.52c-2.32-3.38-5.86-5.22-9.07-4.6A7.19,7.19,0,0,0,59,193.27c-10.65,2.57-18.13,21.72-19,32.26s13.5,11,19.4-1.48S66.1,206.5,66.1,206.5L68,201.71Z"/><path class="cls-4" d="M52.67,207.62l6.9,2.56s-4.49,11.23-6.9,14.39-9.76,0-4.88-8.47Z"/><path class="cls-4" d="M56.53,198.72a17.46,17.46,0,0,0,8,3.79l-1.18,2.09s-7.12-1.1-8.12-4.08l1.09-1.85Z"/><path class="cls-2" d="M70.7,202.88l3.55-5.17S76,204,70.7,202.88Z"/><path class="cls-5" d="M119.23,87.69s-8.46-15-22-14.74S84.45,91.83,88.94,98.37s17.06,25.42,39.9,34.73S124,106.25,119.23,87.69Z"/><path class="cls-6" d="M118.85,88.78S111,74.91,98.46,75.12s-11.84,17.5-7.67,23.56,15.81,23.55,37,32.17S123.22,106,118.85,88.78Z"/><path class="cls-5" d="M160.88,133.87s-14.32,6.61-24.48-3.76-25.34-44.82-22.48-67.48C116.42,42.8,129.12,34,138.37,38c10.79,4.68,10.18,27.3,10.37,40.84C149.09,104.05,160.88,133.87,160.88,133.87Z"/><path class="cls-6" d="M157.78,128.35s-12.94,5.84-22.22-3.51S112.33,84.56,114.78,64.3c2.15-17.75,13.61-25.59,22-21.94,9.81,4.26,9.39,24.51,9.64,36.63C146.91,101.59,157.78,128.35,157.78,128.35Z"/><path class="cls-7" d="M69.9,115.32s-17-8.28-29.06.35.19,25,8.32,28.12,31.22,12.38,57.65,6.6S85.71,129.16,69.9,115.32Z"/><path class="cls-8" d="M70.24,116.54s-15.72-7.67-26.93.32S43.49,140,51,142.93,80,154.4,104.44,149,84.88,129.37,70.24,116.54Z"/><path class="cls-7" d="M138.27,132s-10.85,14.06-26.48,11S61,118.22,49.52,96c-10.07-19.48-4.09-35.37,6.77-37.49C69,56,82.47,76.82,91.06,89,107.06,111.54,138.27,132,138.27,132Z"/><path class="cls-8" d="M135.07,132.16s-13.12,9.27-27.31,6.59-46-22-56.42-41.82c-9.09-17.37-3.61-31.58,6.27-33.51,11.51-2.25,23.72,16.31,31.48,27.12C103.56,110.67,135.07,132.16,135.07,132.16Z"/><path class="cls-9" d="M192,52s12.91-29.64,36.91-41.55l1,2s-22,10.21-35.91,41.19Z"/><rect class="cls-9" x="230.23" y="-2.43" width="9.68" height="21.13" rx="4.84" transform="translate(331.72 222.56) rotate(-116.24)"/><path class="cls-9" d="M139.26,71.71s-24-21.63-50.81-22.53l-.08,2.28s24.29.16,49.75,22.61Z"/><rect class="cls-9" x="77.07" y="39.09" width="9.68" height="21.13" rx="4.84" transform="translate(29.75 129.98) rotate(-88.23)"/><path class="cls-10" d="M228.32,162.54s-13.44,10-33.88,9.16c0,0-5.82-2.64-8-17.82s-3-15.8-3-15.8-2.83-1.29-2.91.69,2.2,28.65,10.42,35.29c7.18,5.8,38.53-4.9,40.19-7.71S230,161.36,228.32,162.54Z"/><path class="cls-10" d="M227.5,168.59s2.55,3.2,4.43,2.61c10.37-3.27,4-10.43,4-10.43s-.13-7.82-3.34-6.7C225.49,156.58,218.33,160.17,227.5,168.59Z"/><path class="cls-10" d="M238.36,161.85s2.58-.07,2.68,1.77a4.31,4.31,0,0,1-3.61,4.41c-2.36.34-4.53-1.21-2.5-4S238.36,161.85,238.36,161.85Z"/><path class="cls-10" d="M238.23,157.11s4.64,2.76-.55,6.76-6.36.73-6.59,0,0-2.81,2.59-4.2S238.23,157.11,238.23,157.11Z"/><path class="cls-10" d="M224.11,160.91s3.59.08,4.94,1.08,2.72,3-3.41,3.75-4.72-5.27-2.87-6.59l8.09-5.47c5.56-3.11,7.61.93,7.66,2.43.09,2.31-6.23,6.2-7.88,3.25s.94-4.31.94-4.31"/><path class="cls-11" d="M188.14,122.5s-1.45,45.39-44.25,72.47c-16.22,10.26-94.59,12.38-70.57-41.15,13.63-25.47,39.8-23.15,60.47-21.66,4.44.32,11.63-2.94,14.61-5.67L152,124Z"/><path class="cls-2" d="M125.85,131.48s-2.43,35.57,44.37,39.17c-2.81,4.44-9.9,11.55-9.9,11.55s-46.91-9.46-45.33-51h5.28Z"/><path class="cls-2" d="M96.74,133.86s-4,50.73,55.06,55.77a42.73,42.73,0,0,1-7.4,5.24,29.87,29.87,0,0,1-8.49,3.46S88.27,189.66,86,139c.23-.11,1.15-.79,2.37-1.49a30.58,30.58,0,0,1,3-1.57A29.36,29.36,0,0,1,96.74,133.86Z"/><path class="cls-2" d="M144.62,128.92s13.76,22.46,36,23.42a45.47,45.47,0,0,1-4.77,9.51s-35.48-7.23-39.25-30l3.6-1c.36-.1.82-.33,1.26-.45Z"/><path class="cls-2" d="M72.2,156.14c-1,1.88-8,15.67.1,28.8s28.28,20.27,48.12,15.74C90.57,198.64,71.43,173.68,72.2,156.14Z"/><path class="cls-2" d="M39.78,193.82l28.49,13s9.49,3.38,14.3-3.85c4.37-5.5,9.07-12.52,11.38-16.06a2.71,2.71,0,0,1,3.74-.8h0a3.5,3.5,0,0,1,.62,5.37L82.63,209s-5.91,5.49-18.86-.49c-15.29-7.06-25.93-11.77-25.93-11.77Z"/><path class="cls-2" d="M32.5,195.25l-2.34,5.84s-.81,5.59-7.26,19.19S.77,233.42,1.69,221.9s9.1-32.47,20.75-35.28a7.84,7.84,0,0,1,3.67-1.84c3.52-.68,7.39,1.33,9.93,5l3,1.65-3.76,5.38-2.45-1.35Z"/><path class="cls-3" d="M34.45,196.62l2.87,1.44,3.88-5.67-3-1.65c-2.54-3.71-6.41-5.71-9.93-5a7.94,7.94,0,0,0-3.68,1.85c-11.64,2.8-19.82,23.74-20.74,35.27s14.75,12,21.21-1.61S32.29,202,32.29,202l1.73-4.3Z"/><path class="cls-4" d="M17.61,203.24l7.54,2.8s-4.91,12.28-7.54,15.73-10.68,0-5.34-9.26Z"/><path class="cls-4" d="M21.82,193.5a19.12,19.12,0,0,0,8.71,4.15l-1.3,2.29s-7.78-1.21-8.87-4.47l1.19-2Z"/><path class="cls-2" d="M41.2,192.39s.23,6.22-3.88,5.67Z"/><path class="cls-12" d="M166.22,137.16s-1.27,15.55-22.59,28.06-65.75,15.92-75.07,3.17c0,0-3,16.54,15.27,27.36,17.59,10.4,50.79,3.63,57.64.62,8.38-3.69,26.25-19.36,34.56-34.74A109.6,109.6,0,0,0,186,137s3.78-13.1,0-15.34c-8.17-4.83-28.38-.58-34.45,2.65a30.36,30.36,0,0,0-4.19,2.92C147,127.49,158.64,136.18,166.22,137.16Z"/><path class="cls-11" d="M133,104.22c6,24.06,30.16,29.68,56.83,24.25s42.29-19.16,36.26-43.22-29-39.87-55.71-34.43C137.18,57.58,127,80.17,133,104.22Z"/><path class="cls-13" d="M139,68.89s-9.42,63.89,70.14,52.68c-.95.13,2,.06-15.76,5.53A102.69,102.69,0,0,1,175,129.71c-4.6.09-12.82.73-21.88-3.29a27.53,27.53,0,0,1-12.17-8C129.54,105.59,128.2,83.31,139,68.89Z"/><ellipse class="cls-14" cx="187.63" cy="101.42" rx="1.88" ry="3.21" transform="translate(-20.19 53.44) rotate(-15.39)"/><path class="cls-9" d="M132.48,91.28c1.19,1.19,1.55,3.66,2.62,6.33,2.46,6.11,1.65,11.74,1,13.38a37.74,37.74,0,0,1-3.66-10.52A45.3,45.3,0,0,1,132.48,91.28Z"/><path class="cls-9" d="M219.09,71.25s-5,9.45,6.7,17.15a42.4,42.4,0,0,0-3.57-12C221.41,74.78,220,72.63,219.09,71.25Z"/><path class="cls-9" d="M184.63,49.42S175,47,160.92,52.76C159.86,56.18,184.34,56.24,184.63,49.42Z"/><path class="cls-15" d="M189.13,80c2.8,9.62,10.66,15.51,17.57,13.14s10.24-12.07,7.44-21.69-10.66-15.5-17.57-13.14S186.33,70.36,189.13,80Z"/><path class="cls-16" d="M189.88,85.84c2.44,8.37,9.89,13.28,16.64,11s10.27-11,7.84-19.35-9.89-13.28-16.65-11S187.45,77.47,189.88,85.84Z"/><path class="cls-17" d="M190,82.08c2.44,8.37,9.89,13.28,16.65,11s10.27-11,7.83-19.35-9.89-13.28-16.64-11S187.59,73.7,190,82.08Z"/><g class="cls-18"><path class="cls-19" d="M195,59c-4.62,3.52-6.57,11.27-4.33,19,2.64,9.07,10.05,14.61,16.55,12.38,4.49-1.53,7.37-6.35,7.87-12.16,0,7-3.15,13.14-8.42,14.94-6.91,2.37-14.77-3.52-17.57-13.14C186.55,71.11,189.19,62.17,195,59Z"/></g><path class="cls-20" d="M195.59,79.41c.73,4.63,4.31,7.8,8,7.07s6.08-5.08,5.34-9.71-4.31-7.81-8-7.07S194.86,74.77,195.59,79.41Z"/><path class="cls-21" d="M205,74.5a2,2,0,0,0,2.29,1.91,2.4,2.4,0,0,0,1.64-2.75,2,2,0,0,0-2.29-1.92A2.41,2.41,0,0,0,205,74.5Z"/><path class="cls-15" d="M148.44,88.84c2.75,9.51,10.51,15.34,17.34,13s10.15-11.91,7.4-21.42-10.5-15.35-17.33-13S145.7,79.33,148.44,88.84Z"/><path class="cls-16" d="M149.17,94.62c2.39,8.29,9.75,13.16,16.44,10.89s10.17-10.83,7.78-19.11S163.64,73.25,157,75.52,146.78,86.35,149.17,94.62Z"/><path class="cls-17" d="M149.32,90.91c2.39,8.28,9.75,13.15,16.43,10.88S175.92,91,173.54,82.68,163.79,69.53,157.1,71.8,146.93,82.63,149.32,90.91Z"/><g class="cls-18"><path class="cls-19" d="M154.33,68.09c-4.59,3.48-6.53,11.13-4.33,18.75,2.59,9,9.9,14.46,16.34,12.27,4.43-1.5,7.29-6.26,7.8-12,0,7-3.14,13-8.36,14.75-6.83,2.32-14.59-3.51-17.34-13C145.91,80.06,148.54,71.24,154.33,68.09Z"/></g><path class="cls-20" d="M154.83,87.77c.72,4.59,4.25,7.72,7.89,7s6-5,5.31-9.59-4.25-7.72-7.89-7S154.12,83.19,154.83,87.77Z"/><path class="cls-21" d="M163.52,82.1a1.9,1.9,0,0,0,2.26,1.76,2.45,2.45,0,0,0,1.75-2.66,1.88,1.88,0,0,0-2.26-1.75A2.43,2.43,0,0,0,163.52,82.1Z"/><path class="cls-22" d="M170.31,112a64.49,64.49,0,0,0,10.67,1,39.93,39.93,0,0,0,10.43-1.15,25.49,25.49,0,0,0,4.9-1.74,22.91,22.91,0,0,0,2.31-1.19c.72-.48,1.47-.92,2.16-1.46a30,30,0,0,0,7.12-7.82,21.94,21.94,0,0,1-6.14,9,23.64,23.64,0,0,1-9.85,5.12,32.74,32.74,0,0,1-11,.76A34.63,34.63,0,0,1,170.31,112Z"/><path class="cls-10" d="M215,153.12s3.89.16,4.19,3.43-4.61,4.42-7.37,3.44S206.44,152.59,215,153.12Z"/><path class="cls-10" d="M207.15,156.4s-19.7,16.26-32.69,13.92c-6.67-1.2-15.74-32.5-15.74-32.5s-2.21-1.74-3,1.65c-.46,2.05,7.51,26.94,15.38,33.34s37.07-10,37.07-10l1.35.88S213.56,154.81,207.15,156.4Z"/><path class="cls-10" d="M206.88,159.21s11.85-7.79,4.33-10.6-10.62,9.29-10.62,9.29l1.44,3.51"/><path class="cls-10" d="M202.6,164.59s1,3.79,2.71,4.16c3.75.82,13.37-4.4,10.72-7.77s-7.61,1.19-7.61,1.19"/><path class="cls-10" d="M206,156.79s6.14-5.9,9-2c3.17,4.4-8.18,9.2-8.18,9.2"/><path class="cls-13" d="M155.07,57.32s-23.38,26.74,1.75,56.59c0,0-21.57-11.18-19.07-35.82C139.26,63.23,155.07,57.32,155.07,57.32Z"/></g></g></svg>