<svg xmlns="http://www.w3.org/2000/svg" xmlns:xlink="http://www.w3.org/1999/xlink" viewBox="0 0 276.35 196.35"><defs><style>.cls-1{isolation:isolate;}.cls-2{fill:#e8940f;}.cls-28,.cls-3{fill:#231f20;}.cls-4{fill:#8e3411;}.cls-18,.cls-19,.cls-23,.cls-5{mix-blend-mode:multiply;}.cls-6{fill:url(#radial-gradient);}.cls-25,.cls-7{mix-blend-mode:screen;}.cls-8{fill:url(#linear-gradient);}.cls-9{fill:url(#linear-gradient-2);}.cls-10{fill:url(#linear-gradient-3);}.cls-11,.cls-29{fill:#c97506;}.cls-11,.cls-28,.cls-29{mix-blend-mode:color-dodge;}.cls-12{fill:#da5232;}.cls-13,.cls-25{fill:#fff;}.cls-14,.cls-15,.cls-16,.cls-19,.cls-29{stroke:#1d1d1b;stroke-miterlimit:10;}.cls-14,.cls-15,.cls-16{stroke-width:0.5px;}.cls-14{fill:url(#linear-gradient-4);}.cls-15{fill:url(#linear-gradient-5);}.cls-16{fill:url(#linear-gradient-6);}.cls-17{fill:url(#linear-gradient-7);}.cls-18,.cls-19{fill:#abadaf;}.cls-18,.cls-19,.cls-27{opacity:0.4;}.cls-19,.cls-29{stroke-width:0.25px;}.cls-20{fill:#ee982a;}.cls-21{fill:url(#linear-gradient-8);}.cls-22{fill:url(#linear-gradient-9);}.cls-23{fill:#da713b;opacity:0.6;}.cls-24{fill:#fffac4;}.cls-24,.cls-25{opacity:0.5;}.cls-26{fill:url(#linear-gradient-10);}.cls-27{fill:#000068;}</style><radialGradient id="radial-gradient" cx="-1149.42" cy="1178.29" r="69.17" gradientTransform="matrix(1.02, -0.12, 0.13, 1.04, 1122.23, -1353.19)" gradientUnits="userSpaceOnUse"><stop offset="0" stop-color="#ffeb60"/><stop offset="0.13" stop-color="#fee459"/><stop offset="0.31" stop-color="#fad245"/><stop offset="0.53" stop-color="#f5b326"/><stop offset="0.73" stop-color="#ee9001"/><stop offset="0.74" stop-color="#dd5536"/></radialGradient><linearGradient id="linear-gradient" x1="-1169.95" y1="1215.56" x2="-1138.59" y2="1237.18" gradientTransform="matrix(0.99, -0.12, 0.12, 0.99, 1103.69, -1336.63)" gradientUnits="userSpaceOnUse"><stop offset="0.04" stop-color="#d2b597"/><stop offset="0.08" stop-color="#bda388"/><stop offset="0.19" stop-color="#84725f"/><stop offset="0.29" stop-color="#55493d"/><stop offset="0.39" stop-color="#302922"/><stop offset="0.49" stop-color="#161310"/><stop offset="0.57" stop-color="#060504"/><stop offset="0.63"/></linearGradient><linearGradient id="linear-gradient-2" x1="-1000.28" y1="59.7" x2="-933.26" y2="59.7" gradientTransform="matrix(-1, 0, 0, 1, -782.09, 0)" gradientUnits="userSpaceOnUse"><stop offset="0.57" stop-color="#da5934"/><stop offset="0.87" stop-color="#de6435"/><stop offset="0.99" stop-color="#bf6b4e"/></linearGradient><linearGradient id="linear-gradient-3" x1="-879.33" y1="155.66" x2="-842.61" y2="155.66" xlink:href="#linear-gradient-2"/><linearGradient id="linear-gradient-4" x1="-650.57" y1="89.15" x2="-581.61" y2="89.15" gradientTransform="translate(747.3)" xlink:href="#linear-gradient-2"/><linearGradient id="linear-gradient-5" x1="-817.09" y1="85.2" x2="-552.67" y2="85.2" gradientTransform="translate(747.3)" gradientUnits="userSpaceOnUse"><stop offset="0.02" stop-color="#f2a434"/><stop offset="0.22" stop-color="#ef9b30"/><stop offset="0.38" stop-color="#ec902c"/><stop offset="0.49" stop-color="#e1603d"/></linearGradient><linearGradient id="linear-gradient-6" x1="-609.68" y1="99.48" x2="-419.37" y2="99.48" gradientTransform="translate(747.3)" gradientUnits="userSpaceOnUse"><stop offset="0.53" stop-color="#b05439"/><stop offset="0.86" stop-color="#624229"/></linearGradient><linearGradient id="linear-gradient-7" x1="-680.7" y1="99.3" x2="-455.15" y2="99.3" gradientTransform="translate(747.3)" gradientUnits="userSpaceOnUse"><stop offset="0" stop-color="#db5a34"/><stop offset="0.57" stop-color="#dc5931"/><stop offset="0.88" stop-color="#bf6b50"/><stop offset="0.99" stop-color="#005b97"/></linearGradient><linearGradient id="linear-gradient-8" x1="-909.94" y1="167.79" x2="-876.13" y2="167.79" xlink:href="#linear-gradient-2"/><linearGradient id="linear-gradient-9" x1="-908.09" y1="114.92" x2="-874.28" y2="114.92" xlink:href="#linear-gradient-2"/><linearGradient id="linear-gradient-10" x1="-570.26" y1="103.17" x2="-357.7" y2="103.17" gradientTransform="translate(747.3)" gradientUnits="userSpaceOnUse"><stop offset="0.01" stop-color="#cce0f4"/><stop offset="0.05" stop-color="#cdd9eb"/><stop offset="0.1" stop-color="#cfc6d1"/><stop offset="0.18" stop-color="#d2a8a8"/><stop offset="0.27" stop-color="#d67e6f"/><stop offset="0.35" stop-color="#db4f2f"/><stop offset="0.57" stop-color="#1e9cd7"/><stop offset="0.99" stop-color="#a85338"/></linearGradient></defs><g class="cls-1"><g id="Layer_1" data-name="Layer 1"><path class="cls-2" d="M89.46,35.44S88.6,34.11,79,26s-2.19-14.18,3.66-12.24S89.07,13,93.69,8.7s14.53-13.25,22.69,0c4,5.92,8.88,5.61,15.56,2.95s14.68-.49,17.69,8.88c2.1,5.66,5.56,7.16,12.53,8.73s13.35,3.82,9.1,7.48C170.62,37.3,128.88,21,89.46,35.44Z"/><path class="cls-3" d="M89.9,35.33a17.25,17.25,0,0,0-2.75-2.72c-1.7-1.54-3.43-3-5.17-4.54-2.62-2.23-5.52-4.32-6.83-7.63a4.85,4.85,0,0,1,1.11-5.36c2.37-2.37,5.37-1.16,8.18-.63,4.11.8,6.44-2.55,9.06-5.13a29,29,0,0,1,9.21-6.66C108.41.37,113,4.15,116,8.82a9.87,9.87,0,0,0,9.54,4.81c5.19-.59,9.52-3.77,14.9-2.38a12,12,0,0,1,6.09,4.14c1.79,2.18,2.38,4.92,3.66,7.36,2.06,4,6.28,5.37,10.31,6.37,3.25.81,6.56,1.42,9.57,2.95,1.15.58,2.35,1.54,2.07,3-.12.59-.56,1.59-1.09,1.45-2-.46-3.91-1.1-5.86-1.62-20-5.45-41.09-7.46-61.42-3.59a94.87,94.87,0,0,0-14.51,4c-.56.19.25.35.51.26,22.83-8.24,47.94-7.09,71.32-1.26,2.66.65,5.29,1.4,7.92,2.15.58.16,2.13.87,2.7.33,4.14-3.89-2.82-6-5.8-6.84-5.05-1.47-11-1.79-14.3-6.5-1.43-2.05-1.92-4.6-3.17-6.76a12.9,12.9,0,0,0-4.89-4.78c-3.23-1.85-7.23-1.81-10.68-.77-2.62.79-5,1.95-7.79,2.14-3,.22-5.51-1.31-7.42-3.61-1.76-2.09-2.94-4.36-5.13-6.08a10,10,0,0,0-4.67-2c-7-1.12-13.25,5.64-17.6,10.13-1.31,1.36-2.56,2.51-4.66,2.42A27.54,27.54,0,0,1,82,13.32a8.92,8.92,0,0,0-4.29.35c-3.27,1.06-4.5,4.26-3.25,7.39,1,2.59,3.4,4.44,5.45,6.17S84,30.74,86,32.56a18.08,18.08,0,0,1,3.07,3C89.17,35.76,90.05,35.56,89.9,35.33Z"/><path class="cls-4" d="M89.33,22.78a14.31,14.31,0,0,1,1.2,1,31.47,31.47,0,0,1,2.31,2.5,29.1,29.1,0,0,1,2,2.77,14,14,0,0,1,.78,1.39,14.23,14.23,0,0,1-1.19-1,27.22,27.22,0,0,1-2.32-2.52,31.52,31.52,0,0,1-2-2.77A14.49,14.49,0,0,1,89.33,22.78Z"/><path class="cls-4" d="M94.61,20a10,10,0,0,1,.93,1.13,23.61,23.61,0,0,1,1.72,2.7,28.14,28.14,0,0,1,1.38,2.9,12.85,12.85,0,0,1,.47,1.4A13.28,13.28,0,0,1,98.17,27a30.78,30.78,0,0,1-1.72-2.7,25.67,25.67,0,0,1-1.36-2.89A10.49,10.49,0,0,1,94.61,20Z"/><path class="cls-4" d="M107.15,17.4s.29.5.65,1.31a27.1,27.1,0,0,1,1,3,25.24,25.24,0,0,1,.65,3.11,11.17,11.17,0,0,1,.15,1.45,9.44,9.44,0,0,1-.66-1.31,23.94,23.94,0,0,1-1-3,27,27,0,0,1-.67-3.09A13.25,13.25,0,0,1,107.15,17.4Z"/><path class="cls-4" d="M113.81,18.32a6.87,6.87,0,0,1,.37,1.1,16.64,16.64,0,0,1,.42,2.43,17.14,17.14,0,0,1,0,2.47,7,7,0,0,1-.17,1.13,7.47,7.47,0,0,1-.37-1.09,14.89,14.89,0,0,1-.41-2.44,14.67,14.67,0,0,1,0-2.47A7.59,7.59,0,0,1,113.81,18.32Z"/><g class="cls-5"><path class="cls-6" d="M162.15,29.14c-7-1.61-10.44-3.14-12.56-8.89-3-9.51-11-11.72-17.7-9s-11.57,3-15.57-3c-3.44-5.68-7.2-7.36-10.72-7.08a11.93,11.93,0,0,1,8.41,6c4.55,8,7.55,9.55,17.57,7.29,15.51-4.49,22,15.26,9.41,10.76s-24.93.13-25.75-4.1-2.72-9.47-2.38-4.05-1.2,10.53-3.58,3.76-5.22-9.48-3.66-1.82-1.24,10.23-5.34,6.05-8.69-9.89-6.23-5S98.39,30,95.9,27.4s-9.08-10.48-7.56-7,7.48,8.91,4.1,9.3a28.51,28.51,0,0,0-6.54,2.07,28.67,28.67,0,0,1,3.54,3.48c39.4-14.58,81.18,2,81.82,1.47C175.5,33,169.12,30.74,162.15,29.14Z"/></g><g class="cls-7"><path class="cls-8" d="M83.53,16.8c11.24.15,11.92-4.56,15.55-9.29s7.46-8.81,14.15-3.33c-7.45-7.32-15.55.11-19.6,4C89,12.5,88.41,15.19,82.56,13.24c-5.26-1.77-11.77,3-6.09,9.94C75.71,21.59,74.1,16.68,83.53,16.8Z"/></g><path class="cls-3" d="M152.09,36s2.1-4.21,10.33-13.39,17.16-18.42,26,.47c9,19.29,11,26.21,16.19,36.87,7.92,16.41,14.55,24.54,14.55,24.54l-12.38,20.53Z"/><path class="cls-9" d="M151.17,37.17s2.1-4.2,10.34-13.39,17.15-18.41,25.94.47c9,19.29,11,26.21,16.19,36.87,7.92,16.41,14.55,24.54,14.55,24.54l-12.38,20.53Z"/><path class="cls-4" d="M193.71,55.27a53.26,53.26,0,0,1,9.19,4.54c-.72-1.55-1.38-3-2-4.49-3.07-1.53-7.94-3.57-12.19-3.64-6.84-.1-20.44.23-20.44.23S187.42,52.94,193.71,55.27ZM208,69.87q-1.35-2.49-2.79-5.35c-3.77-2.12-9.46-5-13.6-5.32-6.71-.6-15.34-1.14-15.34-1.14s17.13,3.15,23.12,6.7C202.36,66.54,205.54,68.42,208,69.87Zm-32.92-49c2.84-1.3,5.83-2.49,8.09-3.33a11.1,11.1,0,0,0-4.27-3.32A35.21,35.21,0,0,0,169,23.08c-5.1,6.85-13.58,17.68-13.58,17.68S169.49,23.45,175.07,20.9Zm13.68,6.39-1.18-2.55c-.34-.74-.69-1.36-1-2-3.17.05-8.35.63-11.48,3.67-4.74,4.59-19.63,14.37-19.63,14.37s19-10.87,26-12.55A33.54,33.54,0,0,1,188.75,27.29Zm22,47.44c-2.9-1.91-7.58-4.78-11.19-6-5.63-1.9-14-2.65-14-2.65s10.12,2.22,15,5c3.14,1.8,8.83,5.19,12.46,7.35C212.28,77.3,211.53,76.07,210.74,74.73ZM194.37,39.91c-.7-1.64-1.47-3.39-2.3-5.28-3.35-1-8.27-1.84-11.57-.11-5.46,2.84-22.67,7.78-22.67,7.78s19.61-5.4,25.06-4.32C186.76,38.74,191.79,39.52,194.37,39.91Zm-6.17,7.47c4.42,1.56,8.56,3.33,11.19,4.49l-1.74-4.15c-3.6-1.34-10.42-3.5-16.87-3.47A161.78,161.78,0,0,0,162,45.67S180.84,44.8,188.2,47.38Z"/><path class="cls-3" d="M78.4,131S51.45,168,63.5,179.48,90,177.81,94.43,169.09c6.27-12.39-.4-21.78-.4-21.78Z"/><path class="cls-10" d="M78.52,129.16s-26.95,37.09-14.9,48.53S90.15,176,94.55,167.3c6.27-12.39-.4-21.78-.4-21.78Z"/><path class="cls-11" d="M69.16,155.09c2.63-8.84,8.93-23.87,9.66-25.61v0c-.91,1.62-9.94,17.93-14.43,32.42A71.63,71.63,0,0,0,61.53,175a9.32,9.32,0,0,0,1.8,2.4A18.57,18.57,0,0,0,66,179.45C65.47,175.43,65.44,167.61,69.16,155.09ZM93,169.21a11.24,11.24,0,0,1-4.65-6c-1.56-4.37-4.47-25.58-4.47-25.58s-.25,24.54.93,27.76c.94,2.57,2.37,7.94,2.91,10A32.26,32.26,0,0,0,93,169.21ZM80.54,132.43s-6.9,20.86-8.2,31.74c-1,8-2.24,14.2-2.85,17a14.05,14.05,0,0,0,6.57.49A54.25,54.25,0,0,1,74.92,164C76,153.93,80.54,132.43,80.54,132.43Zm1.67,2.12S78.93,152,77.88,164.16c-.76,8.82.3,14.37,1,16.77a23.46,23.46,0,0,0,6.55-3.55,26.86,26.86,0,0,1-3.76-8.62C79.62,158.44,82.21,134.55,82.21,134.55ZM94.94,165.5a23.53,23.53,0,0,0,1.9-7.11,20,20,0,0,1-3.62-4.17C90.06,149.38,87.11,141,87.11,141a109.28,109.28,0,0,0,2.25,14.52C90.52,160,93.65,164,94.94,165.5Z"/><path class="cls-12" d="M160.73,148S179,161.52,187.2,166.45s25.76,12.36,28.32-.35-4.68-26.66-1-33.1,1.78-10.86,1.78-10.86Z"/><path class="cls-4" d="M185,148.9a67.71,67.71,0,0,1-3.14,14.1c1.87,1.26,3.59,2.37,5,3.25-.21-.67-.42-1.41-.62-2.23C184.67,157.68,185,148.9,185,148.9Zm-9.37,9.82,1.55,1.08a85.76,85.76,0,0,1,1.05-9.89C177.28,152.88,176.38,156,175.59,158.72Zm39.93,7.38a34.17,34.17,0,0,0,.41-9.52,8.43,8.43,0,0,1-6.1-3c-3.62-3.85-9.46-11-9.46-11S208.09,153,209.66,156c1.2,2.28,3.63,9.81,4.71,13.25A10.23,10.23,0,0,0,215.52,166.1Zm-24.53-19s2.22,13.52.59,21.76a54,54,0,0,0,7,2.88c-1.37-4-4-11.56-4.88-14.58C192.37,152.68,191,147.07,191,147.07Zm5-2.26s4.58,12.27,6.31,18a43.25,43.25,0,0,1,1.23,10.07c3.32.5,6.38.24,8.63-1.3-1.56-2.48-6.61-10.55-9.43-15.3C199.6,151,196,144.81,196,144.81Z"/><path class="cls-3" d="M215.52,166.1c2.56-12.71-4.68-26.66-1-33.1s1.78-10.86,1.78-10.86c-7.27,4.65-12.31,11.55-10.37,16,3.45,7.95,9.2,15.09,9,21.46-.46,15.49-22.46,10.12-28.88,5.42-7.18-5.23-20.35-20.7-20.35-20.7s-11.42,9.7-5,11.73c10.41,3.27,20.34,7.3,26.34,10.89C195.31,171.89,213,178.81,215.52,166.1Z"/><path class="cls-3" d="M202.15,133.35s2.23,10.64,7.92,16c0,0-7.56-4.31-10.22-15.88Z"/><path class="cls-3" d="M195.83,137.13s9.51,18.91,14.24,25.29c0,0-12.66-13.61-15.32-25.18Z"/><path class="cls-3" d="M192.18,135.52s5.17,20.52,8.4,27.77c0,0-9.4-16-9.49-27.9Z"/><path class="cls-3" d="M189.12,135s-.73,21.16.35,29c0,0-4.57-18-1.36-29.44Z"/><path class="cls-3" d="M185.75,130.68s-4.33,20.71-4.61,28.65c0,0-1.43-18.53,3.69-29.24Z"/><path class="cls-3" d="M179.43,125.46s-4.33,20.72-4.61,28.65c0,0-1.43-18.53,3.69-29.24Z"/><path class="cls-13" d="M239.17,108.67c3.3-10.76.83-22.58-.84-28.75-10.63,12.62-13.07,10-19.52,2.87a102,102,0,0,1,.09,12.67c-.46,11.84,2.57,17.53,2.65,26.76a49.44,49.44,0,0,0,6.85-8.28c.35,8.41,4.86,15.28,10.64,20.68C237.52,129,236,118.91,239.17,108.67Z"/><path class="cls-13" d="M196.57,75.92a60.26,60.26,0,0,0,3.9-13.84q-3.43-3.84-6.9-7.64c-8.19-9-17.08-17-27.88-22.39-1,6.39-3.12,16.3-6.84,23.28C153,66.42,151.41,71.7,155,89.13s-2.82,38-3.34,41.45c-.41,2.81,0,15.92,3.34,24.73,20.77-3.55,37.29-10.62,49.31-18.78-2.22-7.65.23-16.52-3.89-25.23C195.55,101,192.21,86.48,196.57,75.92Z"/><path class="cls-13" d="M134.22,98.63c-1.29-9.5-2.83-17.15-2.83-31.41s-14.36-27.46-22.32-37a33,33,0,0,0-12.34-9.1A116.36,116.36,0,0,0,72,27.53c3.65.34,9.3,1.78,15.23,7.73C98,46.09,101.12,56.13,100.09,67s3.08,17.42,4.1,23.5-5.39,14.78-18.73,24.81-14.88,13.21-15.14,16.63c-.16,2.28-7.41,6.37-12.15,10.75a266.36,266.36,0,0,0,48.59,13.28c3.56.61,7,1.09,10.43,1.43,4.77-8.73,6-22.67,6.5-32C124.2,114.74,135.5,108.13,134.22,98.63Z"/><path class="cls-14" d="M151.66,130.58c.52-3.44,6.93-24,3.34-41.45s-2.05-22.71,3.85-33.8c3.72-7,5.8-16.89,6.84-23.28-.32-.16-.64-.33-1-.48-10.8-5.22-22.84-8.24-34.62-10a117.22,117.22,0,0,0-33.38-.39,33,33,0,0,1,12.34,9.1c8,9.51,22.32,22.7,22.32,37s1.54,21.91,2.83,31.41-10,16.11-10.53,26.67c-.45,9.38-1.73,23.32-6.5,32.05a138.78,138.78,0,0,0,37.9-1.07C151.69,147.47,151.25,133.39,151.66,130.58Z"/><path class="cls-15" d="M70.32,131.89c.26-3.42,1.79-6.59,15.14-16.63s19.76-18.74,18.73-24.81-5.13-12.68-4.1-23.5S98,46.09,87.26,35.26c-5.93-5.95-11.31-7.67-15-8-41.3,15.31-63.57,50-63.57,50s-3.84-6.6-6.92-3.17,2.05,7.65,2.81,10.56C0,89.92,6.17,93.88,8.73,97.84c6.39,22,25.09,35.94,49.3,45.3C62.77,138.77,70.16,134.17,70.32,131.89Z"/><path class="cls-16" d="M267.91,122.13c-4.37-16.9-7.18-17.16,2-39.87,6.55-16.08-3.94-27-8.67-31-1.85,1.52-5.71,6.12-15.7,19.42-2.79,3.74-5.18,6.8-7.26,9.27,1.67,6.17,4.14,18,.84,28.75-3.15,10.24-1.65,20.36-.13,26,7.07,6.6,16.07,11,21.72,13.11C267.29,143.69,271.36,135.45,267.91,122.13Z"/><path class="cls-3" d="M274.33,86c6.41-21.39-10-35.11-11.3-35.38-.41-.09-.84-.08-1.74.65,4.73,4.05,15.22,15,8.67,31-9.23,22.71-6.42,23-2,39.87,3.45,13.32-.62,21.56-7.15,25.6a21.93,21.93,0,0,0,5.36,1.59c1.79-.52,12.06-7.92,8.21-25.61C267.14,100.48,270,98.11,274.33,86Z"/><path class="cls-17" d="M218.9,95.46a109.61,109.61,0,0,0-.14-13l-.89-1c-5.87-6.41-11.61-12.93-17.4-19.4a60.26,60.26,0,0,1-3.9,13.84c-4.36,10.56-1,25.08,3.85,35.38,4.12,8.71,1.67,17.58,3.89,25.23a113.47,113.47,0,0,0,17.24-14.31C221.47,113,218.44,107.3,218.9,95.46Z"/><path class="cls-18" d="M240.35,103.27c-9,14.51-4-8.13-11.1,3.46a41,41,0,0,1-8.21,9.06,47.36,47.36,0,0,1,.51,6.43,49.44,49.44,0,0,0,6.85-8.28c.35,8.41,4.86,15.28,10.64,20.68-1.52-5.59-3-15.71.13-25.95A35.21,35.21,0,0,0,240.35,103.27Z"/><path class="cls-18" d="M151.92,141a61.43,61.43,0,0,0,3.17,15.3,124.87,124.87,0,0,0,49.22-19.75,37.62,37.62,0,0,1-1.12-9A129.36,129.36,0,0,1,151.92,141Z"/><path class="cls-18" d="M96.5,108.49c11-13,7.86-18.66,7.18-22.18a7.85,7.85,0,0,1,.25,2.85c.11.43.19.86.26,1.29,1,6.07-5.39,14.78-18.73,24.81s-14.88,13.21-15.14,16.63c-.16,2.28-7.55,6.88-12.29,11.25,14.72,5.69,31.46,9.69,48.73,12.78,3.56.61,7,1.09,10.43,1.43,2.68-4.88,4.24-11.4,5.19-17.84C94,134.46,87.48,119.21,96.5,108.49Z"/><path class="cls-19" d="M27.38,126.09c-1.2-1,12.32,14.44,47.91,12.68s33.18,12.66,64.32,10.55,81.77-25.34,88.61-33.44c-9.58,11.26-46.87,45.06-100.93,41.54C73.91,153.9,39.7,136.31,27.38,126.09Z"/><path class="cls-3" d="M94.45,143.33s-4.82,47.82,12.13,51.81,23.14-15.52,22.53-25.73c-.87-14.53-11.87-19.51-11.87-19.51Z"/><path class="cls-20" d="M93.62,141.65s-4.83,47.81,12.12,51.81,23.14-15.53,22.53-25.74c-.87-14.53-11.87-19.51-11.87-19.51Z"/><path class="cls-21" d="M98.83,170.07c-2.28-9.4-4.52-26.33-4.77-28.29l0,0c0,2,.46,21.49,4,37a73.84,73.84,0,0,0,4.34,13.36,9.33,9.33,0,0,0,2.9,1.23,19.2,19.2,0,0,0,3.47.47C106.23,190.44,102.07,183.38,98.83,170.07Zm29,.21a11.78,11.78,0,0,1-7.36-2.92c-3.72-3.14-17.55-20.81-17.55-20.81s12.73,22.35,15.5,24.65c2.21,1.83,6.33,5.93,7.93,7.53A34.63,34.63,0,0,0,127.85,170.28ZM97.17,143.55s4.77,22.52,9.34,33.06c3.35,7.74,5.47,14,6.37,16.87a14.5,14.5,0,0,0,6.21-3,56.86,56.86,0,0,1-10.35-15.38C104.4,165.42,97.17,143.55,97.17,143.55Zm2.63,1s6.24,17.52,11.72,29.1c4,8.38,7.86,12.86,9.71,14.69a24.88,24.88,0,0,0,4.06-6.68,28.22,28.22,0,0,1-8-5.82C110.07,167.58,99.8,144.58,99.8,144.58Zm27.87,21.3a24.75,24.75,0,0,0-2-7.44,20.73,20.73,0,0,1-5.48-1.86c-5.41-2.72-12.5-8.7-12.5-8.7a115.19,115.19,0,0,0,9.71,12C120.75,163.21,125.69,165.19,127.67,165.88Z"/><path class="cls-3" d="M92.61,90.46s-4.83,47.82,12.13,51.81,23.14-15.52,22.52-25.73C126.39,102,115.4,97,115.4,97Z"/><path class="cls-20" d="M91.77,88.78S87,136.59,103.9,140.59s23.14-15.53,22.53-25.74c-.88-14.53-11.87-19.51-11.87-19.51Z"/><path class="cls-22" d="M97,117.21c-2.29-9.41-4.52-26.34-4.78-28.3h0c0,1.94.46,21.48,4,37a74.68,74.68,0,0,0,4.35,13.37,9.39,9.39,0,0,0,2.89,1.22A19.35,19.35,0,0,0,107,141C104.39,137.57,100.23,130.51,97,117.21Zm29,.21a11.82,11.82,0,0,1-7.35-2.93c-3.73-3.14-17.56-20.8-17.56-20.8s12.73,22.34,15.5,24.64c2.21,1.83,6.34,5.93,7.93,7.53A34.64,34.64,0,0,0,126,117.42ZM95.32,90.68s4.77,22.53,9.34,33.07c3.35,7.73,5.47,14,6.37,16.86a14.5,14.5,0,0,0,6.21-3,57.16,57.16,0,0,1-10.35-15.37C102.55,112.55,95.32,90.68,95.32,90.68Zm2.64,1s6.24,17.51,11.71,29.09c4,8.39,7.86,12.86,9.71,14.69a24.57,24.57,0,0,0,4.06-6.67,28.47,28.47,0,0,1-8-5.82C108.23,114.72,98,91.72,98,91.72ZM125.83,113a25,25,0,0,0-2-7.44,20.37,20.37,0,0,1-5.48-1.86C112.9,101,105.82,95,105.82,95a116,116,0,0,0,9.7,11.95C118.91,110.34,123.85,112.32,125.83,113Z"/><path class="cls-23" d="M143.7,141.23a121.45,121.45,0,0,1-21.32-1.72c-.95,6.44-2.51,13-5.19,17.84a138.78,138.78,0,0,0,37.9-1.07,61.43,61.43,0,0,1-3.17-15.3C149.25,141.14,146.5,141.23,143.7,141.23Z"/><path class="cls-23" d="M203.19,127.49a37.62,37.62,0,0,0,1.12,9,113.47,113.47,0,0,0,17.24-14.31,47.36,47.36,0,0,0-.51-6.43A92,92,0,0,1,203.19,127.49Z"/><path class="cls-24" d="M18.57,69s21.81-29,54.92-42.24C68.35,27.52,33.46,52.07,18.57,69Z"/><path class="cls-25" d="M85.55,28.58S156,11.33,212.48,81C204.62,68.71,150.89,4.29,85.55,28.58Z"/><path class="cls-24" d="M259.7,56.39s-8.73,8.18-8.21,10,7.95-4.75,10-7.13S261,55.06,259.7,56.39Z"/><path class="cls-24" d="M264.06,68.62a50.68,50.68,0,0,0-4.87,4.76c-2.06,2.37,3.07,1.58,5.64-1.85S265.86,67,264.06,68.62Z"/><path class="cls-24" d="M264.56,76.7l-4.43,1.43c-2.21.73-1.37,2.44,2.86,1.3S265.82,76.45,264.56,76.7Z"/><path class="cls-24" d="M264.6,132.23l-3.24-3.42c-1.63-1.71-2.73-.15.16,3.22S265.39,133.27,264.6,132.23Z"/><path class="cls-24" d="M258.91,141.78l-4-2.41c-2-1.2-2.66.59,1,3.06S259.94,142.57,258.91,141.78Z"/><path class="cls-24" d="M259.44,119.4c1.05.31,6.68,5,5.39,7.39S255.85,118.35,259.44,119.4Z"/><path class="cls-26" d="M246.35,129.26c-4.44-8.1,9.93-9.5,2.75-18.65S260,95.46,253.54,94.05s-9.24-7-5.81-15.13c2.07-4.93,2.13-10.23,2.16-14-1.29,1.7-2.71,3.58-4.3,5.7-2.79,3.74-5.18,6.8-7.26,9.27,1.67,6.17,4.14,18,.84,28.75-3.15,10.24-1.65,20.36-.13,26a60.16,60.16,0,0,0,9,6.77C247.29,137,249,134.08,246.35,129.26Z"/><path class="cls-27" d="M31.08,74.08a13,13,0,1,0,13-12.87A12.93,12.93,0,0,0,31.08,74.08Z"/><path class="cls-13" d="M30.71,71.69A11.55,11.55,0,1,0,42.26,60.28,11.47,11.47,0,0,0,30.71,71.69Z"/><path d="M33.09,71.69a9.17,9.17,0,1,0,9.17-9.06A9.1,9.1,0,0,0,33.09,71.69Z"/><path class="cls-13" d="M49.84,70.93a9,9,0,0,0-2.37-6.1,8.89,8.89,0,0,1,3.09,6.74,8.64,8.64,0,0,1-8.46,8.81A8.28,8.28,0,0,1,36,77.67a8.2,8.2,0,0,0,5.37,2A8.63,8.63,0,0,0,49.84,70.93Z"/><path class="cls-13" d="M36,68.89a3.77,3.77,0,1,0,3.78-3.73A3.76,3.76,0,0,0,36,68.89Z"/><path class="cls-13" d="M35.89,74.34a1.25,1.25,0,1,0,1.24-1.23A1.24,1.24,0,0,0,35.89,74.34Z"/><path class="cls-28" d="M57.46,54.42s17.16,12,14,33.8c-1.89,12.61-13.65,19.84-16.4,20.19,6.4,1.8,19.41-2,21.2-21.47S62.59,55.82,57.46,54.42Z"/><path class="cls-29" d="M54.71,53.25s17.17,12,14,33.81c-1.9,12.6-13.66,19.82-16.41,20.18,6.4,1.8,19.41-2,21.21-21.47S59.85,54.65,54.71,53.25Z"/><path class="cls-28" d="M20.48,73.73s18.17,33,35.94,28.24C61.35,100.68,69.8,84.83,62,69.56c.43,6-1.84,25.86-10.35,24.85S27.55,85.93,20.48,73.73Z"/></g></g></svg>