<svg id="Layer_1" data-name="Layer 1" xmlns="http://www.w3.org/2000/svg" viewBox="0 0 268.59 183.76"><defs><style>.cls-1{fill:#2e6300;}.cls-2{fill:#42a90e;}.cls-3{fill:#5bb900;}.cls-4,.cls-9{fill:#50ca0a;}.cls-5{fill:#71dd2a;}.cls-6{fill:#307206;}.cls-7{fill:#e5f550;}.cls-8{fill:#509b00;}.cls-25,.cls-9{stroke:#33560a;}.cls-21,.cls-23,.cls-25,.cls-9{stroke-miterlimit:10;}.cls-21,.cls-25,.cls-9{stroke-width:0.5px;}.cls-10{fill:#d1ca3b;}.cls-11{fill:#510000;}.cls-12{fill:#7c0000;}.cls-13{fill:#c85a5f;}.cls-14{fill:#eb7d86;}.cls-15{fill:#99252e;}.cls-16{fill:#752a2a;}.cls-17{fill:#b28f00;}.cls-18{fill:#fccdd1;}.cls-19{fill:#4aaa0c;}.cls-20{fill:#66d61e;}.cls-21{fill:#fcfae6;stroke:#424015;}.cls-22{fill:#efebbd;}.cls-23{stroke:#ea6907;stroke-width:2px;}.cls-24{fill:#fff;}.cls-25{fill:none;}</style></defs><path class="cls-1" d="M82.89,130.69c-11.81,0-26.94-6.41-36.33-15.77-8.9-8.87-8.37-13.3-7.26-15.15,1.77-2.94,6.77-3,10.58-1.35l-.16.41c-3.65-1.58-8.42-1.57-10.07,1.18-1,1.73-1.5,5.93,7.19,14.59C57.33,125.05,75,131.79,87.09,130c4.81-.74,8.28-2.81,10-6l.36.22c-1.84,3.31-5.42,5.45-10.35,6.21A27.81,27.81,0,0,1,82.89,130.69Z"/><path class="cls-2" d="M97.32,124.06c-6.7,12.07-35.24,6-50.62-9.3S42.1,95.3,49.8,98.63"/><path class="cls-3" d="M7.45,134.73s4.1.11,2.35,5.78c6.66-4.14,25.62-2.32,31.87-9.6C29.07,126.69,18.89,135.05,7.45,134.73Z"/><path class="cls-1" d="M9.44,141l.17-.54c.59-1.92.56-3.37-.07-4.33A2.82,2.82,0,0,0,7.44,135v-.44c4.61.13,9.12-1.19,13.48-2.46s8.71-2.55,13.36-2.55a23,23,0,0,1,7.44,1.2l.31.1-.22.26c-3.71,4.32-11.91,5.49-19.15,6.52-5.16.73-10,1.43-12.76,3.12Zm-.55-6.05a3,3,0,0,1,1,.93,5.17,5.17,0,0,1,.28,4.2c2.85-1.56,7.53-2.22,12.46-2.93,7-1,15-2.13,18.69-6.13a22.91,22.91,0,0,0-7-1.07c-4.59,0-9,1.28-13.25,2.53C17.1,133.62,13,134.81,8.89,134.94Z"/><path class="cls-2" d="M44.16,106.24c7.78,10.14,7.67,10.69,17.38,17.4a35.89,35.89,0,0,0,12.75,5.53c3.16.59,10.09,3.36,7.68,8.88-2.94,6.74-12.3.69-16.32-1.92a16.33,16.33,0,0,0-9.42-2.64c-2.29.14-5.44.91-10,2.75s-14.59,5.85-21.06,10.68S8.6,154,5.83,147.86c-1.76-3.93.89-8.44,8.62-10.47,6.87-1.81,17.42-2.69,24.67-6.07-7.66-1.37-14.87,1.28-19.81,2.89s-11.46,2.62-15.23,1.31c-5.82-2-4.06-12.75,8.18-12.75,12,0,29.25,2,31.59-.74-26.18-22.59-6.47-32,5.95-23.4"/><path class="cls-4" d="M58.11,125.82a75.82,75.82,0,0,1-8.44-6.53c-6-5.79-7.63-10.59-9-17.14-1.27-6-3.33-6.47-4.87-6C29,98.47,27.3,107.75,43.85,122c-2.34,2.75-19.63.74-31.59.74-7,0-10.54,3.47-11.25,6.83-.28,1.34,1.55,3.52,5.67,3.89,3.77.34,9.73-1.05,12.09-1.82,4.94-1.6,12.69-1.72,20.35-.35-7.25,3.38-17.8,4.26-24.67,6.07C8.53,138.94,5.73,142,5.32,145c-.26,2,1.45,4,5.25,4,4.09,0,10.64-3.66,14-6.16,6.48-4.82,17.1-8.49,21.66-10.33a25.61,25.61,0,0,1,10.42-1.82C59.43,130.69,60.8,127.68,58.11,125.82Z"/><path class="cls-5" d="M15.87,138.75c-2.42.37-6,1.25-8.24,3.28-2.41,2.26.41,2.9,2.23,1.64a59.93,59.93,0,0,1,6.8-4.36C17.18,139,17.32,138.52,15.87,138.75Z"/><path class="cls-5" d="M12.05,124.29c-1.85-.12-4.67-.05-6.59,1.11-2.11,1.29-.11,2.22,1.43,1.58a43.68,43.68,0,0,1,5.67-2.15C13,124.71,13.16,124.35,12.05,124.29Z"/><path class="cls-1" d="M12.57,151.81a9.88,9.88,0,0,1-2.74-.35A6.17,6.17,0,0,1,5.64,148a5.77,5.77,0,0,1,0-4.81c1.19-2.67,4.31-4.79,8.79-6,2.34-.61,5.1-1.12,8-1.65,5.3-1,11.28-2.07,15.95-4.1-6.83-1-13.24,1.1-18,2.65l-1,.35c-4.56,1.48-11.32,2.71-15.36,1.3A5.08,5.08,0,0,1,.74,130c.55-3.68,4.33-7.39,11.52-7.39,3.62,0,7.75.18,11.75.36,8.65.39,17.58.78,19.53-.87C28,108.54,30.24,101.31,31.94,98.82c3.19-4.65,11.58-4.82,18-.38l-.22.37c-6.11-4.25-14.41-4.13-17.41.26-3.42,5,.95,13.52,11.7,22.79l.17.15-.14.17c-1.7,2-10.6,1.6-20,1.18-4-.18-8.12-.37-11.73-.37-6.95,0-10.59,3.53-11.12,7a4.61,4.61,0,0,0,3,5.29c4,1.37,10.61.15,15.12-1.31l1-.34C25.22,132,32,129.82,39.15,131.1l.68.12-.63.3c-4.8,2.24-11.13,3.4-16.71,4.43-2.91.53-5.66,1-8,1.65-4.36,1.14-7.39,3.18-8.52,5.73a5.28,5.28,0,0,0,0,4.43A5.76,5.76,0,0,0,9.93,151c4,1.12,10.22-.65,15.13-4.3C31.47,142,41.27,138,46,136.11l.19-.08a34.15,34.15,0,0,1,10-2.76,16.57,16.57,0,0,1,9.55,2.67c3,1.95,9.22,6,13.23,4.72A5.09,5.09,0,0,0,81.83,134c-1.35-2.78-5.55-4.23-7.57-4.61a36.49,36.49,0,0,1-12.84-5.57c-8.49-5.87-9.08-6.61-14.71-13.7-.83-1.05-2.55-3.88-2.55-3.88l2.87,3.6c5.71,7.19,6.17,7.78,14.62,13.61A35.76,35.76,0,0,0,74.33,129c2.25.42,6.44,1.91,7.87,4.84a5.54,5.54,0,0,1-3.09,7.28c-4.18,1.34-10.52-2.78-13.56-4.77a16.28,16.28,0,0,0-9.31-2.6,33.47,33.47,0,0,0-9.93,2.73l-.19.08c-4.69,1.89-14.46,5.83-20.83,10.58C21.31,150.07,16.45,151.81,12.57,151.81Z"/><path class="cls-6" d="M37,96.06s2.27.16,3.35,4.69,2.16,11.52,8.95,18.14,8.58,5.84,10.3,8.3,12.53.7,15.22,1.86,6.56,1.78,8,1.2-5.81-18.52-6-18.6-32.61-15.4-32.61-15.4A14.52,14.52,0,0,0,37,96.06Z"/><path class="cls-7" d="M31.3,101.37s3.09-.06,4.9,1.61,3.61,6.65-1.11,9.53C35.09,112.51,30.08,106.94,31.3,101.37Z"/><ellipse class="cls-7" cx="46.01" cy="118.65" rx="1.77" ry="1.78"/><path class="cls-8" d="M29.07,156.56s10.11-.61,8,9.54c4.53-4.61,15.9-11.32,21.52-20.3-7.31,1.6-12.7,3-18.17,6.11A52.09,52.09,0,0,1,29.07,156.56Z"/><path class="cls-3" d="M34.86,158.13c1.8,1.3,3.1,3.66,2.2,8,3.72-3.79,12.06-9,18-15.71C47.9,150.4,41.69,155.51,34.86,158.13Z"/><path class="cls-1" d="M36.72,166.75l.14-.7c.59-2.79.28-5-.9-6.57-1.89-2.51-5.5-2.7-6.56-2.7h-.32l-.06-.43a52.53,52.53,0,0,0,11.29-4.63c5.62-3.22,11.34-4.63,18.23-6.14l.49-.1-.28.44c-3.81,6.1-10.25,11.15-15.43,15.2a68.29,68.29,0,0,0-6.11,5.13Zm-6.28-10.36c1.61.15,4.26.73,5.83,2.82,1.17,1.55,1.55,3.66,1.12,6.27,1.45-1.39,3.43-2.94,5.69-4.71,5-3.93,11.24-8.81,15.05-14.65-6.85,1.51-12.18,2.86-17.62,6A53,53,0,0,1,30.44,156.39Z"/><path class="cls-2" d="M62.61,107.89c-1.5,5-3.27,26.34-3.41,29.25a43.28,43.28,0,0,1-19,6.62c-7.93.87-8.34-.22-14.42,1.16s-7,6.48-5.19,9.61,6.63,4.58,13.46,2,10-7,22.47-8.88a80.82,80.82,0,0,1-15.91,14c-12.85,8.95-5,19.07,4.18,14.37,4.92-2.53,9.63-10.51,11.6-15.09,2.22-5.19,8.13-14.7,13.59-15s10.52,6.11,17.77,5.24,8.47-6.49,5.73-9.21-11.61-1.12-15.16-3.6S72,130.45,72,114.87"/><path class="cls-4" d="M78.64,142.75c3,5.55,10,7.14,15.55,4.79a4.64,4.64,0,0,0-.7-5.64c-2.17-2.17-8.24-1.6-12.42-2.52A2.3,2.3,0,0,0,78.64,142.75Z"/><path class="cls-4" d="M49.13,168.08c3.6-4.11,7.22-14.64,13.78-21.18,1.64-1.75,3.18-3.79,5.72-4.88a6.31,6.31,0,0,0,3.53-6.79,62,62,0,0,0-3.29-13.78c-1-2.92-4.44-7.58-7.41-7.28-1.14,8.24-2.16,20.79-2.26,23a43.28,43.28,0,0,1-19,6.62c-7.93.87-8.34-.22-14.42,1.16s-7,6.48-5.19,9.61,6.38,1.7,13.21-.92,13.09-7.85,25.59-9.74c-.17.2-3.2,4.13-3.37,4.32a81.66,81.66,0,0,1-15.41,13.39c-5,3.5-6.88,7.18-6.73,10.08C35.53,177.14,45.53,172.18,49.13,168.08Z"/><path class="cls-5" d="M43,160.89c-2.28,1.35-5.82,3.82-7.32,6.91-1.59,3.26,1.47,2.73,2.84.7a66,66,0,0,1,5.29-7.31C44.21,160.73,44.22,160.17,43,160.89Z"/><path class="cls-5" d="M32,145.73c-2.63-.15-6.51,0-9.17,1.59-3,1.82-.15,3.14,2,2.23a65.47,65.47,0,0,1,7.38-2.85C33,146.47,33.63,145.82,32,145.73Z"/><path class="cls-1" d="M40.24,177.57a6.48,6.48,0,0,1-5.89-3.21c-1.51-2.85-.8-7.89,6.15-12.74A81.54,81.54,0,0,0,56,148.14a41,41,0,0,0-15.8,5.75,42.82,42.82,0,0,1-6.06,3c-7.51,2.88-12,.83-13.7-2.06a6.38,6.38,0,0,1-.44-5.55c.87-2.18,2.91-3.73,5.76-4.38a27.11,27.11,0,0,1,7.21-.78,58,58,0,0,0,7.23-.39A42.82,42.82,0,0,0,59,137.23c.17-3.28,1.93-24.3,3.42-29.19l.39.14c-1.49,4.91-3.27,26.33-3.41,29.19v.12l-.1.06a43.31,43.31,0,0,1-19.07,6.65,60.75,60.75,0,0,1-7.27.39,26.53,26.53,0,0,0-7.13.77c-2.71.61-4.65,2.08-5.46,4.12a5.94,5.94,0,0,0,.4,5.15c2,3.44,7.22,4.18,13.22,1.88a42.51,42.51,0,0,0,6-3,41.61,41.61,0,0,1,16.52-5.89l.57-.09-.4.45a81.23,81.23,0,0,1-16,14c-6.72,4.68-7.45,9.47-6,12.15s5.38,4.2,10,1.83,9.49-10.3,11.5-15c2.44-5.69,8.34-14.83,13.77-15.12,2.52-.13,4.93,1.11,7.49,2.43,3.12,1.62,6.35,3.28,10.26,2.81,3.51-.42,6-2,6.69-4.41a4.38,4.38,0,0,0-1.07-4.42c-1.36-1.36-4.46-1.61-7.46-1.86s-5.91-.49-7.67-1.72c-3.17-2.2-6.39-6.72-6.38-23.61h.41c0,16.78,3.3,21.24,6.19,23.25,1.67,1.16,4.63,1.41,7.49,1.64,3.21.27,6.24.52,7.7,2a4.83,4.83,0,0,1,1.18,4.88c-.79,2.55-3.35,4.26-7,4.7-4,.49-7.47-1.28-10.49-2.85-2.51-1.29-4.88-2.52-7.29-2.38-5.44.29-11.39,10.13-13.42,14.86-1.75,4.08-6.44,12.5-11.69,15.19A10.19,10.19,0,0,1,40.24,177.57Z"/><path class="cls-1" d="M56.68,147.77l-.29-.31a34.25,34.25,0,0,0,4.43-6.3,14,14,0,0,1-2.06,4C58,146.17,57.25,147.14,56.68,147.77Z"/><path class="cls-2" d="M95.11,18.45c4.56-17.07,24-31.93,51,13.11,0,0,9.71-.17,13.27,5.12,3-.87,8.74,2.48,11.2,8.73s3.15,13.16,7,17c19.22,19.08,34.18,30.46,31,55.93-4.22,29.45-64.26,34.06-104.16,22.13s-65.31-40.17-72-64.9C25.4,75.21,18,59.24,31,54c-1.06-4.32-.07-10,2.52-11.2C27.75,25,35.34,5.08,51.23,5.08c10.62,0,14.44,10.55,17.17,14.05,2.12.65,2.54-2.58,14.4-2.81A31.37,31.37,0,0,1,95.11,18.45Z"/><path class="cls-9" d="M94.52,18.2c6.29-16.79,23-32.82,51.63,13.36,0,0,7.85-.83,13.27,5.12,3-.87,9.65,2.73,12.43,9.49,2.56,6.22,3.15,13.16,7,17C198.06,82.22,212,90.45,204.6,114S166,135.37,115,115.72c-39-15-66.72-18-73.42-42.79C23.45,81.11,17.64,58.71,31,54c-.76-1.47-.49-9.9,2.11-11.06C25.17,5.85,49.23,1,59.09,7.49c5.29,3.46,6.58,8.14,9.31,11.64.51.07,2.23-3.07,14.4-2.81C89.36,16.46,93,17.38,94.52,18.2Z"/><path class="cls-10" d="M211.48,120.36c-9.85,27.57-69.36,31.33-107,20.08-39.9-11.93-65.32-40.17-72-64.9A7.69,7.69,0,0,1,25.59,70c-1.25-4.92,3.2-11.17,6.89-3.53,4.78,1.75,12.84,9.25,16.88,9.46s14.2-5.6,21-6.22S97.11,74.13,107,72.36s36.67-22.71,48.91-23.3c-1.53-5.47,5.23-10.76,10.94-4.08,6.35,7.44,9,27.83-3.28,42.44-6.1,7.24-14.21,8.34-16.26,16.82C140.61,131.81,202.05,143.34,211.48,120.36Z"/><path class="cls-7" d="M167.63,46.07a2.6,2.6,0,0,0-4,.8c-2.05,2.18-.41,7.86-1.23,7.86-12.73-4.47-29,11.36-38.9,22-6.48,7-9.67,15.14-16.16,21.82-11.21,11.55-28,9.57-38.1,4.66-6.89-3.35-6-12.62-12.12-18.84-2.48-2.51-5.63-1.84-11.57-4.56-5-2.32-9.81-9.77-15.14-12.39-2-.9-5.26-1.67-5,1.48A6.64,6.64,0,0,0,25.59,70a7.69,7.69,0,0,0,6.89,5.5c3.82,14.12,13.75,29.38,29,42.1,10.47,8.35,28.92,15.13,41.12,17,21.38,3.21,43.86-1.51,50.68-12.89-5-4.61-7.67-10.53-6-17.47,2.05-8.48,10.16-9.58,16.26-16.82C175.26,73.47,173.35,54.25,167.63,46.07Z"/><path class="cls-11" d="M133.29,61c-15.06,10.92-23.91,28.37-30.44,34.64-3.12,3-7.54,4.82-12.19,5.69-8.28,1.55-17.3.09-21.15-3.07-6-4.95-2.9-14.7-18.28-21.83,0,0,10.35-5,15.68-7a23,23,0,0,1,6.33-1.28c4.78-.38,10.93.14,19,1.39C104.49,71.46,110.23,70.59,133.29,61Z"/><path class="cls-12" d="M90.66,101.31c-8.28,1.55-17.3.09-21.15-3.07-6-4.95-2.9-14.7-18.28-21.83,0,0,10.35-5,15.68-7a23,23,0,0,1,6.33-1.28C70.23,82.33,81.35,94.73,90.66,101.31Z"/><path class="cls-13" d="M110.77,85.52c-3,4.21-5.62,7.8-7.92,10-7.44,7.15-22.23,7.6-30.08,4.46h0c-4.69-2.46-7.93-9.77-3.29-14.47s12.29-4.8,16-1.09C97.79,75.88,110.23,80.54,110.77,85.52Z"/><path class="cls-14" d="M91.78,97.44c5.9-2.37,13.51-7,9.82-13.1-3.28-5.24-13.78-2.55-18.7,2.26-1-3.31-4.66-4.91-8.46-4a12.44,12.44,0,0,0-5,3.06,7.55,7.55,0,0,0-2.12,4C66.55,97.56,80,102.15,91.78,97.44Z"/><path class="cls-15" d="M84,101.76A29.66,29.66,0,0,1,73.42,100h0l0,0A10.68,10.68,0,0,1,68,92.35a7.55,7.55,0,0,1,2.13-6.58,12.38,12.38,0,0,1,8.74-3.61,9.67,9.67,0,0,1,6.73,2.46,23.88,23.88,0,0,1,13.55-4.49c6.32,0,10.56,3,10.87,5.77V86l-.17.23a75.73,75.73,0,0,1-7.5,9.45c-4,3.88-10.73,6.1-18.37,6.1ZM72.84,99.92h0a30.42,30.42,0,0,0,11,1.84h0c7.87,0,14.76-2.28,18.9-6.25,2.26-2.17,4.82-5.71,7.78-9.81l.07-.1c-.38-2.69-4.62-5.55-10.93-5.55a24.57,24.57,0,0,0-14.06,4.71l-.13.09-.12-.12a9.65,9.65,0,0,0-6.86-2.56,12.47,12.47,0,0,0-8.84,3.65,7.43,7.43,0,0,0-2.1,6.49A10.65,10.65,0,0,0,72.84,99.92Z"/><path class="cls-16" d="M80,92.63a6.31,6.31,0,0,1,.8-3.17,14.42,14.42,0,0,1,4.52-5.12l.24.36A14,14,0,0,0,80,92.63Z"/><path class="cls-17" d="M83.81,102.15h0c-6.1,0-11.62-1.43-14.43-3.74-2.21-1.82-3.23-4.33-4.31-7-2-4.82-4.18-10.29-13.92-14.81l-.42-.2.42-.2c.1,0,10.42-5,15.7-7a27.57,27.57,0,0,1,9.63-1.42,106.82,106.82,0,0,1,15.81,1.52,55.83,55.83,0,0,0,8.8.81c7.44,0,14.65-2.1,32.12-9.38l1.69-.7-1.5,1.09C123.57,68.29,116.47,78.1,110.77,86A81.23,81.23,0,0,1,103,95.78C98.77,99.83,91.78,102.15,83.81,102.15ZM51.74,76.41C61.27,81,63.58,86.66,65.45,91.25c1.1,2.71,2,5.06,4.18,6.81,2.74,2.25,8.17,3.65,14.18,3.65,7.87,0,14.76-2.28,18.9-6.25a79.68,79.68,0,0,0,7.73-9.74c5.45-7.53,12.17-16.82,21.34-23.88-16.39,6.77-23.41,8.76-30.69,8.76a56.5,56.5,0,0,1-8.86-.81,104.8,104.8,0,0,0-15.75-1.52,27.1,27.1,0,0,0-9.5,1.4C62.33,71.41,53.73,75.46,51.74,76.41Z"/><path class="cls-18" d="M81.17,90.9a10.26,10.26,0,0,1,5.39-5.68c.67-.3,1.26-.2.86.08A22.75,22.75,0,0,0,81.26,92C80.79,92.77,80.88,91.64,81.17,90.9Z"/><path class="cls-18" d="M68.32,90.83c.17-4.84,3.88-6.89,7.07-7.23.72-.08.9.24.4.4a10.52,10.52,0,0,0-7,7.3C68.52,92.24,68.3,91.47,68.32,90.83Z"/><path class="cls-17" d="M147.75,146.58a156,156,0,0,1-43.32-5.93A120,120,0,0,1,55.9,113c-11.71-11.18-20.07-24.39-23.58-37.2a8,8,0,0,1-6.93-5.65,7.6,7.6,0,0,1,1-6,3,3,0,0,1,2.34-1.41c1,0,2.43.63,3.9,3.62a43,43,0,0,1,7.5,4.48c3.45,2.37,7,4.82,9.24,4.94,1.9.1,5.35-1.23,9-2.64,4-1.53,8.45-3.26,12-3.58.4,0,.86-.06,1.36-.06A105.5,105.5,0,0,1,84,70.78a140.08,140.08,0,0,0,17.85,1.74,29.38,29.38,0,0,0,5.07-.38c4.27-.77,11.9-5.25,20-10,10.19-6,21.74-12.78,28.7-13.27a6,6,0,0,1,.91-4.8,5.53,5.53,0,0,1,4.57-2.42c1.43,0,3.61.55,5.87,3.19,6.71,7.86,8.77,28.42-3.28,42.74A37.26,37.26,0,0,1,156,94.13c-3.92,2.74-7.3,5.11-8.52,10.17a16.15,16.15,0,0,0,2.82,13.8c6.14,8.43,20.74,14.31,35.5,14.31,12.86,0,22.39-4.54,25.51-12.14l.38.17c-3,8.5-11.16,15.4-23.49,19.94C177.18,144.44,163.19,146.58,147.75,146.58Zm-119-83.42a2.58,2.58,0,0,0-2,1.23A7.1,7.1,0,0,0,25.79,70a7.5,7.5,0,0,0,6.7,5.34h.15l0,.15C39,98.91,63.7,128,104.54,140.23a155.56,155.56,0,0,0,43.21,5.92c15.4,0,29.34-2.14,40.3-6.18,10.29-3.79,17.61-9.22,21.46-15.86-4.4,5.54-12.91,8.74-23.73,8.74h0c-14.88,0-29.61-6-35.82-14.49a16.56,16.56,0,0,1-2.9-14.17c1.26-5.22,4.71-7.63,8.7-10.43a36.47,36.47,0,0,0,7.6-6.48c11.9-14.14,9.89-34.41,3.28-42.16-2.15-2.52-4.21-3-5.56-3a5.12,5.12,0,0,0-4.24,2.25,5.54,5.54,0,0,0-.78,4.68l.08.27h-.27c-6.83.33-18.49,7.19-28.78,13.24-8.1,4.77-15.76,9.27-20.11,10a28.88,28.88,0,0,1-5.13.39,140.88,140.88,0,0,1-17.91-1.75,106.79,106.79,0,0,0-12.2-1.29c-.49,0-.94,0-1.33,0-3.5.32-8,2-11.9,3.56s-7.18,2.77-9.16,2.66c-2.33-.12-6-2.6-9.44-5-2.67-1.83-5.43-3.72-7.5-4.47l-.07,0,0-.08C30.92,63.76,29.6,63.16,28.73,63.16Z"/><path class="cls-4" d="M32.47,66.52C39,68.27,44,78.46,51.23,77.88S63.9,71.62,73.33,71s24.52,6.08,36.89,3.34c17.08-3.78,33-23.08,45.64-25.31,0,0-56.57-.44-79,3.16S32.47,66.52,32.47,66.52Z"/><path class="cls-19" d="M32.63,66.34s2.53.56,6,3.73,7.24,7,10.61,7.47a12.14,12.14,0,0,0,5.84-.69c1.2-.28,6-2.52,7.26-3a36.32,36.32,0,0,1,7.77-2.59c2.82-.48,4.47-.82,11,.22,6.28,1,10,2.15,14.58,2.7s7.37,1.07,13.09.29,11.88-4.25,16.12-6.81,12.26-8.54,14-9.79,8-5.68,10.87-6.87S155,49,155,49a11,11,0,0,0-5.19-.93c-2.94.19-6.08,6.17-22.84,16.23s-25.54,9-29.47,8-14.25-3.82-24.33-3.48S57.88,74.23,52.56,75.7c-4.93,1.36-11.78-6-11.78-6S35.23,63.69,32.63,66.34Z"/><path class="cls-1" d="M50.64,78.11c-3.88,0-7.14-3-10.3-5.93-2.51-2.32-5.1-4.71-7.91-5.45l.1-.43c2.9.78,5.53,3.2,8.07,5.55,3.26,3,6.64,6.12,10.62,5.8,3.28-.27,6.22-1.61,9.34-3,3.75-1.72,7.64-3.5,12.76-3.81,3.88-.24,8.72.74,13.85,1.78,7.38,1.49,15.73,3.18,23,1.57,9-2,17.46-8.15,25.67-14.12,7.18-5.21,14-10.13,20-11.19l.07.43c-5.92,1-12.66,5.94-19.81,11.12-8.25,6-16.78,12.18-25.82,14.19-7.36,1.63-15.76-.07-23.17-1.57-5.11-1-9.93-2-13.75-1.78-5.06.31-8.91,2.07-12.63,3.78-3.15,1.43-6.12,2.79-9.47,3.06C51.05,78.1,50.84,78.11,50.64,78.11Z"/><path class="cls-1" d="M160.5,53.13c-5.06-5.81-10.63-5.05-10.69-5a7.06,7.06,0,0,1,4.44.18,13.27,13.27,0,0,1,4.25,2.36A9.2,9.2,0,0,1,160.5,53.13Z"/><path class="cls-1" d="M36,63.7c-4.81,2.62-5.16,6.63-5.16,6.67a5.12,5.12,0,0,1,.82-3.07,9.52,9.52,0,0,1,2.29-2.6A6.76,6.76,0,0,1,36,63.7Z"/><path class="cls-1" d="M93.11,26.66A17.2,17.2,0,0,1,93.17,23,17,17,0,0,1,95,17.66l-.11.71A28.2,28.2,0,0,0,93.11,26.66Z"/><path class="cls-1" d="M69.51,25.51c0-.05-.36-5.08-2.68-8.44l.32.08a16.56,16.56,0,0,1,2.55,5.29A5.22,5.22,0,0,1,69.51,25.51Z"/><path class="cls-20" d="M64.16,12.58c3.19,5,4.82,7.79,5.32,12.1.12,1-.14,1-.35,0-1.28-5.89-3.93-8.54-5.4-11C60.92,8.84,63.62,11.72,64.16,12.58Z"/><path class="cls-20" d="M93.81,21.78a33.35,33.35,0,0,1,7.55-15.1c1.73-1.89,2-1.12.93.43a76.51,76.51,0,0,0-7.75,14.65C93.48,24.4,93,25.44,93.81,21.78Z"/><path class="cls-19" d="M38.13,14.33s6-3.73,15.45,0S64,32.4,62.47,36.64c-2,5.67-6.32,10.23-12.74,11.11s-10.46-1.28-10.46-1.28Z"/><ellipse class="cls-21" cx="43.79" cy="30.68" rx="15.87" ry="17.37" transform="translate(-4.98 8.77) rotate(-10.82)"/><path class="cls-22" d="M48.11,38S57,39.63,60,33.63a17.21,17.21,0,0,1-3.48,8.49,15.65,15.65,0,0,1-14.13,5.47c-6.43-.94-7.86-7.24-7.86-7.24S44,36,48.11,38Z"/><path class="cls-9" d="M39.27,50.25s9.68-7.67,18.63,0"/><path class="cls-1" d="M39.27,50.25A9.27,9.27,0,0,1,42.61,48c3-1.25,7.67-2.32,12.34,0a7.76,7.76,0,0,1,2.83,2.3C49,43.11,39.36,50.18,39.27,50.25Z"/><path class="cls-5" d="M53.35,49.16c0-.74-1.8-1.43-4.08-1.54s-4.16.4-4.2,1.14,1.8,1.42,4.08,1.53S53.31,49.9,53.35,49.16Z"/><path class="cls-19" d="M129,23.11c2.94,10.7,1,19.49-7.41,22.37-11.86,4-21.38-1.36-25.16-11.79C93,24.13,98.07,11,108.26,9.05,120.55,6.76,126.22,12.83,129,23.11Z"/><ellipse class="cls-21" cx="115.02" cy="27.57" rx="17.92" ry="18.87" transform="translate(0.7 57.91) rotate(-28.34)"/><path class="cls-22" d="M120.71,35.25s10.07.19,12.38-6.76a18.34,18.34,0,0,1-2.42,9.71A17.77,17.77,0,0,1,116,46.51c-7.24.1-9.87-6.41-9.87-6.41S115.84,33.8,120.71,35.25Z"/><path class="cls-9" d="M113.47,51.8s6-10.48,22.07-8.1"/><path class="cls-1" d="M113.47,51.8a7.08,7.08,0,0,1,2-3c2.76-2.55,8.1-5.94,17-5.74a7,7,0,0,1,3.07.64C119.34,42,113.53,51.7,113.47,51.8Z"/><path class="cls-5" d="M129.94,45.15c-.28-.92-3.38-.64-6.92.63s-6.17,3.06-5.88,4,3.39.65,6.93-.63S130.23,46.08,129.94,45.15Z"/><path class="cls-7" d="M182.67,67.2s-2.92,3.65-.09,6.93,8.16.83,8.16.83S183,67.31,182.67,67.2Z"/><ellipse class="cls-7" cx="187.13" cy="86.21" rx="4.87" ry="4.89"/><ellipse class="cls-7" cx="175.19" cy="93.77" rx="2.65" ry="2.67"/><ellipse class="cls-7" cx="186.69" cy="98.21" rx="1.77" ry="1.78"/><ellipse class="cls-23" cx="114.13" cy="28.01" rx="11.5" ry="11.55"/><ellipse class="cls-24" cx="118.56" cy="17.35" rx="2.65" ry="2.67"/><ellipse class="cls-23" cx="46.89" cy="31.57" rx="11.5" ry="11.55"/><ellipse class="cls-24" cx="51.31" cy="20.9" rx="2.65" ry="2.67"/><path class="cls-8" d="M260,145.55s-8.13,2-7,7.43c-13.25-2.33-28.14-4.16-29.78-12,12-1.08,15.57.59,21.79,2.19A116.22,116.22,0,0,0,260,145.55Z"/><path class="cls-1" d="M253.19,153.24l-.3-.05-3.44-.59c-12.28-2.1-25-4.26-26.51-11.59l-.05-.24.23,0c2.57-.24,4.82-.35,6.87-.35a41.27,41.27,0,0,1,12.59,1.9c.77.21,1.56.43,2.4.64a117.05,117.05,0,0,0,15,2.4l1.28.11-1.25.32c-.08,0-7.92,2-6.89,7.16Zm-29.8-12.08c1.71,6.84,14.12,9,26.12,11l3.16.54c-.59-4.13,4.09-6.28,6.22-7a110,110,0,0,1-14-2.31c-.84-.21-1.63-.43-2.4-.64A41,41,0,0,0,230,140.84C228,140.84,225.85,140.94,223.39,141.16Z"/><path class="cls-1" d="M224.92,143c-.65-.58-1.29-1.2-1.86-1.78a12.1,12.1,0,0,1-2.11-2.9,50,50,0,0,0,4.23,4.34Z"/><path class="cls-1" d="M199.35,136.17a7.24,7.24,0,0,1-4.88-4.14c-2.74-5.79-.49-16,2.52-23.7,6.32-16.07,15.76-23.39,20.44-23.45h0c1.35,0,2.53.94,3.49,2.79l-.36.21c-.89-1.72-1.95-2.6-3.16-2.56-4.57.06-13.82,7.29-20.07,23.18-3,7.57-5.21,17.68-2.54,23.34a6.89,6.89,0,0,0,4.62,3.91Z"/><path class="cls-6" d="M217.43,85.27c-4.49.06-13.9,7.17-20.25,23.32-4.23,10.75-6.49,25.25,2.22,27.54L220.78,88C219.89,86.24,218.78,85.25,217.43,85.27Z"/><path class="cls-4" d="M217.43,85.27c-4.49.06-13.9,7.17-20.25,23.32-.54,1.36-1,2.78-1.49,4.23-.62,2.13.24,4,1.73,4.2,9,.87,14.93-10.61,16.53-18.24L220.78,88C219.89,86.24,218.78,85.25,217.43,85.27Z"/><path class="cls-3" d="M225.4,144.82c5,4.71,16.78,6.27,27.52,8.16-.47-2.36.81-4.07,2.4-5.25C245.38,147.36,233.16,142.26,225.4,144.82Z"/><path class="cls-2" d="M214.05,95.35c.69,11.25-14.55,36.45-16.19,41.72s-6.15,7.25-9.63,8.12-17.22,2.18-13.33,9.39,19.07,2.25,22.34-1,5.23-5.93,7.79-5.93,7.18-.69,12.37,1.06,13.94,6.11,21.45,11.05,19.27,9.75,23.37,4.15-2.19-10.69-10.94-12.44c-7.77-1.55-21.17-4.22-26.23-8.73,8.47-2,16.67.44,22.27,1.89s13.32,2.94,17.08.44c5-3.31,4.77-13-8.85-11.5-12.5,1.42-33.56,2-36.33-.87,5.69-9.75,6.51-47.59-1.79-47.48"/><path class="cls-4" d="M214.05,95.35c.69,11.25-9.25,35.5-10.89,40.78s-11.45,8.19-14.93,9.06-17.19,2.16-13.33,9.39c2.37,4.42,16.68,1,20.82-3.44,3.13-3.36,7.34-6.91,9.9-6.91a39.73,39.73,0,0,1,12.16,2.18,99.08,99.08,0,0,1,21.66,10.19c4.28,2.82,12.08,6.27,17.49,6.62,5.06.33,6.56-2.22,6.57-2.69.07-4.16-5.3-7.63-12.22-9-7.24-1.45-19.39-3.86-25.1-7.84a35.46,35.46,0,0,1-4-3.65c8.47-2,19.62.64,25.22,2.09s11.84,2.07,14.61,1.15c5.6-1.88,7.13-11.19-6.49-9.65-12.5,1.42-33.56,2-36.33-.87,5.69-9.75,6.51-47.59-1.79-47.48"/><path class="cls-5" d="M251.4,134.78c3.29-.49,7.65-.92,9.62-.13,3.7,1.48.72,3.52-1.9,2.91-2.32-.53-4.63-1.18-7.64-1.62C250.22,135.75,249.06,135.13,251.4,134.78Z"/><path class="cls-5" d="M249.5,152.21c3.29.8,8,2.17,9.63,3.77,2.94,2.81-.54,3.55-2.77,2-2-1.4-3.91-2.9-6.56-4.48C248.69,152.81,247.51,151.73,249.5,152.21Z"/><path class="cls-5" d="M184,147.5c-2.23.2-5.61.79-7.73,2.53-2.33,1.92.22,2.68,2,1.63a52.89,52.89,0,0,1,6.46-3.59C185.16,147.85,185.31,147.38,184,147.5Z"/><path class="cls-5" d="M212.61,87.87c2.12-1.4,4.57-2.49,6.13-1.36,1.76,1.28,3,5.75,3.47,9.4.19,1.39-.24,1.39-.56.31-1.13-3.77-2.72-7.14-3.88-7.85s-3.31-.31-5,.33S211.42,88.65,212.61,87.87Z"/><path class="cls-1" d="M256.52,166.94c-5.06,0-11.84-2.9-17.56-6.66-7-4.62-15.82-9.16-21.4-11a27.74,27.74,0,0,0-10.57-1.1c-.66,0-1.23.06-1.74.06-1.93,0-3.52,1.64-5.72,3.91-.6.63-1.23,1.28-1.93,2-2.25,2.2-10.75,5.54-16.94,4.52A7.39,7.39,0,0,1,175,155a4.38,4.38,0,0,1-.42-4c1.48-3.37,8-4.61,11.88-5.35.81-.15,1.51-.28,2-.4,5-1.27,8.23-3.95,9.48-8a86.21,86.21,0,0,1,4.08-8.69c4.9-9.73,12.31-24.44,12.31-33a7,7,0,0,1,.11,3.32c-1.3,8.77-7.72,21.24-12.06,29.85a84.76,84.76,0,0,0-4,8.62c-1.29,4.18-4.59,7-9.78,8.26-.49.13-1.19.26-2,.41-3.82.73-10.2,1.94-11.58,5.11a4,4,0,0,0,.39,3.55c1,1.84,2.82,3,5.42,3.41,6.08,1,14.41-2.26,16.61-4.41.69-.68,1.31-1.32,1.92-1.95,2.26-2.34,3.9-4,6-4,.5,0,1.06,0,1.72,0a27.75,27.75,0,0,1,10.71,1.12c5.62,1.88,14.46,6.44,21.5,11.08,8.5,5.6,19.36,9.3,23.09,4.19a5.15,5.15,0,0,0,1-4.94c-1.13-3.19-5.64-5.92-11.77-7.15h-.06c-7.93-1.58-21.19-4.23-26.27-8.76l-.32-.29.4-.1c7.95-1.91,15.6.11,21.2,1.59l1.17.31c8.52,2.21,14.06,2.36,16.92.46a6.18,6.18,0,0,0,2.64-6.86c-.52-1.6-2.66-5.22-11.35-4.23-10.86,1.23-33.46,2.26-36.51-.94l-.11-.12.08-.15c4.55-7.78,6.22-35.77,1.52-44.65-.87-1.65-1.91-2.49-3.09-2.49h0v-.44c1.35,0,2.53.9,3.49,2.72,2.14,4,3.18,12.55,2.78,22.74-.38,9.77-2,18.24-4.22,22.2,3.07,2.62,22.9,2.19,36.05.69,9-1,11.23,2.83,11.78,4.52a6.62,6.62,0,0,1-2.8,7.38c-3,2-8.6,1.83-17.24-.41l-1.17-.31c-5.46-1.44-12.89-3.4-20.59-1.68,5.23,4.3,18,6.85,25.75,8.39h.06c6.27,1.26,10.9,4.1,12.08,7.42a5.58,5.58,0,0,1-1,5.37C261.28,166.18,259.13,166.94,256.52,166.94Z"/><path class="cls-25" d="M217.92,85.31s-3.28-.88-9.48,4.85a51.45,51.45,0,0,0-14.76,30.47c-1.47,13.58,4.4,15.25,4.4,15.25"/><ellipse class="cls-7" cx="215" cy="118.65" rx="1.77" ry="1.78"/><ellipse class="cls-7" cx="208.81" cy="135.97" rx="3.54" ry="3.11"/><path class="cls-7" d="M223.35,104.36s-3.06-.28-3.77,1.63c-.86,2.35.31,5,3.64,5.76C223.22,111.75,223.57,105.16,223.35,104.36Z"/><path class="cls-8" d="M185.3,167.51s-.25-7,9.53-6.27c-4.76-4.26-11.5-8.82-29-7.29C167,162.49,185.3,167.51,185.3,167.51Z"/><path class="cls-3" d="M167,157c4.34,6.67,18.29,10.49,18.29,10.49a6.18,6.18,0,0,1,4.95-5.94A31.15,31.15,0,0,0,167,157Z"/><path class="cls-1" d="M185.52,167.8l-.27-.07c-.75-.21-18.44-5.16-19.66-13.75l0-.23.22,0c2.3-.2,4.5-.3,6.55-.3,12.37,0,18.19,3.67,22.63,7.64l.49.43-.63,0c-3.6-.26-6.25.5-7.83,2.24a5.93,5.93,0,0,0-1.48,3.81ZM166,154.15c1.38,7.63,16.9,12.44,19.07,13.08a6.37,6.37,0,0,1,1.6-3.83c1.57-1.74,4.08-2.56,7.52-2.41-4.33-3.76-10.09-7.12-21.89-7.12C170.36,153.87,168.24,154,166,154.15Z"/><path class="cls-2" d="M154.05,95.83c1.95-2.86,8.29-4.3,10.94,7.93,4.75,21.87,1.35,39.69,2.79,41.22s8.66,4,15,3.82,18.34-.66,23.26,5,1.34,10-2.66,10.8-8-1.85-12.2-5.24-19.77-5.89-24.18-4.47c1,4,9.84,9.06,17.11,11s14.14,5.9,12.92,12.12-10.23,5-14.7,1c-1.27-1.12-2.64-2-3.33-3.38-1.77-3.47-3.54-4.38-9-6.05-5.87-1.78-8-5.24-12.09-8.84s-7-6.11-10.86-5.13-8.1,4.7-12.4,5.13-9.33-3.49-7.89-7.2,7.89-6.44,15.47-4.8,10.35-4.15,11.27-8.19,4.1-19.29,2.26-25.51c-6.05-4.37-5.89-9.58-5.63-11.28"/><path class="cls-4" d="M154.05,95.83c1.95-2.86,8.29-4.3,10.94,7.93,4.75,21.87,1.35,39.69,2.79,41.22s8.66,4,15,3.82,18.34-.66,23.26,5-.52,8.16-2.87,8.27c-4.06.19-6.77-1.83-11-5.21s-20.94-6.31-25.34-4.89a8.23,8.23,0,0,0,.25,3.29c1.43,3.91,9.95,8.75,17,10.65,7.28,2,14.14,5.9,12.92,12.12s-9,3-12.7-1.68-5-6.28-13.5-8.86c-5.88-1.78-7.54-4.86-11.64-8.46s-7.86-7.39-11.75-6.4-9.06,4.76-13.36,5.2-8.79-.54-7.35-4.25,7.89-6.44,15.47-4.8a12,12,0,0,0,14-8.23c.92-4,3.76-20.41,1.91-26.63a9.55,9.55,0,0,1-8-10.12"/><path class="cls-5" d="M191.09,150.41c3.37.15,8.37.59,10.33,1.87,3.36,2.21.07,3.61-2.39,2.48a78.57,78.57,0,0,0-8.12-3.48C190,151,189.15,150.32,191.09,150.41Z"/><path class="cls-5" d="M185.28,167.61c2.9.83,7.23,2.48,9.63,5.32,2.63,3.14-.9,3.48-3,1.65-1.91-1.7-3.76-3.51-6.44-5.5C184.57,168.38,183.56,167.11,185.28,167.61Z"/><path class="cls-1" d="M190.8,182.74a15,15,0,0,1-9.09-3.84c-.56-.54-2.11-2.12-2.48-2.6-2.77-3.64-1.87-4.19-9.3-6.45-4.45-1.35-6.73-3.6-9.37-6.22-.87-.86-1.77-1.76-2.8-2.66-4-3.51-6.88-6-10.69-5.08a24.18,24.18,0,0,0-5.19,2.31c-2.34,1.27-4.76,2.57-7.23,2.82a8.54,8.54,0,0,1-7.46-3.42,4.29,4.29,0,0,1-.64-4.08c1.42-3.7,7.83-6.63,15.7-4.94,7.63,1.65,10.19-4.32,11-8,.44-1.9,4.18-18.72,2.28-25.33a13.46,13.46,0,0,1-5.65-8.37,8.22,8.22,0,0,1,.2-3c-.14,2,.13,7.05,5.74,11.1l.06,0,0,.07c1.94,6.54-1.53,22.5-2.25,25.63s-3.25,10.13-11.51,8.35c-7.66-1.65-13.88,1.14-15.25,4.67a3.88,3.88,0,0,0,.6,3.66,8.23,8.23,0,0,0,7.09,3.24c2.39-.24,4.78-1.52,7.08-2.77a24.65,24.65,0,0,1,5.29-2.35c4-1,7,1.58,11,5.17,1,.92,1.94,1.81,2.82,2.68,2.6,2.58,4.85,4.81,9.2,6.12,7.88,2.37,6.63,2.66,9.37,6.26.36.48,2,2.22,2.59,2.77,2.59,2.44,7.5,4.49,10.92,3.58a5.07,5.07,0,0,0,3.91-4c1.43-7.21-8.45-10.69-12.76-11.86-7.34-2-16.23-7.06-17.26-11.17l-.05-.21.19-.06c4.5-1.45,20.07,1.05,24.37,4.51,4.52,3.64,8.29,5.91,12,5.2a6,6,0,0,0,4.66-3.82c.45-1.4.44-3.69-2.11-6.62-4.83-5.58-16.67-5.18-23-5h-.08c-6.56.22-13.76-2.39-15.17-3.89-.53-.57-.49-2.55-.35-7,.23-7.48.63-20-2.49-34.33-1.51-7-4-9.1-5.85-9.64a4.86,4.86,0,0,0-4.89,1.66,3.57,3.57,0,0,1,2.17-2,4.36,4.36,0,0,1,2.82-.1c1.94.57,4.59,2.75,6.15,10,3.13,14.39,2.73,26.94,2.5,34.44-.11,3.61-.2,6.22.23,6.67,1.33,1.42,8.52,4,14.86,3.76h.08c6.43-.22,18.38-.64,23.34,5.09,2.69,3.09,2.68,5.55,2.2,7.06a6.39,6.39,0,0,1-5,4.11c-3.88.74-7.75-1.58-12.35-5.28-4.07-3.28-19.23-5.76-23.8-4.5,1.21,3.83,9.82,8.75,16.9,10.66,4.43,1.2,14.56,4.79,13.07,12.37a5.49,5.49,0,0,1-4.22,4.37A8.6,8.6,0,0,1,190.8,182.74Z"/><path class="cls-1" d="M166.81,155a8.25,8.25,0,0,1-.22-2.1,4.75,4.75,0,0,1,.82-2.54,9.05,9.05,0,0,0-.2,4.52Z"/><path class="cls-5" d="M156.79,94.64c3.68-1.46,7.35,4.26,7.08,10.64,0,.76-.54.33-.71-.53-1.35-6.78-4-8.74-5.81-9.28C156.37,95.17,156.42,94.79,156.79,94.64Z"/><path class="cls-7" d="M165.18,105.67s-4.38,1.12-3.62,6.88,5.44,5.61,5.44,5.61S165.84,106.53,165.18,105.67Z"/><ellipse class="cls-7" cx="163.24" cy="129.75" rx="2.21" ry="2.22"/><ellipse class="cls-7" cx="63.7" cy="132.42" rx="2.76" ry="2.09" transform="translate(-49.51 38.74) rotate(-24.7)"/></svg>