<svg xmlns="http://www.w3.org/2000/svg" viewBox="0 0 286.85 288.06"><defs><style>.cls-1{isolation:isolate;}.cls-10,.cls-12,.cls-2{fill:#3b2314;}.cls-3{fill:#5d3c2a;}.cls-4{fill:#895b46;stroke:#231f20;}.cls-10,.cls-11,.cls-13,.cls-23,.cls-4{stroke-miterlimit:10;}.cls-4,.cls-6,.cls-8{stroke-width:0.75px;}.cls-13,.cls-4{opacity:0.3;}.cls-5{fill:#b73e7b;}.cls-5,.cls-7{stroke:#561d1d;}.cls-6{fill:#e585b3;}.cls-6,.cls-8{stroke:#ffe6e6;}.cls-7{fill:#e4609c;}.cls-8{fill:#f38fbb;}.cls-9{fill:#231f20;}.cls-10{stroke:#210f00;}.cls-10,.cls-17,.cls-23{stroke-width:0.5px;}.cls-11{fill:#ffe743;stroke:#705b01;}.cls-12{opacity:0.24;}.cls-13{fill:#e0aa24;stroke:#eac71c;stroke-width:0.25px;}.cls-14{fill:#754c28;}.cls-15{fill:#fff19c;}.cls-16{fill:#fbf5b0;stroke-width:0.25px;}.cls-16,.cls-17{stroke:#832f0a;stroke-linecap:round;stroke-linejoin:round;}.cls-17{fill:#fefdeb;}.cls-18{mix-blend-mode:multiply;}.cls-19{fill:#f2efda;}.cls-20{fill:#381b0d;}.cls-21{fill:#fff;}.cls-22{fill:#4c4218;}.cls-23{fill:#00aad4;stroke:#003875;}.cls-24{fill:#14daef;}</style></defs><g class="cls-1"><g id="Layer_1" data-name="Layer 1"><path class="cls-2" d="M175.49,200.76s4.61,10,9,10.23,31.09-13.1,31.09-13.1l1.9,3.34-27.7,12.44s-7.56,4.25-12.89-3-7.49-10.12-7.49-10.12Z"/><path class="cls-2" d="M221.55,200.09l2.14,5.34s.74,5.11,6.64,17.55,20.24,12,19.4,1.47-8.33-29.68-19-32.25a7.2,7.2,0,0,0-3.36-1.69c-3.21-.61-6.75,1.22-9.07,4.61l-2.78,1.51,3.38,4.86,2.12-1.36Z"/><path class="cls-3" d="M219.77,201.34l-2.63,1.31-3.55-5.17,2.78-1.52c2.32-3.38,5.86-5.22,9.07-4.61a7.33,7.33,0,0,1,3.37,1.69c10.65,2.57,18.13,21.72,19,32.26s-13.49,11-19.39-1.48-6.65-17.55-6.65-17.55l-1.92-4.79Z"/><path class="cls-4" d="M235.17,207.39,228.28,210s4.48,11.23,6.89,14.39,9.76,0,4.88-8.48Z"/><path class="cls-4" d="M231.32,198.49a17.53,17.53,0,0,1-8,3.79l1.19,2.09s7.12-1.1,8.11-4.08l-1.09-1.85Z"/><path class="cls-2" d="M217.14,202.65l-3.55-5.17S211.85,203.76,217.14,202.65Z"/><path class="cls-5" d="M168.61,87.46s8.47-15,22-14.74S203.4,91.6,198.9,98.14s-17.06,25.42-39.9,34.72S163.89,106,168.61,87.46Z"/><path class="cls-6" d="M169,88.55s7.85-13.87,20.39-13.66,11.84,17.5,7.68,23.55-15.81,23.56-37,32.18S164.62,105.75,169,88.55Z"/><path class="cls-5" d="M127,133.64s14.32,6.61,24.48-3.76,25.34-44.82,22.48-67.48c-2.5-19.83-15.19-28.68-24.45-24.66C138.68,42.42,139.29,65,139.1,78.58,138.76,103.82,127,133.64,127,133.64Z"/><path class="cls-6" d="M130.06,128.12S143,134,152.28,124.61s23.23-40.28,20.78-60.54c-2.15-17.75-13.6-25.59-22-21.94-9.82,4.26-9.4,24.51-9.65,36.63C140.93,101.35,130.06,128.12,130.06,128.12Z"/><path class="cls-7" d="M217.94,115.09s17-8.28,29.06.35-.19,25-8.31,28.12-31.23,12.38-57.66,6.6S202.14,128.93,217.94,115.09Z"/><path class="cls-8" d="M217.61,116.31s15.71-7.67,26.92.32-.17,23.18-7.7,26.07-28.94,11.47-53.42,6.1S203,129.14,217.61,116.31Z"/><path class="cls-7" d="M149.57,131.76s10.86,14.06,26.48,11,50.77-24.77,62.27-47c10.07-19.48,4.09-35.37-6.77-37.49-12.67-2.47-26.18,18.35-34.76,30.48C180.79,111.31,149.57,131.76,149.57,131.76Z"/><path class="cls-8" d="M152.77,131.93s13.13,9.27,27.31,6.59,46-22,56.43-41.82c9.08-17.37,3.6-31.58-6.27-33.51-11.52-2.25-23.73,16.31-31.49,27.12C184.29,110.44,152.77,131.93,152.77,131.93Z"/><path class="cls-9" d="M95.84,51.74S82.93,22.1,58.93,10.18l-1,2.05S80,22.44,93.83,53.42Z"/><rect class="cls-9" x="47.94" y="-2.66" width="9.68" height="21.13" rx="4.84" transform="translate(22.35 51.75) rotate(-63.76)"/><path class="cls-9" d="M148.58,71.48s24-21.63,50.81-22.53l.09,2.28s-24.3.16-49.76,22.61Z"/><rect class="cls-9" x="201.1" y="38.86" width="9.68" height="21.13" rx="4.84" transform="translate(162.89 256.79) rotate(-91.77)"/><path class="cls-10" d="M63.2,154.77s-2.81,2.67-4.4,1.51c-2.38-1.73.26-4.23.26-4.23S62.45,153.72,63.2,154.77Z"/><path class="cls-10" d="M64.18,148.59s11,12.63,31.15,16.17c0,0,6.24-1.35,11.59-15.71s6.27-14.82,6.27-14.82,3-.65,2.7,1.31-8.25,27.52-17.7,32.26c-8.24,4.13-36.6-13-37.62-16.1S62.81,147.09,64.18,148.59Z"/><path class="cls-10" d="M73.09,125.06s-3-3-6.24-1.64-1.61,6.13.79,8S78.18,132.06,73.09,125.06Z"/><path class="cls-11" d="M99.71,122.27s1.44,45.39,44.25,72.47c16.21,10.26,94.59,12.38,70.56-41.15-13.62-25.47-39.8-23.15-60.46-21.66-4.45.32-11.64-2.94-14.62-5.67l-3.58-2.52Z"/><path class="cls-2" d="M162,131.25s2.42,35.57-44.37,39.17c2.8,4.43,9.89,11.55,9.89,11.55s46.91-9.46,45.34-51h-5.29Z"/><path class="cls-2" d="M191.1,133.63s4,50.73-55.06,55.77a43.11,43.11,0,0,0,7.4,5.24,29.87,29.87,0,0,0,8.49,3.46s47.65-8.67,49.9-59.32c-.23-.12-1.15-.79-2.37-1.49a29.51,29.51,0,0,0-3-1.57A29.08,29.08,0,0,0,191.1,133.63Z"/><path class="cls-2" d="M143.22,128.69s-13.76,22.46-36,23.42a45.47,45.47,0,0,0,4.77,9.51s35.48-7.23,39.26-30l-3.61-1c-.36-.1-.82-.33-1.26-.45Z"/><path class="cls-2" d="M215.64,155.91c1,1.88,8,15.67-.1,28.8S187.27,205,167.43,200.45C197.28,198.41,216.42,173.45,215.64,155.91Z"/><path class="cls-2" d="M248.06,193.59l-28.49,13s-9.49,3.38-14.3-3.85c-4.36-5.5-9.06-12.52-11.38-16.06a2.7,2.7,0,0,0-3.73-.8h0a3.5,3.5,0,0,0-.63,5.37l15.68,17.47s5.92,5.49,18.86-.49c15.29-7.06,25.94-11.77,25.94-11.77Z"/><path class="cls-2" d="M255.34,195l2.34,5.84s.81,5.59,7.27,19.19,22.13,13.14,21.21,1.62-9.11-32.47-20.75-35.28a7.93,7.93,0,0,0-3.68-1.84c-3.52-.68-7.39,1.33-9.92,5l-3,1.65,3.75,5.38,2.45-1.36Z"/><path class="cls-3" d="M253.39,196.38l-2.87,1.45-3.88-5.67,3-1.65c2.53-3.71,6.41-5.71,9.92-5a7.84,7.84,0,0,1,3.68,1.85c11.65,2.8,19.83,23.74,20.75,35.27s-14.76,12-21.21-1.61-7.27-19.2-7.27-19.2l-1.72-4.3Z"/><path class="cls-4" d="M270.24,203l-7.54,2.8s4.9,12.28,7.54,15.73,10.68,0,5.34-9.27Z"/><path class="cls-4" d="M266,193.27a19.12,19.12,0,0,1-8.71,4.15l1.3,2.29s7.79-1.21,8.87-4.47l-1.19-2Z"/><path class="cls-2" d="M246.64,192.16s-.23,6.22,3.88,5.67Z"/><path class="cls-12" d="M121.62,136.93s1.27,15.55,22.59,28.06,65.76,15.92,75.07,3.17c0,0,3.05,16.54-15.26,27.36-17.6,10.4-50.8,3.62-57.65.62-8.38-3.69-26.24-19.36-34.56-34.74a109.82,109.82,0,0,1-9.91-24.66s-3.79-13.11,0-15.34c8.17-4.83,28.38-.59,34.44,2.65a30.36,30.36,0,0,1,4.19,2.92C140.83,127.26,129.2,136,121.62,136.93Z"/><path class="cls-11" d="M154.84,104c-4.75,23-27.79,27.52-52.79,28.45-5.94.22-11.64,1.19-17.6-5.43C73.6,115,57.22,109.12,61.76,85c4.58-24.37,29-39.87,55.7-34.44C150.66,57.35,159.86,79.7,154.84,104Z"/><path class="cls-13" d="M149.18,69.7s10.67,63.93-68.89,52.72c.95.13,4.73,8.22,14.21,9.72a124.6,124.6,0,0,0,16.51-.56c6.7-.5,16.64-2.35,22.61-4.72A36.21,36.21,0,0,0,147,118.57C156.72,108.73,159.26,84.08,149.18,69.7Z"/><ellipse class="cls-14" cx="100.21" cy="101.19" rx="3.21" ry="1.88" transform="translate(-23.94 170.95) rotate(-74.61)"/><path class="cls-15" d="M130.35,55.16a34.79,34.79,0,0,1,4.78,2,52,52,0,0,1,4.6,2.94,27.28,27.28,0,0,1,5,5.71,34.39,34.39,0,0,1,2.49,3.83c.37.67.73,1.34,1.06,2s.64,1.38.91,2.09a31,31,0,0,1,2.07,8.83c0,.75.08,1.51.09,2.26s0,1.51-.09,2.25-.14,1.5-.28,2.24l-.19,1.1a9.57,9.57,0,0,1-.23,1.09c-.17.7-.34,1.4-.54,2.09-.1.35-.19.7-.3,1l-.35,1c-.22.69-.49,1.37-.75,2s-.57,1.34-.87,2a26.06,26.06,0,0,1-4.29,6.29c-1.88,2.28-5.81,5.7-8.12,6.33,2.84-5,5.78-9.2,7-14.3a75.35,75.35,0,0,0,1.47-7.71c.09-.65.14-1.25.22-1.88s.07-1.24.11-1.86,0-1.25,0-1.87-.06-1.24-.08-1.86a40.53,40.53,0,0,0-4.27-14.68,67.19,67.19,0,0,0-4.1-7.09C134.21,58.75,132.2,57.48,130.35,55.16Z"/><path class="cls-9" d="M156.56,91.62a17.51,17.51,0,0,0-3.82,5.76,18.72,18.72,0,0,0,0,13.38,41.26,41.26,0,0,0,3.3-10.78A40.83,40.83,0,0,0,156.56,91.62Z"/><path class="cls-9" d="M67.8,70.81s4.93,9.66-6.75,17.36a50.77,50.77,0,0,1,4.23-12.79A47.13,47.13,0,0,1,67.8,70.81Z"/><path class="cls-9" d="M103.21,49.19s9.65-2.42,23.71,3.34C128,55.94,103.5,56,103.21,49.19Z"/><path class="cls-16" d="M98.72,79.75c-2.8,9.62-10.67,15.51-17.57,13.14S70.9,80.82,73.7,71.2,84.37,55.7,91.27,58.06,101.51,70.13,98.72,79.75Z"/><path class="cls-12" d="M98,85.61c-2.44,8.37-9.89,13.28-16.65,11s-10.27-11-7.84-19.35,9.89-13.28,16.65-11S100.4,77.23,98,85.61Z"/><path class="cls-17" d="M97.82,81.85c-2.43,8.37-9.88,13.28-16.64,11s-10.27-11-7.84-19.35S83.23,60.19,90,62.5,100.26,73.47,97.82,81.85Z"/><g class="cls-18"><path class="cls-19" d="M92.81,58.75c4.63,3.53,6.57,11.28,4.33,19-2.63,9.07-10,14.61-16.55,12.38-4.48-1.53-7.37-6.35-7.87-12.17,0,7.06,3.15,13.15,8.43,15,6.9,2.37,14.77-3.52,17.57-13.14C101.3,70.88,98.66,61.94,92.81,58.75Z"/></g><path class="cls-20" d="M92.26,79.18c-.74,4.63-4.32,7.8-8,7.07s-6.09-5.08-5.35-9.71,4.31-7.81,8-7.08S93,74.54,92.26,79.18Z"/><path class="cls-21" d="M82.87,74.26a2,2,0,0,1-2.28,1.92A2.39,2.39,0,0,1,79,73.43a2,2,0,0,1,2.28-1.92A2.4,2.4,0,0,1,82.87,74.26Z"/><path class="cls-16" d="M139.4,88.61c-2.74,9.51-10.51,15.34-17.34,13s-10.15-11.91-7.4-21.43,10.51-15.34,17.34-13S142.15,79.09,139.4,88.61Z"/><path class="cls-12" d="M138.67,94.39c-2.39,8.28-9.75,13.16-16.43,10.88s-10.17-10.82-7.78-19.1S124.2,73,130.89,75.29,141.06,86.11,138.67,94.39Z"/><path class="cls-17" d="M138.52,90.68c-2.39,8.28-9.74,13.15-16.43,10.88s-10.17-10.83-7.78-19.11,9.75-13.15,16.43-10.88S140.91,82.4,138.52,90.68Z"/><g class="cls-18"><path class="cls-19" d="M133.52,67.86C138.1,71.34,140,79,137.84,86.61c-2.58,9-9.9,14.46-16.33,12.27-4.44-1.5-7.3-6.26-7.8-12,0,7,3.14,13,8.35,14.76,6.83,2.32,14.6-3.51,17.34-13C141.93,79.83,139.3,71,133.52,67.86Z"/></g><path class="cls-20" d="M133,87.54c-.71,4.58-4.24,7.72-7.89,7s-6-5-5.3-9.59,4.24-7.72,7.89-7S133.73,83,133,87.54Z"/><path class="cls-21" d="M124.32,81.87a1.89,1.89,0,0,1-2.26,1.76A2.44,2.44,0,0,1,120.32,81a1.89,1.89,0,0,1,2.25-1.76A2.44,2.44,0,0,1,124.32,81.87Z"/><path class="cls-22" d="M117.53,111.79a35.15,35.15,0,0,1-10.58,2.6,32.53,32.53,0,0,1-11-.77,23.51,23.51,0,0,1-9.85-5.11,22,22,0,0,1-6.13-9,30,30,0,0,0,7.11,7.82c.69.54,1.44,1,2.16,1.46A24,24,0,0,0,91.53,110a25.49,25.49,0,0,0,4.9,1.74,40.44,40.44,0,0,0,10.44,1.15A64.37,64.37,0,0,0,117.53,111.79Z"/><path class="cls-23" d="M31.13,164.72l14.78,3.12m-18.09-3.37a9.56,9.56,0,0,0-1.54.6c-1.05.59-2.76,2.49-1.69,2.74l16.82,2a4.65,4.65,0,0,0,3.1-.48c1.18-.5,58.54-55.21,58.16-55.37l-17.79-3.83c-.54-.12-54.39,53-55.13,53.11Zm-2.48,4.16c-1,.1-2.92-.28-3.53.1-.89.54-1.73,2.52-.4,2.64l16.09.47a4.4,4.4,0,0,0,3-.64c.88-.55,1.52-1.2.2-1.32l-14-1.26a7.41,7.41,0,0,0-1.33,0ZM20,172.13a2.19,2.19,0,0,0-1.81.87c-.57.56-.87,1.1.62,1.09L34.53,174a4.08,4.08,0,0,0,3-.89c.56-.56.57-1.13-.92-1.12l-15.77.06a8.24,8.24,0,0,0-.85,0Zm-2.49,3.22c-1.46.14-1.76.6-2,1.11s-.31.95,1.26.84l16.57-1.09c1.57-.1,2.35-.61,2.65-1.16s0-.92-1.57-.82l-16.58,1.09-.29,0Zm-.87,2.84c-1.58.16-1.88.64-2,1.17s0,.91,1.57.75l16.93.06c1.59-.17,2-2.32,2.12-2.85s-.21-1-1.8-.87Zm-.42,2.36c-1.59.18-1.77.61-1.85,1.14s0,.94,1.58.76l16.87.82A2.77,2.77,0,0,0,35,180.89c.07-.53-.29-.9-1.89-.72Zm-.57,2.12L1,285.66c-.14,1,1.23,1.7,2.92,1.54l11.54-1.06c1-.09,1.8-.59,1.88-1.16L32.8,183.71Zm0,0"/><path class="cls-24" d="M16,182.89,1.45,285.6s-.39,1.51,2.53,1.34,4.54-.41,4.54-.41L23,182.32Z"/><path class="cls-24" d="M86.22,108.8,30.58,163.47s-1-1.7,1.39,0,5.81.6,5.81.6L93,111.87Z"/><path class="cls-24" d="M35.77,166s0,1.67-2.73,2.2l-5.63-.85s-.89-.22.85-1.34-.75-1.17-.75-1.17Z"/><path class="cls-24" d="M31.27,169.28s1,1.18-2.12,1.85l-6.37-.24s-1.22-.32.28-1.39,4.6-.56,4.6-.56Z"/><path class="cls-24" d="M27.6,172.31s.88,1.09-1.6,1.49l-7.77,0s-.6-.06.2-.69l.7-.64a4.48,4.48,0,0,1,1.39-.21Z"/><path class="cls-24" d="M24.49,175.14s1,.67-.49,1.4l-7.9.54s-.64,0-.42-.45a1.6,1.6,0,0,1,.94-1C17.09,175.51,24.38,175.05,24.49,175.14Z"/><path class="cls-24" d="M23.73,177.7s1.17.49,0,1.39c0,0-7.88.88-8.36.87s-.56-.29-.47-.56a1.31,1.31,0,0,1,1.08-1C16.73,178.31,23.31,177.62,23.73,177.7Z"/><path class="cls-24" d="M23.43,180s-7.89.74-8.44,1.05-.5,1.18-.19,1.27,2.62-.14,8.45-.83C23.25,181.44,24.74,180.5,23.43,180Z"/><path class="cls-10" d="M74.79,133.82S85.63,157,98.36,160.39c6.55,1.77,28.15-22.62,28.15-22.62s2.74-.63,2,2.76c-.47,2.05-18.33,21.12-28.18,23.54S72.68,140.3,72.68,140.3l-3.17-1S69.68,129.63,74.79,133.82Z"/><path class="cls-10" d="M73.83,136.47s-7.37-12.11.63-11.43S80.08,138,80.08,138l-2.81,2.56"/><path class="cls-10" d="M75.4,143.16s-2.56,3-4.23,2.6c-3.75-.86-10.2-9.7-6.37-11.62s6.37,4.34,6.37,4.34"/><path class="cls-10" d="M75.66,134.65s-3-8-7.28-5.61c-4.75,2.61,3.12,11.49,3.12,11.49"/><path class="cls-10" d="M49.72,141.47s-2.5-.62-3,1.16a4.32,4.32,0,0,0,2.58,5.08c2.24.82,4.69-.22,3.31-3.4S49.72,141.47,49.72,141.47Z"/><path class="cls-10" d="M50.86,136.87s-5.12,1.71-.9,6.72S56,145.66,56.4,145s.63-2.75-1.63-4.66S50.86,136.87,50.86,136.87Z"/><path class="cls-10" d="M57.8,136.27s2.24,1.87,0,4.41-7.59-2.62-7-4.85c.37-1.46,3.23-5,8-.74"/></g></g></svg>