<svg xmlns="http://www.w3.org/2000/svg" xmlns:xlink="http://www.w3.org/1999/xlink" viewBox="0 0 261.53 289.41"><defs><style>.cls-1{isolation:isolate;}.cls-2{fill:#895800;stroke:#473300;}.cls-2,.cls-3,.cls-30,.cls-34{stroke-miterlimit:10;}.cls-3,.cls-32{fill:#e476ff;}.cls-3{stroke:#47201f;}.cls-4{fill:#9d13bf;}.cls-30,.cls-5{fill:#221f1f;}.cls-6{fill:url(#linear-gradient);}.cls-7{fill:#f93a3a;}.cls-8{fill:url(#linear-gradient-2);}.cls-9{fill:#ffda22;}.cls-10,.cls-11,.cls-21,.cls-22,.cls-23,.cls-24,.cls-25,.cls-26,.cls-27,.cls-33{mix-blend-mode:multiply;}.cls-10{fill:url(#linear-gradient-3);}.cls-11{fill:url(#linear-gradient-4);}.cls-12{fill:#ba2025;}.cls-13{fill:#ffc10d;}.cls-14{fill:url(#linear-gradient-5);}.cls-15{fill:url(#linear-gradient-6);}.cls-16{fill:url(#linear-gradient-7);}.cls-17{fill:url(#linear-gradient-8);}.cls-18{fill:url(#linear-gradient-9);}.cls-19{fill:url(#linear-gradient-10);}.cls-20{fill:url(#linear-gradient-11);}.cls-21{fill:url(#linear-gradient-12);}.cls-22{fill:url(#linear-gradient-13);}.cls-23{fill:url(#linear-gradient-14);}.cls-24{fill:url(#linear-gradient-15);}.cls-25{fill:url(#linear-gradient-16);}.cls-26{fill:url(#linear-gradient-17);}.cls-27{fill:url(#linear-gradient-18);}.cls-28{fill:#b71d29;}.cls-29{fill:url(#linear-gradient-19);}.cls-30{stroke:#eee8d2;stroke-width:4px;}.cls-31{fill:url(#linear-gradient-20);}.cls-33{fill:url(#linear-gradient-21);}.cls-34,.cls-36{fill:#ece5e3;}.cls-34{stroke:#5f4d45;}.cls-35{fill:#0b1e34;}.cls-37{fill:#83381b;}.cls-38{fill:#550f0e;}.cls-39{fill:#440a0a;}.cls-40{fill:#e95f5e;}.cls-41{fill:#f27373;}.cls-42{fill:#fdbd2c;}</style><linearGradient id="linear-gradient" x1="11499.02" y1="-11667.46" x2="11684.67" y2="-11667.46" gradientTransform="matrix(0.03, 0.61, -0.69, 0.21, -8343.5, -4520.23)" gradientUnits="userSpaceOnUse"><stop offset="0.01" stop-color="#e68625"/><stop offset="1" stop-color="#f9a748"/></linearGradient><linearGradient id="linear-gradient-2" x1="11499.02" y1="-11667.46" x2="11684.67" y2="-11667.46" gradientTransform="matrix(0.03, 0.61, -0.69, 0.21, -8343.5, -4520.23)" gradientUnits="userSpaceOnUse"><stop offset="0.01" stop-color="#1f0c0d"/><stop offset="1" stop-color="#565759"/></linearGradient><linearGradient id="linear-gradient-3" x1="11499.01" y1="-11647.53" x2="11684.68" y2="-11647.53" xlink:href="#linear-gradient"/><linearGradient id="linear-gradient-4" x1="11499.01" y1="-11621.39" x2="11684.67" y2="-11621.39" xlink:href="#linear-gradient"/><linearGradient id="linear-gradient-5" x1="-476.28" y1="-6563.12" x2="-482.94" y2="-6565.28" gradientTransform="matrix(0.05, 0.82, -0.91, 0.27, -5754.5, 2211.36)" xlink:href="#linear-gradient"/><linearGradient id="linear-gradient-6" x1="-454.07" y1="-6522.9" x2="-471.47" y2="-6528.55" gradientTransform="matrix(0.05, 0.82, -0.91, 0.27, -5754.5, 2211.36)" xlink:href="#linear-gradient"/><linearGradient id="linear-gradient-7" x1="-460.24" y1="-6489.44" x2="-477.64" y2="-6495.08" gradientTransform="matrix(0.05, 0.82, -0.91, 0.27, -5754.5, 2211.36)" xlink:href="#linear-gradient"/><linearGradient id="linear-gradient-8" x1="-436.64" y1="-6490.9" x2="-445.1" y2="-6493.65" gradientTransform="matrix(0.05, 0.82, -0.91, 0.27, -5754.5, 2211.36)" xlink:href="#linear-gradient"/><linearGradient id="linear-gradient-9" x1="9564.71" y1="-9073.65" x2="9557.63" y2="-9075.95" gradientTransform="matrix(0.05, 0.82, -0.91, 0.27, -8568.92, -5269.99)" xlink:href="#linear-gradient"/><linearGradient id="linear-gradient-10" x1="9589.76" y1="-9082.36" x2="9582.68" y2="-9084.66" gradientTransform="matrix(0.05, 0.82, -0.91, 0.27, -8568.92, -5269.99)" xlink:href="#linear-gradient"/><linearGradient id="linear-gradient-11" x1="9617.32" y1="-9092.42" x2="9611.89" y2="-9094.18" gradientTransform="matrix(0.05, 0.82, -0.91, 0.27, -8568.92, -5269.99)" xlink:href="#linear-gradient"/><linearGradient id="linear-gradient-12" x1="9675.39" y1="-9128.01" x2="9537.44" y2="-9172.79" gradientTransform="matrix(0.05, 0.82, -0.91, 0.27, -8568.92, -5269.99)" xlink:href="#linear-gradient"/><linearGradient id="linear-gradient-13" x1="9681.76" y1="-9146.74" x2="9543.17" y2="-9191.73" gradientTransform="matrix(0.05, 0.82, -0.91, 0.27, -8568.92, -5269.99)" xlink:href="#linear-gradient"/><linearGradient id="linear-gradient-14" x1="9675.96" y1="-9129.76" x2="9538.01" y2="-9174.55" gradientTransform="matrix(0.05, 0.82, -0.91, 0.27, -8568.92, -5269.99)" xlink:href="#linear-gradient"/><linearGradient id="linear-gradient-15" x1="9671.68" y1="-9116.56" x2="9533.72" y2="-9161.34" gradientTransform="matrix(0.05, 0.82, -0.91, 0.27, -8568.92, -5269.99)" xlink:href="#linear-gradient"/><linearGradient id="linear-gradient-16" x1="9664.24" y1="-9093.65" x2="9526.28" y2="-9138.43" gradientTransform="matrix(0.05, 0.82, -0.91, 0.27, -8568.92, -5269.99)" xlink:href="#linear-gradient"/><linearGradient id="linear-gradient-17" x1="9672.06" y1="-9117.75" x2="9534.11" y2="-9162.54" gradientTransform="matrix(0.05, 0.82, -0.91, 0.27, -8568.92, -5269.99)" xlink:href="#linear-gradient"/><linearGradient id="linear-gradient-18" x1="9679.29" y1="-9140.02" x2="9541.33" y2="-9184.8" gradientTransform="matrix(0.05, 0.82, -0.91, 0.27, -8568.92, -5269.99)" xlink:href="#linear-gradient"/><linearGradient id="linear-gradient-19" x1="1542.4" y1="-9072.14" x2="1535.83" y2="-9074.27" gradientTransform="matrix(0.03, 0.61, -0.69, 0.21, -6216.4, 1063.48)" xlink:href="#linear-gradient"/><linearGradient id="linear-gradient-20" x1="15121.17" y1="-7869.77" x2="15306.83" y2="-7869.77" gradientTransform="matrix(0.29, 0.49, -0.62, 0.42, -9208.28, -3922.94)" xlink:href="#linear-gradient"/><linearGradient id="linear-gradient-21" x1="12388.61" y1="-6270.15" x2="12250.03" y2="-6315.13" gradientTransform="matrix(0.39, 0.66, -0.82, 0.56, -9748.73, -4456.29)" xlink:href="#linear-gradient"/></defs><g class="cls-1"><g id="Layer_1" data-name="Layer 1"><path class="cls-2" d="M194.06,218.33s-.18-3.65,3-3,9.66,19,9.66,19l11.65.4a12.19,12.19,0,0,1,7.65,6.31c4.44,9,.8,8.17-6.71-.68-.4-.47-1.35,3.58-1.78,3.06s-.18-5.44-.56-5.92l-10.15,1.88a3,3,0,0,1-3.24-1.63Z"/><path class="cls-2" d="M170.4,260.55l.08-.05c1.63-.92,7.75-1.37,11.68-.63,0,0-4.45-9.25-6.67-13.29-.24-.43,2.93-2.72,2.93-2.72s6.78,16.43,4.65,17.19c-1.38.49-9.61.12-9.61.12,4.73,3.42,10.14,10.2,10,13.67C181.64,278.15,172.88,266.91,170.4,260.55Z"/><path class="cls-3" d="M188.89,232q-.91,2.84-2,5.44a54.17,54.17,0,0,1-12.33,18,51.78,51.78,0,0,1-7.8,6.14,52.87,52.87,0,0,1-18.32,7.37,45.6,45.6,0,0,1-11.07.84c-6.53-.34-11.91-2.25-14.83-5.33-3.44-3.64-3.45-8.91,2.16-15.12q1.53-1.7,3.18-3.32c1.64-1.6,3.35-3.15,5.12-4.63A122.61,122.61,0,0,1,151,228.94q3.36-1.91,6.68-3.59a193.73,193.73,0,0,1,33.17-13.16C205.94,213.06,188.89,232,188.89,232Z"/><path class="cls-4" d="M177.35,220.75c2.6,9.82,7.07,13.87,6.85,18.79-.24,5.54-6.66,12.63-9.56,15.39a60.53,60.53,0,0,1-8.62,6.53,47.34,47.34,0,0,1-17.31,7.06,49.71,49.71,0,0,1-11.46,1c-6.53-.34-11.82-2.67-14.74-5.75l1.36-.11c26.78-2.9,55.95-15.38,48.87-25.77-14.24-20.89-.55-20-.55-20Z"/><path class="cls-5" d="M181,217.41c10.61-7.2,20-25.43,24.52-33,5.95-10,11.74-20.21,17.14-30.41,13.37-25.26,24.81-51.4,31.62-77.47,5.17-19.81,9-41.15,3.87-58.77-1.91-6.61-5.68-12.42-12.1-15.31-7.81-3.52-18.31-1.17-27.62,2.64-12.1,4.94-23.79,12.86-35,20.06C171.1,33.09,150.33,38.7,137.1,39.84,113,41.91,94.72,64.37,96.28,85.89c.85,11.79,20.33,40.18,25.5,49.73,5.89,10.91,11.42,22.06,17.59,32.78s12.71,21,17.79,32.46c2.91,6.57,5.81,19.6,15.47,19.55A15.19,15.19,0,0,0,181,217.41Z"/><path class="cls-6" d="M157.58,224.32A62.8,62.8,0,0,1,142.29,226c-10.17.1-19.83-1.48-29.44-2.87a181,181,0,0,1-52.1-16.2A129.3,129.3,0,0,1,39,193.7c-6.07-4.57-12.1-9.66-16.27-15.93s-5.6-14.54,1.24-22.66c5.67-6.73,14.63-10.54,22.41-13.2a149.67,149.67,0,0,1,42.13-7.53c7.25-.28,14.5.1,20.76,2.23s10.83,6,15,10.33c9.34,9.87,15.68,22.51,22.22,34.42,3.22,5.86,6.37,11.76,9.55,17.64,1.63,3,3.22,6.05,4.9,9,1.38,2.44,3.47,4.77,3.76,7.81C165,219.65,162,223.18,157.58,224.32Z"/><path class="cls-7" d="M176.29,158.38c-.9,5.38-.4,10.53,0,15.6.58,7.26,1.35,14.57.48,22.2,0,.36-.09.72-.14,1.08,1.85-4.82,3.74-9.66,5.31-14.53,2.34-7.22,4.72-14.39,6.61-21.63,1-4,1.91-8,2.92-12C186.26,143.53,177.56,150.81,176.29,158.38Z"/><path class="cls-7" d="M228.4,47.16c-.55-3.31-4-12.62-10.06-8.37-5.06,3.57-3.74,13.61-3.44,17.56.51,6.74,2.09,13.12,2.45,19.92.87,16.45-.13,33.93-6.33,51.41a9,9,0,0,1,1.69,2.22,13.7,13.7,0,0,1,1.42,7.42c.09-2.49,2.18-6.33,3-8.91q1.46-4.55,2.75-9.09,2.67-9.41,4.53-18.79a210,210,0,0,0,4-36.55c.11-5.6.85-11.42,0-16.76C228.41,47.2,228.4,47.18,228.4,47.16Z"/><path class="cls-7" d="M212.19,51c-3.46-5.59-11.78-8-19.68-3.52-12,6.88-8.49,18.88-5.87,26.79,4,12.07,8,23.4,8.56,36.94a179.48,179.48,0,0,1-.7,28c2.12-5.29,5.78-11.66,11.36-13a5.1,5.1,0,0,1,2.89.1c8.45-24.52,5.84-47.8,3.82-70.65C212.47,54.49,212.28,52.84,212.19,51Z"/><path class="cls-7" d="M164.6,80.79l.21.29a.85.85,0,0,1-.06.92,74.86,74.86,0,0,0,3.11,12.89c5.7,18,9.83,36.44,8.71,56.69a14.76,14.76,0,0,1,4.24-4.4c4-2.72,7.67-3.31,10.55-2A158.11,158.11,0,0,0,193,124.81c.25-8.66.18-17.44-1.27-25.59-1.32-7.39-4-14.09-6.36-21-1.69-4.94-4-10.45-3.82-16.27h-.05c-3.76-.22-9.72-.39-13.25,3.17a13.86,13.86,0,0,0-3.73,9.17A37.71,37.71,0,0,0,164.6,80.79Z"/><path class="cls-7" d="M136.11,88.48c-3.71,8.33-1.74,16.13.67,23,3.43,9.76,8.1,18.79,11.94,28.31a112.18,112.18,0,0,1,4.74,13.8c.49,1.91.83,3.89,1.18,5.88a13.61,13.61,0,0,1,1.94-1.29c5.47-3,12-3.92,16.9-2.29a129.83,129.83,0,0,0-3-41.19c-2.12-9-5.71-17.36-7.68-26.46-.41-1.89-.86-4-1.16-6.17C156.35,74.59,141.07,77.32,136.11,88.48Z"/><path class="cls-7" d="M172,210.17c1.26-8,2.72-16.08,2.35-23.94-.36-7.65-1.71-15.18-1.18-23.07a35.17,35.17,0,0,1,.57-4.32c-5-2.05-14.89-.47-19,3.91A180.3,180.3,0,0,1,164.14,185a112,112,0,0,1,4.25,15.85,64,64,0,0,0,2.14,9c.25.74.54,1.51.85,2.27C171.58,211.53,171.8,210.85,172,210.17Z"/><path class="cls-7" d="M194.27,148c-1,3.87-1.72,7.75-2.66,11.55a255.27,255.27,0,0,1-9.11,29c-2.72,7.19-5.72,14.39-7.91,21.6-.24,1.44-.46,2.87-.67,4.3.3-2.13,4.47-6.78,5.83-8.9q2.92-4.54,5.74-9.12c3.82-6.22,7.47-12.49,10.88-18.83,4.38-8.18,8.93-16.38,11.94-24.82,2.45-6.85,5.33-17.05,1.11-22.09-2.77-3.33-6.22-2.08-9.07,2.35A48.89,48.89,0,0,0,194.27,148Z"/><path class="cls-8" d="M157.58,224.32A62.8,62.8,0,0,1,142.29,226c-10.17.1-19.83-1.48-29.44-2.87a181,181,0,0,1-52.1-16.2A129.3,129.3,0,0,1,39,193.7c-6.07-4.57-12.1-9.66-16.27-15.93s-5.6-14.54,1.24-22.66c5.67-6.73,14.63-10.54,22.41-13.2a149.67,149.67,0,0,1,42.13-7.53c7.25-.28,14.5.1,20.76,2.23s10.83,6,15,10.33c9.34,9.87,15.68,22.51,22.22,34.42,3.22,5.86,6.37,11.76,9.55,17.64,1.63,3,3.22,6.05,4.9,9,1.38,2.44,3.47,4.77,3.76,7.81C165,219.65,162,223.18,157.58,224.32Z"/><path class="cls-7" d="M93.65,154.38l.37.41s0,.06,0,.09a39.79,39.79,0,0,0,5.82,5.17c5.74,4.42,12.08,8.2,17.9,12.55a220.68,220.68,0,0,1,26.35,23,117.3,117.3,0,0,1,11.28,12.74c2.83,3.93,5.34,8.09,7.92,12.2a7,7,0,0,0,1.29-4.65c-.29-3-2.38-5.37-3.76-7.81-1.68-3-3.27-6-4.9-9-3.18-5.88-6.33-11.78-9.55-17.64q-1.5-2.73-3-5.51c-2.62-3.17-4.19-7.32-6.83-10.44-4.08-4.85-8.91-8.77-13.85-12.8-4-3.21-8.34-6.23-13.56-7.86-4.21-1.32-10.64-2.3-15.56,1.29C90.29,148.47,91.43,151.63,93.65,154.38Z"/><path class="cls-7" d="M162.72,221.26c-3.77-5.92-7.4-11.89-12-17.19a199.54,199.54,0,0,0-15.62-16,243.32,243.32,0,0,0-30.36-23.45c-4-2.65-8.59-5.54-11.5-9.44h0c-3.45-4-8.56-6.86-13.71-8.9s-12.2-4.27-18.8-1.47c-2.42,1-5.43,3-6.41,5.49a5.86,5.86,0,0,0,.89,5.7c2.13,3,5.36,5.27,8.73,7.16a7.72,7.72,0,0,0,.78.14.31.31,0,0,1,.27.44l1.61.85c7,3.61,14.59,6.37,21.9,9.5,8.33,3.57,16.53,7.33,24.42,11.5,1.15.49,2.28,1,3.4,1.54a.26.26,0,0,1,.13.38c1.57.87,3.14,1.75,4.68,2.65a207,207,0,0,1,22.34,15.2l1.27.79a.34.34,0,0,1,.13.3q3.5,2.79,6.84,5.71a86.13,86.13,0,0,1,7.37,7.68c.78.88,1.58,1.76,2.4,2.6A8.63,8.63,0,0,0,162.72,221.26Z"/><path class="cls-7" d="M123.57,195.81c-6.23-2.6-13.75-5.65-21.7-4.39-3.18.5-6.86,2.05-8.8,5.1-2.88,4.51-.43,8.74,1.93,11.61,5.56,6.75,13.82,11.84,22.15,15.55l.17.08c8.14,1.19,16.37,2.31,25,2.22a62.8,62.8,0,0,0,15.29-1.66,10.61,10.61,0,0,0,3.14-1.37c-2-2-3.81-4.19-5.69-6.31a76.28,76.28,0,0,0-9.85-8.76l-2.28-1.79A130,130,0,0,0,123.57,195.81Z"/><path class="cls-9" d="M110.19,185.37c-7-2.76-14.67-5.19-22.92-5.59-6.66-.32-16.92,1.17-19.63,9.64-1.74,5.46,1.45,10.09,4.52,13.36a46.86,46.86,0,0,0,11.24,8.5,198,198,0,0,0,23.41,10.83q3,.55,6,1l1.51.22a71.88,71.88,0,0,1-14.8-9.47c-4-3.36-12-10.13-7.35-17.34,3.78-5.93,10.86-6.57,16.2-6,7.74.83,14.66,3.84,21.05,7,2.26,1.11,4.48,2.29,6.67,3.51-1.25-.89-2.5-1.78-3.77-2.66a207.21,207.21,0,0,0-20.07-12.13C111.59,185.94,110.89,185.64,110.19,185.37Z"/><path class="cls-7" d="M38.33,171.4c.29-.05.43.24.38.49a18,18,0,0,0,1.36,1.26,42.94,42.94,0,0,0,9.46,5.74,75.7,75.7,0,0,0,19.26,6.3.35.35,0,0,1,.25.16,16.18,16.18,0,0,1,7.4-5.06c7.59-2.64,15.63-1.08,22,.52,2.51.62,5,1.34,7.39,2.14-.79-.39-1.58-.79-2.38-1.17-9.44-4.53-19.29-8.43-29-12.61a108.75,108.75,0,0,1-11.09-5.32c-6.24-1.39-27-8.84-27.45,1.8a8,8,0,0,0,2.29,5.77Z"/><path class="cls-7" d="M37.78,172.38c-4.3,1.08-2.67,5.06-1.41,7.25a39.94,39.94,0,0,0,6.57,8.25c3.27,3.23,7.57,5.46,11.79,7.62,5.89,3,12,5.75,17.66,9.06A21.25,21.25,0,0,1,67,196.48a11,11,0,0,1,1.61-10.57h0a74.46,74.46,0,0,1-21.35-7.27C44.19,177.1,40.33,175.14,37.78,172.38Z"/><path class="cls-10" d="M69,185.35a16.18,16.18,0,0,1,7.4-5.06c7.33-2.55,15.08-1.18,21.4.36a76.12,76.12,0,0,0-13.39-5.17c-4.39-1.16-9.39-2.3-14.42-1.87a32.53,32.53,0,0,0-9,2c-1.23.49-3.36,1.31-4,2.62-.82,1.61.76,2.81,1.71,3.57.2.16.07.53-.17.71a64.19,64.19,0,0,0,10.27,2.66A.35.35,0,0,1,69,185.35Z"/><path class="cls-11" d="M68.55,185.91a67.77,67.77,0,0,1-12.68-3.46c-3.91.14-8.31,2.45-8.33,7a8.44,8.44,0,0,0,.3,2.22c2.2,1.4,4.56,2.62,6.89,3.82,5.89,3,12,5.75,17.66,9.06A21.25,21.25,0,0,1,67,196.48a11,11,0,0,1,1.61-10.57Z"/><path class="cls-12" d="M241.78,22.14c2.57-.35,5.31-1.91,5.57-4.74a5.44,5.44,0,0,0-2.87-5,8,8,0,0,0-3.57-.63,5.5,5.5,0,0,0-5.15,6.83C236.42,21,238.83,22.54,241.78,22.14Z"/><path class="cls-13" d="M209.63,26.68c-2.39-1.61-1.38-6,1.86-7.85a5.81,5.81,0,0,1,1.09-.49c0-.21.09-.42.46-.49,3.9-.68,7.89,2.24,5.14,6.4C216.11,27.39,212,28.28,209.63,26.68Z"/><path class="cls-14" d="M187.14,37.7c-1.53-.86-1.83-3.57.2-5.1a2.7,2.7,0,0,1,3.47-.15c1,.3,1.32,1.57.79,2.75C190.83,36.88,188.71,38.57,187.14,37.7Z"/><path class="cls-15" d="M153.4,67c-5.16.5-8.58-3.62-6.81-8.63,1.9-5.37,7.74-8.4,12.38-6.62,2.29.87,4.26,3.17,4,5.73C163.47,61.7,158.55,66.55,153.4,67Z"/><path class="cls-16" d="M122.69,71.07c-5.15.49-8.57-3.62-6.8-8.63,1.9-5.38,7.74-8.4,12.38-6.63,2.28.88,4.26,3.18,4,5.74C132.77,65.72,127.85,70.57,122.69,71.07Z"/><path class="cls-17" d="M120.86,88.21c-.65-2.53,1.81-5.52,4.75-5.8a3,3,0,0,1,2.64.88c1.84.76,2,3.35-.15,5.21C125.79,90.5,121.53,90.81,120.86,88.21Z"/><path class="cls-18" d="M125.13,111.39c2.93-2,1.4-5.22-1-5.45a3,3,0,0,0-1.89.57,2.24,2.24,0,0,0-.57.3,3.78,3.78,0,0,0-1.32,2.71,2.69,2.69,0,0,0,1.08,2.56C122.43,112.73,124,112.18,125.13,111.39Z"/><path class="cls-19" d="M134.21,129.57c2.93-2,1.4-5.22-1-5.44a3,3,0,0,0-1.89.56,2.77,2.77,0,0,0-.56.3,3.73,3.73,0,0,0-1.32,2.72,2.66,2.66,0,0,0,1.07,2.56C131.51,130.92,133,130.37,134.21,129.57Z"/><path class="cls-20" d="M144.06,149.68a2.21,2.21,0,0,0-.78-4.18,2.33,2.33,0,0,0-1.45.44,1.65,1.65,0,0,0-.43.23,2.89,2.89,0,0,0-1,2.07,2.09,2.09,0,0,0,.82,2C142,150.71,143.16,150.28,144.06,149.68Z"/><path class="cls-7" d="M202.17,179.24l.35-.72c1.51-3.42,2.59-6.94,4-10.38s2.76-6.8,4.13-10.2c2.83-7.09,5.62-14.19,8.18-21.3a249.71,249.71,0,0,0,11.67-42.77c2.44-14.47,3.14-28.69,5.54-43.15a79.76,79.76,0,0,1,1.95-9.9c.77-2.58,2-6.42,5.14-7.68,4.35-1.75,6.55,3.21,7.66,5.73a36.43,36.43,0,0,1,2.57,17.43c-1,13.38-6.11,27-11.84,40.41-5.8,13.56-12,27.05-17.65,40.64-5,12-10.11,24-16.57,35.64-.62,1.45-1.46,2.81-2,4.26a6.3,6.3,0,0,1-1.82,2.72C202.82,180.47,201.85,179.89,202.17,179.24Z"/><path class="cls-21" d="M186.87,162c-1-2.12-4.3-2.68-6,.32-1.57,2.82-1.93,5.9-2.24,8.74-.88,8.1-.59,16-1.21,24,1.58-4.11,3.14-8.22,4.48-12.37,1.89-5.83,3.79-11.63,5.45-17.46A7.65,7.65,0,0,0,186.87,162Z"/><path class="cls-22" d="M212.39,123.52c-.43,1.39-.88,2.77-1.37,4.16a3.08,3.08,0,0,1,.24.27C211.67,126.49,212,125,212.39,123.52Z"/><path class="cls-23" d="M210,122.51c1.94-11.06,3.54-22.46,1.88-32.7a25.4,25.4,0,0,0-4-10.79c-1.31-1.88-4.73-6.76-8.36-4.42-5.85,3.78-5.3,12.14-4.53,16.58a114.67,114.67,0,0,1,1.87,14.63,105.09,105.09,0,0,1-.36,18.81c-.41,3-1,6.1-1.48,9.15-.14,1.79-.29,3.59-.5,5.39,2.12-5.29,5.78-11.66,11.36-13a5.1,5.1,0,0,1,2.89.1C209.18,125,209.58,123.76,210,122.51Z"/><path class="cls-24" d="M192.18,138.57c-.64-5.65,0-11.93-.26-17.63a74.19,74.19,0,0,0-1.49-12.6c-.7-3-1.64-6.64-4.14-8.51-2.78-2.08-7.27-.91-9,3.3-2,4.79-1.92,9.85-1.68,14.36.22,4.3,1,8.42,1,12.77,0,1.88-.06,3.77-.16,5.66a121.74,121.74,0,0,1,.15,15.66,14.76,14.76,0,0,1,4.24-4.4c4-2.72,7.67-3.31,10.55-2C191.71,143,192,140.77,192.18,138.57Z"/><path class="cls-25" d="M173.85,138.58c-.91-4.11-1.35-8.42-2.2-12.57a35.31,35.31,0,0,0-4.93-12.41c-1.92-3-4.25-6.35-7.87-7.64a9.22,9.22,0,0,0-11,5.1c-3.42,7.69-.13,15.64,1.57,22.09a128.4,128.4,0,0,1,3.48,18.26c.21.71.42,1.42.61,2.15.49,1.91.83,3.89,1.18,5.88a13.61,13.61,0,0,1,1.94-1.29c5.47-3,12-3.92,16.9-2.29A130.1,130.1,0,0,0,173.85,138.58Z"/><path class="cls-26" d="M172,210.17c1.26-8,2.72-16.08,2.35-23.94-.09-1.92-.24-3.83-.41-5.75-.87-2.81-1.66-5.7-3.44-7.93-1.25-1.57-3.38-3.25-6.12-1.67a7.28,7.28,0,0,0-3.23,4.25c-.12.38-.2.75-.29,1.12,1.17,2.89,2.26,5.81,3.26,8.79a112,112,0,0,1,4.25,15.85,64,64,0,0,0,2.14,9c.25.74.54,1.51.85,2.27C171.58,211.53,171.8,210.85,172,210.17Z"/><path class="cls-27" d="M202.14,158c-.84-3-4.57-4.61-7.47-.76a28.24,28.24,0,0,0-3.85,7.63c-2.75,7.65-5.11,15.34-7.89,23s-5.61,15.17-8.42,22.76c-.21,1.26-.41,2.53-.59,3.79.3-2.13,4.47-6.78,5.83-8.9q2.92-4.54,5.74-9.12c3.82-6.22,7.47-12.49,10.88-18.83,1.79-3.34,3.6-6.68,5.33-10C202.56,164.13,202.89,160.69,202.14,158Z"/><path class="cls-13" d="M27.24,170.24a2.16,2.16,0,0,1-2.4-3,3.58,3.58,0,0,1,4.38-2.32,2,2,0,0,1,1.4,2C30.81,168.37,29.07,170.06,27.24,170.24Z"/><path class="cls-28" d="M40.08,158.1c-3.38.33-5.62-2.33-4.46-5.58,1.24-3.48,5.08-5.46,8.12-4.32a3.78,3.78,0,0,1,2.61,3.7C46.69,154.61,43.46,157.76,40.08,158.1Z"/><path class="cls-29" d="M82.72,142.59a1.76,1.76,0,0,1-2-2.43,2.9,2.9,0,0,1,3.55-1.88,1.64,1.64,0,0,1,1.13,1.61C85.6,141.07,84.19,142.44,82.72,142.59Z"/><path class="cls-30" d="M191.39,207.38c8-9.86,10.17-28.35,11.68-36.25,2-10.46,3.78-21,5.15-31.37,3.4-25.75,4.43-51.49.73-75.47-2.82-18.22-7.7-37.18-20.19-49.8A26,26,0,0,0,170,6.38c-9.49,0-19.34,5.83-27.37,12.42-10.43,8.55-19.22,19.4-27.81,29.49C105.37,59.4,86.28,71.72,73.11,77.56c-24,10.66-33.56,35.9-23.1,53,5.72,9.38,37.46,25.52,46.71,31.47,10.55,6.79,20.83,13.91,31.59,20.45s21.74,12.58,31.68,20.11c5.7,4.33,14,14,24,10.35A17.11,17.11,0,0,0,191.39,207.38Z"/><path class="cls-31" d="M170.07,221.77a80.3,80.3,0,0,1-15.07,7c-10.44,3.86-21,6.14-31.51,8.56a248.22,248.22,0,0,1-60.32,6,172.25,172.25,0,0,1-27.87-2.8c-8.13-1.51-16.43-3.46-23.3-7.08s-11.76-9.88-8-19.1c3.08-7.64,10.74-14.1,17.66-19.17a183.67,183.67,0,0,1,40.3-21.82c7.36-2.91,15-5.29,22.3-5.86a48.41,48.41,0,0,1,19.66,2.95c13.67,4.66,25.41,12.71,37,20.08,5.72,3.63,11.39,7.32,17.08,11,2.92,1.87,5.8,3.79,8.76,5.61,2.43,1.5,5.54,2.64,7.08,5C175.77,215.18,174.13,219.19,170.07,221.77Z"/><path class="cls-9" d="M162.23,160.57c1.28,4.76,3.91,8.81,6.41,12.84,3.58,5.75,7.37,11.49,9.62,18.09l.3.94c-.08-4.66-.12-9.33-.5-13.92-.57-6.82-1.06-13.6-2.09-20.26-.57-3.67-1.33-7.3-1.95-11C166.39,144.65,160.42,153.87,162.23,160.57Z"/><path class="cls-7" d="M170.17,49.73c-1.93-2.52-9.33-8.89-13.8-3.15-3.74,4.81,1.74,12.58,3.67,15.72,3.3,5.36,7.55,10,10.71,15.48,7.66,13.22,13.82,28,14.63,44.65a10.76,10.76,0,0,1,2.65,1.2,11.82,11.82,0,0,1,4.51,5.58c-.93-2.08-.35-6-.56-8.45-.24-2.85-.53-5.69-.89-8.5Q190,103.53,188,95.12a158.34,158.34,0,0,0-10.94-31.55c-2.19-4.64-3.82-9.71-6.89-13.79Z"/><path class="cls-7" d="M155,58.88c-5.86-3.32-15.44-2.26-21.72,4.4-9.55,10.12-1,18.69,5,24.22,9.09,8.45,17.84,16.29,24,27.22A138.12,138.12,0,0,1,173.08,138c0-5.14,1.16-11.73,6.36-14.91a6.69,6.69,0,0,1,3-1c-1.39-23.3-13.64-41.49-25.12-59.54C156.77,61.67,155.9,60.38,155,58.88Z"/><path class="cls-7" d="M118.29,101.06c.1.06.22.1.32.16a.67.67,0,0,1,.32.78,67.13,67.13,0,0,0,8.51,9.46c13.28,12.72,25.11,26.33,32.27,43.41a12.54,12.54,0,0,1,2.56-5.19c3-3.73,6.54-5.57,10-5.56a120,120,0,0,0-6.74-17.35c-3.31-7.22-7-14.42-11.83-20.58-4.4-5.6-9.91-10.12-15.18-14.92-3.77-3.43-8.45-7.1-10.62-12l0,0c-4,1.23-10.17,3.29-12.35,7.53a10.35,10.35,0,0,0-.07,8.93A30,30,0,0,0,118.29,101.06Z"/><path class="cls-7" d="M92.1,118c-.4,8.22,4.84,13.91,10.13,18.65,7.55,6.75,16.08,12.45,24,18.87a103.22,103.22,0,0,1,10.54,9.59c1.3,1.39,2.47,2.9,3.64,4.4a13.3,13.3,0,0,1,1.46-1.78,27.4,27.4,0,0,1,16.47-8.15,104.42,104.42,0,0,0-20-32.8c-5.9-6.64-13-12.17-18.79-18.92-1.2-1.4-2.52-2.95-3.74-4.65C107.23,99,92.62,106.93,92.1,118Z"/><path class="cls-9" d="M179.12,204.77c-2-7.09-3.81-14.23-7.42-20.57-3.52-6.17-8-11.86-10.7-18.55a24.73,24.73,0,0,1-1.19-3.76c-6,.17-15.53,5.13-17.92,10.24A180.21,180.21,0,0,1,160.67,187a100.91,100.91,0,0,1,10.9,11.47,54.76,54.76,0,0,0,5.92,6.64c.56.52,1.17,1,1.81,1.56C179.22,206.05,179.17,205.41,179.12,204.77Z"/><path class="cls-9" d="M176.47,145.36c.59,3.54,1.42,7,2,10.49A185.83,185.83,0,0,1,181,183.09c.15,6.92,0,14,.73,20.7.34,1.27.71,2.53,1.08,3.79-.56-1.86,1.15-6.06,1.8-9.48a132.35,132.35,0,0,1,2.76-13c2.07-6.35,2.51-9.67,3.41-16.15,1.16-8.35,2.47-16.79,2.1-24.85-.29-6.54-1.52-16-7.94-18.59-4.23-1.7-7.26.6-8.38,5.3A36.15,36.15,0,0,0,176.47,145.36Z"/><path class="cls-30" d="M170.07,221.77c-4.75,3-7.09,3.53-11.78,6.17-7.73,4.35-21.08,8.68-31.56,11.1-20.25,4.67-44.26,4.71-63.56,4.31a172.25,172.25,0,0,1-27.87-2.8c-8.13-1.51-16.43-3.46-23.3-7.08s-11.76-9.88-8-19.1c3.08-7.64,10.74-14.1,17.66-19.17a183.67,183.67,0,0,1,40.3-21.82c7.36-2.91,15-5.29,22.3-5.86a48.41,48.41,0,0,1,19.66,2.95c13.67,4.66,25.41,12.71,37,20.08,5.72,3.63,11.39,7.32,17.08,11,2.92,1.87,5.8,3.79,8.76,5.61,2.43,1.5,5.54,2.64,7.08,5C175.77,215.18,174.13,219.19,170.07,221.77Z"/><path class="cls-7" d="M75.46,187.92l.55.2a.17.17,0,0,1,.08.06,49.07,49.07,0,0,0,8.13,2.09C92,191.79,100,192.54,107.81,194a277.81,277.81,0,0,1,36.58,9.12,138.29,138.29,0,0,1,16.86,6.3c4.53,2.18,8.82,4.68,13.17,7.1a3.27,3.27,0,0,0-.59-3.36c-1.54-2.4-4.65-3.54-7.08-5-3-1.82-5.84-4.68-8.76-6.55-5.69-3.66-11.36-7.35-17.08-11-1.78-1.12-3.57-2.27-5.36-3.41-4-1.64-7.33-4.48-11.33-6.07-6.19-2.47-12.78-3.91-19.53-5.39a54.91,54.91,0,0,0-17.2-1.44c-4.87.47-11.9,2-15.49,6.83C69.57,184.31,72,186.48,75.46,187.92Z"/><path class="cls-7" d="M75.32,188.76c-5.2-2-11.64-2.47-17.78-2.24s-14.32,1-20,5.76c-2.08,1.75-4.36,4.49-4.35,6.9,0,2.13,1.53,3.49,3.26,4.35,3.44,1.71,7.68,2.35,11.94,2.66.33-.05.62-.11.86-.17s.46.08.46.26l2,.1c8.68.38,17.64-.17,26.46-.3,10.05-.16,20-.1,29.88.41,1.39,0,2.77,0,4.13,0,.23,0,.31.12.3.25q3,.19,5.91.45a272.57,272.57,0,0,1,29.26,4.22c.54.07,1.09.12,1.63.18a.34.34,0,0,1,.26.2c3.16.67,6.29,1.38,9.39,2.16a101.69,101.69,0,0,1,10.74,3.59c1.17.43,2.35.86,3.56,1.25a8.17,8.17,0,0,0,.83-1.45c-6.32-3.48-12.51-7-19.47-9.69-7.35-2.79-14.9-5.26-22.66-7.35a312.25,312.25,0,0,0-40.91-8"/><path class="cls-7" d="M123.3,210.92c-7.47.17-16.47.45-24.14,4.43-3.08,1.59-6.23,4.23-7,7.46-1.11,4.78,3.16,7.35,6.77,8.84,8.5,3.49,19.1,4.62,29.2,4.59.07,0,2-.45,2.12-.45a212.94,212.94,0,0,0,26.17-8.3c5.05-1.87,8.24-4.57,13-7.57,1.07-.68,2.61.39,3.32-.44-2.88-.93-5.65-2-8.46-3.09a95.18,95.18,0,0,0-13.75-3.55c-1-.22-2.05-.42-3.08-.63A174.47,174.47,0,0,0,123.3,210.92Z"/><path class="cls-9" d="M105.23,207.29c-8.38.33-17.24,1.17-25.9,3.9-7,2.2-16.95,7.23-16.25,15.2.44,5.15,5.63,7.77,10.14,9.32a59.78,59.78,0,0,0,15.08,2.83,266,266,0,0,0,28.55.23q3.33-.66,6.64-1.41l1.64-.38a95.72,95.72,0,0,1-19.13-2.3c-5.53-1.28-16.47-3.92-14.7-11.55,1.45-6.28,8.48-9.43,14.22-10.94,8.31-2.18,16.69-2.27,24.55-2.06,2.79.08,5.56.23,8.32.42-1.66-.27-3.31-.54-5-.79-8.4-1.25-17-2.07-25.67-2.54C106.91,207.24,106.07,207.25,105.23,207.29Z"/><path class="cls-7" d="M25.47,222.44a.41.41,0,0,1,.6.27c.63.2,1.27.37,1.92.52a56.18,56.18,0,0,0,12.1,1.22,103.64,103.64,0,0,0,22.43-2,.42.42,0,0,1,.32,0,15.62,15.62,0,0,1,5.54-6.91c6.73-5,15.66-6.68,22.93-7.75q4.26-.63,8.49-1l-2.93-.08c-11.59-.24-23.34.21-35,.36-4.57.06-9.17.1-13.61-.26-7,1.17-31.48,2.74-27.54,11.66a7.77,7.77,0,0,0,4.72,3.9S25.45,222.45,25.47,222.44Z"/><path class="cls-7" d="M25.31,223.45c-4,2.48-.67,5.15,1.53,6.49A45.5,45.5,0,0,0,37,234.29c4.7,1.45,10,1.69,15.28,1.9,7.31.3,14.72.28,21.91.9a23.08,23.08,0,0,1-8.89-4.64,8.37,8.37,0,0,1-2.69-9.29h0a101.46,101.46,0,0,1-25,1.94C33.86,225,29.07,224.78,25.31,223.45Z"/><path class="cls-12" d="M173.66,24.18c2.51-1.24,4.68-3.54,3.8-6-.68-1.85-2.79-2.8-5-3.06a10.91,10.91,0,0,0-3.94.8c-3.82,1.59-4.63,5.28-2.49,7.53C167.68,25.25,170.79,25.61,173.66,24.18Z"/><path class="cls-13" d="M142.42,39.84c-3.13-.44-3.9-4.44-1.32-7.14a7.73,7.73,0,0,1,.92-.82c-.11-.16-.08-.38.28-.57,3.74-2,9-1.08,7.92,3.37A7.46,7.46,0,0,1,142.42,39.84Z"/><path class="cls-13" d="M123.78,57.25A2.61,2.61,0,0,1,121.89,53a3.37,3.37,0,0,1,3.51-1.41,1.8,1.8,0,0,1,1.95,2C127.24,55.21,125.76,57.39,123.78,57.25Z"/><path class="cls-13" d="M98.13,94.35c-5.11,2.32-10.32.2-10.55-4.58-.26-5.12,4.52-9.78,10-10,2.72-.13,5.7,1,6.46,3.24C106.31,86.22,103.24,92,98.13,94.35Z"/><path class="cls-12" d="M112.22,73.93c-5.11,2.31-10.32.19-10.56-4.58-.25-5.13,4.52-9.79,10-10,2.71-.13,5.69,1,6.46,3.24C120.4,65.79,117.33,71.61,112.22,73.93Z"/><path class="cls-13" d="M71.12,108.6c-5.11,2.32-10.32.2-10.56-4.58-.25-5.12,4.52-9.78,10-10,2.71-.13,5.7,1,6.46,3.24C79.3,100.47,76.23,106.28,71.12,108.6Z"/><path class="cls-12" d="M76.28,123.39c-1.71-1.84-.4-5.22,2.5-6.54a4,4,0,0,1,3.08-.26c2.21,0,3.43,2,2,4.35C82.3,123.44,78,125.27,76.28,123.39Z"/><path class="cls-32" d="M90.21,140.87c2.2-2.7-.71-4.81-3.29-4.1a3.45,3.45,0,0,0-1.71,1.16,2.54,2.54,0,0,0-.7,3.18,2.6,2.6,0,0,0,2.16,1.71C88,143,89.32,142,90.21,140.87Z"/><path class="cls-32" d="M107,152.47c2.2-2.7-.71-4.81-3.29-4.11a3.52,3.52,0,0,0-1.71,1.17,2.19,2.19,0,0,0-.45.46,2.83,2.83,0,0,0-.25,2.72,2.63,2.63,0,0,0,2.16,1.71C104.81,154.58,106.15,153.56,107,152.47Z"/><path class="cls-32" d="M125.45,165.36c1.68-2.07-.55-3.69-2.52-3.14a2.59,2.59,0,0,0-1.31.89,1.66,1.66,0,0,0-.35.35,2.15,2.15,0,0,0-.19,2.08,2,2,0,0,0,1.65,1.31A3.4,3.4,0,0,0,125.45,165.36Z"/><path class="cls-7" d="M197.46,168.14l.06-.72c.16-3.38-.18-6.67-.16-10s0-6.62,0-9.93c0-6.88,0-13.75-.33-20.55a182.58,182.58,0,0,0-5.56-39.52c-3.44-12.81-8.57-24.77-12-37.56a57.5,57.5,0,0,1-2-8.87c-.28-2.42-.58-6,2.13-8.23,3.76-3.05,8.07.22,10.24,1.88A30.56,30.56,0,0,1,199.61,48c4.47,11.38,4.83,24.49,4.43,37.64-.4,13.31-1.23,26.7-1.47,40-.22,11.68-.56,23.48-2.42,35.47,0,1.43-.35,2.85-.35,4.26a4.9,4.9,0,0,1-.76,2.92C198.63,168.91,197.4,168.79,197.46,168.14Z"/><path class="cls-33" d="M185.07,118.51c.13,1.29.24,2.6.31,3.92l.35.13C185.56,121.21,185.33,119.86,185.07,118.51Z"/><path class="cls-32" d="M13.58,225.6c-1.8.82-3.63.09-3.71-1.58a3.68,3.68,0,0,1,3.55-3.54,2.23,2.23,0,0,1,2.27,1.12C16.48,222.73,15.39,224.77,13.58,225.6Z"/><path class="cls-13" d="M21.8,210.84c-3.34,1.53-6.74.18-6.88-2.93-.15-3.33,3-6.38,6.59-6.57,1.78-.09,3.73.65,4.21,2.08C27.18,205.52,25.15,209.31,21.8,210.84Z"/><path class="cls-13" d="M59.35,182.27c-1.46.67-2.94.08-3-1.27a3,3,0,0,1,2.87-2.87,1.82,1.82,0,0,1,1.84.91C61.69,180,60.81,181.61,59.35,182.27Z"/><path class="cls-32" d="M45.72,159c-.68.31-1.37,0-1.41-.61a1.37,1.37,0,0,1,1.34-1.34.85.85,0,0,1,.86.43C46.81,158,46.41,158.73,45.72,159Z"/><path class="cls-3" d="M212,192.44c-.83,7-.84,13.38-1,19.19-.21,9.72-.76,17.84-6,24.61-10.13,13-19.49,11.7-27.22,7.17-11.9-7-10.08-21-10.08-21a3.17,3.17,0,0,1,.16-1.14h0c1.48-4.74,12.27-16.05,18.79-14.56,13.49,3.08,14.47-24.73,14.47-24.73C204.83,175.58,212,192.44,212,192.44Z"/><path class="cls-4" d="M211,211.63c-.21,9.72-.76,17.84-6,24.61-10.13,13-19.49,11.7-27.22,7.17-11.9-7-9.32-20.93-9.32-20.93s.05,8.5,19.83,8.88c0,0,13.41,0,18-10.05V208.56Z"/><path class="cls-4" d="M209.92,223.64s-21.26,1.33-28.33-16.49l7.75-11.27,20.5,17"/><path class="cls-3" d="M236.87,198.88S240,167.7,212.3,168.36c-6.82.17-27.47,2.82-26.48,30.24-1.22,3.3-6,18,25.49,22.11,1.53,1.09,7.95,5.89,11.23-.77C223.44,219.86,244.25,217,236.87,198.88Z"/><path class="cls-34" d="M229.61,186.23h.19c2.2.23,3.65,4.6,3.23,9.73s-2.58,9.12-4.78,8.89-3.89-4.83-3.47-9.82C225.17,190.26,227.39,186.23,229.61,186.23Z"/><path class="cls-35" d="M226.5,195.43c-.07,2.31,1.12,4.18,2.41,4.29s2.15-1.62,2.21-3.93-.9-4.24-2.19-4.35S226.56,193.13,226.5,195.43Z"/><ellipse class="cls-36" cx="230.37" cy="192.69" rx="0.95" ry="1.42"/><path class="cls-37" d="M222.32,220.8a13.35,13.35,0,0,0,.93-2.86,26,26,0,0,1-1.27,2.57Z"/><path class="cls-37" d="M211.76,221.31l.25-.39c-2-1.65-4.34-3.21-4.34-3.21S209.74,219.65,211.76,221.31Z"/><path class="cls-38" d="M212,176.88s-5.58-6.15-9,3A8.68,8.68,0,0,1,212,176.88Z"/><path class="cls-38" d="M225.59,178.65s6.7-4.54,8.15,5.27A9.24,9.24,0,0,0,225.59,178.65Z"/><path class="cls-37" d="M231,207a4.05,4.05,0,0,0,2.24-.77,3.69,3.69,0,0,1-4.16-.57l-.29.36A3,3,0,0,0,231,207Z"/><path class="cls-39" d="M227.21,209.72a20.11,20.11,0,0,0-7.17,8.77c-1.15,2.62-4.3,3.26-7.09-2.58a46.31,46.31,0,0,1-3.66-11.79Z"/><path class="cls-40" d="M219.86,218.85c-1.27,2.31-4.25,2.62-6.91-2.94l-.11-.24C217,212.82,219.61,217.17,219.86,218.85Z"/><path class="cls-41" d="M217.44,215.29a5.85,5.85,0,0,1,2.42,3.56c-.9,1.64-2.66,2.27-4.56.51C215.19,217.59,215.89,215.29,217.44,215.29Z"/><path class="cls-37" d="M217.56,220.66h0a3,3,0,0,0,2.67-2.06,20.16,20.16,0,0,1,7.08-8.67l.47-.29L209,203.78l.05.38A46.9,46.9,0,0,0,212.76,216C214.19,219,215.89,220.66,217.56,220.66Zm9.11-10.86a21.18,21.18,0,0,0-6.83,8.59,2.59,2.59,0,0,1-2.28,1.79h0c-.87,0-2.6-.57-4.42-4.38a46.28,46.28,0,0,1-3.57-11.35Z"/><path class="cls-32" d="M216.32,191.28l13.18-8.6s-4.21,7.32-1.79,18.67c1,4.78,3.55,8.67-2,10.06-11.63,2.92-16.44-6.28-16.44-6.28Z"/><path class="cls-37" d="M221.36,212.22a18.28,18.28,0,0,0,4.42-.58,4.64,4.64,0,0,0,3.26-2.1c.75-1.47.2-3.39-.43-5.6-.24-.85-.49-1.73-.69-2.64-2.37-11.11,1.64-18.24,1.68-18.31a6.52,6.52,0,0,0-1.62,2.86,30.78,30.78,0,0,0-.47,15.56c.19.93.45,1.82.69,2.68.6,2.1,1.12,3.92.46,5.21a4.2,4.2,0,0,1-3,1.87c-11.35,2.85-16.15-6.08-16.2-6.17l-.37.25a14.09,14.09,0,0,0,12.25,7Z"/><path class="cls-32" d="M211.07,204l0,0,0,0Z"/><path class="cls-32" d="M205.69,201.68,211,204c-.36.36-3,2.83-7.48.64Z"/><path class="cls-37" d="M211.07,204,211,204l-.21.15-.33.22c-.12.08-.27.16-.43.25a2.06,2.06,0,0,1-.26.12,2.21,2.21,0,0,1-.27.12,6.26,6.26,0,0,1-.61.21,6.58,6.58,0,0,1-.67.15c-.23,0-.46.06-.7.08s-.47,0-.7,0-.46,0-.68-.06l-.64-.1-.56-.14-.26-.06-.22-.07-.37-.12-.33-.09.3.18.34.2.22.12.25.1c.17.07.36.16.56.23l.65.17.36.06.36,0c.24,0,.5,0,.75,0s.5,0,.74-.1a5.15,5.15,0,0,0,.7-.2c.11-.05.23-.08.33-.13l.3-.16a4,4,0,0,0,.53-.33l.22-.17.19-.17a3.94,3.94,0,0,0,.29-.29A3.17,3.17,0,0,0,211.07,204Z"/><path class="cls-34" d="M202.45,191c-.43,5.28,1.71,9.89,4.44,10.17s5.29-3.76,5.73-9-1.42-9.79-4.15-10.07S202.89,185.72,202.45,191Z"/><path class="cls-35" d="M206.29,199c1.51,0,2.73-2.18,2.73-4.85s-1.22-4.85-2.73-4.85-2.74,2.18-2.74,4.85S204.77,199,206.29,199Z"/><ellipse class="cls-36" cx="207.67" cy="191.61" rx="0.95" ry="1.42"/><path class="cls-2" d="M226.09,173.34c-.19.38-1.3.23-1.33-.68S230.91,160,245.39,158c5.05-.7,11,1.29,13.9,4.21,1.43,1.46,2.08,3.49,1.09,5.06-2.31,3.64-7.44-6.36-15.63-6.24C235.72,161.14,228.61,168.11,226.09,173.34Z"/><path class="cls-42" d="M259.25,165s-4.83-9.5-17-5.43C242.1,159.67,250.55,157,259.25,165Z"/><path class="cls-2" d="M209.86,171.4a.79.79,0,0,1-1.44.14c-.42-.78-.17-14.44,11.59-24.16,4.1-3.38,10.19-4.95,14-4,1.89.5,3.34,1.9,3.16,3.81-.43,4.45-9.26-1.44-16.35,3.17C213,155.46,209.79,165.45,209.86,171.4Z"/><path class="cls-42" d="M236.57,146.25s-7.93-6.35-17.47,3.09C219,149.48,225.67,143,236.57,146.25Z"/><path class="cls-2" d="M166.21,241.91c-1-1.4-2.34-.33-2.1,1.57.26,2.12,3.84,11.18,8.73,24.2-2.76,0-12.12-.39-15.5,2.06-2.05,1.49-1.37,5.63.38,8.86s6.73,10,9,9.37,2.62-8.68-6.68-18c8.42-.75,13.87.2,14.12-1.06C175.42,262.5,167.76,244.08,166.21,241.91Z"/><path class="cls-2" d="M185.57,227.41s-.18-3.66,3-2.95,9.66,18.95,9.66,18.95l11.65.4s4-.47,4.76-.18c.16.07-1.68,1.54-1.51,1.62.46.21-.55-.34,0,0a12,12,0,0,1,4.4,4.88c4.87,9.9,0,7.89-9-3.55l-10.15,1.88a3,3,0,0,1-3.24-1.63Z"/></g></g></svg>