<svg id="Layer_1" data-name="Layer 1" xmlns="http://www.w3.org/2000/svg" width="350" height="512" viewBox="0 0 350 512">
  <defs>
    <style>
      .cls-1 {
        opacity: 0.3;
      }

      .cls-2 {
        fill: #c08add;
      }

      .cls-3 {
        fill: #8136b2;
      }

      .cls-4 {
        fill: #f3b2f7;
      }

      .cls-5 {
        fill: #ecb2f7;
      }

      .cls-6 {
        fill: #6c447f;
      }

      .cls-7 {
        fill: #b47fcc;
      }

      .cls-8 {
        fill: #b381d3;
      }

      .cls-9 {
        fill: #e097f2;
      }

      .cls-10 {
        fill: #b171c9;
      }

      .cls-11 {
        fill: #8a5ba3;
      }

      .cls-12 {
        fill: #7f5091;
      }

      .cls-13 {
        fill: #a05bc4;
      }

      .cls-14 {
        fill: #f7f3ed;
      }

      .cls-15 {
        fill: #ead4b7;
      }

      .cls-16 {
        fill: #f2e7d6;
      }

      .cls-17 {
        fill: #fff9f0;
      }

      .cls-18 {
        fill: #fff;
      }
    </style>
  </defs>
  <g>
    <ellipse class="cls-1" cx="174.9" cy="413.92" rx="149.87" ry="32.22"/>
    <g>
      <path class="cls-2" d="M6.13,343.64s-1.61,9.53,45,44S134,418.35,134,418.35s15.26,11.75,38.16,4.12c0,0,13.61,7.43,28,.41,0,0,4.13,3.72,16.09,1.24a80.54,80.54,0,0,0,20-6.81s32.37-2.68,66-27.43,40.73-40.06,40.73-40.06S290,334.61,180.65,333.17,6.13,343.64,6.13,343.64Z"/>
      <path class="cls-3" d="M9.68,349.26S-2.49,338.94,15,324.51,95,300.93,104.8,302.72s125.74,3.59,125.74,3.59,50.41.22,84.78,17.11,32.18,29,19.53,33.12-26.4-3.3-26.4-3.3,15.95,15.68-1.38,23.65-32.44-1.37-32.44-1.37,1.37,11.82-14,14-27.22-7.15-30.25-9.07c0,0-7.7,14.3-33,14.57s-34.65-14.57-34.65-14.57-19.25,13.75-47,8.52-30.25-22.35-30.25-22.35-13.2,9.43-30,7.78-17.87-13.48-16.22-17.33C39.24,357.09,17.24,357.92,9.68,349.26Z"/>
      <path class="cls-3" d="M44.12,346.37s-1.44,18.15,9.69,22.89,29.91-4.12,29.91-4.12,14.85,21.86,41,21,38.57-9.69,38.57-9.69,21.24,19.59,42.69,15.67,21.86-14.84,21.86-14.84,17.32,12,33,8.66,10.72-16.45,10.72-16.45,9.28,5.72,14.85,5.1,11.34-24.75,9.49-32.38S44.12,346.37,44.12,346.37Z"/>
      <path class="cls-4" d="M168.9,313.4c-35.06,1-43.72-3.44-73.83,1s-52,24.41-51.22,32,38.77,30.52,122.92,30.93,127.45-18.76,128.9-35.06-43.52-31.34-76.31-29.9S168.9,313.4,168.9,313.4Z"/>
      <path class="cls-5" d="M159.49,365.09S176,351,193.58,348.88c34.83-4.23,57.28,7.55,57.28,7.55h0s-22.71-10.13-28.67-19.59c-4.52-7.17,19-17.07,42.9-13.69S296,342.2,296,342.2s2.21-12.82-31.23-23.62-84.05-5.27-92.1-5.21-44.54-4.34-79.12,1.21-45.5,21.86-51.46,31.76c0,0,16.94-20,41.28-25.8s37.33-1.59,37.12,2.61S98.84,341.43,77.8,344.32h0c2.07-.41,40.52-5.81,60,.41C152.41,349.38,159.49,365.09,159.49,365.09Z"/>
      <path class="cls-6" d="M105,313s89.5-6.82,150,2.87c0,0-32.73-1.4-39.75,1.69s-14,14.05-2.87,20.91c11.66,7.19,18.36,10.39,18.36,10.39s-25.55-13.41-42.89-10.37a41.47,41.47,0,0,0-26,16.23s5.16-12.95-12.37-18.52-51.56,3.65-51.56,3.65h0s24.34-6.17,32.59-11.33S128.66,313.54,105,313Z"/>
      <path class="cls-7" d="M84.85,369.05s9,30.25,49.19,49.3c0,0,20.42,12.85,38.16,4.12,0,0-8.57-8.61-9.49-42a116.53,116.53,0,0,0,1.1,25.85c2.2,13.19-.28,14.29-11,11.27s-34.92-19.25-39-23.65,8.12-4.15,8.12-4.15S96.64,388.17,84.85,369.05Z"/>
      <path class="cls-7" d="M230.35,380.47s-2.89,14-15.88,29.39S196.53,426,185,425.9s-12.78-3.43-12.78-3.43-6-5.16-7.85-22.8c0,0,2.48,17.64,17.33,19.57s30.64-19,27.78-22-8.19-2.24-8.19-2.24S224,393.67,230.35,380.47Z"/>
      <path class="cls-7" d="M40.34,366.17s13.07,22.25,39.4,38.9S134,418.35,134,418.35s-21.42-11.27-35-26c0,0,11.43,13.09,10.33,14.47S92.31,408,75,393.94,61.53,375,61.53,375,44,375.23,40.34,366.17Z"/>
      <path class="cls-7" d="M274.23,382.43c-1.33,1.52-21.46,25-37.89,34.88,0,0,25.77-3,44.39-14.13S312.6,374.66,314,371.23c0,0-18.7,17.49-34.65,28.21s4.13-20,4.13-20l-8.8-4S276.12,380.27,274.23,382.43Z"/>
      <path class="cls-8" d="M230.35,380.47s-8.25,27.08-30.11,42.41c0,0,3.72,2.55,16.09,1.24S239.84,415,239.84,415l20.55-17.76s-16.29,13.16-27.56,15.36-11.28-6.05-7.7-14,6.54-17.18,6.54-17.18Z"/>
      <path class="cls-2" d="M343.64,351.67s3.09-2.46-21.41,22.1-35,25.93-35,25.93,22.06-19,26.74-28.47-5.5-18-5.5-18,9.19,6,19.51,5.22S343.64,351.67,343.64,351.67Z"/>
      <path class="cls-2" d="M6.13,343.64s-.58,7.27,25.14,31.74,45.88,28.4,45.88,28.4-21.18-16.33-31-29.31-6.92-17.38-6.92-17.38S13.31,359.33,6.13,343.64Z"/>
      <path class="cls-9" d="M94.79,323.19c-16.78,1.18-45.11,14.63-45.1,22.16s38.77,17.28,60.5,21.93,34.85,6.59,34.33-3.86-24.43-17-41.76-13.6-28.26,0-28.26,0S68,342,82.21,335.53,94.79,323.19,94.79,323.19Z"/>
      <path class="cls-9" d="M170,369.05s3.4-11.41,23.75-14.43,68.67,5.12,68.67,5.12h0s-25.81-16.67-24.44-23.82,28.48-8.09,40.15-4.81,11.69,13.46,9,17.66-9.83,11.93-46.13,18.51S176,374.14,170,369.05Z"/>
      <path class="cls-3" d="M123,303.83l3.43,7.81S94,312.73,74.5,319.34s-32.16,22.31-30,28.16c0,0-22,3.94-28.38-2.72,0,0,14.19-2.15,19.06-8.08C39.83,331,49.56,316,80.49,309.25s6.7-4.71,6.7-4.71l17.61-1.82Z"/>
      <path class="cls-3" d="M289.68,371.86a53.43,53.43,0,0,0,6.26-29.62c-1.45-16.91-42.22-31.74-79.89-30l2.93-6.13s47.09,1.69,72.06,12.16c0,0-32.92-6.63-35-6.63-1.4,0,32.06,4.77,42.76,13.2,20.6,16.24,12.57,35.35,3.39,42.77S289.68,371.86,289.68,371.86Z"/>
      <path class="cls-9" d="M104.8,302.72s-24.67-2.11-62.68,9.84S4,336.16,6.13,343.64s12.76,13.87,33.11,13.45c0,0-3.24,13.37,12.27,16.69s25.59-.74,33.34-4.73c0,0,6.24,18.35,35.24,20.62s42.62-9.2,42.62-9.2,10.72,17.47,38.56,14.57,29.08-14.57,29.08-14.57,17.42,14,33.56,8.39,10.72-13.34,10.72-13.34,19.78,9.1,33.8.7,3.7-20.57-1.36-24.28c0,0,13.27,9.07,25.78,5.84S345.64,347,340.49,340s-25.17-21.35-56.62-28.16-53.33-5.51-53.33-5.51h0s48.18,6.34,72,15.72,29.69,22.21,28.56,25-10.86,8.15-33.65-3.09c0,0,12.08,16.68,4.35,23.69s-24,4.55-33.39-1.33c0,0,2,12.89-8.77,14.88s-21.93-1.71-31.42-9.28c0,0-9.48,15.06-28.46,15.61s-35.47-16.84-35.47-16.84a64.15,64.15,0,0,1-41.87,8.83c-24.33-3.27-36-16.85-36-16.85a40.75,40.75,0,0,1-28.61,2.31c-15.53-4.67-12.67-17.25-13.63-17.67s-26,5.39-30.5-5.7S26.06,318.51,54.91,311,104.8,302.72,104.8,302.72Z"/>
      <path class="cls-10" d="M44.64,311.85s-26.3,6.26-37.44,19.26,3.2,26.9,32,26c0,0-3.66,12.54,12.27,16.69s33.34-4.73,33.34-4.73,3.69,20.27,35.38,22.55,42.48-11.13,42.48-11.13,11.13,18.38,37.53,16,30.32-13.68,30.11-16c0,0,18.16,13.82,35.06,9.07,16.58-4.65,8.67-14.78,8.67-14.78s18.7,11.91,34.51,2.55,4.21-22.77-.85-24.86c0,0,11.94,9.95,30.11,3.52s-1.41-28.13-37.13-39.49c0,0,27.93,10.69,35.92,21.91s3.71,16.91-8.94,16.23-25-6-25-6,14.3,14.8,4,23.93-36.57-1.35-36.57-1.35,6.67,12.06-5.91,15.84-35.61-12.31-35.61-12.31-1.38,16-28,17.64-37.19-16.75-37.19-16.75-15.16,11.86-40.74,10.63-35.26-16-36.6-21.14c0,0-18.77,10.51-32.28,5.46s-12.07-16-12.07-16-28.66,1-33.51-12.79S34.44,314.41,44.64,311.85Z"/>
      <path class="cls-3" d="M246.39,308.7s-17.11-4-27.83-2.66l-2.93,6.13s25.56.47,43.55,4.83c16.31,4,28.84,12.56,33.07,17.62s3.73,13.5,3.13,17.5-2,9.22-2.9,12.52a33.36,33.36,0,0,1-3.22,7.15s9.42.32,13.57-5.39-.38-15.58-5.19-22.2c0,0,8.39,3.76,12.77,4.8,0,0-8.77-2.41-12-9.05s-8.58-14.5-25.53-21.82-49.74-9-49.74-9S227.35,306.8,246.39,308.7Z"/>
      <path class="cls-3" d="M86.79,305s21.78-4.14,36.08-1.49c0,0,2.52,6.46,3.58,8.31,0,0-27.59,1-45.65,5.75-21.95,5.76-36.5,21.17-36.5,29v1.11s-16.9,3.2-26.39-1.5c0,0,8.43.59,13.79-2.34,7.24-4,16.53-15,36.93-24.83s47.85-10.78,49.82-11.66S103.38,302.6,86.79,305Z"/>
      <path class="cls-11" d="M6.62,347.75s15.32,20.87,33.72,36.12a104.21,104.21,0,0,0,37.41,19.91s-25.82-20.11-35-34.34c0,0,14.43,18.8,12.7,19.72S28.54,368,22.24,361.51,17,354.16,17,354.16,10.43,352.08,6.62,347.75Z"/>
      <path class="cls-11" d="M88.51,377.31a113.75,113.75,0,0,0,20,24A106.74,106.74,0,0,0,134,418.35a92.43,92.43,0,0,1-30.38-2.92C86.59,411,77.15,403.31,77.15,403.31S100,413.86,111.4,415s4-4.57-3.66-12.81S90.94,383,88.51,377.31Z"/>
      <path class="cls-11" d="M162.71,380.47s2.23,12.22,3.59,22,5.9,20,5.9,20a37.56,37.56,0,0,1-15.26,3.43c-8.67.06-22.84-5.84-27.31-9.22,0,0,16,6.1,27,5.48,10.34-.57,11.66-3.57,11.66-3.57S162.1,398.82,162.71,380.47Z"/>
      <path class="cls-11" d="M230.35,380.47s.2,6.42-10.51,23.31-23,23-35.65,22.12-12.7-3.84-14.64-10.35c0,0,3,10.27,16.13,8.24s24.81-11,30.37-19,4.66-13.45,4.66-13.45S229,388,230.35,380.47Z"/>
      <path class="cls-11" d="M260.39,397.28s-14.13,15.64-26.73,21.35-28.36,10-33.71,3.67L211,414s-5.56,5.83-2.3,7.19S239.52,419.92,260.39,397.28Z"/>
      <path class="cls-11" d="M314.2,372.58s-18.7,29.18-50.29,38.77-28.48,5.12-28.48,5.12L247,409.83s5,2.3,20.33-2.71S309.2,382.23,314.2,372.58Z"/>
      <path class="cls-11" d="M343.64,352S330,368.32,319,378.18,295.12,400,287.21,399.7s-.44-.38-.44-.38,25.16-21.65,27.43-26.74c0,0-6,8.65-3.37,8.65s17-16.17,17.42-19.52-3.34-3.59-3.34-3.59S338.29,359.17,343.64,352Z"/>
      <path class="cls-12" d="M230.54,306.31s19.94-1.22,46.5,4.25,37.55,12.11,37.55,12.11-22.08-8.74-45.54-12.47,24.42,8.72,24.42,8.72S256.42,308.38,230.54,306.31Z"/>
    </g>
    <g>
      <path class="cls-13" d="M103.94,306.36S96.24,292.64,82.19,289s-33-1.65-38.53-1.65S26.76,280.06,23.81,269s3.59-16,3.59-16S5.75,243.87,5.75,216.64s18-30.31,18-30.31-10.56-25.78,5.7-44.55,31.68-12,31.68-12-4.65-17.74,15.41-32a41,41,0,0,1,39.91-4.54s13.94-26.39,44.35-25.78S199.6,89.81,199.6,89.81s27.88-9.28,45,1S266.12,121,266.12,121s23.44-4.74,37.8,10.31,7,36.92,7,36.92,29.35,8.87,30.41,37.74-21.12,43.52-29.36,45.58c0,0,5.6,6.7-1.9,18.87S288.72,284,284.28,284s-38.22.52-56.06,24.85c0,0-17.35,13.07-57.76,14.3S103.94,306.36,103.94,306.36Z"/>
      <path class="cls-12" d="M43.06,251.77s23.72,2.62,43.78,12.1a91.82,91.82,0,0,1,31.89,25.78l6.54-23.92s-32.45-66.34-91.93-78h0s18.28,2.38,42.38,21.86,32.38,41.8,32,48.26-13,6.74-24.77,2.48S52,252.06,43.06,251.77Z"/>
      <path class="cls-12" d="M49.85,281.57s23.82,1.59,35.4,8.45c0,0,11.62,5.3,18.69,16.34,0,0,21.24,12.11,32.11,13.17l-17.32-29.88s-15.86-25.3-58.87-34.83c0,0,17.58,4.62,31.41,13.28s14,20.93-3.06,17.33S49.85,281.57,49.85,281.57Z"/>
      <path class="cls-12" d="M290.69,274.19s-29.65,5.57-45,16.67-17.44,18-17.44,18-6.51,6.41-28.76,10.7c0,0,16.19-31.47,16.61-32.36s36.25-25.38,81.23-33.06h0s-17.13,3.53-41.53,13.54-14.36,20.15-3.9,16S290.69,274.19,290.69,274.19Z"/>
      <path class="cls-12" d="M297.21,173.66s-23.92,9.2-55,35.73c-28.9,24.63-38.3,49.49-38.3,49.49L217,288s25.22-16.66,50.76-25.28,29.58-8.57,29.58-8.57h0l-8.68,1.72c-33.93,14.44-55.61,6.9-61.25-5.88s10-33.71,24.64-46.42,39.9-27.64,45.2-29.87Z"/>
      <path class="cls-12" d="M255.35,134.91s-12.81,12.1-34.07,42.48-33.5,70.12-33.5,70.12L203,258.1A271.1,271.1,0,0,1,232,219c17.54-19.48,65.12-45.33,65.12-45.33s-44.76,21.72-64.33,40-26.89,21-25.2,4.4,14.08-38.91,27.31-56.24,20.41-26.94,20.41-26.94Z"/>
      <path class="cls-12" d="M196.51,101.22s-6.2,19.73-13.8,64.28a714.84,714.84,0,0,0-9.17,78.37l14.24,3.64s13.78-39,34.45-71.46c0,0-16.36,21.21-22.77,33.17s-22.66,1.24-13.79-45.17,10.84-62.83,10.84-62.83Z"/>
      <path class="cls-12" d="M121.58,103.52s15.73,33.1,23.75,68.78,12,72.81,12,72.81l16.17-1.24s6.33-74.33,15-109.66c0,0-5.23,22.83-11.14,49S158,219.94,152.3,192.72s-13.62-54.85-30.72-89.2Z"/>
      <path class="cls-12" d="M69.52,139.72a171.75,171.75,0,0,1,35.85,40c16.1,25,24.39,45.73,27.72,55.68s5.27,19,5.27,19l19-9.24s-2.88-43.73-15.8-87.55-20-54-20-54a600,600,0,0,1,19.53,63.42c8.66,35.06,5.07,52,1.06,55.27s-16-15.26-35.69-45S69.52,139.72,69.52,139.72Z"/>
      <path class="cls-6" d="M75.62,286s16.22,4.37,25.86,17l18.6.77L118,286.42s-9.8-12.08-28.61-21.28c0,0,17.52,12.32,20.89,18,3.47,5.86,1.41,13.93-7.39,12.55S90.57,290.06,75.62,286Z"/>
      <path class="cls-6" d="M102.48,233.05s14.7,18.24,22,30.75l-7.12,23.74a78.42,78.42,0,0,0-27.92-22.4,124.52,124.52,0,0,1,16.67,8.5c8.51,5.22,15.49-2.2,11.19-14S102.48,233.05,102.48,233.05Z"/>
      <path class="cls-6" d="M119.55,204.73s4.65,7.44,10.68,22.81,6.8,20.59,6.8,20.59l-12.6,16s-23-35-32.63-42.6c0,0,5.88,3.68,17.7,18.46s19.82,10.45,21,5.16,0-15.4-4.78-26.13S119.55,204.73,119.55,204.73Z"/>
      <path class="cls-6" d="M149.24,188.5s7.39,42,8.13,51.35L137,248.13s-10.27-31.24-18.09-44.61c0,0,11.51,21.79,16.05,28.9s17.1,8.46,18.26-3.81S149.24,188.5,149.24,188.5Z"/>
      <path class="cls-6" d="M179.15,191,174,238.42l-16.66,1.43s-5.7-42.86-8.13-51.35c0,0,6.23,47.33,17.11,42.65S179.15,191,179.15,191Z"/>
      <path class="cls-6" d="M208.47,200.21s-14.53,29.87-19.09,42.47L174,238.42s4.05-37.94,4.77-44.12,1-8.6,1-8.6-5.36,41.18,1.82,44.73S208.47,200.21,208.47,200.21Z"/>
      <path class="cls-6" d="M243.4,207.83S221.88,226.24,203.83,257l-14.72-14.52s12.09-28.8,19.36-42.23c0,0-13.79,30.87-12,35.82s6.52,10.62,12,6.09S229.66,219.75,243.4,207.83Z"/>
      <path class="cls-6" d="M277.1,258.61a323.41,323.41,0,0,0-31.17,11.91,171.2,171.2,0,0,0-28.17,16.09l-14.11-30.32s16.63-26.09,30.21-39.16c0,0-15.25,17.53-17.05,28s4.54,27.65,25.24,22.29S277.1,258.61,277.1,258.61Z"/>
      <path class="cls-6" d="M263.46,282.06s-23.91,8.75-33.91,27.62c0,0-10.9-.57-11.49-1.17s-.29-22.25-.29-22.25,12.15-8.15,26.92-16.47c0,0-16,8.9-17,19.95S253.56,284.43,263.46,282.06Z"/>
      <path class="cls-9" d="M85.25,290s-12.14-4.49-41.59-2.64c0,0-15.41-2.5-19.06-16s2.8-18.37,2.8-18.37S6.88,244.49,5.75,217.81s18-31.48,18-31.48-9.16-24.39,4.11-42.58,28.62-15.58,33.27-13.93c0,0-4-21.86,18.25-33.82s37.07-2.69,37.07-2.69,13.73-26.39,44.35-25.78S199.6,89.81,199.6,89.81s22-10.52,43.08-2.48S266.12,121,266.12,121s26-6.19,40.23,10.83,4.54,36.4,4.54,36.4,29.77,7.84,31.36,35.47-14.05,44.86-30.31,47.85c0,0,4.86,5.88.85,16.81S295.68,284.08,284.28,284s-27.78,3.65-39.86,10.39-12.89,11.88-12.89,11.88,3.27-10.75,23-20.38,36.18-11.68,36.18-11.68,10.56-2.07,12.24-11.28-5.63-8.8-5.63-8.8,40.13-17.87,34.49-48.67-34.63-31.76-34.63-31.76,15.66-16.51,2.26-34.79-44.07-4-44.07-4,3.94-25.44-22-37.4-36.88,3.71-36.88,3.71-12.11-25-36.82-24.4S122,99,121.58,103.52c0,0-13.62-7.52-35.37,2.58s-16.69,33.21-16.69,33.21-23.51.13-32.09,15.12-4.09,33.27-4.09,33.27-18.58,10.18-16.47,29.84,26.19,34.23,26.19,34.23A14.3,14.3,0,0,0,36.72,265c.71,9.08,9.72,15.95,13.8,16.78S75.36,282.06,85.25,290Z"/>
      <path class="cls-10" d="M27.4,253.05S7.65,245.17,5.75,217.81s18-31.48,18-31.48-10.14-26.47,4.65-45,32.73-11.51,32.73-11.51-4-23.31,19.85-34.86,35.47-1.65,35.47-1.65,13.69-27.19,46-25.79c32.5,1.41,37.16,22.29,37.16,22.29s25.65-12.48,46.83-.77S266.12,121,266.12,121s28.95-6.34,42.1,13.26c13.25,19.75,2.67,34,2.67,34s25.56,4.54,31.47,29.08-6.13,49.29-30.42,54.24c0,0,18-5.48,24.72-29.82s-4.23-46.49-31.05-50.1c0,0,11.85-14.27-2.74-35s-41.6-10.32-41.6-10.32,1.39-27.8-25.85-35.64-39,5.53-39,5.53-5.77-23.83-36.81-23.83-40.71,24.45-40.71,24.45-14.45-7.59-35.71,3.82-17.79,33.57-17.79,33.57S42.17,130,31.38,147.4s-3.53,41.95-3.53,41.95S8.5,195.56,13,222s22.74,31.72,22.74,31.72-8.76,4.41-6.08,17.89,14,15.81,14,15.81-15.32-2-19.75-17.32C20.17,257.09,27.4,253.05,27.4,253.05Z"/>
    </g>
    <g>
      <g>
        <circle class="cls-14" cx="168.86" cy="254.57" r="101.57" transform="translate(-130.55 193.97) rotate(-45)"/>
        <circle class="cls-15" cx="165.6" cy="250.04" r="94.59" transform="translate(-128.3 190.33) rotate(-45)"/>
        <circle class="cls-16" cx="162.71" cy="243.51" r="89.38"/>
        <circle class="cls-17" cx="160.33" cy="240.13" r="81.82" transform="translate(-122.84 183.7) rotate(-45)"/>
      </g>
      <path class="cls-18" d="M65,80.49s40.81,72.21,39,83c-.94,5.62-80.85,65.47-80.85,65.47s79.91-55.16,86.78-54.54,56.81,94,56.81,94-45.58-95.83-45.26-99.58,68.36-41.16,68.36-41.16-72.25,30.89-74.61,31.17C109.53,159.45,65,80.49,65,80.49Z"/>
      <path class="cls-18" d="M189.2,184.91s-61.3-15.74-66.26-22.41c-2.6-3.49,10.79-59,10.79-59s-16,53-19.94,56.44-66.26-9.38-66.26-9.38,61.35,16.55,63.24,18.7-13.5,59.36-13.5,59.36,21.21-56.06,22.3-57.51C122.22,167.65,189.2,184.91,189.2,184.91Z"/>
    </g>
  </g>
</svg>
