<svg id="Layer_1" data-name="Layer 1" xmlns="http://www.w3.org/2000/svg" width="350" height="512" viewBox="0 0 350 512">
  <defs>
    <style>
      .cls-1 {
        opacity: 0.3;
      }

      .cls-2 {
        fill: #c08add;
      }

      .cls-3 {
        fill: #8136b2;
      }

      .cls-4 {
        fill: #f3b2f7;
      }

      .cls-5 {
        fill: #ecb2f7;
      }

      .cls-6 {
        fill: #6c447f;
      }

      .cls-7 {
        fill: #b47fcc;
      }

      .cls-8 {
        fill: #b381d3;
      }

      .cls-9 {
        fill: #e097f2;
      }

      .cls-10 {
        fill: #b171c9;
      }

      .cls-11 {
        fill: #8a5ba3;
      }

      .cls-12 {
        fill: #7f5091;
      }

      .cls-13 {
        fill: #f7f3ed;
      }

      .cls-14 {
        fill: #ead4b7;
      }

      .cls-15 {
        fill: #f2e7d6;
      }

      .cls-16 {
        fill: #9d65aa;
      }

      .cls-17 {
        fill: #dab2f9;
      }

      .cls-18 {
        fill: #c38bd1;
      }
    </style>
  </defs>
  <g>
    <ellipse class="cls-1" cx="174.9" cy="413.92" rx="149.87" ry="32.22"/>
    <g>
      <path class="cls-2" d="M6.13,343.64s-1.61,9.53,45,44S134,418.35,134,418.35s15.26,11.75,38.16,4.12c0,0,13.61,7.43,28,.41,0,0,4.13,3.72,16.09,1.24a80.54,80.54,0,0,0,20-6.81s32.37-2.68,66-27.43,40.73-40.06,40.73-40.06S290,334.61,180.65,333.17,6.13,343.64,6.13,343.64Z"/>
      <path class="cls-3" d="M9.68,349.26S-2.49,338.94,15,324.51,95,300.93,104.8,302.72s125.74,3.59,125.74,3.59,50.41.22,84.78,17.11,32.18,29,19.53,33.12-26.4-3.3-26.4-3.3,15.95,15.68-1.38,23.65-32.44-1.37-32.44-1.37,1.37,11.82-14,14-27.22-7.15-30.25-9.07c0,0-7.7,14.3-33,14.57s-34.65-14.57-34.65-14.57-19.25,13.75-47,8.52-30.25-22.35-30.25-22.35-13.2,9.43-30,7.78-17.87-13.48-16.22-17.33C39.24,357.09,17.24,357.92,9.68,349.26Z"/>
      <path class="cls-3" d="M44.12,346.37s-1.44,18.15,9.69,22.89,29.91-4.12,29.91-4.12,14.85,21.86,41,21,38.57-9.69,38.57-9.69,21.24,19.59,42.69,15.67,21.86-14.84,21.86-14.84,17.32,12,33,8.66,10.72-16.45,10.72-16.45,9.28,5.72,14.85,5.1,11.34-24.75,9.49-32.38S44.12,346.37,44.12,346.37Z"/>
      <path class="cls-4" d="M168.9,313.4c-35.06,1-43.72-3.44-73.83,1s-52,24.41-51.22,32,38.77,30.52,122.92,30.93,127.45-18.76,128.9-35.06-43.52-31.34-76.31-29.9S168.9,313.4,168.9,313.4Z"/>
      <path class="cls-5" d="M159.49,365.09S176,351,193.58,348.88c34.83-4.23,57.28,7.55,57.28,7.55h0s-22.71-10.13-28.67-19.59c-4.52-7.17,19-17.07,42.9-13.69S296,342.2,296,342.2s2.21-12.82-31.23-23.62-84.05-5.27-92.1-5.21-44.54-4.34-79.12,1.21-45.5,21.86-51.46,31.76c0,0,16.94-20,41.28-25.8s37.33-1.59,37.12,2.61S98.84,341.43,77.8,344.32h0c2.07-.41,40.52-5.81,60,.41C152.41,349.38,159.49,365.09,159.49,365.09Z"/>
      <path class="cls-6" d="M105,313s89.5-6.82,150,2.87c0,0-32.73-1.4-39.75,1.69s-14,14.05-2.87,20.91c11.66,7.19,18.36,10.39,18.36,10.39s-25.55-13.41-42.89-10.37a41.47,41.47,0,0,0-26,16.23s5.16-12.95-12.37-18.52-51.56,3.65-51.56,3.65h0s24.34-6.17,32.59-11.33S128.66,313.54,105,313Z"/>
      <path class="cls-7" d="M84.85,369.05s9,30.25,49.19,49.3c0,0,20.42,12.85,38.16,4.12,0,0-8.57-8.61-9.49-42a116.53,116.53,0,0,0,1.1,25.85c2.2,13.19-.28,14.29-11,11.27s-34.92-19.25-39-23.65,8.12-4.15,8.12-4.15S96.64,388.17,84.85,369.05Z"/>
      <path class="cls-7" d="M230.35,380.47s-2.89,14-15.88,29.39S196.53,426,185,425.9s-12.78-3.43-12.78-3.43-6-5.16-7.85-22.8c0,0,2.48,17.64,17.33,19.57s30.64-19,27.78-22-8.19-2.24-8.19-2.24S224,393.67,230.35,380.47Z"/>
      <path class="cls-7" d="M40.34,366.17s13.07,22.25,39.4,38.9S134,418.35,134,418.35s-21.42-11.27-35-26c0,0,11.43,13.09,10.33,14.47S92.31,408,75,393.94,61.53,375,61.53,375,44,375.23,40.34,366.17Z"/>
      <path class="cls-7" d="M274.23,382.43c-1.33,1.52-21.46,25-37.89,34.88,0,0,25.77-3,44.39-14.13S312.6,374.66,314,371.23c0,0-18.7,17.49-34.65,28.21s4.13-20,4.13-20l-8.8-4S276.12,380.27,274.23,382.43Z"/>
      <path class="cls-8" d="M230.35,380.47s-8.25,27.08-30.11,42.41c0,0,3.72,2.55,16.09,1.24S239.84,415,239.84,415l20.55-17.76s-16.29,13.16-27.56,15.36-11.28-6.05-7.7-14,6.54-17.18,6.54-17.18Z"/>
      <path class="cls-2" d="M343.64,351.67s3.09-2.46-21.41,22.1-35,25.93-35,25.93,22.06-19,26.74-28.47-5.5-18-5.5-18,9.19,6,19.51,5.22S343.64,351.67,343.64,351.67Z"/>
      <path class="cls-2" d="M6.13,343.64s-.58,7.27,25.14,31.74,45.88,28.4,45.88,28.4-21.18-16.33-31-29.31-6.92-17.38-6.92-17.38S13.31,359.33,6.13,343.64Z"/>
      <path class="cls-9" d="M94.79,323.19c-16.78,1.18-45.11,14.63-45.1,22.16s38.77,17.28,60.5,21.93,34.85,6.59,34.33-3.86-24.43-17-41.76-13.6-28.26,0-28.26,0S68,342,82.21,335.53,94.79,323.19,94.79,323.19Z"/>
      <path class="cls-9" d="M170,369.05s3.4-11.41,23.75-14.43,68.67,5.12,68.67,5.12h0s-25.81-16.67-24.44-23.82,28.48-8.09,40.15-4.81,11.69,13.46,9,17.66-9.83,11.93-46.13,18.51S176,374.14,170,369.05Z"/>
      <path class="cls-3" d="M123,303.83l3.43,7.81S94,312.73,74.5,319.34s-32.16,22.31-30,28.16c0,0-22,3.94-28.38-2.72,0,0,14.19-2.15,19.06-8.08C39.83,331,49.56,316,80.49,309.25s6.7-4.71,6.7-4.71l17.61-1.82Z"/>
      <path class="cls-3" d="M289.68,371.86a53.43,53.43,0,0,0,6.26-29.62c-1.45-16.91-42.22-31.74-79.89-30l2.93-6.13s47.09,1.69,72.06,12.16c0,0-32.92-6.63-35-6.63-1.4,0,32.06,4.77,42.76,13.2,20.6,16.24,12.57,35.35,3.39,42.77S289.68,371.86,289.68,371.86Z"/>
      <path class="cls-9" d="M104.8,302.72s-24.67-2.11-62.68,9.84S4,336.16,6.13,343.64s12.76,13.87,33.11,13.45c0,0-3.24,13.37,12.27,16.69s25.59-.74,33.34-4.73c0,0,6.24,18.35,35.24,20.62s42.62-9.2,42.62-9.2,10.72,17.47,38.56,14.57,29.08-14.57,29.08-14.57,17.42,14,33.56,8.39,10.72-13.34,10.72-13.34,19.78,9.1,33.8.7,3.7-20.57-1.36-24.28c0,0,13.27,9.07,25.78,5.84S345.64,347,340.49,340s-25.17-21.35-56.62-28.16-53.33-5.51-53.33-5.51h0s48.18,6.34,72,15.72,29.69,22.21,28.56,25-10.86,8.15-33.65-3.09c0,0,12.08,16.68,4.35,23.69s-24,4.55-33.39-1.33c0,0,2,12.89-8.77,14.88s-21.93-1.71-31.42-9.28c0,0-9.48,15.06-28.46,15.61s-35.47-16.84-35.47-16.84a64.15,64.15,0,0,1-41.87,8.83c-24.33-3.27-36-16.85-36-16.85a40.75,40.75,0,0,1-28.61,2.31c-15.53-4.67-12.67-17.25-13.63-17.67s-26,5.39-30.5-5.7S26.06,318.51,54.91,311,104.8,302.72,104.8,302.72Z"/>
      <path class="cls-10" d="M44.64,311.85s-26.3,6.26-37.44,19.26,3.2,26.9,32,26c0,0-3.66,12.54,12.27,16.69s33.34-4.73,33.34-4.73,3.69,20.27,35.38,22.55,42.48-11.13,42.48-11.13,11.13,18.38,37.53,16,30.32-13.68,30.11-16c0,0,18.16,13.82,35.06,9.07,16.58-4.65,8.67-14.78,8.67-14.78s18.7,11.91,34.51,2.55,4.21-22.77-.85-24.86c0,0,11.94,9.95,30.11,3.52s-1.41-28.13-37.13-39.49c0,0,27.93,10.69,35.92,21.91s3.71,16.91-8.94,16.23-25-6-25-6,14.3,14.8,4,23.93-36.57-1.35-36.57-1.35,6.67,12.06-5.91,15.84-35.61-12.31-35.61-12.31-1.38,16-28,17.64-37.19-16.75-37.19-16.75-15.16,11.86-40.74,10.63-35.26-16-36.6-21.14c0,0-18.77,10.51-32.28,5.46s-12.07-16-12.07-16-28.66,1-33.51-12.79S34.44,314.41,44.64,311.85Z"/>
      <path class="cls-3" d="M246.39,308.7s-17.11-4-27.83-2.66l-2.93,6.13s25.56.47,43.55,4.83c16.31,4,28.84,12.56,33.07,17.62s3.73,13.5,3.13,17.5-2,9.22-2.9,12.52a33.36,33.36,0,0,1-3.22,7.15s9.42.32,13.57-5.39-.38-15.58-5.19-22.2c0,0,8.39,3.76,12.77,4.8,0,0-8.77-2.41-12-9.05s-8.58-14.5-25.53-21.82-49.74-9-49.74-9S227.35,306.8,246.39,308.7Z"/>
      <path class="cls-3" d="M86.79,305s21.78-4.14,36.08-1.49c0,0,2.52,6.46,3.58,8.31,0,0-27.59,1-45.65,5.75-21.95,5.76-36.5,21.17-36.5,29v1.11s-16.9,3.2-26.39-1.5c0,0,8.43.59,13.79-2.34,7.24-4,16.53-15,36.93-24.83s47.85-10.78,49.82-11.66S103.38,302.6,86.79,305Z"/>
      <path class="cls-11" d="M6.62,347.75s15.32,20.87,33.72,36.12a104.21,104.21,0,0,0,37.41,19.91s-25.82-20.11-35-34.34c0,0,14.43,18.8,12.7,19.72S28.54,368,22.24,361.51,17,354.16,17,354.16,10.43,352.08,6.62,347.75Z"/>
      <path class="cls-11" d="M88.51,377.31a113.75,113.75,0,0,0,20,24A106.74,106.74,0,0,0,134,418.35a92.43,92.43,0,0,1-30.38-2.92C86.59,411,77.15,403.31,77.15,403.31S100,413.86,111.4,415s4-4.57-3.66-12.81S90.94,383,88.51,377.31Z"/>
      <path class="cls-11" d="M162.71,380.47s2.23,12.22,3.59,22,5.9,20,5.9,20a37.56,37.56,0,0,1-15.26,3.43c-8.67.06-22.84-5.84-27.31-9.22,0,0,16,6.1,27,5.48,10.34-.57,11.66-3.57,11.66-3.57S162.1,398.82,162.71,380.47Z"/>
      <path class="cls-11" d="M230.35,380.47s.2,6.42-10.51,23.31-23,23-35.65,22.12-12.7-3.84-14.64-10.35c0,0,3,10.27,16.13,8.24s24.81-11,30.37-19,4.66-13.45,4.66-13.45S229,388,230.35,380.47Z"/>
      <path class="cls-11" d="M260.39,397.28s-14.13,15.64-26.73,21.35-28.36,10-33.71,3.67L211,414s-5.56,5.83-2.3,7.19S239.52,419.92,260.39,397.28Z"/>
      <path class="cls-11" d="M314.2,372.58s-18.7,29.18-50.29,38.77-28.48,5.12-28.48,5.12L247,409.83s5,2.3,20.33-2.71S309.2,382.23,314.2,372.58Z"/>
      <path class="cls-11" d="M343.64,352S330,368.32,319,378.18,295.12,400,287.21,399.7s-.44-.38-.44-.38,25.16-21.65,27.43-26.74c0,0-6,8.65-3.37,8.65s17-16.17,17.42-19.52-3.34-3.59-3.34-3.59S338.29,359.17,343.64,352Z"/>
      <path class="cls-12" d="M230.54,306.31s19.94-1.22,46.5,4.25,37.55,12.11,37.55,12.11-22.08-8.74-45.54-12.47,24.42,8.72,24.42,8.72S256.42,308.38,230.54,306.31Z"/>
    </g>
    <g>
      <path class="cls-13" d="M266.11,283.37a101.6,101.6,0,0,1-193.93,3.14C68.88,276.5,268.79,274.27,266.11,283.37Z"/>
      <path class="cls-14" d="M256.55,275.5A94.63,94.63,0,0,1,76.8,283.37C72.92,273,258.79,267.43,256.55,275.5Z"/>
      <path class="cls-15" d="M248,269.67a89.42,89.42,0,0,1-167.59,9.42C75.74,268.21,250.54,261.43,248,269.67Z"/>
    </g>
    <g>
      <path class="cls-16" d="M4.75,286.8s43.51-23.15,57.15-22.06c0,0,30.84-10.52,51.61-8.15,0,0,27.15-6.93,35.64-2.73,0,0,14.85-5.14,27.86,0,0,0,20.91-4.37,39.18,1.86,0,0,22.07-2.2,56.13,7.36,0,0,25.2,1.41,73.22,28.08,0,0,13.46,8.27-26.93,7.68,0,0,7.16,16.73-40.95,9,0,0,6.69,14.87-45.47,2.76,0,0-33.42,18.75-69,.18,0,0-49.24,15.45-79-5.7,0,0-43.3,8.14-46.88-6.15C37.32,298.91-8.62,296.93,4.75,286.8Z"/>
      <path class="cls-17" d="M9.07,285.25c7-3.52,42.79-21.31,54.84-20.37,0,0,30.23-10,50.59-7.75,0,0,26.61-6.58,34.93-2.59,0,0,14.55-4.89,27.3,0,0,0,20.51-4.16,38.41,1.77,0,0,21.63-2.09,55,7,0,0,24.71,1.35,71.77,26.7,0,0,13.19,7.86-26.39,7.31,0,0,7,15.89-40.14,8.55,0,0,6.55,14.13-44.57,2.62,0,0-32.75,17.83-67.63.17,0,0-48.26,14.7-77.42-5.41,0,0-42.44,7.73-45.95-5.85,0,0-41.72-1.75-33.16-10.46A9,9,0,0,1,9.07,285.25Z"/>
      <path class="cls-18" d="M6.07,286.08s41.69-25,68.33-20.16c0,0-33.5,12.56-33.78,26.12,0,0,32-37,68.2-35.53,0,0-19.16,24.5-19.91,40.42,0,0,12.94-45,51-44.05,0,0,2.83,19.87,16.94,46.62,0,0-27.19-49.36,15.2-47.14,0,0,40.57,5.59,48.33,43.6,0,0-2.23-34-30.19-43.54,0,0,39.68,3,69.61,35.15,0,0-3.38-18.44-32.76-26.44,0,0,61.85,3.39,85.58,30.37,0,0-8.76-17.76-43.5-27.53,0,0,59.88,16,73.25,26.54,0,0-61.41-33.25-97.28-38.94,0,0-23.09-6.52-31.1.79,0,0-18.67-14.91-31.34-2.22,0,0-20.42-16.92-35.58,1.43-1.35-2.58-17.41-11.34-30.8,2C65.76,237.81,6.07,286.08,6.07,286.08Z"/>
      <path class="cls-9" d="M11,291.46c3.38,1.71,9.18,3.67,18.39,4,3,.12,5.69-.88,6.19-2.3a44.71,44.71,0,0,1,6.19-11.9c.46-.6-.7-1.2-2-1-4.16.64-12.79,2.33-27.57,6.83C9.07,288.06,8.44,290.16,11,291.46Z"/>
      <path class="cls-9" d="M49.22,291c4.47,2.4,13.17,4.91,29,2.88,5.17-.66,9.09-2.68,10.09-5.21C90.19,284,93.4,276,95.26,272.44c1-2,.38-4.15-2.11-5.84-3-2.05-8.71-3.42-19.13.25a47.77,47.77,0,0,0-8.64,4c-4.72,2.83-13.94,8.71-18.35,13.9C45.24,286.88,46.07,289.32,49.22,291Z"/>
      <path class="cls-9" d="M99.78,296.41a90,90,0,0,0,44.71,2.83c6.36-1.15,9.57-4.56,7.26-7.62-4.85-6.43-12.47-18.22-13.26-29.81-.09-1.37-1.14-2.7-3-3.73-3.06-1.65-8.41-2.63-15.66,3.28,0,0-18.33,13-24.93,29C93.91,292.67,95.79,295.05,99.78,296.41Z"/>
      <path class="cls-9" d="M169.58,303.35c9.81,3.37,29.34,7.78,43.53-3.76,2.38-1.94,2.84-4.49,1.28-6.74-5.94-8.59-22.65-31.05-39.35-37.92-3.81-1.57-9-.54-10.49,2-3.49,6.14-8.35,19.4-2.32,40.16C163,299.72,165.68,302,169.58,303.35Z"/>
      <path class="cls-9" d="M238.06,301.2c8.32,1.38,21.51,2.74,24.4-2a2.88,2.88,0,0,0-.36-3.46c-4-5.22-20.58-25.63-35.16-29.36a8.86,8.86,0,0,0-2.93-.25c-2,.18-4.74,1.14-4.19,5.06,0,0,1.09,15.56,8.1,25.11C229.59,298.61,233.32,300.41,238.06,301.2Z"/>
      <path class="cls-9" d="M279.78,301.54c8,1.44,24.72,3.45,26.61-4.62.37-1.57-.38-3.16-2.07-4.51-6.64-5.3-27.26-20.9-44.25-24.77a2.07,2.07,0,0,0-2,.41c-1.11,1.68-1,7.91,16.09,30.77C275.14,300.08,277.18,301.07,279.78,301.54Z"/>
      <path class="cls-9" d="M324.77,295.94c4.6.11,14.71-.13,14.21-4.25-.1-.79-.86-1.52-2-2.07-4.74-2.22-19.26-8.87-29.52-11.93-.63-.18-1.39.12-1.11.45,2.06,2.37,7.65,8.75,15.36,16.8A4.67,4.67,0,0,0,324.77,295.94Z"/>
    </g>
  </g>
</svg>
