<svg id="Layer_1" data-name="Layer 1" xmlns="http://www.w3.org/2000/svg" width="350" height="512" viewBox="0 0 350 512">
  <defs>
    <style>
      .cls-1 {
        opacity: 0.3;
      }

      .cls-2 {
        fill: #c08add;
      }

      .cls-3 {
        fill: #8136b2;
      }

      .cls-4 {
        fill: #f3b2f7;
      }

      .cls-5 {
        fill: #ecb2f7;
      }

      .cls-6 {
        fill: #6c447f;
      }

      .cls-7 {
        fill: #b47fcc;
      }

      .cls-8 {
        fill: #b381d3;
      }

      .cls-9 {
        fill: #e097f2;
      }

      .cls-10 {
        fill: #b171c9;
      }

      .cls-11 {
        fill: #8a5ba3;
      }

      .cls-12 {
        fill: #7f5091;
      }

      .cls-13 {
        fill: #a05bc4;
      }

      .cls-14 {
        fill: #f7f3ed;
      }

      .cls-15 {
        fill: #ead4b7;
      }

      .cls-16 {
        fill: #f2e7d6;
      }

      .cls-17 {
        fill: #fff9f0;
      }

      .cls-18 {
        fill: #fff;
      }
    </style>
  </defs>
  <g>
    <ellipse class="cls-1" cx="174.9" cy="413.92" rx="149.87" ry="32.22"/>
    <g>
      <path class="cls-2" d="M6.13,343.64s-1.61,9.53,45,44S134,418.35,134,418.35s15.26,11.75,38.16,4.12c0,0,13.61,7.43,28,.41,0,0,4.13,3.72,16.09,1.24a80.54,80.54,0,0,0,20-6.81s32.37-2.68,66-27.43,40.73-40.06,40.73-40.06S290,334.61,180.65,333.17,6.13,343.64,6.13,343.64Z"/>
      <path class="cls-3" d="M9.68,349.26S-2.49,338.94,15,324.51,95,300.93,104.8,302.72s125.74,3.59,125.74,3.59,50.41.22,84.78,17.11,32.18,29,19.53,33.12-26.4-3.3-26.4-3.3,15.95,15.68-1.38,23.65-32.44-1.37-32.44-1.37,1.37,11.82-14,14-27.22-7.15-30.25-9.07c0,0-7.7,14.3-33,14.57s-34.65-14.57-34.65-14.57-19.25,13.75-47,8.52-30.25-22.35-30.25-22.35-13.2,9.43-30,7.78-17.87-13.48-16.22-17.33C39.24,357.09,17.24,357.92,9.68,349.26Z"/>
      <path class="cls-3" d="M44.12,346.37s-1.44,18.15,9.69,22.89,29.91-4.12,29.91-4.12,14.85,21.86,41,21,38.57-9.69,38.57-9.69,21.24,19.59,42.69,15.67,21.86-14.84,21.86-14.84,17.32,12,33,8.66,10.72-16.45,10.72-16.45,9.28,5.72,14.85,5.1,11.34-24.75,9.49-32.38S44.12,346.37,44.12,346.37Z"/>
      <path class="cls-4" d="M168.9,313.4c-35.06,1-43.72-3.44-73.83,1s-52,24.41-51.22,32,38.77,30.52,122.92,30.93,127.45-18.76,128.9-35.06-43.52-31.34-76.31-29.9S168.9,313.4,168.9,313.4Z"/>
      <path class="cls-5" d="M159.49,365.09S176,351,193.58,348.88c34.83-4.23,57.28,7.55,57.28,7.55h0s-22.71-10.13-28.67-19.59c-4.52-7.17,19-17.07,42.9-13.69S296,342.2,296,342.2s2.21-12.82-31.23-23.62-84.05-5.27-92.1-5.21-44.54-4.34-79.12,1.21-45.5,21.86-51.46,31.76c0,0,16.94-20,41.28-25.8s37.33-1.59,37.12,2.61S98.84,341.43,77.8,344.32h0c2.07-.41,40.52-5.81,60,.41C152.41,349.38,159.49,365.09,159.49,365.09Z"/>
      <path class="cls-6" d="M105,313s89.5-6.82,150,2.87c0,0-32.73-1.4-39.75,1.69s-14,14.05-2.87,20.91c11.66,7.19,18.36,10.39,18.36,10.39s-25.55-13.41-42.89-10.37a41.47,41.47,0,0,0-26,16.23s5.16-12.95-12.37-18.52-51.56,3.65-51.56,3.65h0s24.34-6.17,32.59-11.33S128.66,313.54,105,313Z"/>
      <path class="cls-7" d="M84.85,369.05s9,30.25,49.19,49.3c0,0,20.42,12.85,38.16,4.12,0,0-8.57-8.61-9.49-42a116.53,116.53,0,0,0,1.1,25.85c2.2,13.19-.28,14.29-11,11.27s-34.92-19.25-39-23.65,8.12-4.15,8.12-4.15S96.64,388.17,84.85,369.05Z"/>
      <path class="cls-7" d="M230.35,380.47s-2.89,14-15.88,29.39S196.53,426,185,425.9s-12.78-3.43-12.78-3.43-6-5.16-7.85-22.8c0,0,2.48,17.64,17.33,19.57s30.64-19,27.78-22-8.19-2.24-8.19-2.24S224,393.67,230.35,380.47Z"/>
      <path class="cls-7" d="M40.34,366.17s13.07,22.25,39.4,38.9S134,418.35,134,418.35s-21.42-11.27-35-26c0,0,11.43,13.09,10.33,14.47S92.31,408,75,393.94,61.53,375,61.53,375,44,375.23,40.34,366.17Z"/>
      <path class="cls-7" d="M274.23,382.43c-1.33,1.52-21.46,25-37.89,34.88,0,0,25.77-3,44.39-14.13S312.6,374.66,314,371.23c0,0-18.7,17.49-34.65,28.21s4.13-20,4.13-20l-8.8-4S276.12,380.27,274.23,382.43Z"/>
      <path class="cls-8" d="M230.35,380.47s-8.25,27.08-30.11,42.41c0,0,3.72,2.55,16.09,1.24S239.84,415,239.84,415l20.55-17.76s-16.29,13.16-27.56,15.36-11.28-6.05-7.7-14,6.54-17.18,6.54-17.18Z"/>
      <path class="cls-2" d="M343.64,351.67s3.09-2.46-21.41,22.1-35,25.93-35,25.93,22.06-19,26.74-28.47-5.5-18-5.5-18,9.19,6,19.51,5.22S343.64,351.67,343.64,351.67Z"/>
      <path class="cls-2" d="M6.13,343.64s-.58,7.27,25.14,31.74,45.88,28.4,45.88,28.4-21.18-16.33-31-29.31-6.92-17.38-6.92-17.38S13.31,359.33,6.13,343.64Z"/>
      <path class="cls-9" d="M94.79,323.19c-16.78,1.18-45.11,14.63-45.1,22.16s38.77,17.28,60.5,21.93,34.85,6.59,34.33-3.86-24.43-17-41.76-13.6-28.26,0-28.26,0S68,342,82.21,335.53,94.79,323.19,94.79,323.19Z"/>
      <path class="cls-9" d="M170,369.05s3.4-11.41,23.75-14.43,68.67,5.12,68.67,5.12h0s-25.81-16.67-24.44-23.82,28.48-8.09,40.15-4.81,11.69,13.46,9,17.66-9.83,11.93-46.13,18.51S176,374.14,170,369.05Z"/>
      <path class="cls-3" d="M123,303.83l3.43,7.81S94,312.73,74.5,319.34s-32.16,22.31-30,28.16c0,0-22,3.94-28.38-2.72,0,0,14.19-2.15,19.06-8.08C39.83,331,49.56,316,80.49,309.25s6.7-4.71,6.7-4.71l17.61-1.82Z"/>
      <path class="cls-3" d="M289.68,371.86a53.43,53.43,0,0,0,6.26-29.62c-1.45-16.91-42.22-31.74-79.89-30l2.93-6.13s47.09,1.69,72.06,12.16c0,0-32.92-6.63-35-6.63-1.4,0,32.06,4.77,42.76,13.2,20.6,16.24,12.57,35.35,3.39,42.77S289.68,371.86,289.68,371.86Z"/>
      <path class="cls-9" d="M104.8,302.72s-24.67-2.11-62.68,9.84S4,336.16,6.13,343.64s12.76,13.87,33.11,13.45c0,0-3.24,13.37,12.27,16.69s25.59-.74,33.34-4.73c0,0,6.24,18.35,35.24,20.62s42.62-9.2,42.62-9.2,10.72,17.47,38.56,14.57,29.08-14.57,29.08-14.57,17.42,14,33.56,8.39,10.72-13.34,10.72-13.34,19.78,9.1,33.8.7,3.7-20.57-1.36-24.28c0,0,13.27,9.07,25.78,5.84S345.64,347,340.49,340s-25.17-21.35-56.62-28.16-53.33-5.51-53.33-5.51h0s48.18,6.34,72,15.72,29.69,22.21,28.56,25-10.86,8.15-33.65-3.09c0,0,12.08,16.68,4.35,23.69s-24,4.55-33.39-1.33c0,0,2,12.89-8.77,14.88s-21.93-1.71-31.42-9.28c0,0-9.48,15.06-28.46,15.61s-35.47-16.84-35.47-16.84a64.15,64.15,0,0,1-41.87,8.83c-24.33-3.27-36-16.85-36-16.85a40.75,40.75,0,0,1-28.61,2.31c-15.53-4.67-12.67-17.25-13.63-17.67s-26,5.39-30.5-5.7S26.06,318.51,54.91,311,104.8,302.72,104.8,302.72Z"/>
      <path class="cls-10" d="M44.64,311.85s-26.3,6.26-37.44,19.26,3.2,26.9,32,26c0,0-3.66,12.54,12.27,16.69s33.34-4.73,33.34-4.73,3.69,20.27,35.38,22.55,42.48-11.13,42.48-11.13,11.13,18.38,37.53,16,30.32-13.68,30.11-16c0,0,18.16,13.82,35.06,9.07,16.58-4.65,8.67-14.78,8.67-14.78s18.7,11.91,34.51,2.55,4.21-22.77-.85-24.86c0,0,11.94,9.95,30.11,3.52s-1.41-28.13-37.13-39.49c0,0,27.93,10.69,35.92,21.91s3.71,16.91-8.94,16.23-25-6-25-6,14.3,14.8,4,23.93-36.57-1.35-36.57-1.35,6.67,12.06-5.91,15.84-35.61-12.31-35.61-12.31-1.38,16-28,17.64-37.19-16.75-37.19-16.75-15.16,11.86-40.74,10.63-35.26-16-36.6-21.14c0,0-18.77,10.51-32.28,5.46s-12.07-16-12.07-16-28.66,1-33.51-12.79S34.44,314.41,44.64,311.85Z"/>
      <path class="cls-3" d="M246.39,308.7s-17.11-4-27.83-2.66l-2.93,6.13s25.56.47,43.55,4.83c16.31,4,28.84,12.56,33.07,17.62s3.73,13.5,3.13,17.5-2,9.22-2.9,12.52a33.36,33.36,0,0,1-3.22,7.15s9.42.32,13.57-5.39-.38-15.58-5.19-22.2c0,0,8.39,3.76,12.77,4.8,0,0-8.77-2.41-12-9.05s-8.58-14.5-25.53-21.82-49.74-9-49.74-9S227.35,306.8,246.39,308.7Z"/>
      <path class="cls-3" d="M86.79,305s21.78-4.14,36.08-1.49c0,0,2.52,6.46,3.58,8.31,0,0-27.59,1-45.65,5.75-21.95,5.76-36.5,21.17-36.5,29v1.11s-16.9,3.2-26.39-1.5c0,0,8.43.59,13.79-2.34,7.24-4,16.53-15,36.93-24.83s47.85-10.78,49.82-11.66S103.38,302.6,86.79,305Z"/>
      <path class="cls-11" d="M6.62,347.75s15.32,20.87,33.72,36.12a104.21,104.21,0,0,0,37.41,19.91s-25.82-20.11-35-34.34c0,0,14.43,18.8,12.7,19.72S28.54,368,22.24,361.51,17,354.16,17,354.16,10.43,352.08,6.62,347.75Z"/>
      <path class="cls-11" d="M88.51,377.31a113.75,113.75,0,0,0,20,24A106.74,106.74,0,0,0,134,418.35a92.43,92.43,0,0,1-30.38-2.92C86.59,411,77.15,403.31,77.15,403.31S100,413.86,111.4,415s4-4.57-3.66-12.81S90.94,383,88.51,377.31Z"/>
      <path class="cls-11" d="M162.71,380.47s2.23,12.22,3.59,22,5.9,20,5.9,20a37.56,37.56,0,0,1-15.26,3.43c-8.67.06-22.84-5.84-27.31-9.22,0,0,16,6.1,27,5.48,10.34-.57,11.66-3.57,11.66-3.57S162.1,398.82,162.71,380.47Z"/>
      <path class="cls-11" d="M230.35,380.47s.2,6.42-10.51,23.31-23,23-35.65,22.12-12.7-3.84-14.64-10.35c0,0,3,10.27,16.13,8.24s24.81-11,30.37-19,4.66-13.45,4.66-13.45S229,388,230.35,380.47Z"/>
      <path class="cls-11" d="M260.39,397.28s-14.13,15.64-26.73,21.35-28.36,10-33.71,3.67L211,414s-5.56,5.83-2.3,7.19S239.52,419.92,260.39,397.28Z"/>
      <path class="cls-11" d="M314.2,372.58s-18.7,29.18-50.29,38.77-28.48,5.12-28.48,5.12L247,409.83s5,2.3,20.33-2.71S309.2,382.23,314.2,372.58Z"/>
      <path class="cls-11" d="M343.64,352S330,368.32,319,378.18,295.12,400,287.21,399.7s-.44-.38-.44-.38,25.16-21.65,27.43-26.74c0,0-6,8.65-3.37,8.65s17-16.17,17.42-19.52-3.34-3.59-3.34-3.59S338.29,359.17,343.64,352Z"/>
      <path class="cls-12" d="M230.54,306.31s19.94-1.22,46.5,4.25,37.55,12.11,37.55,12.11-22.08-8.74-45.54-12.47,24.42,8.72,24.42,8.72S256.42,308.38,230.54,306.31Z"/>
    </g>
    <g>
      <path class="cls-13" d="M103.94,309.2s-7.7-11.4-21.75-14.4-33-1.37-38.53-1.37-16.9-6.08-19.85-15.26,3.59-13.28,3.59-13.28S5.75,257.26,5.75,234.63s18-25.19,18-25.19-10.56-21.43,5.7-37,31.68-9.94,31.68-9.94-4.65-14.74,15.41-26.57,39.91-3.77,39.91-3.77,13.94-21.94,44.35-21.43,38.85,18.51,38.85,18.51,27.88-7.71,45,.86a43.23,43.23,0,0,1,21.54,25s23.44-3.95,37.8,8.57,7,30.68,7,30.68,29.35,7.37,30.41,31.37-21.12,36.17-29.36,37.88c0,0,5.6,5.57-1.9,15.69s-21.32,11.31-25.76,11.31-38.22.43-56.06,20.66c0,0-17.35,10.85-57.76,11.88S103.94,309.2,103.94,309.2Z"/>
      <path class="cls-12" d="M43.06,263.83S66.78,266,86.84,273.89a89.22,89.22,0,0,1,31.89,21.43l6.54-19.89s-32.45-55.14-91.93-64.85h0s18.28,2,42.38,18.17,32.38,34.74,32,40.11-13,5.6-24.77,2.06S52,264.07,43.06,263.83Z"/>
      <path class="cls-12" d="M49.85,288.6s23.82,1.32,35.4,7c0,0,11.62,4.41,18.69,13.58,0,0,21.24,10.07,32.11,10.95l-17.32-24.83s-15.86-21-58.87-29c0,0,17.58,3.84,31.41,11s14,17.4-3.06,14.4S49.85,288.6,49.85,288.6Z"/>
      <path class="cls-12" d="M290.69,282.46s-29.65,4.63-45,13.86-17.44,14.94-17.44,14.94-6.51,5.32-28.76,8.89c0,0,16.19-26.16,16.61-26.9s36.25-21.09,81.23-27.47h0s-17.13,2.93-41.53,11.25-14.36,16.74-3.9,13.31S290.69,282.46,290.69,282.46Z"/>
      <path class="cls-12" d="M297.21,198.91s-23.92,7.64-55,29.69c-28.9,20.48-38.3,41.14-38.3,41.14L217,293.91s25.22-13.85,50.76-21,29.58-7.12,29.58-7.12h0l-8.68,1.43c-33.93,12-55.61,5.73-61.25-4.9s10-28,24.64-38.57,39.9-23,45.2-24.83Z"/>
      <path class="cls-12" d="M255.35,166.7S242.54,176.75,221.28,202s-33.5,58.28-33.5,58.28l15.2,8.8A232.72,232.72,0,0,1,232,236.6c17.54-16.19,65.12-37.68,65.12-37.68S252.4,217,232.83,232.18s-26.89,17.48-25.2,3.65,14.08-32.34,27.31-46.74,20.41-22.39,20.41-22.39Z"/>
      <path class="cls-12" d="M196.51,138.7s-6.2,16.4-13.8,53.42a498,498,0,0,0-9.17,65.14l14.24,3s13.78-32.46,34.45-59.4c0,0-16.36,17.63-22.77,27.57s-22.66,1-13.79-37.54,10.84-52.22,10.84-52.22Z"/>
      <path class="cls-12" d="M121.58,140.61s15.73,27.51,23.75,57.17a523.49,523.49,0,0,1,12,60.51l16.17-1s6.33-61.78,15-91.14c0,0-5.23,19-11.14,40.74S158,237.38,152.3,214.75a259.11,259.11,0,0,0-30.72-74.14Z"/>
      <path class="cls-12" d="M69.52,170.7a157.46,157.46,0,0,1,35.85,33.23c16.1,20.76,24.39,38,27.72,46.27A143.8,143.8,0,0,1,138.36,266l19-7.69s-2.88-36.34-15.8-72.77-20-44.91-20-44.91a440.06,440.06,0,0,1,19.53,52.71c8.66,29.14,5.07,43.2,1.06,45.94s-16-12.68-35.69-37.37S69.52,170.7,69.52,170.7Z"/>
      <path class="cls-6" d="M75.62,292.31s16.22,3.63,25.86,14.15l18.6.64L118,292.63s-9.8-10-28.61-17.69c0,0,17.52,10.24,20.89,15s1.41,11.58-7.39,10.43S90.57,295.65,75.62,292.31Z"/>
      <path class="cls-6" d="M102.48,248.27s14.7,15.16,22,25.56l-7.12,19.73a76.39,76.39,0,0,0-27.92-18.62A137,137,0,0,1,106.06,282c8.51,4.35,15.49-1.83,11.19-11.65S102.48,248.27,102.48,248.27Z"/>
      <path class="cls-6" d="M119.55,224.73s4.65,6.19,10.68,19S137,260.8,137,260.8l-12.6,13.27s-23-29.09-32.63-35.4c0,0,5.88,3.05,17.7,15.33s19.82,8.69,21,4.29,0-12.8-4.78-21.71S119.55,224.73,119.55,224.73Z"/>
      <path class="cls-6" d="M149.24,211.24s7.39,34.88,8.13,42.68L137,260.8s-10.27-26-18.09-37.08c0,0,11.51,18.11,16.05,24s17.1,7,18.26-3.17S149.24,211.24,149.24,211.24Z"/>
      <path class="cls-6" d="M179.15,213.32,174,252.74l-16.66,1.18s-5.7-35.62-8.13-42.68c0,0,6.23,39.34,17.11,35.45S179.15,213.32,179.15,213.32Z"/>
      <path class="cls-6" d="M208.47,221s-14.53,24.82-19.09,35.29L174,252.74s4.05-31.54,4.77-36.68,1-7.15,1-7.15-5.36,34.23,1.82,37.18S208.47,221,208.47,221Z"/>
      <path class="cls-6" d="M243.4,227.31a188.17,188.17,0,0,0-39.57,40.84l-14.72-12.07s12.09-23.95,19.36-35.1c0,0-13.79,25.65-12,29.77s6.52,8.83,12,5.05S229.66,237.22,243.4,227.31Z"/>
      <path class="cls-6" d="M277.1,269.52s-15.15,3.94-31.17,9.9a181.53,181.53,0,0,0-28.17,13.36l-14.11-25.19S220.28,245.9,233.86,235c0,0-15.25,14.57-17.05,23.24s4.54,23,25.24,18.52S277.1,269.52,277.1,269.52Z"/>
      <path class="cls-6" d="M263.46,289s-23.91,7.27-33.91,23c0,0-10.9-.47-11.49-1s-.29-18.49-.29-18.49,12.15-6.78,26.92-13.69c0,0-16,7.4-17,16.57S253.56,291,263.46,289Z"/>
      <path class="cls-9" d="M85.25,295.62s-12.14-3.73-41.59-2.19c0,0-15.41-2.08-19.06-13.27s2.8-15.27,2.8-15.27S6.88,257.78,5.75,235.61s18-26.17,18-26.17-9.16-20.27,4.11-35.39,28.62-13,33.27-11.58c0,0-4-18.17,18.25-28.12s37.07-2.22,37.07-2.22,13.73-21.94,44.35-21.43,38.85,18.51,38.85,18.51,22-8.74,43.08-2.05,23.44,27.94,23.44,27.94,26-5.15,40.23,9,4.54,30.25,4.54,30.25,29.77,6.52,31.36,29.49-14.05,37.28-30.31,39.76c0,0,4.86,4.89.85,14s-17.11,13.12-28.51,13-27.78,3-39.86,8.63-12.89,9.88-12.89,9.88,3.27-8.94,23-16.94a147.48,147.48,0,0,1,36.18-9.71s10.56-1.71,12.24-9.37-5.63-7.31-5.63-7.31,40.13-14.86,34.49-40.46-34.63-26.4-34.63-26.4,15.66-13.72,2.26-28.91-44.07-3.31-44.07-3.31,3.94-21.15-22-31.09-36.88,3.09-36.88,3.09-12.11-20.8-36.82-20.29-37.69,18.43-38.11,22.2c0,0-13.62-6.25-35.37,2.14s-16.69,27.6-16.69,27.6-23.51.12-32.09,12.57-4.09,27.66-4.09,27.66S14.76,219,16.87,235.38s26.19,28.45,26.19,28.45-7,3.43-6.34,11,9.72,13.26,13.8,13.95S75.36,289,85.25,295.62Z"/>
      <path class="cls-10" d="M27.4,264.89A34,34,0,0,1,5.75,235.61c-1.9-22.75,18-26.17,18-26.17s-10.14-22,4.65-37.4a33.14,33.14,0,0,1,32.73-9.57s-4-19.37,19.85-29,35.47-1.37,35.47-1.37,13.69-22.61,46-21.44c32.5,1.17,37.16,18.52,37.16,18.52s25.65-10.36,46.83-.64,19.69,26.53,19.69,26.53,28.95-5.27,42.1,11,2.67,28.23,2.67,28.23,25.56,3.77,31.47,24.17-6.13,41-30.42,45.08a38.22,38.22,0,0,0,24.72-24.78c6.76-20.22-4.23-38.64-31.05-41.64,0,0,11.85-11.86-2.74-29.05s-41.6-8.58-41.6-8.58,1.39-23.1-25.85-29.62-39,4.6-39,4.6-5.77-19.81-36.81-19.81S118.94,135,118.94,135s-14.45-6.31-35.71,3.18-17.79,27.9-17.79,27.9-23.27-3.52-34.06,11S27.85,212,27.85,212,8.5,217.11,13,239.05s22.74,26.37,22.74,26.37-8.76,3.66-6.08,14.86,14,13.15,14,13.15S28.34,291.77,23.91,279C20.17,268.25,27.4,264.89,27.4,264.89Z"/>
    </g>
    <g>
      <g>
        <circle class="cls-14" cx="168.86" cy="254.57" r="101.57" transform="translate(-130.55 193.97) rotate(-45)"/>
        <circle class="cls-15" cx="165.6" cy="250.04" r="94.59" transform="translate(-128.3 190.33) rotate(-45)"/>
        <circle class="cls-16" cx="162.71" cy="243.51" r="89.38"/>
        <circle class="cls-17" cx="160.33" cy="240.13" r="81.82" transform="translate(-122.84 183.7) rotate(-45)"/>
      </g>
      <path class="cls-18" d="M65,80.49s40.81,72.21,39,83c-.94,5.62-80.85,65.47-80.85,65.47s79.91-55.16,86.78-54.54,56.81,94,56.81,94-45.58-95.83-45.26-99.58,68.36-41.16,68.36-41.16-72.25,30.89-74.61,31.17C109.53,159.45,65,80.49,65,80.49Z"/>
      <path class="cls-18" d="M189.2,184.91s-61.3-15.74-66.26-22.41c-2.6-3.49,10.79-59,10.79-59s-16,53-19.94,56.44-66.26-9.38-66.26-9.38,61.35,16.55,63.24,18.7-13.5,59.36-13.5,59.36,21.21-56.06,22.3-57.51C122.22,167.65,189.2,184.91,189.2,184.91Z"/>
    </g>
  </g>
</svg>
