<svg xmlns="http://www.w3.org/2000/svg" xmlns:xlink="http://www.w3.org/1999/xlink" viewBox="0 0 128 128"><defs><style>.cls-1{isolation:isolate;}.cls-2{fill:url(#linear-gradient);}.cls-3{mix-blend-mode:screen;opacity:0.55;fill:url(#linear-gradient-2);}.cls-4{fill:#f28e2c;}.cls-5{fill:#603913;}</style><linearGradient id="linear-gradient" x1="566.3" y1="249.23" x2="583.63" y2="286.05" gradientTransform="translate(-457.59 -291.13) rotate(9.54)" gradientUnits="userSpaceOnUse"><stop offset="0" stop-color="#ffe200"/><stop offset="0.21" stop-color="#ffdc02"/><stop offset="0.47" stop-color="#ffcd07"/><stop offset="0.76" stop-color="#ffb30f"/><stop offset="1" stop-color="#ff9817"/></linearGradient><linearGradient id="linear-gradient-2" x1="567.59" y1="245.45" x2="568.92" y2="267.47" gradientTransform="translate(-457.59 -291.13) rotate(9.54)" gradientUnits="userSpaceOnUse"><stop offset="0" stop-color="#fff"/><stop offset="0.11" stop-color="#fff" stop-opacity="0.98"/><stop offset="0.24" stop-color="#fff" stop-opacity="0.93"/><stop offset="0.37" stop-color="#fff" stop-opacity="0.84"/><stop offset="0.5" stop-color="#fff" stop-opacity="0.72"/><stop offset="0.64" stop-color="#fff" stop-opacity="0.57"/><stop offset="0.77" stop-color="#fff" stop-opacity="0.38"/><stop offset="0.91" stop-color="#fff" stop-opacity="0.16"/><stop offset="1" stop-color="#fff" stop-opacity="0"/></linearGradient></defs><g class="cls-1"><g id="Layer_1" data-name="Layer 1"><path class="cls-2" d="M68.76,43.88,73.08,55l11,4.53a2.61,2.61,0,0,1,.65,4.42l-9.22,7.54-.91,11.89a2.6,2.6,0,0,1-4,2l-10-6.45L49,81.72a2.59,2.59,0,0,1-3.12-3.18l3-11.53L42.67,56.86a2.59,2.59,0,0,1,2.07-4l11.9-.68,7.72-9.09A2.6,2.6,0,0,1,68.76,43.88Z"/><path class="cls-3" d="M52.09,67.19A25.47,25.47,0,0,0,77.17,57l-4.91-2-4-10.38c-.67-1.71-2.2-1.92-3.39-.52l-7.76,9.13-11.69.6c-1.84.1-2.51,1.36-1.55,2.93l5.85,9.48-.1.39C50.39,66.86,51.23,67,52.09,67.19Z"/><circle class="cls-4" cx="53.31" cy="65.95" r="2.58"/><circle class="cls-4" cx="71.55" cy="69.01" r="2.58"/><circle class="cls-5" cx="59.08" cy="62.43" r="1.86"/><circle class="cls-5" cx="67.44" cy="63.83" r="1.86"/><path class="cls-5" d="M61.5,73.62a7.32,7.32,0,0,1-6-8.43l1.6.27a5.7,5.7,0,0,0,11.24,1.89l1.6.26A7.32,7.32,0,0,1,61.5,73.62Z"/></g></g></svg>