<svg xmlns="http://www.w3.org/2000/svg" xmlns:xlink="http://www.w3.org/1999/xlink" viewBox="0 0 422.59 512"><defs><style>.cls-1{isolation:isolate;}.cls-2{stroke:#e8ebfc;stroke-width:18px;fill:url(#linear-gradient);}.cls-11,.cls-12,.cls-14,.cls-2,.cls-5{stroke-miterlimit:10;}.cls-11,.cls-13,.cls-3{fill:#3b2314;}.cls-4{fill:#5d3c2a;}.cls-5{fill:#895b46;stroke:#231f20;}.cls-5,.cls-7,.cls-9{stroke-width:0.75px;}.cls-14,.cls-5{opacity:0.3;}.cls-6{fill:#b73e7b;}.cls-6,.cls-8{stroke:#561d1d;}.cls-7{fill:#e585b3;}.cls-7,.cls-9{stroke:#ffe6e6;}.cls-8{fill:#e4609c;}.cls-9{fill:#f38fbb;}.cls-10{fill:#231f20;}.cls-11{stroke:#210f00;}.cls-11,.cls-16,.cls-18{stroke-width:0.5px;}.cls-12{fill:#ffe743;stroke:#705b01;}.cls-13{opacity:0.24;}.cls-14{fill:#e0aa24;stroke:#eac71c;stroke-width:0.25px;}.cls-15{fill:#754c28;}.cls-16{fill:#20a7c6;stroke:#20497a;}.cls-17{fill:#0795b9;}.cls-18{fill:#fefdeb;stroke:#832f0a;stroke-linecap:round;stroke-linejoin:round;}.cls-19{mix-blend-mode:multiply;}.cls-20{fill:#f2efda;}.cls-21{fill:#381b0d;}.cls-22{fill:#fff;}.cls-23{fill:#4c4218;}</style><linearGradient id="linear-gradient" x1="-4958.88" y1="-3171.74" x2="-4559.05" y2="-3171.74" gradientTransform="translate(3383.04 -4502.96) rotate(-90)" gradientUnits="userSpaceOnUse"><stop offset="0" stop-color="#87d1dd"/><stop offset="0.55" stop-color="#b6dfe6"/><stop offset="1" stop-color="#d9eaed"/></linearGradient></defs><g class="cls-1"><g id="Layer_1" data-name="Layer 1"><circle class="cls-2" cx="211.29" cy="256" r="199.91"/><path class="cls-3" d="M200.31,325.06s-4.61,10-9,10.23-31.08-13.09-31.08-13.09l-1.91,3.33L186.05,338s7.57,4.24,12.89-3,7.49-10.12,7.49-10.12Z"/><path class="cls-3" d="M154.24,324.4l-2.13,5.33s-.75,5.11-6.65,17.55-20.23,12-19.39,1.48,8.32-29.69,19-32.26a7.24,7.24,0,0,1,3.36-1.68c3.22-.62,6.76,1.22,9.08,4.6l2.78,1.52-3.38,4.85-2.12-1.36Z"/><path class="cls-4" d="M156,325.64l2.62,1.32,3.55-5.18-2.78-1.51c-2.32-3.39-5.86-5.23-9.07-4.61a7.11,7.11,0,0,0-3.36,1.69c-10.65,2.56-18.13,21.71-19,32.25s13.5,11,19.4-1.48,6.64-17.54,6.64-17.54l1.92-4.8Z"/><path class="cls-5" d="M140.62,331.7l6.9,2.56s-4.49,11.23-6.9,14.38-9.76,0-4.88-8.47Z"/><path class="cls-5" d="M144.48,322.79a17.46,17.46,0,0,0,8,3.79l-1.18,2.1s-7.12-1.11-8.12-4.09l1.09-1.85Z"/><path class="cls-3" d="M158.65,327l3.55-5.18S163.94,328.07,158.65,327Z"/><path class="cls-6" d="M207.18,211.76s-8.46-15-22-14.74-12.78,18.89-8.29,25.42,17.06,25.43,39.9,34.73S211.9,230.33,207.18,211.76Z"/><path class="cls-7" d="M206.8,212.86S199,199,186.41,199.2s-11.84,17.5-7.67,23.55,15.81,23.56,37,32.18S211.17,230.06,206.8,212.86Z"/><path class="cls-6" d="M248.83,257.94s-14.32,6.61-24.48-3.75S199,209.36,201.87,186.7c2.5-19.83,15.2-28.68,24.45-24.66,10.79,4.69,10.18,27.31,10.37,40.85C237,228.12,248.83,257.94,248.83,257.94Z"/><path class="cls-7" d="M245.73,252.43s-12.94,5.83-22.22-3.51-23.23-40.28-20.78-60.55c2.15-17.74,13.61-25.59,22-21.94,9.81,4.26,9.39,24.51,9.64,36.63C234.86,225.66,245.73,252.43,245.73,252.43Z"/><path class="cls-8" d="M157.85,239.39s-17-8.28-29.06.35.19,25,8.32,28.13,31.22,12.38,57.65,6.59S173.66,253.24,157.85,239.39Z"/><path class="cls-9" d="M158.19,240.61s-15.72-7.66-26.93.33.18,23.18,7.7,26.06,28.94,11.47,53.43,6.11S172.83,253.44,158.19,240.61Z"/><path class="cls-8" d="M226.22,256.07s-10.85,14.05-26.48,11S149,242.3,137.47,220c-10.07-19.49-4.09-35.38,6.77-37.5C156.91,180.07,170.42,200.9,179,213,195,235.62,226.22,256.07,226.22,256.07Z"/><path class="cls-9" d="M223,256.23s-13.12,9.27-27.31,6.59-46-22-56.42-41.82c-9.09-17.37-3.61-31.58,6.26-33.51,11.52-2.25,23.73,16.32,31.49,27.12C191.51,234.75,223,256.23,223,256.23Z"/><path class="cls-10" d="M280,176.05s12.91-29.65,36.91-41.56l1,2s-22,10.21-35.91,41.19Z"/><rect class="cls-10" x="318.18" y="121.64" width="9.68" height="21.13" rx="4.84" transform="translate(347.27 480.38) rotate(-116.24)"/><path class="cls-10" d="M227.21,195.78s-24-21.63-50.81-22.53l-.08,2.28s24.29.17,49.75,22.61Z"/><rect class="cls-10" x="165.02" y="163.16" width="9.68" height="21.13" rx="4.84" transform="translate(-9.03 338.14) rotate(-88.23)"/><path class="cls-11" d="M316.27,286.61s-13.44,10-33.88,9.17c0,0-5.82-2.65-8-17.82s-3-15.81-3-15.81-2.83-1.29-2.91.69,2.2,28.65,10.42,35.29c7.18,5.8,38.53-4.89,40.19-7.71S317.92,285.43,316.27,286.61Z"/><path class="cls-11" d="M315.45,292.66s2.55,3.2,4.43,2.61c10.37-3.26,4.05-10.42,4.05-10.42s-.13-7.83-3.34-6.7C313.44,280.65,306.28,284.24,315.45,292.66Z"/><path class="cls-11" d="M326.31,285.92s2.58-.07,2.68,1.77a4.32,4.32,0,0,1-3.61,4.42c-2.36.33-4.53-1.21-2.5-4S326.31,285.92,326.31,285.92Z"/><path class="cls-11" d="M326.18,281.19s4.64,2.76-.55,6.75-6.36.74-6.59,0,0-2.82,2.59-4.21S326.18,281.19,326.18,281.19Z"/><path class="cls-11" d="M312.06,285s3.59.09,4.94,1.08,2.72,3-3.41,3.75-4.72-5.26-2.87-6.59l8.09-5.46c5.56-3.12,7.61.92,7.66,2.43.09,2.3-6.23,6.2-7.88,3.24s.94-4.31.94-4.31"/><path class="cls-12" d="M276.09,246.57S274.64,292,231.84,319c-16.22,10.26-94.59,12.38-70.57-41.15,13.63-25.47,39.8-23.14,60.47-21.66,4.44.32,11.63-2.93,14.61-5.67l3.58-2.51Z"/><path class="cls-3" d="M213.8,255.55s-2.43,35.57,44.37,39.17c-2.81,4.44-9.9,11.55-9.9,11.55s-46.91-9.46-45.33-51h5.28Z"/><path class="cls-3" d="M184.69,257.93s-4,50.74,55.06,55.78a43.86,43.86,0,0,1-7.4,5.24,30,30,0,0,1-8.49,3.45s-47.64-8.67-49.9-59.32c.23-.11,1.15-.78,2.37-1.48a30.62,30.62,0,0,1,3-1.58A30.12,30.12,0,0,1,184.69,257.93Z"/><path class="cls-3" d="M232.57,253s13.76,22.46,36,23.42a45.41,45.41,0,0,1-4.77,9.52s-35.48-7.23-39.25-30l3.6-1c.36-.1.82-.34,1.26-.45Z"/><path class="cls-3" d="M160.15,280.22c-1,1.88-8,15.66.1,28.79s28.28,20.27,48.11,15.74C178.52,322.71,159.38,297.76,160.15,280.22Z"/><path class="cls-3" d="M127.73,317.89l28.49,13s9.49,3.39,14.3-3.84c4.37-5.5,9.07-12.53,11.38-16.07a2.72,2.72,0,0,1,3.74-.8h0a3.51,3.51,0,0,1,.62,5.38L170.58,333s-5.91,5.49-18.86-.49c-15.29-7-25.93-11.76-25.93-11.76Z"/><path class="cls-3" d="M120.45,319.33l-2.34,5.83s-.81,5.6-7.26,19.2S88.72,357.5,89.64,346s9.1-32.47,20.75-35.27a7.85,7.85,0,0,1,3.67-1.85c3.52-.67,7.39,1.34,9.93,5l3,1.65-3.76,5.38-2.45-1.35Z"/><path class="cls-4" d="M122.4,320.69l2.87,1.44,3.88-5.66-3-1.66c-2.54-3.7-6.41-5.71-9.93-5a7.94,7.94,0,0,0-3.68,1.85c-11.64,2.81-19.82,23.75-20.74,35.27s14.75,12,21.21-1.61,7.26-19.19,7.26-19.19l1.73-4.31Z"/><path class="cls-5" d="M105.56,327.31l7.54,2.8s-4.91,12.28-7.54,15.74-10.68,0-5.34-9.27Z"/><path class="cls-5" d="M109.77,317.57a19.12,19.12,0,0,0,8.71,4.15l-1.3,2.29s-7.78-1.21-8.87-4.47l1.19-2Z"/><path class="cls-3" d="M129.15,316.47s.23,6.21-3.88,5.66Z"/><path class="cls-13" d="M254.17,261.23s-1.27,15.56-22.59,28.07-65.75,15.91-75.07,3.17c0,0-3,16.54,15.27,27.35,17.59,10.4,50.79,3.63,57.64.62,8.38-3.68,26.25-19.36,34.56-34.74A109.6,109.6,0,0,0,273.9,261s3.78-13.1,0-15.34c-8.17-4.83-28.38-.58-34.45,2.65a31.26,31.26,0,0,0-4.19,2.92C235,251.56,246.59,260.25,254.17,261.23Z"/><path class="cls-12" d="M221,228.3c6,24.06,30.16,29.68,56.83,24.24s42.29-19.15,36.26-43.21-29-39.88-55.71-34.44C225.13,181.66,214.92,204.24,221,228.3Z"/><path class="cls-14" d="M226.94,193s-9.42,63.89,70.14,52.68c-.95.13,2,.06-15.76,5.53a102.69,102.69,0,0,1-18.38,2.61c-4.6.1-12.82.73-21.88-3.29a27.43,27.43,0,0,1-12.17-8C217.49,229.66,216.15,207.38,226.94,193Z"/><ellipse class="cls-15" cx="275.58" cy="225.49" rx="1.88" ry="3.21" transform="translate(-49.97 81.23) rotate(-15.39)"/><path class="cls-10" d="M220.43,215.35c1.19,1.2,1.55,3.66,2.62,6.33,2.46,6.11,1.65,11.75,1,13.38a37.62,37.62,0,0,1-3.66-10.52A45.3,45.3,0,0,1,220.43,215.35Z"/><path class="cls-10" d="M307,195.32s-5,9.46,6.7,17.15a42.59,42.59,0,0,0-3.57-11.95C309.36,198.86,307.9,196.7,307,195.32Z"/><path class="cls-10" d="M272.58,173.49s-9.64-2.41-23.71,3.34C247.81,180.25,272.29,180.32,272.58,173.49Z"/><path class="cls-16" d="M277.08,204.06c2.8,9.62,10.66,15.5,17.57,13.14s10.24-12.08,7.44-21.7-10.66-15.5-17.57-13.14S274.28,194.44,277.08,204.06Z"/><path class="cls-17" d="M277.83,209.91c2.44,8.37,9.89,13.29,16.64,11s10.27-11,7.84-19.34-9.89-13.29-16.65-11S275.4,201.54,277.83,209.91Z"/><path class="cls-18" d="M278,206.15c2.44,8.37,9.89,13.28,16.65,11s10.27-11,7.83-19.34-9.89-13.29-16.64-11S275.54,197.78,278,206.15Z"/><g class="cls-19"><path class="cls-20" d="M283,183.06c-4.62,3.52-6.57,11.27-4.33,19,2.64,9.06,10.05,14.6,16.55,12.37,4.49-1.53,7.37-6.35,7.87-12.16,0,7.06-3.15,13.15-8.42,14.95-6.91,2.36-14.77-3.52-17.57-13.14C274.5,195.19,277.14,186.25,283,183.06Z"/></g><path class="cls-21" d="M283.54,203.48c.73,4.63,4.31,7.8,8,7.07s6.08-5.08,5.34-9.71-4.31-7.8-8-7.07S282.81,198.85,283.54,203.48Z"/><path class="cls-22" d="M292.92,198.57a2,2,0,0,0,2.29,1.91,2.4,2.4,0,0,0,1.64-2.75,2,2,0,0,0-2.29-1.91A2.4,2.4,0,0,0,292.92,198.57Z"/><path class="cls-16" d="M236.39,212.91c2.75,9.51,10.51,15.34,17.34,13s10.15-11.92,7.4-21.43-10.5-15.35-17.33-13S233.65,203.4,236.39,212.91Z"/><path class="cls-17" d="M237.12,218.7c2.39,8.28,9.75,13.15,16.44,10.88s10.17-10.83,7.78-19.11-9.75-13.15-16.43-10.88S234.73,210.42,237.12,218.7Z"/><path class="cls-18" d="M237.27,215c2.39,8.28,9.75,13.15,16.43,10.88s10.17-10.82,7.79-19.1-9.75-13.15-16.44-10.88S234.88,206.7,237.27,215Z"/><g class="cls-19"><path class="cls-20" d="M242.28,192.17c-4.59,3.47-6.53,11.13-4.33,18.75,2.59,9,9.9,14.45,16.34,12.27,4.43-1.51,7.29-6.27,7.8-12,0,7-3.14,13-8.36,14.76-6.83,2.31-14.59-3.52-17.34-13C233.86,204.14,236.49,195.31,242.28,192.17Z"/></g><path class="cls-21" d="M242.78,211.85c.72,4.58,4.25,7.71,7.89,7s6-5,5.31-9.59-4.25-7.71-7.89-7S242.07,207.26,242.78,211.85Z"/><path class="cls-22" d="M251.47,206.17a1.89,1.89,0,0,0,2.26,1.76,2.44,2.44,0,0,0,1.75-2.65,1.89,1.89,0,0,0-2.26-1.76A2.44,2.44,0,0,0,251.47,206.17Z"/><path class="cls-23" d="M258.26,236.09a64.49,64.49,0,0,0,10.67,1A39.93,39.93,0,0,0,279.36,236a27.94,27.94,0,0,0,7.21-2.93c.72-.47,1.47-.92,2.16-1.45a30.2,30.2,0,0,0,7.12-7.83,22,22,0,0,1-6.14,9,23.51,23.51,0,0,1-9.85,5.11,32.74,32.74,0,0,1-11,.77A34.93,34.93,0,0,1,258.26,236.09Z"/><path class="cls-11" d="M302.9,277.2s3.89.16,4.19,3.42-4.61,4.42-7.37,3.44S294.39,276.66,302.9,277.2Z"/><path class="cls-11" d="M295.1,280.47s-19.7,16.27-32.69,13.92c-6.67-1.2-15.74-32.49-15.74-32.49s-2.21-1.75-3,1.64c-.46,2.06,7.51,26.94,15.38,33.34s37.07-10,37.07-10l1.35.88S301.51,278.88,295.1,280.47Z"/><path class="cls-11" d="M294.83,283.29s11.85-7.79,4.33-10.61S288.54,282,288.54,282l1.44,3.51"/><path class="cls-11" d="M290.55,288.66s1,3.79,2.71,4.16c3.75.83,13.37-4.4,10.72-7.77s-7.61,1.2-7.61,1.2"/><path class="cls-11" d="M294,280.86s6.14-5.9,9-1.95c3.17,4.39-8.18,9.2-8.18,9.2"/><path class="cls-14" d="M243,181.39s-23.38,26.74,1.75,56.59c0,0-21.57-11.18-19.07-35.82C227.21,187.31,243,181.39,243,181.39Z"/></g></g></svg>