<svg xmlns="http://www.w3.org/2000/svg" xmlns:xlink="http://www.w3.org/1999/xlink" viewBox="0 0 422.59 512"><defs><style>.cls-1{isolation:isolate;}.cls-2{stroke:#e8ebfc;stroke-width:18px;fill:url(#linear-gradient);}.cls-15,.cls-16,.cls-17,.cls-2,.cls-20,.cls-30{stroke-miterlimit:10;}.cls-3{fill:#e8940f;}.cls-29,.cls-4{fill:#231f20;}.cls-5{fill:#8e3411;}.cls-19,.cls-20,.cls-24,.cls-6{mix-blend-mode:multiply;}.cls-7{fill:url(#radial-gradient);}.cls-26,.cls-8{mix-blend-mode:screen;}.cls-9{fill:url(#linear-gradient-2);}.cls-10{fill:url(#linear-gradient-3);}.cls-11{fill:url(#linear-gradient-4);}.cls-12,.cls-30{fill:#c97506;}.cls-12,.cls-29,.cls-30{mix-blend-mode:color-dodge;}.cls-13{fill:#da5232;}.cls-14,.cls-26{fill:#fff;}.cls-15,.cls-16,.cls-17,.cls-20,.cls-30{stroke:#1d1d1b;}.cls-15,.cls-16,.cls-17{stroke-width:0.5px;}.cls-15{fill:url(#linear-gradient-5);}.cls-16{fill:url(#linear-gradient-6);}.cls-17{fill:url(#linear-gradient-7);}.cls-18{fill:url(#linear-gradient-8);}.cls-19,.cls-20{fill:#abadaf;}.cls-19,.cls-20,.cls-28{opacity:0.4;}.cls-20,.cls-30{stroke-width:0.25px;}.cls-21{fill:#ee982a;}.cls-22{fill:url(#linear-gradient-9);}.cls-23{fill:url(#linear-gradient-10);}.cls-24{fill:#da713b;opacity:0.6;}.cls-25{fill:#fffac4;}.cls-25,.cls-26{opacity:0.5;}.cls-27{fill:url(#linear-gradient-11);}.cls-28{fill:#000068;}</style><linearGradient id="linear-gradient" x1="1045.28" y1="-975.91" x2="1445.11" y2="-975.91" gradientTransform="translate(1187.2 1501.2) rotate(-90)" gradientUnits="userSpaceOnUse"><stop offset="0" stop-color="#87d1dd"/><stop offset="0.55" stop-color="#b6dfe6"/><stop offset="1" stop-color="#d9eaed"/></linearGradient><radialGradient id="radial-gradient" cx="-1273.7" cy="1267.33" r="72.46" gradientTransform="matrix(-1.02, -0.12, -0.13, 1.04, -885.9, -1297.07)" gradientUnits="userSpaceOnUse"><stop offset="0" stop-color="#ffeb60"/><stop offset="0.13" stop-color="#fee459"/><stop offset="0.31" stop-color="#fad245"/><stop offset="0.53" stop-color="#f5b326"/><stop offset="0.73" stop-color="#ee9001"/><stop offset="0.74" stop-color="#dd5536"/></radialGradient><linearGradient id="linear-gradient-2" x1="-1308.69" y1="1304.08" x2="-1275.84" y2="1326.74" gradientTransform="matrix(-0.99, -0.12, -0.12, 0.99, -878.92, -1277.48)" gradientUnits="userSpaceOnUse"><stop offset="0.04" stop-color="#d2b597"/><stop offset="0.08" stop-color="#bda388"/><stop offset="0.19" stop-color="#84725f"/><stop offset="0.29" stop-color="#55493d"/><stop offset="0.39" stop-color="#302922"/><stop offset="0.49" stop-color="#161310"/><stop offset="0.57" stop-color="#060504"/><stop offset="0.63"/></linearGradient><linearGradient id="linear-gradient-3" x1="127.62" y1="225.5" x2="197.84" y2="225.5" gradientUnits="userSpaceOnUse"><stop offset="0.57" stop-color="#da5934"/><stop offset="0.87" stop-color="#de6435"/><stop offset="0.99" stop-color="#bf6b4e"/></linearGradient><linearGradient id="linear-gradient-4" x1="254.34" y1="326.03" x2="292.8" y2="326.03" xlink:href="#linear-gradient-3"/><linearGradient id="linear-gradient-5" x1="-779.61" y1="256.35" x2="-707.36" y2="256.35" gradientTransform="matrix(-1, 0, 0, 1, -524.74, 0)" xlink:href="#linear-gradient-3"/><linearGradient id="linear-gradient-6" x1="-954.06" y1="252.21" x2="-677.04" y2="252.21" gradientTransform="matrix(-1, 0, 0, 1, -524.74, 0)" gradientUnits="userSpaceOnUse"><stop offset="0.02" stop-color="#f2a434"/><stop offset="0.22" stop-color="#ef9b30"/><stop offset="0.38" stop-color="#ec902c"/><stop offset="0.49" stop-color="#e1603d"/></linearGradient><linearGradient id="linear-gradient-7" x1="-736.77" y1="267.18" x2="-537.39" y2="267.18" gradientTransform="matrix(-1, 0, 0, 1, -524.74, 0)" gradientUnits="userSpaceOnUse"><stop offset="0.53" stop-color="#b05439"/><stop offset="0.86" stop-color="#624229"/></linearGradient><linearGradient id="linear-gradient-8" x1="-811.17" y1="266.99" x2="-574.88" y2="266.99" gradientTransform="matrix(-1, 0, 0, 1, -524.74, 0)" gradientUnits="userSpaceOnUse"><stop offset="0" stop-color="#db5a34"/><stop offset="0.57" stop-color="#dc5931"/><stop offset="0.88" stop-color="#bf6b50"/><stop offset="0.99" stop-color="#005b97"/></linearGradient><linearGradient id="linear-gradient-9" x1="222.27" y1="338.74" x2="257.69" y2="338.74" xlink:href="#linear-gradient-3"/><linearGradient id="linear-gradient-10" x1="224.2" y1="283.35" x2="259.62" y2="283.35" xlink:href="#linear-gradient-3"/><linearGradient id="linear-gradient-11" x1="-695.47" y1="271.04" x2="-472.79" y2="271.04" gradientTransform="matrix(-1, 0, 0, 1, -524.74, 0)" gradientUnits="userSpaceOnUse"><stop offset="0.01" stop-color="#cce0f4"/><stop offset="0.05" stop-color="#cdd9eb"/><stop offset="0.1" stop-color="#cfc6d1"/><stop offset="0.18" stop-color="#d2a8a8"/><stop offset="0.27" stop-color="#d67e6f"/><stop offset="0.35" stop-color="#db4f2f"/><stop offset="0.57" stop-color="#1e9cd7"/><stop offset="0.99" stop-color="#a85338"/></linearGradient></defs><g class="cls-1"><g id="Layer_1" data-name="Layer 1"><circle class="cls-2" cx="211.29" cy="256" r="199.91"/><path class="cls-3" d="M262.48,200.08s.9-1.39,11-9.9,2.3-14.85-3.83-12.82-6.76-.78-11.6-5.29-15.23-13.88-23.77,0c-4.18,6.2-9.3,5.88-16.3,3.09s-15.38-.51-18.53,9.3c-2.2,5.93-5.83,7.51-13.13,9.15s-14,4-9.53,7.83C177.46,202,221.19,185,262.48,200.08Z"/><path class="cls-4" d="M262,200a17.64,17.64,0,0,1,2.88-2.85c1.78-1.62,3.6-3.19,5.42-4.76,2.74-2.33,5.78-4.53,7.16-8a5.12,5.12,0,0,0-1.16-5.61c-2.49-2.49-5.64-1.22-8.57-.66-4.31.83-6.76-2.68-9.5-5.38s-6-5.49-9.65-7c-6-2.4-10.75,1.56-13.87,6.46a10.34,10.34,0,0,1-10,5c-5.43-.61-10-3.95-15.6-2.49a12.5,12.5,0,0,0-6.38,4.33c-1.88,2.29-2.5,5.16-3.84,7.72-2.16,4.18-6.58,5.62-10.8,6.67-3.4.85-6.87,1.49-10,3.09-1.2.61-2.46,1.61-2.17,3.12.13.61.59,1.66,1.15,1.51,2.06-.47,4.09-1.15,6.13-1.7,20.92-5.71,43.05-7.81,64.35-3.75a99.78,99.78,0,0,1,15.2,4.21c.59.21-.26.37-.53.28-23.92-8.64-50.22-7.43-74.72-1.33-2.79.69-5.55,1.48-8.3,2.26-.6.17-2.23.92-2.82.34-4.34-4.07,2.95-6.26,6.07-7.16,5.3-1.54,11.52-1.88,15-6.81,1.49-2.14,2-4.82,3.31-7.08a13.6,13.6,0,0,1,5.12-5c3.39-1.94,7.58-1.89,11.2-.8,2.74.82,5.24,2,8.15,2.24,3.2.23,5.78-1.38,7.78-3.78,1.84-2.2,3.08-4.57,5.37-6.38a10.58,10.58,0,0,1,4.9-2.06c7.35-1.17,13.88,5.91,18.44,10.62,1.36,1.42,2.68,2.62,4.88,2.53a28,28,0,0,0,3.75-.89,9.57,9.57,0,0,1,4.51.36c3.41,1.11,4.71,4.47,3.4,7.75-1.09,2.71-3.56,4.65-5.71,6.47s-4.29,3.67-6.39,5.57a19.51,19.51,0,0,0-3.22,3.14C262.78,200.42,261.86,200.2,262,200Z"/><path class="cls-5" d="M262.62,186.82a13.75,13.75,0,0,0-1.25,1.09,29.51,29.51,0,0,0-2.43,2.62,30.25,30.25,0,0,0-2.12,2.91,12.76,12.76,0,0,0-.81,1.45,13.65,13.65,0,0,0,1.24-1.08,30.08,30.08,0,0,0,2.44-2.64,31.77,31.77,0,0,0,2.11-2.9C262.32,187.44,262.62,186.82,262.62,186.82Z"/><path class="cls-5" d="M257.08,183.94a11.78,11.78,0,0,0-1,1.18,26.51,26.51,0,0,0-1.8,2.83,27.63,27.63,0,0,0-1.44,3,11.43,11.43,0,0,0-.5,1.46,15.4,15.4,0,0,0,1-1.18,33.46,33.46,0,0,0,1.8-2.84,26.51,26.51,0,0,0,1.43-3A10.84,10.84,0,0,0,257.08,183.94Z"/><path class="cls-5" d="M244,181.18a14.35,14.35,0,0,0-.68,1.38,28.78,28.78,0,0,0-1.1,3.11,28.45,28.45,0,0,0-.68,3.25,12.3,12.3,0,0,0-.15,1.53,10.93,10.93,0,0,0,.69-1.38,25,25,0,0,0,1.08-3.13,26.35,26.35,0,0,0,.7-3.24A13.27,13.27,0,0,0,244,181.18Z"/><path class="cls-5" d="M237,182.15a7.27,7.27,0,0,0-.39,1.15,16.83,16.83,0,0,0-.43,2.55,17.36,17.36,0,0,0,0,2.58,8.29,8.29,0,0,0,.18,1.18,7.35,7.35,0,0,0,.39-1.14,17.28,17.28,0,0,0,.43-2.55,15,15,0,0,0,0-2.59A7.34,7.34,0,0,0,237,182.15Z"/><g class="cls-6"><path class="cls-7" d="M186.33,193.48c7.31-1.68,10.94-3.29,13.15-9.31,3.17-10,11.54-12.28,18.55-9.48s12.12,3.14,16.31-3.16c3.61-5.94,7.55-7.71,11.23-7.41a12.53,12.53,0,0,0-8.81,6.26c-4.77,8.34-7.91,10-18.4,7.64-16.25-4.71-23,16-9.87,11.28s26.12.13,27-4.31,2.84-9.91,2.48-4.24,1.26,11,3.76,3.95,5.47-9.94,3.83-1.91,1.3,10.72,5.6,6.34,9.1-10.36,6.52-5.29-4.55,10.55-1.94,7.82,9.51-11,7.93-7.31-7.84,9.34-4.3,9.74a29.9,29.9,0,0,1,6.85,2.17,31.19,31.19,0,0,0-3.71,3.64c-41.27-15.27-85,2.14-85.71,1.55C172.34,197.57,179,195.16,186.33,193.48Z"/></g><g class="cls-8"><path class="cls-9" d="M268.69,180.56c-11.77.15-12.48-4.78-16.29-9.74s-7.81-9.23-14.82-3.49c7.8-7.67,16.29.12,20.54,4.14,4.83,4.58,5.46,7.4,11.59,5.35,5.52-1.85,12.33,3.12,6.38,10.42C276.89,185.58,278.58,180.43,268.69,180.56Z"/></g><path class="cls-4" d="M196.87,200.71s-2.2-4.4-10.83-14-18-19.29-27.18.5c-9.42,20.2-11.57,27.45-17,38.63-8.29,17.18-15.23,25.7-15.23,25.7l13,21.51Z"/><path class="cls-10" d="M197.84,201.9s-2.2-4.41-10.84-14-18-19.29-27.18.49c-9.42,20.21-11.56,27.46-17,38.63-8.29,17.19-15.24,25.71-15.24,25.71l13,21.51Z"/><path class="cls-5" d="M180,217.33s-14.25-.34-21.41-.23c-4.45.06-9.56,2.2-12.78,3.81-.67,1.53-1.37,3.08-2.12,4.7a56.61,56.61,0,0,1,9.63-4.75C159.86,218.42,180,217.33,180,217.33ZM147.32,230.8c6.28-3.72,24.23-7,24.23-7s-9,.57-16.07,1.2c-4.34.38-10.3,3.35-14.25,5.57-1,2-2,3.86-2.92,5.6C140.87,234.64,144.21,232.66,147.32,230.8Zm46.05-25.15s-8.88-11.34-14.23-18.52a36.82,36.82,0,0,0-10.35-9.24,11.62,11.62,0,0,0-4.48,3.47c2.38.88,5.51,2.13,8.49,3.49C178.64,187.52,193.37,205.65,193.37,205.65Zm-27.28-13.14c7.41,1.76,27.28,13.14,27.28,13.14s-15.6-10.24-20.56-15.05c-3.29-3.18-8.71-3.79-12-3.84-.36.69-.73,1.34-1.09,2.12l-1.23,2.66A34.72,34.72,0,0,1,166.09,192.51Zm-33,52.58c3.8-2.27,9.76-5.82,13-7.7,5.09-2.88,15.69-5.21,15.69-5.21S153,233,147.14,235c-3.78,1.27-8.67,4.28-11.71,6.28C134.6,242.65,133.81,243.94,133.09,245.09Zm31.51-42.35c5.71-1.12,26.25,4.53,26.25,4.53s-18-5.17-23.74-8.15c-3.46-1.81-8.61-.9-12.13.11-.87,2-1.67,3.82-2.4,5.53C155.28,204.36,160.54,203.54,164.6,202.74Zm21.93,8.06a169.58,169.58,0,0,0-19.72-1.48c-6.75,0-13.9,2.23-17.68,3.62-.62,1.51-1.23,3-1.81,4.36,2.75-1.22,7.08-3.07,11.71-4.71C166.75,209.89,186.53,210.8,186.53,210.8Z"/><path class="cls-4" d="M274.06,300.14S302.31,339,289.68,351s-27.8-1.75-32.41-10.88c-6.56-13,.43-22.82.43-22.82Z"/><path class="cls-11" d="M273.94,298.27s28.24,38.85,15.61,50.84-27.79-1.76-32.4-10.88c-6.57-13,.42-22.83.42-22.83Z"/><path class="cls-12" d="M287.09,351a19.13,19.13,0,0,0,2.76-2.17,9.36,9.36,0,0,0,1.89-2.51,74.4,74.4,0,0,0-3-13.73c-4.71-15.19-14.17-32.27-15.12-34l0,0c.77,1.83,7.37,17.57,10.13,26.84C287.65,338.55,287.61,346.74,287.09,351Zm-22.76-4.19c.58-2.17,2.07-7.8,3.06-10.49,1.23-3.38,1-29.08,1-29.08s-3.05,22.21-4.68,26.8a11.77,11.77,0,0,1-4.87,6.22A34.19,34.19,0,0,0,264.33,346.77Zm13.39-12a56.93,56.93,0,0,1-1.2,18.48,14.58,14.58,0,0,0,6.88-.51c-.64-2.89-2-9.41-3-17.77-1.36-11.4-8.59-33.26-8.59-33.26S276.6,324.22,277.72,334.75Zm-7,5a28.32,28.32,0,0,1-3.93,9,24.63,24.63,0,0,0,6.86,3.72c.68-2.52,1.79-8.34,1-17.57-1.1-12.76-4.53-31-4.53-31S272.79,328.94,270.69,339.76Zm-8.1-13.84a114.53,114.53,0,0,0,2.36-15.2s-3.1,8.73-6.41,13.8a20.6,20.6,0,0,1-3.79,4.37,24.7,24.7,0,0,0,2,7.44C258.1,334.74,261.37,330.55,262.59,325.92Z"/><path class="cls-13" d="M187.82,318s-19.1,14.17-27.73,19.34-27,12.94-29.67-.38,4.9-27.93,1.06-34.67-1.86-11.38-1.86-11.38Z"/><path class="cls-5" d="M161.09,334.79c-.21.85-.43,1.63-.65,2.34,1.52-.92,3.32-2.09,5.29-3.41a69.88,69.88,0,0,1-3.3-14.77S162.74,328.14,161.09,334.79ZM169.53,320a91.16,91.16,0,0,1,1.1,10.35l1.62-1.13C171.42,326.33,170.48,323.12,169.53,320Zm-37.91,20.25c1.13-3.59,3.68-11.48,4.93-13.87,1.65-3.13,9.74-14,9.74-14s-6.12,7.46-9.91,11.49A8.79,8.79,0,0,1,130,327a35.86,35.86,0,0,0,.44,10A10.66,10.66,0,0,0,131.62,340.26Zm21.61-12.69c-1,3.16-3.67,11.08-5.11,15.27a55.13,55.13,0,0,0,7.37-3c-1.71-8.63.62-22.8.62-22.8S154.67,322.91,153.23,327.57Zm-9.46-.86c-3,5-8.24,13.43-9.87,16,2.35,1.62,5.56,1.88,9,1.36a46.24,46.24,0,0,1,1.29-10.55c1.82-6,6.61-18.88,6.61-18.88S147.09,321.12,143.77,326.71Z"/><path class="cls-4" d="M130.42,337c-2.69-13.31,4.9-27.93,1.06-34.67s-1.86-11.38-1.86-11.38c7.61,4.87,12.9,12.11,10.87,16.78-3.62,8.32-9.65,15.8-9.45,22.48.49,16.22,23.54,10.6,30.26,5.68,7.52-5.48,21.32-21.69,21.32-21.69s12,10.16,5.2,12.29c-10.91,3.42-21.31,7.65-27.59,11.41C151.59,343,133.1,350.28,130.42,337Z"/><path class="cls-4" d="M144.42,302.65s-2.33,11.15-8.29,16.76c0,0,7.91-4.51,10.7-16.64Z"/><path class="cls-4" d="M151,306.61s-10,19.82-14.91,26.5c0,0,13.26-14.26,16.05-26.38Z"/><path class="cls-4" d="M154.87,304.93s-5.42,21.5-8.8,29.1c0,0,9.85-16.79,9.94-29.23Z"/><path class="cls-4" d="M158.07,304.43s.77,22.16-.37,30.4c0,0,4.8-18.87,1.43-30.84Z"/><path class="cls-4" d="M161.6,299.86s4.54,21.7,4.83,30c0,0,1.5-19.41-3.86-30.63Z"/><path class="cls-4" d="M168.23,294.39s4.54,21.7,4.83,30c0,0,1.5-19.41-3.87-30.63Z"/><path class="cls-14" d="M105.64,276.8c-3.46-11.27-.87-23.66.88-30.12,11.14,13.22,13.7,10.45,20.45,3a107.62,107.62,0,0,0-.09,13.27c.48,12.4-2.7,18.36-2.78,28a50.31,50.31,0,0,1-7.17-8.67c-.38,8.81-5.1,16-11.15,21.67C107.37,298.13,108.94,287.53,105.64,276.8Z"/><path class="cls-14" d="M150.26,242.49a63.16,63.16,0,0,1-4.07-14.5q3.59-4,7.22-8c8.58-9.39,17.9-17.77,29.21-23.45,1.09,6.69,3.27,17.07,7.16,24.38,6.18,11.62,7.8,17.15,4,35.41s3,39.82,3.49,43.42c.44,2.95.06,16.68-3.49,25.91-21.76-3.72-39.07-11.12-51.66-19.67,2.33-8-.24-17.31,4.07-26.43C151.34,268.77,154.83,253.56,150.26,242.49Z"/><path class="cls-14" d="M215.59,266.28c1.35-9.95,3-18,3-32.91s15-28.76,23.39-38.72a34.64,34.64,0,0,1,12.92-9.54,122.77,122.77,0,0,1,25.88,6.68c-3.82.36-9.74,1.87-15.95,8.11-11.29,11.34-14.52,21.86-13.44,33.19s-3.23,18.26-4.3,24.62,5.64,15.49,19.62,26,15.59,13.83,15.86,17.42c.17,2.39,7.77,6.67,12.73,11.26a280,280,0,0,1-50.91,13.92q-5.58,1-10.92,1.49c-5-9.15-6.34-23.75-6.81-33.58C226.08,283.16,214.25,276.24,215.59,266.28Z"/><path class="cls-15" d="M197.31,299.75c-.53-3.6-7.25-25.17-3.49-43.42s2.14-23.79-4-35.41c-3.89-7.31-6.07-17.69-7.16-24.38.33-.18.67-.35,1-.51,11.32-5.47,23.94-8.64,36.28-10.51a122.83,122.83,0,0,1,35-.41,34.64,34.64,0,0,0-12.92,9.54c-8.34,10-23.39,23.78-23.39,38.72s-1.61,23-3,32.91,10.49,16.88,11,27.94c.47,9.83,1.81,24.43,6.81,33.58a145,145,0,0,1-39.7-1.13C197.29,317.45,197.75,302.7,197.31,299.75Z"/><path class="cls-16" d="M282.53,301.13c-.27-3.59-1.88-6.91-15.86-17.42s-20.7-19.64-19.62-26,5.37-13.28,4.3-24.62,2.15-21.85,13.44-33.19c6.21-6.24,11.85-8,15.67-8.39,43.27,16,66.6,52.38,66.6,52.38s4-6.92,7.25-3.33-2.15,8-2.95,11.07c4.83,5.53-1.62,9.67-4.3,13.83-6.7,23.05-26.29,37.65-51.65,47.45C290.44,308.33,282.7,303.52,282.53,301.13Z"/><path class="cls-17" d="M75.53,290.9c4.58-17.7,7.52-18-2.15-41.76-6.86-16.86,4.14-28.27,9.09-32.51,1.93,1.59,6,6.41,16.45,20.34,2.92,3.92,5.42,7.13,7.6,9.71-1.75,6.46-4.34,18.85-.88,30.12,3.3,10.73,1.73,21.33.14,27.19C98.37,310.9,88.94,315.47,83,317.72,76.18,313.49,71.92,304.86,75.53,290.9Z"/><path class="cls-4" d="M68.81,253c-6.72-22.41,10.48-36.78,11.83-37.07.44-.09.89-.08,1.83.69-5,4.24-16,15.65-9.09,32.51,9.67,23.79,6.73,24.06,2.15,41.76-3.61,14,.65,22.59,7.49,26.82a22.76,22.76,0,0,1-5.61,1.67c-1.88-.55-12.64-8.3-8.6-26.83C76.34,268.22,73.38,265.74,68.81,253Z"/><path class="cls-18" d="M126.88,263a115.46,115.46,0,0,1,.14-13.63c.3-.34.61-.67.94-1,6.14-6.71,12.16-13.54,18.23-20.32a63.16,63.16,0,0,0,4.07,14.5c4.57,11.07,1.08,26.28-4,37.07-4.31,9.12-1.74,18.42-4.07,26.43a118.21,118.21,0,0,1-18.06-15C124.18,281.32,127.36,275.36,126.88,263Z"/><path class="cls-19" d="M104.4,271.14c9.48,15.21,4.22-8.51,11.63,3.63a43.08,43.08,0,0,0,8.6,9.49,50.2,50.2,0,0,0-.53,6.73,50.31,50.31,0,0,1-7.17-8.67c-.38,8.81-5.1,16-11.15,21.67,1.59-5.86,3.16-16.46-.14-27.19A37.16,37.16,0,0,1,104.4,271.14Z"/><path class="cls-19" d="M197,310.65a64.21,64.21,0,0,1-3.31,16A130.67,130.67,0,0,1,142.16,306a39.11,39.11,0,0,0,1.17-9.47A135.62,135.62,0,0,0,197,310.65Z"/><path class="cls-19" d="M255.11,276.61c-11.47-13.65-8.24-19.54-7.53-23.23a8.13,8.13,0,0,0-.26,3c-.11.45-.19.91-.27,1.35-1.08,6.36,5.64,15.49,19.62,26s15.59,13.83,15.86,17.42c.17,2.39,7.91,7.2,12.88,11.78-15.43,6-33,10.15-51.06,13.4q-5.58,1-10.92,1.49c-2.81-5.11-4.44-11.94-5.44-18.69C257.7,303.81,264.55,287.85,255.11,276.61Z"/><path class="cls-20" d="M327.52,295.05c1.25-1-12.91,15.12-50.19,13.28s-34.77,13.27-67.39,11.06-85.66-26.55-92.83-35c10,11.79,49.1,47.2,105.74,43.52C278.77,324.19,314.61,305.75,327.52,295.05Z"/><path class="cls-4" d="M257.25,313.11s5.05,50.1-12.71,54.28-24.24-16.26-23.6-27c.91-15.22,12.43-20.44,12.43-20.44Z"/><path class="cls-21" d="M258.13,311.35s5.05,50.09-12.71,54.28-24.24-16.27-23.6-27c.91-15.22,12.43-20.43,12.43-20.43Z"/><path class="cls-22" d="M242.22,366a20.34,20.34,0,0,0,3.64-.5,9.81,9.81,0,0,0,3-1.28,77.51,77.51,0,0,0,4.55-14c3.76-16.24,4.21-36.71,4.25-38.75h0c-.26,2.06-2.6,19.8-5,29.65C249.27,355.07,244.91,362.46,242.22,366Zm-18.4-15.8c1.66-1.67,6-6,8.3-7.89,2.9-2.41,16.24-25.82,16.24-25.82S233.87,335,230,338.28a12.33,12.33,0,0,1-7.7,3.07A35.69,35.69,0,0,0,223.82,350.2Zm18.47-3.82a59.74,59.74,0,0,1-10.85,16.1,15.34,15.34,0,0,0,6.5,3.17c.95-3,3.17-9.56,6.68-17.67,4.79-11,9.79-34.64,9.79-34.64S246.83,336.25,242.29,346.38Zm-9,.83A29.76,29.76,0,0,1,225,353.3a25.76,25.76,0,0,0,4.25,7c1.94-1.92,6-6.61,10.17-15.39,5.74-12.13,12.28-30.48,12.28-30.48S240.88,338.52,233.28,347.21Zm0-16.81a121.46,121.46,0,0,0,10.17-12.53S236,324.15,230.32,327a21.14,21.14,0,0,1-5.74,1.95,25.94,25.94,0,0,0-2.13,7.79C224.52,336,229.7,333.94,233.24,330.4Z"/><path class="cls-4" d="M259.18,257.73s5.06,50.09-12.7,54.28-24.25-16.27-23.6-27c.91-15.22,12.43-20.44,12.43-20.44Z"/><path class="cls-21" d="M260.06,256s5.05,50.1-12.7,54.28-24.25-16.26-23.6-27c.91-15.22,12.43-20.44,12.43-20.44Z"/><path class="cls-23" d="M244.15,310.61a20.17,20.17,0,0,0,3.64-.49,10,10,0,0,0,3-1.29,78,78,0,0,0,4.55-14c3.76-16.24,4.21-36.71,4.24-38.74h0c-.27,2.06-2.61,19.79-5,29.64C251.2,299.68,246.84,307.08,244.15,310.61Zm-18.4-15.8c1.67-1.67,6-6,8.31-7.89,2.9-2.4,16.24-25.82,16.24-25.82s-14.5,18.51-18.4,21.8a12.34,12.34,0,0,1-7.7,3.06A36.16,36.16,0,0,0,225.75,294.81ZM244.22,291a59.9,59.9,0,0,1-10.84,16.11,15.23,15.23,0,0,0,6.5,3.17c.94-3,3.17-9.57,6.68-17.67,4.78-11.05,9.78-34.65,9.78-34.65S248.76,280.86,244.22,291Zm-9,.83a29.69,29.69,0,0,1-8.33,6.1,26.11,26.11,0,0,0,4.25,7c1.94-1.92,6-6.61,10.18-15.39C247,277.39,253.58,259,253.58,259S242.82,283.14,235.21,291.82Zm0-16.81a120,120,0,0,0,10.16-12.52s-7.41,6.27-13.08,9.12a21.91,21.91,0,0,1-5.75,1.95,26.37,26.37,0,0,0-2.13,7.79C226.46,280.62,231.63,278.55,235.18,275Z"/><path class="cls-24" d="M205.65,310.91a127.39,127.39,0,0,0,22.34-1.8c1,6.75,2.63,13.58,5.44,18.69a145,145,0,0,1-39.7-1.13,64.21,64.21,0,0,0,3.31-16C199.85,310.82,202.73,310.91,205.65,310.91Z"/><path class="cls-24" d="M143.33,296.52a39.11,39.11,0,0,1-1.17,9.47,118.21,118.21,0,0,1-18.06-15,50.2,50.2,0,0,1,.53-6.73A96,96,0,0,0,143.33,296.52Z"/><path class="cls-25" d="M336.75,235.21S313.9,204.79,279.21,191C284.6,191.78,321.15,217.51,336.75,235.21Z"/><path class="cls-26" d="M266.58,192.89s-73.83-18.07-133,55C141.84,234.94,198.13,167.45,266.58,192.89Z"/><path class="cls-25" d="M84.14,222s9.13,8.57,8.59,10.51-8.33-5-10.48-7.47S82.78,220.64,84.14,222Z"/><path class="cls-25" d="M79.56,234.85a52.19,52.19,0,0,1,5.1,5c2.17,2.48-3.21,1.66-5.91-1.94S77.68,233.18,79.56,234.85Z"/><path class="cls-25" d="M79.05,243.3l4.63,1.51c2.32.76,1.43,2.55-3,1.36S77.72,243.05,79.05,243.3Z"/><path class="cls-25" d="M79,301.49s1.69-1.8,3.39-3.59,2.86-.16-.16,3.37S78.17,302.57,79,301.49Z"/><path class="cls-25" d="M85,311.48,89.17,309c2.1-1.25,2.78.63-1,3.21S83.88,312.31,85,311.48Z"/><path class="cls-25" d="M84.4,288c-1.1.33-7,5.26-5.65,7.74S88.17,286.94,84.4,288Z"/><path class="cls-27" d="M98.12,298.37c4.65-8.49-10.4-9.95-2.88-19.54S83.77,263,90.58,261.49s9.68-7.38,6.1-15.86c-2.18-5.16-2.24-10.72-2.27-14.63l4.51,6c2.92,3.92,5.42,7.13,7.6,9.71-1.75,6.46-4.34,18.85-.88,30.12,3.3,10.73,1.73,21.33.14,27.19a62.81,62.81,0,0,1-9.38,7.09C97.14,306.51,95.34,303.42,98.12,298.37Z"/><path class="cls-28" d="M323.64,240.56A13.64,13.64,0,1,1,310,227.09,13.56,13.56,0,0,1,323.64,240.56Z"/><path class="cls-14" d="M324,238.06a12.1,12.1,0,1,1-12.1-11.95A12,12,0,0,1,324,238.06Z"/><path d="M321.54,238.06a9.61,9.61,0,1,1-9.61-9.49A9.55,9.55,0,0,1,321.54,238.06Z"/><path class="cls-14" d="M304,237.26a9.39,9.39,0,0,1,2.49-6.38,9.28,9.28,0,0,0-3.23,7.06,9,9,0,0,0,8.86,9.22,8.7,8.7,0,0,0,6.37-2.83,8.64,8.64,0,0,1-5.63,2.14A9,9,0,0,1,304,237.26Z"/><path class="cls-14" d="M318.44,235.12a4,4,0,1,1-3.95-3.9A3.94,3.94,0,0,1,318.44,235.12Z"/><path class="cls-14" d="M318.61,240.83a1.31,1.31,0,1,1-1.31-1.28A1.31,1.31,0,0,1,318.61,240.83Z"/><path class="cls-29" d="M296,220s-18,12.57-14.64,35.41c2,13.21,14.3,20.78,17.18,21.14-6.7,1.9-20.33-2.09-22.21-22.49S290.63,221.43,296,220Z"/><path class="cls-30" d="M298.89,218.74s-18,12.58-14.65,35.42c2,13.21,14.31,20.77,17.19,21.14-6.7,1.89-20.33-2.09-22.22-22.49S293.51,220.21,298.89,218.74Z"/><path class="cls-29" d="M334.75,240.2s-19,34.53-37.66,29.58c-5.15-1.35-14-18-5.78-33.95-.46,6.32,1.92,27.09,10.84,26S327.34,253,334.75,240.2Z"/></g></g></svg>