<svg id="Layer_1" data-name="Layer 1" xmlns="http://www.w3.org/2000/svg" viewBox="0 0 167.41 128"><defs><style>.cls-1{fill:#ef0078;stroke:#930783;stroke-miterlimit:10;}.cls-2{fill:#fff;}</style></defs><rect class="cls-1" x="1.19" y="29.62" width="165.03" height="68.76" rx="7"/><path class="cls-2" d="M76.39,76.11V53.86H81l5.74,9.54a61.71,61.71,0,0,1,3.79,7.46h.07c-.26-3-.36-5.84-.36-9.24V53.86H94V76.11H89.82L84,66.34a75,75,0,0,1-4-7.69l-.1,0c.16,2.87.19,5.81.19,9.48v8Z"/><path class="cls-2" d="M111.14,66.24h-8.38v6.54h9.37v3.33H98.7V53.86h12.94V57.2h-8.88v5.74h8.38Z"/><path class="cls-2" d="M127.61,76.11l-2.41-4.42c-1-1.72-1.58-2.91-2.21-4.19h-.1c-.53,1.28-1.12,2.47-2,4.19l-2.21,4.42H114l6.6-11.26-6.33-11h4.65l2.41,4.59c.73,1.39,1.25,2.48,1.85,3.73h.06c.6-1.38,1.06-2.37,1.75-3.73l2.38-4.59H132l-6.5,10.86,6.77,11.39Z"/><path class="cls-2" d="M139.79,57.26h-6.34v-3.4h16.8v3.4h-6.4V76.11h-4.06Z"/><path class="cls-2" d="M39,41.86A22.14,22.14,0,1,0,61.18,64,22.14,22.14,0,0,0,39,41.86Zm12.44,26L40.15,75.49a3.57,3.57,0,0,1-5.56-3V71.31H27.48a2.92,2.92,0,0,1-2.92-2.92V59.61a2.92,2.92,0,0,1,2.92-2.92h7.11V55.47a3.57,3.57,0,0,1,5.56-3l11.33,7.66A4.62,4.62,0,0,1,51.48,67.83Z"/></svg>