<svg xmlns="http://www.w3.org/2000/svg" xmlns:xlink="http://www.w3.org/1999/xlink" viewBox="0 0 422.59 512"><defs><style>.cls-1{isolation:isolate;}.cls-2{stroke:#e8ebfc;stroke-width:18px;fill:url(#linear-gradient);}.cls-2,.cls-3,.cls-31,.cls-35,.cls-4{stroke-miterlimit:10;}.cls-3{fill:#895800;stroke:#473300;}.cls-4,.cls-44{fill:#fdbd2c;}.cls-4{stroke:#47201f;}.cls-5{fill:#f79420;}.cls-31,.cls-6{fill:#221f1f;}.cls-7{fill:url(#linear-gradient-2);}.cls-8{fill:#f93a3a;}.cls-9{fill:url(#linear-gradient-3);}.cls-10{fill:#ffda22;}.cls-11,.cls-12,.cls-22,.cls-23,.cls-24,.cls-25,.cls-26,.cls-27,.cls-28,.cls-33{mix-blend-mode:multiply;}.cls-11{fill:url(#linear-gradient-4);}.cls-12{fill:url(#linear-gradient-5);}.cls-13{fill:#ba2025;}.cls-14{fill:#ffc10d;}.cls-15{fill:url(#linear-gradient-6);}.cls-16{fill:url(#linear-gradient-7);}.cls-17{fill:url(#linear-gradient-8);}.cls-18{fill:url(#linear-gradient-9);}.cls-19{fill:url(#linear-gradient-10);}.cls-20{fill:url(#linear-gradient-11);}.cls-21{fill:url(#linear-gradient-12);}.cls-22{fill:url(#linear-gradient-13);}.cls-23{fill:url(#linear-gradient-14);}.cls-24{fill:url(#linear-gradient-15);}.cls-25{fill:url(#linear-gradient-16);}.cls-26{fill:url(#linear-gradient-17);}.cls-27{fill:url(#linear-gradient-18);}.cls-28{fill:url(#linear-gradient-19);}.cls-29{fill:#b71d29;}.cls-30{fill:url(#linear-gradient-20);}.cls-31{stroke:#eee8d2;stroke-width:4px;}.cls-32{fill:url(#linear-gradient-21);}.cls-33{fill:url(#linear-gradient-22);}.cls-34{fill:url(#linear-gradient-23);}.cls-35,.cls-37{fill:#ece5e3;}.cls-35{stroke:#5f4d45;}.cls-36{fill:#0b1e34;}.cls-38{fill:#83381b;}.cls-39{fill:#550f0e;}.cls-40{fill:#440a0a;}.cls-41{fill:#e95f5e;}.cls-42{fill:#f27373;}.cls-43{fill:#f4c813;}.cls-45{fill:#f3ba19;}</style><linearGradient id="linear-gradient" x1="-4869.54" y1="-3261.08" x2="-4469.71" y2="-3261.08" gradientTransform="translate(3472.38 -4413.62) rotate(-90)" gradientUnits="userSpaceOnUse"><stop offset="0" stop-color="#87d1dd"/><stop offset="0.55" stop-color="#b6dfe6"/><stop offset="1" stop-color="#d9eaed"/></linearGradient><linearGradient id="linear-gradient-2" x1="12063.22" y1="-10531.33" x2="12217.09" y2="-10531.33" gradientTransform="matrix(0.03, 0.61, -0.69, 0.21, -7521.51, -4983.24)" gradientUnits="userSpaceOnUse"><stop offset="0.01" stop-color="#e68625"/><stop offset="1" stop-color="#f9a748"/></linearGradient><linearGradient id="linear-gradient-3" x1="12063.22" y1="-10531.33" x2="12217.09" y2="-10531.33" gradientTransform="matrix(0.03, 0.61, -0.69, 0.21, -7521.51, -4983.24)" gradientUnits="userSpaceOnUse"><stop offset="0.01" stop-color="#1f0c0d"/><stop offset="1" stop-color="#565759"/></linearGradient><linearGradient id="linear-gradient-4" x1="12063.22" y1="-10514.82" x2="12217.1" y2="-10514.82" xlink:href="#linear-gradient-2"/><linearGradient id="linear-gradient-5" x1="12063.22" y1="-10493.15" x2="12217.09" y2="-10493.15" xlink:href="#linear-gradient-2"/><linearGradient id="linear-gradient-6" x1="164.53" y1="-5671.49" x2="159.01" y2="-5673.28" gradientTransform="matrix(0.05, 0.82, -0.91, 0.27, -4931.55, 1575.73)" xlink:href="#linear-gradient-2"/><linearGradient id="linear-gradient-7" x1="182.94" y1="-5638.16" x2="168.52" y2="-5642.84" gradientTransform="matrix(0.05, 0.82, -0.91, 0.27, -4931.55, 1575.73)" xlink:href="#linear-gradient-2"/><linearGradient id="linear-gradient-8" x1="177.82" y1="-5610.42" x2="163.4" y2="-5615.1" gradientTransform="matrix(0.05, 0.82, -0.91, 0.27, -4931.55, 1575.73)" xlink:href="#linear-gradient-2"/><linearGradient id="linear-gradient-9" x1="197.39" y1="-5611.63" x2="190.37" y2="-5613.91" gradientTransform="matrix(0.05, 0.82, -0.91, 0.27, -4931.55, 1575.73)" xlink:href="#linear-gradient-2"/><linearGradient id="linear-gradient-10" x1="10194.26" y1="-8194.91" x2="10188.39" y2="-8196.81" gradientTransform="matrix(0.05, 0.82, -0.91, 0.27, -7745.97, -5905.61)" xlink:href="#linear-gradient-2"/><linearGradient id="linear-gradient-11" x1="10215.02" y1="-8202.13" x2="10209.15" y2="-8204.03" gradientTransform="matrix(0.05, 0.82, -0.91, 0.27, -7745.97, -5905.61)" xlink:href="#linear-gradient-2"/><linearGradient id="linear-gradient-12" x1="10237.85" y1="-8210.46" x2="10233.36" y2="-8211.92" gradientTransform="matrix(0.05, 0.82, -0.91, 0.27, -7745.97, -5905.61)" xlink:href="#linear-gradient-2"/><linearGradient id="linear-gradient-13" x1="10285.99" y1="-8239.96" x2="10171.65" y2="-8277.07" gradientTransform="matrix(0.05, 0.82, -0.91, 0.27, -7745.97, -5905.61)" xlink:href="#linear-gradient-2"/><linearGradient id="linear-gradient-14" x1="10291.26" y1="-8255.48" x2="10176.41" y2="-8292.77" gradientTransform="matrix(0.05, 0.82, -0.91, 0.27, -7745.97, -5905.61)" xlink:href="#linear-gradient-2"/><linearGradient id="linear-gradient-15" x1="10286.46" y1="-8241.41" x2="10172.13" y2="-8278.52" gradientTransform="matrix(0.05, 0.82, -0.91, 0.27, -7745.97, -5905.61)" xlink:href="#linear-gradient-2"/><linearGradient id="linear-gradient-16" x1="10282.91" y1="-8230.47" x2="10168.57" y2="-8267.58" gradientTransform="matrix(0.05, 0.82, -0.91, 0.27, -7745.97, -5905.61)" xlink:href="#linear-gradient-2"/><linearGradient id="linear-gradient-17" x1="10276.74" y1="-8211.48" x2="10162.41" y2="-8248.59" gradientTransform="matrix(0.05, 0.82, -0.91, 0.27, -7745.97, -5905.61)" xlink:href="#linear-gradient-2"/><linearGradient id="linear-gradient-18" x1="10283.23" y1="-8231.45" x2="10168.89" y2="-8268.57" gradientTransform="matrix(0.05, 0.82, -0.91, 0.27, -7745.97, -5905.61)" xlink:href="#linear-gradient-2"/><linearGradient id="linear-gradient-19" x1="10289.22" y1="-8249.91" x2="10174.88" y2="-8287.02" gradientTransform="matrix(0.05, 0.82, -0.91, 0.27, -7745.97, -5905.61)" xlink:href="#linear-gradient-2"/><linearGradient id="linear-gradient-20" x1="2103.42" y1="-7937.65" x2="2097.98" y2="-7939.41" gradientTransform="matrix(0.03, 0.61, -0.69, 0.21, -5394.41, 600.48)" xlink:href="#linear-gradient-2"/><linearGradient id="linear-gradient-21" x1="15283.71" y1="-6917.94" x2="15437.58" y2="-6917.94" gradientTransform="matrix(0.29, 0.49, -0.62, 0.42, -8596.25, -4297.13)" xlink:href="#linear-gradient-2"/><linearGradient id="linear-gradient-22" x1="12697.95" y1="-5518.48" x2="12583.09" y2="-5555.76" gradientTransform="matrix(0.39, 0.66, -0.82, 0.56, -9206.68, -4972.87)" xlink:href="#linear-gradient-2"/><linearGradient id="linear-gradient-23" x1="2614.61" y1="-2834.64" x2="2612.68" y2="-2835.27" gradientTransform="matrix(0.39, 0.66, -0.82, 0.56, -3231.83, 139.52)" xlink:href="#linear-gradient-2"/></defs><g class="cls-1"><g id="Layer_1" data-name="Layer 1"><circle class="cls-2" cx="211.29" cy="256" r="199.91"/><path class="cls-3" d="M235.48,319.73s-.15-3,2.51-2.44,8,15.7,8,15.7l9.66.34a10.12,10.12,0,0,1,6.34,5.23c3.67,7.47.66,6.77-5.56-.56-.33-.39-1.13,3-1.48,2.53s-.15-4.51-.46-4.9l-8.41,1.55a2.47,2.47,0,0,1-2.69-1.35Z"/><path class="cls-3" d="M215.87,354.72l.07,0c1.34-.76,6.41-1.14,9.68-.52,0,0-3.69-7.67-5.54-11-.19-.35,2.43-2.25,2.43-2.25s5.62,13.61,3.86,14.24c-1.14.41-8,.11-8,.11,3.92,2.83,8.41,8.45,8.32,11.33C225.19,369.31,217.92,360,215.87,354.72Z"/><path class="cls-4" d="M231.19,331c-.5,1.57-1.07,3.07-1.68,4.51a44.73,44.73,0,0,1-10.22,14.89,43,43,0,0,1-6.46,5.08,43.6,43.6,0,0,1-15.19,6.11,37.71,37.71,0,0,1-9.17.7c-5.42-.28-9.87-1.87-12.29-4.42-2.86-3-2.86-7.38,1.79-12.53.84-.94,1.73-1.85,2.64-2.75,1.35-1.33,2.77-2.61,4.24-3.84a101.28,101.28,0,0,1,15-10.25q2.79-1.59,5.54-3a160.48,160.48,0,0,1,27.49-10.91C245.32,315.36,231.19,331,231.19,331Z"/><path class="cls-5" d="M221.62,321.74c2.16,8.13,5.87,11.49,5.69,15.57-.21,4.59-5.53,10.47-7.93,12.76a50.82,50.82,0,0,1-7.14,5.41,39.13,39.13,0,0,1-14.35,5.84,40.76,40.76,0,0,1-9.5.82c-5.41-.28-9.79-2.22-12.21-4.77l1.13-.09c22.19-2.4,46.37-12.74,40.5-21.36-11.8-17.31-.46-16.59-.46-16.59Z"/><path class="cls-6" d="M224.69,319c8.79-6,16.6-21.08,20.32-27.35,4.93-8.32,9.72-16.75,14.2-25.21,11.09-20.93,20.56-42.59,26.21-64.2,4.29-16.41,7.42-34.1,3.2-48.71-1.58-5.48-4.7-10.29-10-12.68-6.47-2.92-15.18-1-22.9,2.18-10,4.1-19.71,10.66-29,16.63-10.24,6.58-27.46,11.23-38.42,12.17-20,1.72-35.12,20.33-33.83,38.17.71,9.77,16.85,33.3,21.13,41.22,4.89,9,9.47,18.28,14.58,27.16s10.54,17.42,14.75,26.9c2.41,5.45,4.81,16.24,12.82,16.21A12.72,12.72,0,0,0,224.69,319Z"/><path class="cls-7" d="M205.25,324.69a52.11,52.11,0,0,1-12.68,1.38c-8.43.09-16.43-1.23-24.4-2.38A150.22,150.22,0,0,1,125,310.27a108.19,108.19,0,0,1-18-10.95c-5-3.79-10-8-13.48-13.21s-4.64-12,1-18.77c4.7-5.58,12.13-8.74,18.57-10.94A124.31,124.31,0,0,1,148,250.15c6-.22,12,.09,17.2,1.86s9,4.93,12.4,8.55c7.74,8.18,13,18.66,18.42,28.53,2.66,4.85,5.27,9.74,7.91,14.62,1.35,2.49,2.66,5,4.06,7.48,1.15,2,2.88,4,3.11,6.48C211.38,320.83,208.89,323.75,205.25,324.69Z"/><path class="cls-8" d="M220.75,270.05c-.74,4.45-.33,8.72,0,12.92.48,6,1.11,12.08.4,18.4l-.12.9c1.54-4,3.1-8,4.4-12,1.94-6,3.92-11.93,5.48-17.93.86-3.31,1.58-6.65,2.42-10C229,257.74,221.81,263.77,220.75,270.05Z"/><path class="cls-8" d="M263.93,177.87c-.45-2.75-3.33-10.46-8.33-6.93-4.19,2.95-3.1,11.27-2.85,14.55.42,5.59,1.73,10.87,2,16.5.72,13.64-.11,28.13-5.25,42.61a8.06,8.06,0,0,1,1.41,1.84,11.36,11.36,0,0,1,1.17,6.15c.07-2.06,1.81-5.24,2.5-7.38.8-2.51,1.57-5,2.28-7.53q2.21-7.8,3.76-15.58a175.32,175.32,0,0,0,3.29-30.29c.09-4.64.7-9.46,0-13.89A.07.07,0,0,0,263.93,177.87Z"/><path class="cls-8" d="M250.5,181c-2.87-4.64-9.76-6.67-16.31-2.92-10,5.7-7,15.65-4.86,22.21,3.32,10,6.62,19.38,7.09,30.61a148.42,148.42,0,0,1-.58,23.18c1.76-4.38,4.79-9.65,9.42-10.77a4.26,4.26,0,0,1,2.39.09c7-20.33,4.84-39.62,3.17-58.55C250.73,183.94,250.58,182.58,250.5,181Z"/><path class="cls-8" d="M211.06,205.74l.17.24a.68.68,0,0,1,0,.76,62.73,62.73,0,0,0,2.59,10.69c4.72,14.94,8.14,30.2,7.21,47a12.2,12.2,0,0,1,3.52-3.65c3.34-2.25,6.35-2.74,8.74-1.65a132.17,132.17,0,0,0,1.32-16.89c.2-7.18.15-14.45-1.06-21.2-1.09-6.13-3.31-11.68-5.27-17.4-1.4-4.09-3.34-8.66-3.16-13.48h0c-3.11-.17-8.05-.32-11,2.63a11.53,11.53,0,0,0-3.09,7.61A31.84,31.84,0,0,0,211.06,205.74Z"/><path class="cls-8" d="M187.45,212.12c-3.07,6.9-1.44,13.36.56,19,2.84,8.09,6.71,15.58,9.89,23.47a91.08,91.08,0,0,1,3.93,11.43c.41,1.58.69,3.23,1,4.87a12.71,12.71,0,0,1,1.6-1.07c4.54-2.52,10-3.25,14-1.89A107.34,107.34,0,0,0,216,233.82c-1.76-7.49-4.73-14.39-6.37-21.93-.34-1.56-.71-3.29-1-5.11C204.22,200.61,191.56,202.86,187.45,212.12Z"/><path class="cls-8" d="M217.21,313c1-6.68,2.25-13.33,1.95-19.84-.3-6.35-1.42-12.58-1-19.12a28.18,28.18,0,0,1,.47-3.58c-4.16-1.71-12.34-.4-15.71,3.24a150.46,150.46,0,0,1,7.74,18.47,93.23,93.23,0,0,1,3.53,13.13,52.84,52.84,0,0,0,1.77,7.5c.21.61.44,1.25.7,1.88C216.85,314.09,217,313.53,217.21,313Z"/><path class="cls-8" d="M235.65,261.44c-.81,3.2-1.42,6.41-2.2,9.57a212.8,212.8,0,0,1-7.55,24c-2.26,6-4.74,11.93-6.56,17.9-.2,1.19-.38,2.38-.55,3.57.25-1.77,3.7-5.62,4.83-7.38q2.41-3.76,4.76-7.56c3.16-5.15,6.18-10.35,9-15.61,3.63-6.77,7.4-13.57,9.9-20.56,2-5.68,4.41-14.13.92-18.31-2.3-2.76-5.16-1.72-7.52,1.95A40.42,40.42,0,0,0,235.65,261.44Z"/><path class="cls-9" d="M205.25,324.69a52.11,52.11,0,0,1-12.68,1.38c-8.43.09-16.43-1.23-24.4-2.38A150.22,150.22,0,0,1,125,310.27a108.19,108.19,0,0,1-18-10.95c-5-3.79-10-8-13.48-13.21s-4.64-12,1-18.77c4.7-5.58,12.13-8.74,18.57-10.94A124.31,124.31,0,0,1,148,250.15c6-.22,12,.09,17.2,1.86s9,4.93,12.4,8.55c7.74,8.18,13,18.66,18.42,28.53,2.66,4.85,5.27,9.74,7.91,14.62,1.35,2.49,2.66,5,4.06,7.48,1.15,2,2.88,4,3.11,6.48C211.38,320.83,208.89,323.75,205.25,324.69Z"/><path class="cls-8" d="M152.26,266.73c.1.11.21.22.31.34a.25.25,0,0,1,0,.07,32.67,32.67,0,0,0,4.82,4.29c4.76,3.67,10,6.79,14.83,10.4a182.32,182.32,0,0,1,21.84,19,99.53,99.53,0,0,1,9.36,10.56c2.34,3.26,4.42,6.71,6.56,10.11a5.78,5.78,0,0,0,1.06-3.85c-.23-2.52-2-4.46-3.11-6.48-1.4-2.47-2.71-5-4.06-7.48-2.64-4.88-5.25-9.77-7.91-14.62-.83-1.51-1.66-3-2.49-4.56-2.18-2.63-3.48-6.07-5.66-8.66a82.51,82.51,0,0,0-11.48-10.6,34.14,34.14,0,0,0-11.24-6.52c-3.48-1.09-8.82-1.91-12.89,1.07C149.48,261.84,150.42,264.45,152.26,266.73Z"/><path class="cls-8" d="M209.5,322.16c-3.12-4.91-6.13-9.86-10-14.25a161.6,161.6,0,0,0-12.94-13.24,201.46,201.46,0,0,0-25.16-19.43c-3.34-2.2-7.12-4.6-9.53-7.83h0c-2.86-3.3-7.09-5.68-11.36-7.37s-10.11-3.54-15.58-1.22c-2,.85-4.5,2.49-5.32,4.55a4.87,4.87,0,0,0,.74,4.72A21.44,21.44,0,0,0,127.6,274c.24.05.46.09.64.11a.26.26,0,0,1,.23.37c.44.24.89.48,1.33.7,5.79,3,12.09,5.28,18.16,7.87,6.9,3,13.69,6.08,20.23,9.53.95.41,1.89.84,2.81,1.28a.21.21,0,0,1,.12.31q1.95,1.08,3.87,2.2A171.29,171.29,0,0,1,193.51,309l1.05.66a.27.27,0,0,1,.11.24c1.93,1.54,3.82,3.11,5.67,4.73a70.49,70.49,0,0,1,6.1,6.37c.65.73,1.31,1.46,2,2.16A7.71,7.71,0,0,0,209.5,322.16Z"/><path class="cls-8" d="M177.05,301.06c-5.15-2.15-11.39-4.67-18-3.63-2.64.41-5.69,1.69-7.3,4.22-2.39,3.74-.35,7.25,1.6,9.63,4.61,5.59,11.45,9.81,18.35,12.89l.14.06a133.76,133.76,0,0,0,20.7,1.84,52.11,52.11,0,0,0,12.68-1.38,9.11,9.11,0,0,0,2.6-1.13c-1.65-1.68-3.16-3.47-4.72-5.23a63.53,63.53,0,0,0-8.16-7.26l-1.89-1.48A106.55,106.55,0,0,0,177.05,301.06Z"/><path class="cls-10" d="M166,292.41c-5.83-2.29-12.16-4.3-19-4.63-5.52-.27-14,1-16.26,8-1.45,4.53,1.19,8.36,3.74,11.07a38.74,38.74,0,0,0,9.32,7,163,163,0,0,0,19.39,9c1.66.31,3.33.59,5,.83l1.25.18A59.93,59.93,0,0,1,157.16,316c-3.34-2.79-9.9-8.4-6.1-14.38,3.14-4.91,9-5.44,13.43-5,6.41.69,12.15,3.18,17.45,5.78,1.87.92,3.71,1.9,5.52,2.92-1-.75-2.07-1.48-3.12-2.21a170.33,170.33,0,0,0-16.63-10.05Q166.84,292.76,166,292.41Z"/><path class="cls-8" d="M106.41,280.84c.25,0,.36.19.32.41.36.36.74.71,1.13,1A34.84,34.84,0,0,0,115.7,287a62.53,62.53,0,0,0,16,5.22.32.32,0,0,1,.21.13A13.41,13.41,0,0,1,138,288.2c6.28-2.18,12.95-.89,18.28.43q3.1.78,6.12,1.78l-2-1c-7.83-3.76-16-7-24-10.45a91.45,91.45,0,0,1-9.19-4.41c-5.18-1.15-22.4-7.33-22.75,1.49a6.61,6.61,0,0,0,1.89,4.78Z"/><path class="cls-8" d="M106,281.65c-3.56.89-2.22,4.19-1.17,6a32.41,32.41,0,0,0,5.45,6.84c2.71,2.68,6.27,4.53,9.77,6.32,4.88,2.5,9.94,4.77,14.63,7.5a17.47,17.47,0,0,1-4.48-6.69,9.05,9.05,0,0,1,1.33-8.76h0a61.59,61.59,0,0,1-17.69-6C111.27,285.56,108.07,283.94,106,281.65Z"/><path class="cls-11" d="M131.87,292.39A13.41,13.41,0,0,1,138,288.2c6.07-2.11,12.5-1,17.73.3a62.41,62.41,0,0,0-11.1-4.28c-3.63-1-7.78-1.91-11.94-1.55a27.18,27.18,0,0,0-7.49,1.67c-1,.4-2.78,1.09-3.33,2.17-.68,1.34.63,2.34,1.42,3,.17.13,0,.44-.15.59a53.23,53.23,0,0,0,8.52,2.2A.32.32,0,0,1,131.87,292.39Z"/><path class="cls-12" d="M131.46,292.86A57.35,57.35,0,0,1,121,290c-3.24.11-6.89,2-6.9,5.8a7,7,0,0,0,.25,1.85c1.82,1.15,3.77,2.17,5.71,3.16,4.88,2.5,9.94,4.77,14.63,7.5a17.47,17.47,0,0,1-4.48-6.69,9.05,9.05,0,0,1,1.33-8.76Z"/><path class="cls-13" d="M275,157.13c2.14-.29,4.4-1.58,4.62-3.92a4.49,4.49,0,0,0-2.38-4.15,6.47,6.47,0,0,0-3-.53,4.55,4.55,0,0,0-4.26,5.66A4.27,4.27,0,0,0,275,157.13Z"/><path class="cls-14" d="M248.38,160.9c-2-1.34-1.14-5,1.54-6.51a6,6,0,0,1,.9-.41c0-.17.08-.35.38-.4,3.24-.56,6.54,1.86,4.26,5.31C253.75,161.48,250.34,162.22,248.38,160.9Z"/><path class="cls-15" d="M229.74,170c-1.27-.71-1.51-3,.17-4.22a2.22,2.22,0,0,1,2.87-.13,1.6,1.6,0,0,1,.66,2.28C232.8,169.35,231,170.76,229.74,170Z"/><path class="cls-16" d="M201.78,194.35c-4.28.41-7.11-3-5.64-7.15,1.57-4.46,6.41-7,10.25-5.49a4.86,4.86,0,0,1,3.31,4.75C210.12,189.92,206.05,193.94,201.78,194.35Z"/><path class="cls-17" d="M176.33,197.68c-4.27.41-7.1-3-5.64-7.15,1.57-4.45,6.42-7,10.26-5.49a4.87,4.87,0,0,1,3.3,4.75C184.68,193.26,180.6,197.28,176.33,197.68Z"/><path class="cls-18" d="M174.81,211.89c-.54-2.09,1.51-4.57,3.94-4.81a2.46,2.46,0,0,1,2.18.73c1.53.63,1.65,2.78-.12,4.32S175.37,214,174.81,211.89Z"/><path class="cls-19" d="M178.35,231.1c2.43-1.63,1.16-4.33-.84-4.51a2.5,2.5,0,0,0-1.57.46,2.14,2.14,0,0,0-.46.26,3.12,3.12,0,0,0-1.1,2.24,2.21,2.21,0,0,0,.89,2.12C176.11,232.22,177.38,231.76,178.35,231.1Z"/><path class="cls-20" d="M185.88,246.17c2.42-1.63,1.16-4.32-.84-4.51a2.44,2.44,0,0,0-1.57.47,1.74,1.74,0,0,0-.46.25,3.1,3.1,0,0,0-1.1,2.24,2.22,2.22,0,0,0,.89,2.13C183.64,247.29,184.9,246.83,185.88,246.17Z"/><path class="cls-21" d="M194,262.83a1.83,1.83,0,0,0-.65-3.46,2,2,0,0,0-1.2.36,1.56,1.56,0,0,0-.35.2,2.37,2.37,0,0,0-.84,1.71,1.7,1.7,0,0,0,.68,1.63C192.32,263.69,193.29,263.33,194,262.83Z"/><path class="cls-8" d="M242.2,287.33l.29-.59c1.25-2.84,2.14-5.75,3.3-8.61s2.29-5.63,3.42-8.45c2.35-5.87,4.66-11.76,6.78-17.65a207.44,207.44,0,0,0,9.67-35.44c2-12,2.6-23.79,4.59-35.77a64.91,64.91,0,0,1,1.62-8.2c.64-2.15,1.66-5.33,4.26-6.37,3.6-1.45,5.43,2.66,6.34,4.75a30.15,30.15,0,0,1,2.13,14.44c-.83,11.1-5.06,22.4-9.8,33.5s-9.94,22.42-14.63,33.68a290.9,290.9,0,0,1-13.74,29.53c-.51,1.21-1.21,2.33-1.69,3.53a5.28,5.28,0,0,1-1.51,2.26C242.74,288.35,241.94,287.87,242.2,287.33Z"/><path class="cls-22" d="M229.52,273.07c-.86-1.76-3.57-2.22-4.94.26a18.67,18.67,0,0,0-1.86,7.25c-.73,6.71-.49,13.23-1,19.9,1.31-3.41,2.61-6.82,3.71-10.25,1.57-4.84,3.15-9.64,4.52-14.47A6.45,6.45,0,0,0,229.52,273.07Z"/><path class="cls-23" d="M250.66,241.16c-.35,1.14-.72,2.29-1.13,3.44.08.07.13.15.2.22Q250.24,243,250.66,241.16Z"/><path class="cls-24" d="M248.65,240.32c1.61-9.17,2.94-18.62,1.56-27.1a20.84,20.84,0,0,0-3.3-8.95c-1.08-1.55-3.92-5.6-6.93-3.65-4.84,3.13-4.39,10-3.75,13.73a94.15,94.15,0,0,1,1.55,12.13,87.72,87.72,0,0,1-.3,15.59c-.34,2.51-.81,5.05-1.23,7.58-.11,1.48-.23,3-.41,4.46,1.76-4.38,4.79-9.65,9.42-10.77a4.26,4.26,0,0,1,2.39.09C248,242.39,248.34,241.35,248.65,240.32Z"/><path class="cls-25" d="M233.92,253.63c-.53-4.68,0-9.89-.22-14.62a60.33,60.33,0,0,0-1.23-10.43c-.58-2.52-1.36-5.51-3.44-7.06-2.3-1.72-6-.75-7.48,2.74-1.65,4-1.59,8.16-1.39,11.9.18,3.56.82,7,.83,10.58,0,1.56-.05,3.12-.13,4.7a101.71,101.71,0,0,1,.12,13,12.2,12.2,0,0,1,3.52-3.65c3.34-2.25,6.35-2.74,8.74-1.65C233.53,257.28,233.74,255.45,233.92,253.63Z"/><path class="cls-26" d="M218.72,253.64c-.75-3.41-1.11-7-1.81-10.42a29.5,29.5,0,0,0-4.09-10.29c-1.59-2.47-3.52-5.26-6.52-6.33a7.64,7.64,0,0,0-9.16,4.23c-2.84,6.37-.11,13,1.3,18.31a108.49,108.49,0,0,1,2.89,15.13c.17.59.35,1.18.5,1.78.41,1.58.69,3.23,1,4.87a12.71,12.71,0,0,1,1.6-1.07c4.54-2.52,10-3.25,14-1.89A105.82,105.82,0,0,0,218.72,253.64Z"/><path class="cls-27" d="M217.21,313c1-6.68,2.25-13.33,1.95-19.84-.08-1.59-.2-3.18-.34-4.77-.72-2.32-1.38-4.72-2.85-6.57-1-1.3-2.8-2.7-5.07-1.38a6,6,0,0,0-2.68,3.52c-.1.31-.17.62-.24.93,1,2.39,1.87,4.81,2.7,7.28a93.23,93.23,0,0,1,3.53,13.13,52.84,52.84,0,0,0,1.77,7.5c.21.61.44,1.25.7,1.88C216.85,314.09,217,313.53,217.21,313Z"/><path class="cls-28" d="M242.17,269.74c-.69-2.48-3.78-3.81-6.18-.62a23.1,23.1,0,0,0-3.2,6.32c-2.27,6.34-4.23,12.71-6.54,19.06s-4.64,12.58-7,18.86c-.17,1.05-.34,2.1-.48,3.15.25-1.77,3.7-5.62,4.83-7.38q2.41-3.76,4.76-7.56c3.16-5.15,6.18-10.35,9-15.61,1.48-2.76,3-5.53,4.42-8.31A16.25,16.25,0,0,0,242.17,269.74Z"/><path class="cls-14" d="M97.23,279.88a1.79,1.79,0,0,1-2-2.49,3,3,0,0,1,3.62-1.93,1.7,1.7,0,0,1,1.17,1.65C100.18,278.32,98.74,279.73,97.23,279.88Z"/><path class="cls-29" d="M107.86,269.81c-2.8.28-4.66-1.93-3.69-4.62,1-2.89,4.21-4.52,6.73-3.58a3.12,3.12,0,0,1,2.16,3.07C113.34,266.92,110.67,269.53,107.86,269.81Z"/><path class="cls-30" d="M143.2,257a1.45,1.45,0,0,1-1.61-2,2.41,2.41,0,0,1,2.94-1.57,1.38,1.38,0,0,1,.94,1.34C145.59,255.7,144.42,256.84,143.2,257Z"/><path class="cls-31" d="M233.26,310.66c6.61-8.17,8.44-23.5,9.69-30,1.65-8.68,3.13-17.39,4.27-26,2.81-21.33,3.66-42.67.59-62.54-2.33-15.1-6.37-30.82-16.72-41.27a21.53,21.53,0,0,0-15.54-6.72c-7.87,0-16,4.83-22.69,10.28-8.64,7.09-15.92,16.09-23,24.45-7.85,9.2-23.67,19.42-34.58,24.26-19.9,8.83-27.81,29.75-19.15,44,4.75,7.77,31,21.15,38.71,26.07,8.75,5.63,17.27,11.54,26.19,17s18,10.43,26.25,16.67c4.72,3.59,11.63,11.58,19.87,8.58A14.21,14.21,0,0,0,233.26,310.66Z"/><path class="cls-32" d="M215.59,322.58a66,66,0,0,1-12.49,5.83c-8.65,3.2-17.43,5.08-26.11,7.09a205.77,205.77,0,0,1-50,5,143.61,143.61,0,0,1-23.1-2.32c-6.73-1.25-13.62-2.87-19.31-5.87s-9.74-8.19-6.67-15.83c2.55-6.33,8.91-11.69,14.64-15.89A152.19,152.19,0,0,1,126,282.48c6.09-2.42,12.41-4.39,18.48-4.86a40,40,0,0,1,16.29,2.45c11.33,3.86,21.06,10.53,30.7,16.64,4.74,3,9.44,6.06,14.15,9.1,2.42,1.55,4.81,3.13,7.26,4.65,2,1.24,4.6,2.18,5.87,4.17C220.32,317.12,219,320.44,215.59,322.58Z"/><path class="cls-10" d="M209.09,271.86c1.07,3.95,3.25,7.3,5.32,10.64,3,4.77,6.11,9.52,8,15,.09.26.17.52.25.78-.06-3.86-.1-7.73-.42-11.54-.46-5.64-.87-11.26-1.73-16.78-.47-3-1.1-6.06-1.61-9.1C212.54,258.67,207.6,266.31,209.09,271.86Z"/><path class="cls-8" d="M215.68,180c-1.6-2.09-7.73-7.37-11.44-2.61-3.1,4,1.44,10.43,3,13,2.73,4.44,6.25,8.3,8.87,12.83,6.35,10.95,11.45,23.18,12.12,37a8.55,8.55,0,0,1,2.2,1,9.79,9.79,0,0,1,3.74,4.62c-.77-1.72-.29-5-.46-7-.21-2.36-.45-4.71-.75-7.05q-.93-7.23-2.53-14.2a131.21,131.21,0,0,0-9.07-26.15c-1.81-3.85-3.16-8.05-5.7-11.43Z"/><path class="cls-8" d="M203.14,187.59c-4.86-2.76-12.8-1.88-18,3.64-7.92,8.39-.82,15.49,4.12,20.07,7.54,7,14.79,13.5,19.89,22.57a114.34,114.34,0,0,1,8.94,19.29c0-4.26,1-9.73,5.27-12.36a5.68,5.68,0,0,1,2.5-.82c-1.15-19.31-11.3-34.39-20.81-49.35C204.58,189.9,203.86,188.83,203.14,187.59Z"/><path class="cls-8" d="M172.68,222.54l.27.14a.53.53,0,0,1,.26.64,54.8,54.8,0,0,0,7.06,7.84c11,10.54,20.8,21.82,26.74,36a10.52,10.52,0,0,1,2.12-4.31c2.53-3.09,5.42-4.61,8.33-4.6a99.88,99.88,0,0,0-5.58-14.38c-2.75-6-5.79-11.95-9.81-17.06-3.65-4.63-8.21-8.38-12.58-12.36-3.13-2.85-7-5.89-8.8-9.92l-.05,0c-3.28,1-8.42,2.72-10.23,6.23a8.66,8.66,0,0,0-.06,7.41A24.7,24.7,0,0,0,172.68,222.54Z"/><path class="cls-8" d="M151,236.54c-.32,6.82,4,11.53,8.4,15.46,6.26,5.6,13.32,10.32,19.85,15.64a85.71,85.71,0,0,1,8.74,7.95c1.07,1.15,2,2.4,3,3.65a11.94,11.94,0,0,1,1.21-1.48A22.73,22.73,0,0,1,205.83,271a86.49,86.49,0,0,0-16.56-27.18c-4.88-5.51-10.78-10.09-15.57-15.69-1-1.16-2.09-2.44-3.1-3.85C163.52,220.85,151.41,227.4,151,236.54Z"/><path class="cls-10" d="M223.09,308.5c-1.66-5.89-3.15-11.81-6.14-17.05s-6.64-9.83-8.87-15.38a19.34,19.34,0,0,1-1-3.12c-5,.15-12.87,4.26-14.85,8.49a146.12,146.12,0,0,1,15.56,12.34,83.49,83.49,0,0,1,9,9.49,45.73,45.73,0,0,0,4.9,5.51c.47.43,1,.87,1.5,1.3C223.18,309.55,223.14,309,223.09,308.5Z"/><path class="cls-10" d="M220.9,259.25c.48,2.94,1.18,5.81,1.67,8.7a154.81,154.81,0,0,1,2.1,22.57c.13,5.74,0,11.57.61,17.16.28,1.05.58,2.1.89,3.14-.46-1.54,1-5,1.49-7.86.2-1,1.29-7.69,2.29-10.79a64.31,64.31,0,0,0,2.82-13.38c1-6.92,2-13.91,1.75-20.59-.25-5.43-1.27-13.27-6.58-15.41-3.51-1.41-6,.49-6.95,4.39A30,30,0,0,0,220.9,259.25Z"/><path class="cls-31" d="M215.59,322.58c-3.93,2.49-5.87,2.93-9.76,5.12-6.4,3.6-17.47,7.18-26.15,9.19C162.9,340.77,143,340.8,127,340.47a143.61,143.61,0,0,1-23.1-2.32c-6.73-1.25-13.62-2.87-19.31-5.87s-9.74-8.19-6.67-15.83c2.55-6.33,8.91-11.69,14.64-15.89A152.19,152.19,0,0,1,126,282.48c6.09-2.42,12.41-4.39,18.48-4.86a40,40,0,0,1,16.29,2.45c11.33,3.86,21.06,10.53,30.7,16.64,4.74,3,9.44,6.06,14.15,9.1,2.42,1.55,4.81,3.13,7.26,4.65,2,1.24,4.6,2.18,5.87,4.17C220.32,317.12,219,320.44,215.59,322.58Z"/><path class="cls-8" d="M137.18,294.53l.46.16a.18.18,0,0,1,.07.05,42.14,42.14,0,0,0,6.73,1.74c6.41,1.25,13.11,1.88,19.56,3.06a229.13,229.13,0,0,1,30.31,7.55,115.88,115.88,0,0,1,14,5.22c3.75,1.81,7.31,3.88,10.91,5.89a2.72,2.72,0,0,0-.49-2.79c-1.27-2-3.85-2.93-5.87-4.17-2.45-1.51-4.84-3.88-7.26-5.43-4.71-3-9.41-6.09-14.15-9.1L187,293.88c-3.32-1.36-6.08-3.71-9.39-5a103.47,103.47,0,0,0-16.19-4.47,45.7,45.7,0,0,0-14.25-1.19c-4,.39-9.87,1.7-12.84,5.66C132.3,291.53,134.35,293.34,137.18,294.53Z"/><path class="cls-8" d="M137.07,295.22c-4.31-1.66-9.64-2-14.74-1.85s-11.87.84-16.55,4.77c-1.72,1.45-3.61,3.72-3.6,5.72,0,1.76,1.27,2.89,2.7,3.6a26.84,26.84,0,0,0,9.89,2.21c.28-.05.52-.09.72-.14s.38.06.38.21l1.67.09c7.19.31,14.62-.15,21.93-.26,8.32-.12,16.6-.08,24.76.34,1.15,0,2.29,0,3.42,0,.2,0,.26.1.25.21,1.64.11,3.27.24,4.89.38a224.85,224.85,0,0,1,24.26,3.5l1.35.15a.27.27,0,0,1,.21.16c2.62.55,5.22,1.14,7.79,1.79a83.69,83.69,0,0,1,8.9,3c1,.35,1.95.71,2.94,1a6.76,6.76,0,0,0,.7-1.21c-5.24-2.88-10.38-5.83-16.14-8-6.09-2.31-12.35-4.36-18.78-6.1a259.41,259.41,0,0,0-33.91-6.66"/><path class="cls-8" d="M176.84,313.59c-6.2.14-13.66.37-20,3.67-2.54,1.32-5.16,3.51-5.78,6.18-.91,4,2.62,6.1,5.61,7.33,7,2.89,15.83,3.83,24.21,3.8,0,0,1.7-.37,1.75-.37a176.68,176.68,0,0,0,21.69-6.88c4.19-1.55,6.83-3.79,10.76-6.28.89-.56,2.16.33,2.75-.36-2.39-.77-4.69-1.69-7-2.56a79,79,0,0,0-11.4-2.94l-2.55-.52A143.36,143.36,0,0,0,176.84,313.59Z"/><path class="cls-10" d="M161.86,310.58a82,82,0,0,0-21.47,3.23c-5.79,1.83-14,6-13.47,12.6.37,4.27,4.67,6.44,8.41,7.73a49.89,49.89,0,0,0,12.49,2.34,222,222,0,0,0,23.67.19q2.76-.54,5.5-1.17l1.36-.32a78.47,78.47,0,0,1-15.86-1.9c-4.57-1.06-13.64-3.24-12.18-9.57,1.21-5.21,7-7.82,11.79-9.07,6.89-1.8,13.83-1.88,20.34-1.71,2.32.07,4.61.19,6.9.35-1.37-.23-2.75-.44-4.12-.65-7-1-14.06-1.72-21.27-2.11Z"/><path class="cls-8" d="M95.76,323.14a.33.33,0,0,1,.49.22c.52.16,1.06.31,1.59.43a46.88,46.88,0,0,0,10,1,86.07,86.07,0,0,0,18.59-1.62.34.34,0,0,1,.27,0,12.93,12.93,0,0,1,4.59-5.73c5.58-4.13,13-5.53,19-6.42,2.36-.34,4.7-.61,7-.81l-2.43-.06c-9.6-.19-19.34.18-29,.3-3.79.05-7.6.08-11.28-.22-5.81,1-26.09,2.28-22.82,9.67a6.41,6.41,0,0,0,3.91,3.23Z"/><path class="cls-8" d="M95.63,324c-3.31,2.06-.56,4.27,1.26,5.38a38,38,0,0,0,8.42,3.61c3.9,1.2,8.33,1.39,12.66,1.57,6.06.25,12.2.24,18.16.75a19.36,19.36,0,0,1-7.37-3.85,7,7,0,0,1-2.23-7.7h0a84.48,84.48,0,0,1-20.7,1.61C102.71,325.22,98.74,325.07,95.63,324Z"/><path class="cls-13" d="M218.57,158.83c2.08-1,3.88-2.94,3.15-5-.56-1.53-2.31-2.32-4.16-2.53a9,9,0,0,0-3.27.67c-3.16,1.31-3.84,4.37-2.06,6.24C213.62,159.71,216.2,160,218.57,158.83Z"/><path class="cls-14" d="M192.68,171.81c-2.6-.37-3.23-3.68-1.09-5.93a6.75,6.75,0,0,1,.76-.67c-.09-.14-.06-.32.23-.47,3.1-1.67,7.5-.9,6.57,2.78A6.19,6.19,0,0,1,192.68,171.81Z"/><path class="cls-14" d="M177.23,186.23a2.16,2.16,0,0,1-1.56-3.54,2.8,2.8,0,0,1,2.91-1.17,1.49,1.49,0,0,1,1.61,1.64C180.1,184.54,178.87,186.35,177.23,186.23Z"/><path class="cls-14" d="M156,217c-4.24,1.92-8.56.17-8.75-3.79-.22-4.25,3.74-8.11,8.3-8.32,2.26-.11,4.73.85,5.36,2.68C162.75,210.24,160.21,215.06,156,217Z"/><path class="cls-13" d="M167.65,200.05c-4.23,1.92-8.55.17-8.75-3.79-.21-4.25,3.75-8.11,8.31-8.32,2.25-.11,4.72.85,5.35,2.68C174.43,193.31,171.88,198.13,167.65,200.05Z"/><path class="cls-14" d="M133.59,228.79c-4.23,1.92-8.55.16-8.75-3.79-.21-4.25,3.75-8.11,8.31-8.33,2.25-.1,4.72.86,5.35,2.69C140.37,222.05,137.82,226.87,133.59,228.79Z"/><path class="cls-13" d="M137.87,241.05c-1.42-1.53-.34-4.33,2.07-5.42a3.28,3.28,0,0,1,2.55-.21c1.83,0,2.85,1.67,1.65,3.6S139.32,242.61,137.87,241.05Z"/><path class="cls-14" d="M149.41,255.54c1.83-2.24-.59-4-2.72-3.4a2.74,2.74,0,0,0-1.42,1,2,2,0,0,0-.38.38,2.33,2.33,0,0,0-.2,2.25,2.14,2.14,0,0,0,1.78,1.42A3.66,3.66,0,0,0,149.41,255.54Z"/><path class="cls-14" d="M163.36,265.15c1.83-2.24-.59-4-2.73-3.4a2.72,2.72,0,0,0-1.41,1,2,2,0,0,0-.38.38,2.38,2.38,0,0,0-.21,2.25,2.18,2.18,0,0,0,1.79,1.42A3.66,3.66,0,0,0,163.36,265.15Z"/><path class="cls-14" d="M178.61,275.83c1.4-1.71-.45-3.05-2.08-2.6a2.06,2.06,0,0,0-1.09.74,1.33,1.33,0,0,0-.29.29A1.79,1.79,0,0,0,175,276a1.69,1.69,0,0,0,1.37,1.09A2.83,2.83,0,0,0,178.61,275.83Z"/><path class="cls-8" d="M238.29,278.13l.06-.6c.12-2.79-.16-5.52-.14-8.3s0-5.48,0-8.22c0-5.71,0-11.4-.27-17a151.27,151.27,0,0,0-4.61-32.75c-2.85-10.62-7.1-20.53-10-31.13a49.12,49.12,0,0,1-1.7-7.35c-.22-2-.48-5,1.77-6.82,3.11-2.53,6.68.18,8.49,1.56a25.39,25.39,0,0,1,8.13,11.09c3.7,9.44,4,20.3,3.67,31.2s-1,22.13-1.22,33.14c-.18,9.67-.47,19.45-2,29.39,0,1.18-.28,2.37-.29,3.53a4.11,4.11,0,0,1-.62,2.42C239.27,278.77,238.24,278.67,238.29,278.13Z"/><path class="cls-33" d="M228,237c.11,1.07.2,2.16.25,3.25l.29.11C228.43,239.24,228.24,238.12,228,237Z"/><path class="cls-14" d="M85.9,325.75c-1.49.69-3,.08-3.07-1.3a3.06,3.06,0,0,1,2.94-2.94,1.84,1.84,0,0,1,1.88.93C88.3,323.38,87.4,325.07,85.9,325.75Z"/><path class="cls-14" d="M92.72,313.53c-2.77,1.26-5.59.14-5.71-2.43-.12-2.76,2.48-5.29,5.46-5.45,1.48-.08,3.09.54,3.5,1.72C97.17,309.12,95.49,312.26,92.72,313.53Z"/><path class="cls-14" d="M123.83,289.85c-1.2.55-2.43.06-2.48-1.06a2.46,2.46,0,0,1,2.38-2.37,1.48,1.48,0,0,1,1.52.75C125.78,287.93,125,289.3,123.83,289.85Z"/><path class="cls-34" d="M112.54,270.59c-.56.26-1.14,0-1.17-.5a1.13,1.13,0,0,1,1.11-1.11.7.7,0,0,1,.72.36C113.45,269.69,113.11,270.34,112.54,270.59Z"/><path class="cls-4" d="M250.31,298.27c-.68,5.81-.69,11.09-.8,15.91-.18,8.05-.63,14.78-5,20.39-8.39,10.75-16.15,9.7-22.56,5.94-9.86-5.79-8.35-17.36-8.35-17.36a2.47,2.47,0,0,1,.13-.95h0c1.22-3.93,10.16-13.3,15.56-12.07,11.18,2.56,12-20.49,12-20.49C244.4,284.3,250.31,298.27,250.31,298.27Z"/><path class="cls-5" d="M249.51,314.18c-.18,8.05-.63,14.78-5,20.39-8.39,10.75-16.15,9.7-22.56,5.94-9.86-5.79-7.72-17.34-7.72-17.34s0,7.05,16.43,7.36c0,0,11.12,0,15-8.33V311.63Z"/><path class="cls-5" d="M248.62,324.13s-17.61,1.11-23.48-13.66l6.43-9.35,17,14.12"/><path class="cls-4" d="M271,303.61s2.56-25.84-20.36-25.29c-5.65.13-22.76,2.34-21.94,25.06-1,2.74-5,14.92,21.12,18.32,1.27.9,6.59,4.88,9.31-.63C259.83,321,277.07,318.63,271,303.61Z"/><path class="cls-35" d="M264.94,293.13h.15c1.83.19,3,3.81,2.68,8.06s-2.14,7.56-4,7.37-3.22-4-2.88-8.14C261.26,296.47,263.1,293.13,264.94,293.13Z"/><path class="cls-36" d="M262.36,300.75c-.05,1.91.93,3.47,2,3.56s1.78-1.35,1.83-3.26-.74-3.52-1.81-3.61S262.41,298.84,262.36,300.75Z"/><ellipse class="cls-37" cx="265.57" cy="298.48" rx="0.79" ry="1.18"/><path class="cls-38" d="M258.9,321.78a11.57,11.57,0,0,0,.77-2.38s-.72,1.64-1.05,2.14Z"/><path class="cls-38" d="M250.14,322.2l.21-.32c-1.66-1.37-3.59-2.66-3.59-2.66S248.47,320.82,250.14,322.2Z"/><path class="cls-39" d="M250.38,285.38s-4.63-5.1-7.46,2.5A7.18,7.18,0,0,1,250.38,285.38Z"/><path class="cls-39" d="M261.61,286.84s5.55-3.76,6.75,4.37A7.66,7.66,0,0,0,261.61,286.84Z"/><path class="cls-38" d="M266.07,310.36a3.42,3.42,0,0,0,1.86-.63,3.07,3.07,0,0,1-3.46-.48l-.23.3A2.47,2.47,0,0,0,266.07,310.36Z"/><path class="cls-40" d="M263,312.59a16.71,16.71,0,0,0-5.94,7.28c-.95,2.17-3.56,2.7-5.88-2.14a38.51,38.51,0,0,1-3-9.78Z"/><path class="cls-41" d="M256.86,320.16c-1.05,1.91-3.52,2.17-5.73-2.43l-.09-.2C254.51,315.16,256.65,318.77,256.86,320.16Z"/><path class="cls-42" d="M254.85,317.21a4.87,4.87,0,0,1,2,3c-.75,1.36-2.21,1.88-3.78.43C253,319.12,253.57,317.21,254.85,317.21Z"/><path class="cls-38" d="M255,321.66h0a2.53,2.53,0,0,0,2.22-1.71,16.66,16.66,0,0,1,5.86-7.18l.39-.24-15.54-4.85.05.3a38.14,38.14,0,0,0,3,9.84C252.16,320.3,253.57,321.66,255,321.66Zm7.55-9a17.5,17.5,0,0,0-5.65,7.12,2.16,2.16,0,0,1-1.9,1.48h0c-.72,0-2.15-.47-3.66-3.63a38.18,38.18,0,0,1-3-9.4Z"/><path class="cls-43" d="M253.92,297.31l10.86-7s-3.42,5.92-1.41,15.33c.84,3.95,2.94,7.18-1.65,8.33-9.64,2.42-13.62-5.2-13.62-5.2Z"/><path class="cls-44" d="M253.92,297.31l10.93-7.13s-3.49,6.07-1.48,15.48c.84,3.95,2.94,7.18-1.65,8.33-9.64,2.42-13.62-5.2-13.62-5.2Z"/><path class="cls-38" d="M258.1,314.66a15.06,15.06,0,0,0,3.66-.47,3.81,3.81,0,0,0,2.7-1.75c.63-1.22.17-2.8-.35-4.64-.2-.7-.41-1.43-.57-2.19-2-9.2,1.36-15.11,1.39-15.17a5.37,5.37,0,0,0-1.34,2.37,25.59,25.59,0,0,0-.4,12.9c.17.77.38,1.5.58,2.22.5,1.74.93,3.25.38,4.31a3.5,3.5,0,0,1-2.46,1.56c-9.41,2.36-13.4-5-13.43-5.12l-.31.21a11.67,11.67,0,0,0,10.15,5.77Z"/><path class="cls-45" d="M249.57,307.89l0,0,0,0Z"/><path class="cls-44" d="M245.12,305.93l4.42,1.94c-.29.29-2.52,2.35-6.2.53Z"/><path class="cls-38" d="M249.57,307.84l-.06,0a.67.67,0,0,1-.17.13,2.51,2.51,0,0,1-.27.18,3.82,3.82,0,0,1-.36.21,1.36,1.36,0,0,1-.21.1,2.29,2.29,0,0,1-.23.1,3.81,3.81,0,0,1-.51.17c-.17.06-.36.08-.55.13s-.38,0-.57.06a5.81,5.81,0,0,1-.59,0c-.19,0-.38,0-.56,0l-.53-.08-.47-.12-.21,0-.19-.05-.3-.1-.27-.07.24.15.29.16.18.1.2.08.47.19.54.14a1.47,1.47,0,0,0,.29.05l.3,0c.21,0,.42,0,.62,0a6.17,6.17,0,0,0,.62-.08,3.54,3.54,0,0,0,.58-.17,2.18,2.18,0,0,0,.27-.11l.25-.12a3.7,3.7,0,0,0,.44-.28l.18-.14.16-.14c.1-.09.17-.18.24-.25A2.69,2.69,0,0,0,249.57,307.84Z"/><path class="cls-35" d="M242.43,297.07c-.36,4.38,1.42,8.19,3.68,8.43s4.38-3.11,4.75-7.49-1.18-8.1-3.44-8.34S242.8,292.7,242.43,297.07Z"/><path class="cls-36" d="M245.61,303.68c1.25,0,2.27-1.8,2.27-4s-1-4-2.27-4-2.27,1.8-2.27,4S244.36,303.68,245.61,303.68Z"/><ellipse class="cls-37" cx="246.76" cy="297.58" rx="0.79" ry="1.18"/><path class="cls-3" d="M262,282.44c-.15.32-1.07.19-1.1-.56s5.09-10.5,17.1-12.17c4.18-.58,9.15,1.06,11.51,3.48,1.19,1.22,1.73,2.9.91,4.19-1.91,3-6.17-5.26-13-5.16C270,272.33,264.11,278.11,262,282.44Z"/><path class="cls-44" d="M289.5,275.55s-4-7.88-14.09-4.51C275.29,271.11,282.29,268.88,289.5,275.55Z"/><path class="cls-3" d="M248.57,280.83a.66.66,0,0,1-1.2.12c-.34-.64-.13-12,9.62-20,3.39-2.81,8.44-4.11,11.56-3.3a3.1,3.1,0,0,1,2.61,3.16c-.36,3.69-7.67-1.2-13.55,2.63C251.14,267.63,248.52,275.91,248.57,280.83Z"/><path class="cls-44" d="M270.71,260s-6.57-5.26-14.48,2.56C256.15,262.67,261.67,257.34,270.71,260Z"/><path class="cls-3" d="M212.39,339.27c-.83-1.16-1.93-.27-1.74,1.3.22,1.76,3.19,9.27,7.24,20.06-2.29,0-10-.33-12.84,1.71-1.7,1.23-1.14,4.67.31,7.34s5.58,8.28,7.45,7.77,2.18-7.2-5.54-14.89c7-.62,11.5.17,11.7-.88C220,356.34,213.68,341.07,212.39,339.27Z"/><path class="cls-3" d="M228.44,327.25s-.15-3,2.52-2.44,8,15.7,8,15.7l9.66.34a18.85,18.85,0,0,1,3.95-.15c.13.05-1.4,1.28-1.25,1.34.38.18-.46-.29,0,0a9.91,9.91,0,0,1,3.64,4c4,8.21,0,6.55-7.5-2.94l-8.41,1.56a2.48,2.48,0,0,1-2.69-1.35Z"/></g></g></svg>