<svg id="Layer_1" data-name="Layer 1" xmlns="http://www.w3.org/2000/svg" xmlns:xlink="http://www.w3.org/1999/xlink" viewBox="0 0 93.29 128"><defs><style>.cls-1{stroke:#5b0114;stroke-miterlimit:10;fill:url(#linear-gradient);}.cls-2{fill:#fff;}</style><linearGradient id="linear-gradient" x1="46.62" y1="-19.31" x2="46.62" y2="157.96" gradientUnits="userSpaceOnUse"><stop offset="0.01" stop-color="#fc7299"/><stop offset="0.87" stop-color="#c60928"/></linearGradient></defs><rect class="cls-1" x="1.07" y="18.48" width="91.09" height="91.09" rx="7"/><path class="cls-2" d="M70.1,61.25,48.45,43.06a2.87,2.87,0,0,0-3.66,0L23.13,61.25a2.69,2.69,0,0,0-.94,2V95.55a2.65,2.65,0,0,0,2.65,2.65h12a2.65,2.65,0,0,0,2.65-2.65V78.49a2.65,2.65,0,0,1,2.65-2.65h8.92a2.65,2.65,0,0,1,2.65,2.65V95.55a2.65,2.65,0,0,0,2.65,2.65h12a2.65,2.65,0,0,0,2.65-2.65V63.28A2.67,2.67,0,0,0,70.1,61.25Z"/><path class="cls-2" d="M70.5,32a2.17,2.17,0,0,0-2.17-2.17H64.71A2.17,2.17,0,0,0,62.54,32v4.41l8,6.69Z"/><path class="cls-2" d="M80.31,56.13,50.89,31.41a6.65,6.65,0,0,0-8.54,0L12.92,56.13a2.87,2.87,0,0,0-.18,4.22h0a2.85,2.85,0,0,0,3.87.17L44.79,36.86a2.84,2.84,0,0,1,3.66,0L76.62,60.52a2.85,2.85,0,0,0,3.87-.17h0A2.86,2.86,0,0,0,80.31,56.13Z"/></svg>