<svg id="Layer_1" data-name="Layer 1" xmlns="http://www.w3.org/2000/svg" xmlns:xlink="http://www.w3.org/1999/xlink" viewBox="0 0 422.59 512"><defs><style>.cls-1{stroke:#e8ebfc;stroke-width:18px;fill:url(#linear-gradient);}.cls-1,.cls-10,.cls-22,.cls-24,.cls-26{stroke-miterlimit:10;}.cls-2{fill:#2e6300;}.cls-3{fill:#42a90e;}.cls-4{fill:#5bb900;}.cls-10,.cls-5{fill:#50ca0a;}.cls-6{fill:#71dd2a;}.cls-7{fill:#307206;}.cls-8{fill:#e5f550;}.cls-9{fill:#509b00;}.cls-10,.cls-26{stroke:#33560a;}.cls-10,.cls-22,.cls-26{stroke-width:0.5px;}.cls-11{fill:#d1ca3b;}.cls-12{fill:#510000;}.cls-13{fill:#7c0000;}.cls-14{fill:#c85a5f;}.cls-15{fill:#eb7d86;}.cls-16{fill:#99252e;}.cls-17{fill:#752a2a;}.cls-18{fill:#b28f00;}.cls-19{fill:#fccdd1;}.cls-20{fill:#4aaa0c;}.cls-21{fill:#66d61e;}.cls-22{fill:#fcfae6;stroke:#424015;}.cls-23{fill:#efebbd;}.cls-24{stroke:#ea6907;stroke-width:2px;}.cls-25{fill:#fff;}.cls-26{fill:none;}</style><linearGradient id="linear-gradient" x1="955.94" y1="-886.57" x2="1355.77" y2="-886.57" gradientTransform="translate(1097.86 1411.86) rotate(-90)" gradientUnits="userSpaceOnUse"><stop offset="0" stop-color="#87d1dd"/><stop offset="0.55" stop-color="#b6dfe6"/><stop offset="1" stop-color="#d9eaed"/></linearGradient></defs><circle class="cls-1" cx="211.29" cy="256" r="199.91"/><path class="cls-2" d="M265.77,302c13.34,0,30.44-7.21,41.06-17.75,10.06-10,9.46-15,8.2-17.05-2-3.31-7.64-3.37-11.95-1.51l.18.45c4.13-1.78,9.52-1.77,11.38,1.33,1.18,1.95,1.69,6.68-8.12,16.42-11.86,11.76-31.84,19.35-45.5,17.27-5.43-.82-9.36-3.16-11.36-6.75l-.4.25c2.08,3.72,6.12,6.14,11.69,7A32.63,32.63,0,0,0,265.77,302Z"/><path class="cls-3" d="M249.46,294.48c7.57,13.59,39.83,6.79,57.22-10.46s5.19-21.9-3.51-18.15"/><path class="cls-4" d="M351,306.5s-4.64.12-2.67,6.51c-7.53-4.67-28.95-2.63-36-10.81C326.6,297.45,338.1,306.86,351,306.5Z"/><path class="cls-2" d="M348.26,313.22c-3.08-1.91-8.59-2.69-14.43-3.52-8.18-1.16-17.45-2.48-21.65-7.34l-.24-.28.34-.12a26.22,26.22,0,0,1,8.41-1.35c5.26,0,10.27,1.46,15.11,2.87s10,2.92,15.23,2.77v.49a3.21,3.21,0,0,0-2.37,1.32c-.71,1.08-.74,2.72-.08,4.87l.19.61ZM335.68,304c-4.82-1.4-9.79-2.85-15-2.85a25.94,25.94,0,0,0-7.91,1.21c4.2,4.5,13.17,5.78,21.11,6.9,5.58.79,10.87,1.54,14.1,3.29-.54-2-.43-3.62.31-4.73a3.24,3.24,0,0,1,1.11-1C344.71,306.58,340.12,305.25,335.68,304Z"/><path class="cls-3" d="M309.55,274.43c-8.8,11.42-8.67,12-19.64,19.58a40.81,40.81,0,0,1-14.42,6.23c-3.57.67-11.41,3.78-8.68,10,3.33,7.59,13.91.78,18.44-2.16a18.53,18.53,0,0,1,10.66-3c2.58.15,6.14,1,11.28,3.09s16.49,6.59,23.81,12,18.74,8,21.87,1.06c2-4.42-1-9.5-9.75-11.79-7.76-2-19.69-3-27.88-6.82,8.66-1.54,16.81,1.44,22.38,3.25s13,2.95,17.22,1.47c6.58-2.28,4.6-14.34-9.25-14.34-13.51,0-33.06,2.26-35.7-.83,29.59-25.43,7.31-36.07-6.72-26.34"/><path class="cls-5" d="M293.78,296.47a88.16,88.16,0,0,0,9.54-7.35c6.72-6.51,8.62-11.92,10.19-19.28,1.44-6.73,3.76-7.29,5.5-6.71,7.65,2.56,9.59,13-9.12,29.08,2.64,3.09,22.19.83,35.7.83,7.88,0,11.91,3.9,12.72,7.69.32,1.5-1.75,4-6.41,4.37-4.26.38-11-1.18-13.66-2-5.58-1.81-14.34-1.94-23-.4,8.19,3.8,20.12,4.79,27.88,6.82,6.69,1.75,9.86,5.16,10.31,8.61.3,2.22-1.62,4.48-5.93,4.46-4.62,0-12-4.11-15.81-6.92-7.32-5.43-19.32-9.56-24.47-11.63A29.13,29.13,0,0,0,295.44,302C292.28,302,290.74,298.56,293.78,296.47Z"/><path class="cls-6" d="M341.52,311c2.73.42,6.83,1.4,9.31,3.7,2.73,2.53-.46,3.25-2.53,1.84a65,65,0,0,0-7.68-4.91C340,311.35,339.88,310.77,341.52,311Z"/><path class="cls-6" d="M345.83,294.74c2.09-.12,5.28-.05,7.45,1.26,2.39,1.44.12,2.49-1.61,1.77a50.35,50.35,0,0,0-6.41-2.41C344.77,295.22,344.58,294.82,345.83,294.74Z"/><path class="cls-2" d="M345.25,325.72a11.62,11.62,0,0,0,3.09-.39,7,7,0,0,0,4.74-4,6.47,6.47,0,0,0,0-5.41c-1.34-3-4.87-5.39-9.93-6.71-2.65-.7-5.77-1.27-9.07-1.87-6-1.09-12.74-2.33-18-4.61,7.72-1.13,15,1.24,20.3,3l1.18.38c5.15,1.67,12.8,3.05,17.36,1.47a5.72,5.72,0,0,0,3.7-6.5c-.62-4.14-4.89-8.31-13-8.31-4.08,0-8.76.2-13.28.4-9.77.44-19.86.89-22.07-1,17.59-15.2,15-23.34,13.11-26.14-3.6-5.23-13.08-5.43-20.31-.42l.26.41c6.9-4.78,16.28-4.64,19.67.3,3.87,5.62-1.08,15.21-13.23,25.65l-.19.16.17.19c1.92,2.25,12,1.8,22.61,1.33,4.52-.21,9.18-.41,13.26-.41,7.86,0,12,4,12.57,7.9a5.2,5.2,0,0,1-3.39,6c-4.46,1.54-12,.17-17.08-1.48l-1.17-.38c-5.57-1.82-13.19-4.32-21.32-2.88l-.77.14.72.33c5.43,2.53,12.58,3.83,18.88,5,3.3.6,6.41,1.16,9,1.85,4.93,1.29,8.34,3.58,9.62,6.45a6,6,0,0,1,0,5,6.52,6.52,0,0,1-4.43,3.69c-4.52,1.26-11.55-.73-17.1-4.84-7.25-5.37-18.32-9.83-23.64-12l-.22-.08c-4.76-1.92-8.48-2.93-11.35-3.11a18.88,18.88,0,0,0-10.79,3c-3.39,2.19-10.43,6.76-14.95,5.31a5.13,5.13,0,0,1-3.16-3.05,5.08,5.08,0,0,1-.06-4.45c1.54-3.12,6.28-4.76,8.57-5.19a41.08,41.08,0,0,0,14.5-6.26c9.6-6.6,10.27-7.44,16.63-15.42.94-1.18,2.89-4.37,2.89-4.37l-3.25,4.05c-6.45,8.1-7,8.76-16.52,15.33A40.73,40.73,0,0,1,275.45,300c-2.55.47-7.28,2.16-8.9,5.45a6.24,6.24,0,0,0,3.49,8.19c4.73,1.52,11.89-3.13,15.33-5.36a18.31,18.31,0,0,1,10.52-2.93c2.83.17,6.5,1.17,11.22,3.07l.21.08c5.31,2.14,16.35,6.57,23.55,11.91C335.37,323.75,340.86,325.72,345.25,325.72Z"/><path class="cls-7" d="M317.67,263s-2.56.18-3.78,5.28-2.44,13-10.11,20.41-9.69,6.57-11.64,9.34-14.16.79-17.2,2.09-7.42,2-9.06,1.35,6.56-20.84,6.83-20.93,36.86-17.33,36.86-17.33S314,261.87,317.67,263Z"/><path class="cls-8" d="M324.08,269s-3.5-.06-5.54,1.81-4.08,7.49,1.25,10.73C319.79,281.49,325.46,275.22,324.08,269Z"/><circle class="cls-8" cx="307.48" cy="288.67" r="2.09"/><path class="cls-9" d="M326.6,331.07s-11.43-.7-9,10.72c-5.11-5.17-18-12.73-24.32-22.84,8.26,1.8,14.36,3.36,20.54,6.88A59.58,59.58,0,0,0,326.6,331.07Z"/><path class="cls-4" d="M320.05,332.83c-2,1.46-3.5,4.12-2.49,9-4.2-4.25-13.63-10.11-20.38-17.68C305.31,324.13,312.33,329.88,320.05,332.83Z"/><path class="cls-2" d="M317.4,342a76.53,76.53,0,0,0-6.91-5.77c-5.85-4.57-13.13-10.25-17.44-17.11l-.31-.5.55.12c7.79,1.7,14.26,3.29,20.6,6.9a59.85,59.85,0,0,0,12.76,5.22l-.07.48h-.36c-1.19,0-5.27.22-7.4,3-1.34,1.77-1.69,4.26-1,7.39l.16.79ZM313.67,326c-6.15-3.5-12.17-5-19.92-6.73,4.31,6.58,11.34,12.06,17,16.49,2.55,2,4.79,3.74,6.43,5.3-.49-2.94-.07-5.31,1.25-7.06,1.78-2.35,4.78-3,6.6-3.17A59.37,59.37,0,0,1,313.67,326Z"/><path class="cls-3" d="M288.68,276.29c1.7,5.57,3.71,29.64,3.87,32.92A49.12,49.12,0,0,0,314,316.66c9,1,9.42-.25,16.29,1.31s8,7.29,5.87,10.81S328.68,333.93,321,331s-11.27-7.86-25.4-10a92,92,0,0,0,18,15.72c14.51,10.07,5.63,21.45-4.73,16.16-5.56-2.84-10.89-11.82-13.11-17-2.52-5.84-9.19-16.54-15.36-16.87s-11.9,6.88-20.08,5.9-9.57-7.3-6.49-10.37,13.13-1.26,17.15-4,7.11-8.85,7.1-26.37"/><path class="cls-5" d="M270.57,315.53c-3.36,6.23-11.29,8-17.57,5.38a5.22,5.22,0,0,1,.78-6.35c2.46-2.44,9.33-1.79,14-2.84A2.6,2.6,0,0,1,270.57,315.53Z"/><path class="cls-5" d="M303.93,344c-4.08-4.61-8.16-16.46-15.57-23.83-1.86-2-3.6-4.26-6.48-5.49s-4.39-4.15-4-7.64a70.22,70.22,0,0,1,3.72-15.51c1.16-3.29,5-8.53,8.38-8.19,1.29,9.28,2.44,23.39,2.56,25.85A49.12,49.12,0,0,0,314,316.66c9,1,9.42-.25,16.29,1.31s8,7.29,5.87,10.81-7.21,1.92-14.93-1-14.79-8.84-28.92-11c.19.21,3.62,4.64,3.81,4.86a92.43,92.43,0,0,0,17.42,15.07c5.67,3.94,7.77,8.07,7.6,11.34C319.29,354.22,308,348.64,303.93,344Z"/><path class="cls-6" d="M310.85,335.94c2.58,1.52,6.58,4.3,8.28,7.77,1.79,3.67-1.67,3.07-3.21.79a75.08,75.08,0,0,0-6-8.23C309.49,335.76,309.47,335.13,310.85,335.94Z"/><path class="cls-6" d="M323.32,318.87c3-.16,7.36,0,10.36,1.8,3.39,2,.18,3.53-2.29,2.51a72.58,72.58,0,0,0-8.34-3.21C322.15,319.7,321.44,319,323.32,318.87Z"/><path class="cls-2" d="M314,354.47a7.35,7.35,0,0,0,6.65-3.62c1.71-3.21.91-8.88-7-14.34a92,92,0,0,1-17.49-15.17A46.58,46.58,0,0,1,314,327.81a49.13,49.13,0,0,0,6.85,3.41c8.49,3.24,13.57.93,15.49-2.31a7.19,7.19,0,0,0,.49-6.26c-1-2.45-3.29-4.19-6.51-4.92a30.67,30.67,0,0,0-8.15-.88,65.59,65.59,0,0,1-8.17-.44,48.47,48.47,0,0,1-21.26-7.35c-.2-3.69-2.19-27.34-3.86-32.85l-.45.15c1.69,5.54,3.7,29.65,3.85,32.86v.13l.11.07A49,49,0,0,0,314,316.9a66.23,66.23,0,0,0,8.21.44,30.4,30.4,0,0,1,8.06.87c3.06.69,5.25,2.34,6.17,4.63a6.67,6.67,0,0,1-.45,5.81c-2.3,3.87-8.16,4.69-14.94,2.11a48.82,48.82,0,0,1-6.79-3.38,47.3,47.3,0,0,0-18.66-6.63l-.65-.09.45.5a91.54,91.54,0,0,0,18,15.76c7.6,5.27,8.41,10.67,6.81,13.68s-6.09,4.72-11.31,2.06c-5.39-2.75-10.73-11.59-13-16.86-2.76-6.41-9.42-16.69-15.56-17-2.85-.15-5.57,1.25-8.46,2.73-3.53,1.82-7.18,3.7-11.6,3.16-4-.47-6.73-2.28-7.56-5a4.91,4.91,0,0,1,1.2-5c1.54-1.52,5-1.81,8.43-2.09s6.69-.55,8.68-1.93c3.57-2.47,7.22-7.57,7.21-26.57h-.46c0,18.88-3.74,23.9-7,26.16-1.89,1.31-5.23,1.59-8.46,1.85-3.63.3-7.06.58-8.71,2.22a5.41,5.41,0,0,0-1.33,5.5c.89,2.86,3.79,4.79,7.94,5.29,4.56.55,8.44-1.45,11.86-3.21,2.83-1.45,5.51-2.83,8.23-2.68,6.16.32,12.88,11.41,15.17,16.72,2,4.59,7.29,14.07,13.22,17.1A11.52,11.52,0,0,0,314,354.47Z"/><path class="cls-2" d="M295.39,321.17l.34-.34a39.27,39.27,0,0,1-5-7.1,15.77,15.77,0,0,0,2.33,4.5C293.89,319.38,294.75,320.46,295.39,321.17Z"/><path class="cls-3" d="M252,175.64c-5.16-19.21-27.14-35.94-57.69,14.75,0,0-11-.19-15,5.76-3.4-1-9.88,2.79-12.66,9.83s-3.57,14.81-7.91,19.1C137,246.54,120.09,259.36,123.64,288c4.76,33.14,72.62,38.33,117.72,24.9s73.82-45.2,81.38-73c8-.37,16.37-18.34,1.66-24.24,1.2-4.86.09-11.3-2.85-12.61,6.53-20-2-42.44-20-42.44-12,0-16.32,11.88-19.4,15.81-2.4.73-2.88-2.9-16.27-3.16A35.28,35.28,0,0,0,252,175.64Z"/><path class="cls-10" d="M252.63,175.35c-7.11-18.89-26-36.93-58.36,15,0,0-8.87-.94-15,5.76-3.4-1-10.91,3.07-14.05,10.68-2.89,7-3.57,14.81-7.91,19.1-21.72,21.47-37.48,30.73-29.11,57.25s43.66,24,101.29,1.92c44-16.9,75.41-20.31,83-48.15,20.47,9.21,27-16,11.92-21.31.87-1.65.56-11.14-2.38-12.45,9-41.73-18.21-47.16-29.35-39.89-6,3.89-7.44,9.17-10.52,13.1-.58.08-2.53-3.46-16.27-3.16C258.46,173.39,254.39,174.43,252.63,175.35Z"/><path class="cls-11" d="M120.44,290.32c11.13,31,78.39,35.27,120.92,22.6,45.09-13.43,73.82-45.2,81.38-73a8.66,8.66,0,0,0,7.79-6.18c1.42-5.54-3.62-12.57-7.79-4-5.4,2-14.51,10.4-19.07,10.64s-16.06-6.3-23.78-7-30.19,4.92-41.31,2.94-41.45-25.56-55.29-26.22c1.74-6.16-5.91-12.11-12.35-4.6-7.18,8.38-10.19,31.32,3.71,47.77,6.88,8.14,16.06,9.38,18.37,18.92C200.53,303.21,131.1,316.19,120.44,290.32Z"/><path class="cls-8" d="M170,206.72a2.94,2.94,0,0,1,4.49.9c2.32,2.46.46,8.84,1.39,8.84,14.39-5,32.83,12.79,44,24.73,7.32,7.86,10.93,17,18.27,24.56,12.66,13,31.65,10.77,43.05,5.25,7.79-3.78,6.74-14.21,13.7-21.21,2.81-2.83,6.36-2.08,13.08-5.14,5.71-2.6,11.09-11,17.11-13.94,2.23-1,5.94-1.87,5.68,1.67a7.55,7.55,0,0,1-.21,1.32,8.66,8.66,0,0,1-7.79,6.18C318.42,255.77,307.2,273,290,287.26c-11.83,9.41-32.67,17-46.46,19.09-24.17,3.61-49.57-1.7-57.28-14.51,5.69-5.19,8.67-11.85,6.78-19.66-2.31-9.54-11.49-10.78-18.37-18.92C161.37,237.55,163.53,215.93,170,206.72Z"/><path class="cls-12" d="M208.81,223.5c17,12.28,27,31.92,34.4,39,3.53,3.38,8.52,5.42,13.78,6.4,9.36,1.75,19.55.11,23.9-3.45,6.8-5.57,3.28-16.54,20.66-24.57,0,0-11.7-5.57-17.72-7.82a26.13,26.13,0,0,0-7.16-1.44c-5.4-.42-12.35.16-21.49,1.57C241.36,235.29,234.87,234.31,208.81,223.5Z"/><path class="cls-13" d="M257,268.88c9.36,1.75,19.55.11,23.9-3.45,6.8-5.57,3.28-16.54,20.66-24.57,0,0-11.7-5.57-17.72-7.82a26.13,26.13,0,0,0-7.16-1.44C280.07,247.52,267.51,261.48,257,268.88Z"/><path class="cls-14" d="M234.26,251.22c3.43,4.73,6.35,8.78,9,11.26,8.41,8,25.13,8.55,34,5h0c5.3-2.76,9-11,3.72-16.28s-13.9-5.4-18.07-1.23C248.93,240.37,234.87,245.61,234.26,251.22Z"/><path class="cls-15" d="M255.72,264.53c-6.67-2.66-15.26-7.86-11.1-14.74,3.71-5.89,15.58-2.87,21.14,2.54,1.17-3.72,5.27-5.53,9.56-4.55a14.1,14.1,0,0,1,5.61,3.44,8.47,8.47,0,0,1,2.39,4.5C284.23,264.67,269,269.83,255.72,264.53Z"/><path class="cls-16" d="M264.73,269.83c-9,0-16.91-2.61-21.67-7.17-2.58-2.46-5.49-6.47-8.85-11.1l-.2-.27v-.1c.36-3.26,5.37-6.78,12.83-6.78a28.31,28.31,0,0,1,16,5.27,11.47,11.47,0,0,1,7.94-2.88A14.64,14.64,0,0,1,281.09,251a8.82,8.82,0,0,1,2.51,7.73,12.52,12.52,0,0,1-6.29,9l-.05,0h0a35,35,0,0,1-12.52,2.09Zm18.41-11.13a8.31,8.31,0,0,0-2.37-7.3,14.14,14.14,0,0,0-10-4.11,11,11,0,0,0-7.76,2.88l-.13.13-.15-.1a27.89,27.89,0,0,0-15.89-5.3c-7.13,0-11.93,3.23-12.35,6.25l.08.11c3.35,4.62,6.24,8.6,8.79,11,4.68,4.47,12.46,7,21.36,7h0a34.66,34.66,0,0,0,12.39-2.07h0A12,12,0,0,0,283.14,258.7Z"/><path class="cls-17" d="M269,259.11a6.92,6.92,0,0,0-.9-3.56,16.33,16.33,0,0,0-5.11-5.76l-.27.4A15.81,15.81,0,0,1,269,259.11Z"/><path class="cls-18" d="M243.06,262.66c-2.57-2.45-5.45-6.42-8.8-11-6.44-8.87-14.47-19.91-25.58-27.93l-1.7-1.23,1.91.79c19.75,8.19,27.9,10.56,36.31,10.56a63.45,63.45,0,0,0,9.94-.91A121.36,121.36,0,0,1,273,231.21a31.3,31.3,0,0,1,10.89,1.6c6,2.23,17.62,7.77,17.74,7.83l.48.23-.48.22c-11,5.08-13.52,11.24-15.73,16.67-1.22,3-2.37,5.81-4.88,7.86-3.16,2.6-9.41,4.21-16.3,4.21h0C255.72,269.83,247.82,267.22,243.06,262.66Zm40.69-29.39A31,31,0,0,0,273,231.7a120.44,120.44,0,0,0-17.8,1.71,64.24,64.24,0,0,1-10,.91c-8.22,0-16.16-2.23-34.69-9.85,10.37,7.94,18,18.39,24.12,26.87,3.33,4.58,6.2,8.54,8.74,11,4.68,4.47,12.47,7,21.36,7,6.79,0,12.93-1.57,16-4.11,2.41-2,3.49-4.61,4.73-7.67,2.11-5.16,4.72-11.57,15.5-16.7C298.72,239.8,289,235.24,283.75,233.27Z"/><path class="cls-19" d="M267.71,257.17a11.56,11.56,0,0,0-6.08-6.39c-.76-.34-1.43-.22-1,.09a25.84,25.84,0,0,1,7,7.54C268.15,259.27,268,258,267.71,257.17Z"/><path class="cls-19" d="M282.23,257.1c-.19-5.46-4.38-7.76-8-8.14-.81-.09-1,.26-.45.44a11.93,11.93,0,0,1,7.89,8.22C282,258.68,282.26,257.81,282.23,257.1Z"/><path class="cls-18" d="M146.77,312.86c-13.94-5.12-23.12-12.88-26.55-22.45l.43-.19c3.52,8.56,14.3,13.67,28.83,13.67,16.69,0,33.18-6.63,40.12-16.11a18.06,18.06,0,0,0,3.19-15.53c-1.38-5.7-5.2-8.36-9.63-11.45a41.62,41.62,0,0,1-8.69-7.38c-13.62-16.11-11.29-39.25-3.7-48.1,2.55-3,5-3.59,6.63-3.59a6.24,6.24,0,0,1,5.16,2.73,6.71,6.71,0,0,1,1,5.4c7.87.55,20.92,8.19,32.44,14.94,9.13,5.35,17.76,10.4,22.59,11.26a32.3,32.3,0,0,0,5.72.43c6,0,13.55-1,20.18-2a118.29,118.29,0,0,1,13.85-1.46c.57,0,1.09,0,1.54.06,4,.36,9.09,2.31,13.57,4,4.13,1.59,8,3.08,10.18,3,2.5-.14,6.54-2.89,10.44-5.55,3-2.05,6.1-4.16,8.48-5.05,1.65-3.36,3.3-4.07,4.4-4.07a3.34,3.34,0,0,1,2.64,1.58,8.5,8.5,0,0,1,1.13,6.72c-.4,1.57-2.7,6.06-7.83,6.36-4,14.42-13.42,29.28-26.64,41.87-14.84,14.12-33.81,24.9-54.86,31.16-14.46,4.31-31.85,6.68-48.95,6.68C175,319.83,159.21,317.42,146.77,312.86Zm176.18-83,0,.09-.09,0c-2.34.85-5.45,3-8.47,5-4,2.7-8,5.49-10.67,5.63-2.24.12-6-1.32-10.36-3s-9.49-3.65-13.45-4q-.66-.06-1.5-.06A119.76,119.76,0,0,0,264.58,235c-6.64.92-14.17,2-20.24,2a33.2,33.2,0,0,1-5.8-.43c-4.91-.88-13.57-6-22.73-11.32-11.63-6.81-24.8-14.53-32.53-14.9H183l.08-.3a6.23,6.23,0,0,0-.88-5.27,5.79,5.79,0,0,0-4.79-2.53c-1.52,0-3.85.6-6.29,3.43-7.47,8.72-9.74,31.53,3.71,47.45a41.6,41.6,0,0,0,8.59,7.29c4.51,3.15,8.41,5.86,9.83,11.73a18.56,18.56,0,0,1-3.27,16c-7,9.6-23.67,16.3-40.49,16.3h0c-12.23,0-21.84-3.6-26.81-9.83,4.34,7.46,12.62,13.58,24.25,17.84,12.39,4.55,28.14,6.95,45.55,6.95,17.06,0,34.4-2.36,48.83-6.66,46.16-13.74,74.05-46.5,81.22-72.87l.05-.17h.16a8.44,8.44,0,0,0,7.57-6,7.91,7.91,0,0,0-1.05-6.29A2.88,2.88,0,0,0,327,226C326,226,324.51,226.62,323,229.84Z"/><path class="cls-5" d="M322.75,229.74c-7.41,2-13.05,13.43-21.19,12.77s-14.33-7-25-7.69-27.72,6.84-41.7,3.76c-19.3-4.26-37.33-26-51.58-28.48,0,0,63.94-.5,89.3,3.55S322.75,229.74,322.75,229.74Z"/><path class="cls-20" d="M322.58,229.53s-2.86.63-6.81,4.2-8.18,7.82-12,8.4a13.81,13.81,0,0,1-6.6-.77c-1.35-.32-6.83-2.84-8.2-3.43a41.17,41.17,0,0,0-8.79-2.92c-3.19-.54-5.05-.92-12.43.25-7.09,1.13-11.32,2.42-16.48,3s-8.33,1.2-14.79.33-13.43-4.78-18.22-7.67-13.85-9.61-15.84-11-9-6.4-12.3-7.74-5.86-2.17-5.86-2.17a12.5,12.5,0,0,1,5.86-1c3.33.22,6.88,6.95,25.82,18.27s28.86,10.14,33.31,9,16.1-4.3,27.49-3.92,17.28,6,23.3,7.68c5.57,1.53,13.31-6.78,13.31-6.78S319.63,226.55,322.58,229.53Z"/><path class="cls-2" d="M302.22,242.77c4.39,0,8.07-3.39,11.65-6.67,2.83-2.6,5.75-5.29,8.93-6.14l-.11-.47c-3.29.87-6.26,3.6-9.13,6.24-3.68,3.39-7.5,6.89-12,6.53-3.71-.3-7-1.81-10.55-3.42-4.25-1.93-8.64-3.93-14.43-4.28-4.38-.27-9.85.83-15.65,2-8.34,1.68-17.78,3.58-26,1.77-10.13-2.24-19.74-9.17-29-15.89-8.12-5.86-15.78-11.4-22.57-12.59l-.08.48c6.69,1.18,14.32,6.69,22.39,12.52,9.32,6.74,19,13.71,29.19,16,8.31,1.84,17.81-.08,26.18-1.77,5.77-1.16,11.23-2.26,15.54-2,5.72.35,10.07,2.33,14.28,4.25,3.55,1.61,6.91,3.14,10.7,3.45Z"/><path class="cls-2" d="M178.06,214.66c5.71-6.53,12-5.68,12.07-5.67a8.06,8.06,0,0,0-5,.2,15.29,15.29,0,0,0-4.81,2.66A10.33,10.33,0,0,0,178.06,214.66Z"/><path class="cls-2" d="M318.79,226.56c5.44,2.95,5.83,7.47,5.83,7.51a5.69,5.69,0,0,0-.92-3.45,10.87,10.87,0,0,0-2.6-2.93A7.29,7.29,0,0,0,318.79,226.56Z"/><path class="cls-2" d="M254.22,184.88a19.65,19.65,0,0,0-.07-4.16,19,19,0,0,0-2.08-6l.13.8A32.27,32.27,0,0,1,254.22,184.88Z"/><path class="cls-2" d="M280.89,183.59c0-.06.41-5.72,3-9.5l-.36.08a18.54,18.54,0,0,0-2.88,6A5.84,5.84,0,0,0,280.89,183.59Z"/><path class="cls-21" d="M286.93,169c-3.59,5.59-5.44,8.77-6,13.62-.13,1.12.15,1.15.39,0,1.45-6.63,4.45-9.61,6.1-12.44C290.6,164.82,287.55,168.06,286.93,169Z"/><path class="cls-21" d="M253.43,179.38a37.5,37.5,0,0,0-8.54-17c-1.95-2.13-2.25-1.26-1,.48a86.72,86.72,0,0,1,8.77,16.49C253.8,182.33,254.4,183.5,253.43,179.38Z"/><path class="cls-20" d="M316.35,171s-6.78-4.2-17.45,0-11.77,20.33-10,25.11c2.3,6.38,7.15,11.51,14.4,12.5s11.82-1.44,11.82-1.44Z"/><ellipse class="cls-22" cx="309.49" cy="189.27" rx="19.54" ry="18.16" transform="translate(52.65 445.47) rotate(-76.38)"/><path class="cls-23" d="M305.08,197.65s-10,1.82-13.44-4.93a19.3,19.3,0,0,0,3.93,9.55,17.72,17.72,0,0,0,16,6.16c7.26-1.05,8.88-8.15,8.88-8.15S309.73,195.39,305.08,197.65Z"/><path class="cls-10" d="M315.07,211.42s-10.95-8.63-21.06,0"/><path class="cls-2" d="M315.07,211.42a10.54,10.54,0,0,0-3.78-2.57c-3.43-1.4-8.66-2.6-14,0a8.79,8.79,0,0,0-3.19,2.59C304.09,203.39,315,211.34,315.07,211.42Z"/><path class="cls-6" d="M299.16,210.2c0-.83,2-1.61,4.61-1.73s4.7.44,4.74,1.27-2,1.61-4.61,1.73S299.2,211,299.16,210.2Z"/><path class="cls-20" d="M213.61,180.88c-3.32,12-1.17,21.94,8.37,25.17,13.4,4.54,24.17-1.52,28.44-13.26,3.93-10.76-1.8-25.59-13.32-27.73C223.2,162.49,216.8,169.31,213.61,180.88Z"/><ellipse class="cls-22" cx="229.3" cy="186.31" rx="21.25" ry="20.22" transform="matrix(0.5, -0.87, 0.87, 0.5, -46.7, 291.73)"/><path class="cls-23" d="M223,194.54s-11.38.22-14-7.6a20.59,20.59,0,0,0,2.74,10.92,20.06,20.06,0,0,0,16.59,9.35c8.18.12,11.16-7.21,11.16-7.21S228.53,192.92,223,194.54Z"/><path class="cls-10" d="M231.2,213.17s-6.8-11.79-24.93-9.12"/><path class="cls-2" d="M231.2,213.17a7.84,7.84,0,0,0-2.29-3.37c-3.11-2.88-9.15-6.7-19.18-6.46a7.8,7.8,0,0,0-3.46.71C224.57,202.09,231.14,213.06,231.2,213.17Z"/><path class="cls-6" d="M212.59,205.69c.32-1,3.83-.73,7.82.71s7,3.44,6.65,4.48-3.83.72-7.83-.71S212.26,206.73,212.59,205.69Z"/><path class="cls-8" d="M153,230.5s3.29,4.11.09,7.8-9.21.93-9.21.93S152.61,230.63,153,230.5Z"/><circle class="cls-8" cx="148.19" cy="251.7" r="5.41"/><circle class="cls-8" cx="161.32" cy="260.17" r="3.05"/><circle class="cls-8" cx="148.19" cy="265.24" r="2.05"/><circle class="cls-24" cx="230.2" cy="186.41" r="12.84"/><circle class="cls-25" cx="225.22" cy="174.79" r="3.08"/><circle class="cls-24" cx="306.6" cy="190.2" r="12.84"/><circle class="cls-25" cx="301.62" cy="178.58" r="3.08"/><path class="cls-9" d="M65.64,318.68s9.19,2.29,8,8.35c15-2.62,31.81-4.68,33.67-13.52-13.51-1.22-17.6.66-24.63,2.46A130.84,130.84,0,0,1,65.64,318.68Z"/><path class="cls-2" d="M73.37,327c1.17-5.76-7.69-8-7.78-8.06l-1.41-.36,1.44-.13a133.07,133.07,0,0,0,16.95-2.69l2.71-.73a47.09,47.09,0,0,1,14.23-2.13c2.32,0,4.86.12,7.77.39l.26,0-.06.28c-1.73,8.24-16.08,10.68-30,13l-3.89.67-.33.06Zm26.14-13.61a46.43,46.43,0,0,0-14.11,2.12c-.87.24-1.77.48-2.72.72a125.14,125.14,0,0,1-15.83,2.59c2.41.86,7.7,3.29,7,7.93l3.57-.61C91,323.81,105,321.43,107,313.73,104.19,313.49,101.75,313.37,99.51,313.37Z"/><path class="cls-2" d="M105.25,315.75c.73-.65,1.45-1.34,2.1-2a13.59,13.59,0,0,0,2.38-3.27,54.57,54.57,0,0,1-4.78,4.89Z"/><path class="cls-2" d="M134.15,308.31a8.18,8.18,0,0,0,5.51-4.65c3.09-6.52.56-18.06-2.85-26.67-7.14-18.09-17.81-26.33-23.1-26.4h0c-1.53,0-2.86,1.06-4,3.14l.41.24c1-1.93,2.2-2.93,3.57-2.89,5.17.07,15.62,8.21,22.69,26.1,3.36,8.51,5.88,19.88,2.86,26.26a7.75,7.75,0,0,1-5.21,4.39Z"/><path class="cls-7" d="M113.71,250.84c5.07.06,15.71,8.06,22.89,26.24,4.78,12.09,7.34,28.41-2.51,31l-24.16-54.22C110.93,251.93,112.18,250.82,113.71,250.84Z"/><path class="cls-5" d="M113.71,250.84c5.07.06,15.71,8.06,22.89,26.24.61,1.53,1.17,3.13,1.69,4.76.69,2.39-.28,4.47-2,4.72-10.19,1-16.87-11.94-18.68-20.52l-7.71-12.19C110.93,251.93,112.18,250.82,113.71,250.84Z"/><path class="cls-4" d="M104.71,317.85c-5.62,5.3-19,7.06-31.12,9.18.54-2.65-.91-4.58-2.71-5.91C82.12,320.71,95.93,315,104.71,317.85Z"/><path class="cls-3" d="M117.53,262.18c-.78,12.65,16.45,41,18.3,46.95s6.95,8.16,10.89,9.14,19.45,2.45,15.05,10.56-21.54,2.54-25.25-1.06-5.9-6.68-8.8-6.68-8.11-.78-14,1.19S98,329.16,89.5,334.73s-21.77,11-26.41,4.66,2.47-12,12.36-14c8.78-1.75,23.93-4.75,29.65-9.82-9.58-2.3-18.84.49-25.17,2.12s-15.05,3.31-19.31.5c-5.63-3.73-5.38-14.68,10-12.94,14.13,1.6,37.93,2.29,41.07-1-6.44-11-7.36-53.55,2-53.43"/><path class="cls-5" d="M117.53,262.18c-.78,12.65,10.45,39.95,12.3,45.89s12.95,9.22,16.89,10.2,19.42,2.43,15.05,10.56c-2.67,5-18.85,1.13-23.52-3.86-3.54-3.79-8.3-7.78-11.2-7.78a44.79,44.79,0,0,0-13.74,2.46c-5.87,2-16,5.89-24.48,11.46-4.83,3.17-13.65,7.06-19.76,7.45-5.72.37-7.42-2.49-7.43-3-.08-4.68,6-8.59,13.81-10.14,8.19-1.63,21.92-4.35,28.37-8.82a40.43,40.43,0,0,0,4.49-4.11c-9.57-2.29-22.18.72-28.51,2.35s-13.38,2.34-16.5,1.29C57,314,55.24,303.51,70.62,305.25c14.13,1.6,37.93,2.29,41.07-1-6.44-11-7.36-53.55,2-53.43"/><path class="cls-6" d="M75.32,306.55c-3.72-.55-8.65-1-10.88-.15-4.18,1.67-.8,4,2.15,3.29,2.62-.61,5.23-1.34,8.63-1.84C76.65,307.64,78,306.94,75.32,306.55Z"/><path class="cls-6" d="M77.46,326.17c-3.72.9-9,2.44-10.88,4.24-3.32,3.16.61,4,3.13,2.22,2.23-1.57,4.42-3.26,7.41-5C78.38,326.85,79.72,325.62,77.46,326.17Z"/><path class="cls-6" d="M151.53,320.87c2.52.22,6.34.88,8.73,2.84,2.64,2.16-.25,3-2.22,1.84a60.4,60.4,0,0,0-7.3-4.05C150.18,321.26,150,320.74,151.53,320.87Z"/><path class="cls-6" d="M119.16,253.76c-2.4-1.58-5.17-2.8-6.93-1.52-2,1.43-3.35,6.46-3.92,10.57-.22,1.56.27,1.56.64.35,1.27-4.25,3.06-8,4.38-8.84s3.74-.35,5.7.37S120.5,254.63,119.16,253.76Z"/><path class="cls-2" d="M69.77,342.43c5.73,0,13.39-3.26,19.85-7.5,7.93-5.19,17.88-10.3,24.2-12.42a31.39,31.39,0,0,1,11.94-1.23c.75,0,1.39.06,2,.06,2.19,0,4,1.85,6.47,4.41.68.7,1.39,1.43,2.18,2.2,2.54,2.47,12.15,6.24,19.15,5.09,3.08-.51,5.26-1.88,6.45-4.09a4.91,4.91,0,0,0,.47-4.45c-1.67-3.79-9-5.18-13.43-6-.91-.18-1.69-.32-2.24-.46-5.7-1.42-9.31-4.44-10.72-9a95.64,95.64,0,0,0-4.61-9.78c-5.54-11-13.91-27.52-13.91-37.1a8,8,0,0,0-.13,3.74c1.47,9.87,8.73,23.9,13.63,33.59a95.4,95.4,0,0,1,4.58,9.7c1.47,4.71,5.19,7.83,11,9.3.56.14,1.35.29,2.27.46,4.31.81,11.53,2.18,13.09,5.74a4.45,4.45,0,0,1-.45,4c-1.12,2.07-3.18,3.36-6.12,3.84-6.87,1.13-16.28-2.55-18.77-5-.78-.76-1.49-1.48-2.17-2.19-2.56-2.64-4.41-4.54-6.79-4.54-.56,0-1.2,0-1.94-.07a31.58,31.58,0,0,0-12.1,1.27c-6.35,2.12-16.34,7.25-24.3,12.47-9.61,6.3-21.88,10.46-26.1,4.72a5.77,5.77,0,0,1-1.09-5.57c1.27-3.58,6.37-6.66,13.3-8h.07c9-1.78,23.94-4.76,29.69-9.87l.36-.31-.46-.11c-9-2.15-17.63.12-24,1.78l-1.33.35C70.24,320,64,320.12,60.75,318a7,7,0,0,1-3-7.73c.58-1.8,3-5.87,12.83-4.76,12.27,1.39,37.81,2.55,41.25-1.05l.14-.14-.1-.16c-5.14-8.76-7-40.26-1.72-50.25,1-1.86,2.17-2.81,3.5-2.81h0v-.49c-1.53,0-2.85,1-3.94,3.06-2.43,4.56-3.6,14.13-3.15,25.59.43,11,2.26,20.53,4.77,25-3.46,2.95-25.88,2.46-40.74.78-10.15-1.14-12.7,3.18-13.32,5.09a7.46,7.46,0,0,0,3.17,8.3c3.35,2.22,9.72,2.07,19.48-.46l1.33-.34c6.16-1.62,14.56-3.83,23.26-1.89-5.91,4.83-20.38,7.7-29.1,9.44H75.4c-7.08,1.41-12.31,4.61-13.65,8.35a6.26,6.26,0,0,0,1.16,6C64.4,341.57,66.83,342.43,69.77,342.43Z"/><path class="cls-26" d="M113.15,250.88s3.71-1,10.72,5.46a57.82,57.82,0,0,1,16.68,34.28c1.66,15.29-5,17.17-5,17.17"/><circle class="cls-8" cx="116.34" cy="288.67" r="2.05"/><ellipse class="cls-8" cx="123.87" cy="308.31" rx="3.79" ry="3.26"/><path class="cls-8" d="M107,272.32s3.46-.31,4.26,1.83c1,2.65-.34,5.59-4.11,6.49C107.17,280.64,106.77,273.22,107,272.32Z"/><path class="cls-9" d="M150,343.39s.29-7.86-10.77-7.06c5.39-4.79,13-9.92,32.82-8.21C170.7,337.74,150,343.39,150,343.39Z"/><path class="cls-4" d="M170.7,331.58c-4.91,7.5-20.68,11.81-20.68,11.81s.19-5.14-5.59-6.68A35.37,35.37,0,0,1,170.7,331.58Z"/><path class="cls-2" d="M149.79,343.38a6.61,6.61,0,0,0-1.68-4.28c-1.78-2-4.77-2.82-8.84-2.53l-.71.06.54-.49c5-4.47,11.6-8.6,25.59-8.6,2.31,0,4.8.11,7.4.34l.25,0,0,.26c-1.38,9.67-21.37,15.24-22.22,15.47l-.3.08ZM164.69,328c-13.34,0-19.86,3.79-24.75,8,3.89-.16,6.73.76,8.5,2.72a7.08,7.08,0,0,1,1.81,4.31c2.45-.72,20-6.13,21.55-14.72C169.3,328.14,166.91,328,164.69,328Z"/><path class="cls-3" d="M185.34,262.72c-2.2-3.22-9.37-4.84-12.37,8.92-5.36,24.62-1.52,44.67-3.14,46.39s-9.79,4.54-17,4.3-20.73-.74-26.29,5.65-1.51,11.3,3,12.16,9-2.09,13.78-5.9,22.36-6.63,27.34-5c-1.12,4.47-11.12,10.2-19.35,12.41s-16,6.63-14.59,13.63,11.56,5.6,16.61,1.15c1.43-1.26,3-2.29,3.76-3.8,2-3.9,4-4.93,10.21-6.8,6.64-2,9-5.9,13.67-10s7.87-6.88,12.27-5.78,9.15,5.29,14,5.78,10.54-3.93,8.91-8.11-8.91-7.25-17.48-5.4S187,317.66,186,313.11s-4.64-21.71-2.55-28.71c6.83-4.91,6.66-10.77,6.35-12.69"/><path class="cls-5" d="M185.34,262.72c-2.2-3.22-9.37-4.84-12.37,8.92-5.36,24.62-1.52,44.67-3.14,46.39s-9.79,4.54-17,4.3-20.73-.74-26.29,5.65.59,9.18,3.25,9.3c4.58.22,7.64-2,12.39-5.86s23.67-7.09,28.65-5.5a9.29,9.29,0,0,1-.29,3.71c-1.62,4.39-11.25,9.84-19.22,12-8.22,2.21-16,6.63-14.59,13.63s10.18,3.4,14.35-1.89,5.67-7.06,15.26-10c6.64-2,8.52-5.47,13.16-9.52s8.88-8.32,13.28-7.21S203,332,207.9,332.51s9.94-.6,8.31-4.78-8.91-7.25-17.48-5.4-14.76-4.72-15.81-9.26-4.24-23-2.16-30c8.59-1.82,9.34-9.47,9-11.39"/><path class="cls-6" d="M143.49,324.14c-3.82.17-9.47.67-11.68,2.11-3.8,2.48-.08,4.05,2.7,2.79a85.82,85.82,0,0,1,9.17-3.91C144.77,324.76,145.67,324,143.49,324.14Z"/><path class="cls-6" d="M150.05,343.5c-3.28.93-8.18,2.79-10.88,6-3,3.52,1,3.91,3.34,1.85,2.16-1.92,4.25-3.95,7.27-6.19C150.85,344.36,152,342.94,150.05,343.5Z"/><path class="cls-2" d="M143.81,360.53a17,17,0,0,0,10.27-4.33c.64-.6,2.39-2.38,2.8-2.92,3.13-4.1,2.12-4.72,10.52-7.26,5-1.51,7.6-4.06,10.58-7,1-1,2-2,3.17-3,4.52-3.95,7.78-6.81,12.08-5.73a27.46,27.46,0,0,1,5.87,2.61c2.65,1.42,5.38,2.89,8.17,3.17a9.64,9.64,0,0,0,8.43-3.85,4.83,4.83,0,0,0,.73-4.59c-1.62-4.16-8.86-7.46-17.75-5.55-8.62,1.85-11.51-4.87-12.47-9-.49-2.14-4.72-21.06-2.58-28.5a15.23,15.23,0,0,0,6.4-9.43,9.4,9.4,0,0,0-.24-3.42c.16,2.24-.14,7.93-6.48,12.49l-.07.05,0,.08c-2.19,7.35,1.73,25.32,2.54,28.84s3.67,11.4,13,9.4c8.66-1.86,15.69,1.28,17.23,5.25a4.35,4.35,0,0,1-.67,4.12,9.31,9.31,0,0,1-8,3.65c-2.71-.27-5.4-1.72-8-3.11a27,27,0,0,0-6-2.65c-4.53-1.14-7.87,1.78-12.48,5.82-1.17,1-2.2,2-3.19,3-2.94,2.9-5.48,5.42-10.4,6.89-8.9,2.67-7.49,3-10.59,7-.41.54-2.26,2.5-2.92,3.12-2.93,2.74-8.48,5.05-12.35,4a5.73,5.73,0,0,1-4.42-4.55c-1.61-8.11,9.55-12,14.42-13.34,8.3-2.23,18.35-8,19.51-12.58L171,329l-.22-.07c-5.08-1.63-22.68,1.18-27.54,5.07-5.1,4.1-9.37,6.66-13.6,5.85a6.74,6.74,0,0,1-5.27-4.29c-.5-1.58-.49-4.15,2.39-7.46,5.46-6.27,18.84-5.82,26-5.57h.09c7.41.26,15.55-2.68,17.14-4.37.6-.64.56-2.87.4-7.87-.26-8.41-.71-22.5,2.81-38.63,1.72-7.88,4.55-10.25,6.62-10.85a5.5,5.5,0,0,1,5.52,1.87,4.06,4.06,0,0,0-2.44-2.23,5,5,0,0,0-3.2-.11c-2.19.63-5.18,3.09-6.95,11.21-3.53,16.2-3.09,30.32-2.82,38.76.13,4.06.22,7-.27,7.5-1.5,1.6-9.62,4.47-16.79,4.23h-.09c-7.26-.25-20.77-.71-26.38,5.73-3,3.48-3,6.24-2.49,7.95a7.23,7.23,0,0,0,5.63,4.62c4.39.84,8.76-1.77,14-5.94,4.6-3.69,21.74-6.48,26.91-5.07-1.38,4.32-11.1,9.85-19.11,12-5,1.35-16.46,5.4-14.77,13.92a6.2,6.2,0,0,0,4.77,4.92A9.44,9.44,0,0,0,143.81,360.53Z"/><path class="cls-2" d="M170.92,329.27a8.59,8.59,0,0,0,.25-2.36,5.46,5.46,0,0,0-.92-2.86,10.25,10.25,0,0,1,.22,5.09Z"/><path class="cls-6" d="M182.25,261.38c-4.16-1.64-8.31,4.8-8,12,0,.86.61.37.8-.59,1.53-7.63,4.57-9.84,6.56-10.45C182.72,262,182.67,261.55,182.25,261.38Z"/><path class="cls-8" d="M172.76,273.8s5,1.25,4.1,7.74-6.15,6.31-6.15,6.31S172,274.76,172.76,273.8Z"/><ellipse class="cls-8" cx="174.73" cy="300.86" rx="2.66" ry="2.35"/><ellipse class="cls-8" cx="287.21" cy="303.76" rx="2.26" ry="2.97" transform="translate(-110.59 432.26) rotate(-64.51)"/></svg>