<svg xmlns="http://www.w3.org/2000/svg" width="434.57" height="385.29" viewBox="0 0 434.57 385.29">
  <defs>
    <style>
      .cls-1 {
        isolation: isolate;
      }

      .cls-10, .cls-12, .cls-2 {
        fill: #3b2314;
      }

      .cls-3 {
        fill: #5d3c2a;
      }

      .cls-4 {
        fill: #895b46;
        stroke: #231f20;
      }

      .cls-10, .cls-11, .cls-13, .cls-24, .cls-4 {
        stroke-miterlimit: 10;
      }

      .cls-4, .cls-6, .cls-8 {
        stroke-width: 0.75px;
      }

      .cls-13, .cls-4 {
        opacity: 0.3;
      }

      .cls-5 {
        fill: #b73e7b;
      }

      .cls-5, .cls-7 {
        stroke: #561d1d;
      }

      .cls-6 {
        fill: #e585b3;
      }

      .cls-6, .cls-8 {
        stroke: #ffe6e6;
      }

      .cls-7 {
        fill: #e4609c;
      }

      .cls-8 {
        fill: #f38fbb;
      }

      .cls-9 {
        fill: #231f20;
      }

      .cls-10 {
        stroke: #210f00;
      }

      .cls-10, .cls-17, .cls-24 {
        stroke-width: 0.5px;
      }

      .cls-11 {
        fill: #ffe743;
        stroke: #705b01;
      }

      .cls-12 {
        opacity: 0.24;
      }

      .cls-13 {
        fill: #e0aa24;
        stroke: #eac71c;
        stroke-width: 0.25px;
      }

      .cls-14 {
        fill: #754c28;
      }

      .cls-15 {
        fill: #fff19c;
      }

      .cls-16 {
        fill: #fbf5b0;
        stroke-width: 0.25px;
      }

      .cls-16, .cls-17 {
        stroke: #832f0a;
        stroke-linecap: round;
        stroke-linejoin: round;
      }

      .cls-17 {
        fill: #fefdeb;
      }

      .cls-18 {
        mix-blend-mode: multiply;
      }

      .cls-19 {
        fill: #f2efda;
      }

      .cls-20 {
        fill: #381b0d;
      }

      .cls-21 {
        fill: #fff;
      }

      .cls-22 {
        fill: #4c4218;
      }

      .cls-23 {
        opacity: 0.72;
      }

      .cls-24 {
        fill: #00aad4;
        stroke: #003875;
      }

      .cls-25 {
        fill: #14daef;
      }

      .cls-26 {
        opacity: 0.8;
      }

      .cls-27 {
        fill: #ffd400;
      }
    </style>
  </defs>
  <g class="cls-1">
    <g id="Layer_2" data-name="Layer 2">
      <g>
        <g>
          <path class="cls-2" d="M255.22,248.33s4.6,10,9,10.23,31.09-13.09,31.09-13.09l1.9,3.33-27.7,12.45s-7.57,4.24-12.89-3-7.49-10.12-7.49-10.12Z"/>
          <g>
            <path class="cls-2" d="M301.28,247.67l2.13,5.33s.75,5.12,6.65,17.55,20.24,12,19.39,1.48-8.32-29.69-19-32.25a7.15,7.15,0,0,0-3.36-1.69c-3.22-.62-6.76,1.22-9.08,4.61l-2.77,1.51,3.37,4.85,2.12-1.35Z"/>
            <path class="cls-3" d="M299.49,248.91l-2.62,1.32-3.55-5.18,2.78-1.51c2.32-3.39,5.86-5.23,9.07-4.61a7.11,7.11,0,0,1,3.36,1.69c10.65,2.57,18.13,21.71,19,32.25s-13.49,11-19.4-1.47-6.64-17.55-6.64-17.55l-1.92-4.79Z"/>
            <path class="cls-4" d="M314.9,255l-6.9,2.56s4.49,11.23,6.9,14.38,9.76,0,4.88-8.47Z"/>
            <path class="cls-4" d="M311,246.06a17.46,17.46,0,0,1-8,3.79l1.19,2.1s7.12-1.1,8.11-4.09L311.29,246Z"/>
          </g>
          <path class="cls-2" d="M296.87,250.23l-3.55-5.18S291.58,251.34,296.87,250.23Z"/>
        </g>
        <g>
          <g>
            <path class="cls-5" d="M234.6,136.24s6.3-16.21,19.85-17.62,15.45,17.59,11.91,24.75-13.39,27.84-34.84,40S232.55,155.63,234.6,136.24Z"/>
            <path class="cls-6" d="M235.14,137.3s5.83-15,18.38-16.32,14.33,16.29,11,22.93-12.4,25.8-32.28,37.11S233.24,155.26,235.14,137.3Z"/>
          </g>
          <g>
            <path class="cls-5" d="M199.66,188.1s15.24,5,23.89-6.78,18.86-48.51,12.76-71.12C231,90.4,217,83,208.38,88.18c-10.1,6.06-6.25,28.91-4.5,42.65C207.15,156.45,199.66,188.1,199.66,188.1Z"/>
            <path class="cls-6" d="M202,182.14s13.75,4.33,21.67-6.26S241,132.23,235.68,112C231,94.27,218.44,87.72,210.57,92.44c-9.18,5.51-5.86,26-4.37,38.29C209,153.69,202,182.14,202,182.14Z"/>
          </g>
        </g>
        <g id="Bee_right_Bee_wings_02" data-name="Bee right Bee wings_02">
          <g>
            <path class="cls-7" d="M300.89,174s17.87-6.07,28.78,4-3.34,24.8-11.79,26.86-32.54,8.34-58-.73S283.46,185.71,300.89,174Z"/>
            <path class="cls-8" d="M300.4,175.13s16.56-5.62,26.67,3.72-3.1,23-10.93,24.88-30.15,7.73-53.76-.67S284.26,186,300.4,175.13Z"/>
          </g>
          <g>
            <path class="cls-7" d="M231,181.89s9,15.31,24.88,14.25,53.49-18.18,67.7-38.81c12.45-18.06,8.52-34.57-2-38-12.25-4.06-28.28,14.9-38.32,25.85C264.5,165.54,231,181.89,231,181.89Z"/>
            <path class="cls-8" d="M234.11,182.45s11.86,10.86,26.27,10,48.44-16,61.24-34.38c11.21-16.09,7.56-30.87-2-34C308.49,120.35,294,137.22,285,147,268.09,165.11,234.11,182.45,234.11,182.45Z"/>
          </g>
        </g>
        <g>
          <path class="cls-9" d="M175.57,99.32s-12.91-29.65-36.91-41.56l-1,2S159.68,70,173.55,101Z"/>
          <rect class="cls-9" x="127.67" y="44.91" width="9.68" height="21.13" rx="4.84" transform="translate(24.15 149.79) rotate(-63.76)"/>
        </g>
        <g>
          <path class="cls-9" d="M228.31,119.05s24-21.63,50.81-22.53l.08,2.29s-24.29.16-49.75,22.6Z"/>
          <rect class="cls-9" x="280.83" y="86.43" width="9.68" height="21.13" rx="4.84" transform="translate(197.53 385.52) rotate(-91.77)"/>
        </g>
        <g>
          <path class="cls-10" d="M142.93,202.34s-2.81,2.68-4.4,1.52c-2.39-1.74.25-4.23.25-4.23S142.18,201.3,142.93,202.34Z"/>
          <path class="cls-10" d="M143.9,196.17s11,12.63,31.15,16.16c0,0,6.25-1.34,11.6-15.71s6.27-14.81,6.27-14.81,3-.66,2.7,1.3-8.26,27.52-17.7,32.26c-8.25,4.14-36.6-13-37.62-16.09S142.54,194.67,143.9,196.17Z"/>
        </g>
        <path class="cls-10" d="M152.81,172.64s-3-3-6.23-1.65-1.62,6.13.78,8S157.91,179.64,152.81,172.64Z"/>
        <g>
          <path class="cls-11" d="M179.43,169.85s1.45,45.38,44.25,72.46c16.22,10.26,94.59,12.38,70.57-41.15-13.63-25.47-39.8-23.14-60.46-21.66-4.45.32-11.64-2.93-14.62-5.67l-3.58-2.51Z"/>
          <path class="cls-2" d="M241.73,178.82s2.42,35.57-44.38,39.17c2.81,4.44,9.9,11.55,9.9,11.55s46.91-9.45,45.33-51H247.3Z"/>
          <path class="cls-2" d="M270.83,181.2s4,50.74-55.06,55.78a43.86,43.86,0,0,0,7.4,5.24,29.62,29.62,0,0,0,8.49,3.45s47.64-8.67,49.9-59.31c-.23-.12-1.15-.79-2.37-1.49a30.62,30.62,0,0,0-3-1.58A30.12,30.12,0,0,0,270.83,181.2Z"/>
          <path class="cls-2" d="M223,176.27s-13.76,22.46-36,23.42a45.47,45.47,0,0,0,4.77,9.51s35.48-7.23,39.25-30l-3.6-1c-.36-.1-.82-.34-1.26-.45Z"/>
          <path class="cls-2" d="M295.37,203.49c1,1.88,8,15.66-.1,28.79S267,252.55,247.16,248C277,246,296.15,221,295.37,203.49Z"/>
        </g>
        <g>
          <path class="cls-2" d="M327.79,241.16l-28.49,13s-9.49,3.39-14.3-3.84c-4.37-5.5-9.07-12.53-11.38-16.07a2.72,2.72,0,0,0-3.73-.8h0a3.51,3.51,0,0,0-.63,5.38l15.68,17.46s5.91,5.49,18.86-.49c15.29-7.05,25.94-11.76,25.94-11.76Z"/>
          <g>
            <path class="cls-2" d="M335.07,242.6l2.34,5.84s.81,5.59,7.26,19.19,22.14,13.14,21.21,1.61-9.1-32.46-20.75-35.27a7.85,7.85,0,0,0-3.67-1.85c-3.52-.67-7.39,1.34-9.93,5l-3,1.66,3.76,5.38,2.45-1.36Z"/>
            <path class="cls-3" d="M333.12,244l-2.87,1.44-3.88-5.66,3-1.65c2.54-3.71,6.41-5.72,9.93-5.05a7.94,7.94,0,0,1,3.68,1.85c11.64,2.81,19.82,23.75,20.75,35.27s-14.76,12-21.21-1.61-7.27-19.19-7.27-19.19l-1.73-4.31Z"/>
            <path class="cls-4" d="M350,250.58l-7.54,2.8s4.91,12.28,7.54,15.74,10.68,0,5.34-9.27Z"/>
            <path class="cls-4" d="M345.75,240.84A19.12,19.12,0,0,1,337,245l1.3,2.29s7.78-1.2,8.87-4.47l-1.19-2Z"/>
          </g>
          <path class="cls-2" d="M326.37,239.74s-.23,6.21,3.88,5.66Z"/>
        </g>
        <path class="cls-12" d="M201.35,184.5s1.27,15.56,22.59,28.07,65.75,15.91,75.07,3.17c0,0,3,16.54-15.26,27.36-17.6,10.39-50.8,3.62-57.65.61-8.38-3.68-26.25-19.35-34.56-34.73a109.76,109.76,0,0,1-9.92-24.67s-3.78-13.1,0-15.34c8.17-4.83,28.39-.58,34.45,2.65a30.5,30.5,0,0,1,4.19,2.93C220.55,174.84,208.93,183.53,201.35,184.5Z"/>
        <g>
          <path class="cls-11" d="M234.57,151.57c-4.75,23-27.8,27.52-52.8,28.44-5.93.22-11.63,1.19-17.59-5.43-10.86-12.06-27.23-17.89-22.7-42,4.59-24.38,29-39.88,55.71-34.44C230.39,104.93,239.59,127.28,234.57,151.57Z"/>
          <path class="cls-13" d="M228.9,117.27S239.58,181.2,160,170c1,.14,4.74,8.23,14.21,9.73a124.44,124.44,0,0,0,16.51-.56c6.71-.5,16.64-2.35,22.62-4.72a36.15,36.15,0,0,0,13.38-8.3C236.45,156.31,239,131.65,228.9,117.27Z"/>
          <ellipse class="cls-14" cx="179.94" cy="148.76" rx="3.21" ry="1.88" transform="translate(-11.25 282.77) rotate(-74.61)"/>
          <path class="cls-15" d="M210.07,102.74a32.14,32.14,0,0,1,4.79,2c1.29.84,3.42,2,4.6,2.93a27.53,27.53,0,0,1,5,5.71A37,37,0,0,1,227,117.2c.37.66.73,1.34,1.06,2s.64,1.38.9,2.1a31,31,0,0,1,2.08,8.82c0,.76.07,1.51.08,2.26s0,1.51-.09,2.26-.14,1.5-.27,2.23l-.2,1.11c-.06.37-.13.74-.22,1.08-.18.7-.34,1.4-.55,2.1l-.29,1-.35,1c-.23.69-.49,1.37-.75,2s-.58,1.34-.87,2a26.45,26.45,0,0,1-4.29,6.29c-1.89,2.28-5.82,5.69-8.12,6.32,2.84-5,5.78-9.2,7.05-14.3a78,78,0,0,0,1.47-7.7c.09-.66.14-1.26.22-1.88s.06-1.25.11-1.87,0-1.24,0-1.86-.06-1.24-.09-1.86a40.14,40.14,0,0,0-4.27-14.68,65.51,65.51,0,0,0-4.09-7.1C213.93,106.32,211.93,105.06,210.07,102.74Z"/>
          <path class="cls-9" d="M236.28,139.2a17.34,17.34,0,0,0-3.81,5.75,18.79,18.79,0,0,0,0,13.38,40.54,40.54,0,0,0,3.77-19.13Z"/>
          <path class="cls-9" d="M147.52,118.38s4.94,9.67-6.74,17.36A51.37,51.37,0,0,1,145,123,52.11,52.11,0,0,1,147.52,118.38Z"/>
          <path class="cls-9" d="M182.94,96.76s9.65-2.41,23.71,3.34C207.71,103.52,183.23,103.59,182.94,96.76Z"/>
          <g>
            <g>
              <path class="cls-16" d="M178.44,127.33c-2.79,9.62-10.66,15.5-17.56,13.14s-10.25-12.08-7.45-21.7,10.66-15.5,17.57-13.14S181.24,117.71,178.44,127.33Z"/>
              <path class="cls-12" d="M177.69,133.18c-2.43,8.37-9.89,13.29-16.64,11s-10.27-11-7.84-19.35,9.89-13.29,16.65-11S180.13,124.81,177.69,133.18Z"/>
              <path class="cls-17" d="M177.55,129.42c-2.44,8.38-9.89,13.28-16.65,11s-10.27-11-7.83-19.34,9.89-13.29,16.64-11S180,121.05,177.55,129.42Z"/>
              <g class="cls-18">
                <path class="cls-19" d="M172.54,106.33c4.62,3.52,6.57,11.27,4.33,19-2.64,9.06-10.05,14.6-16.55,12.38-4.49-1.54-7.37-6.36-7.87-12.17,0,7.06,3.15,13.15,8.43,15,6.9,2.36,14.77-3.52,17.56-13.14C181,118.46,178.38,109.52,172.54,106.33Z"/>
              </g>
            </g>
            <path class="cls-20" d="M172,126.75c-.73,4.64-4.31,7.8-8,7.07s-6.08-5.08-5.34-9.71,4.31-7.8,8-7.07S172.71,122.12,172,126.75Z"/>
            <path class="cls-21" d="M162.6,121.84a2,2,0,0,1-2.29,1.92,2.42,2.42,0,0,1-1.64-2.76,2,2,0,0,1,2.29-1.91A2.4,2.4,0,0,1,162.6,121.84Z"/>
          </g>
          <g>
            <g>
              <path class="cls-16" d="M219.13,136.18c-2.75,9.52-10.51,15.35-17.34,13s-10.15-11.92-7.4-21.43,10.51-15.34,17.33-13S221.87,126.67,219.13,136.18Z"/>
              <path class="cls-12" d="M218.4,142c-2.39,8.28-9.75,13.15-16.43,10.88s-10.17-10.82-7.79-19.1,9.75-13.16,16.43-10.89S220.79,133.69,218.4,142Z"/>
              <path class="cls-17" d="M218.25,138.25c-2.39,8.28-9.75,13.15-16.43,10.88S191.65,138.31,194,130s9.74-13.15,16.43-10.88S220.64,130,218.25,138.25Z"/>
              <g class="cls-18">
                <path class="cls-19" d="M213.24,115.44c4.59,3.47,6.53,11.13,4.33,18.75-2.59,9-9.9,14.45-16.34,12.27-4.43-1.51-7.29-6.27-7.79-12,0,7,3.13,13,8.35,14.76,6.83,2.32,14.59-3.51,17.34-13C221.66,127.41,219,118.58,213.24,115.44Z"/>
              </g>
            </g>
            <path class="cls-20" d="M212.74,135.12c-.72,4.58-4.25,7.72-7.89,7s-6-5-5.31-9.58,4.25-7.72,7.89-7S213.46,130.54,212.74,135.12Z"/>
            <path class="cls-21" d="M204.05,129.45a1.89,1.89,0,0,1-2.26,1.75,2.43,2.43,0,0,1-1.74-2.65,1.88,1.88,0,0,1,2.25-1.76A2.45,2.45,0,0,1,204.05,129.45Z"/>
          </g>
          <path class="cls-22" d="M197.26,159.37a35.21,35.21,0,0,1-10.59,2.6,32.74,32.74,0,0,1-11-.77,23.51,23.51,0,0,1-9.85-5.11,21.9,21.9,0,0,1-6.14-9,30.2,30.2,0,0,0,7.12,7.83c.69.54,1.44,1,2.16,1.46s1.51.85,2.31,1.19a24.8,24.8,0,0,0,4.9,1.73,40.37,40.37,0,0,0,10.43,1.16A65.58,65.58,0,0,0,197.26,159.37Z"/>
        </g>
        <g>
          <g class="cls-23">
            <path class="cls-24" d="M113.15,224l-16.82,1.73c-1.59.17-1.88.64-2,1.17s0,.92,1.58.75l16.93.06c1.59-.16,2-2.31,2.12-2.85S114.74,223.86,113.15,224Z"/>
            <path class="cls-24" d="M94.06,229.26c-.08.54,0,1,1.58.77l16.87.81a2.76,2.76,0,0,0,2.2-2.38c.08-.52-.28-.9-1.88-.72l-16.92.38C94.32,228.3,94.13,228.74,94.06,229.26Z"/>
            <path class="cls-24" d="M80.67,333.24c-.14,1,1.24,1.7,2.92,1.54l11.55-1.07c1-.09,1.79-.58,1.88-1.15l15.5-101.28-17.19-1Z"/>
            <path class="cls-24" d="M164.6,157.69c-.53-.12-54.39,53-55.12,53.12l-1.93,1.24a8.71,8.71,0,0,0-1.54.6c-1.05.58-2.76,2.49-1.69,2.73l16.82,2a4.68,4.68,0,0,0,3.09-.48c1.18-.5,58.54-55.22,58.16-55.38Z"/>
            <path class="cls-24" d="M120.43,217.45l-14-1.25a7.41,7.41,0,0,0-1.33,0c-1,.1-2.93-.29-3.54.09-.88.54-1.72,2.52-.4,2.64l16.1.48a4.35,4.35,0,0,0,3-.65C121.12,218.23,121.75,217.57,120.43,217.45Z"/>
            <path class="cls-24" d="M116.3,219.59l-15.76.07a8.06,8.06,0,0,0-.85,0,2.22,2.22,0,0,0-1.81.88c-.57.56-.88,1.1.62,1.09l15.76-.06a4.08,4.08,0,0,0,3-.89C117.79,220.16,117.8,219.59,116.3,219.59Z"/>
            <path class="cls-24" d="M114.07,221.81,97.49,222.9l-.29,0h0c-1.46.14-1.76.59-2,1.11s-.31.94,1.25.84l16.58-1.1c1.56-.1,2.35-.61,2.65-1.15S115.63,221.7,114.07,221.81Z"/>
            <line class="cls-24" x1="110.86" y1="212.3" x2="125.64" y2="215.41"/>
            <path class="cls-25" d="M95.74,230.47,81.18,333.17s-.39,1.51,2.52,1.35,4.55-.42,4.55-.42L102.61,231Z"/>
            <path class="cls-25" d="M165.94,156.38l-57.49,55.41a26,26,0,0,1,3.26.32c2.49.68,4.62,1.13,4.62,1.13l1.18-1.59,55.21-52.21Z"/>
            <path class="cls-25" d="M105.55,212.56v0c.37.16.52.45-.32,1-1.74,1.11-.85,1.33-.85,1.33l5.63.85c2.7-.52,2.73-2.19,2.73-2.19Z"/>
            <path class="cls-25" d="M109.63,217.1s1,1.18-2.12,1.85l-6.37-.24s-1.22-.33.29-1.39,4.59-.56,4.59-.56Z"/>
            <path class="cls-25" d="M107.33,219.89s.88,1.09-1.6,1.49l-7.77,0s-.61-.06.2-.69l.7-.63a4.4,4.4,0,0,1,1.39-.21Z"/>
            <path class="cls-25" d="M104.21,222.71s1.05.67-.49,1.41l-7.89.53s-.64,0-.42-.45a1.56,1.56,0,0,1,.94-1C96.81,223.09,104.11,222.63,104.21,222.71Z"/>
            <path class="cls-25" d="M103.45,225.27s1,.8-.15,1.7c0,0-7.73.57-8.22.56s-.55-.29-.46-.55a1.29,1.29,0,0,1,1.07-1C96.45,225.89,103,225.2,103.45,225.27Z"/>
            <path class="cls-25" d="M103.3,228.23s-8,0-8.59.34-.49,1.19-.18,1.28a73.19,73.19,0,0,0,8.46-.31A.92.92,0,0,0,103.3,228.23Z"/>
          </g>
          <g class="cls-26">
            <path class="cls-27" d="M91.67,258.58,87,289.41h0L81,333.16s-.83,2.27,7.26,1.16c4.77-.43,7.82-.93,7.82-.93s.62-.34,1.14-3.7,2.16-14.06,2.16-14.06l1.57-10.21,2.14-13.91c1.1-5.93.55-5.56,1.65-11.48l.84-5.45,2.14-13.91Z"/>
          </g>
          <g>
            <path class="cls-10" d="M154.52,181.39s10.84,23.13,23.57,26.58c6.55,1.77,28.15-22.62,28.15-22.62s2.74-.64,2,2.75c-.46,2.05-18.32,21.13-28.17,23.54s-27.64-23.76-27.64-23.76l-3.16-.95S149.41,177.2,154.52,181.39Z"/>
            <path class="cls-10" d="M153.56,184.05s-7.37-12.12.63-11.44,5.61,12.94,5.61,12.94L157,188.1"/>
            <path class="cls-10" d="M155.12,190.74s-2.55,3-4.23,2.6c-3.74-.87-10.19-9.71-6.36-11.62s6.36,4.34,6.36,4.34"/>
            <path class="cls-10" d="M155.38,182.23s-3-8-7.28-5.62c-4.75,2.62,3.13,11.49,3.13,11.49"/>
          </g>
          <g>
            <path class="cls-10" d="M129.45,189s-2.5-.61-3,1.16a4.31,4.31,0,0,0,2.58,5.08c2.23.83,4.69-.21,3.3-3.39S129.45,189,129.45,189Z"/>
            <path class="cls-10" d="M130.58,184.44s-5.11,1.71-.9,6.72,6.07,2.07,6.45,1.37.63-2.74-1.63-4.66S130.58,184.44,130.58,184.44Z"/>
            <path class="cls-10" d="M137.52,183.84s2.25,1.88,0,4.41-7.58-2.61-7-4.85c.38-1.46,3.23-5,8-.74"/>
          </g>
        </g>
      </g>
    </g>
  </g>
</svg>
