<svg xmlns="http://www.w3.org/2000/svg" width="106.85" height="82" viewBox="0 0 106.85 82">
  <defs>
    <style>
      .cls-1 {
        isolation: isolate;
      }

      .cls-2 {
        fill: #fbf5b0;
        stroke-width: 0.25px;
      }

      .cls-2, .cls-4 {
        stroke: #832f0a;
        stroke-linecap: round;
        stroke-linejoin: round;
      }

      .cls-3 {
        fill: #3b2314;
        opacity: 0.24;
      }

      .cls-4 {
        fill: #fefdeb;
        stroke-width: 0.5px;
      }

      .cls-5 {
        mix-blend-mode: multiply;
      }

      .cls-6 {
        fill: #f2efda;
      }

      .cls-7 {
        fill: #381b0d;
      }

      .cls-8 {
        fill: #fff;
      }
    </style>
  </defs>
  <g class="cls-1">
    <g id="Layer_2" data-name="Layer 2">
      <g>
        <g>
          <g>
            <path class="cls-2" d="M61.17,39.07c2.8,9.62,10.67,15.5,17.57,13.14S89,40.13,86.19,30.52,75.53,15,68.62,17.38,58.38,29.45,61.17,39.07Z"/>
            <path class="cls-3" d="M61.93,44.93c2.43,8.37,9.89,13.28,16.64,11s10.27-11,7.84-19.35-9.89-13.28-16.65-11S59.49,36.55,61.93,44.93Z"/>
            <path class="cls-4" d="M62.07,41.16c2.43,8.38,9.89,13.29,16.65,11s10.26-11,7.83-19.35-9.89-13.29-16.65-11S59.64,32.79,62.07,41.16Z"/>
            <g class="cls-5">
              <path class="cls-6" d="M67.08,18.07c-4.63,3.52-6.57,11.28-4.33,19,2.63,9.06,10,14.6,16.55,12.38,4.49-1.54,7.37-6.36,7.87-12.17,0,7.06-3.15,13.15-8.43,15C71.84,54.57,64,48.69,61.17,39.07,58.59,30.2,61.24,21.26,67.08,18.07Z"/>
            </g>
          </g>
          <path class="cls-7" d="M67.63,38.49c.74,4.64,4.32,7.8,8,7.07s6.08-5.07,5.34-9.71-4.31-7.8-8-7.07S66.9,33.86,67.63,38.49Z"/>
          <path class="cls-8" d="M77,33.58a2,2,0,0,0,2.29,1.92A2.42,2.42,0,0,0,81,32.74a2,2,0,0,0-2.29-1.91A2.4,2.4,0,0,0,77,33.58Z"/>
        </g>
        <g>
          <g>
            <path class="cls-2" d="M20.49,47.93C23.24,57.44,31,63.27,37.83,61S48,49,45.23,39.52s-10.51-15.34-17.34-13S17.75,38.41,20.49,47.93Z"/>
            <path class="cls-3" d="M21.22,53.71C23.61,62,31,66.86,37.65,64.59s10.17-10.82,7.79-19.1S35.69,32.34,29,34.61,18.83,45.43,21.22,53.71Z"/>
            <path class="cls-4" d="M21.37,50c2.39,8.28,9.74,13.15,16.43,10.88S48,50.05,45.58,41.77,35.84,28.62,29.15,30.89,19,41.71,21.37,50Z"/>
            <g class="cls-5">
              <path class="cls-6" d="M26.38,27.18c-4.59,3.47-6.53,11.13-4.33,18.75,2.59,9,9.9,14.45,16.34,12.27,4.43-1.51,7.29-6.27,7.79-12,0,7-3.14,13-8.35,14.76-6.83,2.32-14.59-3.51-17.34-13C18,39.15,20.59,30.32,26.38,27.18Z"/>
            </g>
          </g>
          <path class="cls-7" d="M26.88,46.86c.71,4.58,4.25,7.72,7.89,7s6-5,5.3-9.59-4.24-7.72-7.89-7S26.16,42.28,26.88,46.86Z"/>
          <path class="cls-8" d="M35.57,41.19a1.88,1.88,0,0,0,2.26,1.75,2.43,2.43,0,0,0,1.74-2.65,1.89,1.89,0,0,0-2.25-1.76A2.44,2.44,0,0,0,35.57,41.19Z"/>
        </g>
      </g>
    </g>
  </g>
</svg>
