<svg xmlns="http://www.w3.org/2000/svg" width="106.85" height="82" viewBox="0 0 106.85 82">
  <defs>
    <style>
      .cls-1 {
        isolation: isolate;
      }

      .cls-2 {
        fill: #fbf5b0;
        stroke-width: 0.25px;
      }

      .cls-2, .cls-4 {
        stroke: #832f0a;
        stroke-linecap: round;
        stroke-linejoin: round;
      }

      .cls-3 {
        fill: #3b2314;
        opacity: 0.24;
      }

      .cls-4 {
        fill: #fefdeb;
        stroke-width: 0.5px;
      }

      .cls-5 {
        mix-blend-mode: multiply;
      }

      .cls-6 {
        fill: #f2efda;
      }

      .cls-7 {
        fill: #381b0d;
      }

      .cls-8 {
        fill: #fff;
      }

      .cls-9 {
        fill: #ffe743;
        stroke: #705b01;
        stroke-miterlimit: 10;
        stroke-width: 0.75px;
      }
    </style>
  </defs>
  <g class="cls-1">
    <g id="Layer_2" data-name="Layer 2">
      <g id="Bee_03">
        <g>
          <g>
            <g>
              <path class="cls-2" d="M61.17,39.07c2.8,9.62,10.66,15.5,17.57,13.14S89,40.13,86.18,30.52,75.52,15,68.61,17.38,58.37,29.45,61.17,39.07Z"/>
              <path class="cls-3" d="M61.92,44.93c2.44,8.37,9.89,13.28,16.65,11s10.26-11,7.83-19.35-9.89-13.28-16.64-11S59.49,36.55,61.92,44.93Z"/>
              <path class="cls-4" d="M62.06,41.16c2.44,8.38,9.89,13.29,16.65,11s10.27-11,7.83-19.35-9.88-13.29-16.64-11S59.63,32.79,62.06,41.16Z"/>
              <g class="cls-5">
                <path class="cls-6" d="M67.08,18.07c-4.63,3.52-6.58,11.28-4.34,19,2.64,9.06,10.05,14.6,16.56,12.38,4.48-1.54,7.36-6.36,7.86-12.17,0,7.06-3.15,13.15-8.42,15C71.83,54.57,64,48.69,61.17,39.07,58.59,30.2,61.23,21.26,67.08,18.07Z"/>
              </g>
            </g>
            <path class="cls-7" d="M67.63,38.49c.73,4.64,4.31,7.8,8,7.07s6.08-5.07,5.35-9.71-4.32-7.8-8-7.07S66.9,33.86,67.63,38.49Z"/>
            <path class="cls-8" d="M77,33.58A2,2,0,0,0,79.3,35.5a2.41,2.41,0,0,0,1.64-2.76,2,2,0,0,0-2.29-1.91A2.41,2.41,0,0,0,77,33.58Z"/>
          </g>
          <g>
            <g>
              <path class="cls-2" d="M20.48,47.93C23.23,57.44,31,63.27,37.82,61S48,49,45.23,39.52s-10.51-15.34-17.34-13S17.74,38.41,20.48,47.93Z"/>
              <path class="cls-3" d="M21.21,53.71C23.6,62,31,66.86,37.65,64.59s10.17-10.82,7.78-19.1S35.68,32.34,29,34.61,18.83,45.43,21.21,53.71Z"/>
              <path class="cls-4" d="M21.36,50c2.39,8.28,9.75,13.15,16.43,10.88S48,50.05,45.58,41.77,35.83,28.62,29.14,30.89,19,41.71,21.36,50Z"/>
              <g class="cls-5">
                <path class="cls-6" d="M26.37,27.18C21.78,30.65,19.85,38.31,22,45.93c2.59,9,9.9,14.45,16.34,12.27,4.43-1.51,7.29-6.27,7.8-12,0,7-3.14,13-8.36,14.76-6.83,2.32-14.59-3.51-17.34-13C18,39.15,20.58,30.32,26.37,27.18Z"/>
              </g>
            </g>
            <path class="cls-7" d="M26.87,46.86c.72,4.58,4.25,7.72,7.89,7s6-5,5.31-9.59-4.25-7.72-7.89-7S26.16,42.28,26.87,46.86Z"/>
            <path class="cls-8" d="M35.57,41.19a1.88,1.88,0,0,0,2.25,1.75,2.43,2.43,0,0,0,1.75-2.65,1.89,1.89,0,0,0-2.26-1.76A2.43,2.43,0,0,0,35.57,41.19Z"/>
          </g>
        </g>
        <g>
          <path class="cls-9" d="M61.39,39.67s13.88,3.1,25.94-4.25c0,0-2-15.19-15-14S60.36,39.05,61.39,39.67Z"/>
          <path class="cls-9" d="M20.39,48.67s13.88,3.1,25.94-4.25c0,0-2-15.19-15-14S19.36,48.05,20.39,48.67Z"/>
        </g>
      </g>
    </g>
  </g>
</svg>
