<svg xmlns="http://www.w3.org/2000/svg" width="434.57" height="385.29" viewBox="0 0 434.57 385.29">
  <defs>
    <style>
      .cls-1 {
        isolation: isolate;
      }

      .cls-10, .cls-12, .cls-2 {
        fill: #3b2314;
      }

      .cls-3 {
        fill: #5d3c2a;
      }

      .cls-4 {
        fill: #895b46;
        stroke: #231f20;
      }

      .cls-10, .cls-11, .cls-13, .cls-24, .cls-4 {
        stroke-miterlimit: 10;
      }

      .cls-4, .cls-6, .cls-8 {
        stroke-width: 0.75px;
      }

      .cls-13, .cls-4 {
        opacity: 0.3;
      }

      .cls-5 {
        fill: #b73e7b;
      }

      .cls-5, .cls-7 {
        stroke: #561d1d;
      }

      .cls-6 {
        fill: #e585b3;
      }

      .cls-6, .cls-8 {
        stroke: #ffe6e6;
      }

      .cls-7 {
        fill: #e4609c;
      }

      .cls-8 {
        fill: #f38fbb;
      }

      .cls-9 {
        fill: #231f20;
      }

      .cls-10 {
        stroke: #210f00;
      }

      .cls-10, .cls-17, .cls-24 {
        stroke-width: 0.5px;
      }

      .cls-11 {
        fill: #ffe743;
        stroke: #705b01;
      }

      .cls-12 {
        opacity: 0.24;
      }

      .cls-13 {
        fill: #e0aa24;
        stroke: #eac71c;
        stroke-width: 0.25px;
      }

      .cls-14 {
        fill: #754c28;
      }

      .cls-15 {
        fill: #fff19c;
      }

      .cls-16 {
        fill: #fbf5b0;
        stroke-width: 0.25px;
      }

      .cls-16, .cls-17 {
        stroke: #832f0a;
        stroke-linecap: round;
        stroke-linejoin: round;
      }

      .cls-17 {
        fill: #fefdeb;
      }

      .cls-18 {
        mix-blend-mode: multiply;
      }

      .cls-19 {
        fill: #f2efda;
      }

      .cls-20 {
        fill: #381b0d;
      }

      .cls-21 {
        fill: #fff;
      }

      .cls-22 {
        fill: #4c4218;
      }

      .cls-23 {
        opacity: 0.72;
      }

      .cls-24 {
        fill: #00aad4;
        stroke: #003875;
      }

      .cls-25 {
        fill: #14daef;
      }
    </style>
  </defs>
  <g class="cls-1">
    <g id="Layer_2" data-name="Layer 2">
      <g>
        <g>
          <path class="cls-2" d="M255.38,248.33s4.6,10,9,10.23,31.09-13.09,31.09-13.09l1.9,3.33-27.7,12.45s-7.57,4.24-12.89-3-7.49-10.12-7.49-10.12Z"/>
          <g>
            <path class="cls-2" d="M301.44,247.67l2.14,5.33s.74,5.12,6.64,17.55,20.24,12,19.39,1.48-8.32-29.69-19-32.25a7.11,7.11,0,0,0-3.36-1.69c-3.21-.62-6.76,1.22-9.07,4.61l-2.78,1.51,3.37,4.85,2.13-1.35Z"/>
            <path class="cls-3" d="M299.65,248.91,297,250.23l-3.55-5.18,2.78-1.51c2.32-3.39,5.86-5.23,9.07-4.61a7.19,7.19,0,0,1,3.37,1.69c10.64,2.57,18.12,21.71,19,32.25s-13.49,11-19.4-1.47-6.64-17.55-6.64-17.55l-1.92-4.79Z"/>
            <path class="cls-4" d="M315.06,255l-6.9,2.56s4.49,11.23,6.9,14.38,9.76,0,4.88-8.47Z"/>
            <path class="cls-4" d="M311.2,246.06a17.46,17.46,0,0,1-8,3.79l1.19,2.1s7.12-1.1,8.11-4.09L311.45,246Z"/>
          </g>
          <path class="cls-2" d="M297,250.23l-3.55-5.18S291.74,251.34,297,250.23Z"/>
        </g>
        <g>
          <g>
            <path class="cls-5" d="M248.5,135s8.47-15,22-14.75,12.78,18.89,8.28,25.42-17.06,25.43-39.9,34.73S243.78,153.6,248.5,135Z"/>
            <path class="cls-6" d="M248.88,136.13s7.85-13.88,20.39-13.66S281.11,140,277,146s-15.81,23.56-37,32.18S244.51,153.33,248.88,136.13Z"/>
          </g>
          <g>
            <path class="cls-5" d="M206.85,181.21s14.32,6.61,24.48-3.75,25.34-44.83,22.48-67.48c-2.5-19.84-15.2-28.68-24.45-24.67C218.57,90,219.18,112.62,219,126.16,218.64,151.39,206.85,181.21,206.85,181.21Z"/>
            <path class="cls-6" d="M210,175.7s13,5.83,22.22-3.51S255.4,131.91,253,111.64c-2.15-17.74-13.61-25.58-22-21.93-9.81,4.25-9.39,24.5-9.64,36.63C220.82,148.93,210,175.7,210,175.7Z"/>
          </g>
        </g>
        <g>
          <g>
            <path class="cls-7" d="M297.83,162.66s17-8.27,29.06.35-.19,25-8.31,28.13-31.23,12.38-57.66,6.59S282,176.51,297.83,162.66Z"/>
            <path class="cls-8" d="M297.5,163.88s15.71-7.66,26.92.33-.18,23.18-7.7,26.06-28.94,11.47-53.42,6.11S282.85,176.71,297.5,163.88Z"/>
          </g>
          <g>
            <path class="cls-7" d="M229.46,179.34s10.85,14,26.48,11,50.77-24.77,62.27-47c10.07-19.49,4.09-35.37-6.77-37.5-12.67-2.47-26.18,18.36-34.77,30.48C260.67,158.89,229.46,179.34,229.46,179.34Z"/>
            <path class="cls-8" d="M232.66,179.5s13.12,9.28,27.31,6.59,46-22,56.42-41.81c9.09-17.38,3.61-31.59-6.26-33.52-11.52-2.25-23.73,16.32-31.49,27.12C264.17,158,232.66,179.5,232.66,179.5Z"/>
          </g>
        </g>
        <g id="Bee_lift_wings__01" data-name="Bee lift wings _01">
          <g>
            <path class="cls-5" d="M252.39,132.92s8.46-15,22-14.75,12.78,18.89,8.28,25.42-17.06,25.43-39.9,34.73S247.66,151.48,252.39,132.92Z"/>
            <path class="cls-6" d="M252.77,134s7.84-13.87,20.38-13.66,11.84,17.5,7.68,23.55-15.81,23.56-37,32.18S248.39,151.21,252.77,134Z"/>
          </g>
          <g>
            <path class="cls-5" d="M210.73,179.1s14.33,6.61,24.49-3.76,25.33-44.82,22.48-67.48C255.19,88,242.5,79.18,233.25,83.19c-10.8,4.69-10.19,27.31-10.37,40.85C222.53,149.28,210.73,179.1,210.73,179.1Z"/>
            <path class="cls-6" d="M213.84,173.58s12.94,5.83,22.21-3.51,23.24-40.28,20.78-60.55c-2.15-17.74-13.6-25.58-22-21.93-9.81,4.26-9.4,24.5-9.65,36.63C224.71,146.81,213.84,173.58,213.84,173.58Z"/>
          </g>
        </g>
        <g id="Bee_right_Bee_wings_01" data-name="Bee right Bee wings_01">
          <g>
            <path class="cls-7" d="M301.72,160.54s17-8.27,29,.35-.19,25-8.31,28.13-31.23,12.38-57.66,6.59S285.91,174.39,301.72,160.54Z"/>
            <path class="cls-8" d="M301.38,161.77s15.72-7.67,26.92.32-.17,23.18-7.7,26.06-28.93,11.47-53.42,6.11S286.74,174.6,301.38,161.77Z"/>
          </g>
          <g>
            <path class="cls-7" d="M233.34,177.22s10.86,14.06,26.49,11,50.76-24.77,62.26-47c10.07-19.49,4.09-35.37-6.77-37.49-12.67-2.48-26.18,18.35-34.76,30.48C264.56,156.77,233.34,177.22,233.34,177.22Z"/>
            <path class="cls-8" d="M236.54,177.39s13.13,9.27,27.32,6.59,46-22,56.42-41.82c9.08-17.38,3.6-31.59-6.27-33.51-11.52-2.25-23.72,16.31-31.49,27.11C268.06,155.9,236.54,177.39,236.54,177.39Z"/>
          </g>
        </g>
        <g>
          <path class="cls-9" d="M175.73,99.32s-12.91-29.65-36.91-41.56l-1,2S159.84,70,173.72,101Z"/>
          <rect class="cls-9" x="127.83" y="44.91" width="9.68" height="21.13" rx="4.84" transform="translate(24.24 149.94) rotate(-63.76)"/>
        </g>
        <g>
          <path class="cls-9" d="M228.47,119.05s24-21.63,50.81-22.53l.08,2.29s-24.29.16-49.75,22.6Z"/>
          <rect class="cls-9" x="280.99" y="86.43" width="9.68" height="21.13" rx="4.84" transform="translate(197.69 385.68) rotate(-91.77)"/>
        </g>
        <g>
          <path class="cls-10" d="M143.09,202.34s-2.81,2.68-4.4,1.52c-2.38-1.74.25-4.23.25-4.23S142.34,201.3,143.09,202.34Z"/>
          <path class="cls-10" d="M144.06,196.17s11,12.63,31.15,16.16c0,0,6.25-1.34,11.6-15.71s6.27-14.81,6.27-14.81,3-.66,2.7,1.3-8.25,27.52-17.7,32.26c-8.25,4.14-36.6-13-37.62-16.09S142.7,194.67,144.06,196.17Z"/>
        </g>
        <path class="cls-10" d="M153,172.64s-3-3-6.24-1.65-1.61,6.13.78,8S158.07,179.64,153,172.64Z"/>
        <g>
          <path class="cls-11" d="M179.6,169.85s1.44,45.38,44.24,72.46c16.22,10.26,94.59,12.38,70.57-41.15C280.79,175.69,254.61,178,234,179.5c-4.45.32-11.64-2.93-14.62-5.67l-3.58-2.51Z"/>
          <path class="cls-2" d="M241.89,178.82s2.42,35.57-44.38,39.17c2.81,4.44,9.9,11.55,9.9,11.55s46.91-9.45,45.33-51h-5.28Z"/>
          <path class="cls-2" d="M271,181.2s4,50.74-55.06,55.78a44.26,44.26,0,0,0,7.4,5.24,29.62,29.62,0,0,0,8.49,3.45s47.64-8.67,49.9-59.31c-.23-.12-1.15-.79-2.37-1.49a29.54,29.54,0,0,0-3-1.58A30.12,30.12,0,0,0,271,181.2Z"/>
          <path class="cls-2" d="M223.11,176.27s-13.76,22.46-36,23.42a45.47,45.47,0,0,0,4.77,9.51s35.48-7.23,39.25-30l-3.6-1c-.36-.1-.82-.34-1.26-.45Z"/>
          <path class="cls-2" d="M295.53,203.49c1,1.88,8,15.66-.1,28.79S267.15,252.55,247.32,248C277.17,246,296.31,221,295.53,203.49Z"/>
        </g>
        <g>
          <path class="cls-2" d="M328,241.16l-28.49,13s-9.49,3.39-14.3-3.84c-4.36-5.5-9.06-12.53-11.38-16.07a2.72,2.72,0,0,0-3.73-.8h0a3.51,3.51,0,0,0-.63,5.38l15.68,17.46s5.91,5.49,18.86-.49C319.25,248.75,329.9,244,329.9,244Z"/>
          <g>
            <path class="cls-2" d="M335.23,242.6l2.34,5.84s.81,5.59,7.26,19.19S367,280.77,366,269.24s-9.1-32.46-20.74-35.27a7.94,7.94,0,0,0-3.68-1.85c-3.52-.67-7.39,1.34-9.93,5l-3,1.66,3.75,5.38,2.45-1.36Z"/>
            <path class="cls-3" d="M333.28,244l-2.87,1.44-3.88-5.66,3-1.65c2.53-3.71,6.4-5.72,9.92-5.05a7.94,7.94,0,0,1,3.68,1.85c11.64,2.81,19.82,23.75,20.75,35.27s-14.76,12-21.21-1.61-7.27-19.19-7.27-19.19l-1.72-4.31Z"/>
            <path class="cls-4" d="M350.13,250.58l-7.54,2.8s4.9,12.28,7.54,15.74,10.67,0,5.34-9.27Z"/>
            <path class="cls-4" d="M345.91,240.84A19.12,19.12,0,0,1,337.2,245l1.3,2.29s7.79-1.2,8.87-4.47l-1.19-2Z"/>
          </g>
          <path class="cls-2" d="M326.53,239.74s-.23,6.21,3.88,5.66Z"/>
        </g>
        <path class="cls-12" d="M201.51,184.5s1.27,15.56,22.59,28.07,65.75,15.91,75.07,3.17c0,0,3,16.54-15.26,27.36-17.6,10.39-50.8,3.62-57.65.61C217.88,240,200,224.36,191.7,209a110,110,0,0,1-9.91-24.67s-3.79-13.1,0-15.34c8.17-4.83,28.38-.58,34.44,2.65a30.5,30.5,0,0,1,4.19,2.93C220.71,174.84,209.09,183.53,201.51,184.5Z"/>
        <g>
          <path class="cls-11" d="M234.73,151.57c-4.75,23-27.79,27.52-52.8,28.44-5.93.22-11.63,1.19-17.59-5.43-10.85-12.06-27.23-17.89-22.7-42,4.59-24.38,29-39.88,55.71-34.44C230.55,104.93,239.75,127.28,234.73,151.57Z"/>
          <path class="cls-13" d="M229.07,117.27s10.67,63.93-68.9,52.72c1,.14,4.74,8.23,14.21,9.73a124.69,124.69,0,0,0,16.52-.56c6.7-.5,16.63-2.35,22.61-4.72a36.15,36.15,0,0,0,13.38-8.3C236.61,156.31,239.15,131.65,229.07,117.27Z"/>
          <ellipse class="cls-14" cx="180.1" cy="148.76" rx="3.21" ry="1.88" transform="translate(-11.13 282.92) rotate(-74.61)"/>
          <path class="cls-15" d="M210.24,102.74a32.46,32.46,0,0,1,4.78,2,54.35,54.35,0,0,1,4.6,2.93,27.53,27.53,0,0,1,5,5.71,37,37,0,0,1,2.49,3.84c.37.66.73,1.34,1.06,2s.64,1.38.9,2.1a30.66,30.66,0,0,1,2.08,8.82c0,.76.08,1.51.09,2.26s0,1.51-.1,2.26-.14,1.5-.27,2.23l-.19,1.11c-.07.37-.14.74-.23,1.08-.18.7-.34,1.4-.54,2.1-.1.35-.19.69-.3,1l-.35,1c-.23.69-.49,1.37-.75,2s-.57,1.34-.87,2a26.45,26.45,0,0,1-4.29,6.29c-1.89,2.28-5.82,5.69-8.12,6.32,2.84-5,5.78-9.2,7.05-14.3a78,78,0,0,0,1.47-7.7c.09-.66.14-1.26.22-1.88s.07-1.25.11-1.87,0-1.24,0-1.86-.06-1.24-.08-1.86a40.53,40.53,0,0,0-4.27-14.68,67.32,67.32,0,0,0-4.1-7.1C214.1,106.32,212.09,105.06,210.24,102.74Z"/>
          <path class="cls-9" d="M236.45,139.2a17.34,17.34,0,0,0-3.82,5.75,18.72,18.72,0,0,0,.05,13.38,40.87,40.87,0,0,0,3.77-19.13Z"/>
          <path class="cls-9" d="M147.68,118.38s4.94,9.67-6.74,17.36A51.37,51.37,0,0,1,145.16,123C146,121.29,146.83,119.77,147.68,118.38Z"/>
          <path class="cls-9" d="M183.1,96.76s9.65-2.41,23.71,3.34C207.87,103.52,183.39,103.59,183.1,96.76Z"/>
          <g>
            <g>
              <path class="cls-16" d="M178.61,127.33c-2.8,9.62-10.67,15.5-17.57,13.14s-10.25-12.08-7.45-21.7,10.67-15.5,17.57-13.14S181.4,117.71,178.61,127.33Z"/>
              <path class="cls-12" d="M177.85,133.18c-2.43,8.37-9.89,13.29-16.64,11s-10.27-11-7.84-19.35,9.89-13.29,16.65-11S180.29,124.81,177.85,133.18Z"/>
              <path class="cls-17" d="M177.71,129.42c-2.43,8.38-9.89,13.28-16.64,11s-10.27-11-7.84-19.34,9.89-13.29,16.65-11S180.14,121.05,177.71,129.42Z"/>
              <g class="cls-18">
                <path class="cls-19" d="M172.7,106.33c4.63,3.52,6.57,11.27,4.33,19-2.63,9.06-10.05,14.6-16.55,12.38-4.49-1.54-7.37-6.36-7.87-12.17,0,7.06,3.15,13.15,8.43,15,6.9,2.36,14.77-3.52,17.57-13.14C181.19,118.46,178.54,109.52,172.7,106.33Z"/>
              </g>
            </g>
            <path class="cls-20" d="M172.15,126.75c-.74,4.64-4.32,7.8-8,7.07s-6.08-5.08-5.34-9.71,4.31-7.8,8-7.07S172.88,122.12,172.15,126.75Z"/>
            <path class="cls-21" d="M162.76,121.84a2,2,0,0,1-2.29,1.92,2.43,2.43,0,0,1-1.64-2.76,2,2,0,0,1,2.29-1.91A2.4,2.4,0,0,1,162.76,121.84Z"/>
          </g>
          <g>
            <g>
              <path class="cls-16" d="M219.29,136.18c-2.75,9.52-10.51,15.35-17.34,13s-10.15-11.92-7.4-21.43,10.51-15.34,17.34-13S222,126.67,219.29,136.18Z"/>
              <path class="cls-12" d="M218.56,142c-2.39,8.28-9.75,13.15-16.43,10.88S192,142,194.34,133.75s9.75-13.16,16.43-10.89S221,133.69,218.56,142Z"/>
              <path class="cls-17" d="M218.41,138.25c-2.39,8.28-9.74,13.15-16.43,10.88s-10.17-10.82-7.78-19.1,9.74-13.15,16.43-10.88S220.8,130,218.41,138.25Z"/>
              <g class="cls-18">
                <path class="cls-19" d="M213.41,115.44c4.58,3.47,6.52,11.13,4.32,18.75-2.59,9-9.9,14.45-16.34,12.27-4.43-1.51-7.29-6.27-7.79-12,0,7,3.14,13,8.35,14.76,6.83,2.32,14.59-3.51,17.34-13C221.82,127.41,219.19,118.58,213.41,115.44Z"/>
              </g>
            </g>
            <path class="cls-20" d="M212.9,135.12c-.71,4.58-4.25,7.72-7.89,7s-6-5-5.3-9.58,4.24-7.72,7.89-7S213.62,130.54,212.9,135.12Z"/>
            <path class="cls-21" d="M204.21,129.45A1.88,1.88,0,0,1,202,131.2a2.43,2.43,0,0,1-1.74-2.65,1.88,1.88,0,0,1,2.25-1.76A2.44,2.44,0,0,1,204.21,129.45Z"/>
          </g>
          <path class="cls-22" d="M197.42,159.37a35.21,35.21,0,0,1-10.59,2.6,32.74,32.74,0,0,1-11-.77,23.51,23.51,0,0,1-9.85-5.11,21.9,21.9,0,0,1-6.14-9,30.38,30.38,0,0,0,7.12,7.83c.69.54,1.44,1,2.16,1.46s1.51.85,2.31,1.19a24.8,24.8,0,0,0,4.9,1.73,40.42,40.42,0,0,0,10.43,1.16A65.48,65.48,0,0,0,197.42,159.37Z"/>
        </g>
        <g>
          <g class="cls-23">
            <path class="cls-24" d="M113.31,224l-16.82,1.73c-1.59.17-1.88.64-2,1.17s0,.92,1.57.75l16.93.06c1.59-.16,2-2.31,2.12-2.85S114.9,223.86,113.31,224Z"/>
            <path class="cls-24" d="M94.22,229.26c-.07.54,0,1,1.58.77l16.87.81a2.77,2.77,0,0,0,2.21-2.38c.07-.52-.29-.9-1.89-.72l-16.92.38C94.48,228.3,94.29,228.74,94.22,229.26Z"/>
            <path class="cls-24" d="M80.83,333.24c-.13,1,1.24,1.7,2.93,1.54l11.54-1.07c1-.09,1.79-.58,1.88-1.15l15.5-101.28-17.19-1Z"/>
            <path class="cls-24" d="M164.76,157.69c-.53-.12-54.38,53-55.12,53.12l-1.93,1.24a8.71,8.71,0,0,0-1.54.6c-1,.58-2.76,2.49-1.69,2.73l16.82,2a4.68,4.68,0,0,0,3.09-.48c1.18-.5,58.55-55.22,58.17-55.38Z"/>
            <path class="cls-24" d="M120.59,217.45l-14-1.25a7.41,7.41,0,0,0-1.33,0c-1,.1-2.93-.29-3.53.09-.89.54-1.73,2.52-.41,2.64l16.1.48a4.35,4.35,0,0,0,3-.65C121.28,218.23,121.91,217.57,120.59,217.45Z"/>
            <path class="cls-24" d="M116.47,219.59l-15.77.07a8.19,8.19,0,0,0-.85,0,2.22,2.22,0,0,0-1.81.88c-.57.56-.87,1.1.62,1.09l15.76-.06a4.08,4.08,0,0,0,3-.89C118,220.16,118,219.59,116.47,219.59Z"/>
            <path class="cls-24" d="M114.23,221.81,97.65,222.9l-.29,0h0c-1.46.14-1.76.59-2,1.11s-.31.94,1.26.84l16.57-1.1c1.57-.1,2.35-.61,2.65-1.15S115.79,221.7,114.23,221.81Z"/>
            <line class="cls-24" x1="111.02" y1="212.3" x2="125.8" y2="215.41"/>
            <path class="cls-25" d="M95.9,230.47,81.34,333.17s-.39,1.51,2.53,1.35,4.54-.42,4.54-.42L102.77,231Z"/>
            <path class="cls-25" d="M166.1,156.38l-57.49,55.41a26,26,0,0,1,3.26.32c2.49.68,4.62,1.13,4.62,1.13l1.18-1.59,55.22-52.21Z"/>
            <path class="cls-25" d="M105.71,212.56v0c.37.16.52.45-.32,1-1.74,1.11-.85,1.33-.85,1.33l5.64.85c2.69-.52,2.72-2.19,2.72-2.19Z"/>
            <path class="cls-25" d="M109.79,217.1s1,1.18-2.12,1.85l-6.37-.24s-1.22-.33.29-1.39,4.59-.56,4.59-.56Z"/>
            <path class="cls-25" d="M107.49,219.89s.88,1.09-1.6,1.49l-7.77,0s-.6-.06.2-.69l.7-.63a4.4,4.4,0,0,1,1.39-.21Z"/>
            <path class="cls-25" d="M104.37,222.71s1,.67-.49,1.41l-7.89.53s-.64,0-.42-.45a1.59,1.59,0,0,1,.94-1C97,223.09,104.27,222.63,104.37,222.71Z"/>
            <path class="cls-25" d="M103.62,225.27s1,.8-.15,1.7c0,0-7.74.57-8.23.56s-.55-.29-.46-.55a1.29,1.29,0,0,1,1.07-1C96.61,225.89,103.2,225.2,103.62,225.27Z"/>
            <path class="cls-25" d="M103.47,228.23s-8,0-8.59.34-.5,1.19-.19,1.28a73.19,73.19,0,0,0,8.46-.31A.91.91,0,0,0,103.47,228.23Z"/>
          </g>
          <g>
            <path class="cls-10" d="M154.68,181.39s10.84,23.13,23.57,26.58c6.55,1.77,28.15-22.62,28.15-22.62s2.74-.64,2,2.75c-.47,2.05-18.33,21.13-28.18,23.54s-27.63-23.76-27.63-23.76l-3.17-.95S149.57,177.2,154.68,181.39Z"/>
            <path class="cls-10" d="M153.72,184.05s-7.37-12.12.63-11.44S160,185.55,160,185.55l-2.81,2.55"/>
            <path class="cls-10" d="M155.28,190.74s-2.55,3-4.23,2.6c-3.74-.87-10.19-9.71-6.36-11.62s6.36,4.34,6.36,4.34"/>
            <path class="cls-10" d="M155.55,182.23s-3-8-7.29-5.62c-4.74,2.62,3.13,11.49,3.13,11.49"/>
          </g>
          <g>
            <path class="cls-10" d="M129.61,189s-2.5-.61-3,1.16a4.31,4.31,0,0,0,2.58,5.08c2.24.83,4.69-.21,3.31-3.39S129.61,189,129.61,189Z"/>
            <path class="cls-10" d="M130.75,184.44s-5.12,1.71-.91,6.72,6.07,2.07,6.45,1.37.63-2.74-1.63-4.66S130.75,184.44,130.75,184.44Z"/>
            <path class="cls-10" d="M137.69,183.84s2.24,1.88,0,4.41-7.59-2.61-7-4.85c.38-1.46,3.23-5,8-.74"/>
          </g>
        </g>
      </g>
    </g>
  </g>
</svg>
