<svg id="Layer_1" data-name="Layer 1" xmlns="http://www.w3.org/2000/svg" width="1600" height="900" viewBox="0 0 1600 900">
  <defs>
    <style>
      .cls-1 {
        fill: #231e13;
      }

      .cls-2 {
        fill: #fffbf0;
      }

      .cls-3 {
        fill: #ff4848;
        stroke: #490404;
        stroke-miterlimit: 10;
        stroke-width: 2px;
      }
    </style>
  </defs>
  <g>
    <path class="cls-1" d="M537.34,401.9s-17.43-38.3-66.59-14.65c-36,17.31-18.21,64.33-1.3,72.39l-18.83,36.42s12.57,34.25,56,34.46c19.27.09,30.7-10.8,30.7-10.8l-.93,4.89,9.08,3.2,19.26-1.51s-3.5,43.62,43.85,47c43.7,3.13,48.38-43.43,48.38-43.43l29.39-3.9,6-4.16,2.17,3.14,36.33,5.55s1-7.13,3.12-11.82a26.55,26.55,0,0,0,22.11,13c15.6.52,38.49-12.49,44.47-58.78l-19.76-9,5.2-37.11-13.53-.69s3.12-18.73,8-26.7c0,0-28.93-3.2-54.93,2l-4,26.26-7,1.82S712,424.62,702,423l-3.64-61.91s-35.38,2.87-58.53,13.53c0,0,6.51,31.47,7,39.53l-28.61,8.33a30.76,30.76,0,0,0-27.83,3.38s.34-30.26-29-33.21C561.44,392.62,543.75,392.28,537.34,401.9Z"/>
    <path class="cls-2" d="M535.49,392.88S508.9,358,468.9,378.23c-35.63,18-18.21,64.33-1.3,72.39L448.77,487s12.57,34.25,56,34.46c19.27.09,30.7-10.79,30.7-10.79v9.1L562,517.73s-2.63,43.17,44.73,46.56c43.7,3.12,48.38-43.44,48.38-43.44l29.39-3.9,6-4.16,1.82,5.2,28.87,4.16s8.85-7.8,10.93-12.48a26.55,26.55,0,0,0,22.11,13c15.6.52,38.49-12.48,44.47-58.78l-19.76-9,5.2-37.11-13.53-.69s3.12-18.73,8-26.7c0,0-28.86-3.63-54.87,1.57l-4.09,26.69-7,1.82s-2.51-4.85-12.48-6.5l-3.64-61.9s-35.38,2.86-58.53,13.52c0,0,6.51,31.47,7,39.54l-28.61,8.32a30.78,30.78,0,0,0-27.84,3.38s.35-30.26-28.95-33.21C559.59,383.6,541.9,383.26,535.49,392.88Z"/>
    <path class="cls-1" d="M796.39,387.94s29.13,97.45,26,142.88h46.13l6.59-7.28,5.89,7.28,34.33-5.55s23.93,16.3,51.68-1l5.54,5.55,45.44-4.16V511.05l9.71-2.12s10.4,24.32,48.2,15.3l3.47,5.55,35.72-1.73,3.47-6.24s18,14.56,38.49,5.2,26.68-25.39,22.2-42.31c-2.52-9.48-6.16-13.35-6.16-13.35l13.52-7s-7.29-35.91-35.89-43.17c-16.38-4.16-27.57,1-27.57,1s-.3-47.23-2.73-58L1058.22,371l13.18,50.28s-19.59-5.37-31.73,9.71c0,0-13.18-14.91-36.59-4l-1.26-5.74s-17.85,1-38,2.88l1.61,3.72s-10.58-11.27-34-3.12l9.71-41.09s-21.24-5.44-54.08-11.84c-3-.58-7.48.76-8.86.91l-6.94,29.83-13-18.63S810.36,386.45,796.39,387.94Z"/>
    <path class="cls-2" d="M794.2,378.92s29.13,97.45,26,142.88h46.13l6.59-7.28,5.89,7.28,34.34-5.55s23.93,16.3,51.67-1l5.55,5.55,45.43-4.16V502l9.71-2.13s10.4,24.32,48.2,15.3l3.47,5.55L1112.9,519l3.47-6.24s18,14.56,38.49,5.2,26.69-25.39,22.2-42.31c-2.52-9.48-6.16-13.35-6.16-13.35l13.53-7s-7.3-35.91-35.9-43.17c-16.38-4.16-27.57,1-27.57,1s1-51.93-1.47-62.68L1056,361.93l13.17,50.29s-19.59-5.38-31.73,9.71c0,0-13.18-14.92-36.58-4l-2.26-10.23A174.9,174.9,0,0,1,962,415.34l1.22,3.46s-10.58-11.27-34-3.12L939,374.59A406,406,0,0,0,876,363.66l-6.94,29.83-14.18-26.8S804.77,378.75,794.2,378.92Z"/>
    <g>
      <path class="cls-3" d="M509.81,503c-16.36,0-30.91-6.55-41.05-21.26a262.56,262.56,0,0,1,16.35-23.39c7.53,14.56,25.51,21.42,31.56,14.56,4.91-5.4,0-14.07-15.69-21.26-14.89-6.87-30.09-14.88-30.58-33-.33-10.46,5.88-26.81,26.65-28.29s35.81,10.8,43.5,27a169.58,169.58,0,0,0-23.06,14.22c-2.45-7-8.67-12.26-14.39-12.26-4.58,0-6.87,3.27-6.38,7,.66,7,7.53,9.49,19.3,13.9,17.5,6.22,27.64,17.17,28,30.74C544.31,492.48,526.32,503,509.81,503Z"/>
      <path class="cls-3" d="M563.77,423.63c-7.52,2.46-15.54,0-17.17-6.21-1.64-5.72,1.31-11.61,7.85-14.39,7.52-3.43,16.19-1,18,5.56C573.91,414.31,571.94,420.85,563.77,423.63Zm-14.39,79.81c3.27-20.61,2-51-1-71.14a166.56,166.56,0,0,0,23.22-3.6c-1.31,18.32.16,54,2.45,71.47C574.07,500.17,562,501.47,549.38,503.44Z"/>
      <path class="cls-3" d="M647.33,506.22c-4.74,20.93-19.63,39.9-41.37,37.61-20.61-2.13-28.79-21.91-23.06-42.19a128.31,128.31,0,0,0,24.85,7.85c-1.3,5.23-.81,12.43,3.93,13.57,6.54,1.47,15.21-8.5,18.31-25.51.66-3.93,1.31-7.69,1.64-11.28-6.54,9.32-17,15.53-28.29,14.88-19.3-1.31-26.17-19.79-23.55-37.45,2.62-17,16.84-32.87,32.54-32.54a25,25,0,0,1,18.32,8.34c-.82-4.09-1.64-8.34-2.78-12.6,10.14-1.47,22.4-2.45,22.4-2.45C651.42,445.71,653.87,476.62,647.33,506.22Zm-40.07-48.57c-5.88,7.52-5.39,14.39-2.78,17.82,4.26,5.56,13.25,3.27,18.16-2.94,4.57-5.72,5.39-14.23,2.28-18.32C621.65,450.13,612.66,450.94,607.26,457.65Z"/>
      <path class="cls-3" d="M691.31,499.18c8.67-24.52,5.4-46.93-1.3-48.89-3.6-1-6.71,1-9.49,4.74,0,17.83.66,34.34,2.29,46.28a176.14,176.14,0,0,0-22.24,1.8c2.29-35.32.82-91.9-2.78-124.28,13.08-2.78,27.15-5.4,27.15-5.4-1.8,14.23-3.44,38.27-4.09,62.63a24.41,24.41,0,0,1,19.79-5.56c19.78,3.11,25.18,30.58,15.69,72.61A180.36,180.36,0,0,0,691.31,499.18Z"/>
      <path class="cls-3" d="M749.2,502.62c-19-3.44-22.4-30.42-19.29-58.87-3.77.16-6.06.33-6.06.33.33-7.36,1.31-14.23,1.31-14.23l6.87-.33A218.15,218.15,0,0,1,737.59,406c11.12.17,22.41.66,22.41.66a137.66,137.66,0,0,0-6.87,21.75l16.19-.82a115.87,115.87,0,0,0-1.8,18,167,167,0,0,0-17.66-1.8c-3.44,20.44-2.46,36.46,1.14,37.77,3.6,1.48,5.56-6.54,5.4-16,11,3.76,20.93,8.34,20.93,8.34C774.88,496.24,762.61,505.07,749.2,502.62Z"/>
      <path class="cls-3" d="M901.11,501.47a134.34,134.34,0,0,0-26.16,1.8s-.82-23.22-7.69-41.37c-8,21.1-10,43.66-10,43.66a116.46,116.46,0,0,0-24.69-1.63c-1.15-34.51-8-81.6-16.36-110.22a218.91,218.91,0,0,0,31.4-2.29,463.44,463.44,0,0,0,2.78,66.88c5.56-13.24,11.77-30.41,14.88-43,4.25,14.4,10.47,31.57,18.48,44.65,2.94-22.57,2.94-54.13,1.47-72.45,0,0,15.37.66,31.24,1.48C909.29,416,902.91,459.61,901.11,501.47Z"/>
      <path class="cls-3" d="M940.52,503c-9.65.65-25-4.09-29.11-23.88-4.74-22.73,6.38-49.88,26.82-50,14.72-.16,27.47,14.23,28.78,36.8C968.16,485.45,959,501.64,940.52,503Zm-2.62-49.72c-7,.66-11.28,12.1-9.48,22.41,1.31,8.66,5.89,12.26,10.3,11.77,6.54-.65,10-9.16,9.32-17.82C947.23,459.28,942.81,452.91,937.9,453.23Z"/>
      <path class="cls-3" d="M1003,465c.32-9.16-1.8-15.05-4.91-15.7-2.78-.49-5.72.49-8.18,4.74.66,16.84,2.29,35.16,4.26,47.1,0,0-12.27-.49-23.39,3.1,1.64-22.56,2.78-51.51-.49-73.75,0,0,11.61-.32,19.62-3.43-.16,2.62-.32,5.56-.32,8.67,6.21-5.73,14.88-8,21.42-6.87,10.79,1.8,16.35,12.43,16,30.74C1016.07,460.59,1003,465,1003,465Z"/>
      <path class="cls-3" d="M1097.34,501.31c-6-1-21.91,1.8-21.91,1.8a91.46,91.46,0,0,0,1-10,27.12,27.12,0,0,1-17.17,6.38c-15.87.33-28.13-10.95-28.46-29.92-.32-15.87,8.18-38.43,27.48-39.58a23.79,23.79,0,0,1,19.29,8.51c-.49-22.57-2.12-45.14-4.58-62,12.76-.66,27-4.25,27-4.25C1096.52,400.9,1093.41,468.28,1097.34,501.31Zm-30.42-47.75c-7.19-1.31-14.88,5.4-15.86,14.88-.65,7.52,4.91,12.59,11,12.1,6.37-.33,11.12-4.41,12.59-12.75C1075.92,460.59,1073.46,454.71,1066.92,453.56Z"/>
      <path class="cls-3" d="M1131.68,503c-11.62-.17-21.92-4.09-30.58-15.7a113,113,0,0,1,14.71-17c5.56,11.28,15.54,14.06,18,11.12,2-2.45.66-6.7-10-11.28-9.65-4.09-18.16-10.14-18.65-20.94-.49-8.66,4.91-20.11,22.08-20.93,18.48-.81,27.47,11.94,31.4,24.53a64.87,64.87,0,0,0-21.1,6.22c-4.9-12.76-12.92-12.27-12.26-7.2,2,13.74,34,11,33.52,32.05C1158.49,496.4,1146.39,503.11,1131.68,503Z"/>
    </g>
  </g>
</svg>
