<svg xmlns="http://www.w3.org/2000/svg" xmlns:xlink="http://www.w3.org/1999/xlink" width="1600" height="900" viewBox="0 0 1600 900">
  <defs>
    <style>
      .cls-1 {
        isolation: isolate;
      }

      .cls-10, .cls-12, .cls-2 {
        fill: #3b2314;
      }

      .cls-3 {
        fill: #5d3c2a;
      }

      .cls-4 {
        fill: #895b46;
        stroke: #231f20;
      }

      .cls-10, .cls-11, .cls-13, .cls-23, .cls-25, .cls-26, .cls-4, .cls-53, .cls-57 {
        stroke-miterlimit: 10;
      }

      .cls-4, .cls-6, .cls-8 {
        stroke-width: 0.75px;
      }

      .cls-13, .cls-4 {
        opacity: 0.3;
      }

      .cls-5 {
        fill: #b73e7b;
      }

      .cls-5, .cls-7 {
        stroke: #561d1d;
      }

      .cls-6 {
        fill: #e585b3;
      }

      .cls-6, .cls-8 {
        stroke: #ffe6e6;
      }

      .cls-7 {
        fill: #e4609c;
      }

      .cls-8 {
        fill: #f38fbb;
      }

      .cls-9 {
        fill: #231f20;
      }

      .cls-10 {
        stroke: #210f00;
      }

      .cls-10, .cls-23 {
        stroke-width: 0.5px;
      }

      .cls-11 {
        fill: #ffe743;
        stroke: #705b01;
      }

      .cls-12 {
        opacity: 0.24;
      }

      .cls-13 {
        fill: #e0aa24;
        stroke: #eac71c;
        stroke-width: 0.25px;
      }

      .cls-14 {
        fill: #754c28;
      }

      .cls-15 {
        fill: #fff19c;
      }

      .cls-16 {
        fill: #fbf5b0;
      }

      .cls-16, .cls-17 {
        stroke: #832f0a;
        stroke-linecap: round;
        stroke-linejoin: round;
        stroke-width: 0.25px;
      }

      .cls-17 {
        fill: #fefdeb;
      }

      .cls-18, .cls-33, .cls-34, .cls-44, .cls-45, .cls-46, .cls-47, .cls-48, .cls-49, .cls-50, .cls-55 {
        mix-blend-mode: multiply;
      }

      .cls-19 {
        fill: #f2efda;
      }

      .cls-20 {
        fill: #381b0d;
      }

      .cls-21 {
        fill: #fff;
      }

      .cls-22 {
        fill: #4c4218;
      }

      .cls-23 {
        fill: #00aad4;
        stroke: #003875;
      }

      .cls-24 {
        fill: #14daef;
      }

      .cls-25 {
        fill: #895800;
        stroke: #473300;
      }

      .cls-26, .cls-66 {
        fill: #fdbd2c;
      }

      .cls-26 {
        stroke: #47201f;
      }

      .cls-27 {
        fill: #f79420;
      }

      .cls-28, .cls-53 {
        fill: #221f1f;
      }

      .cls-29 {
        fill: url(#linear-gradient);
      }

      .cls-30 {
        fill: #f93a3a;
      }

      .cls-31 {
        fill: url(#linear-gradient-2);
      }

      .cls-32 {
        fill: #ffda22;
      }

      .cls-33 {
        fill: url(#linear-gradient-3);
      }

      .cls-34 {
        fill: url(#linear-gradient-4);
      }

      .cls-35 {
        fill: #ba2025;
      }

      .cls-36 {
        fill: #ffc10d;
      }

      .cls-37 {
        fill: url(#linear-gradient-5);
      }

      .cls-38 {
        fill: url(#linear-gradient-6);
      }

      .cls-39 {
        fill: url(#linear-gradient-7);
      }

      .cls-40 {
        fill: url(#linear-gradient-8);
      }

      .cls-41 {
        fill: url(#linear-gradient-9);
      }

      .cls-42 {
        fill: url(#linear-gradient-10);
      }

      .cls-43 {
        fill: url(#linear-gradient-11);
      }

      .cls-44 {
        fill: url(#linear-gradient-12);
      }

      .cls-45 {
        fill: url(#linear-gradient-13);
      }

      .cls-46 {
        fill: url(#linear-gradient-14);
      }

      .cls-47 {
        fill: url(#linear-gradient-15);
      }

      .cls-48 {
        fill: url(#linear-gradient-16);
      }

      .cls-49 {
        fill: url(#linear-gradient-17);
      }

      .cls-50 {
        fill: url(#linear-gradient-18);
      }

      .cls-51 {
        fill: #b71d29;
      }

      .cls-52 {
        fill: url(#linear-gradient-19);
      }

      .cls-53 {
        stroke: #eee8d2;
        stroke-width: 4px;
      }

      .cls-54 {
        fill: url(#linear-gradient-20);
      }

      .cls-55 {
        fill: url(#linear-gradient-21);
      }

      .cls-56 {
        fill: url(#linear-gradient-22);
      }

      .cls-57, .cls-59 {
        fill: #ece5e3;
      }

      .cls-57 {
        stroke: #5f4d45;
      }

      .cls-58 {
        fill: #0b1e34;
      }

      .cls-60 {
        fill: #83381b;
      }

      .cls-61 {
        fill: #550f0e;
      }

      .cls-62 {
        fill: #440a0a;
      }

      .cls-63 {
        fill: #e95f5e;
      }

      .cls-64 {
        fill: #f27373;
      }

      .cls-65 {
        fill: #f4c813;
      }

      .cls-67 {
        fill: #f3ba19;
      }
    </style>
    <linearGradient id="linear-gradient" x1="5701.24" y1="2991.51" x2="5840.51" y2="2991.51" gradientTransform="matrix(-0.03, 0.61, 0.69, 0.21, -590.39, -3779.95)" gradientUnits="userSpaceOnUse">
      <stop offset="0.01" stop-color="#e68625"/>
      <stop offset="1" stop-color="#f9a748"/>
    </linearGradient>
    <linearGradient id="linear-gradient-2" x1="5701.24" y1="2991.51" x2="5840.51" y2="2991.51" gradientTransform="matrix(-0.03, 0.61, 0.69, 0.21, -590.39, -3779.95)" gradientUnits="userSpaceOnUse">
      <stop offset="0.01" stop-color="#1f0c0d"/>
      <stop offset="1" stop-color="#565759"/>
    </linearGradient>
    <linearGradient id="linear-gradient-3" x1="5701.23" y1="3006.46" x2="5840.52" y2="3006.46" xlink:href="#linear-gradient"/>
    <linearGradient id="linear-gradient-4" x1="5701.24" y1="3026.07" x2="5840.51" y2="3026.07" xlink:href="#linear-gradient"/>
    <linearGradient id="linear-gradient-5" x1="-4995.51" y1="4643.02" x2="-5000.5" y2="4641.4" gradientTransform="matrix(-0.05, 0.82, 0.91, 0.27, -3256.38, 3099.61)" xlink:href="#linear-gradient"/>
    <linearGradient id="linear-gradient-6" x1="-4978.85" y1="4673.19" x2="-4991.9" y2="4668.95" gradientTransform="matrix(-0.05, 0.82, 0.91, 0.27, -3256.38, 3099.61)" xlink:href="#linear-gradient"/>
    <linearGradient id="linear-gradient-7" x1="-4983.48" y1="4698.29" x2="-4996.53" y2="4694.06" gradientTransform="matrix(-0.05, 0.82, 0.91, 0.27, -3256.38, 3099.61)" xlink:href="#linear-gradient"/>
    <linearGradient id="linear-gradient-8" x1="-4965.77" y1="4697.2" x2="-4972.12" y2="4695.14" gradientTransform="matrix(-0.05, 0.82, 0.91, 0.27, -3256.38, 3099.61)" xlink:href="#linear-gradient"/>
    <linearGradient id="linear-gradient-9" x1="5029.05" y1="2113.68" x2="5023.73" y2="2111.96" gradientTransform="matrix(-0.05, 0.82, 0.91, 0.27, -441.96, -4381.73)" xlink:href="#linear-gradient"/>
    <linearGradient id="linear-gradient-10" x1="5047.84" y1="2107.15" x2="5042.52" y2="2105.43" gradientTransform="matrix(-0.05, 0.82, 0.91, 0.27, -441.96, -4381.73)" xlink:href="#linear-gradient"/>
    <linearGradient id="linear-gradient-11" x1="5068.51" y1="2099.61" x2="5064.44" y2="2098.29" gradientTransform="matrix(-0.05, 0.82, 0.91, 0.27, -441.96, -4381.73)" xlink:href="#linear-gradient"/>
    <linearGradient id="linear-gradient-12" x1="5112.08" y1="2072.91" x2="5008.58" y2="2039.31" gradientTransform="matrix(-0.05, 0.82, 0.91, 0.27, -441.96, -4381.73)" xlink:href="#linear-gradient"/>
    <linearGradient id="linear-gradient-13" x1="5116.85" y1="2058.86" x2="5012.89" y2="2025.11" gradientTransform="matrix(-0.05, 0.82, 0.91, 0.27, -441.96, -4381.73)" xlink:href="#linear-gradient"/>
    <linearGradient id="linear-gradient-14" x1="5112.5" y1="2071.59" x2="5009.01" y2="2038" gradientTransform="matrix(-0.05, 0.82, 0.91, 0.27, -441.96, -4381.73)" xlink:href="#linear-gradient"/>
    <linearGradient id="linear-gradient-15" x1="5109.29" y1="2081.5" x2="5005.8" y2="2047.9" gradientTransform="matrix(-0.05, 0.82, 0.91, 0.27, -441.96, -4381.73)" xlink:href="#linear-gradient"/>
    <linearGradient id="linear-gradient-16" x1="5103.71" y1="2098.69" x2="5000.21" y2="2065.09" gradientTransform="matrix(-0.05, 0.82, 0.91, 0.27, -441.96, -4381.73)" xlink:href="#linear-gradient"/>
    <linearGradient id="linear-gradient-17" x1="5109.58" y1="2080.6" x2="5006.09" y2="2047.01" gradientTransform="matrix(-0.05, 0.82, 0.91, 0.27, -441.96, -4381.73)" xlink:href="#linear-gradient"/>
    <linearGradient id="linear-gradient-18" x1="5115" y1="2063.9" x2="5011.51" y2="2030.3" gradientTransform="matrix(-0.05, 0.82, 0.91, 0.27, -441.96, -4381.73)" xlink:href="#linear-gradient"/>
    <linearGradient id="linear-gradient-19" x1="-4260.02" y1="5584.45" x2="-4264.95" y2="5582.85" gradientTransform="matrix(-0.03, 0.61, 0.69, 0.21, -2717.49, 1803.76)" xlink:href="#linear-gradient"/>
    <linearGradient id="linear-gradient-20" x1="4206.14" y1="3866.3" x2="4345.42" y2="3866.3" gradientTransform="matrix(-0.29, 0.49, 0.62, 0.42, 88.66, -3348.17)" xlink:href="#linear-gradient"/>
    <linearGradient id="linear-gradient-21" x1="3999.56" y1="2721.48" x2="3895.59" y2="2687.73" gradientTransform="matrix(-0.39, 0.66, 0.82, 0.56, 488.97, -3788.3)" xlink:href="#linear-gradient"/>
    <linearGradient id="linear-gradient-22" x1="-6073.53" y1="5396.02" x2="-6075.27" y2="5395.45" gradientTransform="matrix(-0.39, 0.66, 0.82, 0.56, -5485.87, 1324.08)" xlink:href="#linear-gradient"/>
  </defs>
  <g class="cls-1">
    <g id="Layer_1" data-name="Layer 1">
      <g>
        <g>
          <g>
            <path class="cls-2" d="M360.94,720.56s-2.61,5.65-5.08,5.79-17.6-7.41-17.6-7.41l-1.08,1.88,15.68,7a5.62,5.62,0,0,0,7.31-1.71c3-4.11,4.24-5.73,4.24-5.73Z"/>
            <g>
              <path class="cls-2" d="M334.85,720.18l-1.21,3s-.42,2.9-3.76,9.94-11.46,6.81-11,.84,4.72-16.82,10.75-18.27a4.15,4.15,0,0,1,1.9-1,5.34,5.34,0,0,1,5.14,2.62l1.58.85L336.34,721l-1.2-.77Z"/>
              <path class="cls-3" d="M335.86,720.88l1.49.75,2-2.93-1.58-.86a5.3,5.3,0,0,0-5.14-2.61,4.06,4.06,0,0,0-1.9,1c-6,1.45-10.27,12.3-10.74,18.26s7.64,6.21,11-.83,3.76-9.94,3.76-9.94l1.09-2.71Z"/>
              <path class="cls-4" d="M327.14,724.32l3.9,1.45s-2.54,6.35-3.9,8.14-5.53,0-2.77-4.8Z"/>
              <path class="cls-4" d="M329.32,719.27a9.9,9.9,0,0,0,4.51,2.15l-.67,1.19s-4-.63-4.6-2.32l.62-1Z"/>
            </g>
            <path class="cls-2" d="M337.35,721.63l2-2.93S340.34,722.26,337.35,721.63Z"/>
          </g>
          <g>
            <g>
              <path class="cls-5" d="M364.83,656.39S360,647.91,352.37,648s-7.24,10.7-4.69,14.4,9.66,14.4,22.6,19.67S367.5,666.91,364.83,656.39Z"/>
              <path class="cls-6" d="M364.62,657s-4.45-7.86-11.55-7.74-6.71,9.92-4.35,13.34,9,13.35,20.94,18.23S367.09,666.75,364.62,657Z"/>
            </g>
            <g>
              <path class="cls-5" d="M388.42,682.54s-8.11,3.75-13.87-2.12S360.21,655,361.82,642.2c1.42-11.23,8.61-16.24,13.85-14,6.11,2.65,5.77,15.47,5.87,23.13C381.74,665.66,388.42,682.54,388.42,682.54Z"/>
              <path class="cls-6" d="M386.66,679.42s-7.33,3.3-12.58-2-13.16-22.81-11.77-34.29c1.22-10,7.71-14.49,12.47-12.42,5.56,2.41,5.32,13.88,5.46,20.75C380.51,664.26,386.66,679.42,386.66,679.42Z"/>
            </g>
          </g>
          <g>
            <g>
              <path class="cls-7" d="M336.89,672s-9.6-4.69-16.45.2.1,14.16,4.7,15.93,17.69,7,32.66,3.73S345.85,679.88,336.89,672Z"/>
              <path class="cls-8" d="M337.08,672.73s-8.9-4.34-15.24.18.09,13.13,4.36,14.76,16.38,6.5,30.25,3.46S345.38,680,337.08,672.73Z"/>
            </g>
            <g>
              <path class="cls-7" d="M375.61,681.48s-6.14,8-15,6.23-28.75-14-35.27-26.63c-5.7-11-2.31-20,3.84-21.24,7.17-1.4,14.82,10.4,19.69,17.26C357.94,669.9,375.61,681.48,375.61,681.48Z"/>
              <path class="cls-8" d="M373.8,681.58s-7.43,5.25-15.47,3.73-26.07-12.44-31.95-23.68c-5.15-9.84-2-17.89,3.55-19,6.52-1.28,13.44,9.24,17.83,15.35C356,669.41,373.8,681.58,373.8,681.58Z"/>
            </g>
          </g>
          <g>
            <path class="cls-9" d="M406,636.16s7.32-16.78,20.91-23.53l.58,1.15s-12.49,5.79-20.34,23.33Z"/>
            <rect class="cls-9" x="427.69" y="605.35" width="5.48" height="11.97" rx="2.7" transform="translate(72.45 1267.73) rotate(-116.24)"/>
          </g>
          <g>
            <path class="cls-9" d="M376.17,647.34s-13.6-12.25-28.77-12.76l0,1.29s13.76.1,28.18,12.81Z"/>
            <rect class="cls-9" x="340.95" y="628.87" width="5.48" height="11.97" rx="2.7" transform="translate(-301.45 958.8) rotate(-88.23)"/>
          </g>
          <g>
            <path class="cls-10" d="M424.53,694.51s1.59,1.52,2.49.86c1.35-1-.14-2.4-.14-2.4A9.72,9.72,0,0,0,424.53,694.51Z"/>
            <path class="cls-10" d="M424,691a32.16,32.16,0,0,1-17.64,9.16s-3.54-.76-6.57-8.9-3.55-8.39-3.55-8.39-1.72-.37-1.53.74,4.67,15.59,10,18.27c4.67,2.34,20.73-7.35,21.31-9.11S424.75,690.16,424,691Z"/>
          </g>
          <g>
            <path class="cls-11" d="M403.86,676.11a54.19,54.19,0,0,1-25.06,41c-9.19,5.81-53.58,7-40-23.31,7.72-14.42,22.54-13.11,34.24-12.26,2.52.18,6.59-1.67,8.28-3.22l2-1.42Z"/>
            <path class="cls-2" d="M368.58,681.19s-1.38,20.15,25.13,22.19a53.82,53.82,0,0,1-5.61,6.53s-26.57-5.35-25.67-28.86h3Z"/>
            <path class="cls-2" d="M352.09,682.54s-2.28,28.73,31.19,31.59a25.27,25.27,0,0,1-4.19,3,17,17,0,0,1-4.81,2s-27-4.91-28.26-33.59c.13-.07.65-.45,1.34-.85a18.28,18.28,0,0,1,1.71-.89A16.7,16.7,0,0,1,352.09,682.54Z"/>
            <path class="cls-2" d="M379.21,679.74S387,692.46,399.62,693a26.15,26.15,0,0,1-2.7,5.38s-20.1-4.09-22.24-17l2.05-.57c.2-.06.46-.19.71-.26Z"/>
            <path class="cls-2" d="M338.2,695.16c-.58,1.06-4.54,8.87.05,16.31s16,11.48,27.25,8.91C348.6,719.23,337.76,705.09,338.2,695.16Z"/>
          </g>
          <g>
            <path class="cls-2" d="M319.84,716.5,336,723.86s5.37,1.92,8.1-2.18c2.47-3.11,5.13-7.09,6.44-9.1a1.54,1.54,0,0,1,2.12-.45h0a2,2,0,0,1,.35,3l-8.88,9.9s-3.35,3.1-10.68-.28c-8.66-4-14.69-6.67-14.69-6.67Z"/>
            <g>
              <path class="cls-2" d="M315.71,717.31l-1.32,3.31s-.46,3.16-4.12,10.87-12.53,7.44-12,.91,5.16-18.39,11.75-20a4.52,4.52,0,0,1,2.09-1c2-.38,4.18.75,5.62,2.85l1.72.94-2.13,3-1.39-.76Z"/>
              <path class="cls-3" d="M316.82,718.08l1.62.82,2.2-3.21-1.72-.94c-1.44-2.09-3.63-3.23-5.62-2.85a4.35,4.35,0,0,0-2.08,1.05c-6.6,1.58-11.23,13.44-11.75,20s8.35,6.79,12-.91,4.11-10.87,4.11-10.87l1-2.44Z"/>
              <path class="cls-4" d="M307.28,721.83l4.27,1.59s-2.78,7-4.27,8.91-6,0-3-5.25Z"/>
              <path class="cls-4" d="M309.66,716.32a10.78,10.78,0,0,0,4.94,2.34l-.74,1.3s-4.41-.68-5-2.53l.67-1.14Z"/>
            </g>
            <path class="cls-2" d="M320.64,715.69s.13,3.52-2.2,3.21Z"/>
          </g>
          <path class="cls-12" d="M391.45,684.41s-.72,8.81-12.8,15.89-37.24,9-42.51,1.8c0,0-1.73,9.36,8.64,15.49,10,5.89,28.77,2,32.65.35,4.74-2.09,14.86-11,19.57-19.67a62.18,62.18,0,0,0,5.62-14s2.14-7.42,0-8.69c-4.63-2.73-16.08-.33-19.51,1.5a17.55,17.55,0,0,0-2.37,1.66C380.57,678.93,387.15,683.85,391.45,684.41Z"/>
          <g>
            <path class="cls-11" d="M372.63,665.76c3.41,13.62,17.08,16.8,32.19,13.73s23.94-10.85,20.53-24.48-16.44-22.58-31.55-19.5C375,639.34,369.22,652.13,372.63,665.76Z"/>
            <path class="cls-13" d="M375.47,646.33s-5.68,36.21,39.39,29.86c-.54.08,2.45-.08-10,3.3a39.78,39.78,0,0,1-8.55,1.23,28.1,28.1,0,0,1-12.43-2.18,26.45,26.45,0,0,1-6.77-4.53C371.46,668.54,369.36,654.5,375.47,646.33Z"/>
            <ellipse class="cls-14" cx="403.57" cy="664.17" rx="1.07" ry="1.82" transform="translate(-161.81 130.94) rotate(-15.39)"/>
            <path class="cls-15" d="M386.66,637.89a21.13,21.13,0,0,0-2.73,1.25,29.23,29.23,0,0,0-2.48,1.61,17.34,17.34,0,0,0-3.09,3.37,19.18,19.18,0,0,0-1.41,2.17c-.21.38-.42.76-.6,1.15s-.37.78-.52,1.18a17.68,17.68,0,0,0-1.17,5c0,.43,0,.86-.05,1.28s0,.86.05,1.28.08.85.16,1.26l.11.63a5.49,5.49,0,0,0,.12.61c.1.4.2.8.31,1.19.06.2.11.4.17.59l.2.58c.13.39.28.78.42,1.16l.49,1.14a15.49,15.49,0,0,0,2.43,3.56c1.07,1.29,3.3,3.22,4.6,3.58-1.6-2.81-3.27-5.21-4-8.1a43.49,43.49,0,0,1-.83-4.36c-.05-.37-.08-.71-.12-1.07s0-.7-.07-1.05,0-.71,0-1.06,0-.7,0-1.05a23.14,23.14,0,0,1,2.42-8.32,27.18,27.18,0,0,1,2-3.29C384,640.86,385.61,639.21,386.66,637.89Z"/>
            <path class="cls-9" d="M371.66,658.75a9.86,9.86,0,0,1,2.16,3.26,10.63,10.63,0,0,1,0,7.58,23.5,23.5,0,0,1-1.87-6.11A23.13,23.13,0,0,1,371.66,658.75Z"/>
            <path class="cls-9" d="M421.93,647s-2.8,5.47,3.82,9.83a29.43,29.43,0,0,0-2.39-7.24A28.15,28.15,0,0,0,421.93,647Z"/>
            <path class="cls-9" d="M401.87,634.72s-5.46-1.37-13.43,1.89C387.84,638.54,401.71,638.58,401.87,634.72Z"/>
            <g>
              <g>
                <path class="cls-16" d="M404.42,652c1.58,5.45,6,8.78,9.95,7.44s5.8-6.84,4.21-12.29-6-8.78-9.95-7.44S402.83,646.58,404.42,652Z"/>
                <path class="cls-12" d="M404.84,655.34c1.38,4.74,5.6,7.53,9.43,6.22s5.82-6.22,4.44-11-5.6-7.52-9.43-6.21S403.46,650.6,404.84,655.34Z"/>
                <path class="cls-17" d="M404.92,653.21c1.38,4.75,5.6,7.53,9.43,6.22s5.82-6.22,4.44-11-5.6-7.52-9.43-6.21S403.55,648.47,404.92,653.21Z"/>
                <g class="cls-18">
                  <path class="cls-19" d="M407.76,640.13c-2.62,2-3.72,6.39-2.45,10.75,1.49,5.14,5.69,8.27,9.37,7,2.54-.87,4.18-3.6,4.46-6.89,0,4-1.79,7.45-4.77,8.47-3.91,1.34-8.37-2-9.95-7.44C403,647,404.45,641.94,407.76,640.13Z"/>
                </g>
              </g>
              <path class="cls-20" d="M408.08,651.7c.41,2.62,2.44,4.42,4.53,4s3.44-2.87,3-5.5-2.44-4.41-4.52-4S407.66,649.08,408.08,651.7Z"/>
              <path class="cls-21" d="M413.39,648.92a1.14,1.14,0,0,0,1.3,1.08,1.36,1.36,0,0,0,.92-1.56,1.14,1.14,0,0,0-1.29-1.08A1.37,1.37,0,0,0,413.39,648.92Z"/>
            </g>
            <g>
              <g>
                <path class="cls-16" d="M381.37,657c1.56,5.39,6,8.69,9.82,7.38s5.75-6.75,4.2-12.14-5.95-8.69-9.82-7.37S379.82,651.65,381.37,657Z"/>
                <path class="cls-12" d="M381.79,660.32c1.35,4.69,5.52,7.45,9.31,6.16s5.76-6.13,4.4-10.82-5.52-7.45-9.3-6.16S380.44,655.63,381.79,660.32Z"/>
                <path class="cls-17" d="M381.87,658.21c1.36,4.69,5.52,7.45,9.31,6.17s5.76-6.13,4.41-10.82-5.52-7.45-9.31-6.17S380.52,653.52,381.87,658.21Z"/>
                <g class="cls-18">
                  <path class="cls-19" d="M384.71,645.29c-2.6,2-3.7,6.31-2.45,10.62,1.46,5.08,5.61,8.19,9.25,7,2.51-.85,4.13-3.55,4.42-6.8,0,4-1.78,7.35-4.74,8.36-3.86,1.31-8.26-2-9.82-7.38C379.94,652.07,381.43,647.07,384.71,645.29Z"/>
                </g>
              </g>
              <path class="cls-20" d="M385,656.44c.41,2.59,2.41,4.37,4.47,4s3.41-2.84,3-5.43-2.41-4.37-4.47-4S384.59,653.84,385,656.44Z"/>
              <path class="cls-21" d="M389.92,653.23a1.06,1.06,0,0,0,1.27,1,1.37,1.37,0,0,0,1-1.5,1.07,1.07,0,0,0-1.27-1A1.38,1.38,0,0,0,389.92,653.23Z"/>
            </g>
            <path class="cls-22" d="M393.76,670.17a54.27,54.27,0,0,0,6.06.25,26.9,26.9,0,0,0,5.78-.73,16.1,16.1,0,0,0,5.19-2.34l1.17-.86,1.06-1c.17-.17.38-.33.54-.52l.47-.58q.48-.58,1-1.17c-.17.48-.35,1-.55,1.46-.09.25-.2.49-.3.73a6.82,6.82,0,0,1-.41.68l-.89,1.33c-.36.4-.75.77-1.13,1.16a13.05,13.05,0,0,1-5.67,3.07,17.75,17.75,0,0,1-6.36.34A17,17,0,0,1,393.76,670.17Z"/>
          </g>
        </g>
        <g>
          <g>
            <path class="cls-23" d="M401.94,671.39l31.81,31.27,4.65-2.53-30.11-30.52Zm36.57,28.69a4.23,4.23,0,0,0-1.11.59l-3.53,2.05c-.12.11,0,.48.38.7s.67.31,1,.11l4.47-2c.34-.19,0-.71-.36-1a3.51,3.51,0,0,0-.5-.36Zm1.87,2a1,1,0,0,0-.43.06l-4.47,1.44c-.42.13-.19.47.1.73a.9.9,0,0,0,1,.21l4.73-1.19c.42-.14.25-.71-.05-1a1.35,1.35,0,0,0-.87-.28Zm1.83,1.69a1.29,1.29,0,0,0-.28,0l-5.06.79c-.48.07-.46.4-.26.68a.91.91,0,0,0,1,.35l5.06-.79c.48-.07.36-.36.16-.64s-.21-.39-.6-.4Zm.89,1.68H443l-5.35.25c-.51,0-.59.25-.48.54a.81.81,0,0,0,.88.52l5.35-.25c.51,0,.49-.24.38-.54a.65.65,0,0,0-.69-.52ZM438,706.87c-.52,0-.61.28-.56.58s.24.47.75.48l5.45.1c.52,0,.54-.21.48-.51s-.16-.54-.67-.55Zm.19,1.22c-.52,0-.66.21-.62.5s.28.93.79.94l5.43-.19c.52,0,.53-.22.49-.51s-.11-.53-.63-.55Zm.17,1.44,8,57.7c0,.32,8.67,49.73,9,49.73h2.71c.54,0,3-.23,2.89-.77L443.92,709.44Zm5.54-.09"/>
            <polygon class="cls-24" points="408.26 669.73 438.17 700.08 436.75 700.86 406.03 670.4 408.26 669.73"/>
            <path class="cls-24" d="M449.27,767.64l-7.75-58,2.27,0,17,106.59a5.05,5.05,0,0,1-1.88.48"/>
            <path class="cls-24" d="M437,701.09a1.21,1.21,0,0,0,.94,1.1l1.79-.77s.27-.17-.32-.71-.9-.47-.9-.47Z"/>
            <path class="cls-24" d="M438.49,702.71s-.27.72.74.93l2-.47s.38-.24-.14-.77-1.49-.07-1.49-.07Z"/>
            <path class="cls-24" d="M439.76,704.23s-.25.66.56.76l2.49-.38s.2-.07-.08-.38l-.25-.33a.9.9,0,0,0-.45,0Z"/>
            <path class="cls-24" d="M440.84,705.66a.53.53,0,0,0,.2.77l2.55-.11s.21,0,.12-.28-.17-.45-.33-.5A18.73,18.73,0,0,0,440.84,705.66Z"/>
            <path class="cls-24" d="M441.16,707.06a.54.54,0,0,0,0,.79s2.55.08,2.71,0,.17-.19.13-.34-.13-.48-.37-.5S441.3,707,441.16,707.06Z"/>
            <path class="cls-24" d="M441.33,708.32a18,18,0,0,1,2.74.15.68.68,0,0,1,.09.71,14.45,14.45,0,0,1-2.73,0S440.92,708.7,441.33,708.32Z"/>
          </g>
          <g>
            <path class="cls-10" d="M417.24,677.33s1.72-1.7,3.54-.93.91,3.47-.45,4.53S414.36,681.3,417.24,677.33Z"/>
            <g>
              <path class="cls-10" d="M416.28,682.29s-6.14,13.1-13.35,15.05c-3.71,1-15.94-12.81-15.94-12.81s-1.55-.36-1.12,1.56c.26,1.16,10.38,12,16,13.33S417.48,686,417.48,686l1.79-.53S419.17,679.92,416.28,682.29Z"/>
              <path class="cls-10" d="M416.82,683.8s4.18-6.87-.35-6.48-3.18,7.33-3.18,7.33l1.59,1.44"/>
              <path class="cls-10" d="M415.94,687.59s1.44,1.68,2.39,1.47c2.12-.49,5.78-5.5,3.61-6.58s-3.61,2.45-3.61,2.45"/>
              <path class="cls-10" d="M415.79,682.77s1.71-4.51,4.12-3.19c2.69,1.49-1.77,6.51-1.77,6.51"/>
            </g>
          </g>
          <g>
            <path class="cls-10" d="M429.37,689.29s1.42-.35,1.7.65a2.44,2.44,0,0,1-1.47,2.88c-1.26.47-2.65-.12-1.87-1.92S429.37,689.29,429.37,689.29Z"/>
            <path class="cls-10" d="M428.73,686.68s2.9,1,.51,3.8-3.43,1.18-3.65.78-.36-1.55.92-2.64S428.73,686.68,428.73,686.68Z"/>
            <path class="cls-10" d="M424.8,686.34a1.66,1.66,0,0,0,0,2.5c1.27,1.43,4.3-1.48,4-2.75-.21-.83-1.83-2.81-4.54-.42"/>
            <path class="cls-10" d="M421.37,690.48a6.89,6.89,0,0,1,2.86,0c.8.36,1.87,1.32-1.43,2.49s-3.25-2.34-2.38-3.3"/>
          </g>
        </g>
      </g>
      <g>
        <path class="cls-25" d="M1191.28,397.74s.14-2.74-2.27-2.22-7.25,14.22-7.25,14.22l-8.74.3a9.17,9.17,0,0,0-5.74,4.74c-3.33,6.76-.6,6.13,5-.51.3-.36,1,2.68,1.34,2.29s.14-4.08.42-4.44l7.61,1.41a2.25,2.25,0,0,0,2.44-1.22Z"/>
        <path class="cls-25" d="M1209,429.4l-.06,0c-1.21-.69-5.81-1-8.76-.47,0,0,3.34-6.94,5-10,.18-.32-2.2-2-2.2-2s-5.09,12.32-3.49,12.89c1,.37,7.21.09,7.21.09-3.54,2.56-7.61,7.66-7.52,10.26C1200.6,442.61,1207.18,434.18,1209,429.4Z"/>
        <g>
          <path class="cls-26" d="M1195.17,408a42.38,42.38,0,0,0,1.52,4.07,40.52,40.52,0,0,0,9.25,13.48,38.48,38.48,0,0,0,5.85,4.6,39.48,39.48,0,0,0,13.75,5.54,34.92,34.92,0,0,0,8.3.63c4.9-.26,8.93-1.69,11.12-4,2.59-2.73,2.59-6.68-1.62-11.34-.76-.85-1.56-1.68-2.39-2.49-1.22-1.2-2.51-2.36-3.84-3.47a91.13,91.13,0,0,0-13.55-9.28c-1.68-1-3.36-1.86-5-2.7a144.69,144.69,0,0,0-24.89-9.87C1182.38,393.78,1195.17,408,1195.17,408Z"/>
          <path class="cls-27" d="M1203.83,399.55c-2,7.36-5.31,10.4-5.15,14.1.18,4.15,5,9.47,7.17,11.54a45.51,45.51,0,0,0,6.47,4.9,35.49,35.49,0,0,0,13,5.29,37.16,37.16,0,0,0,8.59.74c4.9-.25,8.87-2,11.06-4.32l-1-.07c-20.09-2.18-42-11.54-36.66-19.34,10.68-15.67.41-15,.41-15Z"/>
        </g>
        <g>
          <g>
            <path class="cls-28" d="M1201.05,397.05c-8-5.41-15-19.09-18.39-24.76-4.46-7.53-8.8-15.16-12.86-22.82-10-19-18.61-38.55-23.72-58.11-3.88-14.86-6.72-30.87-2.9-44.09,1.43-5,4.26-9.31,9.07-11.48,5.86-2.64,13.74-.88,20.73,2,9.07,3.71,17.85,9.65,26.26,15.06,9.27,5.95,24.85,10.16,34.78,11,18.11,1.56,31.79,18.4,30.62,34.55-.64,8.84-15.26,30.14-19.13,37.31-4.42,8.18-8.57,16.55-13.19,24.59s-9.54,15.77-13.35,24.35c-2.19,4.93-4.36,14.7-11.61,14.67A11.53,11.53,0,0,1,1201.05,397.05Z"/>
            <path class="cls-29" d="M1218.65,402.23a47.5,47.5,0,0,0,11.47,1.24c7.64.08,14.88-1.11,22.09-2.15a135.8,135.8,0,0,0,39.08-12.15,97.26,97.26,0,0,0,16.34-9.91c4.55-3.43,9.08-7.25,12.2-12s4.21-10.9-.92-17c-4.26-5.05-11-7.91-16.81-9.9a112.15,112.15,0,0,0-31.61-5.65c-5.44-.21-10.88.07-15.57,1.67a27.82,27.82,0,0,0-11.23,7.75c-7,7.4-11.76,16.89-16.67,25.82-2.41,4.39-4.77,8.82-7.16,13.23-1.22,2.26-2.41,4.54-3.67,6.77-1,1.84-2.61,3.59-2.82,5.87C1213.1,398.73,1215.35,401.37,1218.65,402.23Z"/>
            <path class="cls-30" d="M1204.62,352.76a47.21,47.21,0,0,1,0,11.7c-.44,5.45-1,10.93-.36,16.66,0,.27.07.54.1.81-1.39-3.62-2.8-7.25-4-10.9-1.75-5.42-3.54-10.8-5-16.23-.78-3-1.43-6-2.19-9C1197.14,341.62,1203.66,347.08,1204.62,352.76Z"/>
            <path class="cls-30" d="M1165.53,269.32c.41-2.48,3-9.46,7.54-6.27,3.8,2.67,2.81,10.21,2.58,13.17-.38,5.06-1.56,9.84-1.83,14.94-.66,12.34.1,25.46,4.74,38.57a7.1,7.1,0,0,0-1.27,1.67,10.26,10.26,0,0,0-1.06,5.56c-.07-1.86-1.64-4.74-2.26-6.68-.73-2.27-1.42-4.55-2.07-6.82-1.33-4.7-2.47-9.41-3.4-14.1a157.54,157.54,0,0,1-3-27.42c-.09-4.2-.64-8.56,0-12.57A.11.11,0,0,1,1165.53,269.32Z"/>
            <path class="cls-30" d="M1177.69,272.19c2.59-4.2,8.83-6,14.76-2.65,9,5.17,6.37,14.17,4.4,20.1-3,9.06-6,17.55-6.42,27.71a133.74,133.74,0,0,0,.53,21c-1.59-4-4.34-8.74-8.53-9.75a3.77,3.77,0,0,0-2.17.08c-6.33-18.4-4.38-35.86-2.86-53C1177.48,274.82,1177.62,273.59,1177.69,272.19Z"/>
            <path class="cls-30" d="M1213.38,294.55a1.7,1.7,0,0,1-.15.22.64.64,0,0,0,0,.69,56,56,0,0,1-2.34,9.67c-4.27,13.53-7.38,27.34-6.53,42.53a11.07,11.07,0,0,0-3.18-3.3c-3-2-5.76-2.48-7.92-1.5a119.42,119.42,0,0,1-1.19-15.29,95.09,95.09,0,0,1,1-19.19c1-5.54,3-10.57,4.77-15.74,1.27-3.71,3-7.84,2.87-12.21h0c2.82-.15,7.29-.29,9.94,2.38a10.45,10.45,0,0,1,2.8,6.89A27.92,27.92,0,0,1,1213.38,294.55Z"/>
            <path class="cls-30" d="M1234.76,300.33c2.78,6.24,1.3,12.09-.5,17.23-2.58,7.31-6.08,14.09-9,21.24a82.89,82.89,0,0,0-3.56,10.34c-.36,1.44-.62,2.93-.88,4.42a9.89,9.89,0,0,0-1.45-1c-4.11-2.28-9-2.94-12.68-1.72a97.43,97.43,0,0,1,2.21-30.9c1.6-6.77,4.29-13,5.77-19.85.3-1.41.64-3,.87-4.63C1219.58,289.91,1231,292,1234.76,300.33Z"/>
            <path class="cls-30" d="M1207.82,391.61c-.94-6-2-12.06-1.76-17.95s1.28-11.39.88-17.31a24.49,24.49,0,0,0-.43-3.24c3.78-1.54,11.17-.36,14.23,2.93a136.16,136.16,0,0,0-7,16.72,84.87,84.87,0,0,0-3.19,11.89,48.51,48.51,0,0,1-1.6,6.78c-.19.56-.41,1.14-.64,1.71C1208.15,392.63,1208,392.12,1207.82,391.61Z"/>
            <path class="cls-30" d="M1191.13,345c.73,2.9,1.29,5.81,2,8.66a193,193,0,0,0,6.84,21.76c2,5.39,4.29,10.79,5.93,16.2.18,1.08.35,2.15.5,3.23-.22-1.6-3.35-5.09-4.37-6.68q-2.19-3.4-4.31-6.84c-2.86-4.67-5.6-9.37-8.15-14.13-3.29-6.13-6.71-12.29-9-18.62-1.83-5.14-4-12.79-.83-16.57,2.09-2.49,4.67-1.56,6.81,1.77A36.7,36.7,0,0,1,1191.13,345Z"/>
            <path class="cls-31" d="M1218.65,402.23a47.5,47.5,0,0,0,11.47,1.24c7.64.08,14.88-1.11,22.09-2.15a135.8,135.8,0,0,0,39.08-12.15,97.26,97.26,0,0,0,16.34-9.91c4.55-3.43,9.08-7.25,12.2-12s4.21-10.9-.92-17c-4.26-5.05-11-7.91-16.81-9.9a112.15,112.15,0,0,0-31.61-5.65c-5.44-.21-10.88.07-15.57,1.67a27.82,27.82,0,0,0-11.23,7.75c-7,7.4-11.76,16.89-16.67,25.82-2.41,4.39-4.77,8.82-7.16,13.23-1.22,2.26-2.41,4.54-3.67,6.77-1,1.84-2.61,3.59-2.82,5.87C1213.1,398.73,1215.35,401.37,1218.65,402.23Z"/>
            <path class="cls-30" d="M1266.61,349.76l-.28.3a.36.36,0,0,0,0,.07,29.71,29.71,0,0,1-4.37,3.88c-4.3,3.32-9.06,6.15-13.43,9.42a164.32,164.32,0,0,0-19.76,17.22,88,88,0,0,0-8.47,9.55c-2.12,2.95-4,6.07-5.94,9.15a5.18,5.18,0,0,1-1-3.48c.21-2.28,1.78-4,2.82-5.87,1.26-2.23,2.45-4.51,3.67-6.77,2.39-4.41,4.75-8.84,7.16-13.23l2.25-4.13c2-2.38,3.15-5.5,5.13-7.84a75.19,75.19,0,0,1,10.39-9.6,31.15,31.15,0,0,1,10.17-5.9c3.16-1,8-1.72,11.67,1C1269.13,345.33,1268.28,347.7,1266.61,349.76Z"/>
            <path class="cls-30" d="M1214.8,399.93a102.89,102.89,0,0,1,9-12.9,148.77,148.77,0,0,1,11.72-12,181.8,181.8,0,0,1,22.77-17.59c3-2,6.45-4.16,8.63-7.08h0c2.58-3,6.42-5.15,10.28-6.68s9.15-3.2,14.1-1.1c1.82.77,4.08,2.26,4.81,4.12a4.37,4.37,0,0,1-.67,4.27,19.3,19.3,0,0,1-6.54,5.38l-.59.1a.23.23,0,0,0-.2.33l-1.21.64c-5.24,2.7-10.94,4.77-16.43,7.12-6.25,2.68-12.4,5.5-18.32,8.63-.86.37-1.71.75-2.54,1.16a.19.19,0,0,0-.11.28c-1.18.65-2.35,1.31-3.5,2a155.89,155.89,0,0,0-16.77,11.4l-1,.6a.26.26,0,0,0-.1.22c-1.74,1.39-3.46,2.82-5.13,4.28a65.36,65.36,0,0,0-5.52,5.77c-.59.65-1.19,1.31-1.81,1.95A6.86,6.86,0,0,1,1214.8,399.93Z"/>
            <path class="cls-30" d="M1244.17,380.84c4.67-1.95,10.31-4.23,16.27-3.29,2.39.37,5.15,1.53,6.61,3.82,2.16,3.39.32,6.56-1.45,8.71-4.17,5.07-10.37,8.89-16.61,11.67l-.13.06a119.8,119.8,0,0,1-18.74,1.66,47.5,47.5,0,0,1-11.47-1.24,8.06,8.06,0,0,1-2.35-1c1.49-1.52,2.86-3.14,4.26-4.74a58.7,58.7,0,0,1,7.4-6.56c.56-.46,1.13-.9,1.71-1.35A96.85,96.85,0,0,1,1244.17,380.84Z"/>
            <path class="cls-32" d="M1254.21,373a53.94,53.94,0,0,1,17.19-4.2c5-.24,12.69.88,14.72,7.23,1.31,4.1-1.08,7.57-3.39,10a35,35,0,0,1-8.43,6.37,147.81,147.81,0,0,1-17.56,8.13c-1.5.27-3,.53-4.53.75l-1.13.16a53.93,53.93,0,0,0,11.1-7.1c3-2.52,9-7.6,5.51-13-2.83-4.45-8.14-4.93-12.15-4.49-5.8.62-11,2.88-15.79,5.23-1.7.84-3.36,1.72-5,2.64.93-.67,1.87-1.34,2.82-2a152.87,152.87,0,0,1,15.06-9.11C1253.15,373.43,1253.68,373.21,1254.21,373Z"/>
            <path class="cls-30" d="M1308.11,362.53c-.22,0-.32.18-.28.37-.33.33-.67.64-1,.94a32.27,32.27,0,0,1-7.09,4.31,56.7,56.7,0,0,1-14.45,4.72.29.29,0,0,0-.19.12,12.21,12.21,0,0,0-5.55-3.8c-5.69-2-11.72-.8-16.54.4-1.88.46-3.73,1-5.54,1.6.59-.29,1.18-.59,1.78-.87,7.08-3.41,14.48-6.33,21.74-9.47a81.56,81.56,0,0,0,8.32-4c4.68-1.05,20.27-6.64,20.59,1.35a6,6,0,0,1-1.71,4.32Z"/>
            <path class="cls-30" d="M1308.52,363.26c3.23.81,2,3.8,1.06,5.44a29.44,29.44,0,0,1-4.93,6.19c-2.45,2.43-5.68,4.1-8.84,5.72-4.42,2.26-9,4.31-13.25,6.79a15.92,15.92,0,0,0,4.06-6.06,8.23,8.23,0,0,0-1.21-7.93h0a55.92,55.92,0,0,0,16-5.45C1303.71,366.81,1306.61,365.34,1308.52,363.26Z"/>
            <path class="cls-33" d="M1285.07,373a12.21,12.21,0,0,0-5.55-3.8c-5.5-1.91-11.31-.88-16,.28a56.41,56.41,0,0,1,10-3.88,32.08,32.08,0,0,1,10.81-1.4,24.44,24.44,0,0,1,6.77,1.51c.93.37,2.52,1,3,2,.62,1.22-.57,2.12-1.28,2.68-.16.12,0,.4.13.54a47.9,47.9,0,0,1-7.71,2A.29.29,0,0,0,1285.07,373Z"/>
            <path class="cls-34" d="M1285.44,373.41a52,52,0,0,0,9.52-2.59c2.93.11,6.23,1.84,6.24,5.26a6.46,6.46,0,0,1-.22,1.66c-1.65,1.05-3.42,2-5.17,2.87-4.42,2.26-9,4.31-13.25,6.79a15.92,15.92,0,0,0,4.06-6.06,8.23,8.23,0,0,0-1.21-7.93Z"/>
            <path class="cls-35" d="M1160,247.89a4.12,4.12,0,0,0-3.86-5.12,5.84,5.84,0,0,0-2.68.48,4.07,4.07,0,0,0-2.15,3.75c.2,2.12,2.25,3.29,4.18,3.55A3.86,3.86,0,0,0,1160,247.89Z"/>
            <path class="cls-36" d="M1173.2,252.14c-2.07-3.12.92-5.31,3.85-4.8.28,0,.36.21.35.36a4.92,4.92,0,0,1,.81.38c2.43,1.37,3.19,4.67,1.4,5.89S1174.75,254.49,1173.2,252.14Z"/>
            <path class="cls-37" d="M1193.13,260.36a1.45,1.45,0,0,1,.6-2.07,2,2,0,0,1,2.6.12,2.32,2.32,0,0,1,.15,3.82C1195.3,262.89,1193.71,261.62,1193.13,260.36Z"/>
            <path class="cls-38" d="M1214.62,277.1a4.4,4.4,0,0,1,3-4.3c3.48-1.33,7.86.94,9.29,5,1.32,3.76-1.24,6.84-5.11,6.47S1214.24,280.23,1214.62,277.1Z"/>
            <path class="cls-39" d="M1237.66,280.12a4.4,4.4,0,0,1,3-4.3c3.48-1.33,7.86.94,9.29,5,1.32,3.75-1.24,6.84-5.11,6.47S1237.27,283.25,1237.66,280.12Z"/>
            <path class="cls-40" d="M1240.77,300.34c-1.6-1.39-1.49-3.34-.11-3.91a2.23,2.23,0,0,1,2-.66c2.2.21,4,2.45,3.56,4.35S1242.5,301.84,1240.77,300.34Z"/>
            <path class="cls-41" d="M1243,317.51c-2.2-1.48-1-3.92.76-4.09a2.19,2.19,0,0,1,1.41.43,1.75,1.75,0,0,1,.43.22,2.84,2.84,0,0,1,1,2,2,2,0,0,1-.81,1.92C1245,318.52,1243.88,318.1,1243,317.51Z"/>
            <path class="cls-42" d="M1236.18,331.15a2.15,2.15,0,0,1,.76-4.08,2.21,2.21,0,0,1,1.42.42,1.75,1.75,0,0,1,.42.23,2.81,2.81,0,0,1,1,2,2,2,0,0,1-.8,1.92C1238.21,332.16,1237.07,331.75,1236.18,331.15Z"/>
            <path class="cls-43" d="M1228.8,346.23a1.65,1.65,0,0,1,.58-3.13,1.73,1.73,0,0,1,1.09.33,1.43,1.43,0,0,1,.32.17,2.18,2.18,0,0,1,.76,1.56,1.55,1.55,0,0,1-.62,1.47C1230.35,347,1229.47,346.69,1228.8,346.23Z"/>
            <path class="cls-30" d="M1184.27,369a4.71,4.71,0,0,1-1.37-2c-.44-1.08-1.07-2.1-1.53-3.19A262.55,262.55,0,0,1,1168.94,337c-4.25-10.2-8.89-20.32-13.24-30.49s-8.12-20.28-8.88-30.32a27.32,27.32,0,0,1,1.93-13.07c.83-1.89,2.48-5.61,5.74-4.3,2.35.94,3.28,3.82,3.86,5.76a60.15,60.15,0,0,1,1.46,7.43c1.8,10.84,2.32,21.52,4.15,32.37a188.15,188.15,0,0,0,8.76,32.08c1.92,5.34,4,10.66,6.14,16,1,2.55,2.06,5.1,3.09,7.65s1.85,5.23,3,7.79l.26.54C1185.44,368.9,1184.72,369.33,1184.27,369Z"/>
            <path class="cls-44" d="M1196.68,355.5c.78-1.59,3.23-2,4.47.24a16.68,16.68,0,0,1,1.68,6.55c.66,6.08.45,12,.91,18-1.18-3.08-2.36-6.17-3.36-9.28-1.42-4.38-2.85-8.73-4.09-13.1A5.89,5.89,0,0,1,1196.68,355.5Z"/>
            <path class="cls-45" d="M1177.54,326.61c.32,1,.65,2.08,1,3.12l-.18.2C1178.07,328.83,1177.8,327.73,1177.54,326.61Z"/>
            <path class="cls-46" d="M1179.36,325.85c-1.46-8.3-2.66-16.85-1.41-24.53a19,19,0,0,1,3-8.1c1-1.4,3.55-5.07,6.28-3.31,4.38,2.84,4,9.11,3.4,12.44a83.67,83.67,0,0,0-1.41,11,79.52,79.52,0,0,0,.27,14.11c.31,2.28.74,4.58,1.11,6.87.1,1.34.22,2.69.38,4-1.59-4-4.34-8.74-8.53-9.75a3.77,3.77,0,0,0-2.17.08C1179.94,327.72,1179.64,326.79,1179.36,325.85Z"/>
            <path class="cls-47" d="M1192.7,337.9c.48-4.24,0-8.95.19-13.23a55.23,55.23,0,0,1,1.12-9.45c.53-2.28,1.23-5,3.11-6.38,2.08-1.56,5.45-.68,6.77,2.48,1.5,3.59,1.44,7.38,1.26,10.77-.16,3.22-.74,6.31-.75,9.58,0,1.4,0,2.82.12,4.25a91.67,91.67,0,0,0-.11,11.74,11.07,11.07,0,0,0-3.18-3.3c-3-2-5.76-2.48-7.92-1.5C1193.05,341.2,1192.86,339.55,1192.7,337.9Z"/>
            <path class="cls-48" d="M1206.45,337.91c.68-3.09,1-6.32,1.65-9.43a26.6,26.6,0,0,1,3.69-9.31c1.45-2.24,3.19-4.76,5.91-5.74a6.92,6.92,0,0,1,8.29,3.83c2.57,5.77.1,11.74-1.18,16.58a97.44,97.44,0,0,0-2.61,13.69c-.15.54-.32,1.07-.46,1.61-.36,1.44-.62,2.93-.88,4.42a9.89,9.89,0,0,0-1.45-1c-4.11-2.28-9-2.94-12.68-1.72A97.17,97.17,0,0,1,1206.45,337.91Z"/>
            <path class="cls-49" d="M1207.82,391.61c-.94-6-2-12.06-1.76-17.95.06-1.45.18-2.88.31-4.32a17.58,17.58,0,0,1,2.58-5.95c.94-1.17,2.53-2.44,4.59-1.25a5.48,5.48,0,0,1,2.42,3.19c.09.28.15.56.22.84q-1.32,3.24-2.45,6.59a84.87,84.87,0,0,0-3.19,11.89,48.51,48.51,0,0,1-1.6,6.78c-.19.56-.41,1.14-.64,1.71C1208.15,392.63,1208,392.12,1207.82,391.61Z"/>
            <path class="cls-50" d="M1185.23,352.49c.62-2.25,3.42-3.45,5.6-.57a21.25,21.25,0,0,1,2.89,5.72c2.06,5.75,3.83,11.51,5.91,17.26s4.21,11.38,6.32,17.07c.16.95.31,1.9.44,2.85-.22-1.6-3.35-5.09-4.37-6.68q-2.19-3.4-4.31-6.84c-2.86-4.67-5.6-9.37-8.15-14.13-1.35-2.5-2.7-5-4-7.53A14.6,14.6,0,0,1,1185.23,352.49Z"/>
            <path class="cls-36" d="M1313.89,359.16a1.53,1.53,0,0,1,1.06-1.5,2.69,2.69,0,0,1,3.28,1.75,1.62,1.62,0,0,1-1.8,2.25C1315.06,361.53,1313.75,360.25,1313.89,359.16Z"/>
            <path class="cls-51" d="M1302.09,347.9a2.85,2.85,0,0,1,2-2.78c2.28-.85,5.16.63,6.1,3.25a3,3,0,0,1-3.35,4.18C1304.26,352.3,1301.84,349.93,1302.09,347.9Z"/>
            <path class="cls-52" d="M1272.76,338.89a1.23,1.23,0,0,1,.85-1.21,2.18,2.18,0,0,1,2.66,1.41,1.32,1.32,0,0,1-1.46,1.83C1273.71,340.81,1272.65,339.77,1272.76,338.89Z"/>
          </g>
          <g>
            <path class="cls-53" d="M1193.29,389.52c-6-7.4-7.63-21.27-8.76-27.19-1.5-7.85-2.84-15.74-3.87-23.54-2.54-19.31-3.32-38.62-.54-56.61,2.11-13.67,5.77-27.9,15.14-37.36a19.48,19.48,0,0,1,14.07-6.08c7.12,0,14.51,4.37,20.53,9.31,7.82,6.42,14.42,14.56,20.86,22.12,7.1,8.34,21.42,17.58,31.3,22,18,8,25.17,26.93,17.33,39.79-4.29,7-28.1,19.14-35,23.6-7.92,5.09-15.63,10.44-23.7,15.34s-16.31,9.44-23.76,15.09c-4.28,3.24-10.53,10.48-18,7.76A12.81,12.81,0,0,1,1193.29,389.52Z"/>
            <path class="cls-54" d="M1209.29,400.31a59,59,0,0,0,11.3,5.28c7.83,2.89,15.78,4.6,23.64,6.42a185.86,185.86,0,0,0,45.25,4.49,128.5,128.5,0,0,0,20.91-2.1c6.09-1.13,12.32-2.59,17.48-5.31s8.81-7.41,6-14.32c-2.31-5.74-8.06-10.58-13.25-14.38A137.89,137.89,0,0,0,1290.42,364c-5.52-2.18-11.23-4-16.73-4.39a36.06,36.06,0,0,0-14.74,2.21c-10.26,3.5-19.06,9.54-27.79,15.07-4.29,2.72-8.55,5.48-12.82,8.23-2.18,1.41-4.35,2.84-6.57,4.21-1.82,1.12-4.15,2-5.31,3.78C1205,395.37,1206.24,398.38,1209.29,400.31Z"/>
            <path class="cls-32" d="M1215.17,354.41c-1,3.57-2.94,6.6-4.81,9.62-2.69,4.32-5.54,8.62-7.22,13.57-.08.24-.15.48-.23.71.06-3.49.09-7,.38-10.44.43-5.11.79-10.2,1.57-15.2.43-2.75,1-5.48,1.46-8.24C1212.05,342.46,1216.52,349.38,1215.17,354.41Z"/>
            <path class="cls-30" d="M1209.21,271.26c1.45-1.9,7-6.67,10.35-2.37,2.81,3.61-1.31,9.44-2.76,11.8-2.47,4-5.66,7.51-8,11.61-5.75,9.91-10.37,21-11,33.49a8.46,8.46,0,0,0-2,.9,8.86,8.86,0,0,0-3.38,4.19c.69-1.56.26-4.51.41-6.34.19-2.14.41-4.27.68-6.38q.84-6.54,2.29-12.85a118.88,118.88,0,0,1,8.21-23.67c1.64-3.49,2.86-7.29,5.16-10.35Z"/>
            <path class="cls-30" d="M1220.56,278.12c4.4-2.49,11.58-1.69,16.29,3.3,7.17,7.59.74,14-3.73,18.17-6.82,6.34-13.39,12.22-18,20.42a103,103,0,0,0-8.09,17.46c0-3.85-.88-8.8-4.77-11.18a5.06,5.06,0,0,0-2.27-.74c1-17.49,10.23-31.13,18.84-44.67C1219.26,280.21,1219.91,279.25,1220.56,278.12Z"/>
            <path class="cls-30" d="M1248.13,309.76l-.25.12a.5.5,0,0,0-.23.59,50.06,50.06,0,0,1-6.39,7.09c-10,9.54-18.83,19.76-24.21,32.57a9.36,9.36,0,0,0-1.92-3.9c-2.28-2.8-4.9-4.17-7.53-4.16a89.38,89.38,0,0,1,5.05-13,75.56,75.56,0,0,1,8.88-15.44c3.3-4.2,7.43-7.59,11.38-11.19,2.83-2.58,6.34-5.33,8-9l0,0c3,.91,7.63,2.46,9.26,5.64a7.75,7.75,0,0,1,0,6.7A21.71,21.71,0,0,1,1248.13,309.76Z"/>
            <path class="cls-30" d="M1267.78,322.44c.29,6.16-3.64,10.43-7.61,14-5.66,5.06-12.05,9.34-18,14.15a77.22,77.22,0,0,0-7.91,7.2c-1,1-1.85,2.17-2.73,3.3a11.27,11.27,0,0,0-1.09-1.34,20.66,20.66,0,0,0-12.36-6.11,78.4,78.4,0,0,1,15-24.6c4.42-5,9.76-9.13,14.1-14.2.89-1.05,1.89-2.21,2.8-3.48C1256.42,308.23,1267.38,314.16,1267.78,322.44Z"/>
            <path class="cls-32" d="M1202.5,387.56c1.51-5.32,2.85-10.68,5.56-15.43s6-8.89,8-13.91a20,20,0,0,0,.89-2.83c4.52.13,11.65,3.85,13.45,7.69a131.07,131.07,0,0,0-14.09,11.16,75.48,75.48,0,0,0-8.18,8.6,42.8,42.8,0,0,1-4.44,5c-.42.38-.88.78-1.36,1.16C1202.42,388.52,1202.45,388,1202.5,387.56Z"/>
            <path class="cls-32" d="M1204.48,343c-.44,2.66-1.06,5.26-1.51,7.87a139.88,139.88,0,0,0-1.9,20.43c-.12,5.2,0,10.48-.55,15.54-.26.95-.53,1.9-.81,2.84.42-1.4-.86-4.55-1.35-7.11a98.42,98.42,0,0,0-2.07-9.77,58.74,58.74,0,0,1-2.56-12.11c-.87-6.27-1.85-12.6-1.58-18.65.23-4.91,1.15-12,6-13.94,3.17-1.28,5.45.45,6.29,4A27,27,0,0,1,1204.48,343Z"/>
            <path class="cls-53" d="M1209.29,400.31c3.55,2.26,5.31,2.65,8.83,4.64,5.8,3.26,15.82,6.5,23.67,8.32,15.19,3.51,33.21,3.53,47.69,3.23a128.5,128.5,0,0,0,20.91-2.1c6.09-1.13,12.32-2.59,17.48-5.31s8.81-7.41,6-14.32c-2.31-5.74-8.06-10.58-13.25-14.38A137.89,137.89,0,0,0,1290.42,364c-5.52-2.18-11.23-4-16.73-4.39a36.06,36.06,0,0,0-14.74,2.21c-10.26,3.5-19.06,9.54-27.79,15.07-4.29,2.72-8.55,5.48-12.82,8.23-2.18,1.41-4.35,2.84-6.57,4.21-1.82,1.12-4.15,2-5.31,3.78C1205,395.37,1206.24,398.38,1209.29,400.31Z"/>
            <path class="cls-30" d="M1280.26,374.92l-.41.15-.07,0a37.43,37.43,0,0,1-6.09,1.58c-5.8,1.13-11.87,1.7-17.7,2.77a205.71,205.71,0,0,0-27.44,6.84A104.19,104.19,0,0,0,1215.9,391c-3.4,1.64-6.62,3.51-9.88,5.33a2.45,2.45,0,0,1,.44-2.52c1.16-1.8,3.49-2.66,5.31-3.78,2.22-1.37,4.39-3.51,6.57-4.92,4.27-2.75,8.53-5.51,12.82-8.23l4-2.57c3-1.23,5.5-3.35,8.5-4.55a93.45,93.45,0,0,1,14.65-4,40.85,40.85,0,0,1,12.9-1.08c3.66.35,8.93,1.54,11.62,5.12C1284.68,372.21,1282.82,373.84,1280.26,374.92Z"/>
            <path class="cls-30" d="M1280.36,375.55c3.9-1.5,8.73-1.85,13.34-1.68s10.75.76,15,4.32c1.56,1.31,3.27,3.37,3.26,5.18a3.74,3.74,0,0,1-2.44,3.26,24.46,24.46,0,0,1-9,2l-.64-.13c-.22-.06-.35.06-.35.2l-1.51.07c-6.5.28-13.23-.13-19.85-.23-7.53-.11-15-.07-22.41.31-1,0-2.08,0-3.1,0-.18,0-.23.09-.22.19-1.48.1-3,.21-4.43.34a203.27,203.27,0,0,0-22,3.16l-1.22.14a.22.22,0,0,0-.19.15c-2.38.5-4.73,1-7.05,1.62a75.4,75.4,0,0,0-8.06,2.69c-.88.32-1.76.65-2.66.94a5.78,5.78,0,0,1-.63-1.09,114.26,114.26,0,0,1,14.61-7.27q8.27-3.14,17-5.52a235.14,235.14,0,0,1,30.68-6"/>
            <path class="cls-30" d="M1244.37,392.17c5.6.13,12.35.34,18.11,3.33,2.31,1.19,4.67,3.17,5.23,5.59.83,3.59-2.37,5.52-5.07,6.63-6.38,2.63-14.33,3.47-21.91,3.45,0,0-1.54-.34-1.59-.34a158.65,158.65,0,0,1-19.63-6.23c-3.79-1.4-6.19-3.42-9.74-5.68-.8-.51-2,.3-2.49-.33,2.16-.69,4.24-1.52,6.35-2.31a71.1,71.1,0,0,1,10.31-2.66c.77-.17,1.54-.32,2.31-.47A130.21,130.21,0,0,1,1244.37,392.17Z"/>
            <path class="cls-32" d="M1257.92,389.45a74,74,0,0,1,19.44,2.93c5.24,1.65,12.71,5.42,12.19,11.4-.34,3.86-4.23,5.83-7.62,7a44.37,44.37,0,0,1-11.3,2.12,198.3,198.3,0,0,1-21.42.18q-2.51-.49-5-1.06l-1.24-.29a71,71,0,0,0,14.36-1.72c4.14-1,12.35-2.94,11-8.66-1.09-4.72-6.37-7.08-10.67-8.21-6.24-1.64-12.52-1.7-18.42-1.55q-3.13.09-6.24.32c1.24-.21,2.48-.41,3.73-.59,6.3-.95,12.73-1.56,19.25-1.91Z"/>
            <path class="cls-30" d="M1317.75,400.82a.3.3,0,0,0-.44.2q-.7.23-1.44.39a42.06,42.06,0,0,1-9.08.91,77.2,77.2,0,0,1-16.82-1.47.39.39,0,0,0-.25,0,11.7,11.7,0,0,0-4.15-5.18c-5-3.74-11.75-5-17.21-5.81-2.12-.32-4.25-.56-6.36-.73.73,0,1.46-.05,2.2-.06,8.69-.18,17.51.16,26.28.27,3.42.05,6.87.07,10.21-.2,5.25.88,23.61,2.06,20.65,8.75a5.79,5.79,0,0,1-3.54,2.93Z"/>
            <path class="cls-30" d="M1317.88,401.57c3,1.86.5,3.87-1.15,4.87a34,34,0,0,1-7.62,3.27c-3.53,1.08-7.54,1.26-11.46,1.42-5.48.23-11,.22-16.44.68a17.55,17.55,0,0,0,6.67-3.48,6.28,6.28,0,0,0,2-7h0a76.21,76.21,0,0,0,18.74,1.45C1311.46,402.71,1315.06,402.57,1317.88,401.57Z"/>
            <path class="cls-35" d="M1212.33,251.57c1.61-1.69,1-4.46-1.87-5.65a8.31,8.31,0,0,0-3-.6c-1.68.19-3.26.91-3.77,2.29-.66,1.82,1,3.55,2.85,4.48C1208.74,253.16,1211.07,252.89,1212.33,251.57Z"/>
            <path class="cls-36" d="M1224.17,260c-.84-3.33,3.14-4,5.95-2.52.26.14.29.3.2.43a4.87,4.87,0,0,1,.69.61c1.94,2,1.37,5-1,5.36A5.61,5.61,0,0,1,1224.17,260Z"/>
            <path class="cls-36" d="M1241.33,274.11a1.35,1.35,0,0,1,1.46-1.48,2.53,2.53,0,0,1,2.63,1.06,2,2,0,0,1-1.41,3.2C1242.53,277,1241.41,275.36,1241.33,274.11Z"/>
            <path class="cls-36" d="M1258.8,296.19c.57-1.65,2.81-2.53,4.85-2.43,4.13.19,7.71,3.69,7.52,7.54-.18,3.58-4.09,5.17-7.92,3.43S1257.11,298.63,1258.8,296.19Z"/>
            <path class="cls-35" d="M1248.24,280.87c.57-1.66,2.8-2.53,4.84-2.43,4.13.19,7.71,3.69,7.52,7.53-.18,3.58-4.09,5.17-7.92,3.44S1246.55,283.31,1248.24,280.87Z"/>
            <path class="cls-36" d="M1279.07,306.88c.57-1.65,2.8-2.53,4.84-2.43,4.13.19,7.71,3.69,7.52,7.53-.18,3.59-4.09,5.18-7.92,3.44S1277.38,309.32,1279.07,306.88Z"/>
            <path class="cls-35" d="M1274,324.68c-1.08-1.75-.16-3.31,1.49-3.27a3,3,0,0,1,2.31.2c2.18,1,3.17,3.52,1.88,4.9S1275.13,326.55,1274,324.68Z"/>
            <path class="cls-36" d="M1269.19,339.63c-1.65-2,.53-3.61,2.47-3.08a2.58,2.58,0,0,1,1.28.87,1.89,1.89,0,0,1,.34.35,2.13,2.13,0,0,1,.19,2,2,2,0,0,1-1.62,1.28A3.36,3.36,0,0,1,1269.19,339.63Z"/>
            <path class="cls-36" d="M1256.57,348.33c-1.66-2,.53-3.61,2.46-3.08a2.57,2.57,0,0,1,1.29.87,2.19,2.19,0,0,1,.34.34,2.14,2.14,0,0,1,.18,2.05,2,2,0,0,1-1.61,1.28A3.33,3.33,0,0,1,1256.57,348.33Z"/>
            <path class="cls-36" d="M1242.76,358c-1.27-1.55.41-2.77,1.89-2.36a2,2,0,0,1,1,.67,1.28,1.28,0,0,1,.26.26,1.61,1.61,0,0,1,.14,1.56,1.51,1.51,0,0,1-1.23,1A2.57,2.57,0,0,1,1242.76,358Z"/>
            <path class="cls-30" d="M1187.55,360.19A3.74,3.74,0,0,1,1187,358c0-1.06-.23-2.13-.26-3.2a194.23,194.23,0,0,1-1.81-26.61c-.19-10-.81-20-1.11-30s0-19.7,3.32-28.24a23,23,0,0,1,7.36-10c1.63-1.25,4.87-3.7,7.68-1.41,2,1.65,1.81,4.36,1.61,6.17a43,43,0,0,1-1.55,6.66c-2.6,9.59-6.45,18.56-9,28.17a137.58,137.58,0,0,0-4.17,29.65c-.22,5.1-.25,10.26-.24,15.42,0,2.48,0,5,0,7.44s-.24,5-.12,7.52l0,.54C1188.78,360.57,1187.86,360.66,1187.55,360.19Z"/>
            <path class="cls-55" d="M1198,322.85c-.1,1-.18,1.95-.23,2.94l-.26.1C1197.67,324.88,1197.84,323.86,1198,322.85Z"/>
            <path class="cls-36" d="M1325.09,400.19a1.68,1.68,0,0,1,1.71-.84,2.76,2.76,0,0,1,2.66,2.65c-.06,1.26-1.43,1.81-2.78,1.19S1324.5,401,1325.09,400.19Z"/>
            <path class="cls-36" d="M1317.57,386.55c.36-1.07,1.83-1.63,3.16-1.56,2.7.14,5,2.43,4.94,4.93-.1,2.33-2.65,3.35-5.16,2.2S1316.47,388.13,1317.57,386.55Z"/>
            <path class="cls-36" d="M1291.06,368.26a1.36,1.36,0,0,1,1.38-.68,2.23,2.23,0,0,1,2.15,2.15c0,1-1.15,1.46-2.25,1S1290.59,369,1291.06,368.26Z"/>
            <path class="cls-56" d="M1302,352.12a.66.66,0,0,1,.65-.33,1,1,0,0,1,1,1c0,.48-.54.69-1.06.46S1301.75,352.44,1302,352.12Z"/>
          </g>
        </g>
        <g>
          <path class="cls-26" d="M1177.86,378.31a142.81,142.81,0,0,1,.72,14.4c.16,7.29.57,13.38,4.54,18.46,7.6,9.73,14.62,8.78,20.42,5.38,8.92-5.25,7.56-15.72,7.56-15.72a2.36,2.36,0,0,0-.12-.86h0c-1.11-3.55-9.21-12-14.1-10.92-10.12,2.31-10.85-18.56-10.85-18.56C1183.21,365.67,1177.86,378.31,1177.86,378.31Z"/>
          <path class="cls-27" d="M1178.58,392.71c.16,7.29.57,13.38,4.54,18.46,7.6,9.73,14.62,8.78,20.42,5.38,8.92-5.25,7-15.7,7-15.7s0,6.38-14.88,6.66c0,0-10.06,0-13.53-7.54V390.4Z"/>
          <path class="cls-27" d="M1179.39,401.72s15.94,1,21.25-12.37l-5.82-8.46-15.37,12.78"/>
        </g>
        <g>
          <path class="cls-26" d="M1159.17,383.15s-2.31-23.4,18.43-22.9c5.12.12,20.61,2.11,19.87,22.68.91,2.48,4.51,13.51-19.12,16.59-1.15.81-6,4.42-8.43-.58C1169.25,398.88,1153.64,396.74,1159.17,383.15Z"/>
          <g>
            <path class="cls-57" d="M1168.24,380.26c.32,3.75-.9,7.19-2.6,7.37s-3.27-2.88-3.59-6.67.77-7.12,2.43-7.3h.14C1166.29,373.65,1168,376.68,1168.24,380.26Z"/>
            <path class="cls-58" d="M1167,380.56c0,1.72-.84,3.13-1.8,3.22s-1.62-1.22-1.67-2.95.68-3.19,1.65-3.27S1166.91,378.83,1167,380.56Z"/>
            <ellipse class="cls-59" cx="1164.05" cy="378.5" rx="0.71" ry="1.07"/>
          </g>
          <path class="cls-60" d="M1170.08,399.59a10.3,10.3,0,0,1-.69-2.15,21.15,21.15,0,0,0,.95,1.93Z"/>
          <path class="cls-60" d="M1178,400l-.19-.29c1.51-1.24,3.26-2.41,3.26-2.41S1179.53,398.72,1178,400Z"/>
          <path class="cls-61" d="M1177.8,366.64s4.19-4.62,6.75,2.27A6.5,6.5,0,0,0,1177.8,366.64Z"/>
          <path class="cls-61" d="M1167.63,368s-5-3.41-6.11,3.95A6.92,6.92,0,0,1,1167.63,368Z"/>
          <g>
            <path class="cls-60" d="M1163.6,389.25a3.1,3.1,0,0,1-1.69-.57,2.78,2.78,0,0,0,3.13-.43l.21.27A2.24,2.24,0,0,1,1163.6,389.25Z"/>
            <g>
              <g>
                <path class="cls-62" d="M1166.42,391.27a15.13,15.13,0,0,1,5.38,6.59c.86,2,3.22,2.44,5.32-1.94a34.82,34.82,0,0,0,2.74-8.85Z"/>
                <g>
                  <path class="cls-63" d="M1171.93,398.13c1,1.73,3.19,2,5.19-2.21a1.42,1.42,0,0,1,.08-.18C1174.06,393.6,1172.12,396.87,1171.93,398.13Z"/>
                  <path class="cls-64" d="M1173.75,395.46a4.35,4.35,0,0,0-1.82,2.67c.68,1.22,2,1.7,3.42.38C1175.44,397.18,1174.91,395.46,1173.75,395.46Z"/>
                </g>
                <path class="cls-60" d="M1177.26,396a35.51,35.51,0,0,0,2.76-8.91l0-.28-14.07,4.4.35.21a15,15,0,0,1,5.31,6.51,2.3,2.3,0,0,0,2,1.54h0C1174.91,399.48,1176.19,398.25,1177.26,396Zm2.39-8.68a35,35,0,0,1-2.68,8.51c-1.36,2.85-2.66,3.28-3.31,3.28h0a2,2,0,0,1-1.72-1.34,15.88,15.88,0,0,0-5.12-6.45Z"/>
              </g>
              <g>
                <path class="cls-65" d="M1174.59,377.44l-9.83-6.32s3.1,5.36,1.28,13.88c-.76,3.58-2.66,6.5,1.49,7.54,8.72,2.19,12.33-4.71,12.33-4.71Z"/>
                <path class="cls-66" d="M1174.59,377.44,1164.7,371s3.16,5.49,1.34,14c-.76,3.58-2.66,6.5,1.49,7.54,8.72,2.19,12.33-4.71,12.33-4.71Z"/>
                <path class="cls-60" d="M1170.81,393.15a13.69,13.69,0,0,1-3.32-.43,3.49,3.49,0,0,1-2.44-1.58c-.56-1.11-.16-2.54.32-4.2.18-.64.37-1.3.51-2,1.78-8.34-1.22-13.68-1.25-13.74a5,5,0,0,1,1.21,2.15,23.1,23.1,0,0,1,.36,11.67c-.15.7-.34,1.37-.53,2-.45,1.58-.83,2.94-.34,3.91a3.15,3.15,0,0,0,2.23,1.4c8.52,2.14,12.12-4.56,12.16-4.62l.28.18a10.59,10.59,0,0,1-3,3.24A10.39,10.39,0,0,1,1170.81,393.15Z"/>
              </g>
              <g>
                <g>
                  <path class="cls-67" d="M1178.53,387h0l0,0Z"/>
                  <path class="cls-66" d="M1182.56,385.25l-4,1.75c.26.27,2.27,2.12,5.61.48Z"/>
                </g>
                <path class="cls-60" d="M1178.53,387l0,0,.15.12.25.16.33.19.19.09a1.33,1.33,0,0,0,.21.09,4.72,4.72,0,0,0,.45.16c.16.05.33.07.5.11s.35,0,.53.06h.52c.18,0,.35,0,.51-.05l.48-.07.43-.11.19,0,.17-.06.27-.08.25-.07-.22.14-.26.15-.16.08-.19.08c-.13.05-.27.12-.42.17l-.49.13-.27,0-.27,0c-.18,0-.37,0-.56,0a5,5,0,0,1-.56-.08,3.21,3.21,0,0,1-.53-.15l-.24-.1-.23-.11a3.73,3.73,0,0,1-.39-.25l-.17-.13-.14-.12a2.28,2.28,0,0,1-.22-.23A2,2,0,0,1,1178.53,387Z"/>
              </g>
            </g>
          </g>
          <g>
            <g>
              <path class="cls-57" d="M1185,377.23c.33,3.95-1.28,7.41-3.32,7.62s-4-2.82-4.3-6.77,1.06-7.34,3.11-7.56S1184.66,373.27,1185,377.23Z"/>
              <path class="cls-58" d="M1184.17,379.57c0-2-.92-3.64-2.05-3.64s-2.06,1.64-2.06,3.64.92,3.64,2.06,3.64S1184.17,381.58,1184.17,379.57Z"/>
            </g>
            <ellipse class="cls-59" cx="1181.08" cy="377.69" rx="0.71" ry="1.07"/>
          </g>
          <g>
            <path class="cls-25" d="M1167.26,364c.14.29,1,.17,1-.51s-4.6-9.51-15.47-11c-3.79-.53-8.28,1-10.42,3.15-1.08,1.1-1.57,2.62-.82,3.79,1.73,2.74,5.58-4.76,11.72-4.67C1160,354.83,1165.37,360.06,1167.26,364Z"/>
            <path class="cls-66" d="M1142.38,357.74s3.63-7.13,12.76-4.07C1155.25,353.73,1148.91,351.7,1142.38,357.74Z"/>
          </g>
          <g>
            <path class="cls-25" d="M1179.43,362.53a.6.6,0,0,0,1.09.1c.31-.58.12-10.83-8.7-18.12-3.08-2.54-7.65-3.72-10.47-3a2.79,2.79,0,0,0-2.36,2.86c.32,3.33,6.94-1.09,12.26,2.37C1177.11,350.57,1179.48,358.07,1179.43,362.53Z"/>
            <path class="cls-66" d="M1159.39,343.66s5.95-4.76,13.11,2.32C1172.57,346.08,1167.57,341.26,1159.39,343.66Z"/>
          </g>
        </g>
        <path class="cls-25" d="M1212.18,415.42c.76-1.05,1.76-.24,1.58,1.18-.2,1.59-2.88,8.39-6.55,18.16,2.07,0,9.09-.3,11.62,1.54,1.54,1.12,1,4.23-.28,6.65s-5,7.49-6.75,7-2-6.52,5-13.47c-6.31-.57-10.4.14-10.59-.81C1205.27,430.87,1211,417.05,1212.18,415.42Z"/>
        <path class="cls-25" d="M1197.65,404.54s.14-2.74-2.27-2.21-7.25,14.22-7.25,14.22l-8.74.3a16.85,16.85,0,0,0-3.57-.13c-.12,0,1.26,1.15,1.13,1.21-.34.16.41-.26,0,0a9,9,0,0,0-3.3,3.66c-3.66,7.42,0,5.92,6.79-2.66l7.61,1.41a2.27,2.27,0,0,0,2.44-1.22Z"/>
      </g>
    </g>
  </g>
</svg>
