<svg id="Layer_1" data-name="Layer 1" xmlns="http://www.w3.org/2000/svg" viewBox="0 0 128 128"><path d="M43.57,83.45q0-.42-.06-1c0-.32-.07-.7-.1-1.14s0-.9-.09-1.38A9.47,9.47,0,0,1,39.41,83a12.79,12.79,0,0,1-5.11,1,9.52,9.52,0,0,1-7.67-3.23q-2.73-3.24-2.73-9.24,0-7.26,4.41-11.2t12.56-3.92c.89,0,1.7,0,2.43,0s1.46.12,2.19.21,1.48.24,2.25.4,1.62.38,2.56.66v17c0,.92,0,1.89.06,2.9s.1,2,.18,2.79c.08,1,.16,2,.24,3ZM42.32,63.89a14.07,14.07,0,0,0-1.9-.31c-.57,0-1.1,0-1.58,0a6.4,6.4,0,0,0-5.13,2.13,8.76,8.76,0,0,0-1.83,5.91A5.88,5.88,0,0,0,33,75.41a3.84,3.84,0,0,0,3.12,1.32,5.66,5.66,0,0,0,2.41-.54,6.07,6.07,0,0,0,2-1.53,7.59,7.59,0,0,0,1.35-2.34,9,9,0,0,0,.49-3Z"/><path d="M93.38,83.45V70.39c0-2.35-.34-4-1-4.9a3.23,3.23,0,0,0-2.74-1.37,4.2,4.2,0,0,0-1.79.43A4.71,4.71,0,0,0,86.19,66,7.7,7.7,0,0,0,85,68.57a15.91,15.91,0,0,0-.44,4.1V83.45h-8V70.39a9.43,9.43,0,0,0-.93-4.75,3.35,3.35,0,0,0-3.09-1.52,4.34,4.34,0,0,0-3.54,2c-1,1.35-1.5,3.52-1.5,6.52V83.45h-8V66.87c0-1,0-1.85-.06-2.65s-.12-1.54-.21-2.24a17,17,0,0,0-.42-2c-.18-.66-.39-1.36-.64-2.1h8c.19.62.34,1.09.45,1.4s.21.76.33,1.33A18.64,18.64,0,0,1,71.13,58a13.28,13.28,0,0,1,5.48-1,9.33,9.33,0,0,1,4.09.87,6.13,6.13,0,0,1,2.71,2.43,8.94,8.94,0,0,1,4-2.46A16.88,16.88,0,0,1,92.59,57a8.54,8.54,0,0,1,6.48,2.39c1.52,1.6,2.29,3.91,2.29,6.94V83.45Z"/></svg>