<svg id="Layer_1" data-name="Layer 1" xmlns="http://www.w3.org/2000/svg" viewBox="0 0 311.59 128"><defs><style>.cls-1{fill:#f2f2f2;}</style></defs><path class="cls-1" d="M41.87,65.93a23.75,23.75,0,0,1-1.38,8.29A17.45,17.45,0,0,1,30.36,84.63a21.42,21.42,0,0,1-8,1.45,40.58,40.58,0,0,1-8-.84A36.76,36.76,0,0,1,6.83,83V31.21H17.47V55A12.59,12.59,0,0,1,22,51.9a15.85,15.85,0,0,1,5.81-1,15,15,0,0,1,5.73,1.06A12.38,12.38,0,0,1,38,55a13.87,13.87,0,0,1,2.85,4.75A18.12,18.12,0,0,1,41.87,65.93ZM31.23,67.86A7,7,0,0,0,29.62,63,5.81,5.81,0,0,0,25.1,61.2a7.37,7.37,0,0,0-5.66,2.42,7.41,7.41,0,0,0-1.54,2.57,9.12,9.12,0,0,0-.51,3v6.08a10.05,10.05,0,0,0,2.52.94,16,16,0,0,0,2.91.22A8.25,8.25,0,0,0,29,74.2,8.64,8.64,0,0,0,31.23,67.86Z"/><path class="cls-1" d="M75.79,85.12a15,15,0,0,1-.68-1.84c-.13-.48-.28-1.18-.44-2.08a15.69,15.69,0,0,1-11.28,4.88,11.62,11.62,0,0,1-4.76-1,12,12,0,0,1-3.84-2.68,11.83,11.83,0,0,1-2.52-4.13,15.51,15.51,0,0,1-.88-5.37q0-3.27.16-6.08t.24-5.37c.05-1.71.05-3.43,0-5.14s-.19-3.53-.4-5.45H62c.16,1.75.25,3.43.28,5s0,3.23,0,4.82-.08,3.21-.16,4.86S62,69,62,70.85a8.79,8.79,0,0,0,.5,3.28,3.82,3.82,0,0,0,1.29,1.74,4,4,0,0,0,1.63.65,10.15,10.15,0,0,0,1.42.12,8.46,8.46,0,0,0,1.7-.31A5.64,5.64,0,0,0,71,74.86a9.83,9.83,0,0,0,2.12-3.39,16,16,0,0,0,.92-6V50.88H84.67V74.14a39.67,39.67,0,0,0,.48,6.07,20,20,0,0,0,1.28,4.91Z"/><path class="cls-1" d="M100.43,86.08V58.48h-7v-7.6h7V42h10.48v8.88h9v7.6h-9v27.6Z"/><path class="cls-1" d="M129,86.08V58.48h-7v-7.6h7V42h10.48v8.88h9v7.6h-9v27.6Z"/><path class="cls-1" d="M183.07,60.56a9.07,9.07,0,0,1-1.42,5,12,12,0,0,1-4,3.8,22.07,22.07,0,0,1-6.23,2.44,35,35,0,0,1-8.15.88c-.28,0-.6,0-1,0s-.8,0-1.3,0a7.41,7.41,0,0,0,2.4,4.76A7.64,7.64,0,0,0,168.57,79a23.67,23.67,0,0,0,11.78-3.6v8.4a23.32,23.32,0,0,1-5.8,2.52,24.56,24.56,0,0,1-6.28.76,20.71,20.71,0,0,1-7.24-1.2,14.7,14.7,0,0,1-5.48-3.48A15.63,15.63,0,0,1,152.11,77a20.1,20.1,0,0,1-1.2-7.16,22.25,22.25,0,0,1,1.4-8,18.61,18.61,0,0,1,3.92-6.28,17.25,17.25,0,0,1,6-4.08A20.31,20.31,0,0,1,170,50q5.92,0,9.48,2.88A9.39,9.39,0,0,1,183.07,60.56Zm-10.64.8a2.78,2.78,0,0,0-1.1-2.2,4.11,4.11,0,0,0-2.76-.92A6.27,6.27,0,0,0,164,60.12a8.9,8.9,0,0,0-2.46,5.16,7.37,7.37,0,0,0,1.27.16H164Q172.43,65.44,172.43,61.36Z"/><path class="cls-1" d="M215.87,60.72c-.75-.16-1.33-.27-1.76-.32a10.58,10.58,0,0,0-1.44-.08,8.13,8.13,0,0,0-6.92,3.12q-2.35,3.12-2.36,9.29V86.08H192.75V63c0-1.3,0-2.44,0-3.41s-.09-1.86-.2-2.7-.25-1.65-.44-2.47-.44-1.73-.76-2.77h10.1q.26,1,.45,1.68a7.79,7.79,0,0,1,.29,1.31c.06.41.11.85.17,1.32a15.75,15.75,0,0,1,.08,1.68A18.1,18.1,0,0,1,207,52.39,8.74,8.74,0,0,1,212,50.88a7.67,7.67,0,0,1,1.88.2,19.09,19.09,0,0,1,2.12.78Z"/><path class="cls-1" d="M248.19,86.08l.08-43.44c-.43-.48-.81-.88-1.16-1.2a12.59,12.59,0,0,0-1.2-1,6.64,6.64,0,0,0-1.52-.8,5.88,5.88,0,0,0-2.12-.32,8,8,0,0,0-3,.52,4.76,4.76,0,0,0-2.16,1.8,9.24,9.24,0,0,0-1.32,3.48,30.37,30.37,0,0,0-.44,5.72h8.32v7.68h-8.16V86.08H224.83V58.48h-6.72v-7.6h6.56a39.75,39.75,0,0,1,1.12-10.52,15.74,15.74,0,0,1,3-6.08,8.65,8.65,0,0,1,4.28-2.8,19.19,19.19,0,0,1,5.24-.68,17.35,17.35,0,0,1,5,.64,27,27,0,0,1,5.12,2.24l.08-2.48h10.32V86.08Z"/><path class="cls-1" d="M304,97.59a17.43,17.43,0,0,1-3.49,7.35,12.59,12.59,0,0,1-6.07,3.87,31,31,0,0,1-8.84,1.11,26.46,26.46,0,0,1-5.15-.52c-1.71-.35-3.51-.82-5.38-1.4v-8c1.76.14,3.44.25,5,.34s3.15.13,4.7.13a11.32,11.32,0,0,0,4.29-.74,6.58,6.58,0,0,0,3-2.42,11.6,11.6,0,0,0,1.69-4.45,38,38,0,0,0,.52-6.79V81.76a13.72,13.72,0,0,1-10,4.32,11.68,11.68,0,0,1-4.6-.94,10.91,10.91,0,0,1-3.8-2.7,13.39,13.39,0,0,1-2.56-4.22,15.36,15.36,0,0,1-1-5.6c0-1.87,0-3.67.08-5.4s.08-3.44.08-5.16,0-3.49,0-5.32-.12-3.78-.28-5.86h10.64q.24,3.18.28,5.89c0,1.81,0,3.52,0,5.12s-.05,3.15-.08,4.62,0,2.94,0,4.38a6.62,6.62,0,0,0,1.18,4.39,4.28,4.28,0,0,0,3.39,1.36,6.48,6.48,0,0,0,4.91-2.21,8.44,8.44,0,0,0,2-5.94V50.88h10.64v35.2A49.56,49.56,0,0,1,304,97.59Z"/></svg>