<svg id="Layer_1" data-name="Layer 1" xmlns="http://www.w3.org/2000/svg" viewBox="0 0 128 128"><path d="M56.27,52.35A3.3,3.3,0,0,1,54.89,55a5.53,5.53,0,0,1-6.66,0,3.58,3.58,0,0,1-1.44-2.74,3.24,3.24,0,0,1,1.32-2.75,5.33,5.33,0,0,1,3.48-1.12,5.39,5.39,0,0,1,1.77.3,4.75,4.75,0,0,1,1.5.84,4.33,4.33,0,0,1,1,1.27A3.31,3.31,0,0,1,56.27,52.35ZM47.27,86V59.6h8V86Z"/><path d="M83.33,78.67a7.55,7.55,0,0,1-2.54,6q-2.55,2.22-7.15,2.22a30,30,0,0,1-6.09-.6,17.26,17.26,0,0,1-4.8-1.62l1-6.12a20.48,20.48,0,0,0,9.12,2.7,2.56,2.56,0,0,0,1.89-.57,1.75,1.75,0,0,0,.57-1.29,2.32,2.32,0,0,0-.45-1.47,7,7,0,0,0-2.19-1.41,34.38,34.38,0,0,1-4.23-2.16A14,14,0,0,1,65.6,72.1,7.47,7.47,0,0,1,64,69.62a8.28,8.28,0,0,1-.51-3,6.77,6.77,0,0,1,2.9-5.85A12.78,12.78,0,0,1,74,58.7a24.12,24.12,0,0,1,4.47.38,21.14,21.14,0,0,1,4.48,1.54l-1,6.05A14.8,14.8,0,0,0,77.82,65a19.17,19.17,0,0,0-3.94-.44,2.77,2.77,0,0,0-1.91.5,1.81,1.81,0,0,0-.52,1.35,2,2,0,0,0,.82,1.65,17,17,0,0,0,3.2,1.66,36.38,36.38,0,0,1,3.64,2.06,13.46,13.46,0,0,1,2.46,2,6.63,6.63,0,0,1,1.36,2.22A7.94,7.94,0,0,1,83.33,78.67Z"/></svg>