<svg id="Layer_1" data-name="Layer 1" xmlns="http://www.w3.org/2000/svg" viewBox="0 0 128 128"><path d="M65.65,59.77a15.12,15.12,0,0,1-1,5.68,11.35,11.35,0,0,1-2.81,4.16,12.17,12.17,0,0,1-4.36,2.57,18.75,18.75,0,0,1-11.29,0,12.17,12.17,0,0,1-4.36-2.57A11.66,11.66,0,0,1,39,65.45a16.16,16.16,0,0,1,0-11.22,11.58,11.58,0,0,1,2.78-4.13,11.7,11.7,0,0,1,4.36-2.57,19.15,19.15,0,0,1,11.38,0A12.07,12.07,0,0,1,61.86,50a11.07,11.07,0,0,1,2.81,4.13A14.91,14.91,0,0,1,65.65,59.77Zm-8,0a5.53,5.53,0,0,0-5.94-6.05,5.6,5.6,0,0,0-4.27,1.59A6.29,6.29,0,0,0,46,59.78a6.63,6.63,0,0,0,1.46,4.58A5.47,5.47,0,0,0,51.73,66a5.87,5.87,0,0,0,4.4-1.58A6.36,6.36,0,0,0,57.67,59.78Z"/><path d="M90.37,73.05v-15A6.09,6.09,0,0,0,90,55.64a3.51,3.51,0,0,0-.93-1.3,2.36,2.36,0,0,0-1.14-.52,7.05,7.05,0,0,0-1-.09,5.82,5.82,0,0,0-1.26.24,4.28,4.28,0,0,0-1.83,1.1,7.35,7.35,0,0,0-1.65,2.54,11.64,11.64,0,0,0-.72,4.51V73.05h-8V55.6a30,30,0,0,0-.36-4.55,14.85,14.85,0,0,0-1-3.68h8a12.15,12.15,0,0,1,.51,1.38q.15.54.33,1.56a12.54,12.54,0,0,1,4.12-2.76,11.89,11.89,0,0,1,4.47-.9,8.61,8.61,0,0,1,3.49.71,8.36,8.36,0,0,1,2.8,2,9.07,9.07,0,0,1,1.85,3.1,11.87,11.87,0,0,1,.67,4.12V73.05Z"/></svg>