<svg id="Layer_1" data-name="Layer 1" xmlns="http://www.w3.org/2000/svg" viewBox="0 0 133.14 128"><defs><style>.cls-1{fill:#f2f2f2;}</style></defs><path class="cls-1" d="M41.13,65.93a23.52,23.52,0,0,1-1.39,8.29A17.39,17.39,0,0,1,29.62,84.63a21.46,21.46,0,0,1-8,1.45,40.76,40.76,0,0,1-8-.84A36.66,36.66,0,0,1,6.09,83V31.21H16.73V55a12.59,12.59,0,0,1,4.56-3.07,15.85,15.85,0,0,1,5.81-1,15.1,15.1,0,0,1,5.73,1.06,12.38,12.38,0,0,1,4.44,3,14,14,0,0,1,2.85,4.75A18.12,18.12,0,0,1,41.13,65.93ZM30.49,67.86A7,7,0,0,0,28.88,63a5.83,5.83,0,0,0-4.53-1.77,7.43,7.43,0,0,0-7.19,5,9.12,9.12,0,0,0-.51,3v6.08a10.05,10.05,0,0,0,2.52.94,16,16,0,0,0,2.91.22,8.28,8.28,0,0,0,6.17-2.28A8.68,8.68,0,0,0,30.49,67.86Z"/><path class="cls-1" d="M81.69,60.56a9.08,9.08,0,0,1-1.43,5,11.84,11.84,0,0,1-4,3.8A22.31,22.31,0,0,1,70,71.76a35.1,35.1,0,0,1-8.15.88c-.28,0-.6,0-1,0s-.79,0-1.29,0A7.41,7.41,0,0,0,62,77.32,7.61,7.61,0,0,0,67.18,79,23.71,23.71,0,0,0,79,75.44v8.4a23.48,23.48,0,0,1-5.8,2.52,24.62,24.62,0,0,1-6.28.76,20.71,20.71,0,0,1-7.24-1.2,14.7,14.7,0,0,1-5.48-3.48A15.48,15.48,0,0,1,50.73,77a20.1,20.1,0,0,1-1.2-7.16,22,22,0,0,1,1.4-8,18.61,18.61,0,0,1,3.92-6.28,17.25,17.25,0,0,1,6-4.08A20.27,20.27,0,0,1,68.65,50q5.91,0,9.48,2.88A9.39,9.39,0,0,1,81.69,60.56Zm-10.64.8a2.78,2.78,0,0,0-1.1-2.2,4.11,4.11,0,0,0-2.76-.92,6.31,6.31,0,0,0-4.57,1.88,9,9,0,0,0-2.45,5.16,7.26,7.26,0,0,0,1.27.16h1.18Q71.05,65.44,71.05,61.36Z"/><path class="cls-1" d="M121,60.56a9.08,9.08,0,0,1-1.43,5,11.84,11.84,0,0,1-4,3.8,22.31,22.31,0,0,1-6.23,2.44,35.13,35.13,0,0,1-8.16.88c-.27,0-.6,0-1,0s-.79,0-1.29,0a7.41,7.41,0,0,0,2.4,4.76A7.61,7.61,0,0,0,106.46,79a23.71,23.71,0,0,0,11.79-3.6v8.4a23.48,23.48,0,0,1-5.8,2.52,24.62,24.62,0,0,1-6.28.76,20.71,20.71,0,0,1-7.24-1.2,14.7,14.7,0,0,1-5.48-3.48A15.48,15.48,0,0,1,90,77a20.1,20.1,0,0,1-1.2-7.16,22,22,0,0,1,1.4-8,18.61,18.61,0,0,1,3.92-6.28,17.25,17.25,0,0,1,6-4.08A20.27,20.27,0,0,1,107.93,50q5.91,0,9.48,2.88A9.39,9.39,0,0,1,121,60.56Zm-10.64.8a2.78,2.78,0,0,0-1.1-2.2,4.12,4.12,0,0,0-2.77-.92,6.3,6.3,0,0,0-4.56,1.88,9,9,0,0,0-2.45,5.16,7.26,7.26,0,0,0,1.27.16h1.18Q110.33,65.44,110.33,61.36Z"/></svg>