<svg id="Neutral" xmlns="http://www.w3.org/2000/svg" width="236.94" height="407.49" viewBox="0 0 236.94 407.49">
  <defs>
    <style>
      .cls-1 {
        fill: #010101;
        opacity: 0.3;
      }

      .cls-2 {
        fill: #352618;
      }

      .cls-3 {
        fill: #e16faa;
      }

      .cls-3, .cls-32 {
        stroke: #333232;
      }

      .cls-11, .cls-16, .cls-19, .cls-20, .cls-21, .cls-3, .cls-32, .cls-43, .cls-5, .cls-8 {
        stroke-miterlimit: 10;
      }

      .cls-4 {
        fill: #cf609c;
      }

      .cls-5 {
        fill: #f9f17b;
        stroke: #9a9434;
      }

      .cls-6 {
        fill: #ba852c;
      }

      .cls-7 {
        fill: #f36b21;
      }

      .cls-11, .cls-8 {
        fill: #f8d9d1;
        stroke: #4b2911;
      }

      .cls-8 {
        stroke-width: 0.5px;
      }

      .cls-9 {
        fill: #e8c0b8;
      }

      .cls-10 {
        fill: #342618;
      }

      .cls-12 {
        fill: #b26b52;
      }

      .cls-13 {
        fill: #eaa798;
        opacity: 0.5;
      }

      .cls-14 {
        fill: #8d3e36;
      }

      .cls-15 {
        fill: #f04c3c;
      }

      .cls-16 {
        fill: #e26fab;
      }

      .cls-16, .cls-19 {
        stroke: #af2086;
      }

      .cls-16, .cls-19, .cls-21 {
        stroke-width: 2px;
      }

      .cls-17 {
        fill: #fbf179;
      }

      .cls-18 {
        fill: #c6268f;
      }

      .cls-19 {
        fill: #d45ba2;
      }

      .cls-20 {
        fill: #e8d861;
        stroke: #bba73d;
      }

      .cls-21 {
        fill: #0e7577;
        stroke: #0d7878;
      }

      .cls-22 {
        fill: #dc9e8f;
        opacity: 0.63;
      }

      .cls-23 {
        fill: #00b6c2;
      }

      .cls-24 {
        fill: #0d7878;
      }

      .cls-25 {
        fill: #0b2d2e;
        opacity: 0.22;
      }

      .cls-26, .cls-43 {
        fill: #fff;
      }

      .cls-27 {
        fill: #dcdbdb;
      }

      .cls-28 {
        fill: #a0d3f2;
      }

      .cls-29 {
        fill: #f16140;
      }

      .cls-30 {
        fill: #344256;
      }

      .cls-31 {
        fill: #c54931;
      }

      .cls-32 {
        fill: #f9d1c7;
      }

      .cls-32, .cls-43 {
        stroke-width: 0.75px;
      }

      .cls-33 {
        fill: #2a4c89;
      }

      .cls-34 {
        fill: #6fceed;
      }

      .cls-35 {
        fill: #222f64;
      }

      .cls-36 {
        fill: #55caf4;
      }

      .cls-37 {
        fill: #1f438a;
      }

      .cls-38 {
        fill: #f6ecf4;
      }

      .cls-39 {
        fill: #38569e;
      }

      .cls-40 {
        fill: #47c6e8;
      }

      .cls-41 {
        fill: #1a446e;
      }

      .cls-42 {
        fill: #dbe1e5;
        opacity: 0.6;
      }

      .cls-43 {
        stroke: #3e2e18;
      }

      .cls-44 {
        fill: #3e2e18;
      }

      .cls-45 {
        fill: #7b302c;
      }

      .cls-46 {
        fill: #f6978f;
      }

      .cls-47 {
        fill: #f58878;
      }

      .cls-48 {
        fill: #fff7f4;
      }

      .cls-49 {
        fill: #f58b72;
      }
    </style>
  </defs>
  <g>
    <path class="cls-1" d="M63.37,385.89,34.64,403.32S-3,398,32.28,381.58Z"/>
    <path class="cls-1" d="M183.15,385.73s16.35,24.79,38.26,14.6S213.76,380.36,183.15,385.73Z"/>
    <ellipse class="cls-1" cx="121.13" cy="368.67" rx="105.72" ry="21.13"/>
    <path class="cls-2" d="M46,53.88s-11.49,47.83-7.11,77.24-10.74,37.95,8.52,54.57,56.9,24,72.94,8.16c0,0,10.7,3.16,36.3-.73s44.88-15.78,37.76-40.06-3.65-56.44-4.76-75.52S171.43,9.25,121.37,22.73,46,53.88,46,53.88Z"/>
    <path class="cls-3" d="M83.55,285.16s-.25-17-8.84,32.61c0,0-2.26,21.56,48,19.72s49.68-8.08,49.68-8.08-6.09-31.08-22.94-47C149.45,282.4,99.49,265.54,83.55,285.16Z"/>
    <path class="cls-4" d="M131.26,291.49s11,13.08,20.64,49.65c0,0-5.31-25.95-14.3-45.77,0,0-3.89-7.15,8.78-7.15,0,0,6.34-1.23,18,29,0,0-8.17-26.76-16.14-31.05S131.26,291.49,131.26,291.49Z"/>
    <path class="cls-5" d="M82.12,278.21a14.4,14.4,0,0,0-.3,9.6c1.73,4.91,22.47,6.34,34.83,6.34,12.09,0,30.15-1.08,37.34-6.39a2.75,2.75,0,0,0,.83-1.05,8.29,8.29,0,0,0-1.8-9.52C148.22,272.08,108.38,268.2,82.12,278.21Z"/>
    <path class="cls-3" d="M211.63,245.86s-8.6,11-37.72,14c0,0,3.33,22.23-3.32,44.71,0,0-10.4,7.71-51.16,7.08-48.94-.76-45.89-7.2-45.89-7.2S67.71,278.2,64.38,260c0,0-23.84-5.3-33.27-22,0,0,10.1-14.63,18.15-26.64a48.33,48.33,0,0,1,18.39-16.08c12.08-6.12,31.52-14.82,50.53-18.41l24.68,8.59s32.44,3.29,40.48,12.88S211.63,245.86,211.63,245.86Z"/>
    <g>
      <path class="cls-5" d="M130,254a5.6,5.6,0,0,1-.66,1.23,6.48,6.48,0,0,1-2.81,2.27c-1.71.71-6.76.18-7.45-1.91.81,2.43,2,3.64.74,6.34a8.33,8.33,0,0,1-1.65,2.35,10.5,10.5,0,0,1-1.13,1,9.6,9.6,0,0,1-2.48,1.33,7.24,7.24,0,0,1-1.81.41,6.84,6.84,0,0,1-1.28,0c-4.64-.43-7.88-5.7-6.6-10.54-.22.85-3.16,2.23-3.94,2.43a10,10,0,0,1-6.07-.17,7.12,7.12,0,0,1-1.63-.87,7.21,7.21,0,0,1-1.11-1,5.91,5.91,0,0,1-1.47-4.14h0c0-.32,0-.65,0-1,0-.13,0-.27,0-.41.6-4.53,4.81-7.85,9.31-6.34-2.51-2.78-4.49-6-3.43-8.66a4.48,4.48,0,0,1,.67-1.14,7.7,7.7,0,0,1,2.82-2,7.45,7.45,0,0,1,1.34-.48,6.63,6.63,0,0,1,1.57-.2,6.72,6.72,0,0,1,6.29,5.12c-.24-3,2.34-6.6,4.89-7.67a7.18,7.18,0,0,1,3.57-.4,10.24,10.24,0,0,1,1.71.37h0a10,10,0,0,1,3.84,2.13,6.24,6.24,0,0,1,.88,1,4.92,4.92,0,0,1,.37.56c2.65,4.72-1.6,8.91-5,11.73,3.87-1.62,9.1.47,10.49,4.44a6.19,6.19,0,0,1,.32,1.43,2.45,2.45,0,0,1,0,.27A5.71,5.71,0,0,1,130,254Z"/>
      <path class="cls-6" d="M115.19,253.73c3.29-2.61,4.64-7.46.84-11.17a7.8,7.8,0,0,0-11.7.88c-2.66,3.44-2.34,8.59,1.46,10.93A8,8,0,0,0,115.19,253.73Z"/>
      <path class="cls-7" d="M114.48,252.87c2.79-2.22,3.94-6.33.7-9.49a6.61,6.61,0,0,0-9.93.75c-2.26,2.92-2,7.3,1.23,9.29A6.82,6.82,0,0,0,114.48,252.87Z"/>
    </g>
    <g>
      <path class="cls-3" d="M177.08,220l2.36,4.54s-5.87,8.14-25.74,10.51c0,0-3.79-9.47-4.64-16.09"/>
      <path class="cls-3" d="M79.48,238.07s-2.13-8.37-1.56-23.57"/>
      <path class="cls-8" d="M116,190.22c-22.43-.85-14.39-11.64-14.39-11.64,0-.89,0-1.71,0-2.48-.1-4.36-.18-6.66,1.33-9,1.78-2.77,5.75-5.61,11.22-6a20.92,20.92,0,0,1,9.38,1.4,9.48,9.48,0,0,1,5.71,9.16,26.74,26.74,0,0,0,.14,4.24c.51,4.17,2.09,4.23,2.09,4.23C132.87,189.94,116,190.22,116,190.22Z"/>
      <path class="cls-9" d="M129.18,176.26a38.9,38.9,0,0,1-12.07,3.41c-5.61.53-11.86-1.88-15.19-3.42-.11-4.37-.19-6.67,1.32-9,1.78-2.78,5.76-5.62,11.22-6a20.94,20.94,0,0,1,9.38,1.39c3.65,1.5,5.19,5.22,5.06,9.16A26.06,26.06,0,0,0,129.18,176.26Z"/>
      <path class="cls-10" d="M185.26,86.19c0,40.11-31.62,65.6-71,65.6S42.84,119.28,42.84,79.18,63.5,5.07,115.45,5.07C169.92,5.07,185.26,46.09,185.26,86.19Z"/>
      <g>
        <path class="cls-11" d="M59.57,118.16c-2.82-3.82-6.5-7.5-10.89-6.79s-6.5,4.81-5.65,11.88,2.4,10.75,7.78,15,8.2,6.37,13.86,2.55C65.66,133,61,120.7,59.57,118.16Z"/>
        <path class="cls-12" d="M61.18,137.87a18.36,18.36,0,0,1-1.84-1.06,7,7,0,0,1-2.58-3.15,6.62,6.62,0,0,1-.38-4,7.12,7.12,0,0,1,.82-2.12,3.68,3.68,0,0,1,.24-.39l-.12-.25c-.25-.47-.51-1-.78-1.41a28,28,0,0,0-2.75-3.82A8.85,8.85,0,0,0,50,118.7a3,3,0,0,0-2.43.28,2.07,2.07,0,0,0-1.12,2,2,2,0,0,1,1.29-1.7,2.68,2.68,0,0,1,2.08-.06,9.38,9.38,0,0,1,3.37,2.9,41.64,41.64,0,0,1,2.84,3.63c.33.48.66,1,1,1.46a6.56,6.56,0,0,0-1.2,2.28,6.78,6.78,0,0,0,.25,4.44,6.91,6.91,0,0,0,3,3.34,13.39,13.39,0,0,0,2,.92,3.23,3.23,0,0,0,2.16.21A3.46,3.46,0,0,1,61.18,137.87Zm-12.41-7.24a8.61,8.61,0,0,1-.81-4.42,35.92,35.92,0,0,1,.67-4.65,19,19,0,0,0-1.24,4.61,8.42,8.42,0,0,0,.72,4.8,9.19,9.19,0,0,0,3.36,3.5,21.4,21.4,0,0,0,4.31,2,42.45,42.45,0,0,1-4-2.49A9.63,9.63,0,0,1,48.77,130.63Z"/>
      </g>
      <g>
        <path class="cls-11" d="M167.86,118.39c2.87-3.87,6.6-7.6,11-6.89s6.6,4.88,5.74,12.06-2.44,10.9-7.89,15.21-8.33,6.46-14.07,2.58C161.69,133.46,166.43,121,167.86,118.39Z"/>
        <path class="cls-12" d="M164.18,138.94a3.25,3.25,0,0,0,2.19-.22,13.34,13.34,0,0,0,2-.93,7,7,0,0,0,3-3.38,6.86,6.86,0,0,0,.26-4.51,6.65,6.65,0,0,0-1.22-2.31c.31-.51.64-1,1-1.48a39.69,39.69,0,0,1,2.88-3.69,9.46,9.46,0,0,1,3.42-2.94,2.71,2.71,0,0,1,2.11.06,2.06,2.06,0,0,1,1.31,1.72,2.09,2.09,0,0,0-1.14-2,3,3,0,0,0-2.47-.29,9,9,0,0,0-3.81,3,28.18,28.18,0,0,0-2.79,3.87c-.27.47-.54,1-.79,1.43l-.13.25a4.25,4.25,0,0,1,.25.39,7.21,7.21,0,0,1,.83,2.16,6.73,6.73,0,0,1-.39,4.09,7,7,0,0,1-2.61,3.19,18,18,0,0,1-1.86,1.08A3.59,3.59,0,0,1,164.18,138.94Zm11.58-4.48a42.47,42.47,0,0,1-4,2.53,22.09,22.09,0,0,0,4.38-2.05,9.53,9.53,0,0,0,3.41-3.55,8.66,8.66,0,0,0,.72-4.87,19.16,19.16,0,0,0-1.26-4.68,37.05,37.05,0,0,1,.69,4.72,8.87,8.87,0,0,1-.83,4.49A9.68,9.68,0,0,1,175.76,134.46Z"/>
      </g>
      <g>
        <path class="cls-11" d="M171.13,97.07c-.06.51,5.08,1,5,1.55-2,17.13-5.18,33.52-7.48,42a33.26,33.26,0,0,1-3.89,9,37.21,37.21,0,0,1-10.68,10.85,125,125,0,0,1-19,10.29,94.32,94.32,0,0,1-9.65,3.72,36.54,36.54,0,0,1-10.49,2,41,41,0,0,1-11.84-2.2c-9.15-2.85-18.83-7.81-24.06-10.56-7.65-4-16.95-12.56-19.14-21.67a427.14,427.14,0,0,1-8.19-42.63c-.77-5.76,4.17-8,8.9-25.08,6.34-22.91,15.08-32,51.19-32C174.84,42.4,173.14,79.39,171.13,97.07Z"/>
        <path class="cls-13" d="M55.57,122.37s6-38.67,18.79-49.14S89,56,89,56,92.46,75.6,114.56,84l-1-11.75A28.66,28.66,0,0,0,126.72,84l-2.13-14.82a228.8,228.8,0,0,1,33,16c16,9.59,14.19,37.26,14.19,37.26l9.41-51.14L111.81,38.08,77,36.71,53.47,69.15l3.66,25.28Z"/>
      </g>
      <path class="cls-14" d="M105.72,128.58a19,19,0,0,0,3.39,2.43,10.9,10.9,0,0,0,3.63,1.22,8.46,8.46,0,0,0,3.73-.31,12.62,12.62,0,0,0,3.6-1.95,6.68,6.68,0,0,1-3,3.38,7.29,7.29,0,0,1-4.63.86A8.35,8.35,0,0,1,105.72,128.58Z"/>
      <path class="cls-10" d="M169.72,63c-5.41-28.66-15-24.27-40.49-29.64-11.63-2.45-11.66-10.9-23.51-9.72C99,24.34,81,21.1,65.22,48c-9.92,17-26.16,31.76-19.4,52,6.2,19.26,9.75,22.37,9.75,22.37l.49-2.83c.16-2.17.36-4.33.45-6.49,1.59-40.76,19.78-41.3,34.1-65.61,3.83,3.57,8.51,6.28,12.84,8.82,8.22,4.83,16.72,9,25.32,13S146.09,76.69,154.58,81c21.75,11.09,17.18,41.35,17.18,41.36-.12-.76,2.62-4.22,3-4.85a75.28,75.28,0,0,0,5.55-10.84C186.76,91.11,173,80.1,169.72,63Z"/>
      <path class="cls-10" d="M111.81,54.89a37.23,37.23,0,0,0,0,24,51.87,51.87,0,0,1-21.88-36"/>
      <path class="cls-10" d="M105.72,52.34s.36,8.74,18.87,27.23c0,0-6.86-12.2-3-24.68"/>
      <path class="cls-15" d="M50.52,113.65A98.44,98.44,0,0,1,47,97.08a112.24,112.24,0,0,1-.88-17.14,26,26,0,0,1,.38-4.31c.27-1.42.56-2.84.85-4.25a85.42,85.42,0,0,1,2.13-8.44,72.26,72.26,0,0,1,7.05-16A59.9,59.9,0,0,1,67.74,33.2a68.4,68.4,0,0,1,14.55-9.91,70.13,70.13,0,0,1,34-7.45A74.87,74.87,0,0,1,149.88,25,60.45,60.45,0,0,1,164,35.61a45.11,45.11,0,0,1,5.64,7.07c.41.64.81,1.3,1.18,2s.69,1.29,1,1.94c.7,1.29,1.31,2.61,1.92,3.94A85.05,85.05,0,0,1,179.26,67c.63,2.83,1.15,5.68,1.51,8.54l.57,4.3a28.31,28.31,0,0,1,0,4.32c-.1,2.88-.34,5.75-.66,8.59s-.75,5.67-1.32,8.45a92.24,92.24,0,0,1-4.66,16.28,122,122,0,0,0,0-33c-.18-1.34-.46-2.67-.52-4s-.17-2.69-.37-4c-.34-2.67-.83-5.31-1.41-7.92a78.25,78.25,0,0,0-5-15.17c-.56-1.21-1.11-2.42-1.75-3.59-.31-.58-.61-1.19-.92-1.75s-.63-1.08-1-1.61a38.23,38.23,0,0,0-4.78-6,53.13,53.13,0,0,0-12.49-9.39,68,68,0,0,0-30.4-8.26,63.14,63.14,0,0,0-30.63,6.71,61.07,61.07,0,0,0-13,8.85,53,53,0,0,0-9.9,12.1A65,65,0,0,0,56.17,65a78.84,78.84,0,0,0-2,7.77c-.27,1.31-.45,2.64-.62,4s-.45,2.64-.74,4A122.77,122.77,0,0,0,50.66,97c-.2,2.75-.3,5.52-.32,8.3S50.35,110.84,50.52,113.65Z"/>
      <g>
        <g>
          <g>
            <path class="cls-16" d="M182.68,59.12c-5.28,5.61-5.91,13.61-13.88,6.08s-4.87-23.77-4.87-23.77,16-4,24,3.48S188,53.52,182.68,59.12Z"/>
            <path class="cls-16" d="M144.86,23.43c-5.29,5.61-13.24,6.69-5.26,14.22s24,3.48,24,3.48,3.11-16.25-4.87-23.77S150.15,17.83,144.86,23.43Z"/>
          </g>
          <circle class="cls-17" cx="156.19" cy="22.73" r="1.66"/>
          <circle class="cls-17" cx="159.25" cy="29.24" r="1.66"/>
          <circle class="cls-17" cx="149.36" cy="29.96" r="1.66"/>
          <path class="cls-17" d="M153.12,38.07a1.66,1.66,0,1,1-.07-2.35A1.67,1.67,0,0,1,153.12,38.07Z"/>
          <circle class="cls-17" cx="144.81" cy="34.79" r="1.66"/>
          <path class="cls-17" d="M162.36,33.11a1.66,1.66,0,0,0,.06,2.34,1.63,1.63,0,0,0,1.24.44c.05-1,.08-2.11,0-3.29A1.62,1.62,0,0,0,162.36,33.11Z"/>
          <path class="cls-17" d="M162.15,26.07a1.71,1.71,0,0,0,.81.42,20.93,20.93,0,0,0-.83-2.8l0,0A1.67,1.67,0,0,0,162.15,26.07Z"/>
          <path class="cls-17" d="M146.15,40.61v0a22.51,22.51,0,0,0,2.81.67,1.66,1.66,0,0,0-2.8-.69Z"/>
          <path class="cls-17" d="M157.87,40.27a1.67,1.67,0,0,0-2.34.07,1.63,1.63,0,0,0-.43,1.35c1.18,0,2.29-.12,3.29-.23A1.69,1.69,0,0,0,157.87,40.27Z"/>
          <path class="cls-17" d="M150.3,21.73A1.66,1.66,0,0,0,148.87,19c-.43.66-.88,1.37-1.37,2.08a1.61,1.61,0,0,0,.45.76A1.67,1.67,0,0,0,150.3,21.73Z"/>
          <path class="cls-17" d="M152.5,17a1.66,1.66,0,0,0,2.35-.07,1.64,1.64,0,0,0,.44-1.28,3.43,3.43,0,0,0-3.27-.18A1.65,1.65,0,0,0,152.5,17Z"/>
          <path class="cls-17" d="M141.12,29a1.66,1.66,0,1,0,2.28-2.41,1.63,1.63,0,0,0-.79-.41c-.69.53-1.36,1-2,1.48A1.64,1.64,0,0,0,141.12,29Z"/>
          <path class="cls-17" d="M138.92,33.79A1.66,1.66,0,0,0,137.31,31a3.44,3.44,0,0,0,.4,3.26A1.68,1.68,0,0,0,138.92,33.79Z"/>
          <circle class="cls-17" cx="182.72" cy="47.76" r="1.66"/>
          <circle class="cls-17" cx="175.62" cy="45.62" r="1.66"/>
          <circle class="cls-17" cx="175.89" cy="55" r="1.66"/>
          <path class="cls-17" d="M167.59,51.72a1.66,1.66,0,1,0,2.34-.07A1.66,1.66,0,0,0,167.59,51.72Z"/>
          <circle class="cls-17" cx="171.34" cy="59.82" r="1.66"/>
          <path class="cls-17" d="M172,42.21a1.66,1.66,0,0,1-2.34.06,1.62,1.62,0,0,1-.52-1.21c1-.11,2.11-.19,3.29-.23A1.66,1.66,0,0,1,172,42.21Z"/>
          <path class="cls-17" d="M179,42a1.69,1.69,0,0,1-.46-.78,21.81,21.81,0,0,1,2.85.67l0,0A1.66,1.66,0,0,1,179,42Z"/>
          <path class="cls-17" d="M165.45,58.82h0a21.92,21.92,0,0,1-.83-2.76,1.64,1.64,0,0,1,.85,2.75Z"/>
          <path class="cls-17" d="M165.11,47.1a1.66,1.66,0,0,1,.06,2.34,1.63,1.63,0,0,1-1.31.51c0-1.18,0-2.29,0-3.3A1.67,1.67,0,0,1,165.11,47.1Z"/>
          <path class="cls-17" d="M184.06,53.59a1.65,1.65,0,0,1,2.85,1.26c-.63.47-1.31,1-2,1.49a1.59,1.59,0,0,1-.79-.41A1.65,1.65,0,0,1,184.06,53.59Z"/>
          <path class="cls-17" d="M188.68,51.11a1.68,1.68,0,0,1-.07-2.35,1.66,1.66,0,0,1,1.26-.51,3.46,3.46,0,0,1,.37,3.25A1.67,1.67,0,0,1,188.68,51.11Z"/>
          <path class="cls-17" d="M177.3,63.17a1.66,1.66,0,0,1,2.28-2.42,1.6,1.6,0,0,1,.45.77l-1.37,2.08A1.66,1.66,0,0,1,177.3,63.17Z"/>
          <path class="cls-17" d="M172.68,65.65a1.65,1.65,0,0,1,2.83,1.44,3.47,3.47,0,0,1-3.27-.2A1.6,1.6,0,0,1,172.68,65.65Z"/>
        </g>
        <g>
          <g>
            <g>
              <path class="cls-18" d="M153.28,26.84c-2.53,1.69,6.14,9.2,6.14,9.2S155.81,25.15,153.28,26.84Z"/>
              <path class="cls-18" d="M150.27,33.55c-.94,1.82,8.13,4.24,8.13,4.24S151.22,31.74,150.27,33.55Z"/>
            </g>
            <g>
              <path class="cls-18" d="M178.78,50.9c-1.54,2.62-9.54-5.59-9.54-5.59S180.32,48.28,178.78,50.9Z"/>
              <path class="cls-18" d="M172.25,54.3c-1.75,1.05-4.69-7.87-4.69-7.87S174,53.25,172.25,54.3Z"/>
            </g>
          </g>
          <rect class="cls-19" x="158.8" y="36.29" width="9.95" height="9.95" rx="2.94" transform="translate(21.37 132.06) rotate(-46.66)"/>
        </g>
      </g>
    </g>
    <path class="cls-20" d="M52.83,139.42s5.05,10.53-1.17,12.32-4.29-10-4.29-10,1.62,9.92,3.54,3.79Z"/>
    <path class="cls-20" d="M175.18,140.08s-5.06,10.54,1.17,12.33,4.28-10,4.28-10-1.61,9.93-3.53,3.79Z"/>
    <g>
      <path class="cls-21" d="M58,253.93s.72,7.94-6.4-2.49-13-25.82-13-25.82-2.32-5.31,2.14-3.65S58,253.93,58,253.93Z"/>
      <path class="cls-22" d="M42.1,221.55l.19-.06c1,1,15.91,16.1,17.24,25.41a87,87,0,0,1-7.18,5.51c-4.26-11.94-11.8-23.13-14.79-27.33Z"/>
      <g>
        <line class="cls-23" x1="70.32" y1="246.53" x2="71.53" y2="222.24"/>
        <polygon class="cls-24" points="69.32 246.48 71.53 222.24 71.31 246.58 69.32 246.48"/>
      </g>
      <g>
        <line class="cls-23" x1="172.69" y1="263.06" x2="172.39" y2="230.63"/>
        <polygon class="cls-24" points="171.69 263.07 172.39 230.63 173.69 263.05 171.69 263.07"/>
      </g>
      <path class="cls-25" d="M172.75,257.78l-.09,8-.08-14.75s20.27-12.26,25.28-20.24l4.89,7S192.75,247.59,172.75,257.78Z"/>
      <path class="cls-25" d="M63,250.06l-5.39,5.77c-4.54-22.62-18.69-34-18.69-34l5.47-5.11C48.81,221.16,62.49,235.79,63,250.06Z"/>
      <g>
        <g>
          <path class="cls-26" d="M43.92,317.11c-9.17-16.18-4.35-30.82-14.46-46.35-2.58-4-6.18-36.52-9.15-55,22.41-5.81,71.15-3.14,96.8,41.38,0,.42-12.65,57.87-13.77,63.9a72.63,72.63,0,0,0-27.44-8.21A70.32,70.32,0,0,0,43.92,317.11Z"/>
          <path class="cls-27" d="M103.44,321.33l-.14-.07a72.05,72.05,0,0,0-27.41-8.21A70.66,70.66,0,0,0,44,317.32c-4.44-7.83-5.77-15.45-6.92-22.74-1.27-8.06-2.46-15.67-7.68-23.67-1.81-2.79-4.09-19.26-6.3-35.19-1-7.3-2.92-20.12-2.92-20.12l.15,0c10.73-2.79,28.77-3.77,47.23,1.81A84.83,84.83,0,0,1,117.21,257c0,.19-.77,4.12-5.11,24.05C108.54,297.38,103.44,321.33,103.44,321.33Zm-34.72-9c2.39,0,4.79.09,7.19.32a72.28,72.28,0,0,1,27.34,8.15c.76-4,13.5-62.43,13.71-63.57C92.58,215,46,209.4,20.49,216c.9,5.67,1.85,12.48,2.85,19.69,2.19,15.87,4.46,32.27,6.22,35,5.27,8.09,6.53,16.12,7.75,23.88,1.14,7.21,2.31,14.67,6.66,22.38A69.75,69.75,0,0,1,68.72,312.31Z"/>
        </g>
        <g>
          <path class="cls-26" d="M30,284.94c-.45-1.05-12.75-48.36-14.57-57.22,21.81-12.32,72.34-10.44,101.65,29.43,0,.42-12.65,57.87-13.77,63.9C95.18,316.69,41.3,292.16,30,284.94Z"/>
          <path class="cls-27" d="M103.44,321.33l-.14-.07c-2.78-1.49-10.73-5.25-20.79-10-19-9-45.1-21.36-52.53-26.12-.4-.92-12.72-47.92-14.66-57.35l0-.19.12-.07c11.81-6.67,30.23-8.53,48.08-4.87A87.66,87.66,0,0,1,117.21,257c0,.19-.77,4.12-5.11,24.05C108.54,297.38,103.44,321.33,103.44,321.33ZM30.13,284.77c7.48,4.77,33.47,17.08,52.46,26.07,9.9,4.68,17.76,8.4,20.66,9.94.76-4,13.48-62.34,13.71-63.57a87.33,87.33,0,0,0-53.5-34.13c-17.74-3.65-36-1.82-47.83,4.77C17.66,237.57,29.46,282.79,30.13,284.77Z"/>
        </g>
        <path class="cls-28" d="M13.24,243.07c.81-1,1-1.16,2-2.16,36.59-10.27,68.46-.77,89,16.21.78,6.53,4.16,74.49,2.83,82.94C77.79,330.48,39.37,236.8,13.24,243.07Z"/>
        <path class="cls-29" d="M35.32,334.62c-5.86-26.05-16-63.35-22.08-91.55A95.11,95.11,0,0,1,103.86,259c.78,6.34,5.51,72.93,4.17,81.15C78.79,330.86,61.45,328.53,35.32,334.62Z"/>
        <g>
          <path class="cls-26" d="M199.69,316.83c2.64-11.78,1.94-93.84,4.36-112.33-20.22-5.22-77.58,8.63-86.93,53.13,0,.42,16.54,57.26,17.83,63.28C143,316.48,190,313.19,199.69,316.83Z"/>
          <path class="cls-27" d="M134.86,321.19l0-.21c-.83-3.88-8.16-29.42-13-46.32-4.16-14.48-4.84-16.87-4.83-17a57.91,57.91,0,0,1,14.74-28,79.61,79.61,0,0,1,24.74-17.43c18.38-8.52,37.86-10.44,47.61-7.92l.15,0,0,.22c-1.16,8.88-1.61,32.78-2.05,55.9-.48,25.87-.94,50.32-2.32,56.46l0,.18-.12-.05c-9.27-3.46-56.4-.48-64.66,4.08Zm-17.6-63.52c.11.47,16.76,58.47,17.78,63,4.41-2.31,19-4.18,31.63-5,11.83-.78,27.48-1,32.93.94,1.33-6.39,1.8-31.68,2.26-56.16.43-22.94.88-46.66,2-55.74-9.77-2.45-29.1-.51-47.34,8C135.25,222.51,121.31,238.52,117.26,257.67Z"/>
        </g>
        <g>
          <path class="cls-26" d="M199.69,316.83c2.64-11.78,10.6-83.93,13-102.42-22.57-5.61-74.6-.67-95.6,43.22,0,.42,16.54,57.26,17.83,63.28C143,316.48,190,313.19,199.69,316.83Z"/>
          <path class="cls-27" d="M134.86,321.19l0-.21c-.83-3.88-8.16-29.42-13-46.32-4.16-14.48-4.84-16.87-4.83-17,11.63-24.31,32.16-35.43,47.32-40.37,19.37-6.33,38.21-5.59,48.44-3.05l.14,0s-2,16.65-3.51,29.11c-3.26,27.59-7.71,65.37-9.55,73.55l0,.18-.12-.05c-9.27-3.46-56.4-.48-64.66,4.08Zm-17.6-63.52c.17.69,16.76,58.47,17.78,63,4.41-2.31,19-4.18,31.63-5,11.83-.78,27.48-1,32.93.94,1.85-8.5,6.26-45.93,9.49-73.31,1.46-12.3,2.71-22.94,3.46-28.67C191.51,209.43,138.64,213.13,117.26,257.67Z"/>
        </g>
        <g>
          <path class="cls-26" d="M214.22,282.23c.42-1,3.41-47.29,4.22-55.79C197.6,216.33,144.33,220,116.7,258.19c0,.43,17,56.7,18.25,62.72C143,316.48,203.15,289.55,214.22,282.23Z"/>
          <path class="cls-27" d="M134.86,321.19l0-.21c-.85-3.94-8.5-29.71-13.56-46.75-4.09-13.78-4.7-15.88-4.7-16.05,12.2-16.84,31.24-29.08,53.53-34.18,18.08-4.13,37.07-3.25,48.39,2.24,0,0-1,14.65-1.81,26-1.29,18.35-2.1,29.53-2.33,30.12-7.08,4.68-34.84,17.71-55.06,27.17-11.47,5.36-21.38,10-24.28,11.59Zm-18-62.92C117.06,259,134,316,135,320.64c3.05-1.66,12.38-6,24.16-11.53,20.16-9.43,47.76-22.34,54.91-27,.26-1.23,1.33-16.44,2.28-29.89.79-11.17,1.54-21.73,1.9-25.59-11.3-5.42-30.17-6.28-48.15-2.16C147.93,229.51,129,241.52,116.86,258.27Z"/>
        </g>
        <path class="cls-30" d="M132.6,258.93c0,1.29-6,3.91-14.15,3.94s-14.78-2.58-14.59-3.85c.14-.91,6.47-3.13,14.61-3.17S132.59,258.2,132.6,258.93Z"/>
        <path class="cls-28" d="M104.17,267.39c-.06-4.05-.31-7.87-.34-10.58,10.8,3,19,3.17,28.78.18.15,1.79-.66,9.54-.46,11.67C125.14,272.12,110,273.28,104.17,267.39Z"/>
        <path class="cls-31" d="M108,340.17c-.87-22.14-3.19-54.26-4.17-81.15,10.69,2.23,18.94,2.81,28.74-.09.75,5.77,3.57,72.9,4.49,81.33C130.08,343.63,113.9,345.88,108,340.17Z"/>
        <path class="cls-28" d="M223.22,239.12c-.07-.33-.33-1.18-.63-2-29.56-7-70,2.73-90,19.89-.51,6.05,1.38,12.39,2.14,21C169.59,269.88,213.34,238.75,223.22,239.12Z"/>
        <path class="cls-29" d="M208.58,338c4.39-28.89,10.46-70.54,14.64-98.89-29.57-6.79-70.6,3.14-90.62,19.81.26,5.79-1.55,74.77-.79,83.17C166.66,334.18,198.84,334.37,208.58,338Z"/>
      </g>
      <g>
        <path class="cls-32" d="M24,292.29s4.86,4.42,1.63,8.72c-2.57,3.42-14.53-4.58-17.87-9.74-1.78-2.76-4.54-8.73-1.95-13.13,0,0-2.11-7,2-9.58,0,0-2.76-9.9,6.82-12.17h1.29Z"/>
        <path class="cls-32" d="M7.8,284.94s3.41,7.63,15.42,8.28,8.62-7.39,8.62-7.39l-18.2-7.69"/>
        <path class="cls-32" d="M15.59,270.34s24.34,4.54,21.74,12.5c-1.91,5.87-20.6,2.59-26.77-2.93"/>
        <path class="cls-32" d="M12.51,270.75a31.44,31.44,0,0,0,14.6,5.84c8.52,1,10.71-3.17,7.55-6.33s-20-8.28-20-8.28"/>
      </g>
      <g>
        <path class="cls-32" d="M213.39,288.1a79.71,79.71,0,0,1-3.84,7.55c-1.61,2.55,1,5.75,5.29,3.13s8.29-9.19,5.8-13.52S213.39,288.1,213.39,288.1Z"/>
        <path class="cls-32" d="M223.7,277.45s2.87,4-3.06,9.31-24.77,2.87-15.13-5.79S223.7,277.45,223.7,277.45Z"/>
        <path class="cls-32" d="M224.93,267.88s2.67,6.24-2.12,10.48-15.4,5.08-20.5,1.86-.63-8.26,3.24-8.46S224.93,267.88,224.93,267.88Z"/>
        <path class="cls-32" d="M219.56,263.68s-13.18-1.52-15.26,4.33,14.34,8,19.89,1-2.92-14-2.92-14Z"/>
      </g>
    </g>
    <g>
      <path class="cls-33" d="M61.47,367.76S149,327.05,183.77,319c38-7.31,60.21,22.8,27.65,46.61-39.21,7.7-148,20.3-148,20.3S68.51,368.11,61.47,367.76Z"/>
      <path class="cls-34" d="M58.21,382.41s9.78,5.51,7-7.77l-9.77-2-28.32-11s-10.53,5-2.51,26.81C30.4,399,32.9,402,47.94,391.68l10.77-6.26S53.7,383.16,58.21,382.41Z"/>
      <path class="cls-35" d="M26.93,362.18l-2.63,1.09C18.57,365,22.13,401,36.37,397.48,44.11,393.3,59,384.94,59,384.94l-24.3,14.7c-15,3.25-23.68-26.47-11.92-36.84l3.1-1.39Z"/>
      <path class="cls-35" d="M190,366.34s24.81-2.76,30.83-2.13c5.72,2.34,9.5,35.65-12.78,37.71-7.2,0-25.86-15.22-25.86-15.22l25.7,10.95s17.7-14.77,10.93-29.56Z"/>
      <path class="cls-36" d="M188.27,367.12v-1.5h27.32s4.63-1.46,5.76,6.52c.62,9.15-.73,20.91-11.5,27.31,0,0-1,1.76-9.3-2s-17.79-10.53-17.79-10.53v-2.5l-5.52,3.5s-7.26,2.26,4-21.3C184,364.62,186,364.37,188.27,367.12Z"/>
      <circle class="cls-37" cx="37.59" cy="388.26" r="1.77"/>
      <circle class="cls-37" cx="44.49" cy="388.26" r="1.77"/>
      <circle class="cls-37" cx="51.39" cy="386.26" r="1.77"/>
      <circle class="cls-37" cx="32.88" cy="372.24" r="1.77"/>
      <circle class="cls-37" cx="57.21" cy="383.35" r="1.77"/>
      <circle class="cls-37" cx="38.12" cy="368.71" r="1.77"/>
      <path class="cls-38" d="M31.91,372.73l11.46,16s3.09,2.2,2.1-1c-2.87-4.18-11.25-16.2-11.25-16.2S31.47,369.65,31.91,372.73Z"/>
      <path class="cls-38" d="M39.88,368.14,39,387.78s-1.39,3.53-2.3.31c.12-5.07.6-19.71.6-19.71S38.57,365.31,39.88,368.14Z"/>
      <path class="cls-38" d="M47.26,367l-.9,19.65s-1.39,3.53-2.3.31c.12-5.07.6-19.71.6-19.71S46,364.13,47.26,367Z"/>
      <path class="cls-38" d="M37.64,369.54l11.46,16s3.09,2.2,2.1-1C48.33,380.34,40,368.33,40,368.33S37.2,366.45,37.64,369.54Z"/>
      <circle class="cls-35" cx="204.98" cy="389.4" r="2.05"/>
      <circle class="cls-35" cx="191.33" cy="387.35" r="2.05"/>
      <circle class="cls-35" cx="185.2" cy="385.73" r="2.05"/>
      <circle class="cls-35" cx="209.57" cy="372.09" r="2.05"/>
      <circle class="cls-35" cx="196.88" cy="368.02" r="1.61"/>
      <circle class="cls-35" cx="203.37" cy="368.45" r="1.61"/>
      <circle class="cls-35" cx="197.6" cy="389.4" r="1.61"/>
      <path class="cls-38" d="M44.54,367.44l11.46,16s3.09,2.21,2.1-1c-2.87-4.19-11.24-16.2-11.24-16.2S44.1,364.36,44.54,367.44Z"/>
      <path class="cls-26" d="M207.58,372.86l-9.67,14.89c-2,3.17.42,3.6,1.88,1.46.92-1.35,10.78-16.92,10.53-16.35h0c0-.15.21-1.61-.35-1.88S208.47,371.44,207.58,372.86Z"/>
      <path class="cls-26" d="M201,370.38l-9.67,14.89c-2,3.17.42,3.6,1.88,1.46.92-1.35,10.78-16.92,10.52-16.35h0c0-.15.22-1.61-.34-1.88S201.87,369,201,370.38Z"/>
      <path class="cls-33" d="M186.19,363.49s-113-41.31-125-42.71c-20.28-6.92-39-1.44-45.16,10.15-1.1,2.08-3.64,7.82-1.4,17.15,0,0,2.45,18.91,51.11,26.26s108.64,14.35,108.64,14.35S174.61,369.79,186.19,363.49Z"/>
      <path class="cls-26" d="M194.81,368.81l-9.67,14.89c-2,3.17.43,3.59,1.88,1.45.92-1.35,10.78-16.91,10.53-16.34h0c0-.15.21-1.61-.34-1.88S195.7,367.39,194.81,368.81Z"/>
      <path class="cls-26" d="M197.83,369.53l1,17.73c.15,3.73-2.15,2.91-2.35.33-.13-1.63-1-20-1.06-19.41h0c.06-.14.62-1.51,1.23-1.47S197.76,367.86,197.83,369.53Z"/>
      <path class="cls-26" d="M204.94,370.27,206,388c.14,3.73-2.16,2.91-2.36.33-.13-1.63-1-20-1.05-19.41h0c.05-.14.61-1.51,1.23-1.47S204.87,368.6,204.94,370.27Z"/>
      <path class="cls-39" d="M136.43,346.75s33.39-13.88,41.66-17.19,16.84,5.29,4.12,24.47l-6.43,5.62Z"/>
      <path class="cls-39" d="M101.05,365.09l-44.82-1.6s-17.38.79,0-16.74c14.4-13.22,25.65-9.25,42,0S116.61,365.64,101.05,365.09Z"/>
      <path class="cls-40" d="M188.27,367.12s.79,10.81-5.51,17.3c-5.52,3.5-8.8,7.38-7.48-3.05a26.57,26.57,0,0,1,8.5-16.26S187.13,365,188.27,367.12Z"/>
      <path class="cls-40" d="M50.88,371.42s4.36,7.48,8.09,11.36c3.09,1.74,8.93,1.71,6.31-8.52Z"/>
      <path class="cls-41" d="M16.07,330.93s9.47-20,42.9-10.87,127.22,43.43,127.22,43.43S46.11,315.42,16.07,330.93Z"/>
      <path class="cls-41" d="M123.08,340.68s39.18-17.34,59.46-21.41c23.62-6.79,36.38,5.81,36.38,5.81S192.36,313,133.8,344.75C120.46,338.67,123.08,340.68,123.08,340.68Z"/>
    </g>
    <circle class="cls-42" cx="170.61" cy="282.33" r="28.08"/>
    <g>
      <path class="cls-26" d="M153.32,277.74a4.8,4.8,0,0,0,2.07-.26c1-.4,1.37-1,1.16-1.6s-.75-.81-2-.72c-1.63.11-2.62-.23-3-1-.47-1.08.26-2.49,2.15-3.21a5.42,5.42,0,0,1,2.32-.34c0,.43,0,.64-.09,1.07a3.94,3.94,0,0,0-1.91.23c-.93.35-1.27,1-1.07,1.5s.83.61,2,.55c1.62-.07,2.56.32,2.89,1.37.4,1.24-.39,2.43-2.21,3.12a5.74,5.74,0,0,1-2.35.41C153.35,278.39,153.33,278.17,153.32,277.74Z"/>
      <path class="cls-26" d="M159.7,267c.12.44-.2.91-.86,1.09a.93.93,0,0,1-1.24-.51c-.13-.45.22-.94.84-1.12A.94.94,0,0,1,159.7,267Zm.71,9.71-2-7.17c.66-.19,1-.28,1.64-.45.73,2.89,1.1,4.34,1.83,7.24C161.27,276.48,161,276.56,160.41,276.72Z"/>
      <path class="cls-26" d="M170.69,267.29c0,.55,0,1.16.08,2.09.12,1.76.19,2.64.32,4.4a4.48,4.48,0,0,1-.86,3.54,4.56,4.56,0,0,1-2.69,1.21,5.62,5.62,0,0,1-2.65-.19l.15-1.08a5.17,5.17,0,0,0,2.39.2,2.37,2.37,0,0,0,2.24-2.92l-.08-.84h0a3.17,3.17,0,0,1-2.46,1.57,3.66,3.66,0,0,1-4.2-3,3.84,3.84,0,0,1,3.3-4.67,3.05,3.05,0,0,1,3,.93h0c0-.46,0-.69,0-1.14C169.81,267.36,170.1,267.34,170.69,267.29Zm-1.44,3.14a1.76,1.76,0,0,0-.16-.61,2.26,2.26,0,0,0-2.46-1.16,2.59,2.59,0,0,0-2.17,3.26,2.53,2.53,0,0,0,2.93,2.26,2.3,2.3,0,0,0,1.94-1.65,2.11,2.11,0,0,0,0-.75C169.33,271.24,169.3,271,169.25,270.43Z"/>
      <path class="cls-26" d="M173.33,263.57c.72,0,1.07,0,1.79-.05v4.78h0a2.78,2.78,0,0,1,1.21-1,3.93,3.93,0,0,1,1.74-.35,2.94,2.94,0,0,1,2.94,3.5c-.19,1.83-.28,2.75-.47,4.58-.59-.07-.89-.09-1.48-.14.13-1.77.2-2.65.33-4.41.09-1.24-.38-2.34-2-2.39a2.3,2.3,0,0,0-2.24,1.36,1.48,1.48,0,0,0-.11.66v4.61l-1.49,0Z"/>
      <path class="cls-26" d="M186.46,265.79l-.39,2.2c1,.16,1.45.26,2.41.46l-.23,1.06c-.95-.21-1.42-.3-2.37-.46l-.74,4.13c-.16.95,0,1.53.86,1.7a3.7,3.7,0,0,0,.89.09c-.06.42-.1.63-.16,1.06a4.47,4.47,0,0,1-1.34-.09,2.32,2.32,0,0,1-1.49-.88,2.89,2.89,0,0,1-.27-2.09c.25-1.67.38-2.51.63-4.18l-1.41-.19.13-1.06c.58.07.87.1,1.44.19.11-.74.17-1.11.28-1.84C185.4,265.84,185.76,265.82,186.46,265.79Z"/>
    </g>
    <g>
      <path class="cls-26" d="M150.52,291.31c1,1.24,1.48,1.87,2.44,3.14a21.67,21.67,0,0,1,1.4,2l0,0a24.33,24.33,0,0,1-.12-2.47c0-1.63,0-2.45.08-4.09l1.28-.42c1,1.28,1.43,1.92,2.35,3.23a25.45,25.45,0,0,1,1.38,2.18l0,0a19,19,0,0,1,0-2.53c.06-1.59.11-2.39.23-4l1.53-.37c-.43,3.22-.59,4.82-.79,8l-1.25.34c-.86-1.25-1.31-1.87-2.22-3.1a25,25,0,0,1-1.46-2.13h0a25.55,25.55,0,0,1,0,2.61c-.05,1.52-.06,2.28-.06,3.79l-1.23.45c-2-2.47-3-3.67-5.14-6Z"/>
      <path class="cls-26" d="M170.69,290.23a3.93,3.93,0,0,1-3.48,4.52,4,4,0,1,1-1.07-7.93A3.7,3.7,0,0,1,170.69,290.23Zm-6.49,1a2.71,2.71,0,0,0,2.92,2.48c1.36-.2,2.24-1.56,2-3.27-.15-1.29-1.07-2.87-2.91-2.58S163.93,289.81,164.2,291.23Z"/>
      <path class="cls-26" d="M172.5,288.7c-.05-.91-.12-1.69-.22-2.4.55,0,.83-.06,1.39-.08.05.6.07.9.12,1.51h.07a2.52,2.52,0,0,1,2.35-1.78,2.16,2.16,0,0,1,.46.05v1.33a2.12,2.12,0,0,0-.53-.05,2.07,2.07,0,0,0-2,1.87,4.41,4.41,0,0,0,0,.66c.07,1.64.1,2.47.17,4.11l-1.4.07C172.71,291.87,172.64,290.81,172.5,288.7Z"/>
      <path class="cls-26" d="M186.08,283c-.46,3.77-.68,5.65-1.13,9.42-.09.69-.17,1.48-.18,2-.51-.07-.76-.1-1.27-.15,0-.55,0-.82.07-1.36h0a3,3,0,0,1-2.8,1.31c-1.89-.12-3.32-1.73-3.31-4.08a3.79,3.79,0,0,1,4-4.06,2.92,2.92,0,0,1,2.54,1.39h0c.18-1.87.27-2.8.46-4.66C185.08,282.85,185.41,282.88,186.08,283Zm-2.34,6.64a2.42,2.42,0,0,0,0-.6,2.2,2.2,0,0,0-2.11-1.82c-1.62-.1-2.63,1.18-2.68,2.9s.71,2.89,2.26,3a2.22,2.22,0,0,0,2.28-1.51,2.77,2.77,0,0,0,.13-.6C183.66,290.41,183.69,290.14,183.74,289.6Z"/>
      <path class="cls-26" d="M187.08,293.25a4.11,4.11,0,0,0,1.8.89c1,.2,1.63-.2,1.76-.84s-.2-1.15-1.22-1.73c-1.36-.77-2-1.64-1.83-2.57.19-1.25,1.49-2.13,3.36-1.77a4.63,4.63,0,0,1,2,.92c-.25.37-.38.56-.62.94a3.36,3.36,0,0,0-1.65-.81c-.92-.18-1.52.22-1.62.8s.34,1,1.34,1.61c1.34.8,1.9,1.65,1.64,2.79-.32,1.36-1.58,2-3.41,1.7a4.78,4.78,0,0,1-2.1-.91Z"/>
    </g>
  </g>
  <g id="eye_01">
    <g>
      <ellipse class="cls-43" cx="84.8" cy="114.12" rx="11.63" ry="12.39" transform="translate(-4.89 3.8) rotate(-2.5)"/>
      <ellipse class="cls-44" cx="84.62" cy="113.99" rx="7.78" ry="8.29" transform="translate(-4.89 3.8) rotate(-2.5)"/>
      <ellipse class="cls-26" cx="80.7" cy="107.48" rx="2.13" ry="2.27" transform="translate(-4.61 3.62) rotate(-2.5)"/>
    </g>
    <g>
      <ellipse class="cls-43" cx="140.25" cy="113.94" rx="11.63" ry="12.39" transform="translate(-4.83 6.22) rotate(-2.5)"/>
      <ellipse class="cls-44" cx="139.96" cy="113.94" rx="7.66" ry="8.17" transform="translate(-4.83 6.21) rotate(-2.5)"/>
      <ellipse class="cls-26" cx="136.15" cy="107.3" rx="2.13" ry="2.27" transform="translate(-4.55 6.04) rotate(-2.5)"/>
    </g>
    <path class="cls-44" d="M135.23,89s11.48-2.49,17.37,5a.38.38,0,0,0,.7-.23c-.28-2.34-1.75-7.13-9-8.23C132.86,83.85,135.23,89,135.23,89Z"/>
    <path class="cls-44" d="M90.76,86.2S79.11,84.72,73.9,92.71a.39.39,0,0,1-.73-.17c.08-2.36,1.13-7.26,8.26-9C92.67,80.83,90.76,86.2,90.76,86.2Z"/>
  </g>
  <g id="mouth_01">
    <g>
      <path class="cls-45" d="M90.45,145.48a22.11,22.11,0,0,0,1.09,2.25c2.39,4.35,8,12.32,14.74,15.09a18.39,18.39,0,0,0,15.4-.95c6.2-3.28,8.91-7,12.28-13.14,1.1-2,2.26-4.28,3.65-6.88,0,0,.33-.48-.26-.48a3.48,3.48,0,0,0-1,.21c-3.52,1.15-12.33,6.61-26.35,6.53-10.77-.06-16.75-2.18-19-3.16a.48.48,0,0,0-.63.25A.39.39,0,0,0,90.45,145.48Z"/>
      <path class="cls-46" d="M91.54,147.73c2.39,4.35,8,12.32,14.74,15.09a18.39,18.39,0,0,0,15.4-.95c6.2-3.28,8.91-7,12.28-13.14-4,4.89-10.88,11.37-19.53,12.34C102.6,162.4,94,151.35,91.54,147.73Z"/>
      <path class="cls-47" d="M90.45,145.2a45.17,45.17,0,0,0,24.61,4.65c12.88-1.1,20-6.6,22.29-8.48a3.55,3.55,0,0,0-1,.21c-3.52,1.15-12.33,6.61-26.35,6.53-10.77-.06-16.75-2.18-19-3.16A.47.47,0,0,0,90.45,145.2Z"/>
      <path class="cls-48" d="M132.21,144.35c-.27.12-14.9,9.88-35.88,3.28,0,0,3.27,6.72,15.76,6.83C126.36,154.58,132.21,144.35,132.21,144.35Z"/>
      <path class="cls-49" d="M114.37,160.9c2.92-.3,6.55-1.24,7.93-2.62-2.7-2.45-6-.42-8.81-1.12-6-1.46-7.93.77-8.65,2C106.62,160.44,110.3,161.3,114.37,160.9Z"/>
    </g>
  </g>
</svg>
