<svg id="Layer_1" data-name="Layer 1" xmlns="http://www.w3.org/2000/svg" viewBox="0 0 346.91 512"><defs><style>.cls-1{opacity:0.3;}.cls-2{fill:#b47fcc;}.cls-3{fill:#92639e;}.cls-4{fill:#4f80ff;}.cls-5{fill:#a872b2;}.cls-6{fill:#dab2f9;}.cls-7{fill:#556ba0;}.cls-8{fill:#9d65aa;}.cls-9{fill:#c38bd1;}.cls-10{fill:#e097f2;}</style></defs><ellipse class="cls-1" cx="173.34" cy="413.92" rx="149.87" ry="32.22"/><path class="cls-2" d="M3.26,342.93s-1.61,9.58,45.17,44.15,83.22,30.84,83.22,30.84,15.31,11.8,38.29,4.14c0,0,13.66,7.45,28.15.41,0,0,4.14,3.73,16.15,1.24a80.82,80.82,0,0,0,20.08-6.83s32.5-2.69,66.24-27.53,40.88-40.21,40.88-40.21-53.3-15.26-163-16.71S3.26,342.93,3.26,342.93Z"/><path class="cls-3" d="M82.28,368.44s9,30.37,49.37,49.48c0,0,20.49,12.9,38.29,4.14,0,0-8.59-8.65-9.52-42.16a117.34,117.34,0,0,0,1.1,25.94c2.21,13.25-.27,14.36-11,11.32s-35-19.32-39.19-23.74,8.15-4.16,8.15-4.16S94.11,387.63,82.28,368.44Z"/><path class="cls-3" d="M228.32,379.9s-2.91,14-15.94,29.5-18,16.15-29.6,16.1-12.84-3.44-12.84-3.44-6.05-5.18-7.88-22.88c0,0,2.5,17.7,17.4,19.64s30.76-19.09,27.88-22-8.21-2.25-8.21-2.25S222,393.15,228.32,379.9Z"/><path class="cls-3" d="M37.6,365.55s13.12,22.33,39.54,39,54.51,13.33,54.51,13.33-21.5-11.31-35.15-26.05c0,0,11.48,13.15,10.38,14.53s-17.12,1.1-34.51-13-13.5-19-13.5-19S41.29,374.65,37.6,365.55Z"/><path class="cls-3" d="M272.36,381.86c-1.34,1.53-21.55,25.09-38,35,0,0,25.87-3,44.56-14.18s32-28.63,33.34-32.07c0,0-18.77,17.55-34.77,28.31s4.14-20,4.14-20l-8.84-4S274.25,379.7,272.36,381.86Z"/><path class="cls-3" d="M228.32,379.9s-8.28,27.19-30.23,42.57c0,0,3.73,2.56,16.15,1.24s23.6-9.11,23.6-9.11l20.62-17.82S242.12,410,230.8,412.19s-11.32-6.07-7.73-14.07,6.57-17.24,6.57-17.24Z"/><path class="cls-3" d="M341.44,349.14s3.68-.62-20.91,24-35.15,26-35.15,26,22.15-19.07,26.84-28.57-5.52-18.06-5.52-18.06,9.23,6.06,19.59,5.24A20.31,20.31,0,0,0,341.44,349.14Z"/><path class="cls-3" d="M3.26,342.93s-.58,7.3,25.23,31.86S74.54,403.3,74.54,403.3s-21.25-16.39-31.1-29.42-6.95-17.44-6.95-17.44S10.47,358.68,3.26,342.93Z"/><path class="cls-4" d="M120.55,303l3.45,7.84s-32.6,1.1-52.12,7.74S39.6,340.94,41.74,346.81c0,0-22,3.95-28.48-2.73,0,0,14.24-2.16,19.13-8.11,4.69-5.71,14.46-20.82,45.51-27.55s6.72-4.73,6.72-4.73l17.68-1.83Z"/><path class="cls-4" d="M287.87,371.26a53.65,53.65,0,0,0,6.27-29.73c-1.45-17-42.38-31.86-80.18-30.11l2.94-6.15s47.26,1.69,72.33,12.2c0,0-33.05-6.66-35.09-6.66-1.41,0,32.18,4.79,42.92,13.25,20.67,16.31,12.61,35.48,3.4,42.94S287.87,371.26,287.87,371.26Z"/><path class="cls-5" d="M101.33,300.61s-24.79-1.76-62.76,10.79S.69,335.65,2.91,343.12s13,13.73,33.42,13c0,0-3.06,13.46,12.55,16.56s25.68-1.11,33.4-5.22c0,0,6.53,18.31,35.67,20.17s42.63-9.86,42.63-9.86,11,17.38,38.92,14.07,29-15.05,29-15.05,17.68,13.76,33.8,7.93,10.56-13.55,10.56-13.55,20,8.85,33.93.21,3.42-20.7-1.71-24.35c0,0,13.45,8.92,26,5.49s12.67-11,7.4-18-25.57-21.06-57.23-27.43-53.61-4.76-53.61-4.76h0S276,308,300.06,317.11s30.12,21.85,29,24.64-10.43,8.31-33.47-2.63c0,0,12.46,16.58,4.8,23.73s-24.46,4.91-34-.85c0,0,2.23,12.91-8.58,15.07s-22-1.41-31.66-8.86c0,0-9.3,15.25-28.34,16.08S162,367.9,162,367.9a64.35,64.35,0,0,1-41.89,9.48c-24.47-2.92-33.71-16.28-36.82-16.75-5.88-.89-12.59,7.57-28.25,3.1s-10.46-17.1-11.43-17.5-28.55,5.75-33.2-5.31,12.1-23.31,41-31.24S101.33,300.61,101.33,300.61Z"/><path class="cls-6" d="M42.54,312.41S17,318.56,5.9,330.87s3.18,25.52,31.85,24.64c0,0-3.64,11.89,12.19,15.82s33.15-4.47,33.15-4.47,3.67,19.21,35.17,21.37,42.22-10.55,42.22-10.55,11.07,17.42,37.32,15.18,30.13-13,29.93-15.18c0,0,18.05,13.1,34.85,8.6,16.48-4.41,8.61-14,8.61-14s18.59,11.29,34.31,2.42,4.18-21.59-.85-23.57c0,0,11.87,9.44,29.94,3.33s-1.41-26.67-36.92-37.44c0,0,27.77,10.14,35.71,20.78s3.69,16-8.89,15.38-24.87-5.65-24.87-5.65,14.21,14,4,22.69-36.35-1.28-36.35-1.28,6.63,11.43-5.88,15S226,372.26,226,372.26s-1.37,15.13-27.88,16.73-37-15.88-37-15.88S146,384.36,120.61,383.18s-35.06-15.15-36.39-20c0,0-18.66,10-32.09,5.18s-12-15.16-12-15.16-28.49,1-33.3-12.12S32.4,314.84,42.54,312.41Z"/><path class="cls-7" d="M244.84,307.94s-17.18-4-27.94-2.67L214,311.42s25.66.47,43.71,4.85c16.38,4,28.95,12.6,33.19,17.68s3.75,13.55,3.15,17.57a127.77,127.77,0,0,1-2.92,12.56,33.4,33.4,0,0,1-3.22,7.18s9.45.32,13.62-5.41-.39-15.64-5.22-22.28c0,0,8.43,3.77,12.83,4.82,0,0-8.81-2.42-12-9.09s-8.62-14.55-25.62-21.9-49.93-9-49.93-9S225.73,306,244.84,307.94Z"/><path class="cls-7" d="M84.22,304s21.86-4.16,36.21-1.49c0,0,2.53,6.48,3.59,8.33,0,0-27.68,1-45.81,5.78-22,5.78-36.64,21.25-36.64,29.09v1.12s-17,3.21-26.49-1.51c0,0,8.47.6,13.84-2.35C36.19,339,45.52,327.87,66,318s48-10.82,50-11.7S100.87,301.6,84.22,304Z"/><path class="cls-3" d="M4,345.42s2,9.89,33.56,37.9a90.47,90.47,0,0,0,37.54,20S49.23,383.11,40,368.83c0,0,14.49,18.87,12.76,19.79s-27-21.22-33.37-27.75S14,353.08,14,353.08A41.83,41.83,0,0,1,4,345.42Z"/><path class="cls-3" d="M86,376.73a114.16,114.16,0,0,0,20.11,24.06,106.81,106.81,0,0,0,25.59,17.13,92.81,92.81,0,0,1-30.5-2.92C84,410.56,74.54,402.83,74.54,402.83s22.95,10.59,34.38,11.71,4-4.59-3.67-12.86S88.38,382.39,86,376.73Z"/><path class="cls-3" d="M160.42,379.9s2.24,12.27,3.6,22.09,5.92,20.07,5.92,20.07a37.66,37.66,0,0,1-15.3,3.44c-8.71.06-22.93-5.86-27.42-9.26,0,0,16.09,6.13,27.14,5.51,10.38-.58,11.7-3.58,11.7-3.58S159.81,398.32,160.42,379.9Z"/><path class="cls-3" d="M228.32,379.9s.19,6.44-10.56,23.4S194.64,426.39,182,425.5s-12.75-3.86-14.69-10.39c0,0,3,10.32,16.19,8.27s24.9-11,30.48-19,4.67-13.5,4.67-13.5S226.91,387.41,228.32,379.9Z"/><path class="cls-3" d="M258.46,396.78s-14.18,15.69-26.83,21.42-28.46,10-33.83,3.69l11.12-8.3s-5.58,5.85-2.31,7.21S237.51,419.5,258.46,396.78Z"/><path class="cls-3" d="M312.47,372S293.71,401.27,262,410.9,233.41,416,233.41,416L245,409.37s5,2.31,20.4-2.72S307.46,381.67,312.47,372Z"/><path class="cls-3" d="M342,351.33s-13.71,16.37-24.73,26.27-24,21.87-31.91,21.6-.44-.37-.44-.37S310.2,377.09,312.47,372c0,0-6.06,8.68-3.37,8.68s17.07-16.22,17.47-19.59-4.18-3.63-4.18-3.63S336.65,358.52,342,351.33Z"/><path class="cls-7" d="M228.5,305.46s20-1.21,46.68,4.27,37.68,12.16,37.68,12.16-22.16-8.78-45.71-12.52,24.52,8.76,24.52,8.76S254.48,307.54,228.5,305.46Z"/><path class="cls-7" d="M53,307.87s46.66-10.95,67.39-5.4c0,0-44.06-1.27-73.91,9.32,0,0-25.38,7.69-32.61,16.9,0,0,4.36-7,21.75-13.89S77,303.73,77,303.73Z"/><path class="cls-8" d="M3.19,325.18S46.7,277,60.34,279.23c0,0,30.84-21.91,51.61-17,0,0,27.15-14.42,35.64-5.68,0,0,14.85-10.71,27.86,0,0,0,20.92-9.11,39.18,3.88,0,0,22.07-4.58,56.13,15.32,0,0,25.21,2.95,73.22,58.49,0,0,13.46,17.23-26.93,16,0,0,7.16,34.83-40.95,18.74,0,0,6.69,31-45.47,5.74,0,0-33.42,39.07-69,.38,0,0-49.24,32.19-79-11.87,0,0-43.3,17-46.88-12.8C35.76,350.41-10.18,346.27,3.19,325.18Z"/><path class="cls-6" d="M7.52,322c7-7.35,42.79-44.38,54.83-42.44,0,0,30.23-20.83,50.59-16.13,0,0,26.61-13.72,34.93-5.41,0,0,14.55-10.18,27.3,0,0,0,20.51-8.65,38.41,3.7,0,0,21.64-4.36,55,14.56,0,0,24.71,2.8,71.77,55.6,0,0,13.2,16.38-26.39,15.22,0,0,7,33.11-40.14,17.81,0,0,6.55,29.44-44.57,5.46,0,0-32.75,37.14-67.63.36,0,0-48.26,30.61-77.42-11.28,0,0-42.44,16.11-45.95-12.17,0,0-41.72-3.65-33.16-21.8A12.89,12.89,0,0,1,7.52,322Z"/><path class="cls-9" d="M4.51,323.68s51.24-42.37,68.33-42c0,0-33.5,26.18-33.78,54.42,0,0,36.73-73.09,73-70.08,0,0-23.93,47.11-24.68,80.25,0,0,18.26-90,56.3-88.12,0,0-4.9,41.24,2.44,68.35,0,0-12.9-67,26.93-67.78,0,0,36,21.27,38.41,59.5,0,0,4.14-36.06-23.82-55.83,0,0,40.67-2.54,70.61,64.39,0,0-3.39-38.41-32.76-55.07,0,0,61.85,7.06,85.57,63.26,0,0-8.76-37-43.49-57.33,0,0,59.87,33.42,73.24,55.26,0,0-35-45.09-70.84-56.95,0,0-17.23-13.56-55.5-15,0,0-16-11.72-38.55-3.67,0,0-11.16-9.18-28.38-.14,1.91-2-14.51-5.75-35.56,5.08-3.93,2-9.16-.77-15.3,1.35C73.36,271.65,69,270.86,34,296"/><path class="cls-10" d="M9.43,334.88c3.38,3.58,9.18,7.65,18.39,8.38A5.79,5.79,0,0,0,34,338.47a148.39,148.39,0,0,1,6.19-24.78,1.6,1.6,0,0,0-2-2.1c-4.16,1.32-12.79,4.85-27.57,14.22A6,6,0,0,0,9.43,334.88Z"/><path class="cls-10" d="M44.12,353.49c4.47,5,13.16,10.24,29,6a13.91,13.91,0,0,0,10.09-10.86c1.87-9.87,5.07-26.4,6.94-33.84a14.84,14.84,0,0,0-2.11-12.17c-3-4.27-8.72-7.12-19.13.53a45.72,45.72,0,0,0-8.64,8.38c-4.72,5.9-14,18.15-18.36,28.95A12.48,12.48,0,0,0,44.12,353.49Z"/><path class="cls-10" d="M95.9,357.86c8.26,5.86,24.27,13.61,44.71,5.9a12.42,12.42,0,0,0,7.25-15.88c-4.84-13.38-12.46-37.95-13.25-62.07a12.36,12.36,0,0,0-3-7.78c-3.07-3.44-8.42-5.47-15.67,6.84,0,0-18.32,27-24.93,60.41A12.46,12.46,0,0,0,95.9,357.86Z"/><path class="cls-10" d="M170.84,367.5c9.81,7,29.34,16.2,43.53-7.85a17.37,17.37,0,0,0,1.28-14c-5.94-17.89-22.65-64.66-39.34-79-3.82-3.27-9-1.12-10.49,4.22-3.5,12.78-8.35,40.4-2.33,83.63A19.23,19.23,0,0,0,170.84,367.5Z"/><path class="cls-10" d="M243.21,371.71c8.33,2.89,21.51,5.7,24.4-4.07a11.52,11.52,0,0,0-.35-7.22c-4-10.87-20.59-53.38-35.17-61.14a4.49,4.49,0,0,0-2.93-.52c-2,.38-4.74,2.36-4.19,10.53,0,0,1.09,32.4,8.1,52.29A16.54,16.54,0,0,0,243.21,371.71Z"/><path class="cls-10" d="M282,360.78c8,3,24.73,7.19,26.61-9.63a15,15,0,0,0-2.07-9.39c-6.64-11-27.25-43.54-44.25-51.59a1.4,1.4,0,0,0-1.95.85c-1.12,3.51-1,16.47,16.09,64.1A9.47,9.47,0,0,0,282,360.78Z"/><path class="cls-10" d="M323.21,344.22c4.6.22,14.72-.26,14.21-8.86a6.65,6.65,0,0,0-2-4.31c-4.74-4.62-19.26-18.47-29.51-24.84a.76.76,0,0,0-1.11.93c2.05,4.95,7.65,18.24,15.35,35A3.6,3.6,0,0,0,323.21,344.22Z"/></svg>