<svg id="Layer_1" data-name="Layer 1" xmlns="http://www.w3.org/2000/svg" viewBox="0 0 344.47 512"><defs><style>.cls-1{opacity:0.3;}.cls-2{fill:#a05bc4;}.cls-3{fill:#7f5091;}.cls-4{fill:#6c447f;}.cls-5{fill:#c08add;}.cls-6{fill:#8136b2;}.cls-7{fill:#f3b2f7;}.cls-8{fill:#ecb2f7;}.cls-9{fill:#b47fcc;}.cls-10{fill:#b381d3;}.cls-11{fill:#e097f2;}.cls-12{fill:#b171c9;}.cls-13{fill:#8a5ba3;}.cls-14{fill:#f7f3ed;}.cls-15{fill:#ead4b7;}.cls-16{fill:#f2e7d6;}.cls-17{fill:#fff9f0;}.cls-18{fill:#fff;}</style></defs><ellipse class="cls-1" cx="173.56" cy="413.78" rx="149.87" ry="32.1"/><path class="cls-2" d="M105.67,306.36S98.14,292.64,84.43,289s-32.28-1.65-37.64-1.65S30.29,280.06,27.4,269s3.51-16,3.51-16S9.77,243.87,9.77,216.64,27.3,186.33,27.3,186.33,17,160.55,32.87,141.78s30.93-12,30.93-12-4.53-17.74,15.06-32a39.25,39.25,0,0,1,39-4.54s13.61-26.39,43.31-25.78S199.1,89.81,199.1,89.81s27.22-9.28,43.93,1,21,30.11,21,30.11S287,116.21,301,131.26s6.8,36.92,6.8,36.92,28.67,8.87,29.7,37.74-20.62,43.52-28.66,45.58c0,0,5.46,6.7-1.86,18.87S286.13,284,281.8,284s-37.33.52-54.76,24.85c0,0-16.94,13.07-56.4,14.3S105.67,306.36,105.67,306.36Z"/><path class="cls-3" d="M46.21,251.77s23.16,2.62,42.76,12.1a90.27,90.27,0,0,1,31.14,25.78l6.39-23.92s-31.69-66.34-89.78-78h0s17.85,2.38,41.38,21.86,31.63,41.8,31.21,48.26-12.64,6.74-24.19,2.48S55,252.06,46.21,251.77Z"/><path class="cls-3" d="M52.84,281.57s23.27,1.59,34.58,8.45c0,0,11.34,5.3,18.25,16.34,0,0,20.74,12.11,31.36,13.17l-16.92-29.88s-15.49-25.3-57.49-34.83c0,0,17.17,4.62,30.68,13.28s13.71,20.93-3,17.33S52.84,281.57,52.84,281.57Z"/><path class="cls-3" d="M288.05,274.19s-28.95,5.57-44,16.67-17,18-17,18-6.36,6.41-28.08,10.7c0,0,15.81-31.47,16.22-32.36s35.4-25.38,79.34-33.06h0s-16.73,3.53-40.56,13.54-14,20.15-3.82,16S288.05,274.19,288.05,274.19Z"/><path class="cls-3" d="M294.43,173.66s-23.37,9.2-53.77,35.73c-28.23,24.63-37.4,49.49-37.4,49.49L216.05,288s24.63-16.66,49.57-25.28,28.9-8.57,28.9-8.57h0L286,255.83c-33.14,14.44-54.32,6.9-59.82-5.88s9.8-33.71,24.06-46.42,39-27.64,44.15-29.87Z"/><path class="cls-3" d="M253.54,134.91S241,147,220.27,177.39s-32.72,70.12-32.72,70.12L202.4,258.1A270,270,0,0,1,230.78,219c17.13-19.48,63.6-45.33,63.6-45.33s-43.72,21.72-62.83,40-26.27,21-24.62,4.4,13.75-38.91,26.68-56.24,19.93-26.94,19.93-26.94Z"/><path class="cls-3" d="M196.07,101.22S190,121,182.6,165.5a729.72,729.72,0,0,0-9,78.37l13.91,3.64s13.46-39,33.64-71.46c0,0-16,21.21-22.23,33.17s-22.14,1.24-13.47-45.17,10.58-62.83,10.58-62.83Z"/><path class="cls-3" d="M122.89,103.52s15.37,33.1,23.2,68.78,11.76,72.81,11.76,72.81l15.79-1.24s6.18-74.33,14.69-109.66c0,0-5.11,22.83-10.89,49s-19,36.71-24.54,9.49-13.3-54.85-30-89.2Z"/><path class="cls-3" d="M72.05,139.72a170.28,170.28,0,0,1,35,40c15.72,25,23.81,45.73,27.06,55.68s5.16,19,5.16,19l18.56-9.24s-2.81-43.73-15.43-87.55-19.53-54-19.53-54A610.18,610.18,0,0,1,142,166.94c8.45,35.06,4.95,52,1,55.27s-15.67-15.26-34.85-45S72.05,139.72,72.05,139.72Z"/><path class="cls-4" d="M78,286s15.84,4.37,25.26,17l18.16.77-2-17.41s-9.57-12.08-27.94-21.28c0,0,17.11,12.32,20.4,18,3.39,5.86,1.37,13.93-7.22,12.55S92.61,290.06,78,286Z"/><path class="cls-4" d="M104.24,233.05s14.36,18.24,21.44,30.75l-7,23.74a77,77,0,0,0-27.26-22.4,120,120,0,0,1,16.27,8.5c8.32,5.22,15.14-2.2,10.94-14S104.24,233.05,104.24,233.05Z"/><path class="cls-4" d="M120.91,204.73s4.54,7.44,10.43,22.81S138,248.13,138,248.13l-12.3,16s-22.49-35-31.87-42.6c0,0,5.74,3.68,17.29,18.46s19.36,10.45,20.54,5.16,0-15.4-4.66-26.13S120.91,204.73,120.91,204.73Z"/><path class="cls-4" d="M149.91,188.5s7.22,42,7.94,51.35L138,248.13s-10-31.24-17.66-44.61c0,0,11.23,21.79,15.67,28.9s16.7,8.46,17.84-3.81S149.91,188.5,149.91,188.5Z"/><path class="cls-4" d="M179.12,191l-5,47.42-16.27,1.43s-5.57-42.86-7.94-51.35c0,0,6.09,47.33,16.71,42.65S179.12,191,179.12,191Z"/><path class="cls-4" d="M207.76,200.21s-14.2,29.87-18.65,42.47l-15-4.26s3.95-37.94,4.66-44.12,1-8.6,1-8.6-5.23,41.18,1.79,44.73S207.76,200.21,207.76,200.21Z"/><path class="cls-4" d="M241.87,207.83s-21,18.41-38.65,49.13l-14.37-14.52s11.8-28.8,18.91-42.23c0,0-13.47,30.87-11.74,35.82s6.37,10.62,11.74,6.09S228.45,219.75,241.87,207.83Z"/><path class="cls-4" d="M274.79,258.61a311.38,311.38,0,0,0-30.45,11.91,166.07,166.07,0,0,0-27.51,16.09l-13.78-30.32s16.24-26.09,29.5-39.16c0,0-14.89,17.53-16.64,28s4.43,27.65,24.64,22.29S274.79,258.61,274.79,258.61Z"/><path class="cls-4" d="M261.46,282.06s-23.35,8.75-33.12,27.62c0,0-10.64-.57-11.21-1.17s-.29-22.25-.29-22.25,11.87-8.15,26.29-16.47c0,0-15.61,8.9-16.62,19.95S251.79,284.43,261.46,282.06Z"/><path class="cls-5" d="M4.57,343.64s-1.61,9.53,45,44,82.91,30.73,82.91,30.73,15.26,11.75,38.16,4.12c0,0,13.61,7.43,28,.41,0,0,4.13,3.72,16.09,1.24a80.54,80.54,0,0,0,20-6.81s32.38-2.68,66-27.43,40.73-40.06,40.73-40.06-53.1-15.21-162.41-16.65S4.57,343.64,4.57,343.64Z"/><path class="cls-6" d="M8.12,349.26S-4,338.94,13.48,324.51s79.91-23.58,89.76-21.79S229,306.31,229,306.31s50.41.22,84.79,17.11,32.17,29,19.52,33.12-26.4-3.3-26.4-3.3,15.95,15.68-1.37,23.65-32.45-1.37-32.45-1.37,1.37,11.82-14,14-27.22-7.15-30.24-9.07c0,0-7.7,14.3-33,14.57s-34.65-14.57-34.65-14.57-19.25,13.75-47,8.52-30.25-22.35-30.25-22.35-13.2,9.43-30,7.78S36,360.94,37.68,357.09C37.68,357.09,15.68,357.92,8.12,349.26Z"/><path class="cls-6" d="M42.56,346.37s-1.44,18.15,9.7,22.89,29.9-4.12,29.9-4.12,14.85,21.86,41,21,38.57-9.69,38.57-9.69,21.24,19.59,42.69,15.67,21.86-14.84,21.86-14.84,17.32,12,33,8.66S270,369.52,270,369.52s9.28,5.72,14.85,5.1,11.35-24.75,9.49-32.38S42.56,346.37,42.56,346.37Z"/><path class="cls-7" d="M167.34,313.4c-35.06,1-43.72-3.44-73.83,1s-52,24.41-51.22,32,38.78,30.52,122.92,30.93,127.46-18.76,128.9-35.06-43.52-31.34-76.31-29.9S167.34,313.4,167.34,313.4Z"/><path class="cls-8" d="M157.93,365.09S174.46,351,192,348.88c34.83-4.23,57.28,7.55,57.28,7.55h0s-22.71-10.13-28.67-19.59c-4.52-7.17,19-17.07,42.9-13.69s30.93,19.05,30.93,19.05,2.22-12.82-31.23-23.62-84.05-5.27-92.1-5.21S126.6,309,92,314.58s-45.5,21.86-51.46,31.76c0,0,17-20,41.28-25.8S119.16,319,119,323.15s-21.67,18.28-42.7,21.17h0c2.06-.41,40.51-5.81,60,.41C150.85,349.38,157.93,365.09,157.93,365.09Z"/><path class="cls-4" d="M103.48,313s89.49-6.82,150,2.87c0,0-32.74-1.4-39.75,1.69s-14,14.05-2.88,20.91c11.66,7.19,18.36,10.39,18.36,10.39s-25.55-13.41-42.89-10.37a41.42,41.42,0,0,0-26,16.23s5.15-12.95-12.38-18.52-51.56,3.65-51.56,3.65h0s24.34-6.17,32.59-11.33S127.1,313.54,103.48,313Z"/><path class="cls-9" d="M83.29,369.05s9,30.25,49.19,49.3c0,0,20.42,12.85,38.16,4.12,0,0-8.57-8.61-9.49-42a116.53,116.53,0,0,0,1.1,25.85c2.2,13.19-.28,14.29-11,11.27s-34.92-19.25-39-23.65,8.12-4.15,8.12-4.15S95.08,388.17,83.29,369.05Z"/><path class="cls-9" d="M228.8,380.47s-2.9,14-15.89,29.39S195,426,183.42,425.9s-12.78-3.43-12.78-3.43-6-5.16-7.85-22.8c0,0,2.48,17.64,17.33,19.57s30.64-19,27.78-22-8.18-2.24-8.18-2.24S222.47,393.67,228.8,380.47Z"/><path class="cls-9" d="M38.78,366.17s13.07,22.25,39.4,38.9,54.3,13.28,54.3,13.28-21.42-11.27-35-26c0,0,11.43,13.09,10.33,14.47s-17,1.1-34.37-12.93S60,375,60,375,42.46,375.23,38.78,366.17Z"/><path class="cls-9" d="M272.67,382.43c-1.33,1.52-21.46,25-37.89,34.88,0,0,25.77-3,44.39-14.13s31.87-28.52,33.22-31.95c0,0-18.7,17.49-34.65,28.21s4.13-20,4.13-20l-8.8-4S274.56,380.27,272.67,382.43Z"/><path class="cls-10" d="M228.8,380.47s-8.25,27.08-30.12,42.41c0,0,3.72,2.55,16.09,1.24S238.28,415,238.28,415l20.55-17.76s-16.29,13.16-27.56,15.36-11.27-6.05-7.7-14,6.54-17.18,6.54-17.18Z"/><path class="cls-5" d="M342.08,351.67s3.09-2.46-21.41,22.1-35,25.93-35,25.93,22.06-19,26.74-28.47-5.5-18-5.5-18,9.19,6,19.51,5.22S342.08,351.67,342.08,351.67Z"/><path class="cls-5" d="M4.57,343.64S4,350.91,29.71,375.38s45.88,28.4,45.88,28.4-21.18-16.33-31-29.31-6.92-17.38-6.92-17.38S11.75,359.33,4.57,343.64Z"/><path class="cls-11" d="M93.23,323.19c-16.78,1.18-45.1,14.63-45.1,22.16s38.77,17.28,60.5,21.93,34.85,6.59,34.34-3.86-24.44-17-41.77-13.6-28.26,0-28.26,0-6.51-7.81,7.71-14.29S93.23,323.19,93.23,323.19Z"/><path class="cls-11" d="M168.47,369.05s3.4-11.41,23.75-14.43,68.67,5.12,68.67,5.12h0s-25.81-16.67-24.44-23.82,28.49-8.09,40.15-4.81,11.69,13.46,9,17.66-9.83,11.93-46.13,18.51S174.42,374.14,168.47,369.05Z"/><path class="cls-6" d="M121.43,303.83l3.44,7.81s-32.48,1.09-51.93,7.7-32.16,22.31-30,28.16c0,0-22,3.94-28.38-2.72,0,0,14.19-2.15,19.06-8.08C38.27,331,48,316,78.93,309.25s6.7-4.71,6.7-4.71l17.61-1.82Z"/><path class="cls-6" d="M288.12,371.86a53.43,53.43,0,0,0,6.26-29.62c-1.44-16.91-42.22-31.74-79.89-30l2.93-6.13s47.09,1.69,72.06,12.16c0,0-32.92-6.63-35-6.63-1.4,0,32.06,4.77,42.76,13.2,20.6,16.24,12.57,35.35,3.39,42.77S288.12,371.86,288.12,371.86Z"/><path class="cls-11" d="M103.24,302.72s-24.66-2.11-62.68,9.84-38.09,23.6-36,31.08,12.76,13.87,33.11,13.45c0,0-3.24,13.37,12.27,16.69s25.59-.74,33.34-4.73c0,0,6.24,18.35,35.24,20.62s42.62-9.2,42.62-9.2,10.72,17.47,38.57,14.57,29.08-14.57,29.08-14.57,17.41,14,33.55,8.39,10.72-13.34,10.72-13.34,19.78,9.1,33.8.7,3.7-20.57-1.35-24.28c0,0,13.26,9.07,25.78,5.84S344.08,347,338.93,340s-25.16-21.35-56.62-28.16S229,306.31,229,306.31h0s48.18,6.34,72,15.72,29.69,22.21,28.56,25-10.86,8.15-33.65-3.09c0,0,12.08,16.68,4.35,23.69s-24,4.55-33.39-1.33c0,0,2,12.89-8.77,14.88s-21.93-1.71-31.42-9.28c0,0-9.48,15.06-28.46,15.61s-35.47-16.84-35.47-16.84a64.15,64.15,0,0,1-41.87,8.83c-24.33-3.27-36-16.85-36-16.85a40.75,40.75,0,0,1-28.61,2.31c-15.53-4.67-12.67-17.25-13.63-17.67s-26,5.39-30.5-5.7S24.5,318.51,53.36,311,103.24,302.72,103.24,302.72Z"/><path class="cls-12" d="M43.08,311.85s-26.3,6.26-37.43,19.26,3.19,26.9,32,26c0,0-3.65,12.54,12.27,16.69s33.34-4.73,33.34-4.73S87,389.32,118.67,391.6s42.48-11.13,42.48-11.13,11.14,18.38,37.53,16,30.32-13.68,30.12-16c0,0,18.16,13.82,35.06,9.07,16.57-4.65,8.66-14.78,8.66-14.78s18.7,11.91,34.51,2.55,4.21-22.77-.85-24.86c0,0,11.94,9.95,30.11,3.52s-1.41-28.13-37.13-39.49c0,0,27.93,10.69,35.92,21.91s3.71,16.91-8.94,16.23-25-6-25-6,14.3,14.8,4,23.93-36.57-1.35-36.57-1.35,6.67,12.06-5.91,15.84S227,374.76,227,374.76s-1.38,16-28,17.64-37.19-16.75-37.19-16.75S146.61,387.51,121,386.28s-35.27-16-36.61-21.14c0,0-18.77,10.51-32.28,5.46s-12.07-16-12.07-16-28.66,1-33.51-12.79S32.88,314.41,43.08,311.85Z"/><path class="cls-11" d="M87.42,290s-11.86-4.49-40.63-2.64c0,0-15-2.5-18.61-16s2.73-18.37,2.73-18.37-20-8.56-21.14-35.24S27.3,186.33,27.3,186.33s-8.95-24.39,4-42.58,28-15.58,32.48-13.93c0,0-3.95-21.86,17.83-33.82s36.21-2.69,36.21-2.69,13.4-26.39,43.31-25.78S199.1,89.81,199.1,89.81s21.45-10.52,42.07-2.48S264.06,121,264.06,121s25.37-6.19,39.29,10.83,4.43,36.4,4.43,36.4,29.08,7.84,30.63,35.47-13.71,44.86-29.59,47.85c0,0,4.74,5.88.82,16.81S292.94,284.08,281.8,284s-27.14,3.65-38.94,10.39-12.58,11.88-12.58,11.88,3.19-10.75,22.44-20.38,35.33-11.68,35.33-11.68,10.32-2.07,12-11.28-5.5-8.8-5.5-8.8,39.18-17.87,33.68-48.67-33.82-31.76-33.82-31.76,15.29-16.51,2.2-34.79-43-4-43-4,3.85-25.44-21.44-37.4-36,3.71-36,3.71-11.82-25-35.95-24.4S123.3,99,122.89,103.52c0,0-13.3-7.52-34.54,2.58s-16.3,33.21-16.3,33.21-23,.13-31.34,15.12-4,33.27-4,33.27-18.15,10.18-16.09,29.84,25.58,34.23,25.58,34.23A14.35,14.35,0,0,0,40,265c.69,9.08,9.49,15.95,13.47,16.78S77.76,282.06,87.42,290Z"/><path class="cls-12" d="M30.91,253.05s-19.28-7.88-21.14-35.24S27.3,186.33,27.3,186.33s-9.9-26.47,4.54-45,32-11.51,32-11.51S59.89,106.51,83.19,95s34.65-1.65,34.65-1.65,13.37-27.19,45-25.79,36.3,22.29,36.3,22.29,25.05-12.48,45.73-.77S264.06,121,264.06,121s28.27-6.34,41.12,13.26c12.94,19.75,2.6,34,2.6,34s25,4.54,30.74,29.08-6,49.29-29.7,54.24c0,0,17.54-5.48,24.14-29.82s-4.14-46.49-30.33-50.1c0,0,11.57-14.27-2.68-35s-40.63-10.32-40.63-10.32,1.36-27.8-25.25-35.64-38,5.53-38,5.53-5.63-23.83-36-23.83-39.75,24.45-39.75,24.45-14.12-7.59-34.88,3.82-17.37,33.57-17.37,33.57S45.34,130,34.8,147.4s-3.44,41.95-3.44,41.95S12.45,195.56,16.85,222s22.21,31.72,22.21,31.72-8.55,4.41-5.94,17.89,13.67,15.81,13.67,15.81-15-2-19.28-17.32C23.85,257.09,30.91,253.05,30.91,253.05Z"/><path class="cls-6" d="M244.84,308.7s-17.12-4-27.84-2.66l-2.93,6.13s25.56.47,43.55,4.83c16.31,4,28.84,12.56,33.07,17.62s3.73,13.5,3.13,17.5a127.73,127.73,0,0,1-2.9,12.52,33.36,33.36,0,0,1-3.22,7.15s9.42.32,13.57-5.39-.38-15.58-5.19-22.2c0,0,8.39,3.76,12.77,4.8,0,0-8.77-2.41-12-9.05s-8.58-14.5-25.53-21.82-49.74-9-49.74-9S225.79,306.8,244.84,308.7Z"/><path class="cls-6" d="M85.23,305s21.78-4.14,36.08-1.49c0,0,2.52,6.46,3.58,8.31,0,0-27.59,1-45.65,5.75-21.95,5.76-36.5,21.17-36.5,29v1.11s-16.9,3.2-26.39-1.5c0,0,8.43.59,13.79-2.34,7.24-4,16.53-15,36.93-24.83s47.85-10.78,49.82-11.66S101.82,302.6,85.23,305Z"/><path class="cls-13" d="M5.07,347.75s15.31,20.87,33.71,36.12a104.21,104.21,0,0,0,37.41,19.91s-25.82-20.11-35-34.34c0,0,14.43,18.8,12.71,19.72S27,368,20.68,361.51s-5.25-7.35-5.25-7.35S8.87,352.08,5.07,347.75Z"/><path class="cls-13" d="M87,377.31a113.75,113.75,0,0,0,20,24,106.74,106.74,0,0,0,25.49,17.07,92.43,92.43,0,0,1-30.38-2.92C85,411,75.59,403.31,75.59,403.31S98.45,413.86,109.84,415s4-4.57-3.66-12.81S89.38,383,87,377.31Z"/><path class="cls-13" d="M161.15,380.47s2.23,12.22,3.59,22,5.9,20,5.9,20a37.54,37.54,0,0,1-15.25,3.43c-8.68.06-22.84-5.84-27.32-9.22,0,0,16,6.1,27,5.48,10.34-.57,11.66-3.57,11.66-3.57S160.54,398.82,161.15,380.47Z"/><path class="cls-13" d="M228.8,380.47s.19,6.42-10.52,23.31-23,23-35.65,22.12-12.7-3.84-14.64-10.35c0,0,3,10.27,16.13,8.24s24.82-11,30.37-19,4.66-13.45,4.66-13.45S227.4,388,228.8,380.47Z"/><path class="cls-13" d="M258.83,397.28s-14.13,15.64-26.73,21.35-28.36,10-33.71,3.67L209.47,414s-5.56,5.83-2.3,7.19S238,419.92,258.83,397.28Z"/><path class="cls-13" d="M312.64,372.58S294,401.76,262.35,411.35s-28.48,5.12-28.48,5.12l11.52-6.64s5,2.3,20.33-2.71S307.64,382.23,312.64,372.58Z"/><path class="cls-13" d="M342.08,352s-13.66,16.32-24.64,26.18S293.56,400,285.65,399.7s-.44-.38-.44-.38,25.16-21.65,27.43-26.74c0,0-6,8.65-3.36,8.65s17-16.17,17.41-19.52-3.34-3.59-3.34-3.59S336.73,359.17,342.08,352Z"/><path class="cls-3" d="M229,306.31s19.94-1.22,46.5,4.25S313,322.67,313,322.67,291,313.93,267.49,310.2s24.42,8.72,24.42,8.72S254.86,308.38,229,306.31Z"/><path class="cls-3" d="M54.17,308.7s46.48-10.9,67.14-5.38c0,0-43.9-1.26-73.64,9.29,0,0-25.29,7.66-32.49,16.84,0,0,4.34-6.95,21.67-13.85s41.16-11,41.16-11Z"/><circle class="cls-14" cx="167.1" cy="254.57" r="101.57" transform="translate(-131.07 192.72) rotate(-45)"/><circle class="cls-15" cx="163.84" cy="250.04" r="94.59" transform="translate(-128.82 189.09) rotate(-45)"/><circle class="cls-16" cx="160.95" cy="243.51" r="89.38"/><circle class="cls-17" cx="158.57" cy="240.13" r="81.82" transform="translate(-123.36 182.46) rotate(-45)"/><path class="cls-18" d="M63.22,80.49s40.81,72.21,39,83c-.93,5.62-80.84,65.47-80.84,65.47s79.91-55.16,86.77-54.54,56.81,94,56.81,94-45.57-95.83-45.26-99.58,68.36-41.16,68.36-41.16-72.24,30.89-74.6,31.17C107.76,159.45,63.22,80.49,63.22,80.49Z"/><path class="cls-18" d="M187.43,184.91s-61.29-15.74-66.26-22.41c-2.59-3.49,10.79-59,10.79-59S116,156.53,112,160s-66.27-9.38-66.27-9.38,61.36,16.55,63.25,18.7S95.5,228.66,95.5,228.66s21.21-56.06,22.3-57.51C120.45,167.65,187.43,184.91,187.43,184.91Z"/></svg>