<svg id="Layer_1" data-name="Layer 1" xmlns="http://www.w3.org/2000/svg" xmlns:xlink="http://www.w3.org/1999/xlink" width="1600" height="900" viewBox="0 0 1600 900">
  <defs>
    <style>
      .cls-1 {
        fill: none;
      }

      .cls-2 {
        clip-path: url(#clip-path);
      }

      .cls-3 {
        fill: #193f64;
      }
    </style>
    <clipPath id="clip-path">
      <rect class="cls-1" width="1600" height="900"/>
    </clipPath>
  </defs>
  <g class="cls-2">
    <g>
      <g>
        <g>
          <path class="cls-3" d="M1591.25,769.14c7.74,4.43,16.1,26.6,15.51,32.43-1.11,11-11.93.27-14.71-2.91-5-5.74-13.54-17.79-7.66-27.28C1586.41,768.12,1588.8,767.74,1591.25,769.14Z"/>
          <path class="cls-3" d="M1600.78,701.54a6.56,6.56,0,0,1,2.27.84c3.89,2.3,5.71,7.22,8.42,11,1.87,2.58,10.54,15.53,3.24,17.61-3.47,1-9.28-5.89-11.46-8.44-2.9-3.42-8.23-8.11-8.75-13.39S1597.24,701,1600.78,701.54Z"/>
          <path class="cls-3" d="M1589,735.63a7.27,7.27,0,0,1,3.62.09c7.28,2,13.81,14.21,17.16,20,1.53,2.66,4.5,7.07,2.21,10.49-4.37,6.53-11.62-1-14.94-4.41C1594,758.66,1575.77,738.77,1589,735.63Z"/>
        </g>
        <g>
          <g>
            <path class="cls-3" d="M1599,629.68c1.63,3.18-1,6.64-3.73,8.75-2.88,2.25-18,10.55-18.73,4.19-.57-4.7,14.06-15.55,20-14.6A3.09,3.09,0,0,1,1599,629.68Z"/>
            <path class="cls-3" d="M1572.33,712.59c4.1-5.17,9.08-10.88,14.43-14.29,5.6-3.57,10.39-1.75,7.92,5.77-3.35,10.18-11.63,18-20.31,21.83-6.78,3-11.78,2.58-6.57-6.57A59.1,59.1,0,0,1,1572.33,712.59Z"/>
            <path class="cls-3" d="M1572.65,802.14c2.52-4.59,6.35-8.9,10.91-10.18,4.15-1.16,8.26.39,7.68,6.07-1.13,10.92-16.22,20.93-24.41,22.6-7,1.42-4-4.57-.12-10.2C1569.18,806.83,1572,803.39,1572.65,802.14Z"/>
            <path class="cls-3" d="M1582.84,742.27c4.14,1.8,2.12,7.5.57,10.64a45.51,45.51,0,0,1-9.37,12.81c-1.64,1.49-7.42,6.86-9.6,6-5.5-2.06,1.74-18,9.49-25.67C1577.09,743,1580.33,741.18,1582.84,742.27Z"/>
            <path class="cls-3" d="M1590.94,657.64c6.47-2.87,8.06,1.69,6,8-2.67,8-10.09,13.45-16.56,17.53-5.2,3.28-14,8.51-9.75-2.1,2.36-5.91,8.15-14,14.11-19.19A25.53,25.53,0,0,1,1590.94,657.64Z"/>
          </g>
          <g>
            <path class="cls-3" d="M1593.93,599.22c.59,4.17-1,8.89-3.44,12.54-3.16,4.62-8,6.39-9.13,0-.76-4.52,1.81-10,5.22-13.51,1.43-1.47,3.11-2.48,4.53-2.47S1593.59,596.77,1593.93,599.22Z"/>
            <path class="cls-3" d="M1574.24,631.3c4.19,4.44,6.76,10.31,3,13.52-5.59,4.73-13.45-6-15.74-9.05-1.9-2.55-4.36-6.85,0-9.54C1566.35,623.21,1571.66,628.56,1574.24,631.3Z"/>
            <path class="cls-3" d="M1565.71,728.65c-1.34,6.57-8.92.74-11.12-1.28-1-.91-2.38-2.22-3.77-3.79-3.17-3.6-6.17-8.56-3.21-13C1553.92,701.23,1567.09,721.89,1565.71,728.65Z"/>
            <path class="cls-3" d="M1549.43,796.48l.43.27c5.33,3.47,11.14,12.43,11.4,19.6.36,10.29-20.68-5.63-23-9.64C1531.43,794.67,1540.53,791.15,1549.43,796.48Z"/>
            <path class="cls-3" d="M1550.82,744.31a16.24,16.24,0,0,1,5.76,4.76c3.37,4.51,10.82,20.39,2.6,24.06-9,4-15.08-13.78-18-19.75-1.66-3.49-3.72-5.73.29-9C1544.23,742.13,1548.16,743,1550.82,744.31Z"/>
            <path class="cls-3" d="M1559.62,663.08c.74.28,1.89,1.61,3.17,3.53,4.27,6.4,9.87,19.4,5.49,22.38-5.9,4-14.65-8.08-16.36-12.13C1549.34,670.73,1550.8,659.67,1559.62,663.08Z"/>
          </g>
        </g>
        <g>
          <path class="cls-3" d="M1500.83,687.16c2.43-.22,4.13,1.72,5.61,3.22a20.73,20.73,0,0,1,4.93,7.11,25.44,25.44,0,0,1,1.93,9.07c0,3.28-3.5,4.24-5.78,3.37-4.08-1.55-7.64-5.72-10-9.36a11.29,11.29,0,0,1-2-6.23c.05-2.81,1.57-6.25,4.45-7A4,4,0,0,1,1500.83,687.16Z"/>
          <path class="cls-3" d="M1510.26,728a17.6,17.6,0,0,1,7,1c.49.17,4.55,2.1,4.06,2.84a21.11,21.11,0,0,1-10,8.11c-3.29,1.27-9.65,1.91-9.22-4C1502.45,730.38,1506.24,728.33,1510.26,728Z"/>
          <path class="cls-3" d="M1520.76,776.29a22.59,22.59,0,0,1,13.52,8c1.72,2.17.23,5-2,5.79a15.17,15.17,0,0,1-7.33.19c-4.54-.68-10.66-1.52-13-6.69-1-2.15-1.32-5.39.89-6.89S1518.33,775.87,1520.76,776.29Z"/>
          <path class="cls-3" d="M1520.64,825.06c6.36,2.63,11,7.25,15,13.52,1.41,2.24,3.18,5.87-.11,7.69-2.92,1.62-6.84-.34-9.42-1.61-4.26-2.11-9.11-4.52-11.91-9a10.83,10.83,0,0,1-1.36-8.76C1514.14,823,1518.22,824.06,1520.64,825.06Z"/>
          <path class="cls-3" d="M1511,744.91c4.89.38,10.93,2.67,14.55,6.5,1.9,2,.31,4.67-1.76,5.47a16.22,16.22,0,0,1-7.06.68c-4.62-.27-10.85-.57-13.78-5.23-3.65-5.81.34-6.53.26-6.47C1505.37,744.32,1508.54,744.72,1511,744.91Z"/>
          <path class="cls-3" d="M1521.21,802a20.74,20.74,0,0,1,7.29,5.34c1.38,1.57,4.37,4.4,4.32,6.93-.13,6.34-9.84,2-12.22.95-3.68-1.62-8.78-4-9.54-9.18C1509.87,798,1517.72,800.38,1521.21,802Z"/>
        </g>
        <path class="cls-3" d="M1522.86,854.66a34.82,34.82,0,0,1,10,6.94c2.89,3,6.14,7.09,7.8,11.29,1.48,3.77-2,6-4.85,6-6-.16-12.68-4.23-17.65-7.77a18.84,18.84,0,0,1-6.34-6.92c-1.44-3-2.12-8.61,1-10.85S1520.12,853.31,1522.86,854.66Z"/>
        <path class="cls-3" d="M1512.84,853.31Z"/>
        <g>
          <path class="cls-3" d="M1503.74,717.24Z"/>
          <path class="cls-3" d="M1518.75,708.23c2-2.08,4.43-1.72,6.28.14s2.11,5,1.91,7.72c-.45,6.15-2.79,13.09-6.59,17.64a23.14,23.14,0,0,1-4.18-11.49c-.5-4.22-.57-10.75,2.57-14Z"/>
          <path class="cls-3" d="M1503.75,717.23h0C1504.07,716.9,1504,717,1503.75,717.23Z"/>
          <path class="cls-3" d="M1503.74,717.24h0Z"/>
          <path class="cls-3" d="M1542.94,761a4.16,4.16,0,0,1,.9.2c4,1.25,2.47,7.7,1.65,11.21a25,25,0,0,1-5.26,10.29c-1.34,1.69-3.16,4.59-5.33,3.69-4.22-1.74-1.6-10.79-.63-14.55C1535.4,767.46,1538.25,760.44,1542.94,761Z"/>
          <path class="cls-3" d="M1548.49,817.64c2.34-1,5.9-.78,7.1,2,1.3,3-.55,7-1.85,9.77-3,6.21-7.74,12-13.51,14.49-3,1.29-4.41-2.25-4.06-5.25a28.69,28.69,0,0,1,3.08-9C1541.44,825.14,1544.08,819.51,1548.49,817.64Z"/>
          <path class="cls-3" d="M1524.35,737.3h0Z"/>
          <path class="cls-3" d="M1524.34,737.3Z"/>
          <path class="cls-3" d="M1532.34,731.3h0c4.69-.7,3.85,6.45,3.34,9.94a23.76,23.76,0,0,1-3.45,9.31c-1.11,1.77-2.73,5.14-4.87,4.77-4.29-.74-1.66-10.44-1.09-14C1527,736.7,1527.71,732,1532.34,731.3Z"/>
          <path class="cls-3" d="M1524.34,737.3h0Z"/>
          <path class="cls-3" d="M1542,793.91c1.93-.77,4.91-.81,6.08,1.34,1.28,2.38-.3,5.71-1.41,7.92-2.59,5.14-7,10.17-11.9,12-2,.75-3.57-1.28-3.5-3.59.09-2.8,1.45-5.56,2.68-7.93C1536,799.86,1538.3,795.41,1542,793.91Z"/>
          <path class="cls-3" d="M1556.36,846.21c2.68-1,7-1,8.55,2,1.91,3.62-1,8.69-2.83,11.79a35.54,35.54,0,0,1-7.71,9.64c-2.89,2.44-7,5.6-10.46,6.35s-4.32-4-3.59-7.11a34.27,34.27,0,0,1,4.14-9.37C1547.48,854.32,1551,848.21,1556.36,846.21Z"/>
        </g>
        <path class="cls-3" d="M1539.12,838c.7,13.63,2.14,28.15,6.62,40.76,1.24,3.48,6.79,15.67,10.73,14.28,6-2.12,2.82-24,2.68-29-.21-7.51-1.16-15-1.07-22.55C1560.66,626,1593.66,595,1588.66,602c-28,105-24,185.55-24.71,230.5,0,3.34-.16,6.69-.18,10,0,9.54.13,19,1,28.44.4,4.61.58,18.45,6.86,13.61,5.33-4.1,10-12.54,12.73-19.13,11-26.24,16.79-53,20.67-81.15,8.92-64.45,8.49-145.84,43.89-201.6,20.82-32.8,46.76-36.16,78-38.91-12.58,1.11-26.59,5.39-38.61,10.51a74.84,74.84,0,0,0-28.1,20.44c-15.29,18.07-23.78,43.48-29.32,67.26-6.56,28.1-8.78,57-11.57,85.61-2.87,29.37-6.59,58.93-12.14,88-5.25,27.53-14.16,51.2-29.71,73.26-.92,1.3-5.35,6-5.38,7.5-.08,5.52,5-.87,6.2-2,2.94-2.91,5.78-6,8.49-9.18,68-80.76,113-270,205.34-205.24-2.29-1.12-5-1.56-7.47-2.28-18-5.34-37.41-9.51-55.55.9-16.9,9.7-29.72,28.41-40.86,45.78-13.19,20.57-24.62,42.48-35.44,64.75a602.34,602.34,0,0,1-37,65.65c-8.88,13.68-17.71,27.84-28.63,39-7.08,7.2-8.87,12-4.45,8.82,2.75-2,5.4-4.34,7.85-6,5.55-3.88,10.78-8.35,16-12.82,19.59-16.8,39.32-35,60.53-48.63,15-9.69,35.29-20.94,50.91-9.61-.64.81,1-.29.61.76-19.73-10.05-43,7.27-59.66,20.47-22.28,17.62-42.56,39-65.86,54.76-11.88,8-27.52,17.32-39.57,6.68-5.89-5.19-7.06-11.38-10.22-19-5.5-13.34-11.49-27.87-10.62-42.77,4-69.3-18-141.29-32-150.3C1514,703.07,1534.66,751,1539.12,838Z"/>
      </g>
      <g>
        <g>
          <g>
            <path class="cls-3" d="M1160.26,695.56c-4.55-5.91-4.79-11-.92-13.72a6.85,6.85,0,0,1,4.45-1.23c3,.22,6,2.31,9,6.21a24.72,24.72,0,0,1,4,9.36,45.7,45.7,0,0,1,1.17,8.43l0,1.58-1.58-.53C1176,705.51,1165.08,701.83,1160.26,695.56Z"/>
            <path class="cls-3" d="M1161.07,717.67a6.23,6.23,0,0,1-.58-2.2,5.92,5.92,0,0,1,1.73-4.83c2.46-2.49,5.85-2.78,8.81-2.51,4,.36,15.86.79,15,6.49C1184.88,722.06,1163.82,723.44,1161.07,717.67Z"/>
            <path class="cls-3" d="M1169.21,723.49c3.38-2.75,8.82-.8,12.56.8,3,1.27,13.53,8.48,12.73,11.62-.22.88-1.32,1.43-3.7,1.47-5.77.07-18.54-2.88-22.52-6.91C1166,728.16,1166.76,725.48,1169.21,723.49Z"/>
            <path class="cls-3" d="M1189.64,747.84a62.31,62.31,0,0,1,7.15,3c3.82,2,6.79,4.62,2.74,7-3.79,2.25-10.92.48-15.31,0-3.84-.44-9.66-2-10.87-5.88C1171,744.39,1184.85,746.1,1189.64,747.84Z"/>
            <path class="cls-3" d="M1188.65,766.85a30.41,30.41,0,0,1,15.28,4.43c.59.36,1.32.83,2.06,1.36,7,5.13,2,7.51-3.53,8.2s-15.29.18-19.37-5.67C1180.11,770.9,1184.34,766.93,1188.65,766.85Z"/>
            <path class="cls-3" d="M1202.24,791.71l.3.2c4.09,2.77,13,11.11,11.26,16.77-2.79,9.3-23.22-8.53-23.41-15.29C1190.17,786,1198.88,789.53,1202.24,791.71Z"/>
            <path class="cls-3" d="M1189.15,828.44a3.38,3.38,0,0,1,2.77-1.25c3.43-.12,8.49,2.44,10.56,4,3,2.35,17.79,14.89,8.08,15.62-3,.23-6.76-1.81-9.69-3.09C1197.3,842.21,1185.2,833.94,1189.15,828.44Z"/>
            <path class="cls-3" d="M1199.88,860.29a17.2,17.2,0,0,1,7.06,3.47c3.46,3,12.84,11.52,8.9,17.77-2.29,3.62-9.48-1.08-11.47-3.28-3.12-3.45-6.67-5.72-8.75-10.44C1192.55,860.83,1195.84,859.42,1199.88,860.29Z"/>
            <path class="cls-3" d="M1193.77,896.93a5.78,5.78,0,0,1,2.14.09c3.89.9,6.73,4.55,10,7,2.26,1.67,13,10.26,7.43,14-2.66,1.76-9.38-2.48-11.89-4.05-3.36-2.1-9.1-4.62-11-8.93S1190.64,897.4,1193.77,896.93Z"/>
          </g>
          <g>
            <path class="cls-3" d="M1182.86,711.32c-3.83-4.09-7.2-15.34-2.68-20.84a5,5,0,0,1,2.94-1.77c6.41-1.23,8.29,3.56,8.3,9.49C1191.42,702.07,1190.06,719,1182.86,711.32Z"/>
            <path class="cls-3" d="M1192.35,721.82c1.25-3.26,3-5.36,5.27-6.26a6.84,6.84,0,0,1,4.56-.13c12.58,3.88-4.57,24.36-9.35,18.81C1190.33,731.34,1191.24,724.92,1192.35,721.82Z"/>
            <path class="cls-3" d="M1200.15,752.2a15.64,15.64,0,0,1,3.8-11.77c.57-.57,5.61-5.57,9.7-2.84,2.06,1.37,3.72,4.4,0,11l-.08.14C1211.42,752.48,1201.25,761.58,1200.15,752.2Z"/>
            <path class="cls-3" d="M1208.33,772.69a21.14,21.14,0,0,1,5-12.79c.63-.68,6.29-6.55,10.74-3.59,6.13,4.09,1,12.07-1.75,15.2S1208,783.08,1208.33,772.69Z"/>
            <path class="cls-3" d="M1230.66,794.44a6.78,6.78,0,0,1,1.41,4.39c-.07,2.76-1.65,5.63-4.69,8.55-2.58,2.48-9.69,7-13.41,5.12a3.32,3.32,0,0,1-1.52-1.4c-1.35-2.44.75-6.34,1.9-8.55C1216.93,797.56,1224.86,786.87,1230.66,794.44Z"/>
            <path class="cls-3" d="M1218.51,830.83c1.6-5.48,5.8-15.17,12.52-9.05s-5.81,21.68-10,23.5c-6.86,3-4.36-7.84-3-12.74C1218.22,831.82,1218.4,831.24,1218.51,830.83Z"/>
            <path class="cls-3" d="M1236.9,864.85c1.71,7.11-7.05,12.55-11.2,15.21-2.5,1.6-9.55,4.89-9.08-1.55.15-2,1.77-5.17,4-8.25C1223.35,866.57,1234.37,854.4,1236.9,864.85Z"/>
            <path class="cls-3" d="M1235,897.37c1.57,5.54-3.52,10.53-6.66,13.33-2.68,2.39-9.18,8.57-12.86,6.76s-1.89-7.84,1.94-13.36C1223,896.07,1232.66,889.06,1235,897.37Z"/>
          </g>
        </g>
        <g>
          <g>
            <path class="cls-3" d="M1351.34,775.55c.12-9.12-4.69-10.8-6.76-11.1-1.79-.25-6-.12-7,6.72a20.49,20.49,0,0,0-.17,2.45c-.1,6.73,5.58,15.46,5.83,15.83l.86,1.31.94-1.1C1345.31,789.38,1351.28,782.28,1351.34,775.55Z"/>
            <path class="cls-3" d="M1355.32,799.44c4.33-2.79,7.6-6.76,4.46-10.33-2.41-2.74-8.35-.65-11.26,0-7.91,1.92-14.37,15.63-1.76,13.81A24.3,24.3,0,0,0,1355.32,799.44Z"/>
            <path class="cls-3" d="M1360.48,811.88c2.12-7.74-12.61-3.81-15.71-1.91-3.66,2.25-12.06,10.78-4.21,12.78,2.51.64,8-1.61,12.54-4.37C1356.86,816.12,1360,813.51,1360.48,811.88Z"/>
            <path class="cls-3" d="M1354.32,832.49c-.23-2.12-2.63-4.06-7.67-4.53s-12.72.87-16.15,4C1323.91,838.08,1355.35,842.16,1354.32,832.49Z"/>
            <path class="cls-3" d="M1341.07,853.19c-1.26-5.24-11.76-6.86-16.9-7.24-4-.3-16.46.61-10.86,6.17,1.5,1.49,4.55,2.75,7.68,3.84,2.74.94,5.55,1.76,7.42,2.49C1333.15,860.28,1342.56,859.36,1341.07,853.19Z"/>
            <path class="cls-3" d="M1317.57,860.15c-4.71-1.16-12.81.06-17.53,1.79-10.35,3.8-2.25,8.08,5.26,7.88,5.84-.17,12.3-1.5,14.13-3.16C1323.47,863,1322.06,861.25,1317.57,860.15Z"/>
            <path class="cls-3" d="M1306.86,889.82c1.24-8.17-15.34-6.57-20.77-5.69-6.51,1-11.77,3.78-4,7.5a25,25,0,0,0,4.23,1.43C1293.48,895,1305.87,896.32,1306.86,889.82Z"/>
            <path class="cls-3" d="M1260.45,906.83c1.42,2.79,6.29,18,2.42,19.43-2.55,1-5.38-1.51-7.74-5.28-3.92-6.26-6.54-16.13-4.38-19.85C1254.42,894.77,1258.37,902.76,1260.45,906.83Z"/>
          </g>
          <g>
            <path class="cls-3" d="M1340.48,802.6c2.4-2.7-4.33-11.28-6.11-13.27-5.06-5.67-14.63-4.85-10.77,3.4,1.42,3,12.66,12.76,16.51,10.19A2.3,2.3,0,0,0,1340.48,802.6Z"/>
            <path class="cls-3" d="M1327.85,802.27c-6.88-4.91-7.55.76-6,5.62,1.73,5.47,6.21,14.12,14.71,11.42C1344.53,816.78,1330.82,804.38,1327.85,802.27Z"/>
            <path class="cls-3" d="M1329.67,833.19c1.87-4-8.13-18.08-13.2-14-5.22,4.21,3.11,18.1,10.53,16.4A4,4,0,0,0,1329.67,833.19Z"/>
            <path class="cls-3" d="M1310.49,832c-5.41-16.85,16.14,17.19-8.41,18.73-10.6.66-2.25-19.91,3.84-22.22C1307.71,827.82,1309.39,828.58,1310.49,832Z"/>
            <path class="cls-3" d="M1297.39,853.7c-1.89-5.6-8.66-9-12.56-1.67-.93,1.75-.45,5,.84,8,2.14,4.9,6.47,9.24,10.41,5.7C1299.11,863,1298.38,856.63,1297.39,853.7Z"/>
            <path class="cls-3" d="M1282.23,870.65c-1.25-3.82-3.82-7-8.9-4-4.22,2.46-3.86,11.31-.95,16.37C1278.78,894.11,1284,875.86,1282.23,870.65Z"/>
          </g>
        </g>
        <g>
          <g>
            <path class="cls-3" d="M1142.64,819.33c2.54,1.87,1.81,5.65.51,8.38-1.39,2.92-10,15.43-13.14,10.71-2.31-3.49,5-17.83,10-19.44A2.77,2.77,0,0,1,1142.64,819.33Z"/>
            <path class="cls-3" d="M1147,886c3-5,6.67-10.59,11-14.2,4.48-3.79,8.89-2.75,7.61,4.12-1.74,9.3-8.06,17.14-15.21,21.49-5.58,3.4-10,3.65-6.52-5A52.19,52.19,0,0,1,1147,886Z"/>
            <path class="cls-3" d="M1151.48,840.79c4.46-4.38,7.19-1.11,7.41,4.73.29,7.42-4.14,14.25-8.21,19.64-3.27,4.34-8.89,11.39-8.71,1.3.11-5.61,2.37-14.11,5.67-20.25A23.11,23.11,0,0,1,1151.48,840.79Z"/>
          </g>
          <g>
            <path class="cls-3" d="M1126.59,798.78c2.28,2.94,3.17,7.23,2.87,11.12-.39,4.93-3.35,8.43-7,4-2.57-3.12-3-8.44-1.94-12.63a6.24,6.24,0,0,1,2.39-3.89C1124,796.79,1125.25,797.05,1126.59,798.78Z"/>
            <path class="cls-3" d="M1129.8,827c3.58,4,5.7,9.27,2.25,12-5,4-11.72-5.61-13.66-8.39-1.61-2.3-3.67-6.16.25-8.42C1123,819.66,1127.59,824.52,1129.8,827Z"/>
            <path class="cls-3" d="M1127.3,855.05c.7,0,2.07.74,3.72,1.92,5.52,4,14.2,13,11.51,16.79-3.63,5.15-14.62-2.11-17.3-4.93C1121.19,864.57,1119,855,1127.3,855.05Z"/>
          </g>
        </g>
      </g>
      <g>
        <g>
          <g>
            <path class="cls-3" d="M1322.52,649.83c-.62-6,1.4-9.66,5.22-9.86a5.47,5.47,0,0,1,3.6,1c2,1.44,3.19,4.18,3.6,8.16a20.12,20.12,0,0,1-1.22,8.18,37,37,0,0,1-2.79,6.32l-.64,1.11-.87-1C1329.17,663.43,1323.17,656.21,1322.52,649.83Z"/>
            <path class="cls-3" d="M1320.43,673.37a5.2,5.2,0,0,1,.54-1.76,4.84,4.84,0,0,1,3.27-2.58c2.77-.66,5.22.61,7.15,2.07,2.62,2,10.57,7.36,7.52,10.91C1334.93,686.65,1319.84,678.53,1320.43,673.37Z"/>
            <path class="cls-3" d="M1329.88,685.16c3.23-1.43,7.09,1.25,9.68,3.29,2,1.63,8.79,9.53,7.5,11.82-.36.63-1.34.84-3.21.36-4.54-1.17-13.92-6.2-16.18-10.2C1326.36,688.13,1327.54,686.2,1329.88,685.16Z"/>
            <path class="cls-3" d="M1343,709.91a49.4,49.4,0,0,1,5.47,3.12c2.89,2,5,4.38,1.52,5.93-3.27,1.44-8.84-.68-12.33-1.51-3.05-.73-7.59-2.58-8.19-5.79C1328.29,705.32,1339.32,708,1343,709.91Z"/>
            <path class="cls-3" d="M1341.29,725.74a24.77,24.77,0,0,1,11.52,5.84c.42.38.93.86,1.44,1.4,4.84,5.15.47,6.29-4,6s-12.22-2.16-14.6-7.45C1333.87,727.69,1337.85,725.16,1341.29,725.74Z"/>
            <path class="cls-3" d="M1353.32,748.17l.27.09c3.82,1.24,12.62,5.73,12.58,10.53-.08,7.88-20-1.4-21.72-6.63C1342.61,746.43,1350.2,747.23,1353.32,748.17Z"/>
            <path class="cls-3" d="M1365.21,868.89c6.24,1.34,16.76,14.67,17.62,18.79,1.63,7.74-8.09,2.77-10.68,1.2-4.66-2.84-13.11-9.22-11.15-17C1361.68,869.24,1363.23,868.46,1365.21,868.89Z"/>
            <path class="cls-3" d="M1348.74,765.62a2.71,2.71,0,0,1,2.43-.38c2.71.65,6.12,3.74,7.39,5.44,1.87,2.5,10.72,15.49,3,14-2.44-.48-4.9-2.87-6.92-4.51C1352.15,778.15,1344.46,769.07,1348.74,765.62Z"/>
            <path class="cls-3" d="M1353.29,793.46a13.92,13.92,0,0,1,5.93,2.38c3,2.23,11.09,8.56,8.28,13.85-1.64,3.07-7.74-.3-9.49-2-2.73-2.6-5.74-4.22-7.71-7.92C1347.4,794.33,1350,793,1353.29,793.46Z"/>
            <path class="cls-3" d="M1357.06,820.64a4.45,4.45,0,0,1,1.73.08c3.15.72,5.47,3.69,8.13,5.65,1.83,1.36,10.56,8.33,6,11.33-2.16,1.43-7.62-2-9.66-3.28-2.72-1.71-7.39-3.76-8.88-7.25S1354.52,821,1357.06,820.64Z"/>
            <path class="cls-3" d="M1356.4,846.48a5,5,0,0,1,2.49-.72c5.41-.21,12.52,6.71,16.06,9.94,1.62,1.48,4.61,3.85,3.79,6.69-1.57,5.4-8.15,1.86-11.17.22C1364.83,861.12,1348,851.49,1356.4,846.48Z"/>
          </g>
          <g>
            <path class="cls-3" d="M1338.16,678.38c-.88-4.46,1.64-13.66,7.12-15.5a4.08,4.08,0,0,1,2.78,0c4.94,1.91,4.18,6,1.63,10.1C1348,675.69,1339.8,686.78,1338.16,678.38Z"/>
            <path class="cls-3" d="M1348.37,688.77c1.66-2.29,3.5-3.56,5.46-3.78a5.53,5.53,0,0,1,3.6.86c9,5.72-8.76,18.12-11.33,12.75C1344.76,695.8,1346.83,691,1348.37,688.77Z"/>
            <path class="cls-3" d="M1351.06,714.45a12.65,12.65,0,0,1,4.2-9.12c.52-.41,5.06-3.94,8.1-1.35,1.52,1.31,2.57,3.91-1.08,8.88l-.08.11C1360.11,715.77,1351,722.11,1351.06,714.45Z"/>
            <path class="cls-3" d="M1356.11,733.37a17.18,17.18,0,0,1,5.87-9.45c.61-.45,6-4.28,9.12-1.25,4.27,4.19-1,9.78-3.69,11.86S1354.31,741.62,1356.11,733.37Z"/>
            <path class="cls-3" d="M1376.09,743.88a5.53,5.53,0,0,1,2.09,3.1c.57,2.17,0,4.76-1.72,7.72-1.46,2.52-6,7.68-9.3,7a2.77,2.77,0,0,1-1.51-.75c-1.6-1.6-.84-5.11-.44-7.1C1366.09,749.41,1369.86,739.29,1376.09,743.88Z"/>
            <path class="cls-3" d="M1398.78,871.2a6.91,6.91,0,0,1,2.8.9,4,4,0,0,1,2.07,2.82c1.06,5.59-2.82,9.73-6.35,12.3-2.28,1.66-14.49,10.41-14.66,2.33-.07-3.12,1.54-6.83,3.9-10.09C1390,874.7,1395,870.88,1398.78,871.2Z"/>
            <path class="cls-3" d="M1368.94,772.92c2.43-3.95,7.8-10.63,11.75-4.38s-9.22,15.71-12.91,16.23c-6,.84-1.71-7.08.41-10.62C1368.5,773.63,1368.76,773.21,1368.94,772.92Z"/>
            <path class="cls-3" d="M1383.54,794.92c1.82,5.65-5,10.59-8.15,13-1.93,1.44-7.43,4.53-7.44-.71,0-1.65,1.12-4.29,2.76-6.92C1372.68,797.13,1380.86,786.61,1383.54,794.92Z"/>
            <path class="cls-3" d="M1390.53,821c1.27,4.49-2.86,8.55-5.41,10.82-2.18,1.93-7.45,6.95-10.43,5.49s-1.54-6.37,1.56-10.85C1380.77,819.94,1388.62,814.25,1390.53,821Z"/>
            <path class="cls-3" d="M1383,848.29c2.23-3.85,5.61-7.37,9.9-7a8.86,8.86,0,0,1,1.49.28,3.57,3.57,0,0,1,2.55,2.3c2.25,6.65-5.27,14-9.2,16.66-1.91,1.3-5.69,4.46-8.07,2.91-3.89-2.56-.07-9.41,1.43-12C1381.83,850.26,1382.51,849.18,1383,848.29Z"/>
          </g>
        </g>
        <g>
          <g>
            <path class="cls-3" d="M1488,759.58c7.25,1.51,7.74,5.61,7.61,7.31-.11,1.46-1,4.81-6.55,4.33a15.24,15.24,0,0,1-2-.3c-5.35-1.1-11.27-7.13-11.52-7.39l-.89-.92,1-.54C1476,761.93,1482.63,758.45,1488,759.58Z"/>
            <path class="cls-3" d="M1470,750.72c2.13-3.6,5.26-6.37,8.25-3.93,2.29,1.88.77,6.76.28,9.14-1.32,6.48-12.25,12.12-11.15,1.83A19.72,19.72,0,0,1,1470,750.72Z"/>
            <path class="cls-3" d="M1459.77,746.9c6.22-1.95,3.46,10.12,2,12.69-1.72,3-8.39,10.1-10.24,3.78-.59-2,1.07-6.5,3.18-10.3C1456.44,750,1458.46,747.32,1459.77,746.9Z"/>
            <path class="cls-3" d="M1443.23,752.51c1.73.11,3.38,2,3.91,6.08s-.33,10.35-2.8,13.22C1439.6,777.34,1435.36,752,1443.23,752.51Z"/>
            <path class="cls-3" d="M1417.84,752.86c4.28.87,5.9,9.34,6.37,13.5.36,3.22,0,13.37-4.69,9-1.25-1.18-2.36-3.61-3.34-6.12-.85-2.2-1.6-4.45-2.23-5.94C1412.32,759.49,1412.78,751.83,1417.84,752.86Z"/>
            <path class="cls-3" d="M1411.81,779.76c2.54,3,4.54,9.35,5,13.42,1,8.9-5.08,4.53-7.62-1-2-4.31-3.31-9.49-2.75-11.42C1407.63,776.49,1409.4,776.88,1411.81,779.76Z"/>
            <path class="cls-3" d="M1389.82,892.07c.71-.44,1.77-.3,3.3.68,4.41,2.81,9.62,19,6.79,23.82C1394,926.69,1384.48,895.36,1389.82,892.07Z"/>
            <path class="cls-3" d="M1398.86,801.81c5.4-4,10.52,8.54,11.93,12.78,1.71,5.07,1.74,9.88-3.85,5.74a20.49,20.49,0,0,1-2.63-2.5C1400.23,813.36,1394.57,805,1398.86,801.81Z"/>
            <path class="cls-3" d="M1405.18,830.05c1.54,2,7.59,13.47,4.7,15.19-1.89,1.12-4.51-.45-6.93-3.12-4-4.45-7.52-12-6.33-15.25C1398.65,821.27,1402.94,827.09,1405.18,830.05Z"/>
            <path class="cls-3" d="M1402.34,848.34c3.28,1.43,7.51,9.24,8.61,13,1.7,5.84-1.47,7.26-5.51,4.52a17.69,17.69,0,0,1-2.68-2.36C1399.81,860.38,1393.38,844.43,1402.34,848.34Z"/>
            <path class="cls-3" d="M1398.33,872.64c3.92,3.44,7.72,9.77,7.83,15.66.17,8.65-6.51,2.66-9.24-1,0,0-.29-.41-.3-.41-2.45-3.33-6.33-8.82-6.34-13.49C1390.28,866.45,1395.46,870.13,1398.33,872.64Z"/>
          </g>
          <g>
            <path class="cls-3" d="M1467.89,762.85c2.12-2,9.28,3.18,10.95,4.56,4.74,3.94,4.36,11.73-2.44,8.84-2.48-1.06-10.73-9.89-8.76-13.09A1.54,1.54,0,0,1,1467.89,762.85Z"/>
            <path class="cls-3" d="M1468.53,773.08c4.19,5.44-.4,6.15-4.38,5-4.49-1.24-11.64-4.62-9.7-11.59C1456.27,760,1466.73,770.74,1468.53,773.08Z"/>
            <path class="cls-3" d="M1443.39,772.52c3.16-1.63,14.91,6.06,11.76,10.3s-14.77-2-13.6-8.07A3.21,3.21,0,0,1,1443.39,772.52Z"/>
            <path class="cls-3" d="M1434.14,784.73c3.45-1,14.78,1.12,14.94,7.37.22,8.62-16.22,1.24-17.91-3.77C1430.67,786.86,1431.34,785.52,1434.14,784.73Z"/>
            <path class="cls-3" d="M1423.73,792.16c4.76-.63,9.64,3.09,5.72,8.55-1,1.31-3.46,2.11-6.11,2.24-4.34.2-9-1.4-7.88-5.54C1416.36,794.22,1421.24,792.48,1423.73,792.16Z"/>
            <path class="cls-3" d="M1421.94,812.26c3.21-.54,6.48.1,6.27,4.87-.18,4-6.67,7-11.41,6.86C1406.39,823.61,1417.55,813,1421.94,812.26Z"/>
            <path class="cls-3" d="M1424.35,834.65c4,3,1.79,7.23-1.87,9.91s-9.24,3.89-11.31,1.59a3.31,3.31,0,0,1-.83-2.61C1410.8,838.93,1420.5,831.79,1424.35,834.65Z"/>
            <path class="cls-3" d="M1426.21,860.9c2.39,3.27.3,6.38-3.06,8.41-4.23,2.55-10.48,3.37-12.24.57C1407.38,864.29,1422.18,855.41,1426.21,860.9Z"/>
            <path class="cls-3" d="M1424.73,882.38a4.06,4.06,0,0,1,1.28,3.09c-.31,6-8.86,8.82-14.68,8.47-3.27-.19-5.69-1.39-5.3-3.56C1407.33,883.14,1419.71,877.23,1424.73,882.38Z"/>
          </g>
        </g>
        <g>
          <g>
            <path class="cls-3" d="M1326.36,775c2.08,1.48,1.52,4.56.5,6.8s-8,12.63-10.53,8.84c-1.91-2.8,3.83-14.53,7.93-15.89A2.21,2.21,0,0,1,1326.36,775Z"/>
            <path class="cls-3" d="M1340.15,830.69c2-4.29,4.49-9.12,7.63-12.39,3.3-3.44,7-3,6.5,2.67a26.88,26.88,0,0,1-10.46,18.64c-4.22,3.22-7.77,3.79-5.69-3.46A41.49,41.49,0,0,1,1340.15,830.69Z"/>
            <path class="cls-3" d="M1359.65,895.46c.73-3.68,2.41-7.45,5.24-9.31,2.59-1.7,5.74-1.53,6.57,2.48,1.6,7.7-6.54,17.81-11.78,20.73-4.49,2.49-3.7-2.26-2.29-6.94C1358.3,899.42,1359.46,896.46,1359.65,895.46Z"/>
            <path class="cls-3" d="M1353.63,852.35c3.22.33,3.07,4.67,2.7,7.14a32.75,32.75,0,0,1-3.63,10.79c-.79,1.37-3.58,6.3-5.25,6.21-4.2-.22-2.71-12.67.92-19.61C1349.85,854.06,1351.68,852.15,1353.63,852.35Z"/>
            <path class="cls-3" d="M1337,792.18c3.84-3.32,5.88-.52,5.76,4.22-.17,6-4.12,11.33-7.7,15.47-2.88,3.34-7.81,8.76-7.12.6a41.21,41.21,0,0,1,5.66-16.1A18.91,18.91,0,0,1,1337,792.18Z"/>
          </g>
          <g>
            <path class="cls-3" d="M1298.44,760.18a13.46,13.46,0,0,1,7,6.19c2,3.49,1.57,7.19-2.89,5.86-3.15-.93-5.86-4.32-7-7.63a5,5,0,0,1-.15-3.69C1295.78,760,1296.75,759.63,1298.44,760.18Z"/>
            <path class="cls-3" d="M1311.14,784.24c4.12,1.45,7.68,4.33,6.31,7.63-2,4.85-10.51.64-13-.57-2-1-5-2.92-3.13-6.07C1303.47,781.7,1308.6,783.35,1311.14,784.24Z"/>
            <path class="cls-3" d="M1338.25,843c.18,4.81-6.09,2-8,1-.83-.47-2-1.14-3.27-2-2.82-2-5.74-4.92-4.43-8.49C1325.4,825.88,1338.07,838.05,1338.25,843Z"/>
            <path class="cls-3" d="M1342.56,896.64l.36.08c4.39,1.22,10.3,6.08,12,10.93,2.48,7-15.35.63-17.78-1.61C1329.87,899.3,1335.32,894.92,1342.56,896.64Z"/>
            <path class="cls-3" d="M1330.37,861.54a11.58,11.58,0,0,1,5.28.94c3.69,1.63,13.94,8.92,10.09,14.11-4.18,5.66-14.26-3.29-18.16-6-2.27-1.6-4.34-2.26-3-5.73C1325.49,862.5,1328.26,861.67,1330.37,861.54Z"/>
            <path class="cls-3" d="M1316.62,802.44a7.45,7.45,0,0,1,2.91,1.76c4.26,3.5,10.81,11.25,8.43,14.21-3.21,4-11.73-2.49-13.75-4.91C1311.16,809.83,1309.86,801.94,1316.62,802.44Z"/>
          </g>
        </g>
        <g>
          <path class="cls-3" d="M1446.43,867.78c2.36,2.16,4.38,6.58,3.67,10-.34,1.65-2.57,9.79-4.77,5.81-1.91-3.47-4.78-8-4.21-12.33l.06-.38C1441.74,867.75,1443.69,865.27,1446.43,867.78Z"/>
          <path class="cls-3" d="M1441.18,870.92a1.89,1.89,0,0,0,0,.23C1441.41,869.38,1441.31,870.05,1441.18,870.92Z"/>
          <path class="cls-3" d="M1441.13,871.15c0,.05,0,.1,0,.15C1441,872.2,1440.86,873,1441.13,871.15Z"/>
          <path class="cls-3" d="M1441.18,870.92l-.06.38s0-.1,0-.15A1.89,1.89,0,0,1,1441.18,870.92Z"/>
          <path class="cls-3" d="M1458.37,885.65a11,11,0,0,1,4.57,3.74c1.11,1.71,1.38,4.34-.47,4.85s-3.92-.4-5.63-1.23a32.61,32.61,0,0,1-5.14-3.2c-1.85-1.35-3.65-2.86-5.44-4.44l1.32-.52A13.05,13.05,0,0,1,1458.37,885.65Z"/>
          <path class="cls-3" d="M1420.92,888.61c3.94-1.17,5.36,9.55,5.6,12a30.14,30.14,0,0,1-.29,7.24,4.09,4.09,0,0,1-.75,2.29c-.79.75-2-.24-2.58-1-2-2.83-4.12-6.62-4.69-10S1417.15,889.72,1420.92,888.61Z"/>
          <path class="cls-3" d="M1433.73,876.59c3.68-1.54,4.27,4.87,4.51,7.67a21.71,21.71,0,0,1-1.07,8.7c-.52,1.56-1.1,4.6-2.8,4.77-3.67.39-4-7.74-4.17-10.6C1429.93,883.19,1430.12,878.1,1433.73,876.59Z"/>
          <path class="cls-3" d="M1435.82,895.57c.07-.07.06-.07,0,0Z"/>
          <path class="cls-3" d="M1444.39,895c3,.43,7.06,2,7.47,6.23.44,4.47-5.95,3.55-8.26,3-1.9-.42-12-4.74-8.17-8.38C1437.61,893.86,1441.69,894.65,1444.39,895Z"/>
          <path class="cls-3" d="M1435.82,895.57l-.39.36C1435,896.32,1435.61,895.76,1435.82,895.57Z"/>
          <path class="cls-3" d="M1455.66,879.16h0C1456,877.6,1455.74,878.78,1455.66,879.16Z"/>
          <path class="cls-3" d="M1455.65,879.16h0C1455.63,879.28,1455.62,879.31,1455.65,879.16Z"/>
          <path class="cls-3" d="M1455.66,879.16c.73-3.31,4.83-5.15,7.36-5.66a8.46,8.46,0,0,1,5.18.37c1.38.62,3.23,2.19,3,4.17-.3,3.06-4.92,4.26-7,4.67-1.83.35-9.52.83-8.57-3.54Z"/>
          <polygon class="cls-3" points="1455.65 879.16 1455.66 879.16 1455.65 879.17 1455.65 879.16"/>
        </g>
        <g>
          <path class="cls-3" d="M1297.17,827.94c1.71-.35,3.08.9,4.26,1.85a14.93,14.93,0,0,1,4.07,4.67,18.21,18.21,0,0,1,2.09,6.31c.22,2.34-2.16,3.3-3.85,2.86-3-.78-5.89-3.47-7.84-5.88a8.07,8.07,0,0,1-1.9-4.28c-.18-2,.63-4.57,2.61-5.36A3.31,3.31,0,0,1,1297.17,827.94Z"/>
          <path class="cls-3" d="M1306.62,849.85a12.47,12.47,0,0,1,4.4,2.47c.27.25,2.47,2.6,2,3a15.23,15.23,0,0,1-8.84,2.75c-2.52,0-6.93-1.28-5.08-5.11C1300.78,849.37,1303.85,849,1306.62,849.85Z"/>
          <path class="cls-3" d="M1319.81,885.57a16.24,16.24,0,0,1,11,2.55,2.71,2.71,0,0,1-.14,4.4,10.92,10.92,0,0,1-5,1.72c-3.24.52-7.61,1.28-10.35-1.75-1.14-1.25-2.07-3.39-.88-4.9S1318.06,885.81,1319.81,885.57Z"/>
          <path class="cls-3" d="M1312.31,868.79a13.92,13.92,0,0,1,10.23,1.22c1.56,1,1.09,3.11,0,4.12a10.19,10.19,0,0,1-4.22,2c-2.91.83-6.81,2-9.51-.53-1.15-1.08-2.1-3-1.08-4.47S1310.76,869.19,1312.31,868.79Z"/>
        </g>
        <g>
          <path class="cls-3" d="M1294.16,852.4h0C1294,852.75,1293.69,853.34,1294.16,852.4Z"/>
          <path class="cls-3" d="M1317.49,838.92a2.92,2.92,0,0,1,4.15,1.76c.73,1.7.09,3.87-.77,5.64a23.42,23.42,0,0,1-9,10,16.57,16.57,0,0,1,.25-8.76c.79-3,2.47-7.32,5.41-8.65Z"/>
          <path class="cls-3" d="M1294.16,852.4Z"/>
          <path class="cls-3" d="M1294.16,852.4Z"/>
          <path class="cls-3" d="M1331.65,870.33a2.84,2.84,0,0,1,.66-.07c3,0,3.35,4.73,3.56,7.31a17.92,17.92,0,0,1-1.36,8.16c-.55,1.46-1.17,3.83-2.84,3.68-3.26-.27-3.44-7-3.59-9.8C1327.9,876.36,1328.33,871,1331.65,870.33Z"/>
          <path class="cls-3" d="M1312.59,861.64Z"/>
          <path class="cls-3" d="M1312.59,861.64Z"/>
          <path class="cls-3" d="M1321.59,853.64h0c3.05-1.5,4,3.57,4.44,6.06a17,17,0,0,1-.34,7.11c-.37,1.46-.75,4.11-2.29,4.32-3.1.42-3.87-5.87-4.25-8.42C1318.65,859.38,1318.57,855.12,1321.59,853.64Z"/>
          <polygon class="cls-3" points="1312.59 861.64 1312.59 861.64 1312.59 861.64 1312.59 861.64"/>
          <path class="cls-3" d="M1337,896.48c1.15-1,3.17-1.62,4.44-.4s1,4,.75,5.71c-.65,4.08-2.55,8.46-5.53,10.78-1.23,1-2.71-.1-3.16-1.7a13.75,13.75,0,0,1,.11-6C1334.09,901.86,1334.72,898.32,1337,896.48Z"/>
        </g>
      </g>
    </g>
    <g>
      <g>
        <g>
          <path class="cls-3" d="M80.2,515.87c6.06-.19,9.54,2.08,9.48,5.9a5.51,5.51,0,0,1-1.3,3.52c-1.57,1.88-4.39,2.89-8.39,3a20,20,0,0,1-8.07-1.79,37.4,37.4,0,0,1-6.11-3.22l-1.06-.72,1.1-.79C66.17,521.56,73.79,516.08,80.2,515.87Z"/>
          <path class="cls-3" d="M65.26,505.92a5.19,5.19,0,0,1,1.72.66A4.81,4.81,0,0,1,69.34,510c.48,2.81-.94,5.17-2.52,7-2.16,2.49-8,10.07-11.39,6.79C51.07,519.53,60.15,505,65.26,505.92Z"/>
          <path class="cls-3" d="M49.83,511.89c2.09,2.85.31,7.19-1.13,10.16-1.14,2.35-7.39,10.65-9.91,9.88-.7-.21-1.11-1.12-1-3.06.17-4.68,3-14.92,6.45-18C46.16,509.1,48.3,509.83,49.83,511.89Z"/>
          <path class="cls-3" d="M30.63,532.51A49.62,49.62,0,0,1,29,538.58c-1.21,3.29-3,5.95-5.37,2.95-2.21-2.82-1.53-8.74-1.58-12.33-.05-3.14.62-8,3.58-9.36C31.45,517.12,31.53,528.48,30.63,532.51Z"/>
          <path class="cls-3" d="M14.36,540.87a24.71,24.71,0,0,1,2.56,12.66c0,.56-.1,1.26-.21,2-1,7-4.64,4.27-7.22.55S3.61,545.14,6.28,540C8.24,536.25,12.69,537.8,14.36,540.87Z"/>
          <path class="cls-3" d="M5.92,562.38l.15.24c2.07,3.44,5.77,12.6,2.59,16.2-5.22,5.9-14.21-14.19-12-19.24C-1,554,4.18,559.62,5.92,562.38Z"/>
          <path class="cls-3" d="M-7.23,580a2.7,2.7,0,0,1,2.44.38c2.39,1.43,4.7,5.41,5.4,7.42,1,2.94,5.53,18-1.41,14.2C-3,600.76-4.6,597.74-6,595.57-7.76,592.93-12.34,582-7.23,580Z"/>
        </g>
        <g>
          <path class="cls-3" d="M59.1,523.29c4.52-.58,13.53,2.53,15,8.11a4,4,0,0,1-.24,2.78c-2.22,4.8-6.27,3.77-10.18,1C61.14,533.31,50.62,524.38,59.1,523.29Z"/>
          <path class="cls-3" d="M50.3,530.72c2.6,1.13,4.23,2.65,4.87,4.51a5.47,5.47,0,0,1-.06,3.7c-3.63,10.06-19.58-4.63-14.9-8.29C42.66,528.72,47.83,529.7,50.3,530.72Z"/>
          <path class="cls-3" d="M28.22,541.43a12.67,12.67,0,0,1,9.87,1.83c.52.39,5.08,3.93,3.31,7.51-.89,1.8-3.15,3.45-8.87,1.15l-.13,0C29.17,550.53,20.79,543.3,28.22,541.43Z"/>
          <path class="cls-3" d="M17.56,557.23A17.16,17.16,0,0,1,28.62,556c.73.2,7.08,2.07,6.63,6.38-.64,5.95-8.31,5.25-11.6,4.46C20.54,566.06,10,560.92,17.56,557.23Z"/>
          <path class="cls-3" d="M25.93,574.06a5.48,5.48,0,0,1-.45,3.71c-1,2-3.13,3.59-6.36,4.71-2.75.95-9.54,1.88-11.64-.79a2.79,2.79,0,0,1-.64-1.55c-.16-2.26,2.72-4.41,4.31-5.65C14.75,571.69,24.23,566.51,25.93,574.06Z"/>
          <path class="cls-3" d="M8.54,695.73a6.7,6.7,0,0,1,2.39,1.7,4,4,0,0,1,1.13,3.31c-.69,5.66-5.64,8.42-9.79,9.81-2.67.89-16.95,5.53-14.67-2.22.88-3,3.54-6,6.77-8.44C-.91,696.4,5.05,694.28,8.54,695.73Z"/>
          <path class="cls-3" d="M9.83,593c3.51-3,10.65-7.77,12.52-.63S8.81,604.58,5.14,604c-6-1,.5-7.26,3.6-10C9.19,593.56,9.57,593.24,9.83,593Z"/>
          <path class="cls-3" d="M17.08,618.41c0,5.93-7.91,8.59-11.7,9.91-2.27.79-8.45,2.07-6.87-2.93.5-1.57,2.36-3.75,4.72-5.76C6.06,617.23,17,609.68,17.08,618.41Z"/>
          <path class="cls-3" d="M15.86,645.38c-.15,4.66-5.32,7.28-8.43,8.67-2.66,1.19-9.2,4.38-11.61,2.08s.47-6.54,4.78-9.86C6.87,641.42,16.08,638.37,15.86,645.38Z"/>
          <path class="cls-3" d="M.45,669.12c3.3-3,7.58-5.33,11.56-3.68a7.92,7.92,0,0,1,1.34.72,3.57,3.57,0,0,1,1.73,3c.13,7-9.26,11.74-13.81,13.1-2.21.66-6.78,2.52-8.57.32-2.93-3.62,2.78-9,5-11C-1.29,670.63-.31,669.81.45,669.12Z"/>
        </g>
      </g>
      <g>
        <g>
          <path class="cls-3" d="M127.32,616.31c6.45,3.63,5.67,7.69,5,9.27-.55,1.36-2.38,4.29-7.56,2.15a15.48,15.48,0,0,1-1.79-.88c-4.76-2.67-8.58-10.21-8.74-10.53l-.57-1.15,1.16-.2C115.15,614.92,122.56,613.62,127.32,616.31Z"/>
          <path class="cls-3" d="M112.88,602.44c3.13-2.79,6.94-4.48,9.05-1.25,1.62,2.48-1.3,6.67-2.49,8.8-3.22,5.77-15.35,7.84-11.18-1.63A19.75,19.75,0,0,1,112.88,602.44Z"/>
          <path class="cls-3" d="M104.27,595.7c6.52,0,.24,10.69-1.92,12.7-2.56,2.37-11,7.09-10.91.51,0-2.1,3-5.88,6.15-8.86C100.17,597.61,102.9,595.7,104.27,595.7Z"/>
          <path class="cls-3" d="M86.81,596c1.62.63,2.61,2.94,1.88,7s-3.44,9.76-6.66,11.75C75.84,618.6,79.47,593.13,86.81,596Z"/>
          <path class="cls-3" d="M67.75,601.9c3.82,2.12,2.8,10.68,2,14.79-.63,3.18-4.06,12.74-7.19,7.15-.84-1.5-1.16-4.15-1.33-6.84-.14-2.35-.18-4.72-.33-6.34C60.48,606.55,63.24,599.39,67.75,601.9Z"/>
          <path class="cls-3" d="M56.64,620.3c1.5,3.64,1.5,10.29.68,14.29-1.8,8.77-6.22,2.78-7-3.27-.58-4.71-.29-10.05.83-11.72C53.64,615.91,55.21,616.83,56.64,620.3Z"/>
          <path class="cls-3" d="M40.75,631c6.63-1,5.34,12.45,4.62,16.86-.85,5.29-3.06,9.56-6.08,3.29a20.33,20.33,0,0,1-1.17-3.43C36.59,641.86,35.47,631.81,40.75,631Z"/>
          <path class="cls-3" d="M33.21,658.94c.42,2.51.46,15.45-2.9,15.63-2.2.12-3.79-2.49-4.69-6-1.49-5.81-1.09-14.08,1.49-16.43C31.51,648.13,32.61,655.28,33.21,658.94Z"/>
          <path class="cls-3" d="M18.84,675c2.7,2.35,4.36,11.08,4.27,15-.15,6.09-3.61,6.48-6.62,2.64a16.15,16.15,0,0,1-1.84-3.06C12.79,685.73,11.49,668.58,18.84,675Z"/>
          <path class="cls-3" d="M7.67,697c2.7,4.46,4.4,11.65,2.73,17.3-2.46,8.29-7,.56-8.49-3.8,0,0-.16-.48-.17-.48C.41,706.06-1.62,699.66-.21,695.2,1.87,688.62,5.7,693.7,7.67,697Z"/>
        </g>
        <g>
          <path class="cls-3" d="M107.18,613.36c2.64-1.3,7.89,5.83,9.06,7.65,3.33,5.2.61,12.51-5,7.69-2-1.76-7.23-12.67-4.39-15.12A1.58,1.58,0,0,1,107.18,613.36Z"/>
          <path class="cls-3" d="M104.7,623.3c2.34,6.45-2.24,5.74-5.71,3.49-3.9-2.54-9.69-7.93-5.73-14C97,607.11,103.69,620.52,104.7,623.3Z"/>
          <path class="cls-3" d="M80.91,615.16c3.51-.6,12.38,10.29,8.09,13.37s-13.47-6.36-10.53-11.8A3.23,3.23,0,0,1,80.91,615.16Z"/>
          <path class="cls-3" d="M68.4,624c3.58.12,13.74,5.54,12,11.55-2.4,8.27-15.83-3.73-15.93-9C64.45,625,65.49,623.91,68.4,624Z"/>
          <path class="cls-3" d="M64.25,635.72c4.72.84,8.25,5.87,2.86,9.88-1.3,1-3.93,1-6.5.29-4.19-1.12-8.2-4.07-5.83-7.66C56.6,635.46,61.78,635.28,64.25,635.72Z"/>
          <path class="cls-3" d="M-3.85,736.69c3.32-3.85,16.39-5,18.54.28,3,7.23-9.6,9.09-13,8.21-3.07-.79-9.31-2.88-6.22-7.57A9.78,9.78,0,0,1-3.85,736.69Z"/>
          <path class="cls-3" d="M56.32,651c3.1,1,5.69,3.1,3.28,7.22-2,3.43-9.17,3.14-13.28.78C37.27,653.8,52.09,649.6,56.32,651Z"/>
          <path class="cls-3" d="M48,671.93c2.14,4.46-1.54,6.93-6,7.6-4.67.7-10.22-.55-11-3.55a3.3,3.3,0,0,1,.47-2.69C34.06,669.41,46,667.6,48,671.93Z"/>
          <path class="cls-3" d="M37.79,694.21c1.29,3.84-1.64,6.17-5.46,7.08-4.8,1.15-11,0-11.84-3.16C18.82,691.74,35.61,687.75,37.79,694.21Z"/>
          <path class="cls-3" d="M29.88,714.22a4,4,0,0,1,.29,3.34c-2.12,5.65-11.11,5.73-16.56,3.63-3-1.17-5-3-4-5C13.07,709.69,26.66,707.81,29.88,714.22Z"/>
        </g>
      </g>
      <g>
        <path class="cls-3" d="M55,706.87c1.6,2.78,2.19,7.61.46,10.69-.82,1.47-5.41,8.55-6.3,4.1-.77-3.89-2.13-9.1-.28-13l.17-.34C50.53,705.43,53.13,703.65,55,706.87Z"/>
        <path class="cls-3" d="M49,708.28a2.12,2.12,0,0,0-.11.21C49.71,706.89,49.42,707.5,49,708.28Z"/>
        <path class="cls-3" d="M48.92,708.49l-.06.13C48.45,709.44,48.1,710.14,48.92,708.49Z"/>
        <path class="cls-3" d="M49,708.28l-.17.34.06-.13A2.12,2.12,0,0,1,49,708.28Z"/>
        <path class="cls-3" d="M61,727.52a10.91,10.91,0,0,1,3.22,5c.55,2,0,4.55-1.91,4.48s-3.61-1.57-5-2.87a34.16,34.16,0,0,1-3.93-4.61c-1.35-1.85-2.61-3.83-3.83-5.88l1.41-.1A13.12,13.12,0,0,1,61,727.52Z"/>
        <path class="cls-3" d="M21.78,741.09a5.61,5.61,0,0,1,4.92.32c2.76,1.3,5.95,4.29,6.8,7.82.41,1.74-.13,3.92-1.89,4.23s-4-1-5.48-2.18A22.45,22.45,0,0,1,21.58,746c-1.12-1.67-2.09-2.81-1.47-3.79A3.5,3.5,0,0,1,21.78,741.09Z"/>
        <path class="cls-3" d="M24.37,719c4.11.07,2.22,10.72,1.71,13.13A29.3,29.3,0,0,1,23.6,739c-.32.68-.72,1.63-1.4,2-1,.48-1.86-.83-2.15-1.72-1.09-3.31-1.93-7.56-1.46-11S20.45,718.93,24.37,719Z"/>
        <path class="cls-3" d="M-10.68,768.39a8.67,8.67,0,0,1,6.76.85C-1.57,770.43.9,772.7,1.65,775c1.55,4.81-4.21,4.61-7.73,2.92a22.86,22.86,0,0,1-6.26-5c-1.09-1.12-1.38-2-1.1-2.69S-12.12,768.89-10.68,768.39Z"/>
        <path class="cls-3" d="M7.13,736.69l1-.12h0l-1,.12Z"/>
        <path class="cls-3" d="M8.17,736.57h0c4-.43,2.25,6.22,1.57,8.77a22.49,22.49,0,0,1-4,8.16c-.86,1.17-2.15,3.48-3.65,3.19-3.46-.67-1.13-8.32-.46-10.89C2.58,742,4.3,737,8.17,736.57Z"/>
        <path class="cls-3" d="M11.43,756.78c2.71,1.28,5.55,3.6,5.1,7.58-.55,4.92-6.3,2.39-8.48,1.07-1.71-1-9.09-7.85-4.58-10.16C5.94,754,9.18,755.72,11.43,756.78Z"/>
        <path class="cls-3" d="M3.47,755.27Z"/>
        <path class="cls-3" d="M40.22,711.43c4-.36,2.59,5.94,2,8.68a21.43,21.43,0,0,1-3.64,8c-1,1.34-2.44,4.06-4.12,3.71-3.62-.74-1.44-8.58-.77-11.37C34.6,716.57,36.32,711.78,40.22,711.43Z"/>
        <path class="cls-3" d="M36.47,730.15Z"/>
        <path class="cls-3" d="M44.79,732.23c2.73,1.32,6.14,4,5.24,8.2-.93,4.4-6.74,1.59-8.79.41-1.69-1-10-8.15-5.26-10.46C38.69,729.07,42.34,731.05,44.79,732.23Z"/>
        <path class="cls-3" d="M36.47,730.15l-.49.23C35.48,730.63,36.21,730.27,36.47,730.15Z"/>
        <path class="cls-3" d="M60.34,720.51h0C61.13,719.13,60.53,720.18,60.34,720.51Z"/>
        <path class="cls-3" d="M60.33,720.52Z"/>
        <path class="cls-3" d="M60.34,720.51c1.7-2.93,6.16-3.44,8.73-3.16a8.44,8.44,0,0,1,4.82,1.92c1.13,1,2.42,3.06,1.64,4.89-1.21,2.83-6,2.58-8.11,2.33-1.85-.22-9.32-2.09-7.09-6Z"/>
        <polygon class="cls-3" points="60.33 720.52 60.34 720.51 60.33 720.52 60.33 720.52"/>
      </g>
      <path class="cls-3" d="M-60.13,732.68c1.39,9.68,1.53,20.18,4.74,29.21.89,2.5,4.86,11.24,7.69,10.24,4.29-1.51,2-17.2,1.92-20.75-.15-5.38-.77-10.77-.77-16.16,0-32.35,2.86-64.79,2.94-97.13,0-19.18,1.5-53.72-15-64.15.72-.72.11.82.47-.22,17,6.94,17.07,40.83,17.67,58.32,1.11,32.12-1.31,64.52-1.82,96.73,0,2.4-.12,4.8-.13,7.2,0,6.84.1,13.63.69,20.39.29,3.3.42,13.22,4.92,9.75,3.82-2.94,7.14-9,9.12-13.71,7.91-18.81,12-38,14.82-58.17C-6.53,648-6.84,589.7,18.54,549.73c14.92-23.52,33.52-25.92,55.91-27.9-9,.8-19.06,3.87-27.68,7.54A53.64,53.64,0,0,0,26.63,544c-11,13-17,31.16-21,48.2-4.7,20.15-6.29,40.86-8.29,61.36-2.05,21.06-4.72,42.25-8.7,63.09-3.76,19.73-10.15,36.69-21.3,52.5-.65.94-3.83,4.29-3.85,5.38-.06,4,3.62-.62,4.44-1.43,2.11-2.08,4.15-4.28,6.09-6.58C22.71,708.66,55,573,121.18,619.43a35.51,35.51,0,0,0-5.35-1.63C102.93,614,89,611,76,618.45c-12.11,6.95-21.3,20.36-29.29,32.81-9.45,14.74-17.64,30.45-25.4,46.41A430.19,430.19,0,0,1-5.21,744.73c-6.36,9.81-12.69,20-20.52,27.92-5.08,5.17-6.35,8.62-3.19,6.33,2-1.43,3.87-3.11,5.63-4.34,4-2.78,7.72-6,11.47-9.19,14-12,28.18-25.06,43.39-34.86,10.78-6.94,25.29-15,36.49-6.89-.46.59.7-.2.43.55-14.14-7.21-30.81,5.21-42.76,14.67-16,12.64-30.5,28-47.21,39.26C-30,783.93-41.21,790.59-49.84,783c-4.22-3.71-5.06-8.16-7.33-13.64-3.94-9.56-6.09-20.07-7.61-30.66-3-20.84-3.79-43.17-12.47-61.77a65.18,65.18,0,0,0-23.93-27.46A61.74,61.74,0,0,1-76.8,672.2C-66.4,689.79-63.18,711.56-60.13,732.68Z"/>
    </g>
    <path class="cls-3" d="M1182.36,706.35a56.94,56.94,0,0,1,3.68,6c1.08,2.08,2.19,4.14,3.12,6.29l1.46,3.19c.47,1.07.88,2.17,1.32,3.25l1.3,3.26.65,1.63.58,1.66,2.3,6.62c.78,2.21,1.38,4.47,2.07,6.71s1.38,4.47,2,6.73l1.74,6.79c.56,2.27,1.19,4.53,1.68,6.81l1.46,6.86,1.46,6.86c.47,2.3.82,4.61,1.24,6.91l1.21,6.9c.38,2.31.85,4.61,1.14,6.92l1.94,13.89c.72,4.63,1.13,9.28,1.66,13.93l1.54,13.94c.36,4.66.71,9.32,1,14s.63,9.33.68,14c.11,9.35.34,18.69.13,28s-.66,18.67-1.31,28h-.5c-.78-9.32-1.29-18.63-1.7-27.93-.2-4.65-.58-9.29-.85-13.94l-.76-13.92-.17-3.49-.26-3.47-.46-7q-.42-6.94-.75-13.92l-1-13.9c-.39-4.63-.65-9.27-1.23-13.88l-1.55-13.85c-.23-2.32-.63-4.6-1-6.9l-1-6.9c-.35-2.29-.64-4.6-1-6.89l-1.27-6.85-1.26-6.85c-.44-2.28-1-4.53-1.49-6.8l-1.5-6.81c-.53-2.26-1.17-4.49-1.74-6.74s-1.14-4.51-1.83-6.73l-2.06-6.65-.52-1.66-.59-1.64-1.17-3.28c-.41-1.09-.77-2.19-1.2-3.27l-1.34-3.21c-.84-2.17-1.85-4.26-2.84-6.36a55.8,55.8,0,0,0-3.39-6.05Z"/>
    <path class="cls-3" d="M1329.37,661.37a147.17,147.17,0,0,1,7.48,14.84c1.09,2.54,2.26,5.06,3.29,7.63l3.07,7.72c1,2.58,1.9,5.2,2.86,7.8s1.92,5.2,2.75,7.84l2.59,7.9c.42,1.31.88,2.62,1.28,3.95l1.18,4,2.32,8,1.16,4,1,4c1.37,5.37,2.83,10.72,4.14,16.1l3.72,16.2c.65,2.69,1.19,5.41,1.72,8.12l1.64,8.15c2.32,10.84,4.07,21.78,6.06,32.68,1.81,10.93,3.22,21.92,4.58,32.92,1,11,2.07,22.06,2.85,33.1q.92,16.59,1.31,33.19l-.5,0q-2.42-16.44-4.31-32.89l-2.22-16.42-2.1-16.41c-.79-5.46-1.58-10.92-2.31-16.39l-1-8.2-.52-4.11-.63-4.08c-1.61-10.91-3-21.85-5.09-32.69l-1.45-8.15c-.47-2.72-1-5.43-1.53-8.13l-3.34-16.2c-1.18-5.39-2.51-10.74-3.75-16.11l-.95-4-1.06-4-2.14-8-1-4c-.36-1.33-.77-2.65-1.15-4l-2.34-7.94c-.75-2.65-1.65-5.26-2.5-7.88s-1.7-5.25-2.62-7.85L1339,684.3c-1-2.59-2-5.13-3-7.69s-2.18-5.06-3.28-7.6l-1.79-3.73c-.62-1.22-1.24-2.46-1.91-3.65Z"/>
    <path class="cls-3" d="M1433.31,748.25a137.55,137.55,0,0,0-5.19,14.78c-.71,2.52-1.48,5-2.13,7.55l-1.91,7.61c-.63,2.53-1.13,5.1-1.7,7.65s-1.15,5.1-1.59,7.69l-1.41,7.71-.7,3.86-.59,3.88-1.2,7.75-.6,3.87-.49,3.89c-.63,5.19-1.32,10.38-1.89,15.57l-1.47,15.62c-.11,1.3-.25,2.6-.35,3.9l-.25,3.92-.51,7.82c-.79,10.43-1,20.9-1.33,31.34l-.16,3.92,0,3.92-.11,7.84c-.1,5.23-.26,10.45-.43,15.68l-.21,15.69-.33,15.7q0,15.71-.52,31.46l-.5,0q-1.51-15.67-2.49-31.41c-.49-10.49-.71-21-1-31.5.1-10.51.24-21,.8-31.51.72-10.49,1.22-21,2.29-31.45l.7-7.85.35-3.92c.13-1.31.3-2.61.44-3.92l1.85-15.65c.7-5.21,1.52-10.4,2.28-15.6l.58-3.9.7-3.88,1.39-7.76.71-3.87.83-3.85,1.67-7.71c.51-2.57,1.21-5.11,1.83-7.66s1.24-5.11,1.95-7.63l2.17-7.58c.73-2.52,1.59-5,2.38-7.51a136.47,136.47,0,0,1,5.69-14.7Z"/>
    <path class="cls-3" d="M1301.35,764.33A133.79,133.79,0,0,1,1315,784c2.1,3.4,3.89,7,5.81,10.47s3.53,7.16,5.3,10.74a347.55,347.55,0,0,1,16.67,44.9l3.36,11.51,2.92,11.63,1.42,5.83c.42,1.95.78,3.92,1.15,5.88.74,3.93,1.42,7.87,2.09,11.81,1.18,7.9,2,15.86,2.76,23.8.51,8,.85,16,1,23.92l-.5,0c-1.53-7.85-2.75-15.69-3.94-23.53-.76-3.9-1.42-7.81-2.12-11.7l-1-5.86-.49-2.93c-.18-1-.4-1.94-.6-2.9-.78-3.88-1.55-7.76-2.26-11.65-.38-1.94-.68-3.9-1.07-5.84l-1.23-5.8-2.39-11.62-2.91-11.5a342.88,342.88,0,0,0-15.11-45c-1.61-3.61-3.13-7.28-4.82-10.86s-3.4-7.16-5.35-10.61A139.78,139.78,0,0,0,1301,764.67Z"/>
    <path class="cls-3" d="M1301.35,837.33A133.79,133.79,0,0,1,1315,857c2.1,3.4,3.89,7,5.81,10.47s3.53,7.16,5.3,10.74a347.55,347.55,0,0,1,16.67,44.9l3.36,11.51,2.92,11.63,1.42,5.83c.42,1.95.78,3.92,1.15,5.88.74,3.93,1.42,7.87,2.09,11.81,1.18,7.9,2,15.86,2.76,23.8.51,8,.85,16,1,23.92l-.5,0c-1.53-7.85-2.75-15.69-3.94-23.53-.76-3.9-1.42-7.81-2.12-11.7l-1-5.86-.49-2.93c-.18-1-.4-1.94-.6-2.9-.78-3.88-1.55-7.76-2.26-11.65-.38-1.94-.68-3.9-1.07-5.84l-1.23-5.8-2.39-11.62-2.91-11.5a342.88,342.88,0,0,0-15.11-45c-1.61-3.61-3.13-7.28-4.82-10.86s-3.4-7.16-5.35-10.61A139.78,139.78,0,0,0,1301,837.67Z"/>
    <path class="cls-3" d="M1125.41,802.5a98,98,0,0,0,1.47,12.3l1.18,6.09,1.42,6c.45,2,1,4,1.6,6s1.11,4,1.7,6l1.94,5.89,1,3c.31,1,.65,2,1,2.92,1.46,3.87,2.84,7.76,4.36,11.61l4.8,11.43c1.68,3.77,3.48,7.49,5.22,11.24s3.64,7.42,5.54,11.08l2.87,5.5c1,1.83,1.89,3.67,3,5.45l6.2,10.73c2,3.61,4.2,7.11,6.34,10.64s4.22,7.1,6.3,10.68,4.35,7,6.5,10.56l6.43,10.62c4.5,7,8.92,14,13.13,21.17l-.4.3c-5.38-6.36-10.54-12.89-15.64-19.49Q1184,952,1177.06,941.64c-2.2-3.54-4.39-7.08-6.54-10.66l-3.19-5.38c-.54-.89-1-1.8-1.52-2.73l-1.47-2.76-5.8-11.09c-1-1.82-1.89-3.71-2.78-5.6l-2.7-5.64c-1.81-3.76-3.66-7.49-5.25-11.35s-3.35-7.63-4.93-11.49l-4.49-11.67c-1.41-3.92-2.69-7.89-4-11.83-.34-1-.65-2-.92-3l-.87-3-1.72-6c-.52-2-1-4.05-1.48-6.07s-1-4-1.38-6.1l-1.2-6.13-1-6.18a97.86,97.86,0,0,1-.92-12.46Z"/>
    <path class="cls-3" d="M1347.4,781.57a118.15,118.15,0,0,1-4.6,12.4c-.9,2-1.78,4-2.7,6l-2.89,5.94c-.94,2-2,3.91-3,5.87s-2,3.92-3.14,5.82l-3.28,5.73c-1.09,1.92-2.18,3.84-3.36,5.7l-3.5,5.61c-1.17,1.87-2.3,3.76-3.55,5.57l-7.35,11c-5.14,7.16-10.17,14.41-15.61,21.34-5.25,7.09-10.85,13.9-16.35,20.79-2.73,3.47-5.68,6.75-8.58,10.06s-5.88,6.57-8.85,9.83c-6.13,6.33-12.31,12.61-18.61,18.76-6.45,6-13,11.94-19.66,17.67l-.35-.36c5.69-6.75,11.55-13.29,17.48-19.75l8.68-9.89,8.77-9.8c11.39-13.3,23.42-26,34.32-39.77,5.6-6.75,10.8-13.79,16.11-20.76l7.61-10.71c1.3-1.77,2.48-3.62,3.69-5.44l3.63-5.47c1.24-1.81,2.39-3.67,3.54-5.53l3.47-5.58c1.18-1.86,2.21-3.79,3.33-5.67s2.23-3.77,3.23-5.72l3.09-5.8c1-2,1.93-3.93,2.9-5.9a116.41,116.41,0,0,0,5.09-12.1Z"/>
  </g>
</svg>
