<svg id="Layer_1" data-name="Layer 1" xmlns="http://www.w3.org/2000/svg" xmlns:xlink="http://www.w3.org/1999/xlink" width="1600" height="900" viewBox="0 0 1600 900">
  <defs>
    <style>
      .cls-1 {
        fill: none;
      }

      .cls-2 {
        clip-path: url(#clip-path);
      }

      .cls-3 {
        fill: #193f64;
      }
    </style>
    <clipPath id="clip-path">
      <rect class="cls-1" width="1600" height="900"/>
    </clipPath>
  </defs>
  <g class="cls-2">
    <g>
      <g>
        <g>
          <g>
            <path class="cls-3" d="M84.61,518.06c6.06-.08,9.5,2.24,9.38,6.06a5.56,5.56,0,0,1-1.35,3.5c-1.61,1.85-4.45,2.81-8.44,2.87a20,20,0,0,1-8-1.91,37.5,37.5,0,0,1-6.06-3.33l-1-.74,1.11-.77C70.49,523.52,78.2,518.16,84.61,518.06Z"/>
            <path class="cls-3" d="M69.84,507.87a5.08,5.08,0,0,1,1.7.69A4.79,4.79,0,0,1,73.85,512c.43,2.81-1,5.15-2.64,7-2.2,2.45-8.21,9.94-11.49,6.61C55.42,521.24,64.74,506.86,69.84,507.87Z"/>
            <path class="cls-3" d="M54.31,513.58c2,2.88.19,7.19-1.3,10.14-1.18,2.33-7.57,10.52-10.07,9.72-.7-.23-1.09-1.15-1-3.08.24-4.67,3.29-14.88,6.75-17.89C50.69,510.73,52.82,511.49,54.31,513.58Z"/>
            <path class="cls-3" d="M34.77,533.88a51.49,51.49,0,0,1-1.77,6c-1.26,3.27-3.1,5.9-5.42,2.86-2.16-2.85-1.38-8.77-1.38-12.35,0-3.14.76-8,3.75-9.31C35.84,518.5,35.74,529.86,34.77,533.88Z"/>
            <path class="cls-3" d="M18.37,542a24.72,24.72,0,0,1,2.35,12.7c0,.56-.12,1.25-.24,2-1.16,7-4.72,4.19-7.23.42s-5.7-11-2.95-16.11C12.32,537.25,16.74,538.87,18.37,542Z"/>
            <path class="cls-3" d="M9.57,563.33l.15.25c2,3.47,5.56,12.7,2.32,16.23-5.32,5.82-14-14.41-11.73-19.43C2.76,554.88,7.88,560.55,9.57,563.33Z"/>
            <path class="cls-3" d="M-3.87,580.68a2.78,2.78,0,0,1,2.44.42c2.36,1.48,4.61,5.49,5.27,7.51,1,3,5.23,18.09-1.64,14.18-2.16-1.23-3.73-4.28-5.12-6.47C-4.62,593.65-9,582.6-3.87,580.68Z"/>
            <path class="cls-3" d="M-8.4,608.53a14.1,14.1,0,0,1,4.86,4.14c2.12,3.06,7.79,11.64,3.43,15.77-2.52,2.38-7.24-2.75-8.36-4.89-1.76-3.34-4.1-5.83-4.79-10C-14.27,607.48-11.4,607-8.4,608.53Z"/>
          </g>
          <g>
            <path class="cls-3" d="M63.39,525.13c4.53-.5,13.48,2.75,14.87,8.36a4.1,4.1,0,0,1-.28,2.78c-2.3,4.76-6.34,3.67-10.19.8C65.27,535.19,54.89,526.08,63.39,525.13Z"/>
            <path class="cls-3" d="M54.47,532.42c2.57,1.17,4.19,2.72,4.8,4.59a5.55,5.55,0,0,1-.13,3.7c-3.79,10-19.5-5-14.76-8.55C46.86,530.29,52,531.35,54.47,532.42Z"/>
            <path class="cls-3" d="M32.21,542.76a12.67,12.67,0,0,1,9.84,2c.52.4,5,4,3.19,7.56-.92,1.79-3.21,3.4-8.89,1l-.13-.06C33,551.87,24.75,544.51,32.21,542.76Z"/>
            <path class="cls-3" d="M21.29,558.37a17.24,17.24,0,0,1,11.09-1.07c.72.21,7,2.19,6.51,6.49-.73,5.94-8.39,5.11-11.66,4.27C24.12,567.26,13.65,562,21.29,558.37Z"/>
            <path class="cls-3" d="M29.39,575.34a5.56,5.56,0,0,1-.52,3.71c-1,2-3.19,3.54-6.44,4.6-2.76.9-9.57,1.72-11.62-1a2.72,2.72,0,0,1-.61-1.56c-.13-2.26,2.78-4.37,4.4-5.58C18.25,572.79,27.81,567.77,29.39,575.34Z"/>
            <path class="cls-3" d="M10,696.71a6.67,6.67,0,0,1,2.37,1.74,4,4,0,0,1,1.07,3.33c-.78,5.64-5.77,8.33-9.94,9.64-2.69.85-17,5.25-14.64-2.46.93-3,3.64-6,6.91-8.32C.52,697.22,6.51,695.21,10,696.71Z"/>
            <path class="cls-3" d="M13,594c3.56-3,10.78-7.58,12.53-.41s-13.74,12-17.4,11.28c-6-1.11.62-7.26,3.76-9.94Z"/>
            <path class="cls-3" d="M19.8,619.54c-.07,5.93-8.06,8.46-11.86,9.72-2.29.75-8.49,1.93-6.83-3,.53-1.57,2.43-3.71,4.82-5.69C8.8,618.18,19.91,610.81,19.8,619.54Z"/>
            <path class="cls-3" d="M18.13,646.48c-.23,4.67-5.43,7.2-8.57,8.54-2.68,1.14-9.28,4.22-11.64,1.88s.57-6.52,4.94-9.78C9.21,642.38,18.47,639.48,18.13,646.48Z"/>
            <path class="cls-3" d="M2.33,670C5.68,667,10,664.77,14,666.48a8,8,0,0,1,1.33.74,3.53,3.53,0,0,1,1.67,3c0,7-9.45,11.59-14,12.87-2.23.62-6.82,2.41-8.58.18-2.88-3.67,2.92-8.94,5.17-10.9C.57,671.45,1.56,670.65,2.33,670Z"/>
          </g>
        </g>
        <g>
          <g>
            <path class="cls-3" d="M130.06,619.27c6.39,3.74,5.54,7.79,4.88,9.35-.57,1.35-2.45,4.26-7.59,2a15.74,15.74,0,0,1-1.77-.91c-4.72-2.75-8.41-10.35-8.57-10.68l-.55-1.15,1.16-.19C117.91,617.67,125.35,616.5,130.06,619.27Z"/>
            <path class="cls-3" d="M115.85,605.16c3.17-2.73,7-4.36,9.07-1.1,1.58,2.51-1.41,6.65-2.64,8.76-3.31,5.71-15.47,7.59-11.15-1.82A19.83,19.83,0,0,1,115.85,605.16Z"/>
            <path class="cls-3" d="M107.36,598.28c6.51.12.06,10.69-2.14,12.67-2.59,2.32-11.16,6.9-10.91.33.08-2.1,3.09-5.83,6.29-8.76C103.22,600.12,106,598.26,107.36,598.28Z"/>
            <path class="cls-3" d="M89.89,598.33c1.61.66,2.56,3,1.76,7S88.05,615,84.8,617C78.54,620.71,82.6,595.3,89.89,598.33Z"/>
            <path class="cls-3" d="M70.73,603.87c3.79,2.19,2.63,10.73,1.75,14.82-.69,3.17-4.27,12.68-7.31,7-.81-1.52-1.08-4.18-1.21-6.86-.11-2.36-.1-4.73-.23-6.35C63.39,608.4,66.27,601.29,70.73,603.87Z"/>
            <path class="cls-3" d="M59.32,622.09c1.44,3.67,1.33,10.31.44,14.3-1.94,8.73-6.26,2.67-6.9-3.39-.5-4.72-.12-10,1-11.71C56.39,617.65,58,618.59,59.32,622.09Z"/>
            <path class="cls-3" d="M-5.16,713.63c.81-.18,1.77.29,2.91,1.7C1,719.4.82,736.4-3.39,740.08-12.24,747.78-11.27,715.06-5.16,713.63Z"/>
            <path class="cls-3" d="M43.26,632.52c6.64-.89,5.13,12.54,4.34,16.94-.94,5.27-3.22,9.5-6.14,3.19a20.67,20.67,0,0,1-1.11-3.45C38.92,643.32,38,633.24,43.26,632.52Z"/>
            <path class="cls-3" d="M35.26,660.33c.38,2.52.2,15.46-3.16,15.59-2.21.08-3.75-2.56-4.59-6.07-1.4-5.83-.86-14.1,1.76-16.41C33.74,649.5,34.71,656.66,35.26,660.33Z"/>
            <path class="cls-3" d="M20.62,676.16c2.66,2.4,4.18,11.15,4,15.1-.25,6.09-3.71,6.42-6.66,2.53a16,16,0,0,1-1.79-3.09C14.4,686.78,13.37,669.61,20.62,676.16Z"/>
            <path class="cls-3" d="M9.09,697.92c2.62,4.51,4.2,11.73,2.44,17.34-2.6,8.26-7,.45-8.43-3.93L3,710.84C1.68,706.9-.24,700.47,1.23,696,3.43,689.49,7.17,694.63,9.09,697.92Z"/>
          </g>
          <g>
            <path class="cls-3" d="M110,616c2.66-1.25,7.79,6,8.93,7.81,3.25,5.25.41,12.51-5.12,7.6-2-1.79-7-12.79-4.14-15.19A2.1,2.1,0,0,1,110,616Z"/>
            <path class="cls-3" d="M107.32,625.88c2.24,6.5-2.33,5.71-5.76,3.4-3.85-2.6-9.56-8.09-5.5-14.08C99.87,609.57,106.36,623.09,107.32,625.88Z"/>
            <path class="cls-3" d="M83.67,617.35c3.52-.54,12.21,10.49,7.88,13.51-4.48,3.09-13.37-6.59-10.34-12A3.2,3.2,0,0,1,83.67,617.35Z"/>
            <path class="cls-3" d="M71,626c3.58.18,13.65,5.76,11.82,11.74-2.54,8.24-15.77-4-15.78-9.27C67.05,626.9,68.11,625.84,71,626Z"/>
            <path class="cls-3" d="M66.68,637.63c4.7.92,8.15,6,2.69,9.93-1.31.94-4,.9-6.5.18-4.18-1.19-8.13-4.21-5.71-7.76C59,637.24,64.21,637.15,66.68,637.63Z"/>
            <path class="cls-3" d="M-3.09,737.46c3.38-3.8,16.47-4.73,18.54.59,2.82,7.28-9.75,8.92-13.16,8-3.06-.84-9.26-3-6.09-7.67A10.35,10.35,0,0,1-3.09,737.46Z"/>
            <path class="cls-3" d="M58.49,652.77c3.08,1.06,5.64,3.19,3.17,7.28-2.06,3.39-9.23,3-13.3.55C39.4,655.26,54.29,651.31,58.49,652.77Z"/>
            <path class="cls-3" d="M49.87,673.57c2.06,4.49-1.66,6.9-6.16,7.5-4.68.62-10.21-.72-10.92-3.73a3.32,3.32,0,0,1,.52-2.69C35.93,670.82,47.86,669.21,49.87,673.57Z"/>
            <path class="cls-3" d="M39.25,695.67c1.23,3.86-1.75,6.14-5.57,7-4.83,1.07-11-.15-11.79-3.36C20.32,692.89,37.18,689.18,39.25,695.67Z"/>
            <path class="cls-3" d="M31,715.56a4,4,0,0,1,.23,3.33c-2.21,5.62-11.2,5.55-16.61,3.37-3-1.23-5-3.13-3.89-5.07C14.27,710.74,27.89,709.08,31,715.56Z"/>
          </g>
        </g>
        <g>
          <path class="cls-3" d="M56.23,708.62c1.55,2.8,2.07,7.64.28,10.69-.84,1.46-5.55,8.47-6.37,4-.71-3.89-2-9.12-.06-13l.17-.34C51.8,707.1,54.43,705.37,56.23,708.62Z"/>
          <path class="cls-3" d="M50.25,709.93a2.12,2.12,0,0,0-.11.21C51,708.55,50.65,709.15,50.25,709.93Z"/>
          <path class="cls-3" d="M50.14,710.14l-.06.13C49.66,711.08,49.3,711.78,50.14,710.14Z"/>
          <path class="cls-3" d="M50.25,709.93l-.17.34.06-.13A2.12,2.12,0,0,1,50.25,709.93Z"/>
          <path class="cls-3" d="M61.87,729.37a11,11,0,0,1,3.14,5c.5,2-.08,4.56-2,4.46s-3.58-1.63-4.94-3a33.46,33.46,0,0,1-3.85-4.67c-1.33-1.88-2.56-3.88-3.74-5.94l1.41-.08A13.1,13.1,0,0,1,61.87,729.37Z"/>
          <path class="cls-3" d="M22.47,742.29a5.54,5.54,0,0,1,4.9.4c2.75,1.34,5.89,4.38,6.67,7.93.39,1.75-.19,3.92-2,4.2s-4-1.12-5.43-2.27a22.3,22.3,0,0,1-4.47-5.33c-1.09-1.69-2-2.85-1.41-3.81A3.41,3.41,0,0,1,22.47,742.29Z"/>
          <path class="cls-3" d="M25.42,720.26c4.11.14,2,10.75,1.49,13.16a29.9,29.9,0,0,1-2.59,6.77c-.33.66-.74,1.61-1.43,1.93-1,.46-1.85-.86-2.13-1.76-1-3.32-1.8-7.58-1.27-11S21.5,720.11,25.42,720.26Z"/>
          <path class="cls-3" d="M-10.44,769a8.7,8.7,0,0,1,6.74,1c2.33,1.23,4.76,3.54,5.47,5.87,1.47,4.83-4.28,4.54-7.77,2.79a23.11,23.11,0,0,1-6.18-5.1c-1.07-1.13-1.35-2-1.06-2.71S-11.89,769.52-10.44,769Z"/>
          <path class="cls-3" d="M7.88,737.64l1.06-.1h0l-1,.1Z"/>
          <path class="cls-3" d="M8.93,737.54h0c4-.37,2.15,6.26,1.42,8.79a22.28,22.28,0,0,1-4.18,8.09c-.88,1.17-2.2,3.45-3.7,3.13-3.45-.73-1-8.34-.28-10.89C3.25,742.91,5.06,737.92,8.93,737.54Z"/>
          <path class="cls-3" d="M11.86,757.8c2.69,1.32,5.49,3.69,5,7.66-.63,4.91-6.34,2.29-8.5.93-1.69-1.06-8.95-8-4.41-10.24C6.41,754.93,9.63,756.7,11.86,757.8Z"/>
          <path class="cls-3" d="M3.92,756.15Z"/>
          <path class="cls-3" d="M41.39,712.94c4-.3,2.49,6,1.83,8.7a21.69,21.69,0,0,1-3.77,7.91c-1,1.32-2.51,4-4.18,3.63-3.61-.8-1.3-8.6-.58-11.37C35.68,718,37.48,713.22,41.39,712.94Z"/>
          <path class="cls-3" d="M37.33,731.59Z"/>
          <path class="cls-3" d="M45.62,733.81c2.71,1.36,6.07,4.12,5.1,8.28-1,4.38-6.77,1.48-8.8.26-1.67-1-9.88-8.31-5.08-10.54C39.57,730.55,43.19,732.58,45.62,733.81Z"/>
          <path class="cls-3" d="M37.33,731.59l-.49.22C36.34,732.05,37.07,731.71,37.33,731.59Z"/>
          <path class="cls-3" d="M61.36,722.35h0C62.18,721,61.56,722,61.36,722.35Z"/>
          <path class="cls-3" d="M61.35,722.35h0C61.3,722.45,61.28,722.48,61.35,722.35Z"/>
          <path class="cls-3" d="M61.36,722.35c1.75-2.91,6.21-3.34,8.78-3a8.46,8.46,0,0,1,4.79,2c1.12,1,2.37,3.1,1.56,4.92-1.26,2.8-6,2.47-8.15,2.19-1.84-.25-9.28-2.25-7-6.08Z"/>
          <polygon class="cls-3" points="61.35 722.35 61.36 722.35 61.35 722.36 61.35 722.35"/>
        </g>
        <path class="cls-3" d="M-59.3,732.52c1.24,9.7,1.2,20.2,4.26,29.28.85,2.52,4.68,11.32,7.52,10.37,4.31-1.45,2.3-17.17,2.26-20.72-.06-5.38-.59-10.78-.49-16.17.55-32.34,3.92-64.73,4.54-97.07.37-19.17,2.39-53.68-14-64.39.74-.7.1.83.48-.21,16.9,7.22,16.39,41.11,16.7,58.61.57,32.13-2.38,64.48-3.42,96.68-.08,2.4-.2,4.8-.25,7.2-.15,6.83-.13,13.63.35,20.39.23,3.31.2,13.24,4.76,9.84,3.86-2.88,7.28-8.87,9.35-13.56C-19,734.09-14.57,715-11.45,694.86c7.15-46.09,7.81-104.42,33.85-144,15.31-23.26,33.94-25.35,56.36-27-9,.65-19.12,3.55-27.79,7.08a53.57,53.57,0,0,0-20.39,14.32C19.41,558.09,13,576.2,8.77,593.18c-5,20.06-7,40.74-9.31,61.21-2.4,21-5.42,42.17-9.75,62.93C-14.38,737-21,753.85-32.45,769.47c-.67.93-3.9,4.22-3.94,5.31-.13,4,3.63-.56,4.46-1.36q3.22-3.06,6.19-6.47C23.93,709.87,58.48,574.8,123.87,622.29a35.24,35.24,0,0,0-5.33-1.72c-12.83-4-26.7-7.26-39.82,0-12.23,6.75-21.64,20-29.83,32.32-9.69,14.58-18.15,30.15-26.16,46A432.51,432.51,0,0,1-4.58,745.48c-6.52,9.7-13,19.74-21,27.57-5.16,5.08-6.5,8.51-3.3,6.28,2-1.4,3.92-3.05,5.7-4.25,4-2.71,7.83-5.85,11.62-9,14.24-11.81,28.59-24.59,44-34.13,10.9-6.77,25.54-14.59,36.6-6.28-.47.58.71-.2.43.55-14-7.44-30.9,4.7-43,14-16.18,12.37-31,27.47-47.85,38.47-8.61,5.6-19.93,12.08-28.44,4.31-4.16-3.78-4.93-8.24-7.1-13.76-3.78-9.62-5.76-20.17-7.1-30.78-2.66-20.88-3.08-43.23-11.45-62A65.18,65.18,0,0,0-99,648.6a61.76,61.76,0,0,1,24,23.17C-64.85,689.53-62,711.35-59.3,732.52Z"/>
      </g>
      <g>
        <g>
          <path class="cls-3" d="M1591.25,769.14c7.74,4.43,16.1,26.6,15.51,32.43-1.11,11-11.93.27-14.71-2.91-5-5.74-13.54-17.79-7.66-27.28C1586.41,768.12,1588.8,767.74,1591.25,769.14Z"/>
          <path class="cls-3" d="M1600.78,701.54a6.56,6.56,0,0,1,2.27.84c3.89,2.3,5.71,7.22,8.42,11,1.87,2.58,10.54,15.53,3.24,17.61-3.47,1-9.28-5.89-11.46-8.44-2.9-3.42-8.23-8.11-8.75-13.39S1597.24,701,1600.78,701.54Z"/>
          <path class="cls-3" d="M1589,735.63a7.27,7.27,0,0,1,3.62.09c7.28,2,13.81,14.21,17.16,20,1.53,2.66,4.5,7.07,2.21,10.49-4.37,6.53-11.62-1-14.94-4.41C1594,758.66,1575.77,738.77,1589,735.63Z"/>
        </g>
        <g>
          <g>
            <path class="cls-3" d="M1582,632.68c1.63,3.18-1,6.64-3.73,8.75-2.88,2.25-18,10.55-18.73,4.19-.57-4.7,14.06-15.55,20-14.6A3.09,3.09,0,0,1,1582,632.68Z"/>
            <path class="cls-3" d="M1566.33,713.59c4.1-5.17,9.08-10.88,14.43-14.29,5.6-3.57,10.39-1.75,7.92,5.77-3.35,10.18-11.63,18-20.31,21.83-6.78,3-11.78,2.58-6.57-6.57A59.1,59.1,0,0,1,1566.33,713.59Z"/>
            <path class="cls-3" d="M1572.65,802.14c2.52-4.59,6.35-8.9,10.91-10.18,4.15-1.16,8.26.39,7.68,6.07-1.13,10.92-16.22,20.93-24.41,22.6-7,1.42-4-4.57-.12-10.2C1569.18,806.83,1572,803.39,1572.65,802.14Z"/>
            <path class="cls-3" d="M1582.84,742.27c4.14,1.8,2.12,7.5.57,10.64a45.51,45.51,0,0,1-9.37,12.81c-1.64,1.49-7.42,6.86-9.6,6-5.5-2.06,1.74-18,9.49-25.67C1577.09,743,1580.33,741.18,1582.84,742.27Z"/>
            <path class="cls-3" d="M1579.94,662.64c6.47-2.87,8.06,1.69,6,8-2.67,8-10.09,13.45-16.56,17.53-5.2,3.28-14,8.51-9.75-2.1,2.36-5.91,8.15-14,14.11-19.19A25.53,25.53,0,0,1,1579.94,662.64Z"/>
          </g>
          <g>
            <path class="cls-3" d="M1563.14,584c2.46,3.42,3.29,8.32,2.78,12.71-.64,5.55-4.14,9.39-8.07,4.23-2.78-3.63-3-9.68-1.67-14.38.58-2,1.61-3.64,2.87-4.29S1561.7,582,1563.14,584Z"/>
            <path class="cls-3" d="M1557.24,634.3c4.19,4.44,6.76,10.31,3,13.52-5.59,4.73-13.45-6-15.74-9.05-1.9-2.55-4.36-6.85,0-9.54C1549.35,626.21,1554.66,631.56,1557.24,634.3Z"/>
            <path class="cls-3" d="M1559.71,729.65c-1.34,6.57-8.92.74-11.12-1.28-1-.91-2.38-2.22-3.77-3.79-3.17-3.6-6.17-8.56-3.21-13C1547.92,702.23,1561.09,722.89,1559.71,729.65Z"/>
            <path class="cls-3" d="M1549.43,796.48l.43.27c5.33,3.47,11.14,12.43,11.4,19.6.36,10.29-20.68-5.63-23-9.64C1531.43,794.67,1540.53,791.15,1549.43,796.48Z"/>
            <path class="cls-3" d="M1550.82,744.31a16.24,16.24,0,0,1,5.76,4.76c3.37,4.51,10.82,20.39,2.6,24.06-9,4-15.08-13.78-18-19.75-1.66-3.49-3.72-5.73.29-9C1544.23,742.13,1548.16,743,1550.82,744.31Z"/>
            <path class="cls-3" d="M1548.62,668.08c.74.28,1.89,1.61,3.17,3.53,4.27,6.4,9.87,19.4,5.49,22.38-5.9,4-14.65-8.08-16.36-12.13C1538.34,675.73,1539.8,664.67,1548.62,668.08Z"/>
          </g>
        </g>
        <g>
          <path class="cls-3" d="M1513.28,684.5c2.35.65,3.26,3.07,4.12,5a21,21,0,0,1,2.09,8.39,25.48,25.48,0,0,1-1.41,9.17c-1.21,3.05-4.77,2.72-6.6,1.11-3.27-2.89-5.12-8-6-12.29a11.2,11.2,0,0,1,.35-6.51c1.05-2.61,3.69-5.29,6.65-5A3.76,3.76,0,0,1,1513.28,684.5Z"/>
          <path class="cls-3" d="M1514.31,723.75a17.4,17.4,0,0,1,6.13,3.47c.39.34,3.45,3.64,2.72,4.14a21.12,21.12,0,0,1-12.34,3.81c-3.52,0-9.66-1.8-7.07-7.14C1506.17,723.07,1510.45,722.57,1514.31,723.75Z"/>
          <path class="cls-3" d="M1520.76,776.29a22.59,22.59,0,0,1,13.52,8c1.72,2.17.23,5-2,5.79a15.17,15.17,0,0,1-7.33.19c-4.54-.68-10.66-1.52-13-6.69-1-2.15-1.32-5.39.89-6.89S1518.33,775.87,1520.76,776.29Z"/>
          <path class="cls-3" d="M1520.64,825.06c6.36,2.63,11,7.25,15,13.52,1.41,2.24,3.18,5.87-.11,7.69-2.92,1.62-6.84-.34-9.42-1.61-4.26-2.11-9.11-4.52-11.91-9a10.83,10.83,0,0,1-1.36-8.76C1514.14,823,1518.22,824.06,1520.64,825.06Z"/>
          <path class="cls-3" d="M1513.81,741.4c4.76,1.24,10.29,4.57,13.16,9,1.52,2.31-.52,4.64-2.7,5.07a16.39,16.39,0,0,1-7.06-.59c-4.51-1.09-10.59-2.5-12.63-7.6-2.56-6.37,1.49-6.37,1.41-6.32C1508.39,739.81,1511.44,740.77,1513.81,741.4Z"/>
          <path class="cls-3" d="M1521.21,802a20.74,20.74,0,0,1,7.29,5.34c1.38,1.57,4.37,4.4,4.32,6.93-.13,6.34-9.84,2-12.22.95-3.68-1.62-8.78-4-9.54-9.18C1509.87,798,1517.72,800.38,1521.21,802Z"/>
        </g>
        <path class="cls-3" d="M1522.86,854.66a34.82,34.82,0,0,1,10,6.94c2.89,3,6.14,7.09,7.8,11.29,1.48,3.77-2,6-4.85,6-6-.16-12.68-4.23-17.65-7.77a18.84,18.84,0,0,1-6.34-6.92c-1.44-3-2.12-8.61,1-10.85S1520.12,853.31,1522.86,854.66Z"/>
        <path class="cls-3" d="M1512.84,853.31Z"/>
        <g>
          <path class="cls-3" d="M1503.74,717.24Z"/>
          <path class="cls-3" d="M1529.52,708.55c2.66-1.18,4.76,0,5.79,2.46s.11,5.4-1.1,7.87c-2.69,5.55-7.44,11.12-12.66,13.94a23.16,23.16,0,0,1,.38-12.22c1.1-4.11,3.46-10.2,7.58-12Z"/>
          <path class="cls-3" d="M1503.75,717.23h0C1504.07,716.9,1504,717,1503.75,717.23Z"/>
          <path class="cls-3" d="M1503.74,717.24h0Z"/>
          <path class="cls-3" d="M1542.94,761a4.16,4.16,0,0,1,.9.2c4,1.25,2.47,7.7,1.65,11.21a25,25,0,0,1-5.26,10.29c-1.34,1.69-3.16,4.59-5.33,3.69-4.22-1.74-1.6-10.79-.63-14.55C1535.4,767.46,1538.25,760.44,1542.94,761Z"/>
          <path class="cls-3" d="M1548.49,817.64c2.34-1,5.9-.78,7.1,2,1.3,3-.55,7-1.85,9.77-3,6.21-7.74,12-13.51,14.49-3,1.29-4.41-2.25-4.06-5.25a28.69,28.69,0,0,1,3.08-9C1541.44,825.14,1544.08,819.51,1548.49,817.64Z"/>
          <path class="cls-3" d="M1524.35,737.3h0Z"/>
          <path class="cls-3" d="M1524.34,737.3Z"/>
          <path class="cls-3" d="M1537.25,731.81h0c4.74.15,2.64,7,1.52,10.38a23.63,23.63,0,0,1-5.06,8.54c-1.41,1.55-3.6,4.58-5.64,3.83-4.09-1.5.22-10.57,1.41-14C1531.05,736.17,1532.57,731.67,1537.25,731.81Z"/>
          <path class="cls-3" d="M1524.34,737.3h0Z"/>
          <path class="cls-3" d="M1542,793.91c1.93-.77,4.91-.81,6.08,1.34,1.28,2.38-.3,5.71-1.41,7.92-2.59,5.14-7,10.17-11.9,12-2,.75-3.57-1.28-3.5-3.59.09-2.8,1.45-5.56,2.68-7.93C1536,799.86,1538.3,795.41,1542,793.91Z"/>
          <path class="cls-3" d="M1556.36,846.21c2.68-1,7-1,8.55,2,1.91,3.62-1,8.69-2.83,11.79a35.54,35.54,0,0,1-7.71,9.64c-2.89,2.44-7,5.6-10.46,6.35s-4.32-4-3.59-7.11a34.27,34.27,0,0,1,4.14-9.37C1547.48,854.32,1551,848.21,1556.36,846.21Z"/>
        </g>
        <path class="cls-3" d="M1539.12,838c.7,13.63,2.14,28.15,6.62,40.76,1.24,3.48,6.79,15.67,10.73,14.28,6-2.12,2.82-24,2.68-29-.21-7.51-1.16-15-1.07-22.55C1560.66,626,1564,584,1559,591c-6,106,5.65,196.55,5,241.5,0,3.34-.16,6.69-.18,10,0,9.54.13,19,1,28.44.4,4.61.58,18.45,6.86,13.61,5.33-4.1,10-12.54,12.73-19.13,11-26.24,16.79-53,20.67-81.15,8.92-64.45,8.49-145.84,43.89-201.6,20.82-32.8,46.76-36.16,78-38.91-12.58,1.11-26.59,5.39-38.61,10.51a74.84,74.84,0,0,0-28.1,20.44c-15.29,18.07-23.78,43.48-29.32,67.26-6.56,28.1-8.78,57-11.57,85.61-2.87,29.37-6.59,58.93-12.14,88-5.25,27.53-14.16,51.2-29.71,73.26-.92,1.3-5.35,6-5.38,7.5-.08,5.52,5-.87,6.2-2,2.94-2.91,5.78-6,8.49-9.18,68-80.76,113-270,205.34-205.24-2.29-1.12-5-1.56-7.47-2.28-18-5.34-37.41-9.51-55.55.9-16.9,9.7-29.72,28.41-40.86,45.78-13.19,20.57-24.62,42.48-35.44,64.75a602.34,602.34,0,0,1-37,65.65c-8.88,13.68-17.71,27.84-28.63,39-7.08,7.2-8.87,12-4.45,8.82,2.75-2,5.4-4.34,7.85-6,5.55-3.88,10.78-8.35,16-12.82,19.59-16.8,39.32-35,60.53-48.63,15-9.69,35.29-20.94,50.91-9.61-.64.81,1-.29.61.76-19.73-10.05-43,7.27-59.66,20.47-22.28,17.62-42.56,39-65.86,54.76-11.88,8-27.52,17.32-39.57,6.68-5.89-5.19-7.06-11.38-10.22-19-5.5-13.34-11.49-27.87-10.62-42.77,4-69.3-14-143.29-28-152.3C1518,701.07,1534.66,751,1539.12,838Z"/>
      </g>
      <g>
        <g>
          <g>
            <path class="cls-3" d="M1199.55,678.84c-2.14-7.15-.55-12,4-13.16a6.86,6.86,0,0,1,4.6.43c2.73,1.28,4.83,4.32,6.25,9a24.72,24.72,0,0,1,.44,10.18,46.46,46.46,0,0,1-1.91,8.3l-.52,1.48-1.29-1.05C1210.77,693.74,1201.83,686.4,1199.55,678.84Z"/>
            <path class="cls-3" d="M1192.45,699.78a6.5,6.5,0,0,1,.23-2.26,6,6,0,0,1,3.34-3.9c3.19-1.45,6.46-.51,9.13.79,3.64,1.78,14.54,6.38,11.7,11.4C1213.14,712.36,1193,706.15,1192.45,699.78Z"/>
            <path class="cls-3" d="M1194.19,719.41c4-1.65,8.69,1.78,11.81,4.39,2.46,2.07,10.5,12,8.84,14.8-.47.77-1.68,1-4,.34-5.54-1.6-16.93-8.11-19.58-13.1C1189.76,723,1191.27,720.62,1194.19,719.41Z"/>
            <path class="cls-3" d="M1206.44,746.19a59.67,59.67,0,0,1,5.88,5c3,3.08,5,6.49.45,7.53-4.3,1-10.54-2.9-14.56-4.73-3.52-1.6-8.57-4.91-8.54-8.93C1189.73,737.16,1202.42,743.06,1206.44,746.19Z"/>
            <path class="cls-3" d="M1199,765.15a30.47,30.47,0,0,1,12.87,9.36c.44.54,1,1.23,1.47,2,4.88,7.22-.66,7.75-6.1,6.51s-14.44-5-16.29-11.91C1189.61,766.06,1194.94,763.76,1199,765.15Z"/>
            <path class="cls-3" d="M1204.24,793.71l.3.2c4.09,2.77,13,11.11,11.26,16.77-2.79,9.3-23.22-8.53-23.41-15.29C1192.17,788,1200.88,791.53,1204.24,793.71Z"/>
            <path class="cls-3" d="M1189.15,828.44a3.38,3.38,0,0,1,2.77-1.25c3.43-.12,8.49,2.44,10.56,4,3,2.35,17.79,14.89,8.08,15.62-3,.23-6.76-1.81-9.69-3.09C1197.3,842.21,1185.2,833.94,1189.15,828.44Z"/>
            <path class="cls-3" d="M1199.88,860.29a17.2,17.2,0,0,1,7.06,3.47c3.46,3,12.84,11.52,8.9,17.77-2.29,3.62-9.48-1.08-11.47-3.28-3.12-3.45-6.67-5.72-8.75-10.44C1192.55,860.83,1195.84,859.42,1199.88,860.29Z"/>
            <path class="cls-3" d="M1193.77,896.93a5.78,5.78,0,0,1,2.14.09c3.89.9,6.73,4.55,10,7,2.26,1.67,13,10.26,7.43,14-2.66,1.76-9.38-2.48-11.89-4.05-3.36-2.1-9.1-4.62-11-8.93S1190.64,897.4,1193.77,896.93Z"/>
          </g>
          <g>
            <path class="cls-3" d="M1215.07,701.6c-2.12-5.19-1.28-16.9,4.9-20.43a5,5,0,0,1,3.38-.61c6.43,1.13,6.49,6.28,4.38,11.82C1226.36,696,1219.06,711.36,1215.07,701.6Z"/>
            <path class="cls-3" d="M1216.84,724.49c2.13-2.76,4.43-4.27,6.85-4.48a6.88,6.88,0,0,1,4.4,1.19c10.93,7.34-11.4,22-14.38,15.32C1212.15,733,1214.87,727.14,1216.84,724.49Z"/>
            <path class="cls-3" d="M1215.1,753.57a15.62,15.62,0,0,1,7.24-10c.71-.37,7.05-3.58,10.1.28,1.54,1.93,2.19,5.32-3.39,10.48l-.12.11C1225.74,757.3,1213.27,762.83,1215.1,753.57Z"/>
            <path class="cls-3" d="M1215.54,777.34a21.23,21.23,0,0,1,9-10.36c.82-.42,8.15-4,11.32.28,4.38,5.92-3.17,11.69-6.81,13.7C1225.6,782.88,1211.73,787,1215.54,777.34Z"/>
            <path class="cls-3" d="M1232.66,796.44a6.78,6.78,0,0,1,1.41,4.39c-.07,2.76-1.65,5.63-4.69,8.55-2.58,2.48-9.69,7-13.41,5.12a3.32,3.32,0,0,1-1.52-1.4c-1.35-2.44.75-6.34,1.9-8.55C1218.93,799.56,1226.86,788.87,1232.66,796.44Z"/>
            <path class="cls-3" d="M1218.51,830.83c1.6-5.48,5.8-15.17,12.52-9.05s-5.81,21.68-10,23.5c-6.86,3-4.36-7.84-3-12.74C1218.22,831.82,1218.4,831.24,1218.51,830.83Z"/>
            <path class="cls-3" d="M1236.9,864.85c1.71,7.11-7.05,12.55-11.2,15.21-2.5,1.6-9.55,4.89-9.08-1.55.15-2,1.77-5.17,4-8.25C1223.35,866.57,1234.37,854.4,1236.9,864.85Z"/>
            <path class="cls-3" d="M1235,897.37c1.57,5.54-3.52,10.53-6.66,13.33-2.68,2.39-9.18,8.57-12.86,6.76s-1.89-7.84,1.94-13.36C1223,896.07,1232.66,889.06,1235,897.37Z"/>
          </g>
        </g>
        <g>
          <g>
            <path class="cls-3" d="M1387.07,800.19c5.16-7.52,2.08-11.59.52-13-1.34-1.21-5-3.45-9.51,1.73a18.8,18.8,0,0,0-1.5,1.95c-3.81,5.54-3.92,16-3.92,16.4v1.58l1.39-.4C1374.39,808.37,1383.29,805.76,1387.07,800.19Z"/>
            <path class="cls-3" d="M1377.15,822.28c5.15.08,10.07-1.41,9.44-6.13-.49-3.61-6.6-5.17-9.41-6.19-7.65-2.79-20.63,5-9.11,10.52A24.11,24.11,0,0,0,1377.15,822.28Z"/>
            <path class="cls-3" d="M1374.27,832.54c5.77-5.58-8.91-9.7-12.55-9.65-4.29.08-15.86,3.14-10.13,8.86,1.84,1.83,7.68,2.67,13,2.63C1369,834.34,1373.05,833.71,1374.27,832.54Z"/>
            <path class="cls-3" d="M1356.23,853.86c1.15-1.8.49-4.82-3.16-8.33s-10.46-7.28-15.12-6.95C1329,839.21,1351,862.05,1356.23,853.86Z"/>
            <path class="cls-3" d="M1351.07,858.19c-1.26-5.24-11.76-6.86-16.9-7.24-4-.3-16.46.61-10.86,6.17,1.5,1.49,4.55,2.75,7.68,3.84,2.74.94,5.55,1.76,7.42,2.49C1343.15,865.28,1352.56,864.36,1351.07,858.19Z"/>
            <path class="cls-3" d="M1317.57,860.15c-4.71-1.16-12.81.06-17.53,1.79-10.35,3.8-2.25,8.08,5.26,7.88,5.84-.17,12.3-1.5,14.13-3.16C1323.47,863,1322.06,861.25,1317.57,860.15Z"/>
            <path class="cls-3" d="M1306.86,889.82c1.24-8.17-15.34-6.57-20.77-5.69-6.51,1-11.77,3.78-4,7.5a25,25,0,0,0,4.23,1.43C1293.48,895,1305.87,896.32,1306.86,889.82Z"/>
            <path class="cls-3" d="M1260.45,906.83c1.42,2.79,6.29,18,2.42,19.43-2.55,1-5.38-1.51-7.74-5.28-3.92-6.26-6.54-16.13-4.38-19.85C1254.42,894.77,1258.37,902.76,1260.45,906.83Z"/>
          </g>
          <g>
            <path class="cls-3" d="M1363,816.69c3.5-.92,2.65-11.79,2.27-14.43-1.07-7.52-9.5-12.15-10.85-3.14-.48,3.28,3.46,17.64,8.09,17.63A1.93,1.93,0,0,0,1363,816.69Z"/>
            <path class="cls-3" d="M1351.09,807.65c-3.43-7.73-6.89-3.19-8,1.77-1.3,5.58-1.85,15.31,6.83,17.32C1358.05,828.63,1352.57,811,1351.09,807.65Z"/>
            <path class="cls-3" d="M1336.55,839c3.94-1.92,5-19.19-1.54-19.19-6.7,0-8.88,16.07-2,19.38A3.91,3.91,0,0,0,1336.55,839Z"/>
            <path class="cls-3" d="M1320.49,837c-5.41-16.85,16.14,17.19-8.41,18.73-10.6.66-2.25-19.91,3.84-22.22C1317.71,832.82,1319.39,833.58,1320.49,837Z"/>
            <path class="cls-3" d="M1297.39,853.7c-1.89-5.6-8.66-9-12.56-1.67-.93,1.75-.45,5,.84,8,2.14,4.9,6.47,9.24,10.41,5.7C1299.11,863,1298.38,856.63,1297.39,853.7Z"/>
            <path class="cls-3" d="M1282.23,870.65c-1.25-3.82-3.82-7-8.9-4-4.22,2.46-3.86,11.31-.95,16.37C1278.78,894.11,1284,875.86,1282.23,870.65Z"/>
          </g>
        </g>
        <g>
          <g>
            <path class="cls-3" d="M1131,825.47c3.06.79,3.78,4.58,3.6,7.6-.2,3.22-3.55,18-8.2,14.82-3.44-2.37-2-18.39,2.07-21.78A2.78,2.78,0,0,1,1131,825.47Z"/>
            <path class="cls-3" d="M1153.65,887.82c0-5.83.29-12.52,2.11-17.81,1.91-5.55,6.22-6.93,8.65-.37,3.28,8.88,1.87,18.85-2,26.25-3.05,5.78-6.72,8.26-8.15-.92A51.83,51.83,0,0,1,1153.65,887.82Z"/>
            <path class="cls-3" d="M1142.84,843.06c3-5.5,6.53-3.19,8.47,2.32,2.47,7,.27,14.85-2,21.2-1.84,5.11-5.12,13.51-7.93,3.82-1.56-5.39-1.91-14.18-.58-21A22.66,22.66,0,0,1,1142.84,843.06Z"/>
          </g>
          <g>
            <path class="cls-3" d="M1108.42,807.54c3,2.23,5,6.12,5.75,10,.95,4.85-1,9-5.66,5.73-3.32-2.32-5.16-7.33-5.26-11.65a6.22,6.22,0,0,1,1.26-4.38C1105.37,806.33,1106.67,806.24,1108.42,807.54Z"/>
            <path class="cls-3" d="M1121.94,837.38c4.83,2.4,8.75,6.47,6.58,10.3-3.19,5.63-13-.83-15.81-2.68-2.35-1.53-5.71-4.35-2.91-7.91C1112.93,833.1,1119,835.9,1121.94,837.38Z"/>
            <path class="cls-3" d="M1124,863.84c.66-.2,2.19.1,4.12.74,6.45,2.15,17.4,8.17,16,12.62-1.93,6-14.58,2.31-18,.42C1120.94,874.74,1116,866.24,1124,863.84Z"/>
          </g>
        </g>
      </g>
      <g>
        <g>
          <g>
            <path class="cls-3" d="M1353.22,646.79c1-6,4-8.91,7.71-8.08a5.59,5.59,0,0,1,3.18,2c1.51,1.92,1.93,4.89,1.24,8.83a20.2,20.2,0,0,1-3.4,7.54,38.49,38.49,0,0,1-4.4,5.32l-.92.89-.55-1.23C1355.92,661.68,1352.11,653.1,1353.22,646.79Z"/>
            <path class="cls-3" d="M1344.8,668.87a5,5,0,0,1,1-1.54,4.81,4.81,0,0,1,3.85-1.6c2.85.12,4.86,2,6.32,3.93,2,2.63,8.16,10,4.26,12.55C1355.14,685.59,1342.83,673.67,1344.8,668.87Z"/>
            <path class="cls-3" d="M1344.69,683.78c3.5-.5,6.48,3.13,8.41,5.81,1.53,2.11,5.87,11.55,4,13.41-.52.51-1.52.44-3.19-.53-4-2.36-11.71-9.75-12.8-14.21C1340.5,685.69,1342.15,684.15,1344.69,683.78Z"/>
            <path class="cls-3" d="M1356.59,710.18a49.82,49.82,0,0,1,4.41,4.48c2.24,2.7,3.64,5.59-.14,6.12-3.55.51-8.33-3-11.46-4.8-2.74-1.53-6.6-4.55-6.31-7.81C1343.68,701.75,1353.55,707.37,1356.59,710.18Z"/>
            <path class="cls-3" d="M1350.63,724.94a24.69,24.69,0,0,1,9.49,8.76c.3.47.66,1.07,1,1.73,3.26,6.28-1.26,6.18-5.53,4.68s-11.17-5.4-12-11.13C1343,724.79,1347.47,723.44,1350.63,724.94Z"/>
            <path class="cls-3" d="M1354.35,746.55l.25.14c3.53,1.92,11.35,7.95,10.42,12.66-1.53,7.74-19.43-5.06-20.12-10.51C1344.14,742.87,1351.46,745.05,1354.35,746.55Z"/>
            <path class="cls-3" d="M1365.21,868.89c6.24,1.34,16.76,14.67,17.62,18.79,1.63,7.74-8.09,2.77-10.68,1.2-4.66-2.84-13.11-9.22-11.15-17C1361.68,869.24,1363.23,868.46,1365.21,868.89Z"/>
            <path class="cls-3" d="M1348.74,765.62a2.71,2.71,0,0,1,2.43-.38c2.71.65,6.12,3.74,7.39,5.44,1.87,2.5,10.72,15.49,3,14-2.44-.48-4.9-2.87-6.92-4.51C1352.15,778.15,1344.46,769.07,1348.74,765.62Z"/>
            <path class="cls-3" d="M1353.29,793.46a13.92,13.92,0,0,1,5.93,2.38c3,2.23,11.09,8.56,8.28,13.85-1.64,3.07-7.74-.3-9.49-2-2.73-2.6-5.74-4.22-7.71-7.92C1347.4,794.33,1350,793,1353.29,793.46Z"/>
            <path class="cls-3" d="M1357.06,820.64a4.45,4.45,0,0,1,1.73.08c3.15.72,5.47,3.69,8.13,5.65,1.83,1.36,10.56,8.33,6,11.33-2.16,1.43-7.62-2-9.66-3.28-2.72-1.71-7.39-3.76-8.88-7.25S1354.52,821,1357.06,820.64Z"/>
            <path class="cls-3" d="M1356.4,846.48a5,5,0,0,1,2.49-.72c5.41-.21,12.52,6.71,16.06,9.94,1.62,1.48,4.61,3.85,3.79,6.69-1.57,5.4-8.15,1.86-11.17.22C1364.83,861.12,1348,851.49,1356.4,846.48Z"/>
          </g>
          <g>
            <path class="cls-3" d="M1360.5,678.52c.37-4.54,5.29-12.7,11.07-13a4,4,0,0,1,2.66.81c4.24,3.18,2.38,6.92-1.18,10.15C1370.73,678.62,1359.79,687.05,1360.5,678.52Z"/>
            <path class="cls-3" d="M1361.5,692.29c2.22-1.75,4.34-2.47,6.28-2.16A5.6,5.6,0,0,1,1371,692c7.13,7.95-13.36,15-14.37,9.18C1356.11,698.07,1359.42,694,1361.5,692.29Z"/>
            <path class="cls-3" d="M1363.09,716.73a12.71,12.71,0,0,1,6.54-7.63c.6-.25,5.94-2.42,8.15.91,1.11,1.67,1.41,4.46-3.45,8.25l-.11.08C1371.45,720.47,1361,724.1,1363.09,716.73Z"/>
            <path class="cls-3" d="M1362.81,736.32a17.2,17.2,0,0,1,8.22-7.51c.71-.26,7-2.47,9.11,1.29,3,5.19-3.65,9.12-6.77,10.41C1370.4,741.73,1358.83,743.76,1362.81,736.32Z"/>
            <path class="cls-3" d="M1377.52,746.52A5.59,5.59,0,0,1,1379,750c.15,2.24-.9,4.68-3.12,7.28-1.89,2.21-7.28,6.44-10.44,5.2a2.77,2.77,0,0,1-1.33-1c-1.28-1.86.11-5.18.86-7.06C1366.67,750.12,1372.24,740.86,1377.52,746.52Z"/>
            <path class="cls-3" d="M1398.78,871.2a6.91,6.91,0,0,1,2.8.9,4,4,0,0,1,2.07,2.82c1.06,5.59-2.82,9.73-6.35,12.3-2.28,1.66-14.49,10.41-14.66,2.33-.07-3.12,1.54-6.83,3.9-10.09C1390,874.7,1395,870.88,1398.78,871.2Z"/>
            <path class="cls-3" d="M1368.94,772.92c2.43-3.95,7.8-10.63,11.75-4.38s-9.22,15.71-12.91,16.23c-6,.84-1.71-7.08.41-10.62C1368.5,773.63,1368.76,773.21,1368.94,772.92Z"/>
            <path class="cls-3" d="M1383.54,794.92c1.82,5.65-5,10.59-8.15,13-1.93,1.44-7.43,4.53-7.44-.71,0-1.65,1.12-4.29,2.76-6.92C1372.68,797.13,1380.86,786.61,1383.54,794.92Z"/>
            <path class="cls-3" d="M1390.53,821c1.27,4.49-2.86,8.55-5.41,10.82-2.18,1.93-7.45,6.95-10.43,5.49s-1.54-6.37,1.56-10.85C1380.77,819.94,1388.62,814.25,1390.53,821Z"/>
            <path class="cls-3" d="M1383,848.29c2.23-3.85,5.61-7.37,9.9-7a8.86,8.86,0,0,1,1.49.28,3.57,3.57,0,0,1,2.55,2.3c2.25,6.65-5.27,14-9.2,16.66-1.91,1.3-5.69,4.46-8.07,2.91-3.89-2.56-.07-9.41,1.43-12C1381.83,850.26,1382.51,849.18,1383,848.29Z"/>
          </g>
        </g>
        <g>
          <g>
            <path class="cls-3" d="M1488,759.58c7.25,1.51,7.74,5.61,7.61,7.31-.11,1.46-1,4.81-6.55,4.33a15.24,15.24,0,0,1-2-.3c-5.35-1.1-11.27-7.13-11.52-7.39l-.89-.92,1-.54C1476,761.93,1482.63,758.45,1488,759.58Z"/>
            <path class="cls-3" d="M1470,750.72c2.13-3.6,5.26-6.37,8.25-3.93,2.29,1.88.77,6.76.28,9.14-1.32,6.48-12.25,12.12-11.15,1.83A19.72,19.72,0,0,1,1470,750.72Z"/>
            <path class="cls-3" d="M1459.77,746.9c6.22-1.95,3.46,10.12,2,12.69-1.72,3-8.39,10.1-10.24,3.78-.59-2,1.07-6.5,3.18-10.3C1456.44,750,1458.46,747.32,1459.77,746.9Z"/>
            <path class="cls-3" d="M1443.23,752.51c1.73.11,3.38,2,3.91,6.08s-.33,10.35-2.8,13.22C1439.6,777.34,1435.36,752,1443.23,752.51Z"/>
            <path class="cls-3" d="M1417.84,752.86c4.28.87,5.9,9.34,6.37,13.5.36,3.22,0,13.37-4.69,9-1.25-1.18-2.36-3.61-3.34-6.12-.85-2.2-1.6-4.45-2.23-5.94C1412.32,759.49,1412.78,751.83,1417.84,752.86Z"/>
            <path class="cls-3" d="M1411.81,779.76c2.54,3,4.54,9.35,5,13.42,1,8.9-5.08,4.53-7.62-1-2-4.31-3.31-9.49-2.75-11.42C1407.63,776.49,1409.4,776.88,1411.81,779.76Z"/>
            <path class="cls-3" d="M1389.82,892.07c.71-.44,1.77-.3,3.3.68,4.41,2.81,9.62,19,6.79,23.82C1394,926.69,1384.48,895.36,1389.82,892.07Z"/>
            <path class="cls-3" d="M1398.86,801.81c5.4-4,10.52,8.54,11.93,12.78,1.71,5.07,1.74,9.88-3.85,5.74a20.49,20.49,0,0,1-2.63-2.5C1400.23,813.36,1394.57,805,1398.86,801.81Z"/>
            <path class="cls-3" d="M1405.18,830.05c1.54,2,7.59,13.47,4.7,15.19-1.89,1.12-4.51-.45-6.93-3.12-4-4.45-7.52-12-6.33-15.25C1398.65,821.27,1402.94,827.09,1405.18,830.05Z"/>
            <path class="cls-3" d="M1402.34,848.34c3.28,1.43,7.51,9.24,8.61,13,1.7,5.84-1.47,7.26-5.51,4.52a17.69,17.69,0,0,1-2.68-2.36C1399.81,860.38,1393.38,844.43,1402.34,848.34Z"/>
            <path class="cls-3" d="M1398.33,872.64c3.92,3.44,7.72,9.77,7.83,15.66.17,8.65-6.51,2.66-9.24-1,0,0-.29-.41-.3-.41-2.45-3.33-6.33-8.82-6.34-13.49C1390.28,866.45,1395.46,870.13,1398.33,872.64Z"/>
          </g>
          <g>
            <path class="cls-3" d="M1467.89,762.85c2.12-2,9.28,3.18,10.95,4.56,4.74,3.94,4.36,11.73-2.44,8.84-2.48-1.06-10.73-9.89-8.76-13.09A1.54,1.54,0,0,1,1467.89,762.85Z"/>
            <path class="cls-3" d="M1468.53,773.08c4.19,5.44-.4,6.15-4.38,5-4.49-1.24-11.64-4.62-9.7-11.59C1456.27,760,1466.73,770.74,1468.53,773.08Z"/>
            <path class="cls-3" d="M1443.39,772.52c3.16-1.63,14.91,6.06,11.76,10.3s-14.77-2-13.6-8.07A3.21,3.21,0,0,1,1443.39,772.52Z"/>
            <path class="cls-3" d="M1434.14,784.73c3.45-1,14.78,1.12,14.94,7.37.22,8.62-16.22,1.24-17.91-3.77C1430.67,786.86,1431.34,785.52,1434.14,784.73Z"/>
            <path class="cls-3" d="M1423.73,792.16c4.76-.63,9.64,3.09,5.72,8.55-1,1.31-3.46,2.11-6.11,2.24-4.34.2-9-1.4-7.88-5.54C1416.36,794.22,1421.24,792.48,1423.73,792.16Z"/>
            <path class="cls-3" d="M1421.94,812.26c3.21-.54,6.48.1,6.27,4.87-.18,4-6.67,7-11.41,6.86C1406.39,823.61,1417.55,813,1421.94,812.26Z"/>
            <path class="cls-3" d="M1424.35,834.65c4,3,1.79,7.23-1.87,9.91s-9.24,3.89-11.31,1.59a3.31,3.31,0,0,1-.83-2.61C1410.8,838.93,1420.5,831.79,1424.35,834.65Z"/>
            <path class="cls-3" d="M1426.21,860.9c2.39,3.27.3,6.38-3.06,8.41-4.23,2.55-10.48,3.37-12.24.57C1407.38,864.29,1422.18,855.41,1426.21,860.9Z"/>
            <path class="cls-3" d="M1424.73,882.38a4.06,4.06,0,0,1,1.28,3.09c-.31,6-8.86,8.82-14.68,8.47-3.27-.19-5.69-1.39-5.3-3.56C1407.33,883.14,1419.71,877.23,1424.73,882.38Z"/>
          </g>
        </g>
        <g>
          <g>
            <path class="cls-3" d="M1335.36,771c2.08,1.48,1.52,4.56.5,6.8s-8,12.63-10.53,8.84c-1.91-2.8,3.83-14.53,7.93-15.89A2.21,2.21,0,0,1,1335.36,771Z"/>
            <path class="cls-3" d="M1340.15,830.69c2-4.29,4.49-9.12,7.63-12.39,3.3-3.44,7-3,6.5,2.67a26.88,26.88,0,0,1-10.46,18.64c-4.22,3.22-7.77,3.79-5.69-3.46A41.49,41.49,0,0,1,1340.15,830.69Z"/>
            <path class="cls-3" d="M1359.65,895.46c.73-3.68,2.41-7.45,5.24-9.31,2.59-1.7,5.74-1.53,6.57,2.48,1.6,7.7-6.54,17.81-11.78,20.73-4.49,2.49-3.7-2.26-2.29-6.94C1358.3,899.42,1359.46,896.46,1359.65,895.46Z"/>
            <path class="cls-3" d="M1353.63,852.35c3.22.33,3.07,4.67,2.7,7.14a32.75,32.75,0,0,1-3.63,10.79c-.79,1.37-3.58,6.3-5.25,6.21-4.2-.22-2.71-12.67.92-19.61C1349.85,854.06,1351.68,852.15,1353.63,852.35Z"/>
            <path class="cls-3" d="M1344,790.18c3.84-3.32,5.88-.52,5.76,4.22-.17,6-4.12,11.33-7.7,15.47-2.88,3.34-7.81,8.76-7.12.6a41.21,41.21,0,0,1,5.66-16.1A18.91,18.91,0,0,1,1344,790.18Z"/>
          </g>
          <g>
            <path class="cls-3" d="M1309.44,753.18a13.46,13.46,0,0,1,7,6.19c2,3.49,1.57,7.19-2.89,5.86-3.15-.93-5.86-4.32-7-7.63a5,5,0,0,1-.15-3.69C1306.78,753,1307.75,752.63,1309.44,753.18Z"/>
            <path class="cls-3" d="M1320.14,780.24c4.12,1.45,7.68,4.33,6.31,7.63-2,4.85-10.51.64-13-.57-2-1-5-2.92-3.13-6.07C1312.47,777.7,1317.6,779.35,1320.14,780.24Z"/>
            <path class="cls-3" d="M1338.25,843c.18,4.81-6.09,2-8,1-.83-.47-2-1.14-3.27-2-2.82-2-5.74-4.92-4.43-8.49C1325.4,825.88,1338.07,838.05,1338.25,843Z"/>
            <path class="cls-3" d="M1342.56,896.64l.36.08c4.39,1.22,10.3,6.08,12,10.93,2.48,7-15.35.63-17.78-1.61C1329.87,899.3,1335.32,894.92,1342.56,896.64Z"/>
            <path class="cls-3" d="M1330.37,861.54a11.58,11.58,0,0,1,5.28.94c3.69,1.63,13.94,8.92,10.09,14.11-4.18,5.66-14.26-3.29-18.16-6-2.27-1.6-4.34-2.26-3-5.73C1325.49,862.5,1328.26,861.67,1330.37,861.54Z"/>
            <path class="cls-3" d="M1323.62,800.44a7.45,7.45,0,0,1,2.91,1.76c4.26,3.5,10.81,11.25,8.43,14.21-3.21,4-11.73-2.49-13.75-4.91C1318.16,807.83,1316.86,799.94,1323.62,800.44Z"/>
          </g>
        </g>
        <g>
          <path class="cls-3" d="M1446.43,867.78c2.36,2.16,4.38,6.58,3.67,10-.34,1.65-2.57,9.79-4.77,5.81-1.91-3.47-4.78-8-4.21-12.33l.06-.38C1441.74,867.75,1443.69,865.27,1446.43,867.78Z"/>
          <path class="cls-3" d="M1441.18,870.92a1.89,1.89,0,0,0,0,.23C1441.41,869.38,1441.31,870.05,1441.18,870.92Z"/>
          <path class="cls-3" d="M1441.13,871.15c0,.05,0,.1,0,.15C1441,872.2,1440.86,873,1441.13,871.15Z"/>
          <path class="cls-3" d="M1441.18,870.92l-.06.38s0-.1,0-.15A1.89,1.89,0,0,1,1441.18,870.92Z"/>
          <path class="cls-3" d="M1458.37,885.65a11,11,0,0,1,4.57,3.74c1.11,1.71,1.38,4.34-.47,4.85s-3.92-.4-5.63-1.23a32.61,32.61,0,0,1-5.14-3.2c-1.85-1.35-3.65-2.86-5.44-4.44l1.32-.52A13.05,13.05,0,0,1,1458.37,885.65Z"/>
          <path class="cls-3" d="M1420.92,888.61c3.94-1.17,5.36,9.55,5.6,12a30.14,30.14,0,0,1-.29,7.24,4.09,4.09,0,0,1-.75,2.29c-.79.75-2-.24-2.58-1-2-2.83-4.12-6.62-4.69-10S1417.15,889.72,1420.92,888.61Z"/>
          <path class="cls-3" d="M1433.73,876.59c3.68-1.54,4.27,4.87,4.51,7.67a21.71,21.71,0,0,1-1.07,8.7c-.52,1.56-1.1,4.6-2.8,4.77-3.67.39-4-7.74-4.17-10.6C1429.93,883.19,1430.12,878.1,1433.73,876.59Z"/>
          <path class="cls-3" d="M1435.82,895.57c.07-.07.06-.07,0,0Z"/>
          <path class="cls-3" d="M1444.39,895c3,.43,7.06,2,7.47,6.23.44,4.47-5.95,3.55-8.26,3-1.9-.42-12-4.74-8.17-8.38C1437.61,893.86,1441.69,894.65,1444.39,895Z"/>
          <path class="cls-3" d="M1435.82,895.57l-.39.36C1435,896.32,1435.61,895.76,1435.82,895.57Z"/>
          <path class="cls-3" d="M1455.66,879.16h0C1456,877.6,1455.74,878.78,1455.66,879.16Z"/>
          <path class="cls-3" d="M1455.65,879.16h0C1455.63,879.28,1455.62,879.31,1455.65,879.16Z"/>
          <path class="cls-3" d="M1455.66,879.16c.73-3.31,4.83-5.15,7.36-5.66a8.46,8.46,0,0,1,5.18.37c1.38.62,3.23,2.19,3,4.17-.3,3.06-4.92,4.26-7,4.67-1.83.35-9.52.83-8.57-3.54Z"/>
          <polygon class="cls-3" points="1455.65 879.16 1455.66 879.16 1455.65 879.17 1455.65 879.16"/>
        </g>
        <g>
          <path class="cls-3" d="M1297.17,827.94c1.71-.35,3.08.9,4.26,1.85a14.93,14.93,0,0,1,4.07,4.67,18.21,18.21,0,0,1,2.09,6.31c.22,2.34-2.16,3.3-3.85,2.86-3-.78-5.89-3.47-7.84-5.88a8.07,8.07,0,0,1-1.9-4.28c-.18-2,.63-4.57,2.61-5.36A3.31,3.31,0,0,1,1297.17,827.94Z"/>
          <path class="cls-3" d="M1306.62,849.85a12.47,12.47,0,0,1,4.4,2.47c.27.25,2.47,2.6,2,3a15.23,15.23,0,0,1-8.84,2.75c-2.52,0-6.93-1.28-5.08-5.11C1300.78,849.37,1303.85,849,1306.62,849.85Z"/>
          <path class="cls-3" d="M1319.81,885.57a16.24,16.24,0,0,1,11,2.55,2.71,2.71,0,0,1-.14,4.4,10.92,10.92,0,0,1-5,1.72c-3.24.52-7.61,1.28-10.35-1.75-1.14-1.25-2.07-3.39-.88-4.9S1318.06,885.81,1319.81,885.57Z"/>
          <path class="cls-3" d="M1312.31,868.79a13.92,13.92,0,0,1,10.23,1.22c1.56,1,1.09,3.11,0,4.12a10.19,10.19,0,0,1-4.22,2c-2.91.83-6.81,2-9.51-.53-1.15-1.08-2.1-3-1.08-4.47S1310.76,869.19,1312.31,868.79Z"/>
        </g>
        <g>
          <path class="cls-3" d="M1294.16,852.4h0C1294,852.75,1293.69,853.34,1294.16,852.4Z"/>
          <path class="cls-3" d="M1317.49,838.92a2.92,2.92,0,0,1,4.15,1.76c.73,1.7.09,3.87-.77,5.64a23.42,23.42,0,0,1-9,10,16.57,16.57,0,0,1,.25-8.76c.79-3,2.47-7.32,5.41-8.65Z"/>
          <path class="cls-3" d="M1294.16,852.4Z"/>
          <path class="cls-3" d="M1294.16,852.4Z"/>
          <path class="cls-3" d="M1331.65,870.33a2.84,2.84,0,0,1,.66-.07c3,0,3.35,4.73,3.56,7.31a17.92,17.92,0,0,1-1.36,8.16c-.55,1.46-1.17,3.83-2.84,3.68-3.26-.27-3.44-7-3.59-9.8C1327.9,876.36,1328.33,871,1331.65,870.33Z"/>
          <path class="cls-3" d="M1312.59,861.64Z"/>
          <path class="cls-3" d="M1312.59,861.64Z"/>
          <path class="cls-3" d="M1321.59,853.64h0c3.05-1.5,4,3.57,4.44,6.06a17,17,0,0,1-.34,7.11c-.37,1.46-.75,4.11-2.29,4.32-3.1.42-3.87-5.87-4.25-8.42C1318.65,859.38,1318.57,855.12,1321.59,853.64Z"/>
          <polygon class="cls-3" points="1312.59 861.64 1312.59 861.64 1312.59 861.64 1312.59 861.64"/>
          <path class="cls-3" d="M1337,896.48c1.15-1,3.17-1.62,4.44-.4s1,4,.75,5.71c-.65,4.08-2.55,8.46-5.53,10.78-1.23,1-2.71-.1-3.16-1.7a13.75,13.75,0,0,1,.11-6C1334.09,901.86,1334.72,898.32,1337,896.48Z"/>
        </g>
      </g>
    </g>
    <path class="cls-3" d="M1211.41,687.48c2,19.76,3,39.59,4,59.42s1.65,39.67,2.19,59.52l.86,29.77c.25,9.92.3,19.85.22,29.77-.28,19.86-.85,39.71-2.32,59.54h-.5c-.68-9.93-1.09-19.85-1.41-29.77-.19-5-.3-9.91-.46-14.87l-.31-14.88c-.47-19.83,0-39.66-.08-59.5s-.27-39.66-.69-59.49-.89-39.67-2-59.47Z"/>
    <path class="cls-3" d="M1357.41,650.5c.18,11.26.81,22.52,1.55,33.76.37,5.62.8,11.24,1.23,16.85s.91,11.23,1.44,16.84c1.93,22.44,4.33,44.85,7,67.22.69,5.59,1.33,11.18,2.07,16.77l2.23,16.74c.68,5.59,1.47,11.17,2.21,16.75s1.38,11.18,2,16.78l2,16.78c.62,5.6,1.28,11.19,1.85,16.8q2,16.8,3.4,33.67l-.5.08q-3.45-16.59-6.38-33.26t-5.3-33.42c-1.58-11.17-3-22.36-4.2-33.58s-2.33-22.45-3.37-33.68c-2.18-22.46-4.09-45-5.53-67.46-.36-5.63-.62-11.27-.94-16.9s-.52-11.27-.73-16.91c-.41-11.27-.71-22.55-.55-33.83Z"/>
    <path class="cls-3" d="M1433.31,748.25a137.55,137.55,0,0,0-5.19,14.78c-.71,2.52-1.48,5-2.13,7.55l-1.91,7.61c-.63,2.53-1.13,5.1-1.7,7.65s-1.15,5.1-1.59,7.69l-1.41,7.71-.7,3.86-.59,3.88-1.2,7.75-.6,3.87-.49,3.89c-.63,5.19-1.32,10.38-1.89,15.57l-1.47,15.62c-.11,1.3-.25,2.6-.35,3.9l-.25,3.92-.51,7.82c-.79,10.43-1,20.9-1.33,31.34l-.16,3.92,0,3.92-.11,7.84c-.1,5.23-.26,10.45-.43,15.68l-.21,15.69-.33,15.7q0,15.71-.52,31.46l-.5,0q-1.51-15.67-2.49-31.41c-.49-10.49-.71-21-1-31.5.1-10.51.24-21,.8-31.51.72-10.49,1.22-21,2.29-31.45l.7-7.85.35-3.92c.13-1.31.3-2.61.44-3.92l1.85-15.65c.7-5.21,1.52-10.4,2.28-15.6l.58-3.9.7-3.88,1.39-7.76.71-3.87.83-3.85,1.67-7.71c.51-2.57,1.21-5.11,1.83-7.66s1.24-5.11,1.95-7.63l2.17-7.58c.73-2.52,1.59-5,2.38-7.51a136.47,136.47,0,0,1,5.69-14.7Z"/>
    <path class="cls-3" d="M1312.38,755.38a198.45,198.45,0,0,1,10.52,22.09c1.62,3.75,3,7.58,4.51,11.38s2.76,7.68,4.15,11.52c5.23,15.47,9.55,31.24,13.35,47.13l2.76,11.94c.87,4,1.66,8,2.49,12,1.74,8,2.83,16.09,4,24.18s1.71,16.25,2.4,24.38q.74,12.22.87,24.48l-.5,0c-1.51-8-2.69-16.09-3.87-24.13-.7-4-1.3-8-2-12s-1.13-8-1.9-12-1.35-8-2-12-1.27-8-1.94-12-1.26-8-2-12L1341,848.36c-3.28-15.89-7.09-31.69-11.82-47.22-1.23-3.87-2.37-7.77-3.67-11.61s-2.58-7.71-4-11.49a218.84,218.84,0,0,0-9.53-22.42Z"/>
    <path class="cls-3" d="M1301.35,837.33A133.79,133.79,0,0,1,1315,857c2.1,3.4,3.89,7,5.81,10.47s3.53,7.16,5.3,10.74a347.55,347.55,0,0,1,16.67,44.9l3.36,11.51,2.92,11.63,1.42,5.83c.42,1.95.78,3.92,1.15,5.88.74,3.93,1.42,7.87,2.09,11.81,1.18,7.9,2,15.86,2.76,23.8.51,8,.85,16,1,23.92l-.5,0c-1.53-7.85-2.75-15.69-3.94-23.53-.76-3.9-1.42-7.81-2.12-11.7l-1-5.86-.49-2.93c-.18-1-.4-1.94-.6-2.9-.78-3.88-1.55-7.76-2.26-11.65-.38-1.94-.68-3.9-1.07-5.84l-1.23-5.8-2.39-11.62-2.91-11.5a342.88,342.88,0,0,0-15.11-45c-1.61-3.61-3.13-7.28-4.82-10.86s-3.4-7.16-5.35-10.61A139.78,139.78,0,0,0,1301,837.67Z"/>
    <path class="cls-3" d="M1105.37,811.37l26.36,42,26.14,42.11,13.16,21q6.59,10.5,12.77,21.23l6.13,10.78c2,3.62,4,7.21,6,10.86,3.95,7.26,7.82,14.57,11.45,22l-.43.26c-4.86-6.72-9.49-13.57-14-20.48-2.3-3.43-4.51-6.92-6.76-10.39l-6.62-10.47Q1173,929.78,1166.79,919l-12.35-21.49-24.85-42.89-24.65-43Z"/>
    <path class="cls-3" d="M1366.32,813.69c-12.24,11.06-24.2,22.44-36.08,33.89s-23.77,22.9-35.54,34.47-23.24,23.45-35.35,34.67l-9.08,8.41c-3.06,2.77-6.09,5.57-9.18,8.31-6.14,5.53-12.35,11-18.76,16.24l-.35-.36c10.83-12.54,22.27-24.46,33.89-36.19q8.76-8.77,17.84-17.19l18.23-16.78q18.18-16.83,36.6-33.41,9.23-8.25,18.57-16.4c6.23-5.42,12.48-10.82,18.89-16Z"/>
  </g>
</svg>
