<svg id="Layer_1" data-name="Layer 1" xmlns="http://www.w3.org/2000/svg" xmlns:xlink="http://www.w3.org/1999/xlink" width="1600" height="900" viewBox="0 0 1600 900">
  <defs>
    <style>
      .cls-1 {
        fill: none;
      }

      .cls-2 {
        clip-path: url(#clip-path);
      }

      .cls-3 {
        fill: #193f64;
      }
    </style>
    <clipPath id="clip-path">
      <rect class="cls-1" width="1600" height="900"/>
    </clipPath>
  </defs>
  <g class="cls-2">
    <g>
      <g>
        <g>
          <g>
            <path class="cls-3" d="M80.2,515.87c6.06-.19,9.54,2.08,9.48,5.9a5.51,5.51,0,0,1-1.3,3.52c-1.57,1.88-4.39,2.89-8.39,3a20,20,0,0,1-8.07-1.79,37.4,37.4,0,0,1-6.11-3.22l-1.06-.72,1.1-.79C66.17,521.56,73.79,516.08,80.2,515.87Z"/>
            <path class="cls-3" d="M65.26,505.92a5.19,5.19,0,0,1,1.72.66A4.81,4.81,0,0,1,69.34,510c.48,2.81-.94,5.17-2.52,7-2.16,2.49-8,10.07-11.39,6.79C51.07,519.53,60.15,505,65.26,505.92Z"/>
            <path class="cls-3" d="M49.83,511.89c2.09,2.85.31,7.19-1.13,10.16-1.14,2.35-7.39,10.65-9.91,9.88-.7-.21-1.11-1.12-1-3.06.17-4.68,3-14.92,6.45-18C46.16,509.1,48.3,509.83,49.83,511.89Z"/>
            <path class="cls-3" d="M30.63,532.51A49.62,49.62,0,0,1,29,538.58c-1.21,3.29-3,5.95-5.37,2.95-2.21-2.82-1.53-8.74-1.58-12.33-.05-3.14.62-8,3.58-9.36C31.45,517.12,31.53,528.48,30.63,532.51Z"/>
            <path class="cls-3" d="M14.36,540.87a24.71,24.71,0,0,1,2.56,12.66c0,.56-.1,1.26-.21,2-1,7-4.64,4.27-7.22.55S3.61,545.14,6.28,540C8.24,536.25,12.69,537.8,14.36,540.87Z"/>
            <path class="cls-3" d="M5.92,562.38l.15.24c2.07,3.44,5.77,12.6,2.59,16.2-5.22,5.9-14.21-14.19-12-19.24C-1,554,4.18,559.62,5.92,562.38Z"/>
            <path class="cls-3" d="M-7.23,580a2.7,2.7,0,0,1,2.44.38c2.39,1.43,4.7,5.41,5.4,7.42,1,2.94,5.53,18-1.41,14.2C-3,600.76-4.6,597.74-6,595.57-7.76,592.93-12.34,582-7.23,580Z"/>
          </g>
          <g>
            <path class="cls-3" d="M59.1,523.29c4.52-.58,13.53,2.53,15,8.11a4,4,0,0,1-.24,2.78c-2.22,4.8-6.27,3.77-10.18,1C61.14,533.31,50.62,524.38,59.1,523.29Z"/>
            <path class="cls-3" d="M50.3,530.72c2.6,1.13,4.23,2.65,4.87,4.51a5.47,5.47,0,0,1-.06,3.7c-3.63,10.06-19.58-4.63-14.9-8.29C42.66,528.72,47.83,529.7,50.3,530.72Z"/>
            <path class="cls-3" d="M28.22,541.43a12.67,12.67,0,0,1,9.87,1.83c.52.39,5.08,3.93,3.31,7.51-.89,1.8-3.15,3.45-8.87,1.15l-.13,0C29.17,550.53,20.79,543.3,28.22,541.43Z"/>
            <path class="cls-3" d="M17.56,557.23A17.16,17.16,0,0,1,28.62,556c.73.2,7.08,2.07,6.63,6.38-.64,5.95-8.31,5.25-11.6,4.46C20.54,566.06,10,560.92,17.56,557.23Z"/>
            <path class="cls-3" d="M25.93,574.06a5.48,5.48,0,0,1-.45,3.71c-1,2-3.13,3.59-6.36,4.71-2.75.95-9.54,1.88-11.64-.79a2.79,2.79,0,0,1-.64-1.55c-.16-2.26,2.72-4.41,4.31-5.65C14.75,571.69,24.23,566.51,25.93,574.06Z"/>
            <path class="cls-3" d="M8.54,695.73a6.7,6.7,0,0,1,2.39,1.7,4,4,0,0,1,1.13,3.31c-.69,5.66-5.64,8.42-9.79,9.81-2.67.89-16.95,5.53-14.67-2.22.88-3,3.54-6,6.77-8.44C-.91,696.4,5.05,694.28,8.54,695.73Z"/>
            <path class="cls-3" d="M9.83,593c3.51-3,10.65-7.77,12.52-.63S8.81,604.58,5.14,604c-6-1,.5-7.26,3.6-10C9.19,593.56,9.57,593.24,9.83,593Z"/>
            <path class="cls-3" d="M17.08,618.41c0,5.93-7.91,8.59-11.7,9.91-2.27.79-8.45,2.07-6.87-2.93.5-1.57,2.36-3.75,4.72-5.76C6.06,617.23,17,609.68,17.08,618.41Z"/>
            <path class="cls-3" d="M15.86,645.38c-.15,4.66-5.32,7.28-8.43,8.67-2.66,1.19-9.2,4.38-11.61,2.08s.47-6.54,4.78-9.86C6.87,641.42,16.08,638.37,15.86,645.38Z"/>
            <path class="cls-3" d="M.45,669.12c3.3-3,7.58-5.33,11.56-3.68a7.92,7.92,0,0,1,1.34.72,3.57,3.57,0,0,1,1.73,3c.13,7-9.26,11.74-13.81,13.1-2.21.66-6.78,2.52-8.57.32-2.93-3.62,2.78-9,5-11C-1.29,670.63-.31,669.81.45,669.12Z"/>
          </g>
        </g>
        <g>
          <g>
            <path class="cls-3" d="M127.32,616.31c6.45,3.63,5.67,7.69,5,9.27-.55,1.36-2.38,4.29-7.56,2.15a15.48,15.48,0,0,1-1.79-.88c-4.76-2.67-8.58-10.21-8.74-10.53l-.57-1.15,1.16-.2C115.15,614.92,122.56,613.62,127.32,616.31Z"/>
            <path class="cls-3" d="M112.88,602.44c3.13-2.79,6.94-4.48,9.05-1.25,1.62,2.48-1.3,6.67-2.49,8.8-3.22,5.77-15.35,7.84-11.18-1.63A19.75,19.75,0,0,1,112.88,602.44Z"/>
            <path class="cls-3" d="M104.27,595.7c6.52,0,.24,10.69-1.92,12.7-2.56,2.37-11,7.09-10.91.51,0-2.1,3-5.88,6.15-8.86C100.17,597.61,102.9,595.7,104.27,595.7Z"/>
            <path class="cls-3" d="M86.81,596c1.62.63,2.61,2.94,1.88,7s-3.44,9.76-6.66,11.75C75.84,618.6,79.47,593.13,86.81,596Z"/>
            <path class="cls-3" d="M67.75,601.9c3.82,2.12,2.8,10.68,2,14.79-.63,3.18-4.06,12.74-7.19,7.15-.84-1.5-1.16-4.15-1.33-6.84-.14-2.35-.18-4.72-.33-6.34C60.48,606.55,63.24,599.39,67.75,601.9Z"/>
            <path class="cls-3" d="M56.64,620.3c1.5,3.64,1.5,10.29.68,14.29-1.8,8.77-6.22,2.78-7-3.27-.58-4.71-.29-10.05.83-11.72C53.64,615.91,55.21,616.83,56.64,620.3Z"/>
            <path class="cls-3" d="M40.75,631c6.63-1,5.34,12.45,4.62,16.86-.85,5.29-3.06,9.56-6.08,3.29a20.33,20.33,0,0,1-1.17-3.43C36.59,641.86,35.47,631.81,40.75,631Z"/>
            <path class="cls-3" d="M33.21,658.94c.42,2.51.46,15.45-2.9,15.63-2.2.12-3.79-2.49-4.69-6-1.49-5.81-1.09-14.08,1.49-16.43C31.51,648.13,32.61,655.28,33.21,658.94Z"/>
            <path class="cls-3" d="M18.84,675c2.7,2.35,4.36,11.08,4.27,15-.15,6.09-3.61,6.48-6.62,2.64a16.15,16.15,0,0,1-1.84-3.06C12.79,685.73,11.49,668.58,18.84,675Z"/>
            <path class="cls-3" d="M7.67,697c2.7,4.46,4.4,11.65,2.73,17.3-2.46,8.29-7,.56-8.49-3.8,0,0-.16-.48-.17-.48C.41,706.06-1.62,699.66-.21,695.2,1.87,688.62,5.7,693.7,7.67,697Z"/>
          </g>
          <g>
            <path class="cls-3" d="M107.18,613.36c2.64-1.3,7.89,5.83,9.06,7.65,3.33,5.2.61,12.51-5,7.69-2-1.76-7.23-12.67-4.39-15.12A1.58,1.58,0,0,1,107.18,613.36Z"/>
            <path class="cls-3" d="M104.7,623.3c2.34,6.45-2.24,5.74-5.71,3.49-3.9-2.54-9.69-7.93-5.73-14C97,607.11,103.69,620.52,104.7,623.3Z"/>
            <path class="cls-3" d="M80.91,615.16c3.51-.6,12.38,10.29,8.09,13.37s-13.47-6.36-10.53-11.8A3.23,3.23,0,0,1,80.91,615.16Z"/>
            <path class="cls-3" d="M68.4,624c3.58.12,13.74,5.54,12,11.55-2.4,8.27-15.83-3.73-15.93-9C64.45,625,65.49,623.91,68.4,624Z"/>
            <path class="cls-3" d="M64.25,635.72c4.72.84,8.25,5.87,2.86,9.88-1.3,1-3.93,1-6.5.29-4.19-1.12-8.2-4.07-5.83-7.66C56.6,635.46,61.78,635.28,64.25,635.72Z"/>
            <path class="cls-3" d="M-3.85,736.69c3.32-3.85,16.39-5,18.54.28,3,7.23-9.6,9.09-13,8.21-3.07-.79-9.31-2.88-6.22-7.57A9.78,9.78,0,0,1-3.85,736.69Z"/>
            <path class="cls-3" d="M56.32,651c3.1,1,5.69,3.1,3.28,7.22-2,3.43-9.17,3.14-13.28.78C37.27,653.8,52.09,649.6,56.32,651Z"/>
            <path class="cls-3" d="M48,671.93c2.14,4.46-1.54,6.93-6,7.6-4.67.7-10.22-.55-11-3.55a3.3,3.3,0,0,1,.47-2.69C34.06,669.41,46,667.6,48,671.93Z"/>
            <path class="cls-3" d="M37.79,694.21c1.29,3.84-1.64,6.17-5.46,7.08-4.8,1.15-11,0-11.84-3.16C18.82,691.74,35.61,687.75,37.79,694.21Z"/>
            <path class="cls-3" d="M29.88,714.22a4,4,0,0,1,.29,3.34c-2.12,5.65-11.11,5.73-16.56,3.63-3-1.17-5-3-4-5C13.07,709.69,26.66,707.81,29.88,714.22Z"/>
          </g>
        </g>
        <g>
          <path class="cls-3" d="M55,706.87c1.6,2.78,2.19,7.61.46,10.69-.82,1.47-5.41,8.55-6.3,4.1-.77-3.89-2.13-9.1-.28-13l.17-.34C50.53,705.43,53.13,703.65,55,706.87Z"/>
          <path class="cls-3" d="M49,708.28a2.12,2.12,0,0,0-.11.21C49.71,706.89,49.42,707.5,49,708.28Z"/>
          <path class="cls-3" d="M48.92,708.49l-.06.13C48.45,709.44,48.1,710.14,48.92,708.49Z"/>
          <path class="cls-3" d="M49,708.28l-.17.34.06-.13A2.12,2.12,0,0,1,49,708.28Z"/>
          <path class="cls-3" d="M61,727.52a10.91,10.91,0,0,1,3.22,5c.55,2,0,4.55-1.91,4.48s-3.61-1.57-5-2.87a34.16,34.16,0,0,1-3.93-4.61c-1.35-1.85-2.61-3.83-3.83-5.88l1.41-.1A13.12,13.12,0,0,1,61,727.52Z"/>
          <path class="cls-3" d="M21.78,741.09a5.61,5.61,0,0,1,4.92.32c2.76,1.3,5.95,4.29,6.8,7.82.41,1.74-.13,3.92-1.89,4.23s-4-1-5.48-2.18A22.45,22.45,0,0,1,21.58,746c-1.12-1.67-2.09-2.81-1.47-3.79A3.5,3.5,0,0,1,21.78,741.09Z"/>
          <path class="cls-3" d="M24.37,719c4.11.07,2.22,10.72,1.71,13.13A29.3,29.3,0,0,1,23.6,739c-.32.68-.72,1.63-1.4,2-1,.48-1.86-.83-2.15-1.72-1.09-3.31-1.93-7.56-1.46-11S20.45,718.93,24.37,719Z"/>
          <path class="cls-3" d="M-10.68,768.39a8.67,8.67,0,0,1,6.76.85C-1.57,770.43.9,772.7,1.65,775c1.55,4.81-4.21,4.61-7.73,2.92a22.86,22.86,0,0,1-6.26-5c-1.09-1.12-1.38-2-1.1-2.69S-12.12,768.89-10.68,768.39Z"/>
          <path class="cls-3" d="M7.13,736.69l1-.12h0l-1,.12Z"/>
          <path class="cls-3" d="M8.17,736.57h0c4-.43,2.25,6.22,1.57,8.77a22.49,22.49,0,0,1-4,8.16c-.86,1.17-2.15,3.48-3.65,3.19-3.46-.67-1.13-8.32-.46-10.89C2.58,742,4.3,737,8.17,736.57Z"/>
          <path class="cls-3" d="M11.43,756.78c2.71,1.28,5.55,3.6,5.1,7.58-.55,4.92-6.3,2.39-8.48,1.07-1.71-1-9.09-7.85-4.58-10.16C5.94,754,9.18,755.72,11.43,756.78Z"/>
          <path class="cls-3" d="M3.47,755.27Z"/>
          <path class="cls-3" d="M40.22,711.43c4-.36,2.59,5.94,2,8.68a21.43,21.43,0,0,1-3.64,8c-1,1.34-2.44,4.06-4.12,3.71-3.62-.74-1.44-8.58-.77-11.37C34.6,716.57,36.32,711.78,40.22,711.43Z"/>
          <path class="cls-3" d="M36.47,730.15Z"/>
          <path class="cls-3" d="M44.79,732.23c2.73,1.32,6.14,4,5.24,8.2-.93,4.4-6.74,1.59-8.79.41-1.69-1-10-8.15-5.26-10.46C38.69,729.07,42.34,731.05,44.79,732.23Z"/>
          <path class="cls-3" d="M36.47,730.15l-.49.23C35.48,730.63,36.21,730.27,36.47,730.15Z"/>
          <path class="cls-3" d="M60.34,720.51h0C61.13,719.13,60.53,720.18,60.34,720.51Z"/>
          <path class="cls-3" d="M60.33,720.52Z"/>
          <path class="cls-3" d="M60.34,720.51c1.7-2.93,6.16-3.44,8.73-3.16a8.44,8.44,0,0,1,4.82,1.92c1.13,1,2.42,3.06,1.64,4.89-1.21,2.83-6,2.58-8.11,2.33-1.85-.22-9.32-2.09-7.09-6Z"/>
          <polygon class="cls-3" points="60.33 720.52 60.34 720.51 60.33 720.52 60.33 720.52"/>
        </g>
        <path class="cls-3" d="M-60.13,732.68c1.39,9.68,1.53,20.18,4.74,29.21.89,2.5,4.86,11.24,7.69,10.24,4.29-1.51,2-17.2,1.92-20.75-.15-5.38-.77-10.77-.77-16.16,0-32.35,2.86-64.79,2.94-97.13,0-19.18,1.5-53.72-15-64.15.72-.72.11.82.47-.22,17,6.94,17.07,40.83,17.67,58.32,1.11,32.12-1.31,64.52-1.82,96.73,0,2.4-.12,4.8-.13,7.2,0,6.84.1,13.63.69,20.39.29,3.3.42,13.22,4.92,9.75,3.82-2.94,7.14-9,9.12-13.71,7.91-18.81,12-38,14.82-58.17C-6.53,648-6.84,589.7,18.54,549.73c14.92-23.52,33.52-25.92,55.91-27.9-9,.8-19.06,3.87-27.68,7.54A53.64,53.64,0,0,0,26.63,544c-11,13-17,31.16-21,48.2-4.7,20.15-6.29,40.86-8.29,61.36-2.05,21.06-4.72,42.25-8.7,63.09-3.76,19.73-10.15,36.69-21.3,52.5-.65.94-3.83,4.29-3.85,5.38-.06,4,3.62-.62,4.44-1.43,2.11-2.08,4.15-4.28,6.09-6.58C22.71,708.66,55,573,121.18,619.43a35.51,35.51,0,0,0-5.35-1.63C102.93,614,89,611,76,618.45c-12.11,6.95-21.3,20.36-29.29,32.81-9.45,14.74-17.64,30.45-25.4,46.41A430.19,430.19,0,0,1-5.21,744.73c-6.36,9.81-12.69,20-20.52,27.92-5.08,5.17-6.35,8.62-3.19,6.33,2-1.43,3.87-3.11,5.63-4.34,4-2.78,7.72-6,11.47-9.19,14-12,28.18-25.06,43.39-34.86,10.78-6.94,25.29-15,36.49-6.89-.46.59.7-.2.43.55-14.14-7.21-30.81,5.21-42.76,14.67-16,12.64-30.5,28-47.21,39.26C-30,783.93-41.21,790.59-49.84,783c-4.22-3.71-5.06-8.16-7.33-13.64-3.94-9.56-6.09-20.07-7.61-30.66-3-20.84-3.79-43.17-12.47-61.77a65.18,65.18,0,0,0-23.93-27.46A61.74,61.74,0,0,1-76.8,672.2C-66.4,689.79-63.18,711.56-60.13,732.68Z"/>
      </g>
      <g>
        <g>
          <path class="cls-3" d="M1591.25,769.14c7.74,4.43,16.1,26.6,15.51,32.43-1.11,11-11.93.27-14.71-2.91-5-5.74-13.54-17.79-7.66-27.28C1586.41,768.12,1588.8,767.74,1591.25,769.14Z"/>
          <path class="cls-3" d="M1600.78,701.54a6.56,6.56,0,0,1,2.27.84c3.89,2.3,5.71,7.22,8.42,11,1.87,2.58,10.54,15.53,3.24,17.61-3.47,1-9.28-5.89-11.46-8.44-2.9-3.42-8.23-8.11-8.75-13.39S1597.24,701,1600.78,701.54Z"/>
          <path class="cls-3" d="M1589,735.63a7.27,7.27,0,0,1,3.62.09c7.28,2,13.81,14.21,17.16,20,1.53,2.66,4.5,7.07,2.21,10.49-4.37,6.53-11.62-1-14.94-4.41C1594,758.66,1575.77,738.77,1589,735.63Z"/>
        </g>
        <g>
          <g>
            <path class="cls-3" d="M1571.14,622.67c3,1.86,2.59,6.2,1.39,9.41-1.27,3.42-9.79,18.38-13.77,13.36-2.94-3.7,3.85-20.6,9.43-22.91A3.09,3.09,0,0,1,1571.14,622.67Z"/>
            <path class="cls-3" d="M1569.66,704.2c3.29-5.71,7.38-12.1,12.16-16.26,5-4.36,10-3.26,8.69,4.54-1.82,10.57-8.85,19.54-16.87,24.58-6.27,4-11.27,4.3-7.47-5.52A58.9,58.9,0,0,1,1569.66,704.2Z"/>
            <path class="cls-3" d="M1572.65,802.14c2.52-4.59,6.35-8.9,10.91-10.18,4.15-1.16,8.26.39,7.68,6.07-1.13,10.92-16.22,20.93-24.41,22.6-7,1.42-4-4.57-.12-10.2C1569.18,806.83,1572,803.39,1572.65,802.14Z"/>
            <path class="cls-3" d="M1582.84,742.27c4.14,1.8,2.12,7.5.57,10.64a45.51,45.51,0,0,1-9.37,12.81c-1.64,1.49-7.42,6.86-9.6,6-5.5-2.06,1.74-18,9.49-25.67C1577.09,743,1580.33,741.18,1582.84,742.27Z"/>
            <path class="cls-3" d="M1574,652.91c5-5,8.12-1.38,8.47,5.22.44,8.4-4.46,16.21-9,22.38-3.63,5-9.88,13-9.84,1.62,0-6.36,2.45-16,6.09-23A25.63,25.63,0,0,1,1574,652.91Z"/>
          </g>
          <g>
            <path class="cls-3" d="M1534.61,608.19c4.2.36,8.45,2.92,11.45,6.16,3.8,4.11,4.44,9.26-2,8.89-4.57-.26-9.33-4-12-8.1-1.11-1.72-1.72-3.59-1.39-5S1532.14,608,1534.61,608.19Z"/>
            <path class="cls-3" d="M1550.87,637c5.89,1.59,11.14,5.24,9.58,10-2.3,7-14.59,2-18.15.51-3-1.18-7.3-3.56-5-8.14C1539.91,634.24,1547.24,636,1550.87,637Z"/>
            <path class="cls-3" d="M1565.48,721.06c-.36,6.7-8.71,2.05-11.19.37a53.28,53.28,0,0,1-4.28-3.19c-3.67-3.09-7.37-7.55-5.09-12.34C1549.77,695.68,1565.85,714.18,1565.48,721.06Z"/>
            <path class="cls-3" d="M1549.43,796.48l.43.27c5.33,3.47,11.14,12.43,11.4,19.6.36,10.29-20.68-5.63-23-9.64C1531.43,794.67,1540.53,791.15,1549.43,796.48Z"/>
            <path class="cls-3" d="M1548,744.67a16.24,16.24,0,0,1,6.61,3.48c4.23,3.72,14.77,17.74,7.47,23-7.95,5.76-17.58-10.39-21.61-15.66-2.34-3.07-4.82-4.84-1.56-8.88C1541.14,743.89,1545.17,744,1548,744.67Z"/>
            <path class="cls-3" d="M1546.8,669.44c.79,0,2.35.81,4.24,2.12,6.32,4.4,16.29,14.44,13.31,18.82-4,5.9-16.59-2.15-19.66-5.29C1540,680.33,1537.35,669.5,1546.8,669.44Z"/>
          </g>
        </g>
        <g>
          <path class="cls-3" d="M1471.74,713.45c2-1.34,4.46-.42,6.47.2a20.9,20.9,0,0,1,7.69,4,25.52,25.52,0,0,1,6,7.11c1.49,2.92-1.11,5.39-3.53,5.69-4.32.55-9.42-1.46-13.19-3.59a11.25,11.25,0,0,1-4.66-4.57c-1.27-2.51-1.54-6.26.62-8.3A5.23,5.23,0,0,1,1471.74,713.45Z"/>
          <path class="cls-3" d="M1495.26,737a17.6,17.6,0,0,1,7,1c.49.17,4.55,2.1,4.06,2.84a21.11,21.11,0,0,1-10,8.11c-3.29,1.27-9.65,1.91-9.22-4C1487.45,739.38,1491.24,737.33,1495.26,737Z"/>
          <path class="cls-3" d="M1513.76,776.29a22.59,22.59,0,0,1,13.52,8c1.72,2.17.23,5-2,5.79a15.17,15.17,0,0,1-7.33.19c-4.54-.68-10.66-1.52-13-6.69-1-2.15-1.32-5.39.89-6.89S1511.33,775.87,1513.76,776.29Z"/>
          <path class="cls-3" d="M1520.64,825.06c6.36,2.63,11,7.25,15,13.52,1.41,2.24,3.18,5.87-.11,7.69-2.92,1.62-6.84-.34-9.42-1.61-4.26-2.11-9.11-4.52-11.91-9a10.83,10.83,0,0,1-1.36-8.76C1514.14,823,1518.22,824.06,1520.64,825.06Z"/>
          <path class="cls-3" d="M1505.61,753.53c4.47.21,9.9,2.27,13.09,5.94,1.67,1.92.13,4.6-1.79,5.46a14.14,14.14,0,0,1-6.47.9c-4.22-.11-9.9-.21-12.42-4.72-1.07-1.92-1.55-4.82.45-6.4S1503.38,753.41,1505.61,753.53Z"/>
          <path class="cls-3" d="M1521.21,802a20.74,20.74,0,0,1,7.29,5.34c1.38,1.57,4.37,4.4,4.32,6.93-.13,6.34-9.84,2-12.22.95-3.68-1.62-8.78-4-9.54-9.18C1509.87,798,1517.72,800.38,1521.21,802Z"/>
        </g>
        <path class="cls-3" d="M1522.86,854.66a34.82,34.82,0,0,1,10,6.94c2.89,3,6.14,7.09,7.8,11.29,1.48,3.77-2,6-4.85,6-6-.16-12.68-4.23-17.65-7.77a18.84,18.84,0,0,1-6.34-6.92c-1.44-3-2.12-8.61,1-10.85S1520.12,853.31,1522.86,854.66Z"/>
        <path class="cls-3" d="M1512.84,853.31Z"/>
        <g>
          <path class="cls-3" d="M1503.74,717.24Z"/>
          <path class="cls-3" d="M1503.75,717.23c2-2.08,4.43-1.72,6.28.14s2.11,5,1.91,7.72c-.45,6.15-2.79,13.09-6.59,17.64a23.14,23.14,0,0,1-4.18-11.49c-.5-4.22-.57-10.75,2.57-14Z"/>
          <path class="cls-3" d="M1503.75,717.23h0C1504.07,716.9,1504,717,1503.75,717.23Z"/>
          <path class="cls-3" d="M1503.74,717.24h0Z"/>
          <path class="cls-3" d="M1535.94,761a4.16,4.16,0,0,1,.9.2c4,1.25,2.47,7.7,1.65,11.21a25,25,0,0,1-5.26,10.29c-1.34,1.69-3.16,4.59-5.33,3.69-4.22-1.74-1.6-10.79-.63-14.55C1528.4,767.46,1531.25,760.44,1535.94,761Z"/>
          <path class="cls-3" d="M1548.49,817.64c2.34-1,5.9-.78,7.1,2,1.3,3-.55,7-1.85,9.77-3,6.21-7.74,12-13.51,14.49-3,1.29-4.41-2.25-4.06-5.25a28.69,28.69,0,0,1,3.08-9C1541.44,825.14,1544.08,819.51,1548.49,817.64Z"/>
          <path class="cls-3" d="M1524.35,737.3h0Z"/>
          <path class="cls-3" d="M1524.34,737.3Z"/>
          <path class="cls-3" d="M1524.34,737.3h0c4.69-.7,3.85,6.45,3.34,9.94a23.76,23.76,0,0,1-3.45,9.31c-1.11,1.77-2.73,5.14-4.87,4.77-4.29-.74-2.66-9.44-2.09-13C1518,743.7,1519.71,738,1524.34,737.3Z"/>
          <path class="cls-3" d="M1524.34,737.3h0Z"/>
          <path class="cls-3" d="M1542,793.91c1.93-.77,4.91-.81,6.08,1.34,1.28,2.38-.3,5.71-1.41,7.92-2.59,5.14-7,10.17-11.9,12-2,.75-3.57-1.28-3.5-3.59.09-2.8,1.45-5.56,2.68-7.93C1536,799.86,1538.3,795.41,1542,793.91Z"/>
          <path class="cls-3" d="M1556.36,846.21c2.68-1,7-1,8.55,2,1.91,3.62-1,8.69-2.83,11.79a35.54,35.54,0,0,1-7.71,9.64c-2.89,2.44-7,5.6-10.46,6.35s-4.32-4-3.59-7.11a34.27,34.27,0,0,1,4.14-9.37C1547.48,854.32,1551,848.21,1556.36,846.21Z"/>
        </g>
        <path class="cls-3" d="M1539.12,838c2,13.51,2.14,28.15,6.62,40.76,1.24,3.48,6.79,15.67,10.73,14.28,6-2.12,2.82-24,2.68-29-.21-7.51-1.07-15-1.07-22.55,0-45.13,4-90.38,4.09-135.51.07-26.75,2.1-74.94-21-89.49,1-1,.16,1.15.67-.31,23.74,9.68,23.81,57,24.65,81.37,1.54,44.8-1.84,90-2.54,135,0,3.34-.16,6.69-.18,10,0,9.54.13,19,1,28.44.4,4.61.58,18.45,6.86,13.61,5.33-4.1,10-12.54,12.73-19.13,11-26.24,16.79-53,20.67-81.15,8.92-64.45,8.49-145.84,43.89-201.6,20.82-32.8,46.76-36.16,78-38.91-12.58,1.11-26.59,5.39-38.61,10.51a74.84,74.84,0,0,0-28.1,20.44c-15.29,18.07-23.78,43.48-29.32,67.26-6.56,28.1-8.78,57-11.57,85.61-2.87,29.37-6.59,58.93-12.14,88-5.25,27.53-14.16,51.2-29.71,73.26-.92,1.3-5.35,6-5.38,7.5-.08,5.52,5-.87,6.2-2,2.94-2.91,5.78-6,8.49-9.18,68-80.76,113-270,205.34-205.24-2.29-1.12-5-1.56-7.47-2.28-18-5.34-37.41-9.51-55.55.9-16.9,9.7-29.72,28.41-40.86,45.78-13.19,20.57-24.62,42.48-35.44,64.75a602.34,602.34,0,0,1-37,65.65c-8.88,13.68-17.71,27.84-28.63,39-7.08,7.2-8.87,12-4.45,8.82,2.75-2,5.4-4.34,7.85-6,5.55-3.88,10.78-8.35,16-12.82,19.59-16.8,39.32-35,60.53-48.63,15-9.69,35.29-20.94,50.91-9.61-.64.81,1-.29.61.76-19.73-10.05-43,7.27-59.66,20.47-22.28,17.62-42.56,39-65.86,54.76-11.88,8-27.52,17.32-39.57,6.68-5.89-5.19-7.06-11.38-10.22-19-5.5-13.34-8.5-28-10.62-42.77-4.19-29.08-5.29-60.23-17.4-86.19a91,91,0,0,0-33.38-38.31c13.31,7.07,25.68,17.68,34,31.77C1530.39,778.12,1534.87,808.48,1539.12,838Z"/>
      </g>
      <g>
        <g>
          <g>
            <path class="cls-3" d="M1262.3,721.32c7-2.48,12-1.12,13.33,3.4a6.82,6.82,0,0,1-.21,4.61c-1.15,2.79-4.09,5-8.73,6.67a24.65,24.65,0,0,1-10.14.92,47,47,0,0,1-8.38-1.51l-1.51-.45,1-1.34C1247.94,733.23,1254.85,724,1262.3,721.32Z"/>
            <path class="cls-3" d="M1241.05,715.21a6.44,6.44,0,0,1,2.26.13,6,6,0,0,1,4.06,3.15c1.6,3.12.81,6.43-.36,9.16-1.6,3.72-5.69,14.82-10.84,12.22C1229.45,736.47,1234.7,716,1241.05,715.21Z"/>
            <path class="cls-3" d="M1225.15,728c3.52,2.56,3,8.32,2.46,12.35-.46,3.18-4.71,15.25-7.95,15.29-.9,0-1.72-.9-2.37-3.2-1.55-5.55-2-18.66.87-23.54C1219.81,726.06,1222.59,726.11,1225.15,728Z"/>
            <path class="cls-3" d="M1210.29,759.34a62,62,0,0,1,.31,7.75c-.2,4.31-1.32,8.1-5.21,5.46-3.65-2.49-5.06-9.7-6.46-13.88-1.22-3.67-2.24-9.62.73-12.34C1205.52,741,1209.85,754.26,1210.29,759.34Z"/>
            <path class="cls-3" d="M1194.31,775.21a30.54,30.54,0,0,1,7.72,13.91c.17.68.35,1.52.5,2.42,1.38,8.6-3.87,6.74-8.28,3.33s-11-10.64-9.75-17.67C1185.39,772.07,1191.2,772.23,1194.31,775.21Z"/>
            <path class="cls-3" d="M1192.41,803.62l.27.23c3.71,3.26,11.47,12.64,9.08,18-3.94,8.89-22-11.35-21.32-18.09C1181.14,796.41,1189.34,801,1192.41,803.62Z"/>
            <path class="cls-3" d="M1183.52,829.15a3.39,3.39,0,0,1,3-.47c3.33.8,7.54,4.6,9.1,6.71,2.3,3.07,13.2,19.07,3.64,17.2-3-.59-6-3.54-8.52-5.55C1187.73,844.59,1178.26,833.4,1183.52,829.15Z"/>
            <path class="cls-3" d="M1189.14,863.44a17.21,17.21,0,0,1,7.3,2.94c3.68,2.74,13.67,10.54,10.2,17.06-2,3.78-9.54-.37-11.69-2.42-3.36-3.21-7.07-5.21-9.5-9.76C1181.87,864.52,1185.05,862.88,1189.14,863.44Z"/>
            <path class="cls-3" d="M1193.77,896.93a5.78,5.78,0,0,1,2.14.09c3.89.9,6.73,4.55,10,7,2.26,1.67,13,10.26,7.43,14-2.66,1.76-9.38-2.48-11.89-4.05-3.36-2.1-9.1-4.62-11-8.93S1190.64,897.4,1193.77,896.93Z"/>
          </g>
          <g>
            <path class="cls-3" d="M1240.29,737.9c5.09-2.37,16.82-2.07,20.64,3.93a5,5,0,0,1,.77,3.35c-.83,6.47-6,6.77-11.6,4.93C1246.42,748.91,1230.73,742.34,1240.29,737.9Z"/>
            <path class="cls-3" d="M1232.73,749.9c3.46.36,6,1.54,7.4,3.48a6.83,6.83,0,0,1,1.3,4.37c-.51,13.16-24.72,1.87-20.59-4.19C1223,750.4,1229.44,749.62,1232.73,749.9Z"/>
            <path class="cls-3" d="M1210.79,770.71a15.64,15.64,0,0,1,12.27-1.54c.76.27,7.42,2.73,6.68,7.59-.37,2.44-2.41,5.23-10,4.66l-.17,0C1215.3,781,1202.76,775.68,1210.79,770.71Z"/>
            <path class="cls-3" d="M1204.16,793.23a21.17,21.17,0,0,1,12.52-5.6c.93,0,9.09-.21,10.16,5,1.47,7.22-7.8,9.27-11.95,9.56C1210.94,802.49,1196.63,800.4,1204.16,793.23Z"/>
            <path class="cls-3" d="M1220.26,809.87a6.83,6.83,0,0,1,.86,4.53c-.42,2.73-2.35,5.39-5.72,7.9-2.88,2.14-10.5,5.76-14,3.41a3.43,3.43,0,0,1-1.33-1.59c-1-2.58,1.54-6.18,3-8.24C1206.25,811.25,1215.45,801.64,1220.26,809.87Z"/>
            <path class="cls-3" d="M1208.42,838.14c3-4.86,9.61-13.09,14.47-5.4s-11.36,19.35-15.9,20c-7.39,1-2.11-8.71.5-13.08C1207.87,839,1208.2,838.5,1208.42,838.14Z"/>
            <path class="cls-3" d="M1226.4,865.25c2.24,7-6.09,13-10,16-2.38,1.78-9.16,5.58-9.17-.88,0-2,1.38-5.28,3.4-8.53C1213,868,1223.1,855,1226.4,865.25Z"/>
            <path class="cls-3" d="M1235,897.37c1.57,5.54-3.52,10.53-6.66,13.33-2.68,2.39-9.18,8.57-12.86,6.76s-1.89-7.84,1.94-13.36C1223,896.07,1232.66,889.06,1235,897.37Z"/>
          </g>
        </g>
        <g>
          <g>
            <path class="cls-3" d="M1355.06,821.71c8.93,1.85,9.53,6.91,9.37,9-.14,1.8-1.2,5.93-8.07,5.34a19.72,19.72,0,0,1-2.43-.37c-6.59-1.35-13.88-8.79-14.19-9.11l-1.09-1.13,1.28-.67C1340.25,824.6,1348.47,820.31,1355.06,821.71Z"/>
            <path class="cls-3" d="M1332.94,810.79c2.63-4.43,6.48-7.84,10.16-4.84,2.82,2.31,1,8.33.35,11.26-1.62,8-15.1,14.93-13.73,2.26A24.18,24.18,0,0,1,1332.94,810.79Z"/>
            <path class="cls-3" d="M1320.32,806.08c7.65-2.4,4.26,12.47,2.47,15.64-2.12,3.73-10.33,12.44-12.61,4.66-.73-2.48,1.32-8,3.91-12.69C1316.21,809.85,1318.71,806.6,1320.32,806.08Z"/>
            <path class="cls-3" d="M1299.94,813c2.13.15,4.16,2.48,4.81,7.5s-.41,12.74-3.45,16.28C1295.46,843.58,1290.24,812.31,1299.94,813Z"/>
            <path class="cls-3" d="M1279.74,827c5.28,1.07,7.28,11.5,7.85,16.62.44,4,0,16.48-5.77,11.08-1.55-1.45-2.91-4.45-4.12-7.53-1-2.71-2-5.48-2.75-7.33C1272.94,835.15,1273.52,825.71,1279.74,827Z"/>
            <path class="cls-3" d="M1273.55,852.73c3.12,3.71,5.6,11.52,6.12,16.53,1.17,11-6.26,5.58-9.38-1.26-2.44-5.31-4.08-11.69-3.4-14.07C1268.4,848.69,1270.58,849.18,1273.55,852.73Z"/>
            <path class="cls-3" d="M1258.88,871.21c7.41-3.65,10.92,12.63,11.72,18.08,1,6.52,0,12.36-5.92,6.13a25.08,25.08,0,0,1-2.65-3.6C1258.05,885.52,1253,874.13,1258.88,871.21Z"/>
            <path class="cls-3" d="M1260.45,906.83c1.42,2.79,6.29,18,2.42,19.43-2.55,1-5.38-1.51-7.74-5.28-3.92-6.26-6.54-16.13-4.38-19.85C1254.42,894.77,1258.37,902.76,1260.45,906.83Z"/>
          </g>
          <g>
            <path class="cls-3" d="M1330.31,825.74c2.62-2.51,11.44,3.91,13.49,5.61,5.85,4.86,5.38,14.45-3,10.89-3-1.3-13.22-12.18-10.79-16.12A1.68,1.68,0,0,1,1330.31,825.74Z"/>
            <path class="cls-3" d="M1331.1,838.34c5.16,6.7-.48,7.57-5.4,6.22-5.52-1.53-14.33-5.69-11.94-14.28C1316,822.2,1328.88,835.45,1331.1,838.34Z"/>
            <path class="cls-3" d="M1300.14,837.65c3.89-2,18.36,7.46,14.49,12.68s-18.2-2.45-16.77-9.93A3.92,3.92,0,0,1,1300.14,837.65Z"/>
            <path class="cls-3" d="M1288.74,852.69c4.25-1.2,18.2,1.37,18.41,9.08.27,10.61-20,1.53-22.07-4.65C1284.47,855.31,1285.29,853.66,1288.74,852.69Z"/>
            <path class="cls-3" d="M1288.24,868c5.86-.77,11.88,3.81,7,10.53-1.15,1.62-4.25,2.6-7.51,2.76-5.35.25-11.15-1.72-9.71-6.82C1279.16,870.54,1285.17,868.4,1288.24,868Z"/>
            <path class="cls-3" d="M1284.61,888.88c4,0,7.84,1.52,6.56,7.26-1.07,4.77-9.61,7.1-15.32,5.86C1263.3,899.28,1279.13,888.82,1284.61,888.88Z"/>
          </g>
        </g>
        <g>
          <g>
            <path class="cls-3" d="M1147.76,838.45c3.06.76,3.84,4.53,3.68,7.55-.16,3.23-3.33,18.09-8,14.93-3.47-2.33-2.26-18.37,1.81-21.81A2.79,2.79,0,0,1,1147.76,838.45Z"/>
            <path class="cls-3" d="M1168.29,907.48c1.25-5.69,3-12.16,5.89-16.94,3.06-5,7.57-5.42,8.53,1.5,1.29,9.38-2.23,18.81-7.63,25.2-4.22,5-8.34,6.62-7.76-2.65A52.64,52.64,0,0,1,1168.29,907.48Z"/>
            <path class="cls-3" d="M1158.2,863.16c2.83-5.57,6.46-3.33,8.52,2.13,2.62,7,.58,14.84-1.58,21.24-1.73,5.14-4.83,13.61-7.85,4-1.67-5.36-2.21-14.14-1-21A22.64,22.64,0,0,1,1158.2,863.16Z"/>
          </g>
          <g>
            <path class="cls-3" d="M1113.14,836c3.63-.82,7.9.2,11.29,2.12,4.29,2.45,6.21,6.61.65,8-3.91,1-8.92-.87-12.26-3.61a6.17,6.17,0,0,1-2.5-3.81C1110.23,837.55,1111,836.51,1113.14,836Z"/>
            <path class="cls-3" d="M1134.52,855.94c5.39-.23,10.79,1.44,10.73,5.84-.07,6.47-11.75,5.54-15.13,5.28-2.8-.2-7.1-1-6.37-5.52C1124.56,856.54,1131.21,856.08,1134.52,855.94Z"/>
            <path class="cls-3" d="M1139.77,884.33c.66-.22,2.19,0,4.13.65,6.49,2,17.57,7.8,16.23,12.28-1.81,6-14.53,2.62-18,.8C1137,895.3,1131.82,886.9,1139.77,884.33Z"/>
          </g>
        </g>
        <path class="cls-3" d="M1178.32,1028.21c5.25,10.84,9.32,23.12,16.46,32.53,2,2.61,9.9,11.38,12.84,9.16,4.47-3.38-4-21-5.48-25.09-2.18-6.26-4.91-12.35-6.92-18.69-12-38-20.8-77.13-32.76-115.14-7.08-22.54-18.25-63.64-41.57-69.72.58-1.11.43.93.47-.44,22.57,1.81,35.26,41.59,42.49,61.9,13.26,37.3,22.5,76.25,33.91,114.26.85,2.83,1.65,5.68,2.53,8.5,2.5,8,5.19,16,8.4,23.69,1.58,3.77,5.42,15.37,9.41,9.62,3.39-4.88,5-13.21,5.61-19.5,2.27-25,0-49.12-4.28-73.83-9.71-56.62-31.82-125-16.92-181.4,8.77-33.17,29.7-42.92,55.26-53.59-10.29,4.3-20.94,11.64-29.69,19.16a66.06,66.06,0,0,0-18.19,24.72c-8,19.29-8.4,42.94-6.71,64.43,2,25.41,7.84,50.32,13.13,75.15,5.43,25.48,10.2,51.37,13.29,77.31,2.93,24.57,1.76,46.88-5.43,69.6-.43,1.34-2.91,6.46-2.53,7.75,1.4,4.67,4-2.09,4.68-3.35,1.71-3.22,3.28-6.56,4.7-10,35.62-86.12,23-257.42,118-227.6a44.16,44.16,0,0,0-6.9.08c-16.57.32-34,2-46.51,15.6-11.63,12.68-17.42,31.85-22.16,49.45-5.61,20.83-9.38,42.32-12.53,64a532.54,532.54,0,0,1-13.62,65.15c-3.81,13.88-7.47,28.16-13.69,40.43-4,8-4.25,12.49-1.39,8.62,1.79-2.41,3.39-5.1,5-7.19,3.64-4.75,6.85-9.91,10-15.07,12-19.37,23.75-39.93,38-57.1,10.07-12.18,24.1-27.05,40.28-21.69-.32.86.75-.51.71.48-19.29-3.19-34.24,17.61-44.75,33.16-14,20.79-25.38,44.23-40.79,63.69-7.86,9.93-18.54,21.93-31.53,16.2-6.34-2.8-9-7.7-13.68-13.3-8.2-9.75-14.63-21.29-20.37-33.16-11.29-23.35-20.54-49.28-37.67-67.89a80.34,80.34,0,0,0-38.33-23.32c13.1,2.39,26.34,8,37.12,17.65C1155,980.18,1166.87,1004.54,1178.32,1028.21Z"/>
      </g>
      <g>
        <g>
          <g>
            <path class="cls-3" d="M1412.68,678.1c5.72-2,9.72-.91,10.82,2.75a5.55,5.55,0,0,1-.17,3.75c-.93,2.26-3.32,4.08-7.08,5.41a20,20,0,0,1-8.24.74,38,38,0,0,1-6.8-1.22l-1.23-.37.81-1.08C1401,687.76,1406.63,680.23,1412.68,678.1Z"/>
            <path class="cls-3" d="M1395.43,673.14a5,5,0,0,1,1.84.1,4.84,4.84,0,0,1,3.29,2.56c1.3,2.53.66,5.21-.29,7.43-1.3,3-4.62,12-8.8,9.92C1386,690.4,1390.28,673.8,1395.43,673.14Z"/>
            <path class="cls-3" d="M1382.52,683.49c2.86,2.08,2.48,6.76,2,10-.37,2.59-3.82,12.39-6.45,12.42-.73,0-1.4-.74-1.92-2.6-1.26-4.51-1.62-15.14.7-19.11C1378.19,681.94,1380.45,682,1382.52,683.49Z"/>
            <path class="cls-3" d="M1370.46,709a48.44,48.44,0,0,1,.25,6.29c-.16,3.5-1.07,6.57-4.23,4.42-3-2-4.1-7.86-5.24-11.26-1-3-1.82-7.81.59-10C1366.59,694,1370.1,704.84,1370.46,709Z"/>
            <path class="cls-3" d="M1357.49,721.84a24.77,24.77,0,0,1,6.27,11.29c.13.55.28,1.23.4,2,1.13,7-3.13,5.48-6.71,2.71s-8.92-8.64-7.92-14.34C1350.25,719.29,1355,719.42,1357.49,721.84Z"/>
            <path class="cls-3" d="M1356,744.9l.22.18c3,2.65,9.31,10.27,7.37,14.65-3.2,7.21-17.84-9.22-17.31-14.68C1346.8,739.05,1353.46,742.8,1356,744.9Z"/>
            <path class="cls-3" d="M1365.21,868.89c6.24,1.34,16.76,14.67,17.62,18.79,1.63,7.74-8.09,2.77-10.68,1.2-4.66-2.84-13.11-9.22-11.15-17C1361.68,869.24,1363.23,868.46,1365.21,868.89Z"/>
            <path class="cls-3" d="M1348.74,765.62a2.71,2.71,0,0,1,2.43-.38c2.71.65,6.12,3.74,7.39,5.44,1.87,2.5,10.72,15.49,3,14-2.44-.48-4.9-2.87-6.92-4.51C1352.15,778.15,1344.46,769.07,1348.74,765.62Z"/>
            <path class="cls-3" d="M1353.29,793.46a13.92,13.92,0,0,1,5.93,2.38c3,2.23,11.09,8.56,8.28,13.85-1.64,3.07-7.74-.3-9.49-2-2.73-2.6-5.74-4.22-7.71-7.92C1347.4,794.33,1350,793,1353.29,793.46Z"/>
            <path class="cls-3" d="M1357.06,820.64a4.45,4.45,0,0,1,1.73.08c3.15.72,5.47,3.69,8.13,5.65,1.83,1.36,10.56,8.33,6,11.33-2.16,1.43-7.62-2-9.66-3.28-2.72-1.71-7.39-3.76-8.88-7.25S1354.52,821,1357.06,820.64Z"/>
            <path class="cls-3" d="M1356.4,846.48a5,5,0,0,1,2.49-.72c5.41-.21,12.52,6.71,16.06,9.94,1.62,1.48,4.61,3.85,3.79,6.69-1.57,5.4-8.15,1.86-11.17.22C1364.83,861.12,1348,851.49,1356.4,846.48Z"/>
          </g>
          <g>
            <path class="cls-3" d="M1394.82,691.55c4.12-1.92,13.65-1.68,16.75,3.19a4.11,4.11,0,0,1,.62,2.72c-.67,5.25-4.84,5.5-9.41,4C1399.79,700.49,1387.06,695.16,1394.82,691.55Z"/>
            <path class="cls-3" d="M1388.68,701.3c2.81.29,4.83,1.24,6,2.82a5.53,5.53,0,0,1,1.06,3.55c-.41,10.68-20.06,1.51-16.71-3.4C1380.78,701.7,1386,701.07,1388.68,701.3Z"/>
            <path class="cls-3" d="M1370.87,718.18a12.72,12.72,0,0,1,10-1.24c.62.22,6,2.21,5.42,6.15-.3,2-2,4.25-8.1,3.79l-.14,0C1374.53,726.57,1364.35,722.22,1370.87,718.18Z"/>
            <path class="cls-3" d="M1365.49,736.46a17.17,17.17,0,0,1,10.16-4.54c.75,0,7.37-.17,8.24,4.08,1.2,5.86-6.33,7.52-9.7,7.75C1371,744,1359.37,742.28,1365.49,736.46Z"/>
            <path class="cls-3" d="M1378.56,750a5.55,5.55,0,0,1,.69,3.68c-.34,2.22-1.9,4.37-4.64,6.41-2.34,1.74-8.52,4.68-11.33,2.77a2.78,2.78,0,0,1-1.08-1.29c-.84-2.1,1.25-5,2.4-6.69C1367.18,751.09,1374.65,743.29,1378.56,750Z"/>
            <path class="cls-3" d="M1398.78,871.2a6.91,6.91,0,0,1,2.8.9,4,4,0,0,1,2.07,2.82c1.06,5.59-2.82,9.73-6.35,12.3-2.28,1.66-14.49,10.41-14.66,2.33-.07-3.12,1.54-6.83,3.9-10.09C1390,874.7,1395,870.88,1398.78,871.2Z"/>
            <path class="cls-3" d="M1368.94,772.92c2.43-3.95,7.8-10.63,11.75-4.38s-9.22,15.71-12.91,16.23c-6,.84-1.71-7.08.41-10.62C1368.5,773.63,1368.76,773.21,1368.94,772.92Z"/>
            <path class="cls-3" d="M1383.54,794.92c1.82,5.65-5,10.59-8.15,13-1.93,1.44-7.43,4.53-7.44-.71,0-1.65,1.12-4.29,2.76-6.92C1372.68,797.13,1380.86,786.61,1383.54,794.92Z"/>
            <path class="cls-3" d="M1390.53,821c1.27,4.49-2.86,8.55-5.41,10.82-2.18,1.93-7.45,6.95-10.43,5.49s-1.54-6.37,1.56-10.85C1380.77,819.94,1388.62,814.25,1390.53,821Z"/>
            <path class="cls-3" d="M1383,848.29c2.23-3.85,5.61-7.37,9.9-7a8.86,8.86,0,0,1,1.49.28,3.57,3.57,0,0,1,2.55,2.3c2.25,6.65-5.27,14-9.2,16.66-1.91,1.3-5.69,4.46-8.07,2.91-3.89-2.56-.07-9.41,1.43-12C1381.83,850.26,1382.51,849.18,1383,848.29Z"/>
          </g>
        </g>
        <g>
          <g>
            <path class="cls-3" d="M1488,759.58c7.25,1.51,7.74,5.61,7.61,7.31-.11,1.46-1,4.81-6.55,4.33a15.24,15.24,0,0,1-2-.3c-5.35-1.1-11.27-7.13-11.52-7.39l-.89-.92,1-.54C1476,761.93,1482.63,758.45,1488,759.58Z"/>
            <path class="cls-3" d="M1470,750.72c2.13-3.6,5.26-6.37,8.25-3.93,2.29,1.88.77,6.76.28,9.14-1.32,6.48-12.25,12.12-11.15,1.83A19.72,19.72,0,0,1,1470,750.72Z"/>
            <path class="cls-3" d="M1459.77,746.9c6.22-1.95,3.46,10.12,2,12.69-1.72,3-8.39,10.1-10.24,3.78-.59-2,1.07-6.5,3.18-10.3C1456.44,750,1458.46,747.32,1459.77,746.9Z"/>
            <path class="cls-3" d="M1443.23,752.51c1.73.11,3.38,2,3.91,6.08s-.33,10.35-2.8,13.22C1439.6,777.34,1435.36,752,1443.23,752.51Z"/>
            <path class="cls-3" d="M1426.84,763.86c4.28.87,5.9,9.34,6.37,13.5.36,3.22,0,13.37-4.69,9-1.25-1.18-2.36-3.61-3.34-6.12-.85-2.2-1.6-4.45-2.23-5.94C1421.32,770.49,1421.78,762.83,1426.84,763.86Z"/>
            <path class="cls-3" d="M1421.81,784.76c2.54,3,4.54,9.35,5,13.42,1,8.9-5.08,4.53-7.62-1-2-4.31-3.31-9.49-2.75-11.42C1417.63,781.49,1419.4,781.88,1421.81,784.76Z"/>
            <path class="cls-3" d="M1389.82,892.07c.71-.44,1.77-.3,3.3.68,4.41,2.81,9.62,19,6.79,23.82C1394,926.69,1384.48,895.36,1389.82,892.07Z"/>
            <path class="cls-3" d="M1409.91,799.77c6-3,8.85,10.25,9.5,14.67.79,5.29,0,10-4.8,5a21.51,21.51,0,0,1-2.15-2.93C1409.23,811.38,1405.12,802.13,1409.91,799.77Z"/>
            <path class="cls-3" d="M1411.18,828.68c1.15,2.26,5.1,14.59,2,15.77-2.07.78-4.37-1.22-6.28-4.29-3.18-5.08-5.31-13.09-3.56-16.11C1406.28,818.88,1409.49,825.37,1411.18,828.68Z"/>
            <path class="cls-3" d="M1402.34,848.34c3.28,1.43,7.51,9.24,8.61,13,1.7,5.84-1.47,7.26-5.51,4.52a17.69,17.69,0,0,1-2.68-2.36C1399.81,860.38,1393.38,844.43,1402.34,848.34Z"/>
            <path class="cls-3" d="M1398.33,872.64c3.92,3.44,7.72,9.77,7.83,15.66.17,8.65-6.51,2.66-9.24-1,0,0-.29-.41-.3-.41-2.45-3.33-6.33-8.82-6.34-13.49C1390.28,866.45,1395.46,870.13,1398.33,872.64Z"/>
          </g>
          <g>
            <path class="cls-3" d="M1467.89,762.85c2.12-2,9.28,3.18,10.95,4.56,4.74,3.94,4.36,11.73-2.44,8.84-2.48-1.06-10.73-9.89-8.76-13.09A1.54,1.54,0,0,1,1467.89,762.85Z"/>
            <path class="cls-3" d="M1468.53,773.08c4.19,5.44-.4,6.15-4.38,5-4.49-1.24-11.64-4.62-9.7-11.59C1456.27,760,1466.73,770.74,1468.53,773.08Z"/>
            <path class="cls-3" d="M1443.39,772.52c3.16-1.63,14.91,6.06,11.76,10.3s-14.77-2-13.6-8.07A3.21,3.21,0,0,1,1443.39,772.52Z"/>
            <path class="cls-3" d="M1434.14,784.73c3.45-1,14.78,1.12,14.94,7.37.22,8.62-16.22,1.24-17.91-3.77C1430.67,786.86,1431.34,785.52,1434.14,784.73Z"/>
            <path class="cls-3" d="M1433.73,797.16c4.76-.63,9.64,3.09,5.72,8.55-1,1.31-3.46,2.11-6.11,2.24-4.34.2-9-1.4-7.88-5.54C1426.36,799.22,1431.24,797.48,1433.73,797.16Z"/>
            <path class="cls-3" d="M1430.79,814.11c3.26,0,6.36,1.23,5.32,5.89-.87,3.87-7.8,5.76-12.43,4.76C1413.49,822.55,1426.34,814.06,1430.79,814.11Z"/>
            <path class="cls-3" d="M1429.24,836.57c3.38,3.6.63,7.07-3.45,9.07-4.24,2.08-9.91,2.57-11.54-.06a3.3,3.3,0,0,1-.36-2.71C1415.15,838.4,1426,833.07,1429.24,836.57Z"/>
            <path class="cls-3" d="M1426.21,860.9c2.39,3.27.3,6.38-3.06,8.41-4.23,2.55-10.48,3.37-12.24.57C1407.38,864.29,1422.18,855.41,1426.21,860.9Z"/>
            <path class="cls-3" d="M1424.73,882.38a4.06,4.06,0,0,1,1.28,3.09c-.31,6-8.86,8.82-14.68,8.47-3.27-.19-5.69-1.39-5.3-3.56C1407.33,883.14,1419.71,877.23,1424.73,882.38Z"/>
          </g>
        </g>
        <g>
          <g>
            <path class="cls-3" d="M1319.7,773.17c2.49.61,3.12,3.68,3,6.13-.13,2.62-2.7,14.68-6.51,12.12-2.81-1.89-1.83-14.91,1.47-17.7A2.26,2.26,0,0,1,1319.7,773.17Z"/>
            <path class="cls-3" d="M1336.37,829.2c1-4.62,2.42-9.87,4.78-13.74,2.49-4.07,6.14-4.41,6.92,1.21a26.86,26.86,0,0,1-6.19,20.46c-3.43,4-6.77,5.37-6.3-2.16A42.47,42.47,0,0,1,1336.37,829.2Z"/>
            <path class="cls-3" d="M1359.65,895.46c.73-3.68,2.41-7.45,5.24-9.31,2.59-1.7,5.74-1.53,6.57,2.48,1.6,7.7-6.54,17.81-11.78,20.73-4.49,2.49-3.7-2.26-2.29-6.94C1358.3,899.42,1359.46,896.46,1359.65,895.46Z"/>
            <path class="cls-3" d="M1353.63,852.35c3.22.33,3.07,4.67,2.7,7.14a32.75,32.75,0,0,1-3.63,10.79c-.79,1.37-3.58,6.3-5.25,6.21-4.2-.22-2.71-12.67.92-19.61C1349.85,854.06,1351.68,852.15,1353.63,852.35Z"/>
            <path class="cls-3" d="M1328.18,793.23c2.3-4.52,5.25-2.71,6.92,1.73,2.12,5.64.47,12-1.28,17.24-1.41,4.17-3.93,11-6.38,3.23a41.2,41.2,0,0,1-.83-17A18.61,18.61,0,0,1,1328.18,793.23Z"/>
          </g>
          <g>
            <path class="cls-3" d="M1291.6,771.2a13.51,13.51,0,0,1,9.17,1.73c3.48,2,5,5.37.53,6.52-3.18.81-7.25-.71-10-2.94a5,5,0,0,1-2-3.09C1289.24,772.44,1289.87,771.59,1291.6,771.2Z"/>
            <path class="cls-3" d="M1309,787.37c4.37-.19,8.76,1.17,8.71,4.74-.06,5.25-9.54,4.49-12.29,4.29-2.27-.17-5.76-.85-5.17-4.48C1300.87,787.85,1306.27,787.48,1309,787.37Z"/>
            <path class="cls-3" d="M1337.17,841.63c1.21,4.65-5.5,3.29-7.56,2.68-.91-.28-2.24-.68-3.62-1.25-3.18-1.32-6.67-3.57-6.15-7.34C1320.94,827.69,1335.93,836.84,1337.17,841.63Z"/>
            <path class="cls-3" d="M1342.56,896.64l.36.08c4.39,1.22,10.3,6.08,12,10.93,2.48,7-15.35.63-17.78-1.61C1329.87,899.3,1335.32,894.92,1342.56,896.64Z"/>
            <path class="cls-3" d="M1330.37,861.54a11.58,11.58,0,0,1,5.28.94c3.69,1.63,13.94,8.92,10.09,14.11-4.18,5.66-14.26-3.29-18.16-6-2.27-1.6-4.34-2.26-3-5.73C1325.49,862.5,1328.26,861.67,1330.37,861.54Z"/>
            <path class="cls-3" d="M1313.22,810.41a7.5,7.5,0,0,1,3.36.53c5.26,1.63,14.25,6.33,13.17,10-1.47,4.9-11.8,2.13-14.59.65C1311,819.31,1306.77,812.5,1313.22,810.41Z"/>
          </g>
        </g>
        <g>
          <path class="cls-3" d="M1446.43,867.78c2.36,2.16,4.38,6.58,3.67,10-.34,1.65-2.57,9.79-4.77,5.81-1.91-3.47-4.78-8-4.21-12.33l.06-.38C1441.74,867.75,1443.69,865.27,1446.43,867.78Z"/>
          <path class="cls-3" d="M1441.18,870.92a1.89,1.89,0,0,0,0,.23C1441.41,869.38,1441.31,870.05,1441.18,870.92Z"/>
          <path class="cls-3" d="M1441.13,871.15c0,.05,0,.1,0,.15C1441,872.2,1440.86,873,1441.13,871.15Z"/>
          <path class="cls-3" d="M1441.18,870.92l-.06.38s0-.1,0-.15A1.89,1.89,0,0,1,1441.18,870.92Z"/>
          <path class="cls-3" d="M1458.37,885.65a11,11,0,0,1,4.57,3.74c1.11,1.71,1.38,4.34-.47,4.85s-3.92-.4-5.63-1.23a32.61,32.61,0,0,1-5.14-3.2c-1.85-1.35-3.65-2.86-5.44-4.44l1.32-.52A13.05,13.05,0,0,1,1458.37,885.65Z"/>
          <path class="cls-3" d="M1420.92,888.61c3.94-1.17,5.36,9.55,5.6,12a30.14,30.14,0,0,1-.29,7.24,4.09,4.09,0,0,1-.75,2.29c-.79.75-2-.24-2.58-1-2-2.83-4.12-6.62-4.69-10S1417.15,889.72,1420.92,888.61Z"/>
          <path class="cls-3" d="M1433.73,876.59c3.68-1.54,4.27,4.87,4.51,7.67a21.71,21.71,0,0,1-1.07,8.7c-.52,1.56-1.1,4.6-2.8,4.77-3.67.39-4-7.74-4.17-10.6C1429.93,883.19,1430.12,878.1,1433.73,876.59Z"/>
          <path class="cls-3" d="M1435.82,895.57c.07-.07.06-.07,0,0Z"/>
          <path class="cls-3" d="M1444.39,895c3,.43,7.06,2,7.47,6.23.44,4.47-5.95,3.55-8.26,3-1.9-.42-12-4.74-8.17-8.38C1437.61,893.86,1441.69,894.65,1444.39,895Z"/>
          <path class="cls-3" d="M1435.82,895.57l-.39.36C1435,896.32,1435.61,895.76,1435.82,895.57Z"/>
          <path class="cls-3" d="M1455.66,879.16h0C1456,877.6,1455.74,878.78,1455.66,879.16Z"/>
          <path class="cls-3" d="M1455.65,879.16h0C1455.63,879.28,1455.62,879.31,1455.65,879.16Z"/>
          <path class="cls-3" d="M1455.66,879.16c.73-3.31,4.83-5.15,7.36-5.66a8.46,8.46,0,0,1,5.18.37c1.38.62,3.23,2.19,3,4.17-.3,3.06-4.92,4.26-7,4.67-1.83.35-9.52.83-8.57-3.54Z"/>
          <polygon class="cls-3" points="1455.65 879.16 1455.66 879.16 1455.65 879.17 1455.65 879.16"/>
        </g>
        <g>
          <path class="cls-3" d="M1271.48,856.75c1.11-1.36,3-1.25,4.46-1.26a14.86,14.86,0,0,1,6.11,1,18.29,18.29,0,0,1,5.62,3.56c1.65,1.67.41,3.92-1.18,4.65-2.83,1.32-6.75,1-9.79.41a8.08,8.08,0,0,1-4.17-2.11c-1.42-1.44-2.42-3.94-1.38-5.81A2.56,2.56,0,0,1,1271.48,856.75Z"/>
          <path class="cls-3" d="M1292.66,867.74a12.27,12.27,0,0,1,5-.87c.37,0,3.56.45,3.39,1.06a15.18,15.18,0,0,1-5.11,7.72c-2,1.58-6.17,3.4-7.16-.74C1287.83,871.06,1290,868.84,1292.66,867.74Z"/>
          <path class="cls-3" d="M1313.81,890.57a16.24,16.24,0,0,1,11,2.55,2.71,2.71,0,0,1-.14,4.4,10.92,10.92,0,0,1-5,1.72c-3.24.52-7.61,1.28-10.35-1.75-1.14-1.25-2.07-3.39-.88-4.9S1312.06,890.81,1313.81,890.57Z"/>
          <path class="cls-3" d="M1303.31,876.79a13.92,13.92,0,0,1,10.23,1.22c1.56,1,1.09,3.11,0,4.12a10.19,10.19,0,0,1-4.22,2c-2.91.83-6.81,2-9.51-.53-1.15-1.08-2.1-3-1.08-4.47S1301.76,877.19,1303.31,876.79Z"/>
        </g>
        <g>
          <path class="cls-3" d="M1294.16,852.4h0C1294,852.75,1293.69,853.34,1294.16,852.4Z"/>
          <path class="cls-3" d="M1294.16,852.4a2.93,2.93,0,0,1,4.33-1.27c1.64.85,2.52,2.94,3,4.86a23.46,23.46,0,0,1-.68,13.48,16.61,16.61,0,0,1-5.35-6.94c-1.26-2.78-2.72-7.23-1.28-10.12Z"/>
          <path class="cls-3" d="M1294.16,852.4Z"/>
          <path class="cls-3" d="M1294.16,852.4Z"/>
          <path class="cls-3" d="M1325.65,875.33a2.84,2.84,0,0,1,.66-.07c3,0,3.35,4.73,3.56,7.31a17.92,17.92,0,0,1-1.36,8.16c-.55,1.46-1.17,3.83-2.84,3.68-3.26-.27-3.44-7-3.59-9.8C1321.9,881.36,1322.33,876,1325.65,875.33Z"/>
          <path class="cls-3" d="M1312.59,861.64Z"/>
          <path class="cls-3" d="M1312.59,861.64Z"/>
          <path class="cls-3" d="M1312.59,861.64h0c3.05-1.5,4,3.57,4.44,6.06a17,17,0,0,1-.34,7.11c-.37,1.46-.75,4.11-2.29,4.32-3.1.42-3.87-5.87-4.25-8.42C1309.65,867.38,1309.57,863.12,1312.59,861.64Z"/>
          <polygon class="cls-3" points="1312.59 861.64 1312.59 861.64 1312.59 861.64 1312.59 861.64"/>
          <path class="cls-3" d="M1337,896.48c1.15-1,3.17-1.62,4.44-.4s1,4,.75,5.71c-.65,4.08-2.55,8.46-5.53,10.78-1.23,1-2.71-.1-3.16-1.7a13.75,13.75,0,0,1,.11-6C1334.09,901.86,1334.72,898.32,1337,896.48Z"/>
        </g>
        <path class="cls-3" d="M1344.51,927.2c4.26,8.81,7.57,18.77,13.36,26.41,1.6,2.11,8,9.24,10.42,7.43,3.64-2.74-3.27-17-4.44-20.36-1.77-5.08-4-10-5.62-15.17-9.77-30.84-16.88-62.61-26.59-93.47-5.75-18.29-14.81-51.65-33.75-56.59.47-.9.36.75.39-.35,18.32,1.46,28.62,33.76,34.48,50.24,10.77,30.28,18.27,61.89,27.53,92.75.69,2.3,1.34,4.61,2,6.9,2,6.53,4.22,13,6.83,19.22,1.27,3.07,4.4,12.49,7.64,7.82,2.74-4,4.08-10.73,4.55-15.84,1.84-20.32,0-39.87-3.48-59.92-7.88-46-25.82-101.48-13.73-147.25,7.11-26.93,24.11-34.84,44.85-43.5-8.35,3.49-17,9.45-24.09,15.56a53.51,53.51,0,0,0-14.77,20.06c-6.53,15.66-6.82,34.86-5.45,52.3,1.61,20.63,6.36,40.85,10.66,61,4.41,20.69,8.28,41.69,10.79,62.76,2.38,19.94,1.42,38-4.42,56.49-.34,1.09-2.35,5.24-2,6.29,1.14,3.79,3.26-1.69,3.8-2.71q2.07-3.94,3.81-8.11c28.92-69.92,18.68-209,95.78-184.75a34.92,34.92,0,0,0-5.6.06c-13.45.26-27.62,1.62-37.75,12.66-9.44,10.3-14.15,25.86-18,40.14-4.55,16.91-7.61,34.36-10.17,51.92a434,434,0,0,1-11,52.88c-3.1,11.27-6.07,22.86-11.12,32.82-3.27,6.46-3.45,10.14-1.12,7,1.45-2,2.74-4.14,4-5.84,3-3.85,5.55-8,8.15-12.23,9.74-15.73,19.28-32.41,30.81-46.35,8.18-9.88,19.57-22,32.7-17.61-.26.7.61-.41.58.4-15.66-2.6-27.8,14.28-36.33,26.91-11.39,16.88-20.6,35.9-33.11,51.7-6.38,8.06-15,17.8-25.59,13.15-5.14-2.27-7.29-6.25-11.11-10.8-6.65-7.91-11.87-17.28-16.53-26.91-9.16-19-16.67-40-30.58-55.11a65.21,65.21,0,0,0-31.11-18.93,61.76,61.76,0,0,1,30.13,14.32C1325.57,888.22,1335.22,908,1344.51,927.2Z"/>
      </g>
    </g>
  </g>
</svg>
