<svg xmlns="http://www.w3.org/2000/svg" width="250" height="248" viewBox="0 0 250 248">
  <defs>
    <style>
      .cls-1 {
        isolation: isolate;
      }

      .cls-2 {
        fill: #b73e7b;
      }

      .cls-2, .cls-4 {
        stroke: #561d1d;
      }

      .cls-3 {
        fill: #e585b3;
      }

      .cls-3, .cls-5 {
        stroke: #ffe6e6;
      }

      .cls-10, .cls-3, .cls-5 {
        stroke-width: 0.75px;
      }

      .cls-4 {
        fill: #e4609c;
      }

      .cls-5 {
        fill: #f38fbb;
      }

      .cls-6 {
        fill: #231f20;
      }

      .cls-12, .cls-7, .cls-8 {
        fill: #3b2314;
      }

      .cls-7 {
        stroke: #210f00;
      }

      .cls-10, .cls-11, .cls-13, .cls-7 {
        stroke-miterlimit: 10;
      }

      .cls-16, .cls-7 {
        stroke-width: 0.5px;
      }

      .cls-9 {
        fill: #5d3c2a;
      }

      .cls-10 {
        fill: #895b46;
        stroke: #231f20;
      }

      .cls-10, .cls-13 {
        opacity: 0.3;
      }

      .cls-11 {
        fill: #ffe743;
        stroke: #705b01;
      }

      .cls-12 {
        opacity: 0.24;
      }

      .cls-13 {
        fill: #e0aa24;
        stroke: #eac71c;
        stroke-width: 0.25px;
      }

      .cls-14 {
        fill: #754c28;
      }

      .cls-15 {
        fill: #fbf5b0;
        stroke-width: 0.25px;
      }

      .cls-15, .cls-16 {
        stroke: #832f0a;
        stroke-linecap: round;
        stroke-linejoin: round;
      }

      .cls-16 {
        fill: #fefdeb;
      }

      .cls-17 {
        mix-blend-mode: multiply;
      }

      .cls-18 {
        fill: #f2efda;
      }

      .cls-19 {
        fill: #381b0d;
      }

      .cls-20 {
        fill: #fff;
      }

      .cls-21 {
        fill: #4c4218;
      }
    </style>
  </defs>
  <g class="cls-1">
    <g id="Layer_1" data-name="Layer 1">
      <g id="Bee_04">
        <g id="Bee_lift_wings__01" data-name="Bee lift wings _01">
          <g>
            <path class="cls-2" d="M121.39,92.61s-8.47-15-22-14.75S86.6,96.75,91.1,103.28,108.16,128.71,131,138,126.11,111.17,121.39,92.61Z"/>
            <path class="cls-3" d="M121,93.7S113.16,79.82,100.62,80s-11.84,17.5-7.68,23.55,15.81,23.56,37,32.18S125.38,110.9,121,93.7Z"/>
          </g>
          <g>
            <path class="cls-2" d="M163,138.78s-14.32,6.61-24.48-3.75S113.22,90.2,116.08,67.55c2.5-19.84,15.19-28.68,24.45-24.67,10.79,4.69,10.18,27.31,10.37,40.85C151.24,109,163,138.78,163,138.78Z"/>
            <path class="cls-3" d="M159.94,133.27s-12.95,5.83-22.22-3.51-23.23-40.28-20.78-60.55c2.15-17.74,13.6-25.58,22-21.93,9.82,4.26,9.4,24.5,9.65,36.63C149.07,106.5,159.94,133.27,159.94,133.27Z"/>
          </g>
        </g>
        <g id="Bee_right_Bee_wings_01" data-name="Bee right Bee wings_01">
          <g>
            <path class="cls-4" d="M72.06,120.23s-17-8.27-29.06.35.19,25,8.31,28.13S82.54,161.09,109,155.3,87.86,134.08,72.06,120.23Z"/>
            <path class="cls-5" d="M72.39,121.46s-15.71-7.67-26.92.32.17,23.18,7.7,26.06,28.94,11.47,53.42,6.11S87,134.28,72.39,121.46Z"/>
          </g>
          <g>
            <path class="cls-4" d="M140.43,136.91S129.57,151,114,147.91s-50.77-24.77-62.27-47c-10.07-19.49-4.09-35.37,6.77-37.49,12.67-2.48,26.18,18.35,34.76,30.47C109.21,116.46,140.43,136.91,140.43,136.91Z"/>
            <path class="cls-5" d="M137.23,137.07s-13.13,9.28-27.31,6.6-46.05-22-56.43-41.82c-9.08-17.38-3.6-31.59,6.27-33.52,11.52-2.25,23.73,16.32,31.49,27.12C105.71,115.59,137.23,137.07,137.23,137.07Z"/>
          </g>
        </g>
        <g>
          <path class="cls-6" d="M194.16,56.89s12.91-29.64,36.91-41.56l1,2S210,27.59,196.17,58.56Z"/>
          <rect class="cls-6" x="232.38" y="2.48" width="9.68" height="21.13" rx="4.84" transform="translate(330.42 231.58) rotate(-116.24)"/>
        </g>
        <g>
          <path class="cls-6" d="M141.42,76.62S117.39,55,90.61,54.09l-.09,2.29s24.3.16,49.76,22.61Z"/>
          <rect class="cls-6" x="79.22" y="44" width="9.68" height="21.13" rx="4.84" transform="translate(26.93 136.9) rotate(-88.23)"/>
        </g>
        <g>
          <g>
            <path class="cls-7" d="M230.47,167.45s-13.43,10-33.88,9.17c0,0-5.81-2.65-8-17.82s-3-15.81-3-15.81-2.83-1.29-2.92.7,2.21,28.64,10.43,35.28c7.17,5.8,38.52-4.89,40.18-7.71S232.12,166.28,230.47,167.45Z"/>
            <path class="cls-7" d="M229.66,173.5s2.55,3.2,4.43,2.61c10.37-3.26,4-10.42,4-10.42s-.14-7.82-3.34-6.7C227.65,161.49,220.48,165.08,229.66,173.5Z"/>
          </g>
          <g>
            <path class="cls-7" d="M240.52,166.76s2.57-.07,2.68,1.78a4.32,4.32,0,0,1-3.61,4.41c-2.36.33-4.53-1.21-2.51-4S240.52,166.76,240.52,166.76Z"/>
            <path class="cls-7" d="M240.39,162s4.63,2.76-.55,6.75-6.37.74-6.59,0,0-2.82,2.59-4.21S240.39,162,240.39,162Z"/>
            <path class="cls-7" d="M226.26,165.83s3.6.08,4.94,1.07,2.73,3-3.4,3.76-4.73-5.27-2.87-6.6L233,158.6c5.57-3.11,7.61.92,7.67,2.43.09,2.3-6.23,6.2-7.88,3.24s.93-4.31.93-4.31"/>
          </g>
        </g>
        <g>
          <path class="cls-8" d="M114.51,205.9s-4.61,10-9,10.23S74.46,203,74.46,203l-1.9,3.33,27.7,12.45s7.56,4.24,12.89-3,7.49-10.12,7.49-10.12Z"/>
          <g>
            <path class="cls-8" d="M68.45,205.24l-2.14,5.33s-.74,5.12-6.64,17.55-20.24,12-19.4,1.48,8.33-29.69,19-32.25a7.11,7.11,0,0,1,3.36-1.69c3.21-.62,6.75,1.22,9.07,4.61l2.78,1.51-3.38,4.85L69,205.28Z"/>
            <path class="cls-9" d="M70.23,206.48l2.63,1.32,3.55-5.18-2.78-1.51c-2.32-3.39-5.86-5.23-9.07-4.61a7.24,7.24,0,0,0-3.37,1.69c-10.65,2.57-18.13,21.71-19,32.25s13.49,11,19.39-1.47,6.65-17.55,6.65-17.55l1.92-4.79Z"/>
            <path class="cls-10" d="M54.83,212.54l6.89,2.56s-4.48,11.23-6.89,14.38-9.76,0-4.88-8.47Z"/>
            <path class="cls-10" d="M58.68,203.63a17.53,17.53,0,0,0,8,3.79l-1.19,2.1s-7.12-1.1-8.11-4.09l1.09-1.85Z"/>
          </g>
          <path class="cls-8" d="M72.86,207.8l3.55-5.18S78.15,208.91,72.86,207.8Z"/>
        </g>
        <g>
          <path class="cls-11" d="M190.29,127.42S188.85,172.8,146,199.88c-16.21,10.26-94.59,12.39-70.56-41.15,13.62-25.47,39.8-23.14,60.46-21.65,4.45.32,11.64-2.94,14.62-5.68l3.58-2.51Z"/>
          <path class="cls-8" d="M128,136.39s-2.42,35.57,44.37,39.17c-2.8,4.44-9.89,11.55-9.89,11.55s-46.91-9.45-45.34-51h5.29Z"/>
          <path class="cls-8" d="M98.9,138.77s-4,50.74,55.06,55.78a43.88,43.88,0,0,1-7.41,5.24,29.51,29.51,0,0,1-8.48,3.45s-47.65-8.67-49.9-59.31c.23-.12,1.15-.79,2.37-1.49a41.23,41.23,0,0,1,8.36-3.67Z"/>
          <path class="cls-8" d="M146.78,133.84s13.76,22.46,36,23.42a45.47,45.47,0,0,1-4.77,9.51s-35.48-7.23-39.26-30l3.61-1c.36-.1.82-.34,1.26-.45Z"/>
          <path class="cls-8" d="M74.36,161.06c-1,1.88-8,15.66.1,28.79s28.27,20.27,48.11,15.75C92.72,203.55,73.58,178.6,74.36,161.06Z"/>
        </g>
        <g>
          <path class="cls-8" d="M41.94,198.73l28.49,13s9.49,3.39,14.3-3.84c4.36-5.5,9.06-12.53,11.38-16.07a2.72,2.72,0,0,1,3.73-.8h0a3.51,3.51,0,0,1,.63,5.38L84.79,213.86s-5.92,5.49-18.86-.48C50.64,206.32,40,201.61,40,201.61Z"/>
          <g>
            <path class="cls-8" d="M34.66,200.17,32.32,206s-.81,5.59-7.27,19.19S2.92,238.34,3.84,226.81,13,194.35,24.59,191.54a7.94,7.94,0,0,1,3.68-1.85c3.52-.67,7.39,1.34,9.92,5l3,1.66-3.75,5.38L35,200.41Z"/>
            <path class="cls-9" d="M36.61,201.53,39.48,203l3.88-5.66-3-1.65c-2.53-3.71-6.41-5.72-9.92-5a7.94,7.94,0,0,0-3.68,1.85C15.07,195.27,6.89,216.21,6,227.73s14.76,12,21.21-1.61,7.27-19.19,7.27-19.19l1.72-4.31Z"/>
            <path class="cls-10" d="M19.76,208.15,27.3,211s-4.9,12.27-7.54,15.73-10.68,0-5.34-9.27Z"/>
            <path class="cls-10" d="M24,198.41a19.12,19.12,0,0,0,8.71,4.15l-1.3,2.29s-7.79-1.2-8.87-4.47l1.19-2Z"/>
          </g>
          <path class="cls-8" d="M43.36,197.31s.23,6.21-3.88,5.66Z"/>
        </g>
        <path class="cls-12" d="M168.38,142.07s-1.27,15.56-22.59,28.07S80,186.05,70.72,173.31c0,0-3,16.54,15.26,27.36,17.6,10.39,50.8,3.62,57.65.61,8.38-3.68,26.24-19.35,34.56-34.73a110,110,0,0,0,9.91-24.66s3.79-13.11,0-15.35c-8.17-4.83-28.38-.58-34.44,2.65a29.9,29.9,0,0,0-4.19,2.93C149.17,132.41,160.8,141.1,168.38,142.07Z"/>
        <g>
          <path class="cls-11" d="M135.15,109.14c6,24.06,30.17,29.68,56.84,24.24s42.28-19.15,36.25-43.21-29-39.87-55.7-34.44C139.34,62.5,129.13,85.08,135.15,109.14Z"/>
          <path class="cls-13" d="M141.14,73.8s-9.42,63.89,70.15,52.68c-.95.14,2,.06-15.76,5.53a102.77,102.77,0,0,1-18.39,2.62c-4.6.09-12.81.73-21.87-3.3a27.43,27.43,0,0,1-12.17-8C131.7,110.5,130.35,88.23,141.14,73.8Z"/>
          <ellipse class="cls-14" cx="189.79" cy="106.33" rx="1.88" ry="3.21" transform="matrix(0.96, -0.27, 0.27, 0.96, -21.42, 54.19)"/>
          <path class="cls-6" d="M134.64,96.19c1.18,1.2,1.54,3.66,2.62,6.33,2.46,6.11,1.65,11.75,1,13.38a37.5,37.5,0,0,1-3.66-10.52A45.3,45.3,0,0,1,134.64,96.19Z"/>
          <path class="cls-6" d="M221.25,76.16s-5,9.46,6.7,17.16a42.27,42.27,0,0,0-3.58-12C223.57,79.7,222.1,77.54,221.25,76.16Z"/>
          <path class="cls-6" d="M186.79,54.33s-9.65-2.41-23.71,3.34C162,61.09,186.5,61.16,186.79,54.33Z"/>
          <g>
            <g>
              <path class="cls-15" d="M191.28,84.9c2.8,9.62,10.67,15.5,17.57,13.14S219.1,86,216.3,76.34s-10.67-15.5-17.57-13.14S188.49,75.28,191.28,84.9Z"/>
              <path class="cls-12" d="M192,90.75c2.44,8.38,9.89,13.29,16.65,11s10.27-11,7.84-19.35-9.89-13.29-16.65-11S189.6,82.38,192,90.75Z"/>
              <path class="cls-16" d="M192.18,87c2.43,8.38,9.88,13.29,16.64,11s10.27-11,7.84-19.34-9.89-13.29-16.65-11S189.74,78.62,192.18,87Z"/>
              <g class="cls-17">
                <path class="cls-18" d="M197.19,63.9c-4.63,3.52-6.57,11.27-4.33,19,2.63,9.06,10,14.6,16.55,12.38,4.48-1.54,7.37-6.36,7.87-12.17,0,7.06-3.15,13.15-8.43,15-6.9,2.36-14.77-3.52-17.57-13.14C188.7,76,191.34,67.09,197.19,63.9Z"/>
              </g>
            </g>
            <path class="cls-19" d="M197.74,84.32c.74,4.64,4.32,7.8,8,7.07s6.09-5.07,5.35-9.71-4.31-7.8-8-7.07S197,79.69,197.74,84.32Z"/>
            <path class="cls-20" d="M207.13,79.41a2,2,0,0,0,2.28,1.92,2.41,2.41,0,0,0,1.64-2.76,2,2,0,0,0-2.28-1.91A2.4,2.4,0,0,0,207.13,79.41Z"/>
          </g>
          <g>
            <g>
              <path class="cls-15" d="M150.6,93.75c2.74,9.52,10.51,15.35,17.34,13s10.15-11.92,7.4-21.43S164.83,70,158,72.33,147.85,84.24,150.6,93.75Z"/>
              <path class="cls-12" d="M151.33,99.54c2.39,8.28,9.75,13.15,16.43,10.88s10.17-10.82,7.78-19.1-9.74-13.16-16.43-10.89S148.94,91.26,151.33,99.54Z"/>
              <path class="cls-16" d="M151.48,95.82c2.39,8.28,9.74,13.15,16.43,10.88s10.17-10.82,7.78-19.1-9.75-13.15-16.43-10.88S149.09,87.54,151.48,95.82Z"/>
              <g class="cls-17">
                <path class="cls-18" d="M156.48,73c-4.58,3.47-6.52,11.13-4.32,18.75,2.58,9,9.9,14.45,16.33,12.27,4.44-1.51,7.3-6.27,7.8-12,0,7-3.14,13-8.35,14.76-6.83,2.32-14.6-3.51-17.34-13C148.07,85,150.7,76.15,156.48,73Z"/>
              </g>
            </g>
            <path class="cls-19" d="M157,92.69c.71,4.58,4.24,7.72,7.89,7s6-5,5.3-9.58-4.24-7.72-7.89-7S156.27,88.11,157,92.69Z"/>
            <path class="cls-20" d="M165.68,87a1.88,1.88,0,0,0,2.26,1.75,2.43,2.43,0,0,0,1.74-2.65,1.88,1.88,0,0,0-2.25-1.76A2.44,2.44,0,0,0,165.68,87Z"/>
          </g>
          <path class="cls-21" d="M172.47,116.94a65.46,65.46,0,0,0,10.66,1,40.44,40.44,0,0,0,10.44-1.16,25,25,0,0,0,4.9-1.73c.8-.34,1.54-.78,2.31-1.19s1.47-.92,2.16-1.46a30,30,0,0,0,7.11-7.83,22,22,0,0,1-6.13,9,23.51,23.51,0,0,1-9.85,5.11,32.78,32.78,0,0,1-11,.77A35.15,35.15,0,0,1,172.47,116.94Z"/>
        </g>
        <g>
          <path class="cls-7" d="M217.11,158s3.88.16,4.19,3.43-4.61,4.41-7.37,3.44S208.59,157.5,217.11,158Z"/>
          <g>
            <path class="cls-7" d="M209.3,161.32s-19.7,16.26-32.68,13.91c-6.67-1.2-15.74-32.49-15.74-32.49s-2.21-1.75-3,1.64c-.46,2.06,7.5,26.94,15.38,33.35s37.06-10,37.06-10l1.35.88S215.72,159.72,209.3,161.32Z"/>
            <path class="cls-7" d="M209,164.13s11.85-7.79,4.33-10.6-10.61,9.28-10.61,9.28l1.44,3.51"/>
            <path class="cls-7" d="M204.75,169.51s1,3.79,2.71,4.15c3.76.83,13.37-4.4,10.73-7.77s-7.61,1.2-7.61,1.2"/>
            <path class="cls-7" d="M208.16,161.7s6.15-5.9,9-1.95c3.17,4.4-8.19,9.2-8.19,9.2"/>
          </g>
        </g>
      </g>
    </g>
  </g>
</svg>
