<svg xmlns="http://www.w3.org/2000/svg" width="74" height="54" viewBox="0 0 74 54">
  <defs>
    <style>
      .cls-1 {
        isolation: isolate;
      }

      .cls-2 {
        fill: #fbf5b0;
        stroke-width: 0.25px;
      }

      .cls-2, .cls-4 {
        stroke: #832f0a;
        stroke-linecap: round;
        stroke-linejoin: round;
      }

      .cls-3 {
        fill: #3b2314;
        opacity: 0.24;
      }

      .cls-4 {
        fill: #fefdeb;
        stroke-width: 0.5px;
      }

      .cls-5 {
        mix-blend-mode: multiply;
      }

      .cls-6 {
        fill: #f2efda;
      }

      .cls-7 {
        fill: #381b0d;
      }

      .cls-8 {
        fill: #fff;
      }

      .cls-9 {
        fill: #ffe743;
        stroke: #705b01;
        stroke-miterlimit: 10;
        stroke-width: 0.75px;
      }
    </style>
  </defs>
  <g class="cls-1">
    <g id="Layer_1" data-name="Layer 1">
      <g id="Bee_04">
        <g>
          <g>
            <g>
              <path class="cls-2" d="M43.28,25.9C46.08,35.52,54,41.4,60.85,39S71.1,27,68.3,17.34,57.63,1.84,50.73,4.2,40.49,16.28,43.28,25.9Z"/>
              <path class="cls-3" d="M44,31.75c2.44,8.38,9.89,13.29,16.65,11s10.27-11,7.84-19.35-9.89-13.29-16.65-11S41.6,23.38,44,31.75Z"/>
              <path class="cls-4" d="M44.18,28c2.43,8.38,9.88,13.29,16.64,11s10.27-11,7.84-19.34S58.77,6.33,52,8.64,41.74,19.62,44.18,28Z"/>
              <g class="cls-5">
                <path class="cls-6" d="M49.19,4.9c-4.63,3.52-6.57,11.27-4.33,19,2.63,9.06,10,14.6,16.55,12.38,4.48-1.54,7.37-6.36,7.87-12.17,0,7.06-3.15,13.15-8.43,15C54,41.4,46.08,35.52,43.28,25.9,40.7,17,43.34,8.09,49.19,4.9Z"/>
              </g>
            </g>
            <path class="cls-7" d="M49.74,25.32c.74,4.64,4.32,7.8,8,7.07s6.09-5.07,5.35-9.71-4.31-7.8-8-7.07S49,20.69,49.74,25.32Z"/>
            <path class="cls-8" d="M59.13,20.41a2,2,0,0,0,2.28,1.92,2.41,2.41,0,0,0,1.64-2.76,2,2,0,0,0-2.28-1.91A2.4,2.4,0,0,0,59.13,20.41Z"/>
          </g>
          <g>
            <g>
              <path class="cls-2" d="M2.6,34.75c2.74,9.52,10.51,15.35,17.34,13s10.15-11.92,7.4-21.43S16.83,11,10,13.33-.15,25.24,2.6,34.75Z"/>
              <path class="cls-3" d="M3.33,40.54c2.39,8.28,9.75,13.15,16.43,10.88s10.17-10.82,7.78-19.1S17.8,19.16,11.11,21.43.94,32.26,3.33,40.54Z"/>
              <path class="cls-4" d="M3.48,36.82C5.87,45.1,13.22,50,19.91,47.7s10.17-10.82,7.78-19.1S17.94,15.45,11.26,17.72,1.09,28.54,3.48,36.82Z"/>
              <g class="cls-5">
                <path class="cls-6" d="M8.48,14C3.9,17.48,2,25.14,4.16,32.76c2.58,9,9.9,14.45,16.33,12.27,4.44-1.51,7.3-6.27,7.8-12,0,7-3.14,13-8.35,14.76-6.83,2.32-14.6-3.51-17.34-13C.07,26,2.7,17.15,8.48,14Z"/>
              </g>
            </g>
            <path class="cls-7" d="M9,33.69c.71,4.58,4.24,7.72,7.89,7s6-5,5.3-9.58-4.24-7.72-7.89-7S8.27,29.11,9,33.69Z"/>
            <path class="cls-8" d="M17.68,28a1.88,1.88,0,0,0,2.26,1.75,2.43,2.43,0,0,0,1.74-2.65,1.88,1.88,0,0,0-2.25-1.76A2.44,2.44,0,0,0,17.68,28Z"/>
          </g>
        </g>
        <g>
          <path class="cls-9" d="M3.18,37c2.43,8.38,9.88,13.29,16.64,11s10.27-11,7.84-19.34S17.77,15.33,11,17.64.74,28.62,3.18,37Z"/>
          <path class="cls-9" d="M44.18,28c2.43,8.38,9.88,13.29,16.64,11s10.27-11,7.84-19.34S58.77,6.33,52,8.64,41.74,19.62,44.18,28Z"/>
        </g>
      </g>
    </g>
  </g>
</svg>
