<svg xmlns="http://www.w3.org/2000/svg" width="72" height="52" viewBox="0 0 72 52">
  <defs>
    <style>
      .cls-1 {
        isolation: isolate;
      }

      .cls-2 {
        fill: #fbf5b0;
        stroke-width: 0.25px;
      }

      .cls-2, .cls-4 {
        stroke: #832f0a;
        stroke-linecap: round;
        stroke-linejoin: round;
      }

      .cls-3 {
        fill: #3b2314;
        opacity: 0.24;
      }

      .cls-4 {
        fill: #fefdeb;
        stroke-width: 0.5px;
      }

      .cls-5 {
        mix-blend-mode: multiply;
      }

      .cls-6 {
        fill: #f2efda;
      }

      .cls-7 {
        fill: #381b0d;
      }

      .cls-8 {
        fill: #fff;
      }
    </style>
  </defs>
  <g class="cls-1">
    <g id="Layer_1" data-name="Layer 1">
      <g>
        <g>
          <g>
            <path class="cls-2" d="M44.28,23.9C47.08,33.52,55,39.4,61.85,37S72.1,25,69.3,15.34,58.63-.16,51.73,2.2,41.49,14.28,44.28,23.9Z"/>
            <path class="cls-3" d="M45,29.75c2.44,8.38,9.89,13.29,16.65,11s10.27-11,7.84-19.35-9.89-13.29-16.65-11S42.6,21.38,45,29.75Z"/>
            <path class="cls-4" d="M45.18,26c2.43,8.38,9.88,13.29,16.64,11s10.27-11,7.84-19.34S59.77,4.33,53,6.64,42.74,17.62,45.18,26Z"/>
            <g class="cls-5">
              <path class="cls-6" d="M50.19,2.9c-4.63,3.52-6.57,11.27-4.33,19,2.63,9.06,10,14.6,16.55,12.38,4.48-1.54,7.37-6.36,7.87-12.17,0,7.06-3.15,13.15-8.43,15C55,39.4,47.08,33.52,44.28,23.9,41.7,15,44.34,6.09,50.19,2.9Z"/>
            </g>
          </g>
          <path class="cls-7" d="M50.74,23.32c.74,4.64,4.32,7.8,8,7.07s6.09-5.07,5.35-9.71-4.31-7.8-8-7.07S50,18.69,50.74,23.32Z"/>
          <path class="cls-8" d="M60.13,18.41a2,2,0,0,0,2.28,1.92,2.41,2.41,0,0,0,1.64-2.76,2,2,0,0,0-2.28-1.91A2.4,2.4,0,0,0,60.13,18.41Z"/>
        </g>
        <g>
          <g>
            <path class="cls-2" d="M3.6,32.75c2.74,9.52,10.51,15.35,17.34,13s10.15-11.92,7.4-21.43S17.83,9,11,11.33.85,23.24,3.6,32.75Z"/>
            <path class="cls-3" d="M4.33,38.54c2.39,8.28,9.75,13.15,16.43,10.88s10.17-10.82,7.78-19.1S18.8,17.16,12.11,19.43,1.94,30.26,4.33,38.54Z"/>
            <path class="cls-4" d="M4.48,34.82C6.87,43.1,14.22,48,20.91,45.7s10.17-10.82,7.78-19.1S18.94,13.45,12.26,15.72,2.09,26.54,4.48,34.82Z"/>
            <g class="cls-5">
              <path class="cls-6" d="M9.48,12C4.9,15.48,3,23.14,5.16,30.76c2.58,9,9.9,14.45,16.33,12.27,4.44-1.51,7.3-6.27,7.8-12,0,7-3.14,13-8.35,14.76-6.83,2.32-14.6-3.51-17.34-13C1.07,24,3.7,15.15,9.48,12Z"/>
            </g>
          </g>
          <path class="cls-7" d="M10,31.69c.71,4.58,4.24,7.72,7.89,7s6-5,5.3-9.58-4.24-7.72-7.89-7S9.27,27.11,10,31.69Z"/>
          <path class="cls-8" d="M18.68,26a1.88,1.88,0,0,0,2.26,1.75,2.43,2.43,0,0,0,1.74-2.65,1.88,1.88,0,0,0-2.25-1.76A2.44,2.44,0,0,0,18.68,26Z"/>
        </g>
      </g>
    </g>
  </g>
</svg>
