<svg xmlns="http://www.w3.org/2000/svg" width="256" height="243" viewBox="0 0 256 243">
  <defs>
    <style>
      .cls-1 {
        isolation: isolate;
      }

      .cls-2 {
        fill: #b73e7b;
      }

      .cls-2, .cls-4 {
        stroke: #561d1d;
      }

      .cls-3 {
        fill: #e585b3;
      }

      .cls-3, .cls-5 {
        stroke: #ffe6e6;
      }

      .cls-10, .cls-3, .cls-5 {
        stroke-width: 0.75px;
      }

      .cls-4 {
        fill: #e4609c;
      }

      .cls-5 {
        fill: #f38fbb;
      }

      .cls-6 {
        fill: #231f20;
      }

      .cls-12, .cls-7, .cls-8 {
        fill: #3b2314;
      }

      .cls-7 {
        stroke: #210f00;
      }

      .cls-10, .cls-11, .cls-13, .cls-7 {
        stroke-miterlimit: 10;
      }

      .cls-16, .cls-7 {
        stroke-width: 0.5px;
      }

      .cls-9 {
        fill: #5d3c2a;
      }

      .cls-10 {
        fill: #895b46;
        stroke: #231f20;
      }

      .cls-10, .cls-13 {
        opacity: 0.3;
      }

      .cls-11 {
        fill: #ffe743;
        stroke: #705b01;
      }

      .cls-12 {
        opacity: 0.24;
      }

      .cls-13 {
        fill: #e0aa24;
        stroke: #eac71c;
        stroke-width: 0.25px;
      }

      .cls-14 {
        fill: #754c28;
      }

      .cls-15 {
        fill: #fbf5b0;
        stroke-width: 0.25px;
      }

      .cls-15, .cls-16 {
        stroke: #832f0a;
        stroke-linecap: round;
        stroke-linejoin: round;
      }

      .cls-16 {
        fill: #fefdeb;
      }

      .cls-17 {
        mix-blend-mode: multiply;
      }

      .cls-18 {
        fill: #f2efda;
      }

      .cls-19 {
        fill: #381b0d;
      }

      .cls-20 {
        fill: #fff;
      }

      .cls-21 {
        fill: #4c4218;
      }
    </style>
  </defs>
  <g class="cls-1">
    <g id="Layer_1" data-name="Layer 1">
      <g id="Bee_03">
        <g id="Bee_lift_wings__03" data-name="Bee lift wings _03">
          <g>
            <path class="cls-2" d="M143.7,89.63s-1.6-17.13-14-22.45-19.39,12-18,19.81,5.18,30.18,22.22,48S140.42,108.5,143.7,89.63Z"/>
            <path class="cls-3" d="M142.91,90.47s-1.49-15.87-13-20.8S111.93,80.8,113.25,88s4.8,28,20.59,44.48S139.87,108,142.91,90.47Z"/>
          </g>
          <g>
            <path class="cls-2" d="M162.83,148.8s-15.77.18-20.8-13.44-4.8-51.26,7.07-70.77c10.39-17.08,25.59-20,32.4-12.51,7.93,8.68-1.87,29.08-7.24,41.51C164.26,116.76,162.83,148.8,162.83,148.8Z"/>
            <path class="cls-3" d="M162.26,142.5s-14.2,0-18.84-12.29S138.68,84,149.21,66.46c9.21-15.31,22.87-17.79,29.06-11,7.21,7.9-1.45,26.21-6.18,37.37C163.28,113.62,162.26,142.5,162.26,142.5Z"/>
          </g>
        </g>
        <g id="Bee_right_Bee_wings_03" data-name="Bee right Bee wings_03">
          <g>
            <path class="cls-4" d="M66,137.83s-18.44-4-28.14,7.25S44,169.34,52.64,170.43s33.28,4.6,57.58-7.31S84.67,147.53,66,137.83Z"/>
            <path class="cls-5" d="M66.64,138.94s-17.09-3.71-26.07,6.72,5.68,22.47,13.67,23.48,30.84,4.26,53.35-6.77S83.92,147.92,66.64,138.94Z"/>
          </g>
          <g>
            <path class="cls-4" d="M136.4,137.78s-7.2,16.23-23.11,17-55.2-12-71.66-30.88c-14.41-16.53-12.38-33.38-2.34-38,11.72-5.41,29.79,11.61,41,21.34C101.22,125.34,136.4,137.78,136.4,137.78Z"/>
            <path class="cls-5" d="M133.33,138.7s-10.54,12.12-25,12.89-49.95-10.39-64.75-27.2c-13-14.72-11-29.82-1.88-34,10.65-4.92,26.92,10.2,37,18.85C97.61,125.32,133.33,138.7,133.33,138.7Z"/>
          </g>
        </g>
        <g>
          <path class="cls-6" d="M196.16,56.89s12.91-29.64,36.91-41.56l1,2S212,27.59,198.17,58.56Z"/>
          <rect class="cls-6" x="234.38" y="2.48" width="9.68" height="21.13" rx="4.84" transform="translate(333.3 233.38) rotate(-116.24)"/>
        </g>
        <g>
          <path class="cls-6" d="M143.42,76.62S119.39,55,92.61,54.09l-.09,2.29s24.3.16,49.76,22.61Z"/>
          <rect class="cls-6" x="81.22" y="44" width="9.68" height="21.13" rx="4.84" transform="translate(28.87 138.9) rotate(-88.23)"/>
        </g>
        <g>
          <g>
            <path class="cls-7" d="M232.47,167.45s-13.43,10-33.88,9.17c0,0-5.81-2.65-8-17.82s-3-15.81-3-15.81-2.83-1.29-2.92.7,2.21,28.64,10.43,35.28c7.17,5.8,38.52-4.89,40.18-7.71S234.12,166.28,232.47,167.45Z"/>
            <path class="cls-7" d="M231.66,173.5s2.55,3.2,4.43,2.61c10.37-3.26,4-10.42,4-10.42s-.14-7.82-3.34-6.7C229.65,161.49,222.48,165.08,231.66,173.5Z"/>
          </g>
          <g>
            <path class="cls-7" d="M242.52,166.76s2.57-.07,2.68,1.78a4.32,4.32,0,0,1-3.61,4.41c-2.36.33-4.53-1.21-2.51-4S242.52,166.76,242.52,166.76Z"/>
            <path class="cls-7" d="M242.39,162s4.63,2.76-.55,6.75-6.37.74-6.59,0,0-2.82,2.59-4.21S242.39,162,242.39,162Z"/>
            <path class="cls-7" d="M228.26,165.83s3.6.08,4.94,1.07,2.73,3-3.4,3.76-4.73-5.27-2.87-6.6L235,158.6c5.57-3.11,7.61.92,7.67,2.43.09,2.3-6.23,6.2-7.88,3.24s.93-4.31.93-4.31"/>
          </g>
        </g>
        <g>
          <path class="cls-8" d="M116.51,205.9s-4.61,10-9,10.23S76.46,203,76.46,203l-1.9,3.33,27.7,12.45s7.56,4.24,12.89-3,7.49-10.12,7.49-10.12Z"/>
          <g>
            <path class="cls-8" d="M70.45,205.24l-2.14,5.33s-.74,5.12-6.64,17.55-20.24,12-19.4,1.48,8.33-29.69,19-32.25a7.11,7.11,0,0,1,3.36-1.69c3.21-.62,6.75,1.22,9.07,4.61l2.78,1.51-3.38,4.85L71,205.28Z"/>
            <path class="cls-9" d="M72.23,206.48l2.63,1.32,3.55-5.18-2.78-1.51c-2.32-3.39-5.86-5.23-9.07-4.61a7.24,7.24,0,0,0-3.37,1.69c-10.65,2.57-18.13,21.71-19,32.25s13.49,11,19.39-1.47,6.65-17.55,6.65-17.55l1.92-4.79Z"/>
            <path class="cls-10" d="M56.83,212.54l6.89,2.56s-4.48,11.23-6.89,14.38-9.76,0-4.88-8.47Z"/>
            <path class="cls-10" d="M60.68,203.63a17.53,17.53,0,0,0,8,3.79l-1.19,2.1s-7.12-1.1-8.11-4.09l1.09-1.85Z"/>
          </g>
          <path class="cls-8" d="M74.86,207.8l3.55-5.18S80.15,208.91,74.86,207.8Z"/>
        </g>
        <g>
          <path class="cls-11" d="M192.29,127.42S190.85,172.8,148,199.88c-16.21,10.26-94.59,12.39-70.56-41.15,13.62-25.47,39.8-23.14,60.46-21.65,4.45.32,11.64-2.94,14.62-5.68l3.58-2.51Z"/>
          <path class="cls-8" d="M130,136.39s-2.42,35.57,44.37,39.17c-2.8,4.44-9.89,11.55-9.89,11.55s-46.91-9.45-45.34-51h5.29Z"/>
          <path class="cls-8" d="M100.9,138.77s-4,50.74,55.06,55.78a43.88,43.88,0,0,1-7.41,5.24,29.51,29.51,0,0,1-8.48,3.45s-47.65-8.67-49.9-59.31c.23-.12,1.15-.79,2.37-1.49a41.23,41.23,0,0,1,8.36-3.67Z"/>
          <path class="cls-8" d="M148.78,133.84s13.76,22.46,36,23.42a45.47,45.47,0,0,1-4.77,9.51s-35.48-7.23-39.26-30l3.61-1c.36-.1.82-.34,1.26-.45Z"/>
          <path class="cls-8" d="M76.36,161.06c-1,1.88-8,15.66.1,28.79s28.27,20.27,48.11,15.75C94.72,203.55,75.58,178.6,76.36,161.06Z"/>
        </g>
        <g>
          <path class="cls-8" d="M43.94,198.73l28.49,13s9.49,3.39,14.3-3.84c4.36-5.5,9.06-12.53,11.38-16.07a2.72,2.72,0,0,1,3.73-.8h0a3.51,3.51,0,0,1,.63,5.38L86.79,213.86s-5.92,5.49-18.86-.48C52.64,206.32,42,201.61,42,201.61Z"/>
          <g>
            <path class="cls-8" d="M36.66,200.17,34.32,206s-.81,5.59-7.27,19.19S4.92,238.34,5.84,226.81,15,194.35,26.59,191.54a7.94,7.94,0,0,1,3.68-1.85c3.52-.67,7.39,1.34,9.92,5l3,1.66-3.75,5.38L37,200.41Z"/>
            <path class="cls-9" d="M38.61,201.53,41.48,203l3.88-5.66-3-1.65c-2.53-3.71-6.41-5.72-9.92-5a7.94,7.94,0,0,0-3.68,1.85C17.07,195.27,8.89,216.21,8,227.73s14.76,12,21.21-1.61,7.27-19.19,7.27-19.19l1.72-4.31Z"/>
            <path class="cls-10" d="M21.76,208.15,29.3,211s-4.9,12.27-7.54,15.73-10.68,0-5.34-9.27Z"/>
            <path class="cls-10" d="M26,198.41a19.12,19.12,0,0,0,8.71,4.15l-1.3,2.29s-7.79-1.2-8.87-4.47l1.19-2Z"/>
          </g>
          <path class="cls-8" d="M45.36,197.31s.23,6.21-3.88,5.66Z"/>
        </g>
        <path class="cls-12" d="M170.38,142.07s-1.27,15.56-22.59,28.07S82,186.05,72.72,173.31c0,0-3,16.54,15.26,27.36,17.6,10.39,50.8,3.62,57.65.61,8.38-3.68,26.24-19.35,34.56-34.73a110,110,0,0,0,9.91-24.66s3.79-13.11,0-15.35c-8.17-4.83-28.38-.58-34.44,2.65a29.9,29.9,0,0,0-4.19,2.93C151.17,132.41,162.8,141.1,170.38,142.07Z"/>
        <g>
          <path class="cls-11" d="M137.15,109.14c6,24.06,30.17,29.68,56.84,24.24s42.28-19.15,36.25-43.21-29-39.87-55.7-34.44C141.34,62.5,131.13,85.08,137.15,109.14Z"/>
          <path class="cls-13" d="M143.14,73.8s-9.42,63.89,70.15,52.68c-.95.14,2,.06-15.76,5.53a102.77,102.77,0,0,1-18.39,2.62c-4.6.09-12.81.73-21.87-3.3a27.43,27.43,0,0,1-12.17-8C133.7,110.5,132.35,88.23,143.14,73.8Z"/>
          <ellipse class="cls-14" cx="191.79" cy="106.33" rx="1.88" ry="3.21" transform="translate(-21.34 54.72) rotate(-15.39)"/>
          <path class="cls-6" d="M136.64,96.19c1.18,1.2,1.54,3.66,2.62,6.33,2.46,6.11,1.65,11.75,1,13.38a37.5,37.5,0,0,1-3.66-10.52A45.3,45.3,0,0,1,136.64,96.19Z"/>
          <path class="cls-6" d="M223.25,76.16s-5,9.46,6.7,17.16a42.27,42.27,0,0,0-3.58-12C225.57,79.7,224.1,77.54,223.25,76.16Z"/>
          <path class="cls-6" d="M188.79,54.33s-9.65-2.41-23.71,3.34C164,61.09,188.5,61.16,188.79,54.33Z"/>
          <g>
            <g>
              <path class="cls-15" d="M193.28,84.9c2.8,9.62,10.67,15.5,17.57,13.14S221.1,86,218.3,76.34s-10.67-15.5-17.57-13.14S190.49,75.28,193.28,84.9Z"/>
              <path class="cls-12" d="M194,90.75c2.44,8.38,9.89,13.29,16.65,11s10.27-11,7.84-19.35-9.89-13.29-16.65-11S191.6,82.38,194,90.75Z"/>
              <path class="cls-16" d="M194.18,87c2.43,8.38,9.88,13.29,16.64,11s10.27-11,7.84-19.34-9.89-13.29-16.65-11S191.74,78.62,194.18,87Z"/>
              <g class="cls-17">
                <path class="cls-18" d="M199.19,63.9c-4.63,3.52-6.57,11.27-4.33,19,2.63,9.06,10,14.6,16.55,12.38,4.48-1.54,7.37-6.36,7.87-12.17,0,7.06-3.15,13.15-8.43,15-6.9,2.36-14.77-3.52-17.57-13.14C190.7,76,193.34,67.09,199.19,63.9Z"/>
              </g>
            </g>
            <path class="cls-19" d="M199.74,84.32c.74,4.64,4.32,7.8,8,7.07s6.09-5.07,5.35-9.71-4.31-7.8-8-7.07S199,79.69,199.74,84.32Z"/>
            <path class="cls-20" d="M209.13,79.41a2,2,0,0,0,2.28,1.92,2.41,2.41,0,0,0,1.64-2.76,2,2,0,0,0-2.28-1.91A2.4,2.4,0,0,0,209.13,79.41Z"/>
          </g>
          <g>
            <g>
              <path class="cls-15" d="M152.6,93.75c2.74,9.52,10.51,15.35,17.34,13s10.15-11.92,7.4-21.43S166.83,70,160,72.33,149.85,84.24,152.6,93.75Z"/>
              <path class="cls-12" d="M153.33,99.54c2.39,8.28,9.75,13.15,16.43,10.88s10.17-10.82,7.78-19.1-9.74-13.16-16.43-10.89S150.94,91.26,153.33,99.54Z"/>
              <path class="cls-16" d="M153.48,95.82c2.39,8.28,9.74,13.15,16.43,10.88s10.17-10.82,7.78-19.1-9.75-13.15-16.43-10.88S151.09,87.54,153.48,95.82Z"/>
              <g class="cls-17">
                <path class="cls-18" d="M158.48,73c-4.58,3.47-6.52,11.13-4.32,18.75,2.58,9,9.9,14.45,16.33,12.27,4.44-1.51,7.3-6.27,7.8-12,0,7-3.14,13-8.35,14.76-6.83,2.32-14.6-3.51-17.34-13C150.07,85,152.7,76.15,158.48,73Z"/>
              </g>
            </g>
            <path class="cls-19" d="M159,92.69c.71,4.58,4.24,7.72,7.89,7s6-5,5.3-9.58-4.24-7.72-7.89-7S158.27,88.11,159,92.69Z"/>
            <path class="cls-20" d="M167.68,87a1.88,1.88,0,0,0,2.26,1.75,2.43,2.43,0,0,0,1.74-2.65,1.88,1.88,0,0,0-2.25-1.76A2.44,2.44,0,0,0,167.68,87Z"/>
          </g>
          <path class="cls-21" d="M174.47,116.94a65.46,65.46,0,0,0,10.66,1,40.44,40.44,0,0,0,10.44-1.16,25,25,0,0,0,4.9-1.73c.8-.34,1.54-.78,2.31-1.19s1.47-.92,2.16-1.46a30,30,0,0,0,7.11-7.83,22,22,0,0,1-6.13,9,23.51,23.51,0,0,1-9.85,5.11,32.78,32.78,0,0,1-11,.77A35.15,35.15,0,0,1,174.47,116.94Z"/>
        </g>
        <g>
          <path class="cls-7" d="M219.11,158s3.88.16,4.19,3.43-4.61,4.41-7.37,3.44S210.59,157.5,219.11,158Z"/>
          <g>
            <path class="cls-7" d="M211.3,161.32s-19.7,16.26-32.68,13.91c-6.67-1.2-15.74-32.49-15.74-32.49s-2.21-1.75-3,1.64c-.46,2.06,7.5,26.94,15.38,33.35s37.06-10,37.06-10l1.35.88S217.72,159.72,211.3,161.32Z"/>
            <path class="cls-7" d="M211,164.13s11.85-7.79,4.33-10.6-10.61,9.28-10.61,9.28l1.44,3.51"/>
            <path class="cls-7" d="M206.75,169.51s1,3.79,2.71,4.15c3.76.83,13.37-4.4,10.73-7.77s-7.61,1.2-7.61,1.2"/>
            <path class="cls-7" d="M210.16,161.7s6.15-5.9,9-1.95c3.17,4.4-8.19,9.2-8.19,9.2"/>
          </g>
        </g>
      </g>
    </g>
  </g>
</svg>
