<svg xmlns="http://www.w3.org/2000/svg" width="256" height="243" viewBox="0 0 256 243">
  <defs>
    <style>
      .cls-1 {
        isolation: isolate;
      }

      .cls-2 {
        fill: #b73e7b;
      }

      .cls-2, .cls-4 {
        stroke: #561d1d;
      }

      .cls-3 {
        fill: #e585b3;
      }

      .cls-3, .cls-5 {
        stroke: #ffe6e6;
      }

      .cls-10, .cls-3, .cls-5 {
        stroke-width: 0.75px;
      }

      .cls-4 {
        fill: #e4609c;
      }

      .cls-5 {
        fill: #f38fbb;
      }

      .cls-6 {
        fill: #231f20;
      }

      .cls-12, .cls-7, .cls-8 {
        fill: #3b2314;
      }

      .cls-7 {
        stroke: #210f00;
      }

      .cls-10, .cls-11, .cls-13, .cls-7 {
        stroke-miterlimit: 10;
      }

      .cls-16, .cls-7 {
        stroke-width: 0.5px;
      }

      .cls-9 {
        fill: #5d3c2a;
      }

      .cls-10 {
        fill: #895b46;
        stroke: #231f20;
      }

      .cls-10, .cls-13 {
        opacity: 0.3;
      }

      .cls-11 {
        fill: #ffe743;
        stroke: #705b01;
      }

      .cls-12 {
        opacity: 0.24;
      }

      .cls-13 {
        fill: #e0aa24;
        stroke: #eac71c;
        stroke-width: 0.25px;
      }

      .cls-14 {
        fill: #754c28;
      }

      .cls-15 {
        fill: #fbf5b0;
        stroke-width: 0.25px;
      }

      .cls-15, .cls-16 {
        stroke: #832f0a;
        stroke-linecap: round;
        stroke-linejoin: round;
      }

      .cls-16 {
        fill: #fefdeb;
      }

      .cls-17 {
        mix-blend-mode: multiply;
      }

      .cls-18 {
        fill: #f2efda;
      }

      .cls-19 {
        fill: #381b0d;
      }

      .cls-20 {
        fill: #fff;
      }

      .cls-21 {
        fill: #4c4218;
      }
    </style>
  </defs>
  <g class="cls-1">
    <g id="Layer_1" data-name="Layer 1">
      <g id="Bee_01">
        <g id="Bee_lift_wings__01" data-name="Bee lift wings _01">
          <g>
            <path class="cls-2" d="M122.39,91.61s-8.47-15-22-14.75S87.6,95.75,92.1,102.28,109.16,127.71,132,137,127.11,110.17,122.39,91.61Z"/>
            <path class="cls-3" d="M122,92.7S114.16,78.82,101.62,79s-11.84,17.5-7.68,23.55,15.81,23.56,37,32.18S126.38,109.9,122,92.7Z"/>
          </g>
          <g>
            <path class="cls-2" d="M164,137.78s-14.32,6.61-24.48-3.75S114.22,89.2,117.08,66.55c2.5-19.84,15.19-28.68,24.45-24.67,10.79,4.69,10.18,27.31,10.37,40.85C152.24,108,164,137.78,164,137.78Z"/>
            <path class="cls-3" d="M160.94,132.27s-12.95,5.83-22.22-3.51-23.23-40.28-20.78-60.55c2.15-17.74,13.6-25.58,22-21.93,9.82,4.26,9.4,24.5,9.65,36.63C150.07,105.5,160.94,132.27,160.94,132.27Z"/>
          </g>
        </g>
        <g id="Bee_right_Bee_wings_01" data-name="Bee right Bee wings_01">
          <g>
            <path class="cls-4" d="M73.06,119.23s-17-8.27-29.06.35.19,25,8.31,28.13S83.54,160.09,110,154.3,88.86,133.08,73.06,119.23Z"/>
            <path class="cls-5" d="M73.39,120.46s-15.71-7.67-26.92.32.17,23.18,7.7,26.06,28.94,11.47,53.42,6.11S88,133.28,73.39,120.46Z"/>
          </g>
          <g>
            <path class="cls-4" d="M141.43,135.91S130.57,150,115,146.91s-50.77-24.77-62.27-47c-10.07-19.49-4.09-35.37,6.77-37.49,12.67-2.48,26.18,18.35,34.76,30.47C110.21,115.46,141.43,135.91,141.43,135.91Z"/>
            <path class="cls-5" d="M138.23,136.07s-13.13,9.28-27.31,6.6-46-22-56.43-41.82c-9.08-17.38-3.6-31.59,6.27-33.52,11.52-2.25,23.73,16.32,31.49,27.12C106.71,114.59,138.23,136.07,138.23,136.07Z"/>
          </g>
        </g>
        <g>
          <path class="cls-6" d="M195.16,55.89s12.91-29.64,36.91-41.56l1,2S211,26.59,197.17,57.56Z"/>
          <rect class="cls-6" x="233.38" y="1.48" width="9.68" height="21.13" rx="4.84" transform="translate(332.76 231.04) rotate(-116.24)"/>
        </g>
        <g>
          <path class="cls-6" d="M142.42,75.62S118.39,54,91.61,53.09l-.09,2.29s24.3.16,49.76,22.61Z"/>
          <rect class="cls-6" x="80.22" y="43" width="9.68" height="21.13" rx="4.84" transform="translate(28.9 136.93) rotate(-88.23)"/>
        </g>
        <g>
          <g>
            <path class="cls-7" d="M231.47,166.45s-13.43,10-33.88,9.17c0,0-5.81-2.65-8-17.82s-3-15.81-3-15.81-2.83-1.29-2.92.7,2.21,28.64,10.43,35.28c7.17,5.8,38.52-4.89,40.18-7.71S233.12,165.28,231.47,166.45Z"/>
            <path class="cls-7" d="M230.66,172.5s2.55,3.2,4.43,2.61c10.37-3.26,4-10.42,4-10.42s-.14-7.82-3.34-6.7C228.65,160.49,221.48,164.08,230.66,172.5Z"/>
          </g>
          <g>
            <path class="cls-7" d="M241.52,165.76s2.57-.07,2.68,1.78a4.32,4.32,0,0,1-3.61,4.41c-2.36.33-4.53-1.21-2.51-4S241.52,165.76,241.52,165.76Z"/>
            <path class="cls-7" d="M241.39,161s4.63,2.76-.55,6.75-6.37.74-6.59,0,0-2.82,2.59-4.21S241.39,161,241.39,161Z"/>
            <path class="cls-7" d="M227.26,164.83s3.6.08,4.94,1.07,2.73,3-3.4,3.76-4.73-5.27-2.87-6.6L234,157.6c5.57-3.11,7.61.92,7.67,2.43.09,2.3-6.23,6.2-7.88,3.24s.93-4.31.93-4.31"/>
          </g>
        </g>
        <g>
          <path class="cls-8" d="M115.51,204.9s-4.61,10-9,10.23S75.46,202,75.46,202l-1.9,3.33,27.7,12.45s7.56,4.24,12.89-3,7.49-10.12,7.49-10.12Z"/>
          <g>
            <path class="cls-8" d="M69.45,204.24l-2.14,5.33s-.74,5.12-6.64,17.55-20.24,12-19.4,1.48,8.33-29.69,19-32.25a7.11,7.11,0,0,1,3.36-1.69c3.21-.62,6.75,1.22,9.07,4.61l2.78,1.51-3.38,4.85L70,204.28Z"/>
            <path class="cls-9" d="M71.23,205.48l2.63,1.32,3.55-5.18-2.78-1.51c-2.32-3.39-5.86-5.23-9.07-4.61a7.24,7.24,0,0,0-3.37,1.69c-10.65,2.57-18.13,21.71-19,32.25s13.49,11,19.39-1.47,6.65-17.55,6.65-17.55l1.92-4.79Z"/>
            <path class="cls-10" d="M55.83,211.54l6.89,2.56s-4.48,11.23-6.89,14.38-9.76,0-4.88-8.47Z"/>
            <path class="cls-10" d="M59.68,202.63a17.53,17.53,0,0,0,8,3.79l-1.19,2.1s-7.12-1.1-8.11-4.09l1.09-1.85Z"/>
          </g>
          <path class="cls-8" d="M73.86,206.8l3.55-5.18S79.15,207.91,73.86,206.8Z"/>
        </g>
        <g>
          <path class="cls-11" d="M191.29,126.42S189.85,171.8,147,198.88c-16.21,10.26-94.59,12.39-70.56-41.15,13.62-25.47,39.8-23.14,60.46-21.65,4.45.32,11.64-2.94,14.62-5.68l3.58-2.51Z"/>
          <path class="cls-8" d="M129,135.39s-2.42,35.57,44.37,39.17c-2.8,4.44-9.89,11.55-9.89,11.55s-46.91-9.45-45.34-51h5.29Z"/>
          <path class="cls-8" d="M99.9,137.77s-4,50.74,55.06,55.78a43.88,43.88,0,0,1-7.41,5.24,29.51,29.51,0,0,1-8.48,3.45s-47.65-8.67-49.9-59.31c.23-.12,1.15-.79,2.37-1.49a41.23,41.23,0,0,1,8.36-3.67Z"/>
          <path class="cls-8" d="M147.78,132.84s13.76,22.46,36,23.42a45.47,45.47,0,0,1-4.77,9.51s-35.48-7.23-39.26-30l3.61-1c.36-.1.82-.34,1.26-.45Z"/>
          <path class="cls-8" d="M75.36,160.06c-1,1.88-8,15.66.1,28.79s28.27,20.27,48.11,15.75C93.72,202.55,74.58,177.6,75.36,160.06Z"/>
        </g>
        <g>
          <path class="cls-8" d="M42.94,197.73l28.49,13s9.49,3.39,14.3-3.84c4.36-5.5,9.06-12.53,11.38-16.07a2.72,2.72,0,0,1,3.73-.8h0a3.51,3.51,0,0,1,.63,5.38L85.79,212.86s-5.92,5.49-18.86-.48C51.64,205.32,41,200.61,41,200.61Z"/>
          <g>
            <path class="cls-8" d="M35.66,199.17,33.32,205s-.81,5.59-7.27,19.19S3.92,237.34,4.84,225.81,14,193.35,25.59,190.54a7.94,7.94,0,0,1,3.68-1.85c3.52-.67,7.39,1.34,9.92,5l3,1.66-3.75,5.38L36,199.41Z"/>
            <path class="cls-9" d="M37.61,200.53,40.48,202l3.88-5.66-3-1.65c-2.53-3.71-6.41-5.72-9.92-5a7.94,7.94,0,0,0-3.68,1.85C16.07,194.27,7.89,215.21,7,226.73s14.76,12,21.21-1.61,7.27-19.19,7.27-19.19l1.72-4.31Z"/>
            <path class="cls-10" d="M20.76,207.15,28.3,210s-4.9,12.27-7.54,15.73-10.68,0-5.34-9.27Z"/>
            <path class="cls-10" d="M25,197.41a19.12,19.12,0,0,0,8.71,4.15l-1.3,2.29s-7.79-1.2-8.87-4.47l1.19-2Z"/>
          </g>
          <path class="cls-8" d="M44.36,196.31s.23,6.21-3.88,5.66Z"/>
        </g>
        <path class="cls-12" d="M169.38,141.07s-1.27,15.56-22.59,28.07S81,185.05,71.72,172.31c0,0-3,16.54,15.26,27.36,17.6,10.39,50.8,3.62,57.65.61,8.38-3.68,26.24-19.35,34.56-34.73a110,110,0,0,0,9.91-24.66s3.79-13.11,0-15.35c-8.17-4.83-28.38-.58-34.44,2.65a29.9,29.9,0,0,0-4.19,2.93C150.17,131.41,161.8,140.1,169.38,141.07Z"/>
        <g>
          <path class="cls-11" d="M136.15,108.14c6,24.06,30.17,29.68,56.84,24.24s42.28-19.15,36.25-43.21-29-39.87-55.7-34.44C140.34,61.5,130.13,84.08,136.15,108.14Z"/>
          <path class="cls-13" d="M142.14,72.8s-9.42,63.89,70.15,52.68c-.95.14,2,.06-15.76,5.53a102.77,102.77,0,0,1-18.39,2.62c-4.6.09-12.81.73-21.87-3.3a27.43,27.43,0,0,1-12.17-8C132.7,109.5,131.35,87.23,142.14,72.8Z"/>
          <ellipse class="cls-14" cx="190.79" cy="105.33" rx="1.88" ry="3.21" transform="translate(-21.12 54.42) rotate(-15.39)"/>
          <path class="cls-6" d="M135.64,95.19c1.18,1.2,1.54,3.66,2.62,6.33,2.46,6.11,1.65,11.75,1,13.38a37.5,37.5,0,0,1-3.66-10.52A45.3,45.3,0,0,1,135.64,95.19Z"/>
          <path class="cls-6" d="M222.25,75.16s-5,9.46,6.7,17.16a42.27,42.27,0,0,0-3.58-12C224.57,78.7,223.1,76.54,222.25,75.16Z"/>
          <path class="cls-6" d="M187.79,53.33s-9.65-2.41-23.71,3.34C163,60.09,187.5,60.16,187.79,53.33Z"/>
          <g>
            <g>
              <path class="cls-15" d="M192.28,83.9C195.08,93.52,203,99.4,209.85,97S220.1,85,217.3,75.34s-10.67-15.5-17.57-13.14S189.49,74.28,192.28,83.9Z"/>
              <path class="cls-12" d="M193,89.75c2.44,8.38,9.89,13.29,16.65,11s10.27-11,7.84-19.35-9.89-13.29-16.65-11S190.6,81.38,193,89.75Z"/>
              <path class="cls-16" d="M193.18,86c2.43,8.38,9.88,13.29,16.64,11s10.27-11,7.84-19.34-9.89-13.29-16.65-11S190.74,77.62,193.18,86Z"/>
              <g class="cls-17">
                <path class="cls-18" d="M198.19,62.9c-4.63,3.52-6.57,11.27-4.33,19,2.63,9.06,10,14.6,16.55,12.38,4.48-1.54,7.37-6.36,7.87-12.17,0,7.06-3.15,13.15-8.43,15-6.9,2.36-14.77-3.52-17.57-13.14C189.7,75,192.34,66.09,198.19,62.9Z"/>
              </g>
            </g>
            <path class="cls-19" d="M198.74,83.32c.74,4.64,4.32,7.8,8,7.07s6.09-5.07,5.35-9.71-4.31-7.8-8-7.07S198,78.69,198.74,83.32Z"/>
            <path class="cls-20" d="M208.13,78.41a2,2,0,0,0,2.28,1.92,2.41,2.41,0,0,0,1.64-2.76,2,2,0,0,0-2.28-1.91A2.4,2.4,0,0,0,208.13,78.41Z"/>
          </g>
          <g>
            <g>
              <path class="cls-15" d="M151.6,92.75c2.74,9.52,10.51,15.35,17.34,13s10.15-11.92,7.4-21.43S165.83,69,159,71.33,148.85,83.24,151.6,92.75Z"/>
              <path class="cls-12" d="M152.33,98.54c2.39,8.28,9.75,13.15,16.43,10.88s10.17-10.82,7.78-19.1-9.74-13.16-16.43-10.89S149.94,90.26,152.33,98.54Z"/>
              <path class="cls-16" d="M152.48,94.82c2.39,8.28,9.74,13.15,16.43,10.88s10.17-10.82,7.78-19.1-9.75-13.15-16.43-10.88S150.09,86.54,152.48,94.82Z"/>
              <g class="cls-17">
                <path class="cls-18" d="M157.48,72c-4.58,3.47-6.52,11.13-4.32,18.75,2.58,9,9.9,14.45,16.33,12.27,4.44-1.51,7.3-6.27,7.8-12,0,7-3.14,13-8.35,14.76-6.83,2.32-14.6-3.51-17.34-13C149.07,84,151.7,75.15,157.48,72Z"/>
              </g>
            </g>
            <path class="cls-19" d="M158,91.69c.71,4.58,4.24,7.72,7.89,7s6-5,5.3-9.58-4.24-7.72-7.89-7S157.27,87.11,158,91.69Z"/>
            <path class="cls-20" d="M166.68,86a1.88,1.88,0,0,0,2.26,1.75,2.43,2.43,0,0,0,1.74-2.65,1.88,1.88,0,0,0-2.25-1.76A2.44,2.44,0,0,0,166.68,86Z"/>
          </g>
          <path class="cls-21" d="M173.47,115.94a65.46,65.46,0,0,0,10.66,1,40.44,40.44,0,0,0,10.44-1.16,25,25,0,0,0,4.9-1.73c.8-.34,1.54-.78,2.31-1.19s1.47-.92,2.16-1.46a30,30,0,0,0,7.11-7.83,22,22,0,0,1-6.13,9,23.51,23.51,0,0,1-9.85,5.11,32.78,32.78,0,0,1-11,.77A35.15,35.15,0,0,1,173.47,115.94Z"/>
        </g>
        <g>
          <path class="cls-7" d="M218.11,157s3.88.16,4.19,3.43-4.61,4.41-7.37,3.44S209.59,156.5,218.11,157Z"/>
          <g>
            <path class="cls-7" d="M210.3,160.32s-19.7,16.26-32.68,13.91c-6.67-1.2-15.74-32.49-15.74-32.49s-2.21-1.75-3,1.64c-.46,2.06,7.5,26.94,15.38,33.35s37.06-10,37.06-10l1.35.88S216.72,158.72,210.3,160.32Z"/>
            <path class="cls-7" d="M210,163.13s11.85-7.79,4.33-10.6-10.61,9.28-10.61,9.28l1.44,3.51"/>
            <path class="cls-7" d="M205.75,168.51s1,3.79,2.71,4.15c3.76.83,13.37-4.4,10.73-7.77s-7.61,1.2-7.61,1.2"/>
            <path class="cls-7" d="M209.16,160.7s6.15-5.9,9-1.95c3.17,4.4-8.19,9.2-8.19,9.2"/>
          </g>
        </g>
        <path class="cls-13" d="M158.23,61.24S134.85,88,160,117.82c0,0-21.57-11.18-19.07-35.82C142.42,67.15,158.23,61.24,158.23,61.24Z"/>
      </g>
    </g>
  </g>
</svg>
