<svg xmlns="http://www.w3.org/2000/svg" width="74" height="52" viewBox="0 0 74 52">
  <defs>
    <style>
      .cls-1 {
        isolation: isolate;
      }

      .cls-2 {
        fill: #fbf5b0;
        stroke-width: 0.25px;
      }

      .cls-2, .cls-4 {
        stroke: #832f0a;
        stroke-linecap: round;
        stroke-linejoin: round;
      }

      .cls-3 {
        fill: #3b2314;
        opacity: 0.24;
      }

      .cls-4 {
        fill: #fefdeb;
        stroke-width: 0.5px;
      }

      .cls-5 {
        mix-blend-mode: multiply;
      }

      .cls-6 {
        fill: #f2efda;
      }

      .cls-7 {
        fill: #381b0d;
      }

      .cls-8 {
        fill: #fff;
      }

      .cls-9 {
        fill: #ffe743;
        stroke: #705b01;
        stroke-miterlimit: 10;
        stroke-width: 0.75px;
      }
    </style>
  </defs>
  <g class="cls-1">
    <g id="Layer_1" data-name="Layer 1">
      <g id="Bee_03">
        <g>
          <g>
            <g>
              <path class="cls-2" d="M44.28,24.9C47.08,34.52,55,40.4,61.85,38S72.1,26,69.3,16.34,58.63.84,51.73,3.2,41.49,15.28,44.28,24.9Z"/>
              <path class="cls-3" d="M45,30.75c2.44,8.38,9.89,13.29,16.65,11s10.27-11,7.84-19.35-9.89-13.29-16.65-11S42.6,22.38,45,30.75Z"/>
              <path class="cls-4" d="M45.18,27c2.43,8.38,9.88,13.29,16.64,11s10.27-11,7.84-19.34S59.77,5.33,53,7.64,42.74,18.62,45.18,27Z"/>
              <g class="cls-5">
                <path class="cls-6" d="M50.19,3.9c-4.63,3.52-6.57,11.27-4.33,19,2.63,9.06,10,14.6,16.55,12.38,4.48-1.54,7.37-6.36,7.87-12.17,0,7.06-3.15,13.15-8.43,15C55,40.4,47.08,34.52,44.28,24.9,41.7,16,44.34,7.09,50.19,3.9Z"/>
              </g>
            </g>
            <path class="cls-7" d="M50.74,24.32c.74,4.64,4.32,7.8,8,7.07s6.09-5.07,5.35-9.71-4.31-7.8-8-7.07S50,19.69,50.74,24.32Z"/>
            <path class="cls-8" d="M60.13,19.41a2,2,0,0,0,2.28,1.92,2.41,2.41,0,0,0,1.64-2.76,2,2,0,0,0-2.28-1.91A2.4,2.4,0,0,0,60.13,19.41Z"/>
          </g>
          <g>
            <g>
              <path class="cls-2" d="M3.6,33.75c2.74,9.52,10.51,15.35,17.34,13s10.15-11.92,7.4-21.43S17.83,10,11,12.33.85,24.24,3.6,33.75Z"/>
              <path class="cls-3" d="M4.33,39.54c2.39,8.28,9.75,13.15,16.43,10.88s10.17-10.82,7.78-19.1S18.8,18.16,12.11,20.43,1.94,31.26,4.33,39.54Z"/>
              <path class="cls-4" d="M4.48,35.82C6.87,44.1,14.22,49,20.91,46.7s10.17-10.82,7.78-19.1S18.94,14.45,12.26,16.72,2.09,27.54,4.48,35.82Z"/>
              <g class="cls-5">
                <path class="cls-6" d="M9.48,13C4.9,16.48,3,24.14,5.16,31.76c2.58,9,9.9,14.45,16.33,12.27,4.44-1.51,7.3-6.27,7.8-12,0,7-3.14,13-8.35,14.76-6.83,2.32-14.6-3.51-17.34-13C1.07,25,3.7,16.15,9.48,13Z"/>
              </g>
            </g>
            <path class="cls-7" d="M10,32.69c.71,4.58,4.24,7.72,7.89,7s6-5,5.3-9.58-4.24-7.72-7.89-7S9.27,28.11,10,32.69Z"/>
            <path class="cls-8" d="M18.68,27a1.88,1.88,0,0,0,2.26,1.75,2.43,2.43,0,0,0,1.74-2.65,1.88,1.88,0,0,0-2.25-1.76A2.44,2.44,0,0,0,18.68,27Z"/>
          </g>
        </g>
        <g>
          <path class="cls-9" d="M44.5,25.5s13.89,3.1,25.94-4.25c0,0-2-15.19-15-14S43.48,24.88,44.5,25.5Z"/>
          <path class="cls-9" d="M3.5,34.5s13.89,3.1,25.94-4.25c0,0-2-15.19-15-14S2.48,33.88,3.5,34.5Z"/>
        </g>
      </g>
    </g>
  </g>
</svg>
