<svg id="Layer_1" data-name="Layer 1" xmlns="http://www.w3.org/2000/svg" width="34" height="34" viewBox="0 0 34 34">
  <defs>
    <style>
      .cls-1 {
        fill: #000068;
        opacity: 0.4;
      }

      .cls-2 {
        fill: #fff;
      }

      .cls-3 {
        fill: #99350e;
        stroke: #1d1d1b;
        stroke-miterlimit: 10;
        stroke-width: 0.5px;
      }
    </style>
  </defs>
  <g>
    <g>
      <path class="cls-1" d="M4.17,17.47a13,13,0,1,0,13-12.86A12.94,12.94,0,0,0,4.17,17.47Z"/>
      <g>
        <path class="cls-2" d="M3.79,15.08A11.47,11.47,0,0,0,15.34,26.47,11.47,11.47,0,0,0,26.89,15.08a11.55,11.55,0,0,0-23.1,0Z"/>
        <path d="M6.17,15.08A9.17,9.17,0,1,0,15.34,6,9.11,9.11,0,0,0,6.17,15.08Z"/>
        <path class="cls-2" d="M22.93,14.32a9,9,0,0,0-2.38-6.09A8.82,8.82,0,0,1,23.64,15a8.64,8.64,0,0,1-8.46,8.81,8.31,8.31,0,0,1-6.08-2.7,8.24,8.24,0,0,0,5.37,2A8.63,8.63,0,0,0,22.93,14.32Z"/>
        <path class="cls-2" d="M9.13,12.28A3.77,3.77,0,1,0,12.9,8.55,3.76,3.76,0,0,0,9.13,12.28Z"/>
        <path class="cls-2" d="M9,17.73a1.25,1.25,0,1,0,1.25-1.23A1.25,1.25,0,0,0,9,17.73Z"/>
      </g>
    </g>
    <g>
      <path class="cls-3" d="M3.79,15.08A11.47,11.47,0,0,0,15.34,26.47,11.47,11.47,0,0,0,26.89,15.08a11.55,11.55,0,0,0-23.1,0Z"/>
      <path class="cls-3" d="M4.29,18.3c0,.34,10,9,22,0"/>
    </g>
  </g>
</svg>
