<svg xmlns="http://www.w3.org/2000/svg" xmlns:xlink="http://www.w3.org/1999/xlink" width="299" height="229" viewBox="0 0 299 229">
  <defs>
    <style>
      .cls-1 {
        isolation: isolate;
      }

      .cls-2 {
        fill: #e8940f;
      }

      .cls-3 {
        fill: #231f20;
      }

      .cls-4 {
        fill: #8e3411;
      }

      .cls-17, .cls-5 {
        mix-blend-mode: multiply;
      }

      .cls-6 {
        fill: url(#radial-gradient);
      }

      .cls-7 {
        mix-blend-mode: screen;
      }

      .cls-13, .cls-21, .cls-25, .cls-8 {
        fill: #fff;
      }

      .cls-8 {
        opacity: 0.3;
      }

      .cls-9 {
        fill: url(#linear-gradient);
      }

      .cls-10, .cls-22 {
        fill: #c97506;
      }

      .cls-10 {
        mix-blend-mode: color-dodge;
      }

      .cls-11 {
        fill: url(#linear-gradient-2);
      }

      .cls-12 {
        fill: #da5232;
      }

      .cls-13 {
        stroke: #5b5b5b;
      }

      .cls-13, .cls-14, .cls-15, .cls-26 {
        stroke-miterlimit: 10;
        stroke-width: 0.5px;
      }

      .cls-14, .cls-15, .cls-26 {
        stroke: #1d1d1b;
      }

      .cls-14 {
        fill: url(#linear-gradient-3);
      }

      .cls-15 {
        fill: url(#linear-gradient-4);
      }

      .cls-16 {
        fill: url(#linear-gradient-5);
      }

      .cls-17 {
        fill: #abadaf;
      }

      .cls-17, .cls-24 {
        opacity: 0.4;
      }

      .cls-18 {
        opacity: 0.08;
      }

      .cls-19 {
        fill: #da713b;
        opacity: 0.6;
      }

      .cls-20 {
        fill: #fffac4;
        opacity: 0.5;
      }

      .cls-21 {
        opacity: 0.47;
      }

      .cls-23 {
        fill: #e28d4d;
      }

      .cls-24 {
        fill: #000068;
      }

      .cls-26 {
        fill: url(#linear-gradient-6);
      }

      .cls-27 {
        fill: url(#linear-gradient-7);
      }

      .cls-28 {
        fill: #ee982a;
      }

      .cls-29 {
        fill: url(#linear-gradient-8);
      }

      .cls-30 {
        fill: url(#linear-gradient-9);
      }
    </style>
    <radialGradient id="radial-gradient" cx="-1088.9" cy="972.9" r="69.17" gradientTransform="matrix(1.02, -0.12, 0.13, 1.04, 1094.14, -1110.46)" gradientUnits="userSpaceOnUse">
      <stop offset="0" stop-color="#ffeb60"/>
      <stop offset="0.13" stop-color="#fee459"/>
      <stop offset="0.31" stop-color="#fad245"/>
      <stop offset="0.53" stop-color="#f5b326"/>
      <stop offset="0.73" stop-color="#ee9001"/>
      <stop offset="0.74" stop-color="#dd5536"/>
    </radialGradient>
    <linearGradient id="linear-gradient" x1="3283.56" y1="176.25" x2="3320.28" y2="176.25" gradientTransform="matrix(-1, 0, 0, 1, 3388.09, 0)" gradientUnits="userSpaceOnUse">
      <stop offset="0.57" stop-color="#da5934"/>
      <stop offset="0.87" stop-color="#de6435"/>
      <stop offset="0.99" stop-color="#bf6b4e"/>
    </linearGradient>
    <linearGradient id="linear-gradient-2" x1="3158.95" y1="140.39" x2="3225.98" y2="140.39" gradientTransform="matrix(-1, -0.04, -0.04, 1, 3389.57, 65.11)" xlink:href="#linear-gradient"/>
    <linearGradient id="linear-gradient-3" x1="-643.28" y1="109.58" x2="-574.32" y2="109.58" gradientTransform="translate(747.3)" xlink:href="#linear-gradient"/>
    <linearGradient id="linear-gradient-4" x1="-805.03" y1="105.79" x2="-547.85" y2="105.79" gradientTransform="translate(747.3)" xlink:href="#linear-gradient"/>
    <linearGradient id="linear-gradient-5" x1="-673.41" y1="119.89" x2="-447.86" y2="119.89" gradientTransform="translate(747.3)" gradientUnits="userSpaceOnUse">
      <stop offset="0" stop-color="#db5a34"/>
      <stop offset="0.57" stop-color="#dc5931"/>
      <stop offset="0.88" stop-color="#bf6b50"/>
      <stop offset="0.99" stop-color="#005b97"/>
    </linearGradient>
    <linearGradient id="linear-gradient-6" x1="-603.39" y1="120.07" x2="-413.08" y2="120.07" gradientTransform="translate(747.3)" gradientUnits="userSpaceOnUse">
      <stop offset="0.53" stop-color="#b05439"/>
      <stop offset="0.86" stop-color="#624229"/>
    </linearGradient>
    <linearGradient id="linear-gradient-7" x1="-563.97" y1="123.76" x2="-351.41" y2="123.76" xlink:href="#linear-gradient-5"/>
    <linearGradient id="linear-gradient-8" x1="3254.8" y1="135.51" x2="3288.6" y2="135.51" xlink:href="#linear-gradient"/>
    <linearGradient id="linear-gradient-9" x1="3252.95" y1="188.38" x2="3286.76" y2="188.38" xlink:href="#linear-gradient"/>
  </defs>
  <g class="cls-1">
    <g id="Layer_1" data-name="Layer 1">
      <g>
        <g>
          <g>
            <path class="cls-2" d="M96.76,57s-.86-1.33-10.51-9.45S84.06,33.4,89.91,35.34s6.46-.74,11.07-5.05,14.54-13.25,22.69,0c4,5.92,8.88,5.61,15.56,2.95s14.68-.49,17.69,8.87c2.1,5.67,5.56,7.17,12.53,8.74s13.35,3.82,9.1,7.47C177.91,58.89,136.17,42.6,96.76,57Z"/>
            <path class="cls-3" d="M97.19,56.92a16.84,16.84,0,0,0-2.75-2.72c-1.69-1.55-3.43-3-5.17-4.54-2.61-2.23-5.52-4.32-6.83-7.63a4.87,4.87,0,0,1,1.11-5.36c2.37-2.37,5.38-1.16,8.18-.63,4.11.8,6.45-2.55,9.06-5.13A29.23,29.23,0,0,1,110,24.24c5.7-2.28,10.27,1.5,13.24,6.17a9.89,9.89,0,0,0,9.54,4.81c5.19-.59,9.52-3.78,14.9-2.38A12,12,0,0,1,153.77,37c1.79,2.19,2.38,4.93,3.66,7.37,2.06,4,6.29,5.37,10.31,6.37,3.25.81,6.56,1.42,9.57,2.95,1.15.58,2.36,1.54,2.07,3-.12.59-.56,1.59-1.09,1.45-2-.46-3.91-1.11-5.85-1.63C152.47,51,131.34,49,111,52.87a96,96,0,0,0-14.51,4c-.56.2.25.36.51.27,22.83-8.24,47.94-7.09,71.32-1.27,2.67.65,5.3,1.41,7.93,2.16.57.16,2.12.87,2.69.32,4.14-3.88-2.82-6-5.8-6.83-5.05-1.48-11-1.79-14.3-6.5-1.43-2-1.92-4.6-3.17-6.76a13,13,0,0,0-4.88-4.79c-3.24-1.85-7.24-1.8-10.69-.76-2.62.78-5,2-7.79,2.14-3,.22-5.51-1.31-7.42-3.61-1.76-2.1-2.93-4.36-5.13-6.09a10,10,0,0,0-4.67-2c-7-1.12-13.25,5.64-17.6,10.13-1.3,1.36-2.56,2.51-4.66,2.42a27.54,27.54,0,0,1-3.59-.85,8.92,8.92,0,0,0-4.29.35c-3.26,1.05-4.5,4.26-3.25,7.39,1,2.59,3.4,4.44,5.45,6.17s4.09,3.51,6.1,5.33a18.08,18.08,0,0,1,3.07,3C96.46,57.35,97.34,57.14,97.19,56.92Z"/>
          </g>
          <g>
            <path class="cls-4" d="M96.62,44.37a14.31,14.31,0,0,1,1.2,1,29.69,29.69,0,0,1,2.31,2.5,29.1,29.1,0,0,1,2,2.77,12.75,12.75,0,0,1,.78,1.39,14.23,14.23,0,0,1-1.19-1,30.32,30.32,0,0,1-2.32-2.52,29.34,29.34,0,0,1-2-2.77A13.53,13.53,0,0,1,96.62,44.37Z"/>
            <path class="cls-4" d="M101.9,41.62a10,10,0,0,1,.93,1.13,23.61,23.61,0,0,1,1.72,2.7,27.19,27.19,0,0,1,1.38,2.9,10.83,10.83,0,0,1,.47,1.39,12.08,12.08,0,0,1-.94-1.13,30.78,30.78,0,0,1-1.72-2.7A25.67,25.67,0,0,1,102.38,43,10.49,10.49,0,0,1,101.9,41.62Z"/>
            <path class="cls-4" d="M114.44,39s.29.5.65,1.31a25,25,0,0,1,1,3,26.81,26.81,0,0,1,.65,3.11,12.12,12.12,0,0,1,.14,1.45,11,11,0,0,1-.66-1.31,25.25,25.25,0,0,1-1-3,26.88,26.88,0,0,1-.67-3.08A13.25,13.25,0,0,1,114.44,39Z"/>
            <path class="cls-4" d="M121.1,39.91a7,7,0,0,1,.37,1.09,16.79,16.79,0,0,1,.42,2.44,17.14,17.14,0,0,1,0,2.47,7.58,7.58,0,0,1-.16,1.12,6.39,6.39,0,0,1-.38-1.08,14.89,14.89,0,0,1-.41-2.44,14.67,14.67,0,0,1,0-2.47A7.59,7.59,0,0,1,121.1,39.91Z"/>
          </g>
          <g class="cls-5">
            <path class="cls-6" d="M169.44,50.72c-7-1.6-10.44-3.13-12.55-8.88-3-9.51-11-11.72-17.71-9.05s-11.57,3-15.57-3c-3.44-5.67-7.2-7.35-10.72-7.07a11.91,11.91,0,0,1,8.41,6c4.55,8,7.55,9.54,17.57,7.28,15.51-4.48,22,15.27,9.41,10.77s-24.93.13-25.75-4.11-2.72-9.46-2.38-4-1.2,10.54-3.58,3.77-5.22-9.49-3.66-1.82-1.24,10.23-5.34,6-8.69-9.89-6.23-5,4.34,10.06,1.85,7.46-9.07-10.49-7.56-7,7.48,8.91,4.1,9.3a28,28,0,0,0-6.54,2.07,29.87,29.87,0,0,1,3.55,3.48c39.39-14.58,81.17,2,81.81,1.47C182.79,54.63,176.41,52.33,169.44,50.72Z"/>
          </g>
          <g class="cls-7">
            <path class="cls-8" d="M90.82,38.39c11.24.15,11.92-4.56,15.55-9.29s7.46-8.81,14.15-3.33c-7.45-7.32-15.55.11-19.6,3.95-4.61,4.36-5.22,7.06-11.07,5.1-5.26-1.77-11.77,3-6.08,10C83,43.18,81.39,38.27,90.82,38.39Z"/>
          </g>
        </g>
        <g>
          <path class="cls-3" d="M85.69,151.54s-26.95,37.09-14.9,48.53,26.53-1.67,30.93-10.39c6.27-12.39-.4-21.78-.4-21.78Z"/>
          <path class="cls-9" d="M85.81,149.75s-26.95,37.09-14.9,48.53,26.53-1.68,30.93-10.39c6.27-12.39-.4-21.78-.4-21.78Z"/>
          <path class="cls-10" d="M76.45,175.68c2.63-8.85,8.93-23.87,9.67-25.62l0,0c-.9,1.62-9.94,17.93-14.43,32.43a71.63,71.63,0,0,0-2.85,13.11,9.1,9.1,0,0,0,1.8,2.39A18.51,18.51,0,0,0,73.26,200C72.76,196,72.73,188.2,76.45,175.68Zm23.81,14.12a11.29,11.29,0,0,1-4.65-6c-1.56-4.37-4.47-25.58-4.47-25.58s-.25,24.54.93,27.76C93,188.6,94.44,194,95,196A32.56,32.56,0,0,0,100.26,189.8ZM87.83,153s-6.9,20.86-8.2,31.74c-.95,8-2.24,14.2-2.85,17a13.94,13.94,0,0,0,6.57.5,54.25,54.25,0,0,1-1.14-17.65C83.28,174.52,87.83,153,87.83,153Zm1.67,2.12s-3.28,17.44-4.33,29.61c-.76,8.82.3,14.37,1,16.77A23.46,23.46,0,0,0,92.67,198a27,27,0,0,1-3.76-8.62C86.91,179,89.5,155.14,89.5,155.14Zm12.74,30.94a23.73,23.73,0,0,0,1.89-7.1,20,20,0,0,1-3.62-4.17c-3.15-4.84-6.11-13.18-6.11-13.18a109.28,109.28,0,0,0,2.25,14.52A27.84,27.84,0,0,0,102.24,186.08Z"/>
        </g>
        <g>
          <path class="cls-3" d="M162.42,53s2.27-4.12,10.86-13,17.88-17.72,25.91,1.5c8.22,19.63,10,26.63,14.71,37.49,7.25,16.71,13.55,25.1,13.55,25.1l-13.19,20Z"/>
          <path class="cls-11" d="M161.46,54.13s2.26-4.12,10.86-13,17.87-17.72,25.91,1.51c8.21,19.63,10,26.62,14.7,37.48,7.26,16.71,13.56,25.1,13.56,25.1l-13.19,20Z"/>
          <path class="cls-4" d="M203.24,73.91a53.48,53.48,0,0,1,9,4.9c-.66-1.57-1.27-3.08-1.85-4.56-3-1.66-7.8-3.89-12-4.13-6.83-.37-20.43-.59-20.43-.59S197.05,71.33,203.24,73.91Zm13.69,15.15c-.84-1.69-1.69-3.5-2.58-5.45-3.67-2.26-9.25-5.33-13.37-5.86C194.3,76.89,185.7,76,185.7,76s17,3.83,22.83,7.62C211.43,85.52,214.54,87.53,216.93,89.06ZM186,38.82c2.89-1.18,5.92-2.25,8.22-3a11.26,11.26,0,0,0-4.13-3.48,35,35,0,0,0-10.23,8.43c-5.37,6.64-14.28,17.12-14.28,17.12S180.31,41.15,186,38.82Zm13.41,6.93c-.34-.84-.69-1.69-1.07-2.59-.31-.75-.64-1.39-1-2.06-3.17-.08-8.37.3-11.62,3.21-4.92,4.39-20.19,13.57-20.19,13.57S185,47.78,192.09,46.39A33.39,33.39,0,0,1,199.4,45.75ZM219.48,94c-2.82-2-7.38-5.08-10.94-6.44-5.54-2.12-13.89-3.2-13.89-3.2s10,2.62,14.76,5.56c3.06,1.92,8.61,5.53,12.15,7.84C220.92,96.67,220.21,95.4,219.48,94Zm-15-35.44c-.63-1.67-1.32-3.44-2.08-5.37-3.32-1.1-8.19-2.16-11.56-.57-5.57,2.62-23,6.87-23,6.87s19.81-4.61,25.22-3.32C197,57.12,202,58.1,204.51,58.59Zm-6.45,7.22c4.35,1.73,8.42,3.66,11,4.93l-1.56-4.22c-3.55-1.48-10.28-3.91-16.73-4.13a161.07,161.07,0,0,0-18.86.66S190.8,62.93,198.06,65.81Z"/>
        </g>
        <g>
          <path class="cls-12" d="M172.11,166.15s15.45,15.2,24.15,19.27,26.9,9.65,28.14-3.26-7.39-26-4.41-32.82.66-11,.66-11Z"/>
          <path class="cls-4" d="M192.24,168.19a67.7,67.7,0,0,1-1.68,14.34c2,1.06,3.82,2,5.35,2.72-.28-.65-.56-1.36-.85-2.15C192.85,177,192.24,168.19,192.24,168.19Zm-8.32,10.72,1.65.92a85.24,85.24,0,0,1,0-10C185,172.93,184.43,176.08,183.92,178.91Zm40.48,3.25a34.54,34.54,0,0,0-.56-9.52,8.36,8.36,0,0,1-6.38-2.31c-4-3.46-10.53-9.94-10.53-9.94s8.74,9.51,10.61,12.32c1.43,2.15,4.61,9.39,6,12.7A10.12,10.12,0,0,0,224.4,182.16Zm-26.35-16.41s3.6,13.22,2.82,21.58a53.32,53.32,0,0,0,7.3,2.14c-1.78-3.84-5.12-11.09-6.35-14C200,171.19,198.05,165.75,198.05,165.75Zm4.78-2.77s5.81,11.73,8.13,17.29a43.71,43.71,0,0,1,2.26,9.89c3.34.15,6.37-.41,8.44-2.18-1.81-2.31-7.66-9.82-10.95-14.25C207,168.74,202.83,163,202.83,163Z"/>
          <path class="cls-3" d="M224.4,182.16c1.25-12.91-7.39-26-4.41-32.82s.66-11,.66-11c-6.76,5.37-11.06,12.76-8.68,17,4.25,7.54,10.71,14.06,11.17,20.41,1.13,15.46-21.31,12.37-28.18,8.36-7.67-4.47-22.36-18.51-22.36-18.51s-10.36,10.83-3.73,12.18c10.69,2.18,21,5.18,27.31,8.14C204.89,190,223.16,195.07,224.4,182.16Z"/>
          <path class="cls-3" d="M206.07,148.79s3.3,10.36,9.51,15.1c0,0-8-3.51-11.79-14.75Z"/>
          <path class="cls-3" d="M200.49,152.21s12.76,21,18.11,26.84c0,0-15.21-14.74-19-26Z"/>
          <path class="cls-3" d="M198,154.14S205.3,174,209.25,180.9c0,0-11-15-12.3-26.78Z"/>
          <path class="cls-3" d="M194.75,155.44s1.44,21.12,3.33,28.83c0,0-6.4-17.44-4.38-29.14Z"/>
          <path class="cls-3" d="M188.57,159.13s.4,11.9.94,19.82c.9-.52-4.07-9.75-2.22-19.69Z"/>
          <path class="cls-3" d="M182,161.42s.12,5.07.66,13A33,33,0,0,1,181,162.06Z"/>
        </g>
        <g>
          <g>
            <path class="cls-13" d="M203.87,97a59.88,59.88,0,0,0,3.89-13.75c-2.29-2.54-4.58-5.07-6.9-7.58C192.67,66.8,183.78,58.86,173,53.47c-1,6.35-3.12,16.19-6.84,23.12-5.9,11-7.44,16.26-3.85,33.57s-2.82,37.76-3.34,41.17c-.41,2.79,0,16.78,3.43,25.53a125.27,125.27,0,0,0,49.22-19.61c-2.22-7.6.23-16.42-3.89-25.06C202.84,122,199.5,107.53,203.87,97Z"/>
            <path class="cls-13" d="M141.51,119.22c-1.29-9.51-2.82-17.15-2.82-31.42s-14.37-27.45-22.33-37A32.94,32.94,0,0,0,104,41.74a116.89,116.89,0,0,0-24.71,6.37c3.65.35,9.3,1.79,15.23,7.74,10.78,10.83,13.86,20.87,12.83,31.69s3.08,17.42,4.1,23.5-5.39,14.78-18.73,24.81-14.88,13.2-15.14,16.63c-.16,2.28-7.41,6.36-12.14,10.74a265.11,265.11,0,0,0,48.59,13.29q5.32.92,10.43,1.43c4.77-8.73,6-22.68,6.49-32.05C131.5,135.32,142.79,128.72,141.51,119.22Z"/>
            <path class="cls-14" d="M159,151.16c.52-3.43,6.93-24,3.34-41.45s-2-22.7,3.85-33.79c3.72-7,5.8-16.89,6.84-23.28l-1-.48c-10.8-5.22-22.84-8.24-34.62-10A117.16,117.16,0,0,0,104,41.74a32.94,32.94,0,0,1,12.33,9.1c8,9.51,22.33,22.7,22.33,37s1.53,21.91,2.82,31.42-10,16.1-10.53,26.67c-.45,9.37-1.72,23.32-6.49,32.05,13.9,1.46,27-.59,38.36-2.53C159.45,166.61,158.54,154,159,151.16Z"/>
            <path class="cls-15" d="M77.61,152.48c.26-3.43,1.8-6.59,15.14-16.63s19.76-18.74,18.73-24.81-5.12-12.68-4.1-23.5-2-20.86-12.83-31.69c-5.93-6-11.31-7.67-15-8-41.3,15.3-63.57,50-63.57,50s-7.7,4.36-4.1,7.39c-2.54,5.8,1.54,9.24,4.1,13.2,6.39,22,25.09,35.94,49.3,45.3C70.06,159.35,77.45,154.76,77.61,152.48Z"/>
            <path class="cls-13" d="M235,109.28a26.37,26.37,0,0,1-8.9-5.9,102,102,0,0,1,.09,12.67c-.46,11.83,2.57,17.53,2.65,26.76a49.44,49.44,0,0,0,6.85-8.28"/>
            <path class="cls-16" d="M226.19,116.05a109.61,109.61,0,0,0-.14-13c-.28-.32-.58-.64-.89-1-5.87-6.41-11.61-12.93-17.4-19.4a60.66,60.66,0,0,1-3.89,13.84c-4.37,10.56-1,25.08,3.84,35.38,4.12,8.71,1.67,17.58,3.89,25.23a113.56,113.56,0,0,0,17.24-14.31C228.76,133.58,225.73,127.88,226.19,116.05Z"/>
            <path class="cls-17" d="M236.54,127.32a41,41,0,0,1-8.21,9.06,45.8,45.8,0,0,1,.51,6.43,49.44,49.44,0,0,0,6.85-8.28"/>
            <path class="cls-17" d="M159.21,161.57a61.71,61.71,0,0,0,3.17,15.29,124.88,124.88,0,0,0,49.22-19.74,37.18,37.18,0,0,1-1.11-9A129.46,129.46,0,0,1,159.21,161.57Z"/>
            <path class="cls-17" d="M103.79,129.08c10.95-13,7.87-18.66,7.18-22.18a7.85,7.85,0,0,1,.26,2.85c.1.43.18.86.25,1.29,1,6.07-5.39,14.78-18.73,24.81s-14.88,13.2-15.14,16.63c-.16,2.28-7.55,6.87-12.29,11.25,14.72,5.69,31.46,9.69,48.74,12.78q5.32.92,10.43,1.43c2.67-4.88,4.23-11.4,5.18-17.84C101.32,155,94.78,139.8,103.79,129.08Z"/>
            <path class="cls-18" d="M34.67,146.68c-1.2-1,12.32,14.43,47.91,12.67S115.76,172,146.9,169.91s80.7-25.44,87.54-33.53c-9.57,11.26-45.8,45.15-99.86,41.63C81.2,174.49,47,156.89,34.67,146.68Z"/>
          </g>
          <path class="cls-19" d="M151,161.82a121.49,121.49,0,0,1-21.33-1.72c-.95,6.44-2.51,13-5.18,17.84a138.3,138.3,0,0,0,37.89-1.08,61.71,61.71,0,0,1-3.17-15.29C156.54,161.73,153.79,161.82,151,161.82Z"/>
          <path class="cls-19" d="M210.49,148.08a37.18,37.18,0,0,0,1.11,9,113.56,113.56,0,0,0,17.24-14.31,45.8,45.8,0,0,0-.51-6.43A91.85,91.85,0,0,1,210.49,148.08Z"/>
          <path class="cls-20" d="M25.86,89.56s23.69-32.22,61.3-41.74C82,48.61,40.75,72.66,25.86,89.56Z"/>
          <path class="cls-21" d="M92.84,49.17s70.48-17.25,126.93,52.45C211.91,89.3,158.18,24.88,92.84,49.17Z"/>
          <path class="cls-17" d="M64.75,75s17.16,12,14,33.8c-1.9,12.61-13.66,19.83-16.41,20.18,6.4,1.81,19.41-2,21.21-21.46S69.89,76.4,64.75,75Z"/>
          <path class="cls-22" d="M62,73.84s17.17,12,14,33.81c-1.9,12.6-13.66,19.82-16.41,20.18,6.4,1.8,19.41-2,21.21-21.47S67.14,75.24,62,73.84Z"/>
          <path class="cls-23" d="M27.77,94.32s18.17,33,35.94,28.23c4.93-1.28,13.38-17.14,5.53-32.4.43,6-1.84,25.86-10.35,24.85S34.84,106.52,27.77,94.32Z"/>
        </g>
        <g>
          <path class="cls-24" d="M38.38,94.67a13,13,0,1,0,13-12.87A12.93,12.93,0,0,0,38.38,94.67Z"/>
          <g>
            <path class="cls-25" d="M38,92.27a11.55,11.55,0,1,0,11.55-11.4A11.47,11.47,0,0,0,38,92.27Z"/>
            <path d="M40.38,92.27a9.17,9.17,0,1,0,9.17-9A9.11,9.11,0,0,0,40.38,92.27Z"/>
            <path class="cls-25" d="M57.14,91.52a9,9,0,0,0-2.38-6.1,8.89,8.89,0,0,1,3.09,6.74,8.64,8.64,0,0,1-8.46,8.8,8.27,8.27,0,0,1-6.08-2.7,8.2,8.2,0,0,0,5.37,2A8.63,8.63,0,0,0,57.14,91.52Z"/>
            <path class="cls-25" d="M43.33,89.48a3.78,3.78,0,1,0,3.78-3.73A3.76,3.76,0,0,0,43.33,89.48Z"/>
            <path class="cls-25" d="M43.18,94.92a1.25,1.25,0,1,0,1.25-1.22A1.24,1.24,0,0,0,43.18,94.92Z"/>
          </g>
        </g>
        <g>
          <g>
            <path class="cls-13" d="M234.69,134.53c.35,8.41,4.86,15.28,10.64,20.68-1.52-5.59-3-15.71.13-26,3.3-10.75.84-22.58-.84-28.75A39.34,39.34,0,0,1,234,109.28"/>
            <path class="cls-26" d="M274.2,142.72c-4.37-16.9-7.18-17.16,2.06-39.87,6.54-16.09-3.95-27-8.68-31-1.85,1.52-5.71,6.12-15.7,19.42-2.79,3.74-5.18,6.8-7.26,9.26,1.68,6.17,4.14,18,.84,28.75-3.15,10.25-1.65,20.37-.13,26,7.07,6.6,16.07,10.95,21.72,13.11C273.58,164.27,277.65,156,274.2,142.72Z"/>
            <path class="cls-3" d="M280.62,106.55c6.41-21.39-10-35.11-11.29-35.38-.42-.09-.85-.08-1.75.65,4.73,4.05,15.22,14.94,8.68,31-9.24,22.71-6.43,23-2.06,39.87,3.45,13.32-.62,21.55-7.15,25.6a21.93,21.93,0,0,0,5.36,1.59c1.79-.52,12.06-7.93,8.21-25.61C273.43,121.07,276.26,118.7,280.62,106.55Z"/>
            <path class="cls-17" d="M234.69,134.53c.35,8.41,4.86,15.28,10.64,20.68-1.52-5.59-3-15.71.13-26a35.12,35.12,0,0,0,1.19-5.39c-9.05,14.51-5.05-6.49-12.12,5.1"/>
          </g>
          <g>
            <path class="cls-20" d="M266,77s-8.73,8.19-8.21,10,8-4.75,10-7.13S267.28,75.65,266,77Z"/>
            <path class="cls-20" d="M270.36,89.21A50.84,50.84,0,0,0,265.48,94c-2.06,2.38,3.08,1.59,5.64-1.84S272.15,87.62,270.36,89.21Z"/>
            <path class="cls-20" d="M270.85,97.28l-4.43,1.44c-2.21.73-1.37,2.43,2.87,1.3S272.11,97,270.85,97.28Z"/>
            <path class="cls-20" d="M270.89,152.82l-3.24-3.42c-1.63-1.72-2.73-.16.16,3.22S271.68,153.86,270.89,152.82Z"/>
            <path class="cls-20" d="M265.2,162.36l-4-2.4c-2-1.2-2.66.59,1,3S266.23,163.16,265.2,162.36Z"/>
            <path class="cls-20" d="M265.73,140c1.06.31,6.68,5,5.39,7.39S262.14,138.94,265.73,140Z"/>
          </g>
          <path class="cls-27" d="M252.64,149.85c-4.44-8.11,9.93-9.5,2.75-18.66s10.94-15.14,4.44-16.55-9.23-7-5.81-15.13c2.07-4.94,2.13-10.23,2.16-14-1.29,1.7-2.71,3.58-4.3,5.7-2.79,3.74-5.18,6.8-7.26,9.26,1.68,6.17,4.14,18,.84,28.75-3.15,10.25-1.65,20.37-.13,26a59.41,59.41,0,0,0,8.95,6.76C253.58,157.62,255.3,154.67,252.64,149.85Z"/>
        </g>
        <g>
          <path class="cls-3" d="M99.9,111.05S95.07,158.87,112,162.86s23.14-15.52,22.52-25.73c-.86-14.53-11.86-19.51-11.86-19.51Z"/>
          <path class="cls-28" d="M99.06,109.37s-4.82,47.81,12.13,51.81,23.14-15.53,22.53-25.74c-.87-14.53-11.87-19.51-11.87-19.51Z"/>
          <path class="cls-29" d="M104.28,137.79c-2.29-9.4-4.52-26.33-4.78-28.29l0,0c0,2,.46,21.49,4,37a74.53,74.53,0,0,0,4.35,13.36,9.28,9.28,0,0,0,2.89,1.23,19.3,19.3,0,0,0,3.48.47C111.68,158.16,107.52,151.1,104.28,137.79Zm29,.21a11.78,11.78,0,0,1-7.35-2.92c-3.72-3.14-17.56-20.81-17.56-20.81s12.73,22.35,15.5,24.65c2.21,1.83,6.34,5.93,7.93,7.53A34.16,34.16,0,0,0,133.29,138Zm-30.68-26.73s4.77,22.52,9.34,33.06c3.35,7.74,5.47,14,6.38,16.87a14.52,14.52,0,0,0,6.2-3,57.1,57.1,0,0,1-10.35-15.38C109.84,133.14,102.61,111.27,102.61,111.27Zm2.64,1s6.24,17.52,11.71,29.1c4,8.38,7.86,12.86,9.71,14.69a24.63,24.63,0,0,0,4.06-6.68,28.34,28.34,0,0,1-7.95-5.82C115.52,135.3,105.25,112.3,105.25,112.3Zm27.87,21.3a24.74,24.74,0,0,0-2-7.44,20.73,20.73,0,0,1-5.48-1.86c-5.41-2.72-12.49-8.7-12.49-8.7a116,116,0,0,0,9.7,12C126.2,130.93,131.14,132.91,133.12,133.6Z"/>
        </g>
        <g>
          <path class="cls-3" d="M101.75,163.92s-4.83,47.82,12.12,51.81S137,200.21,136.4,190c-.87-14.53-11.86-19.51-11.86-19.51Z"/>
          <path class="cls-28" d="M100.91,162.24S96.08,210.05,113,214.05s23.14-15.53,22.52-25.74c-.87-14.53-11.87-19.51-11.87-19.51Z"/>
          <path class="cls-30" d="M106.12,190.66c-2.28-9.4-4.52-26.33-4.77-28.3h0c0,2,.46,21.49,4,37a73.84,73.84,0,0,0,4.34,13.36,9.57,9.57,0,0,0,2.9,1.23,20.26,20.26,0,0,0,3.47.47C113.52,211,109.36,204,106.12,190.66Zm29,.21a11.74,11.74,0,0,1-7.36-2.93c-3.72-3.13-17.55-20.8-17.55-20.8s12.73,22.35,15.5,24.64c2.21,1.84,6.34,5.94,7.93,7.54A34.71,34.71,0,0,0,135.14,190.87Zm-30.68-26.73s4.77,22.52,9.34,33.06c3.35,7.74,5.47,14,6.37,16.87a14.51,14.51,0,0,0,6.21-3A57,57,0,0,1,116,195.67C111.69,186,104.46,164.14,104.46,164.14Zm2.63,1s6.24,17.52,11.72,29.1c4,8.38,7.86,12.85,9.71,14.69a24.88,24.88,0,0,0,4.06-6.68,28.06,28.06,0,0,1-8-5.82C117.37,188.17,107.09,165.17,107.09,165.17ZM135,186.47a24.75,24.75,0,0,0-2-7.44,20.73,20.73,0,0,1-5.48-1.86C122,174.45,115,168.46,115,168.46a114.21,114.21,0,0,0,9.7,12C128.05,183.8,133,185.78,135,186.47Z"/>
        </g>
      </g>
    </g>
  </g>
</svg>
