<svg xmlns="http://www.w3.org/2000/svg" xmlns:xlink="http://www.w3.org/1999/xlink" width="299" height="229" viewBox="0 0 299 229">
  <defs>
    <style>
      .cls-1 {
        isolation: isolate;
      }

      .cls-2 {
        fill: #e8940f;
      }

      .cls-3 {
        fill: #231f20;
      }

      .cls-4 {
        fill: #8e3411;
      }

      .cls-17, .cls-5 {
        mix-blend-mode: multiply;
      }

      .cls-6 {
        fill: url(#radial-gradient);
      }

      .cls-7 {
        mix-blend-mode: screen;
      }

      .cls-13, .cls-21, .cls-25, .cls-8 {
        fill: #fff;
      }

      .cls-8 {
        opacity: 0.3;
      }

      .cls-9 {
        fill: url(#linear-gradient);
      }

      .cls-10, .cls-22 {
        fill: #c97506;
      }

      .cls-10 {
        mix-blend-mode: color-dodge;
      }

      .cls-11 {
        fill: url(#linear-gradient-2);
      }

      .cls-12 {
        fill: #da5232;
      }

      .cls-13 {
        stroke: #5b5b5b;
      }

      .cls-13, .cls-14, .cls-15, .cls-26 {
        stroke-miterlimit: 10;
        stroke-width: 0.5px;
      }

      .cls-14, .cls-15, .cls-26 {
        stroke: #1d1d1b;
      }

      .cls-14 {
        fill: url(#linear-gradient-3);
      }

      .cls-15 {
        fill: url(#linear-gradient-4);
      }

      .cls-16 {
        fill: url(#linear-gradient-5);
      }

      .cls-17 {
        fill: #abadaf;
      }

      .cls-17, .cls-24 {
        opacity: 0.4;
      }

      .cls-18 {
        opacity: 0.08;
      }

      .cls-19 {
        fill: #da713b;
        opacity: 0.6;
      }

      .cls-20 {
        fill: #fffac4;
        opacity: 0.5;
      }

      .cls-21 {
        opacity: 0.47;
      }

      .cls-23 {
        fill: #e28d4d;
      }

      .cls-24 {
        fill: #000068;
      }

      .cls-26 {
        fill: url(#linear-gradient-6);
      }

      .cls-27 {
        fill: url(#linear-gradient-7);
      }

      .cls-28 {
        fill: #ee982a;
      }

      .cls-29 {
        fill: url(#linear-gradient-8);
      }

      .cls-30 {
        fill: url(#linear-gradient-9);
      }
    </style>
    <radialGradient id="radial-gradient" cx="-1105.2" cy="1110.12" r="69.17" gradientTransform="matrix(1.02, -0.01, 0.02, 1.05, 1224.59, -1150.98)" gradientUnits="userSpaceOnUse">
      <stop offset="0" stop-color="#ffeb60"/>
      <stop offset="0.13" stop-color="#fee459"/>
      <stop offset="0.31" stop-color="#fad245"/>
      <stop offset="0.53" stop-color="#f5b326"/>
      <stop offset="0.73" stop-color="#ee9001"/>
      <stop offset="0.74" stop-color="#dd5536"/>
    </radialGradient>
    <linearGradient id="linear-gradient" x1="2007.23" y1="74.25" x2="2043.95" y2="74.25" gradientTransform="matrix(-0.99, 0.15, 0.15, 0.99, 2081.27, -202.04)" gradientUnits="userSpaceOnUse">
      <stop offset="0.57" stop-color="#da5934"/>
      <stop offset="0.87" stop-color="#de6435"/>
      <stop offset="0.99" stop-color="#bf6b4e"/>
    </linearGradient>
    <linearGradient id="linear-gradient-2" x1="1883.46" y1="114.93" x2="1950.49" y2="114.93" gradientTransform="matrix(-1, -0.04, -0.04, 1, 2114.08, 39.64)" xlink:href="#linear-gradient"/>
    <linearGradient id="linear-gradient-3" x1="-643.28" y1="109.58" x2="-574.32" y2="109.58" gradientTransform="translate(747.3)" xlink:href="#linear-gradient"/>
    <linearGradient id="linear-gradient-4" x1="-805.03" y1="105.79" x2="-547.85" y2="105.79" gradientTransform="translate(747.3)" xlink:href="#linear-gradient"/>
    <linearGradient id="linear-gradient-5" x1="-673.41" y1="119.89" x2="-447.86" y2="119.89" gradientTransform="translate(747.3)" gradientUnits="userSpaceOnUse">
      <stop offset="0" stop-color="#db5a34"/>
      <stop offset="0.57" stop-color="#dc5931"/>
      <stop offset="0.88" stop-color="#bf6b50"/>
      <stop offset="0.99" stop-color="#005b97"/>
    </linearGradient>
    <linearGradient id="linear-gradient-6" x1="-603.39" y1="119.07" x2="-413.08" y2="119.07" gradientTransform="translate(747.3)" gradientUnits="userSpaceOnUse">
      <stop offset="0.53" stop-color="#b05439"/>
      <stop offset="0.86" stop-color="#624229"/>
    </linearGradient>
    <linearGradient id="linear-gradient-7" x1="-563.97" y1="122.76" x2="-351.41" y2="122.76" xlink:href="#linear-gradient-5"/>
    <linearGradient id="linear-gradient-8" x1="1768.68" y1="-454.3" x2="1802.49" y2="-454.3" gradientTransform="matrix(-0.71, 0.7, 0.7, 0.71, 1715.89, -820.82)" xlink:href="#linear-gradient"/>
    <linearGradient id="linear-gradient-9" x1="1974.71" y1="34.76" x2="2008.51" y2="34.76" gradientTransform="matrix(-0.98, 0.18, 0.18, 0.98, 2076.16, -206.12)" xlink:href="#linear-gradient"/>
  </defs>
  <g class="cls-1">
    <g id="Layer_1" data-name="Layer 1">
      <g>
        <g>
          <g>
            <path class="cls-2" d="M96.06,49.84S87,53,84,40c-2.84-12.33,1.91-15,7.53-12.45s6.5-.05,11.54-3.85S118.91,12,125.63,26.08c3.35,6.31,8.24,6.51,15.17,4.56s14.65,1.06,16.66,10.68c1.5,5.85,4.78,7.72,11.55,10s12.87,5.2,8.26,8.39C176.57,60.2,136.77,39.62,96.06,49.84Z"/>
            <path class="cls-3" d="M96.51,49.78a16.83,16.83,0,0,0-2.45-3c-1.52-1.72-5.49.88-7.06-.79-2.37-2.49-2.64-9.15-3.6-12.57a4.87,4.87,0,0,1,1.66-5.22c2.61-2.11,5.47-.59,8.2.24,4,1.22,6.68-1.87,9.55-4.16s6.21-4.62,9.86-5.66c5.91-1.68,10,2.56,12.52,7.52a9.88,9.88,0,0,0,9,5.78c5.22,0,9.86-2.76,15.06-.81a12,12,0,0,1,5.63,4.75c1.55,2.36,1.85,5.15,2.87,7.71,1.63,4.18,5.68,6,9.58,7.41,3.15,1.15,6.38,2.11,9.21,3.94,1.08.7,2.18,1.78,1.75,3.17-.18.58-.73,1.53-1.24,1.33-1.91-.66-3.77-1.51-5.65-2.23-19.29-7.51-40.09-11.72-60.71-10a95.7,95.7,0,0,0-14.85,2.48c-.58.14.21.38.48.32,23.56-5.81,48.41-2,71.06,6.21,2.58.93,5.11,1.95,7.65,3,.56.22,2,1.09,2.65.6,4.52-3.43-2.18-6.24-5.06-7.4-4.87-2-10.74-2.94-13.54-8-1.2-2.18-1.42-4.77-2.44-7.05a12.92,12.92,0,0,0-4.36-5.27c-3-2.18-7-2.55-10.54-1.88-2.69.51-5.18,1.41-8,1.31-3.06-.1-5.35-1.88-7-4.36-1.52-2.27-2.46-4.65-4.46-6.59a10,10,0,0,0-4.44-2.45c-6.86-1.85-13.77,4.22-18.56,8.23-1.44,1.22-2.81,2.23-4.89,1.92a26.57,26.57,0,0,1-3.48-1.22,9,9,0,0,0-4.31-.1c-3.35.71-4.91,3.77-4,7,.76,2.68,1.53,11.09,3.39,13s5.09-2.41,6.89-.39a18.14,18.14,0,0,1,2.74,3.3C95.74,50.13,96.64,50,96.51,49.78Z"/>
          </g>
          <g>
            <path class="cls-4" d="M97.26,37.24a15.26,15.26,0,0,1,1.08,1.16,30.26,30.26,0,0,1,2,2.73,31.36,31.36,0,0,1,1.72,3c.41.85.63,1.46.63,1.46a13.74,13.74,0,0,1-1.08-1.15,31.23,31.23,0,0,1-2.05-2.75,32,32,0,0,1-1.71-3A15.58,15.58,0,0,1,97.26,37.24Z"/>
            <path class="cls-4" d="M102.8,35.06a9.94,9.94,0,0,1,.8,1.22A21.89,21.89,0,0,1,105,39.15a26.79,26.79,0,0,1,1.07,3,11.3,11.3,0,0,1,.32,1.43,13.49,13.49,0,0,1-.81-1.22,28.37,28.37,0,0,1-1.43-2.87,23.43,23.43,0,0,1-1.05-3A10.81,10.81,0,0,1,102.8,35.06Z"/>
            <path class="cls-4" d="M115.54,33.76a13,13,0,0,1,.51,1.37,23.74,23.74,0,0,1,1,6.22,10.18,10.18,0,0,1,0,1.46,10.4,10.4,0,0,1-.52-1.37,24.38,24.38,0,0,1-.7-3.09,25.68,25.68,0,0,1-.35-3.14A13.33,13.33,0,0,1,115.54,33.76Z"/>
            <path class="cls-4" d="M122.07,35.37a7.29,7.29,0,0,1,.25,1.13,16.1,16.1,0,0,1,.16,2.46,17,17,0,0,1-.23,2.46,7.44,7.44,0,0,1-.28,1.1,6.58,6.58,0,0,1-.26-1.12,15.13,15.13,0,0,1-.16-2.47,14.31,14.31,0,0,1,.24-2.45A7,7,0,0,1,122.07,35.37Z"/>
          </g>
          <g class="cls-5">
            <path class="cls-6" d="M169,51.19C162.24,48.86,159,47,157.46,41c-2-9.77-9.73-12.8-16.67-10.85S129,32,125.63,25.55c-2.83-6-6.39-8.07-9.92-8.15a11.89,11.89,0,0,1,7.73,6.82c3.7,8.39,6.52,10.29,16.71,9.09,15.9-2.84,20.25,17.48,8.24,11.69s-24.81-2.48-25.19-6.78-1.7-9.7-1.93-4.28-2.3,10.36-4,3.37-4.2-10-3.45-2.19-2.31,10-5.94,5.46-7.61-10.75-5.67-5.67,3.26,10.46,1.06,7.61-7.93-11.37-6.79-7.73,6.51,9.65,3.1,9.68a28,28,0,0,0-6.72,1.37,30.4,30.4,0,0,1,3.16,3.83c40.71-10.37,80.51,10.53,81.21,10C181.88,56.47,175.78,53.51,169,51.19Z"/>
          </g>
          <g class="cls-7">
            <path class="cls-8" d="M92.12,30.69c11.16,1.32,12.33-3.29,16.44-7.61s8.34-8,14.42-1.84c-6.65-8.06-15.48-1.51-19.92,1.88C98,27,97.14,29.6,91.52,27c-5-2.31-12,1.73-7.09,9.25C83.84,34.63,82.75,29.57,92.12,30.69Z"/>
          </g>
        </g>
        <g>
          <path class="cls-3" d="M85.68,151.51s-21.08,40.73-7.44,50.22,26-5.64,29-14.91c4.33-13.2-3.67-21.48-3.67-21.48Z"/>
          <path class="cls-9" d="M85.53,149.73S64.45,190.45,78.09,200s26-5.65,29-14.92c4.33-13.2-3.68-21.48-3.68-21.48Z"/>
          <path class="cls-10" d="M80.17,176.78c1.27-9.15,5.24-24.95,5.7-26.78v0c-.66,1.74-7.14,19.22-9.4,34.23a70.83,70.83,0,0,0-.84,13.38,9.08,9.08,0,0,0,2.14,2.1,19.63,19.63,0,0,0,2.91,1.65C79.58,197.44,78.37,189.71,80.17,176.78Zm25.66,10.37a11.26,11.26,0,0,1-5.49-5.18c-2.2-4.09-8.27-24.61-8.27-24.61s3.44,24.29,5.09,27.3c1.32,2.4,3.54,7.49,4.39,9.46A32.7,32.7,0,0,0,105.83,187.15ZM88,152.66s-3.68,21.66-3.33,32.61c.25,8-.08,14.38-.27,17.2A13.94,13.94,0,0,0,91,202,54.24,54.24,0,0,1,87.2,184.7C86.74,174.6,88,152.66,88,152.66Zm2,1.85s-.62,17.73.17,29.92c.58,8.83,2.46,14.16,3.46,16.44a23.18,23.18,0,0,0,5.94-4.5,27.24,27.24,0,0,1-5-8C91,178.51,90,154.51,90,154.51Zm17.24,28.67a23.69,23.69,0,0,0,.81-7.31,19.44,19.44,0,0,1-4.21-3.58c-3.84-4.31-8-12.1-8-12.1a109,109,0,0,0,4.41,14C102,178.38,105.71,181.87,107.22,183.18Z"/>
        </g>
        <g>
          <path class="cls-3" d="M162.42,53s2.27-4.12,10.86-13,17.88-17.72,25.91,1.5c8.22,19.63,10,26.63,14.71,37.49,7.25,16.71,13.55,25.1,13.55,25.1l-13.19,20Z"/>
          <path class="cls-11" d="M161.46,54.13s2.26-4.12,10.86-13,17.87-17.72,25.91,1.51c8.21,19.63,10,26.62,14.7,37.48,7.26,16.71,13.56,25.1,13.56,25.1l-13.19,20Z"/>
          <path class="cls-4" d="M203.24,73.91a53.48,53.48,0,0,1,9,4.9c-.66-1.57-1.27-3.08-1.85-4.56-3-1.66-7.8-3.89-12-4.13-6.83-.37-20.43-.59-20.43-.59S197.05,71.33,203.24,73.91Zm13.69,15.15c-.84-1.69-1.69-3.5-2.58-5.45-3.67-2.26-9.25-5.33-13.37-5.86C194.3,76.89,185.7,76,185.7,76s17,3.83,22.83,7.62C211.43,85.52,214.54,87.53,216.93,89.06ZM186,38.82c2.89-1.18,5.92-2.25,8.22-3a11.26,11.26,0,0,0-4.13-3.48,35,35,0,0,0-10.23,8.43c-5.37,6.64-14.28,17.12-14.28,17.12S180.31,41.15,186,38.82Zm13.41,6.93c-.34-.84-.69-1.69-1.07-2.59-.31-.75-.64-1.39-1-2.06-3.17-.08-8.37.3-11.62,3.21-4.92,4.39-20.19,13.57-20.19,13.57S185,47.78,192.09,46.39A33.39,33.39,0,0,1,199.4,45.75ZM219.48,94c-2.82-2-7.38-5.08-10.94-6.44-5.54-2.12-13.89-3.2-13.89-3.2s10,2.62,14.76,5.56c3.06,1.92,8.61,5.53,12.15,7.84C220.92,96.67,220.21,95.4,219.48,94Zm-15-35.44c-.63-1.67-1.32-3.44-2.08-5.37-3.32-1.1-8.19-2.16-11.56-.57-5.57,2.62-23,6.87-23,6.87s19.81-4.61,25.22-3.32C197,57.12,202,58.1,204.51,58.59Zm-6.45,7.22c4.35,1.73,8.42,3.66,11,4.93l-1.56-4.22c-3.55-1.48-10.28-3.91-16.73-4.13a161.07,161.07,0,0,0-18.86.66S190.8,62.93,198.06,65.81Z"/>
        </g>
        <g>
          <path class="cls-12" d="M172.11,166.15s15.45,15.2,24.15,19.27,26.9,9.65,28.14-3.26-7.39-26-4.41-32.82.66-11,.66-11Z"/>
          <path class="cls-4" d="M192.24,168.19a67.7,67.7,0,0,1-1.68,14.34c2,1.06,3.82,2,5.35,2.72-.28-.65-.56-1.36-.85-2.15C192.85,177,192.24,168.19,192.24,168.19Zm-8.32,10.72,1.65.92a85.24,85.24,0,0,1,0-10C185,172.93,184.43,176.08,183.92,178.91Zm40.48,3.25a34.54,34.54,0,0,0-.56-9.52,8.36,8.36,0,0,1-6.38-2.31c-4-3.46-10.53-9.94-10.53-9.94s8.74,9.51,10.61,12.32c1.43,2.15,4.61,9.39,6,12.7A10.12,10.12,0,0,0,224.4,182.16Zm-26.35-16.41s3.6,13.22,2.82,21.58a53.32,53.32,0,0,0,7.3,2.14c-1.78-3.84-5.12-11.09-6.35-14C200,171.19,198.05,165.75,198.05,165.75Zm4.78-2.77s5.81,11.73,8.13,17.29a43.71,43.71,0,0,1,2.26,9.89c3.34.15,6.37-.41,8.44-2.18-1.81-2.31-7.66-9.82-10.95-14.25C207,168.74,202.83,163,202.83,163Z"/>
          <path class="cls-3" d="M224.4,182.16c1.25-12.91-7.39-26-4.41-32.82s.66-11,.66-11c-6.76,5.37-11.06,12.76-8.68,17,4.25,7.54,10.71,14.06,11.17,20.41,1.13,15.46-21.31,12.37-28.18,8.36-7.67-4.47-22.36-18.51-22.36-18.51s-10.36,10.83-3.73,12.18c10.69,2.18,21,5.18,27.31,8.14C204.89,190,223.16,195.07,224.4,182.16Z"/>
          <path class="cls-3" d="M206.07,148.79s3.3,10.36,9.51,15.1c0,0-8-3.51-11.79-14.75Z"/>
          <path class="cls-3" d="M200.49,152.21s12.76,21,18.11,26.84c0,0-15.21-14.74-19-26Z"/>
          <path class="cls-3" d="M198,154.14S205.3,174,209.25,180.9c0,0-11-15-12.3-26.78Z"/>
          <path class="cls-3" d="M194.75,155.44s1.44,21.12,3.33,28.83c0,0-6.4-17.44-4.38-29.14Z"/>
          <path class="cls-3" d="M188.57,159.13s.4,11.9.94,19.82c.9-.52-4.07-9.75-2.22-19.69Z"/>
          <path class="cls-3" d="M182,161.42s.12,5.07.66,13A33,33,0,0,1,181,162.06Z"/>
        </g>
        <g>
          <g>
            <path class="cls-13" d="M203.87,97a59.88,59.88,0,0,0,3.89-13.75c-2.29-2.54-4.58-5.07-6.9-7.58C192.67,66.8,183.78,58.86,173,53.47c-1,6.35-3.12,16.19-6.84,23.12-5.9,11-7.44,16.26-3.85,33.57s-2.82,37.76-3.34,41.17c-.41,2.79,0,16.78,3.43,25.53a125.27,125.27,0,0,0,49.22-19.61c-2.22-7.6.23-16.42-3.89-25.06C202.84,122,199.5,107.53,203.87,97Z"/>
            <path class="cls-13" d="M141.51,119.22c-1.29-9.51-2.82-17.15-2.82-31.42s-14.37-27.45-22.33-37A32.94,32.94,0,0,0,104,41.74a116.89,116.89,0,0,0-24.71,6.37c3.65.35,9.3,1.79,15.23,7.74,10.78,10.83,13.86,20.87,12.83,31.69s3.08,17.42,4.1,23.5-5.39,14.78-18.73,24.81-14.88,13.2-15.14,16.63c-.16,2.28-7.41,6.36-12.14,10.74a265.11,265.11,0,0,0,48.59,13.29q5.32.92,10.43,1.43c4.77-8.73,6-22.68,6.49-32.05C131.5,135.32,142.79,128.72,141.51,119.22Z"/>
            <path class="cls-14" d="M159,151.16c.52-3.43,6.93-24,3.34-41.45s-2-22.7,3.85-33.79c3.72-7,5.8-16.89,6.84-23.28l-1-.48c-10.8-5.22-22.84-8.24-34.62-10A117.16,117.16,0,0,0,104,41.74a32.94,32.94,0,0,1,12.33,9.1c8,9.51,22.33,22.7,22.33,37s1.53,21.91,2.82,31.42-10,16.1-10.53,26.67c-.45,9.37-1.72,23.32-6.49,32.05,13.9,1.46,27-.59,38.36-2.53C159.45,166.61,158.54,154,159,151.16Z"/>
            <path class="cls-15" d="M77.61,152.48c.26-3.43,1.8-6.59,15.14-16.63s19.76-18.74,18.73-24.81-5.12-12.68-4.1-23.5-2-20.86-12.83-31.69c-5.93-6-11.31-7.67-15-8-41.3,15.3-63.57,50-63.57,50s-7.7,4.36-4.1,7.39c-2.54,5.8,1.54,9.24,4.1,13.2,6.39,22,25.09,35.94,49.3,45.3C70.06,159.35,77.45,154.76,77.61,152.48Z"/>
            <path class="cls-13" d="M235,109.28a26.37,26.37,0,0,1-8.9-5.9,102,102,0,0,1,.09,12.67c-.46,11.83,2.57,17.53,2.65,26.76a49.44,49.44,0,0,0,6.85-8.28"/>
            <path class="cls-16" d="M226.19,116.05a109.61,109.61,0,0,0-.14-13c-.28-.32-.58-.64-.89-1-5.87-6.41-11.61-12.93-17.4-19.4a60.66,60.66,0,0,1-3.89,13.84c-4.37,10.56-1,25.08,3.84,35.38,4.12,8.71,1.67,17.58,3.89,25.23a113.56,113.56,0,0,0,17.24-14.31C228.76,133.58,225.73,127.88,226.19,116.05Z"/>
            <path class="cls-17" d="M236.54,127.32a41,41,0,0,1-8.21,9.06,45.8,45.8,0,0,1,.51,6.43,49.44,49.44,0,0,0,6.85-8.28"/>
            <path class="cls-17" d="M159.21,161.57a61.71,61.71,0,0,0,3.17,15.29,124.88,124.88,0,0,0,49.22-19.74,37.18,37.18,0,0,1-1.11-9A129.46,129.46,0,0,1,159.21,161.57Z"/>
            <path class="cls-17" d="M103.79,129.08c10.95-13,7.87-18.66,7.18-22.18a7.85,7.85,0,0,1,.26,2.85c.1.43.18.86.25,1.29,1,6.07-5.39,14.78-18.73,24.81s-14.88,13.2-15.14,16.63c-.16,2.28-7.55,6.87-12.29,11.25,14.72,5.69,31.46,9.69,48.74,12.78q5.32.92,10.43,1.43c2.67-4.88,4.23-11.4,5.18-17.84C101.32,155,94.78,139.8,103.79,129.08Z"/>
            <path class="cls-18" d="M34.67,146.68c-1.2-1,12.32,14.43,47.91,12.67S115.76,172,146.9,169.91s80.7-25.44,87.54-33.53c-9.57,11.26-45.8,45.15-99.86,41.63C81.2,174.49,47,156.89,34.67,146.68Z"/>
          </g>
          <path class="cls-19" d="M151,161.82a121.49,121.49,0,0,1-21.33-1.72c-.95,6.44-2.51,13-5.18,17.84a138.3,138.3,0,0,0,37.89-1.08,61.71,61.71,0,0,1-3.17-15.29C156.54,161.73,153.79,161.82,151,161.82Z"/>
          <path class="cls-19" d="M210.49,148.08a37.18,37.18,0,0,0,1.11,9,113.56,113.56,0,0,0,17.24-14.31,45.8,45.8,0,0,0-.51-6.43A91.85,91.85,0,0,1,210.49,148.08Z"/>
          <path class="cls-20" d="M25.86,89.56s23.69-32.22,61.3-41.74C82,48.61,40.75,72.66,25.86,89.56Z"/>
          <path class="cls-21" d="M92.84,49.17s70.48-17.25,126.93,52.45C211.91,89.3,158.18,24.88,92.84,49.17Z"/>
          <path class="cls-17" d="M64.75,75s17.16,12,14,33.8c-1.9,12.61-13.66,19.83-16.41,20.18,6.4,1.81,19.41-2,21.21-21.46S69.89,76.4,64.75,75Z"/>
          <path class="cls-22" d="M62,73.84s17.17,12,14,33.81c-1.9,12.6-13.66,19.82-16.41,20.18,6.4,1.8,19.41-2,21.21-21.47S67.14,75.24,62,73.84Z"/>
          <path class="cls-23" d="M27.77,94.32s18.17,33,35.94,28.23c4.93-1.28,13.38-17.14,5.53-32.4.43,6-1.84,25.86-10.35,24.85S34.84,106.52,27.77,94.32Z"/>
        </g>
        <g>
          <path class="cls-24" d="M38.38,94.67a13,13,0,1,0,13-12.87A12.93,12.93,0,0,0,38.38,94.67Z"/>
          <g>
            <path class="cls-25" d="M38,92.27a11.55,11.55,0,1,0,11.55-11.4A11.47,11.47,0,0,0,38,92.27Z"/>
            <path d="M40.38,92.27a9.17,9.17,0,1,0,9.17-9A9.11,9.11,0,0,0,40.38,92.27Z"/>
            <path class="cls-25" d="M57.14,91.52a9,9,0,0,0-2.38-6.1,8.89,8.89,0,0,1,3.09,6.74,8.64,8.64,0,0,1-8.46,8.8,8.27,8.27,0,0,1-6.08-2.7,8.2,8.2,0,0,0,5.37,2A8.63,8.63,0,0,0,57.14,91.52Z"/>
            <path class="cls-25" d="M43.33,89.48a3.78,3.78,0,1,0,3.78-3.73A3.76,3.76,0,0,0,43.33,89.48Z"/>
            <path class="cls-25" d="M43.18,94.92a1.25,1.25,0,1,0,1.25-1.22A1.24,1.24,0,0,0,43.18,94.92Z"/>
          </g>
        </g>
        <g>
          <g>
            <path class="cls-13" d="M234.69,133.53c.35,8.41,4.86,15.28,10.64,20.68-1.52-5.59-3-15.71.13-26,3.3-10.75.84-22.58-.84-28.75A39.34,39.34,0,0,1,234,108.28"/>
            <path class="cls-26" d="M274.2,141.72c-4.37-16.9-7.18-17.16,2.06-39.87,6.54-16.09-3.95-27-8.68-31-1.85,1.52-5.71,6.12-15.7,19.42-2.79,3.74-5.18,6.8-7.26,9.26,1.68,6.17,4.14,18,.84,28.75-3.15,10.25-1.65,20.37-.13,26,7.07,6.6,16.07,10.95,21.72,13.11C273.58,163.27,277.65,155,274.2,141.72Z"/>
            <path class="cls-3" d="M280.62,105.55c6.41-21.39-10-35.11-11.29-35.38-.42-.09-.85-.08-1.75.65,4.73,4.05,15.22,14.94,8.68,31-9.24,22.71-6.43,23-2.06,39.87,3.45,13.32-.62,21.55-7.15,25.6a21.93,21.93,0,0,0,5.36,1.59c1.79-.52,12.06-7.93,8.21-25.61C273.43,120.07,276.26,117.7,280.62,105.55Z"/>
            <path class="cls-17" d="M234.69,133.53c.35,8.41,4.86,15.28,10.64,20.68-1.52-5.59-3-15.71.13-26a35.12,35.12,0,0,0,1.19-5.39c-9.05,14.51-5.05-6.49-12.12,5.1"/>
          </g>
          <g>
            <path class="cls-20" d="M266,76s-8.73,8.19-8.21,10,8-4.75,10-7.13S267.28,74.65,266,76Z"/>
            <path class="cls-20" d="M270.36,88.21A50.84,50.84,0,0,0,265.48,93c-2.06,2.38,3.08,1.59,5.64-1.84S272.15,86.62,270.36,88.21Z"/>
            <path class="cls-20" d="M270.85,96.28l-4.43,1.44c-2.21.73-1.37,2.43,2.87,1.3S272.11,96,270.85,96.28Z"/>
            <path class="cls-20" d="M270.89,151.82l-3.24-3.42c-1.63-1.72-2.73-.16.16,3.22S271.68,152.86,270.89,151.82Z"/>
            <path class="cls-20" d="M265.2,161.36l-4-2.4c-2-1.2-2.66.59,1,3S266.23,162.16,265.2,161.36Z"/>
            <path class="cls-20" d="M265.73,139c1.06.31,6.68,5,5.39,7.39S262.14,137.94,265.73,139Z"/>
          </g>
          <path class="cls-27" d="M252.64,148.85c-4.44-8.11,9.93-9.5,2.75-18.66s10.94-15.14,4.44-16.55-9.23-7-5.81-15.13c2.07-4.94,2.13-10.23,2.16-14-1.29,1.7-2.71,3.58-4.3,5.7-2.79,3.74-5.18,6.8-7.26,9.26,1.68,6.17,4.14,18,.84,28.75-3.15,10.25-1.65,20.37-.13,26a59.41,59.41,0,0,0,8.95,6.76C253.58,156.62,255.3,153.67,252.64,148.85Z"/>
        </g>
        <g>
          <path class="cls-3" d="M100.32,110.1s30.29,37.32,45.13,28.2,5.47-27.33-2.17-34.14c-10.86-9.69-22.17-5.47-22.17-5.47Z"/>
          <path class="cls-28" d="M98.54,109.5s30.29,37.31,45.12,28.19,5.47-27.32-2.16-34.13c-10.86-9.69-22.17-5.47-22.17-5.47Z"/>
          <path class="cls-29" d="M122.28,126c-8.25-5-21.77-15.49-23.34-16.7h0c1.39,1.35,15.47,14.91,28.94,23.37a74.68,74.68,0,0,0,12.51,6.42,9.19,9.19,0,0,0,2.91-1.18,18.45,18.45,0,0,0,2.8-2.11C141.88,135.21,134,133.13,122.28,126ZM143,105.68a11.77,11.77,0,0,1-7.28,3.1c-4.85.41-27.11-2.37-27.11-2.37S133.39,113.28,137,113c2.86-.26,8.68-.26,10.93-.25A34,34,0,0,0,143,105.68Zm-40.6,2.66s19.26,12.62,29.93,16.87c7.83,3.13,13.78,6.1,16.41,7.47a14.54,14.54,0,0,0,2.27-6.52,57.11,57.11,0,0,1-18.17-3.61C122.94,118.76,102.4,108.34,102.4,108.34Zm2.59-1.12s16.78,8,28.83,12.38c8.72,3.15,14.63,3.57,17.24,3.57a24.9,24.9,0,0,0-1.83-7.6,28.12,28.12,0,0,1-9.74,1.48C128.5,116.29,105,107.22,105,107.22Zm34.78-4.54a25,25,0,0,0-6.68-3.85,20.3,20.3,0,0,1-5.2,2.55c-5.76,1.89-15,2.63-15,2.63a114.89,114.89,0,0,0,15.31,1.64C133,105.66,137.88,103.58,139.77,102.68Z"/>
        </g>
        <g>
          <path class="cls-3" d="M102.28,163.14s3.8,47.91,21.2,48.81,20-19.41,17.56-29.35c-3.45-14.14-15.16-17.08-15.16-17.08Z"/>
          <path class="cls-28" d="M101.15,161.63s3.81,47.91,21.2,48.81,20-19.41,17.56-29.35C136.46,167,124.75,164,124.75,164Z"/>
          <path class="cls-30" d="M111.37,188.67c-3.93-8.84-9.15-25.1-9.76-27h0c.38,1.91,4.3,21.06,10.6,35.67a75.08,75.08,0,0,0,6.66,12.37,9.66,9.66,0,0,0,3.07.69,19.78,19.78,0,0,0,3.5-.16C122.29,207.38,116.94,201.18,111.37,188.67Zm28.58-5a11.81,11.81,0,0,1-7.75-1.57c-4.23-2.42-21-17.33-21-17.33s16.53,19.71,19.66,21.48c2.5,1.4,7.3,4.7,9.15,6A34,34,0,0,0,140,183.69Zm-35-20.82s8.72,21.31,15.1,30.86c4.68,7,7.9,12.84,9.29,15.46a14.71,14.71,0,0,0,5.56-4.09A57.06,57.06,0,0,1,122,191.83C116,183.09,105,162.87,105,162.87Zm2.78.55S117,179.53,124.49,190c5.41,7.54,10,11.24,12.19,12.71a25,25,0,0,0,2.8-7.29,28.52,28.52,0,0,1-8.87-4.3C122,184.21,107.77,163.42,107.77,163.42Zm31.22,16a24.69,24.69,0,0,0-3.33-6.95,20.83,20.83,0,0,1-5.72-.85c-5.81-1.71-13.85-6.33-13.85-6.33a114,114,0,0,0,11.69,10C131.71,178,136.92,179.06,139,179.38Z"/>
        </g>
      </g>
    </g>
  </g>
</svg>
