<svg xmlns="http://www.w3.org/2000/svg" xmlns:xlink="http://www.w3.org/1999/xlink" width="299" height="229" viewBox="0 0 299 229">
  <defs>
    <style>
      .cls-1 {
        isolation: isolate;
      }

      .cls-2 {
        fill: #e8940f;
      }

      .cls-3 {
        fill: #231f20;
      }

      .cls-4 {
        fill: #8e3411;
      }

      .cls-17, .cls-5 {
        mix-blend-mode: multiply;
      }

      .cls-6 {
        fill: url(#radial-gradient);
      }

      .cls-7 {
        opacity: 0.3;
      }

      .cls-13, .cls-21, .cls-8 {
        fill: #fff;
      }

      .cls-9 {
        fill: url(#linear-gradient);
      }

      .cls-10, .cls-22 {
        fill: #c97506;
      }

      .cls-10 {
        mix-blend-mode: color-dodge;
      }

      .cls-11 {
        fill: url(#linear-gradient-2);
      }

      .cls-12 {
        fill: #da5232;
      }

      .cls-13 {
        stroke: #5b5b5b;
      }

      .cls-13, .cls-14, .cls-15, .cls-25 {
        stroke-miterlimit: 10;
        stroke-width: 0.5px;
      }

      .cls-14, .cls-15, .cls-25 {
        stroke: #1d1d1b;
      }

      .cls-14 {
        fill: url(#linear-gradient-3);
      }

      .cls-15 {
        fill: url(#linear-gradient-4);
      }

      .cls-16 {
        fill: url(#linear-gradient-5);
      }

      .cls-17 {
        fill: #abadaf;
      }

      .cls-17, .cls-24 {
        opacity: 0.4;
      }

      .cls-18 {
        opacity: 0.08;
      }

      .cls-19 {
        fill: #da713b;
        opacity: 0.6;
      }

      .cls-20 {
        fill: #fffac4;
        opacity: 0.5;
      }

      .cls-21 {
        opacity: 0.47;
      }

      .cls-23 {
        fill: #e28d4d;
      }

      .cls-24 {
        fill: #000068;
      }

      .cls-25 {
        fill: url(#linear-gradient-6);
      }

      .cls-26 {
        fill: url(#linear-gradient-7);
      }

      .cls-27 {
        fill: #ee982a;
      }

      .cls-28 {
        fill: url(#linear-gradient-8);
      }

      .cls-29 {
        fill: url(#linear-gradient-9);
      }
    </style>
    <radialGradient id="radial-gradient" cx="-1113.74" cy="1089.76" r="69.17" gradientTransform="matrix(1.02, -0.05, 0.06, 1.05, 1182.16, -1174.55)" gradientUnits="userSpaceOnUse">
      <stop offset="0" stop-color="#ffeb60"/>
      <stop offset="0.13" stop-color="#fee459"/>
      <stop offset="0.31" stop-color="#fad245"/>
      <stop offset="0.53" stop-color="#f5b326"/>
      <stop offset="0.73" stop-color="#ee9001"/>
      <stop offset="0.74" stop-color="#dd5536"/>
    </radialGradient>
    <linearGradient id="linear-gradient" x1="1373.34" y1="152.52" x2="1410.06" y2="152.52" gradientTransform="matrix(-1, 0.1, 0.1, 1, 1458.8, -110.76)" gradientUnits="userSpaceOnUse">
      <stop offset="0.57" stop-color="#da5934"/>
      <stop offset="0.87" stop-color="#de6435"/>
      <stop offset="0.99" stop-color="#bf6b4e"/>
    </linearGradient>
    <linearGradient id="linear-gradient-2" x1="1248.52" y1="80.61" x2="1315.54" y2="80.61" gradientTransform="matrix(-1, 0, 0, 1, 1475.25, 0.33)" xlink:href="#linear-gradient"/>
    <linearGradient id="linear-gradient-3" x1="-643.28" y1="109.58" x2="-574.32" y2="109.58" gradientTransform="translate(747.3)" xlink:href="#linear-gradient"/>
    <linearGradient id="linear-gradient-4" x1="-805.03" y1="105.79" x2="-547.85" y2="105.79" gradientTransform="translate(747.3)" xlink:href="#linear-gradient"/>
    <linearGradient id="linear-gradient-5" x1="-673.41" y1="119.89" x2="-447.86" y2="119.89" gradientTransform="translate(747.3)" gradientUnits="userSpaceOnUse">
      <stop offset="0" stop-color="#db5a34"/>
      <stop offset="0.57" stop-color="#dc5931"/>
      <stop offset="0.88" stop-color="#bf6b50"/>
      <stop offset="0.99" stop-color="#005b97"/>
    </linearGradient>
    <linearGradient id="linear-gradient-6" x1="-579.95" y1="150.36" x2="-418.8" y2="150.36" gradientTransform="translate(752.54 31.45) rotate(6.89)" gradientUnits="userSpaceOnUse">
      <stop offset="0.53" stop-color="#b05439"/>
      <stop offset="0.86" stop-color="#624229"/>
    </linearGradient>
    <linearGradient id="linear-gradient-7" x1="-546.51" y1="153.85" x2="-366.76" y2="153.85" gradientTransform="translate(752.54 31.45) rotate(6.89)" xlink:href="#linear-gradient-5"/>
    <linearGradient id="linear-gradient-8" x1="1345.38" y1="42.53" x2="1379.18" y2="42.53" gradientTransform="matrix(-0.93, 0.36, 0.36, 0.93, 1378.02, -407.08)" xlink:href="#linear-gradient"/>
    <linearGradient id="linear-gradient-9" x1="1344.87" y1="163.69" x2="1378.68" y2="163.69" gradientTransform="matrix(-0.99, 0.1, 0.1, 0.99, 1459.34, -114.35)" xlink:href="#linear-gradient"/>
  </defs>
  <g class="cls-1">
    <g id="Layer_1" data-name="Layer 1">
      <g>
        <g>
          <g>
            <path class="cls-2" d="M96.2,52.67S90.7,53.41,85,44c-6.53-10.79,0-15.7,5.72-13.4s6.49-.34,11.36-4.35,15.33-12.33,22.65,1.41c3.61,6.16,8.51,6.15,15.34,3.91s14.69.42,17.11,10c1.74,5.78,5.1,7.49,12,9.49s13.08,4.64,8.61,8C177.08,59.56,136.43,40.71,96.2,52.67Z"/>
            <path class="cls-3" d="M96.64,52.59a16.83,16.83,0,0,0-2.57-2.89c-1.6-1.64-5.43-2.1-7.07-3.7-2.47-2.38-3-5.81-4.16-9.19a4.9,4.9,0,0,1,1.44-5.28c2.52-2.22,5.44-.82,8.21-.12,4.05,1.05,6.59-2.15,9.36-4.56s6-4.88,9.61-6.08c5.83-1.93,10.15,2.13,12.83,7a9.87,9.87,0,0,0,9.23,5.39c5.21-.27,9.73-3.18,15-1.45a11.87,11.87,0,0,1,5.82,4.5c1.66,2.29,2.08,5.06,3.2,7.58,1.81,4.1,5.94,5.74,9.9,7,3.19,1,6.45,1.83,9.37,3.54,1.1.65,2.25,1.68,1.88,3.1-.16.58-.66,1.55-1.19,1.38-1.93-.58-3.82-1.35-5.74-2-19.59-6.68-40.55-10-61.08-7.38A93.64,93.64,0,0,0,96,52.52c-.57.16.22.37.49.29,23.3-6.81,48.29-4.1,71.26,3.17,2.62.81,5.2,1.73,7.78,2.64.56.2,2.07,1,2.67.49,4.37-3.62-2.45-6.14-5.37-7.18-4.95-1.79-10.86-2.47-13.87-7.38-1.3-2.13-1.63-4.71-2.74-6.94a13,13,0,0,0-4.58-5.08c-3.12-2.05-7.11-2.25-10.62-1.42-2.66.62-5.11,1.63-7.9,1.65-3.06,0-5.42-1.65-7.19-4.06-1.62-2.2-2.66-4.54-4.74-6.4a9.91,9.91,0,0,0-4.54-2.24c-6.94-1.56-13.57,4.8-18.19,9-1.39,1.28-2.72,2.35-4.8,2.13a28.21,28.21,0,0,1-3.53-1.07,9,9,0,0,0-4.31.08c-3.32.85-4.75,4-3.7,7.18C83,40,84,45,86,47s5,.64,6.89,2.58a18.1,18.1,0,0,1,2.88,3.17C95.89,53,96.78,52.82,96.64,52.59Z"/>
          </g>
          <g>
            <path class="cls-4" d="M96.86,40A15.76,15.76,0,0,1,98,41.14a30.85,30.85,0,0,1,2.16,2.64A29.06,29.06,0,0,1,102,46.67a13.51,13.51,0,0,1,.7,1.44A14.29,14.29,0,0,1,101.56,47a28.18,28.18,0,0,1-2.17-2.66,29.71,29.71,0,0,1-1.84-2.88A14.5,14.5,0,0,1,96.86,40Z"/>
            <path class="cls-4" d="M102.3,37.61a12.46,12.46,0,0,1,.85,1.18,23.63,23.63,0,0,1,1.55,2.81,26.51,26.51,0,0,1,1.2,3,14.33,14.33,0,0,1,.39,1.42,12.89,12.89,0,0,1-.87-1.19,28.58,28.58,0,0,1-1.55-2.8,25,25,0,0,1-1.18-3A10.08,10.08,0,0,1,102.3,37.61Z"/>
            <path class="cls-4" d="M115,35.76s.26.52.57,1.35a24.82,24.82,0,0,1,.86,3,25.91,25.91,0,0,1,.46,3.14,11.35,11.35,0,0,1,0,1.46,11.06,11.06,0,0,1-.58-1.35,25.47,25.47,0,0,1-.84-3,28.26,28.26,0,0,1-.48-3.12C115,36.35,115,35.76,115,35.76Z"/>
            <path class="cls-4" d="M121.57,37.09a7.14,7.14,0,0,1,.3,1.12,17.73,17.73,0,0,1,.26,2.45,16.75,16.75,0,0,1-.13,2.47,7.19,7.19,0,0,1-.23,1.11,6.53,6.53,0,0,1-.31-1.1,15.68,15.68,0,0,1-.13-4.93A6.74,6.74,0,0,1,121.57,37.09Z"/>
          </g>
          <g class="cls-5">
            <path class="cls-6" d="M169.14,50.89c-6.86-2-10.23-3.78-12-9.65-2.43-9.68-10.26-12.38-17.11-10.13s-11.73,2.27-15.35-4c-3.08-5.87-6.73-7.79-10.26-7.72a11.91,11.91,0,0,1,8,6.48c4.05,8.23,7,10,17.08,8.37,15.76-3.52,21,16.59,8.73,11.33s-24.89-1.42-25.45-5.7-2.12-9.61-2.12-4.19-1.85,10.45-3.81,3.54-4.62-9.79-3.54-2-1.87,10.13-5.7,5.7-8.06-10.41-5.9-5.42,3.7,10.32,1.38,7.57S94.72,34,96,37.61s6.92,9.36,3.52,9.54a27.69,27.69,0,0,0-6.66,1.66A30,30,0,0,1,96.2,52.5c40.22-12.11,80.88,7.06,81.56,6.54C182.22,55.61,176,52.92,169.14,50.89Z"/>
          </g>
          <g class="cls-7">
            <path class="cls-8" d="M91.44,33.7c11.21.85,12.17-3.82,16.1-8.31s8-8.33,14.32-2.45c-7-7.77-15.53-.85-19.81,2.73-4.87,4.07-5.64,6.73-11.36,4.41C85.55,28,78.76,32.32,84,39.63,83.34,38,82,33,91.44,33.7Z"/>
          </g>
        </g>
        <g>
          <path class="cls-3" d="M85.6,151.5S62.36,191,75.47,201.25s26.24-4.24,29.78-13.34c5-12.94-2.51-21.64-2.51-21.64Z"/>
          <path class="cls-9" d="M85.54,149.71s-23.23,39.53-10.13,49.74,26.25-4.24,29.79-13.33c5-12.94-2.52-21.64-2.52-21.64Z"/>
          <path class="cls-10" d="M78.74,176.43c1.76-9.06,6.57-24.63,7.13-26.43v0c-.75,1.7-8.16,18.81-11.22,33.67A70.37,70.37,0,0,0,73.08,197a9,9,0,0,0,2,2.21,18.19,18.19,0,0,0,2.82,1.8C77,197,76.25,189.25,78.74,176.43Zm25.07,11.74a11.22,11.22,0,0,1-5.21-5.47c-2-4.2-6.93-25-6.93-25s2.13,24.44,3.62,27.53c1.18,2.47,3.12,7.68,3.87,9.69A32.69,32.69,0,0,0,103.81,188.17Zm-16-35.4S83,174.2,82.79,185.16c-.18,8-.85,14.35-1.2,17.16a14,14,0,0,0,6.59-.15,54.47,54.47,0,0,1-2.85-17.45C85.42,174.61,87.86,152.77,87.86,152.77Zm1.87,1.95s-1.57,17.67-1.43,29.89c.1,8.85,1.69,14.27,2.57,16.6A23.39,23.39,0,0,0,97,197a26.9,26.9,0,0,1-4.57-8.21C89.48,178.75,89.73,154.72,89.73,154.72Zm15.68,29.56a23.81,23.81,0,0,0,1.2-7.26,19.24,19.24,0,0,1-4-3.8c-3.61-4.5-7.36-12.51-7.36-12.51a109.14,109.14,0,0,0,3.65,14.22A27.87,27.87,0,0,0,105.41,184.28Z"/>
        </g>
        <g>
          <path class="cls-3" d="M160.55,55.53s2.11-4.21,10.36-13.38,17.17-18.39,25.94.5c9,19.3,11,26.22,16.15,36.9,7.89,16.41,14.51,24.55,14.51,24.55L215.1,124.62Z"/>
          <path class="cls-11" d="M159.63,56.66s2.1-4.2,10.36-13.38,17.17-18.39,25.94.5c9,19.31,11,26.23,16.14,36.9,7.9,16.41,14.52,24.56,14.52,24.56l-12.41,20.51Z"/>
          <path class="cls-4" d="M202.15,74.82a53.11,53.11,0,0,1,9.18,4.54c-.71-1.54-1.38-3-2-4.49-3.07-1.54-7.94-3.58-12.19-3.65-6.83-.11-20.44.19-20.44.19S195.86,72.48,202.15,74.82Zm14.26,14.61c-.9-1.66-1.83-3.44-2.79-5.36-3.76-2.12-9.45-5-13.59-5.33-6.71-.61-15.33-1.16-15.33-1.16s17.12,3.17,23.11,6.73C210.78,86.09,214,88,216.41,89.43Zm-32.86-49c2.84-1.29,5.83-2.47,8.1-3.32a11.07,11.07,0,0,0-4.26-3.32,35.27,35.27,0,0,0-9.9,8.81c-5.11,6.85-13.6,17.67-13.6,17.67S178,43,183.55,40.41Zm13.67,6.41c-.37-.83-.76-1.66-1.17-2.54s-.69-1.37-1-2c-3.17,0-8.34.62-11.49,3.66-4.74,4.58-19.64,14.34-19.64,14.34s19-10.85,26.05-12.51A33.54,33.54,0,0,1,197.22,46.82Zm21.93,47.47c-2.9-1.91-7.57-4.79-11.18-6-5.62-1.9-14-2.67-14-2.67s10.12,2.23,15,5c3.13,1.8,8.82,5.2,12.45,7.37C220.69,96.87,219.94,95.64,219.15,94.29ZM202.83,59.45c-.7-1.64-1.46-3.39-2.29-5.28-3.36-1-8.27-1.85-11.57-.13-5.47,2.84-22.68,7.75-22.68,7.75s19.61-5.37,25.07-4.29C195.22,58.28,200.25,59.06,202.83,59.45Zm-6.18,7.47c4.42,1.56,8.56,3.33,11.18,4.5l-1.73-4.16c-3.6-1.34-10.42-3.51-16.87-3.48a163,163,0,0,0-18.82,1.39S189.29,64.32,196.65,66.92Z"/>
        </g>
        <g>
          <path class="cls-12" d="M172.31,166.26s15.13,15.52,23.75,19.77,26.69,10.2,28.2-2.68-6.85-26.19-3.72-32.9.88-11,.88-11Z"/>
          <path class="cls-4" d="M192.39,168.72a67,67,0,0,1-2,14.3c2,1.1,3.78,2.07,5.29,2.83-.26-.66-.54-1.38-.8-2.17C192.82,177.49,192.39,168.72,192.39,168.72Zm-8.53,10.54,1.63,1a86.11,86.11,0,0,1,.24-9.94C185.06,173.31,184.42,176.44,183.86,179.26Zm40.4,4.09a34.11,34.11,0,0,0-.37-9.52,8.43,8.43,0,0,1-6.32-2.45c-3.93-3.54-10.33-10.16-10.33-10.16s8.54,9.7,10.35,12.55c1.39,2.17,4.42,9.48,5.78,12.81A10.15,10.15,0,0,0,224.26,183.35Zm-26-17s3.32,13.3,2.37,21.64a53.84,53.84,0,0,0,7.25,2.3c-1.7-3.88-4.89-11.2-6.06-14.13C200.09,171.88,198.26,166.39,198.26,166.39Zm4.84-2.66s5.56,11.85,7.76,17.45a43.64,43.64,0,0,1,2,9.94c3.34.22,6.38-.28,8.49-2-1.76-2.35-7.45-10-10.65-14.48C207.16,169.58,203.1,163.73,203.1,163.73Z"/>
          <path class="cls-3" d="M224.26,183.35c1.51-12.87-6.85-26.19-3.72-32.9s.88-11,.88-11c-6.86,5.23-11.32,12.52-9,16.81,4.09,7.63,10.41,14.28,10.74,20.64.81,15.48-21.56,11.92-28.34,7.77-7.58-4.63-22-19-22-19s-10.59,10.61-4,12.1c10.64,2.4,20.87,5.61,27.14,8.7C204.59,190.78,222.75,196.23,224.26,183.35Z"/>
          <path class="cls-3" d="M206.62,149.61s3.09,10.42,9.2,15.29c0,0-7.88-3.67-11.48-15Z"/>
          <path class="cls-3" d="M201,152.91s12.31,21.25,17.54,27.22c0,0-14.89-15.06-18.49-26.37Z"/>
          <path class="cls-3" d="M198.49,154.79s6.84,20,10.65,27c0,0-10.68-15.21-11.74-27Z"/>
          <path class="cls-3" d="M195.17,156s1,21.15,2.73,28.9c0,0-6-17.58-3.77-29.23Z"/>
          <path class="cls-3" d="M188.92,159.58s.15,11.91.52,19.84c.91-.51-3.86-9.84-1.8-19.74Z"/>
          <path class="cls-3" d="M182.33,161.73s0,5.08.38,13a33,33,0,0,1-1.46-12.38Z"/>
        </g>
        <g>
          <g>
            <path class="cls-13" d="M203.87,97a59.88,59.88,0,0,0,3.89-13.75c-2.29-2.54-4.58-5.07-6.9-7.58C192.67,66.8,183.78,58.86,173,53.47c-1,6.35-3.12,16.19-6.84,23.12-5.9,11-7.44,16.26-3.85,33.57s-2.82,37.76-3.34,41.17c-.41,2.79,0,16.78,3.43,25.53a125.27,125.27,0,0,0,49.22-19.61c-2.22-7.6.23-16.42-3.89-25.06C202.84,122,199.5,107.53,203.87,97Z"/>
            <path class="cls-13" d="M141.51,119.22c-1.29-9.51-2.82-17.15-2.82-31.42s-14.37-27.45-22.33-37A32.94,32.94,0,0,0,104,41.74a116.89,116.89,0,0,0-24.71,6.37c3.65.35,9.3,1.79,15.23,7.74,10.78,10.83,13.86,20.87,12.83,31.69s3.08,17.42,4.1,23.5-5.39,14.78-18.73,24.81-14.88,13.2-15.14,16.63c-.16,2.28-7.41,6.36-12.14,10.74a265.11,265.11,0,0,0,48.59,13.29q5.32.92,10.43,1.43c4.77-8.73,6-22.68,6.49-32.05C131.5,135.32,142.79,128.72,141.51,119.22Z"/>
            <path class="cls-14" d="M159,151.16c.52-3.43,6.93-24,3.34-41.45s-2-22.7,3.85-33.79c3.72-7,5.8-16.89,6.84-23.28l-1-.48c-10.8-5.22-22.84-8.24-34.62-10A117.16,117.16,0,0,0,104,41.74a32.94,32.94,0,0,1,12.33,9.1c8,9.51,22.33,22.7,22.33,37s1.53,21.91,2.82,31.42-10,16.1-10.53,26.67c-.45,9.37-1.72,23.32-6.49,32.05,13.9,1.46,27-.59,38.36-2.53C159.45,166.61,158.54,154,159,151.16Z"/>
            <path class="cls-15" d="M77.61,152.48c.26-3.43,1.8-6.59,15.14-16.63s19.76-18.74,18.73-24.81-5.12-12.68-4.1-23.5-2-20.86-12.83-31.69c-5.93-6-11.31-7.67-15-8-41.3,15.3-63.57,50-63.57,50s-7.7,4.36-4.1,7.39c-2.54,5.8,1.54,9.24,4.1,13.2,6.39,22,25.09,35.94,49.3,45.3C70.06,159.35,77.45,154.76,77.61,152.48Z"/>
            <path class="cls-13" d="M235,109.28a26.37,26.37,0,0,1-8.9-5.9,102,102,0,0,1,.09,12.67c-.46,11.83,2.57,17.53,2.65,26.76a49.44,49.44,0,0,0,6.85-8.28"/>
            <path class="cls-16" d="M226.19,116.05a109.61,109.61,0,0,0-.14-13c-.28-.32-.58-.64-.89-1-5.87-6.41-11.61-12.93-17.4-19.4a60.66,60.66,0,0,1-3.89,13.84c-4.37,10.56-1,25.08,3.84,35.38,4.12,8.71,1.67,17.58,3.89,25.23a113.56,113.56,0,0,0,17.24-14.31C228.76,133.58,225.73,127.88,226.19,116.05Z"/>
            <path class="cls-17" d="M236.54,127.32a41,41,0,0,1-8.21,9.06,45.8,45.8,0,0,1,.51,6.43,49.44,49.44,0,0,0,6.85-8.28"/>
            <path class="cls-17" d="M159.21,161.57a61.71,61.71,0,0,0,3.17,15.29,124.88,124.88,0,0,0,49.22-19.74,37.18,37.18,0,0,1-1.11-9A129.46,129.46,0,0,1,159.21,161.57Z"/>
            <path class="cls-17" d="M103.79,129.08c10.95-13,7.87-18.66,7.18-22.18a7.85,7.85,0,0,1,.26,2.85c.1.43.18.86.25,1.29,1,6.07-5.39,14.78-18.73,24.81s-14.88,13.2-15.14,16.63c-.16,2.28-7.55,6.87-12.29,11.25,14.72,5.69,31.46,9.69,48.74,12.78q5.32.92,10.43,1.43c2.67-4.88,4.23-11.4,5.18-17.84C101.32,155,94.78,139.8,103.79,129.08Z"/>
            <path class="cls-18" d="M34.67,146.68c-1.2-1,12.32,14.43,47.91,12.67S115.76,172,146.9,169.91s80.7-25.44,87.54-33.53c-9.57,11.26-45.8,45.15-99.86,41.63C81.2,174.49,47,156.89,34.67,146.68Z"/>
          </g>
          <path class="cls-19" d="M151,161.82a121.49,121.49,0,0,1-21.33-1.72c-.95,6.44-2.51,13-5.18,17.84a138.3,138.3,0,0,0,37.89-1.08,61.71,61.71,0,0,1-3.17-15.29C156.54,161.73,153.79,161.82,151,161.82Z"/>
          <path class="cls-19" d="M210.49,148.08a37.18,37.18,0,0,0,1.11,9,113.56,113.56,0,0,0,17.24-14.31,45.8,45.8,0,0,0-.51-6.43A91.85,91.85,0,0,1,210.49,148.08Z"/>
          <path class="cls-20" d="M25.86,89.56s23.69-32.22,61.3-41.74C82,48.61,40.75,72.66,25.86,89.56Z"/>
          <path class="cls-21" d="M92.84,49.17s70.48-17.25,126.93,52.45C211.91,89.3,158.18,24.88,92.84,49.17Z"/>
          <path class="cls-17" d="M64.75,75s17.16,12,14,33.8c-1.9,12.61-13.66,19.83-16.41,20.18,6.4,1.81,19.41-2,21.21-21.46S69.89,76.4,64.75,75Z"/>
          <path class="cls-22" d="M62,73.84s17.17,12,14,33.81c-1.9,12.6-13.66,19.82-16.41,20.18,6.4,1.8,19.41-2,21.21-21.47S67.14,75.24,62,73.84Z"/>
          <path class="cls-23" d="M27.77,94.32s18.17,33,35.94,28.23c4.93-1.28,13.38-17.14,5.53-32.4.43,6-1.84,25.86-10.35,24.85S34.84,106.52,27.77,94.32Z"/>
        </g>
        <g>
          <path class="cls-24" d="M38.38,94.67a13,13,0,1,0,13-12.87A12.93,12.93,0,0,0,38.38,94.67Z"/>
          <g>
            <path class="cls-8" d="M38,92.27a11.55,11.55,0,1,0,11.55-11.4A11.47,11.47,0,0,0,38,92.27Z"/>
            <path d="M40.38,92.27a9.17,9.17,0,1,0,9.17-9A9.11,9.11,0,0,0,40.38,92.27Z"/>
            <path class="cls-8" d="M57.14,91.52a9,9,0,0,0-2.38-6.1,8.89,8.89,0,0,1,3.09,6.74,8.64,8.64,0,0,1-8.46,8.8,8.27,8.27,0,0,1-6.08-2.7,8.2,8.2,0,0,0,5.37,2A8.63,8.63,0,0,0,57.14,91.52Z"/>
            <path class="cls-8" d="M43.33,89.48a3.78,3.78,0,1,0,3.78-3.73A3.76,3.76,0,0,0,43.33,89.48Z"/>
            <path class="cls-8" d="M43.18,94.92a1.25,1.25,0,1,0,1.25-1.22A1.24,1.24,0,0,0,43.18,94.92Z"/>
          </g>
        </g>
        <g>
          <g>
            <path class="cls-13" d="M233.06,134.11c-.57,8.39,2.6,15.76,7,21.81-.72-5.73-1-16,2.82-25.75,4-10.28,3.06-22.32,2.26-28.64A33.53,33.53,0,0,1,235.1,109"/>
            <path class="cls-25" d="M266.22,147c-2-17.31-4.39-17.9,5.92-39.34,7.31-15.18-.59-27.26-4.24-31.84-1.75,1.28-5.55,5.38-15.53,17.39-2.79,3.38-5.17,6.13-7.22,8.33.8,6.32,1.7,18.36-2.26,28.64-3.78,9.79-3.54,20-2.82,25.75a62.35,62.35,0,0,0,17.34,15.63C263.45,168.31,267.8,160.62,266.22,147Z"/>
            <path class="cls-3" d="M275.51,111.84c7.75-20.46-5-36-6-36.47-.35-.14-.72-.19-1.57.44,3.65,4.58,11.55,16.66,4.24,31.84-10.31,21.44-7.92,22-5.92,39.34,1.58,13.63-2.77,21.32-8.81,24.56a17.81,17.81,0,0,0,4.44,2.22c1.6-.31,11.21-6.43,9.73-24.44C267.81,125.4,270.49,123.39,275.51,111.84Z"/>
            <path class="cls-17" d="M233.06,134.11c-.57,8.39,2.6,15.76,7,21.81-.72-5.73-1-16,2.82-25.75a39.71,39.71,0,0,0,1.58-5.22c-9.3,13.33-3.67-7-11,3.61"/>
          </g>
          <g>
            <path class="cls-20" d="M266,80.73s-8.36,7.08-8.1,9,7.34-3.76,9.35-5.88S267.24,79.57,266,80.73Z"/>
            <path class="cls-20" d="M268.48,93.4a44.27,44.27,0,0,0-4.69,4.14c-2,2.11,2.48,1.94,5-1.16S270.19,92,268.48,93.4Z"/>
            <path class="cls-20" d="M268.06,101.48l-3.95.89c-2,.46-1.43,2.25,2.32,1.64S269.18,101.38,268.06,101.48Z"/>
            <path class="cls-20" d="M262.32,156.62s-1.21-1.9-2.43-3.79-2.33-.48-.2,3.22S262.9,157.74,262.32,156.62Z"/>
            <path class="cls-20" d="M256.43,165.41l-3.2-2.87c-1.6-1.43-2.36.27.53,3.15S257.24,166.32,256.43,165.41Z"/>
            <path class="cls-20" d="M259.22,143.26c.87.43,5.22,5.78,3.87,8S256.24,141.78,259.22,143.26Z"/>
          </g>
          <path class="cls-26" d="M246.92,151.48c-3-8.58,9.54-8.25,4.31-18.19s11-13.72,5.55-15.9-7.22-8.1-3.43-15.72c2.3-4.65,2.9-9.91,3.31-13.61-1.29,1.53-2.71,3.23-4.29,5.14-2.79,3.38-5.17,6.13-7.22,8.33.8,6.32,1.7,18.36-2.26,28.64-3.78,9.79-3.54,20-2.82,25.75a55.14,55.14,0,0,0,7,7.79C246.92,159.3,248.71,156.58,246.92,151.48Z"/>
        </g>
        <g>
          <path class="cls-3" d="M99.91,110.38s12.87,46.31,30.12,43.87,15.92-22.87,11.64-32.16c-6.08-13.22-18.14-13.87-18.14-13.87Z"/>
          <path class="cls-27" d="M98.52,109.11s12.87,46.31,30.11,43.88,15.93-22.87,11.65-32.17C134.19,107.6,122.14,107,122.14,107Z"/>
          <path class="cls-28" d="M113.7,133.71c-5.54-7.93-13.77-22.9-14.72-24.64h0c.74,1.8,8.24,19.85,17.21,33a73.94,73.94,0,0,0,8.9,10.88,9.44,9.44,0,0,0,3.14.09,20.52,20.52,0,0,0,3.41-.82C128,150,121.55,144.93,113.7,133.71Zm27.11-10.34a11.84,11.84,0,0,1-7.91-.06c-4.61-1.57-23.91-13-23.91-13s20,16.2,23.39,17.33c2.72.91,8.06,3.23,10.12,4.14A34.25,34.25,0,0,0,140.81,123.37ZM102.52,109.6s12.62,19.25,20.71,27.42c5.93,6,10.19,11.09,12.06,13.4a14.66,14.66,0,0,0,4.69-5.08,56.77,56.77,0,0,1-15.23-10.56C117.2,127.35,102.52,109.6,102.52,109.6Zm2.83,0s12.18,14.06,21.48,22.86c6.74,6.37,12,9.13,14.38,10.16a24.71,24.71,0,0,0,1.36-7.69,28.23,28.23,0,0,1-9.52-2.54C123.27,127.31,105.35,109.6,105.35,109.6Zm33.7,9.73a24.92,24.92,0,0,0-4.59-6.2,20.25,20.25,0,0,1-5.79.26c-6-.57-14.8-3.57-14.8-3.57a115.24,115.24,0,0,0,13.39,7.61C131.64,119.35,137,119.4,139.05,119.33Z"/>
        </g>
        <g>
          <path class="cls-3" d="M102.16,163.22s0,48.06,17.29,50.33,21.46-17.78,19.82-27.88c-2.33-14.37-13.78-18.21-13.78-18.21Z"/>
          <path class="cls-27" d="M101.15,161.63s0,48.06,17.3,50.33,21.45-17.79,19.81-27.88c-2.33-14.37-13.77-18.21-13.77-18.21Z"/>
          <path class="cls-29" d="M109.21,189.39c-3.22-9.13-7.15-25.74-7.6-27.67h0c.23,1.93,2.63,21.32,7.77,36.38A73.33,73.33,0,0,0,115,211a9.36,9.36,0,0,0,3,.93,19.11,19.11,0,0,0,3.51.12C118.63,208.9,113.78,202.3,109.21,189.39Zm28.89-2.72a11.75,11.75,0,0,1-7.61-2.17c-4-2.75-19.57-18.93-19.57-18.93s14.92,21,17.91,23c2.38,1.6,6.9,5.26,8.65,6.69A34.49,34.49,0,0,0,138.1,186.67Zm-33.22-23.51s7,21.94,12.63,32c4.11,7.36,6.86,13.42,8,16.14a14.45,14.45,0,0,0,5.87-3.64,56.84,56.84,0,0,1-11.85-14.25C114.28,184.19,104.88,163.16,104.88,163.16Zm2.72.77s8,16.8,14.6,27.77c4.79,7.94,9.11,12,11.14,13.63a24.64,24.64,0,0,0,3.36-7.05,28.52,28.52,0,0,1-8.5-5C120.15,185.78,107.6,163.93,107.6,163.93Zm29.88,18.37a25,25,0,0,0-2.77-7.19,20.29,20.29,0,0,1-5.64-1.3c-5.66-2.16-13.31-7.4-13.31-7.4a114.37,114.37,0,0,0,10.86,10.92C130.33,180.35,135.44,181.82,137.48,182.3Z"/>
        </g>
      </g>
    </g>
  </g>
</svg>
