<svg id="Layer_1" data-name="Layer 1" xmlns="http://www.w3.org/2000/svg" viewBox="0 0 128 128"><path d="M70.7,80.16a27.68,27.68,0,0,1-1,8.13,14.15,14.15,0,0,1-2.75,5.25,10,10,0,0,1-4.13,2.85,15.11,15.11,0,0,1-5.21.87,44.4,44.4,0,0,1-5.35-.33,19.37,19.37,0,0,1-5.06-1.29V89.58a33.68,33.68,0,0,0,4.6,1.29,20,20,0,0,0,3.86.45,6.73,6.73,0,0,0,2.87-.6,5.6,5.6,0,0,0,2.24-1.92,9.84,9.84,0,0,0,1.45-3.48,23,23,0,0,0,.51-5.22V77.46a9,9,0,0,1-3.42,2,13.91,13.91,0,0,1-3.71.45A11.7,11.7,0,0,1,50.9,79a10,10,0,0,1-3.57-2.52A11.22,11.22,0,0,1,45,72.57a15.43,15.43,0,0,1-.8-5.13,15.22,15.22,0,0,1,1.24-6.27A13.41,13.41,0,0,1,49,56.4a16,16,0,0,1,5.6-3,24.31,24.31,0,0,1,7.42-1q1.27,0,2.25,0c.65,0,1.28.07,1.91.15s1.3.19,2,.33,1.53.33,2.47.57Zm-8-20c-.7-.12-1.22-.2-1.57-.24a12.75,12.75,0,0,0-1.39-.06,7.6,7.6,0,0,0-5.53,2,7.13,7.13,0,0,0-2,5.37,5.12,5.12,0,0,0,1.33,3.78,4.52,4.52,0,0,0,3.31,1.32A9.66,9.66,0,0,0,59,72a3.79,3.79,0,0,0,1.88-1.08,5.83,5.83,0,0,0,1.33-2.43,15,15,0,0,0,.49-4.29Z"/><path d="M105.55,66a15.16,15.16,0,0,1-1,5.68,11.31,11.31,0,0,1-2.81,4.15,12,12,0,0,1-4.36,2.57,18.55,18.55,0,0,1-11.29,0,12,12,0,0,1-4.36-2.57,11.62,11.62,0,0,1-2.84-4.15,14.76,14.76,0,0,1-1-5.68,14.56,14.56,0,0,1,1-5.54,11.49,11.49,0,0,1,2.78-4.13A11.7,11.7,0,0,1,86,53.8a19.15,19.15,0,0,1,11.38,0,11.91,11.91,0,0,1,4.36,2.51,11.15,11.15,0,0,1,2.81,4.13A15,15,0,0,1,105.55,66Zm-8,0A6,6,0,0,0,96,61.59,5.88,5.88,0,0,0,91.63,60a5.57,5.57,0,0,0-4.27,1.59A6.26,6.26,0,0,0,85.88,66a6.59,6.59,0,0,0,1.45,4.58,5.48,5.48,0,0,0,4.3,1.62A5.86,5.86,0,0,0,96,70.65,6.36,6.36,0,0,0,97.58,66Z"/></svg>