<?xml version="1.0" encoding="utf-8"?>
<!-- Generator: Adobe Illustrator 25.3.1, SVG Export Plug-In . SVG Version: 6.00 Build 0)  -->
<svg version="1.1" id="Layer_1" xmlns="http://www.w3.org/2000/svg" xmlns:xlink="http://www.w3.org/1999/xlink" x="0px" y="0px"
	 viewBox="0 0 128 128" style="enable-background:new 0 0 128 128;" xml:space="preserve">
<path d="M56.3,52.3c0,1.1-0.5,2-1.4,2.7c-2,1.5-4.7,1.5-6.7,0c-0.9-0.6-1.4-1.7-1.4-2.7c0-1.1,0.4-2.1,1.3-2.8
	c1-0.8,2.2-1.2,3.5-1.1c0.6,0,1.2,0.1,1.8,0.3c0.5,0.2,1.1,0.5,1.5,0.8c0.4,0.4,0.7,0.8,1,1.3C56.1,51.3,56.3,51.8,56.3,52.3z
	 M47.3,86V59.6h8V86H47.3z"/>
<path d="M83.3,78.7c0.1,2.3-0.8,4.5-2.5,6c-1.7,1.5-4.1,2.2-7.2,2.2c-2,0-4.1-0.2-6.1-0.6c-1.7-0.3-3.3-0.8-4.8-1.6l1-6.1
	c2.8,1.6,5.9,2.5,9.1,2.7c0.7,0.1,1.4-0.1,1.9-0.6c0.4-0.3,0.6-0.8,0.6-1.3c0-0.5-0.1-1-0.4-1.5c-0.6-0.6-1.4-1.1-2.2-1.4
	c-1.5-0.6-2.9-1.3-4.2-2.2c-1-0.6-2-1.4-2.9-2.2c-0.7-0.7-1.2-1.6-1.6-2.5c-0.4-1-0.5-2-0.5-3c-0.1-2.3,1-4.5,2.9-5.8
	c2.3-1.5,4.9-2.2,7.6-2.1c1.5,0,3,0.1,4.5,0.4c1.5,0.3,3,0.9,4.5,1.5l-1,6.1c-1.3-0.8-2.7-1.3-4.1-1.7c-1.3-0.3-2.6-0.4-3.9-0.4
	c-0.7-0.1-1.4,0.1-1.9,0.5c-0.4,0.4-0.5,0.8-0.5,1.3c0,0.7,0.3,1.3,0.8,1.7c1,0.7,2.1,1.2,3.2,1.7c1.3,0.6,2.5,1.3,3.6,2.1
	c0.9,0.6,1.7,1.2,2.5,2c0.6,0.6,1.1,1.4,1.4,2.2C83.2,76.9,83.4,77.8,83.3,78.7z"/>
</svg>
