<svg id="Layer_1" data-name="Layer 1" xmlns="http://www.w3.org/2000/svg" viewBox="0 0 128 128"><path d="M43.05,94.65a13.1,13.1,0,0,1-2.62,5.52,9.5,9.5,0,0,1-4.56,2.9,23.38,23.38,0,0,1-6.63.83,19.52,19.52,0,0,1-3.86-.39,40.16,40.16,0,0,1-4-1.05v-6c1.32.11,2.57.19,3.76.26s2.35.09,3.52.09a8.48,8.48,0,0,0,3.22-.55,5,5,0,0,0,2.23-1.82,8.65,8.65,0,0,0,1.26-3.33,28.14,28.14,0,0,0,.39-5.1V82.78A10.3,10.3,0,0,1,28.23,86a8.69,8.69,0,0,1-3.45-.7,8.13,8.13,0,0,1-2.85-2A10.09,10.09,0,0,1,20,80.13a11.52,11.52,0,0,1-.72-4.2q0-2.12.06-4.05T19.41,68q0-1.94,0-4c0-1.37-.09-2.83-.21-4.4h8c.12,1.59.19,3.07.21,4.42s0,2.64,0,3.85,0,2.35-.06,3.46,0,2.2,0,3.29a4.93,4.93,0,0,0,.89,3.28,3.19,3.19,0,0,0,2.54,1,4.82,4.82,0,0,0,3.68-1.66,6.3,6.3,0,0,0,1.53-4.45V59.62h8V86A37.27,37.27,0,0,1,43.05,94.65Z"/><path d="M79.29,72.74a15.12,15.12,0,0,1-1,5.68,11.28,11.28,0,0,1-2.8,4.15,12.24,12.24,0,0,1-4.37,2.58,18.75,18.75,0,0,1-11.29,0,12.28,12.28,0,0,1-4.36-2.58,11.6,11.6,0,0,1-2.83-4.15,14.72,14.72,0,0,1-1-5.68,14.56,14.56,0,0,1,1-5.54,11.56,11.56,0,0,1,2.77-4.13,11.78,11.78,0,0,1,4.36-2.57,17.6,17.6,0,0,1,5.74-.88,17.85,17.85,0,0,1,5.64.85A12,12,0,0,1,75.5,63a11,11,0,0,1,2.8,4.12A15,15,0,0,1,79.29,72.74Zm-8,0a6,6,0,0,0-1.61-4.45,5.89,5.89,0,0,0-4.33-1.59,5.55,5.55,0,0,0-4.27,1.59,6.27,6.27,0,0,0-1.49,4.45,6.63,6.63,0,0,0,1.45,4.59,5.53,5.53,0,0,0,4.31,1.61,5.85,5.85,0,0,0,4.39-1.59A6.34,6.34,0,0,0,71.31,72.74Z"/><path d="M104.91,85.3a11.48,11.48,0,0,1-.51-1.38q-.15-.54-.33-1.56A11.75,11.75,0,0,1,95.61,86,8.67,8.67,0,0,1,92,85.29a9.11,9.11,0,0,1-2.88-2,8.76,8.76,0,0,1-1.89-3.1,11.71,11.71,0,0,1-.66-4c0-1.63,0-3.15.12-4.55s.14-2.75.18-4,0-2.57,0-3.86-.14-2.65-.3-4.09h8c.12,1.31.19,2.58.21,3.79s0,2.42,0,3.62-.06,2.41-.12,3.64-.09,2.55-.09,3.93A6.56,6.56,0,0,0,95,77.06a2.87,2.87,0,0,0,1,1.3,3,3,0,0,0,1.22.5,9.32,9.32,0,0,0,1.06.08,5.8,5.8,0,0,0,1.29-.23,4.17,4.17,0,0,0,1.81-1.1,7.5,7.5,0,0,0,1.59-2.54,12.16,12.16,0,0,0,.69-4.52V59.62h8V77.07a29.75,29.75,0,0,0,.36,4.55,14.73,14.73,0,0,0,1,3.68Z"/></svg>