<svg id="Layer_1" data-name="Layer 1" xmlns="http://www.w3.org/2000/svg" viewBox="0 0 128 128"><path d="M79.58,87.07c0-.28,0-.62-.07-1s-.07-.7-.09-1.14,0-.9-.1-1.38a9.44,9.44,0,0,1-3.9,3.09,12.68,12.68,0,0,1-5.12,1,9.48,9.48,0,0,1-7.66-3.24q-2.74-3.24-2.74-9.24,0-7.26,4.41-11.19t12.56-3.93q1.34,0,2.43.06t2.19.21c.73.1,1.48.23,2.26.39s1.62.38,2.55.66v17q0,1.38.06,2.91t.18,2.79q.12,1.5.24,2.94ZM78.32,67.51a12.23,12.23,0,0,0-1.89-.3q-.86-.06-1.59-.06a6.4,6.4,0,0,0-5.13,2.13,8.78,8.78,0,0,0-1.83,5.91A5.88,5.88,0,0,0,69,79a3.82,3.82,0,0,0,3.11,1.32,5.49,5.49,0,0,0,2.41-.54,6,6,0,0,0,2-1.53,7.46,7.46,0,0,0,1.34-2.34,8.76,8.76,0,0,0,.49-3Z"/></svg>