<svg id="Layer_1" data-name="Layer 1" xmlns="http://www.w3.org/2000/svg" viewBox="0 0 128 128"><path d="M40.32,90.78a8.3,8.3,0,0,0-.07-1q-.06-.48-.09-1.14t-.09-1.38a9.53,9.53,0,0,1-3.91,3.09,12.68,12.68,0,0,1-5.12,1,9.48,9.48,0,0,1-7.66-3.24q-2.74-3.24-2.74-9.24,0-7.26,4.41-11.19t12.56-3.93q1.34,0,2.43.06c.73,0,1.46.11,2.2.21s1.48.23,2.25.39,1.62.38,2.55.66v17q0,1.38.06,2.91t.18,2.79q.12,1.5.24,2.94ZM39.06,71.22a12.23,12.23,0,0,0-1.89-.3q-.86-.06-1.59-.06A6.4,6.4,0,0,0,30.45,73a8.78,8.78,0,0,0-1.83,5.91,5.88,5.88,0,0,0,1.1,3.84,3.82,3.82,0,0,0,3.11,1.32,5.56,5.56,0,0,0,2.42-.54,6.07,6.07,0,0,0,2-1.53,7.27,7.27,0,0,0,1.34-2.34,8.76,8.76,0,0,0,.49-3Z"/><path d="M72.9,90.78v-15a6.09,6.09,0,0,0-.39-2.43,3.43,3.43,0,0,0-.93-1.3,2.36,2.36,0,0,0-1.14-.52,7.05,7.05,0,0,0-1-.09,6.28,6.28,0,0,0-1.26.23,4.38,4.38,0,0,0-1.83,1.1,7.5,7.5,0,0,0-1.65,2.55A11.64,11.64,0,0,0,64,79.85V90.78H56V73.33a29.75,29.75,0,0,0-.36-4.55,14.85,14.85,0,0,0-1-3.68h8a11.48,11.48,0,0,1,.51,1.38q.15.54.33,1.56a12.5,12.5,0,0,1,4.11-2.76,11.89,11.89,0,0,1,4.47-.9,8.82,8.82,0,0,1,3.5.7,8.24,8.24,0,0,1,2.79,2,8.92,8.92,0,0,1,1.85,3.1,11.81,11.81,0,0,1,.68,4.11V90.78Z"/><path d="M110,90.78q-.06-.36-.12-.84c0-.28-.08-.6-.13-1s-.08-.8-.12-1.32a11,11,0,0,1-4,3,12.34,12.34,0,0,1-4.75.87,11.82,11.82,0,0,1-4.78-.93A10.48,10.48,0,0,1,92.53,88a11.77,11.77,0,0,1-2.35-4,15.37,15.37,0,0,1-.84-5.22,17.83,17.83,0,0,1,1-6.06A14.58,14.58,0,0,1,93.09,68a12.32,12.32,0,0,1,4.23-3.12,13,13,0,0,1,5.4-1.11,18.66,18.66,0,0,1,2.64.18,15.44,15.44,0,0,1,2.94.78V49h8v32.7q0,1,.09,2.58t.21,3q.12,1.68.3,3.54ZM108.3,71.52a8.63,8.63,0,0,0-2.21-.6,18.76,18.76,0,0,0-2.16-.12,6,6,0,0,0-4.83,2.07,8.39,8.39,0,0,0-1.78,5.67,6.17,6.17,0,0,0,1.25,4.11A4.25,4.25,0,0,0,102,84.12a7.14,7.14,0,0,0,2.46-.42,4.61,4.61,0,0,0,2-1.44,7.59,7.59,0,0,0,1.34-2.67,14.5,14.5,0,0,0,.5-4.11Z"/></svg>