<svg id="Layer_1" data-name="Layer 1" xmlns="http://www.w3.org/2000/svg" viewBox="0 0 128 128"><path d="M66.53,75.4A11.48,11.48,0,0,1,66,74q-.15-.54-.33-1.56a11.75,11.75,0,0,1-8.46,3.66,8.67,8.67,0,0,1-3.57-.73,9,9,0,0,1-2.88-2,8.63,8.63,0,0,1-1.89-3.09,11.71,11.71,0,0,1-.66-4c0-1.64,0-3.15.12-4.56s.14-2.74.18-4,0-2.57,0-3.85-.14-2.65-.3-4.09h8c.12,1.31.19,2.57.21,3.79s0,2.42,0,3.61-.06,2.41-.12,3.65-.09,2.54-.09,3.93a6.54,6.54,0,0,0,.38,2.46,2.8,2.8,0,0,0,1,1.3,2.84,2.84,0,0,0,1.21.49,7.68,7.68,0,0,0,1.07.09,6.41,6.41,0,0,0,1.28-.23,4.21,4.21,0,0,0,1.81-1.1,7.3,7.3,0,0,0,1.59-2.55,12.07,12.07,0,0,0,.69-4.51V49.72h8V67.17a29.75,29.75,0,0,0,.36,4.55,14.85,14.85,0,0,0,1,3.68Z"/><path d="M109.19,61.36a20.23,20.23,0,0,1-.84,6A14.57,14.57,0,0,1,106,72a10.74,10.74,0,0,1-3.64,3,10.16,10.16,0,0,1-4.65,1.07,10,10,0,0,1-3.15-.42,9.1,9.1,0,0,1-2.69-1.54V94h-8.4V57.63q0-.65-.09-1.53t-.24-1.86c-.1-.65-.22-1.29-.36-1.94a13.73,13.73,0,0,0-.51-1.8h8.13a6,6,0,0,1,.44,1.17,14.25,14.25,0,0,1,.25,1.65,12.9,12.9,0,0,1,3.62-2.76,9.56,9.56,0,0,1,4.14-.84,10.36,10.36,0,0,1,4.22.84,9.22,9.22,0,0,1,3.28,2.36,10.93,10.93,0,0,1,2.11,3.69A14.38,14.38,0,0,1,109.19,61.36Zm-8,1.34A5.73,5.73,0,0,0,100,58.84a4.12,4.12,0,0,0-3.29-1.38,4.72,4.72,0,0,0-3.87,1.76A7.35,7.35,0,0,0,91.43,64v3.47A6.32,6.32,0,0,0,95.68,69a5.13,5.13,0,0,0,4-1.68A6.81,6.81,0,0,0,101.21,62.7Z"/></svg>