<svg id="Layer_1" data-name="Layer 1" xmlns="http://www.w3.org/2000/svg" viewBox="0 0 128 128"><path d="M34,88.73V68H28.69v-5.7H34V55.67h7.86v6.66h6.78V68H41.83v20.7Z"/><path d="M70.21,88.73V73.8a8,8,0,0,0-.27-2.31,3.1,3.1,0,0,0-.77-1.33,2.46,2.46,0,0,0-1.1-.61,5.43,5.43,0,0,0-1.29-.14,3.67,3.67,0,0,0-2,.6,6.29,6.29,0,0,0-1.69,1.65,9.22,9.22,0,0,0-1.19,2.46,9.53,9.53,0,0,0-.46,3V88.73h-8V47.63h7.92v17.7A9.23,9.23,0,0,1,64.7,63a11.09,11.09,0,0,1,4-.69,13,13,0,0,1,3.46.46,8.66,8.66,0,0,1,3,1.49A7.46,7.46,0,0,1,77.36,67a9.26,9.26,0,0,1,.83,4.14V88.73Z"/><path d="M110.77,69.59a6.81,6.81,0,0,1-1.07,3.72,8.89,8.89,0,0,1-3,2.85A16.49,16.49,0,0,1,102,78a26.09,26.09,0,0,1-6.12.66l-.72,0c-.27,0-.59,0-1,0A5.54,5.54,0,0,0,96,82.16a5.7,5.7,0,0,0,3.88,1.29,17.75,17.75,0,0,0,8.84-2.7v6.3a17.3,17.3,0,0,1-4.35,1.89,18.2,18.2,0,0,1-4.71.57,15.54,15.54,0,0,1-5.43-.9A11,11,0,0,1,90.13,86a11.64,11.64,0,0,1-2.58-4.08,15,15,0,0,1-.9-5.37,16.67,16.67,0,0,1,1-6,14,14,0,0,1,2.94-4.71,13,13,0,0,1,4.53-3.06A15.23,15.23,0,0,1,101,61.67a11,11,0,0,1,7.11,2.16A7,7,0,0,1,110.77,69.59Zm-8,.6a2.08,2.08,0,0,0-.82-1.65,3.13,3.13,0,0,0-2.08-.69,4.75,4.75,0,0,0-3.42,1.41,6.72,6.72,0,0,0-1.84,3.87,5.07,5.07,0,0,0,1,.12h.89Q102.79,73.25,102.79,70.19Z"/></svg>