<svg id="Layer_1" data-name="Layer 1" xmlns="http://www.w3.org/2000/svg" viewBox="0 0 151.53 128"><defs><style>.cls-1{fill:#f2f2f2;}</style></defs><path class="cls-1" d="M37.51,43.61a15.19,15.19,0,0,0-2.88-1.08A11.44,11.44,0,0,0,32,42.25a7.29,7.29,0,0,0-3.28.64,4.54,4.54,0,0,0-2,2,11.18,11.18,0,0,0-1,3.72,47.84,47.84,0,0,0-.28,5.68h8.48v7.76h-8.4V89.53H14.87V61.93H8.23v-7.6h6.48a46.31,46.31,0,0,1,.88-9.88,16.12,16.12,0,0,1,2.68-6.32,9.93,9.93,0,0,1,4.48-3.36,17.61,17.61,0,0,1,6.2-1,27.57,27.57,0,0,1,9.52,1.6Z"/><path class="cls-1" d="M64.23,64.17c-.75-.16-1.33-.27-1.76-.32A12.48,12.48,0,0,0,61,63.77a8.13,8.13,0,0,0-6.92,3.12q-2.36,3.12-2.36,9.3V89.53H41.11V66.42c0-1.3,0-2.44,0-3.4s-.09-1.87-.2-2.71-.25-1.65-.44-2.46-.44-1.74-.76-2.78h10.1q.25,1,.45,1.68a8,8,0,0,1,.29,1.31c.06.41.11.85.17,1.32a15.75,15.75,0,0,1,.08,1.68,18,18,0,0,1,4.55-5.21,8.75,8.75,0,0,1,5.08-1.52,7.67,7.67,0,0,1,1.88.2,19.09,19.09,0,0,1,2.12.78Z"/><path class="cls-1" d="M104.07,71.82a20.14,20.14,0,0,1-1.32,7.57A15,15,0,0,1,99,84.93a16.16,16.16,0,0,1-5.81,3.43,24.82,24.82,0,0,1-15.06,0,16.16,16.16,0,0,1-5.81-3.43,15.66,15.66,0,0,1-3.79-5.54,21.7,21.7,0,0,1,0-15,15.37,15.37,0,0,1,3.71-5.5A15.67,15.67,0,0,1,78,55.5a25.62,25.62,0,0,1,15.18,0A16,16,0,0,1,99,58.81a14.77,14.77,0,0,1,3.74,5.51A19.91,19.91,0,0,1,104.07,71.82Zm-10.64,0a8,8,0,0,0-2.15-5.93,7.86,7.86,0,0,0-5.77-2.12,7.43,7.43,0,0,0-5.7,2.12,8.35,8.35,0,0,0-2,5.93,8.82,8.82,0,0,0,1.94,6.11,7.31,7.31,0,0,0,5.74,2.16A7.82,7.82,0,0,0,91.37,78,8.48,8.48,0,0,0,93.43,71.82Z"/><path class="cls-1" d="M147.91,90.65a37.18,37.18,0,0,1-1.35,10.84,19,19,0,0,1-3.67,7,13.42,13.42,0,0,1-5.51,3.8,20.21,20.21,0,0,1-6.94,1.16,60,60,0,0,1-7.14-.44,25.64,25.64,0,0,1-6.74-1.72v-8.08a45.43,45.43,0,0,0,6.13,1.72,26.55,26.55,0,0,0,5.15.6,9.09,9.09,0,0,0,3.83-.8,7.62,7.62,0,0,0,3-2.56,13.29,13.29,0,0,0,1.93-4.64,30.29,30.29,0,0,0,.69-7V87.05a12.12,12.12,0,0,1-4.56,2.68,18.57,18.57,0,0,1-5,.6,15.71,15.71,0,0,1-6.24-1.2,13.54,13.54,0,0,1-4.76-3.36,15.12,15.12,0,0,1-3-5.24,20.53,20.53,0,0,1-1.08-6.84,20.26,20.26,0,0,1,1.66-8.36A17.84,17.84,0,0,1,119,59a21.16,21.16,0,0,1,7.46-4,32.54,32.54,0,0,1,9.89-1.4c1.14,0,2.14,0,3,0s1.72.09,2.56.2,1.73.25,2.67.44,2,.44,3.29.76ZM137.27,63.93c-.93-.16-1.63-.27-2.1-.32a18.06,18.06,0,0,0-1.85-.08,10.13,10.13,0,0,0-7.37,2.6,9.49,9.49,0,0,0-2.68,7.16,6.79,6.79,0,0,0,1.77,5,6,6,0,0,0,4.41,1.76,13.17,13.17,0,0,0,2.88-.32,5.06,5.06,0,0,0,2.51-1.44,7.89,7.89,0,0,0,1.77-3.24,19.88,19.88,0,0,0,.66-5.72Z"/></svg>