<svg id="Layer_1" data-name="Layer 1" xmlns="http://www.w3.org/2000/svg" viewBox="0 0 128 128"><path d="M50.33,89.15V68.45H45.05v-5.7h5.28V56.09h7.86v6.66H65v5.7H58.19v20.7Z"/><path d="M94.19,75.87a15.12,15.12,0,0,1-1,5.68,11.41,11.41,0,0,1-2.8,4.16A12.21,12.21,0,0,1,86,88.28a18.75,18.75,0,0,1-11.29,0,12.26,12.26,0,0,1-4.36-2.57,11.88,11.88,0,0,1-2.84-4.16,16.31,16.31,0,0,1,0-11.22,11.36,11.36,0,0,1,7.14-6.7A19.15,19.15,0,0,1,86,63.6a12,12,0,0,1,4.37,2.52,11,11,0,0,1,2.8,4.12A15,15,0,0,1,94.19,75.87Zm-8,0a6,6,0,0,0-1.61-4.45,5.89,5.89,0,0,0-4.33-1.59A5.55,5.55,0,0,0,76,71.42a6.24,6.24,0,0,0-1.49,4.45A6.63,6.63,0,0,0,76,80.46a5.5,5.5,0,0,0,4.31,1.61,5.85,5.85,0,0,0,4.39-1.59A6.34,6.34,0,0,0,86.21,75.87Z"/></svg>