<svg id="Layer_1" data-name="Layer 1" xmlns="http://www.w3.org/2000/svg" viewBox="0 0 128 128"><path d="M69,40.43a3.3,3.3,0,0,1-1.38,2.67,5.55,5.55,0,0,1-6.66,0,3.62,3.62,0,0,1-1.44-2.75,3.24,3.24,0,0,1,1.32-2.75,5.33,5.33,0,0,1,3.48-1.12,5.39,5.39,0,0,1,1.77.3,4.75,4.75,0,0,1,1.5.84,4.33,4.33,0,0,1,1,1.27A3.34,3.34,0,0,1,69,40.43ZM60,74.08V47.68h8v26.4Z"/><path d="M94,74.08v-15a6,6,0,0,0-.39-2.42,3.49,3.49,0,0,0-.94-1.31,2.33,2.33,0,0,0-1.13-.52,7.09,7.09,0,0,0-1-.08,5.81,5.81,0,0,0-1.26.23,4.34,4.34,0,0,0-1.83,1.1,7.29,7.29,0,0,0-1.64,2.54,11.44,11.44,0,0,0-.73,4.51V74.08h-8V56.63a28.78,28.78,0,0,0-.37-4.56,14.76,14.76,0,0,0-1-3.67h8q.34.84.51,1.38c.09.36.21.88.33,1.56a12.4,12.4,0,0,1,4.11-2.76,11.89,11.89,0,0,1,4.47-.9,8.6,8.6,0,0,1,3.49.7,8.36,8.36,0,0,1,2.8,1.95,9.07,9.07,0,0,1,1.85,3.1,11.91,11.91,0,0,1,.67,4.12V74.08Z"/></svg>