<svg id="Layer_1" data-name="Layer 1" xmlns="http://www.w3.org/2000/svg" viewBox="0 0 151.53 128"><defs><style>.cls-1{fill:#f2f2f2;}</style></defs><path class="cls-1" d="M51.44,44.4a24,24,0,0,0-5.2-3.32,12.61,12.61,0,0,0-5-.92,15.31,15.31,0,0,0-3.36.36,5.48,5.48,0,0,0-2.8,1.6,8.84,8.84,0,0,0-1.92,3.6A23.73,23.73,0,0,0,32.4,52h8.24v7.6H32.4V87.2H21.76V59.6H15.12V52H21.6a36.21,36.21,0,0,1,1.24-10.4,14.64,14.64,0,0,1,3.52-6.24,11.73,11.73,0,0,1,5.52-3,31.18,31.18,0,0,1,7.4-.8,23.09,23.09,0,0,1,7,1,26.06,26.06,0,0,1,6.56,3.24ZM44.32,87.2V52H55V87.2Z"/><path class="cls-1" d="M93.28,77.44a10.07,10.07,0,0,1-3.39,8q-3.39,3-9.53,3a40.22,40.22,0,0,1-8.12-.8,23.68,23.68,0,0,1-6.4-2.16l1.36-8.16q7,3.6,12.16,3.6a3.47,3.47,0,0,0,2.52-.76,2.37,2.37,0,0,0,.76-1.72,3.07,3.07,0,0,0-.6-2,9.11,9.11,0,0,0-2.92-1.88,47.26,47.26,0,0,1-5.64-2.88,18.85,18.85,0,0,1-3.84-3,10.07,10.07,0,0,1-2.16-3.32,11.11,11.11,0,0,1-.68-4,9,9,0,0,1,3.87-7.8q3.87-2.76,10.1-2.76a30.75,30.75,0,0,1,6,.52,27.69,27.69,0,0,1,6,2l-1.28,8.08a18.79,18.79,0,0,0-5.5-2.2,24.59,24.59,0,0,0-5.25-.6,3.66,3.66,0,0,0-2.55.68,2.4,2.4,0,0,0-.69,1.8,2.64,2.64,0,0,0,1.1,2.2,22.73,22.73,0,0,0,4.26,2.2,50.1,50.1,0,0,1,4.86,2.76A17.46,17.46,0,0,1,90.93,71a8.52,8.52,0,0,1,1.81,3A10.59,10.59,0,0,1,93.28,77.44Z"/><path class="cls-1" d="M125.84,87.2V67.3a10.3,10.3,0,0,0-.37-3.08,4,4,0,0,0-1-1.78,3.2,3.2,0,0,0-1.47-.81,7.35,7.35,0,0,0-1.71-.19,4.85,4.85,0,0,0-2.66.81,8.22,8.22,0,0,0-2.25,2.2,12.21,12.21,0,0,0-1.59,3.28,12.73,12.73,0,0,0-.61,4V87.2H103.52V32.4h10.56V56a12.21,12.21,0,0,1,4.42-3.08,14.76,14.76,0,0,1,5.36-.92,17.45,17.45,0,0,1,4.62.62,11.83,11.83,0,0,1,4,2,9.93,9.93,0,0,1,2.87,3.62,12.47,12.47,0,0,1,1.11,5.53V87.2Z"/></svg>