<svg id="Layer_1" data-name="Layer 1" xmlns="http://www.w3.org/2000/svg" viewBox="0 0 128 128"><path d="M61.71,78.16c0-.28,0-.62-.07-1s-.07-.7-.09-1.14,0-.9-.09-1.38a9.53,9.53,0,0,1-3.91,3.09,12.68,12.68,0,0,1-5.12,1.05,9.48,9.48,0,0,1-7.66-3.24Q42,72.28,42,66.28,42,59,46.44,55.09T59,51.16q1.34,0,2.43.06t2.19.21c.73.1,1.48.23,2.26.39s1.62.38,2.55.66v17q0,1.38.06,2.91t.18,2.79q.12,1.5.24,2.94ZM60.45,58.6a12.23,12.23,0,0,0-1.89-.3q-.86-.06-1.59-.06a6.4,6.4,0,0,0-5.13,2.13A8.78,8.78,0,0,0,50,66.28a5.88,5.88,0,0,0,1.1,3.84,3.82,3.82,0,0,0,3.11,1.32,5.49,5.49,0,0,0,2.41-.54,6,6,0,0,0,2-1.53A7.27,7.27,0,0,0,60,67a8.76,8.76,0,0,0,.49-3Z"/><path d="M94.29,78.16v-15a6.09,6.09,0,0,0-.39-2.43,3.43,3.43,0,0,0-.93-1.3,2.36,2.36,0,0,0-1.14-.52,7.05,7.05,0,0,0-1-.09,6.28,6.28,0,0,0-1.26.23,4.38,4.38,0,0,0-1.83,1.1,7.5,7.5,0,0,0-1.65,2.55,11.61,11.61,0,0,0-.72,4.51V78.16h-8V60.71A29.75,29.75,0,0,0,77,56.16a14.85,14.85,0,0,0-1-3.68h8a11.48,11.48,0,0,1,.51,1.38q.15.54.33,1.56A12.5,12.5,0,0,1,89,52.66a11.89,11.89,0,0,1,4.47-.9,8.65,8.65,0,0,1,3.5.7,8.24,8.24,0,0,1,2.79,2,9,9,0,0,1,1.85,3.09,11.91,11.91,0,0,1,.68,4.12V78.16Z"/></svg>