<svg id="Layer_1" data-name="Layer 1" xmlns="http://www.w3.org/2000/svg" viewBox="0 0 128 128"><path d="M56.86,77.14c0-.28,0-.62-.07-1s-.07-.7-.09-1.14-.05-.9-.1-1.38a9.41,9.41,0,0,1-3.91,3.09,12.6,12.6,0,0,1-5.11,1,9.48,9.48,0,0,1-7.66-3.24q-2.74-3.24-2.74-9.24,0-7.26,4.41-11.19t12.56-3.93q1.34,0,2.43.06t2.19.21q1.09.15,2.25.39c.77.16,1.63.38,2.56.66v17q0,1.38.06,2.91t.18,2.79q.12,1.5.24,2.94ZM55.6,57.58a12.23,12.23,0,0,0-1.89-.3q-.85-.06-1.59-.06A6.4,6.4,0,0,0,47,59.35a8.78,8.78,0,0,0-1.83,5.91,5.82,5.82,0,0,0,1.1,3.84,3.82,3.82,0,0,0,3.11,1.32,5.49,5.49,0,0,0,2.41-.54,6,6,0,0,0,2-1.53A7.46,7.46,0,0,0,55.11,66a8.76,8.76,0,0,0,.49-3Z"/><path d="M73.78,77.14V56.44H68.5v-5.7h5.28V44.08h7.86v6.66h6.78v5.7H81.64v20.7Z"/></svg>