<svg xmlns="http://www.w3.org/2000/svg" xmlns:xlink="http://www.w3.org/1999/xlink" width="673" height="728" viewBox="0 0 673 728">
  <defs>
    <style>
      .cls-1 {
        isolation: isolate;
      }

      .cls-2 {
        fill: #221f1f;
        stroke: #eee8d2;
        stroke-width: 4px;
      }

      .cls-19, .cls-2, .cls-20, .cls-28 {
        stroke-miterlimit: 10;
      }

      .cls-3 {
        fill: url(#linear-gradient);
      }

      .cls-4 {
        fill: #ffda22;
      }

      .cls-5 {
        fill: #f93a3a;
      }

      .cls-6 {
        fill: #ba2025;
      }

      .cls-7 {
        fill: #ffc10d;
      }

      .cls-8 {
        fill: url(#linear-gradient-2);
      }

      .cls-9 {
        fill: url(#linear-gradient-3);
      }

      .cls-10 {
        fill: url(#linear-gradient-4);
      }

      .cls-11 {
        fill: url(#linear-gradient-5);
      }

      .cls-12 {
        fill: url(#linear-gradient-6);
      }

      .cls-13 {
        fill: url(#linear-gradient-7);
      }

      .cls-14 {
        fill: url(#linear-gradient-8);
      }

      .cls-15, .cls-18 {
        mix-blend-mode: multiply;
      }

      .cls-15 {
        fill: url(#linear-gradient-9);
      }

      .cls-16 {
        fill: url(#linear-gradient-10);
      }

      .cls-17 {
        fill: url(#linear-gradient-11);
      }

      .cls-18 {
        fill: url(#linear-gradient-12);
      }

      .cls-19 {
        fill: #895800;
        stroke: #473300;
      }

      .cls-20, .cls-26 {
        fill: #e476ff;
      }

      .cls-20 {
        stroke: #47201f;
      }

      .cls-21 {
        fill: #9d13bf;
      }

      .cls-22 {
        fill: #7a3819;
      }

      .cls-23 {
        fill: #83381b;
      }

      .cls-24 {
        fill: #550f0e;
      }

      .cls-25 {
        fill: #f4c813;
      }

      .cls-27 {
        fill: #f3ba19;
      }

      .cls-28, .cls-30 {
        fill: #ece5e3;
      }

      .cls-28 {
        stroke: #5f4d45;
      }

      .cls-29 {
        fill: #0b1e34;
      }

      .cls-31 {
        fill: #fdbd2c;
      }
    </style>
    <linearGradient id="linear-gradient" x1="11075.28" y1="-9600.44" x2="11281.69" y2="-9600.44" gradientTransform="matrix(0, 0.61, -0.7, 0.16, -6428.88, -4990.75)" gradientUnits="userSpaceOnUse">
      <stop offset="0.01" stop-color="#e68625"/>
      <stop offset="1" stop-color="#f9a748"/>
    </linearGradient>
    <linearGradient id="linear-gradient-2" x1="330" y1="162.45" x2="324.14" y2="160.55" gradientTransform="matrix(1, 0.06, -0.06, 1, 47.94, -21.59)" xlink:href="#linear-gradient"/>
    <linearGradient id="linear-gradient-3" x1="297.43" y1="191.23" x2="280.73" y2="185.81" gradientTransform="matrix(1, 0.06, -0.06, 1, 47.94, -21.59)" xlink:href="#linear-gradient"/>
    <linearGradient id="linear-gradient-4" x1="263.29" y1="195.71" x2="246.6" y2="190.29" gradientTransform="matrix(1, 0.06, -0.06, 1, 47.94, -21.59)" xlink:href="#linear-gradient"/>
    <linearGradient id="linear-gradient-5" x1="260.74" y1="220.06" x2="252.04" y2="217.23" gradientTransform="matrix(1, 0.06, -0.06, 1, 47.94, -21.59)" xlink:href="#linear-gradient"/>
    <linearGradient id="linear-gradient-6" x1="9515.52" y1="-7322.08" x2="9507.64" y2="-7324.64" gradientTransform="matrix(-0.01, 0.82, -0.92, 0.21, -6429.1, -6014.39)" xlink:href="#linear-gradient"/>
    <linearGradient id="linear-gradient-7" x1="9543.37" y1="-7331.76" x2="9535.49" y2="-7334.32" gradientTransform="matrix(-0.01, 0.82, -0.92, 0.21, -6429.1, -6014.39)" xlink:href="#linear-gradient"/>
    <linearGradient id="linear-gradient-8" x1="9574" y1="-7342.94" x2="9567.97" y2="-7344.9" gradientTransform="matrix(-0.01, 0.82, -0.92, 0.21, -6429.1, -6014.39)" xlink:href="#linear-gradient"/>
    <linearGradient id="linear-gradient-9" x1="9645.65" y1="-7403.34" x2="9491.57" y2="-7453.36" gradientTransform="matrix(-0.01, 0.82, -0.92, 0.21, -6429.1, -6014.39)" xlink:href="#linear-gradient"/>
    <linearGradient id="linear-gradient-10" x1="211.92" y1="279.5" x2="207.15" y2="277.95" gradientTransform="matrix(1, 0.06, -0.06, 1, 47.94, -21.59)" xlink:href="#linear-gradient"/>
    <linearGradient id="linear-gradient-11" x1="14320.5" y1="-6442.27" x2="14526.91" y2="-6442.27" gradientTransform="matrix(0.26, 0.51, -0.65, 0.38, -7645.36, -4512.11)" xlink:href="#linear-gradient"/>
    <linearGradient id="linear-gradient-12" x1="12070.81" y1="-5011.15" x2="11916.73" y2="-5061.17" gradientTransform="matrix(0.34, 0.68, -0.86, 0.51, -8079.7, -5357.78)" xlink:href="#linear-gradient"/>
  </defs>
  <g class="cls-1">
    <g id="Layer_1" data-name="Layer 1">
      <g id="Butterfly_02">
        <g>
          <g>
            <path class="cls-2" d="M342.66,362.23c12.28-7.25,24-26.82,29.53-34.9,7.31-10.72,14.45-21.59,21.16-32.53,16.62-27.09,31.15-55.28,40.54-83.73,7.14-21.61,12.84-45,8.44-64.94C440.67,138.66,436.9,132,430,128.3c-8.42-4.46-20.24-2.59-30.84,1-13.78,4.64-27.31,12.6-40.26,19.8-14.27,7.93-37.72,12.7-52.48,13-26.92.6-48.74,24.23-48.53,48.22.12,13.14,19.73,46,24.79,57,5.77,12.52,11.11,25.28,17.2,37.61s12.63,24.21,17.46,37.27c2.77,7.49,5.06,22.15,15.79,22.78A17,17,0,0,0,342.66,362.23Z"/>
            <path class="cls-3" d="M316.14,368.24a70.12,70.12,0,0,1-17.08.76c-11.3-.6-21.9-3-32.47-5.26a201.35,201.35,0,0,1-56.66-21.64,144.23,144.23,0,0,1-23.24-16.2c-6.41-5.49-12.74-11.57-16.92-18.82s-5.2-16.52,3-25.05c6.77-7.07,17-10.67,25.8-13.07a166.74,166.74,0,0,1,47.28-5.39c8.07.21,16.08,1.14,22.87,3.94s11.6,7.37,15.88,12.51c9.66,11.61,15.81,26.09,22.23,39.76,3.16,6.73,6.24,13.5,9.35,20.25,1.59,3.45,3.14,6.94,4.8,10.36,1.36,2.8,3.52,5.54,3.62,8.93C324.68,363.58,321.11,367.28,316.14,368.24Z"/>
            <path class="cls-4" d="M341.55,296.39c-1.38,5.91-1.19,11.65-1.1,17.31.13,8.09.46,16.26-1,24.66-.08.4-.16.8-.23,1.19,2.39-5.22,4.82-10.45,6.91-15.74,3.1-7.85,6.26-15.64,8.86-23.54,1.43-4.35,2.68-8.76,4.08-13.15C353.66,280.61,343.49,288.08,341.55,296.39Z"/>
            <path class="cls-5" d="M407.2,176.65c-.37-3.71-3.57-14.28-10.57-10-5.86,3.6-5.11,14.83-5.05,19.24.09,7.51,1.39,14.7,1.31,22.26-.19,18.32-2.54,37.65-10.64,56.6a10.61,10.61,0,0,1,1.72,2.59,15.32,15.32,0,0,1,1,8.33c.27-2.75,2.87-6.87,4-9.68q1.93-4.93,3.7-9.88,3.62-10.26,6.35-20.53a234,234,0,0,0,7-40.28c.52-6.2,1.75-12.61,1.19-18.6A.2.2,0,0,0,407.2,176.65Z"/>
            <path class="cls-5" d="M389,179.75c-3.45-6.46-12.5-9.77-21.59-5.3-13.82,6.79-10.75,20.35-8.39,29.31,3.59,13.68,7.21,26.52,6.88,41.59a198.94,198.94,0,0,1-2.74,31c2.72-5.71,7.23-12.52,13.52-13.62a5.72,5.72,0,0,1,3.2.32c11.1-26.61,9.85-52.62,9.21-78.12C389,183.67,388.92,181.82,389,179.75Z"/>
            <path class="cls-5" d="M334.05,209.48c.06.11.14.21.2.33a.93.93,0,0,1-.13,1,84.55,84.55,0,0,0,2.55,14.52c5.05,20.41,8.34,41.12,5.67,63.51a16.4,16.4,0,0,1,5-4.58c4.68-2.73,8.75-3.13,11.85-1.47a178.37,178.37,0,0,0,3.2-22.5c.88-9.59,1.43-19.33.39-28.47-1-8.3-3.44-15.93-5.58-23.74-1.52-5.6-3.73-11.88-3.08-18.32h-.06c-4.16-.5-10.76-1.12-14.93,2.58a15.51,15.51,0,0,0-4.79,9.92A41.65,41.65,0,0,0,334.05,209.48Z"/>
            <path class="cls-5" d="M301.89,216c-4.7,9-3.06,17.77-.87,25.54,3.11,11.06,7.66,21.42,11.25,32.25a123.51,123.51,0,0,1,4.29,15.64c.41,2.15.65,4.38.89,6.61a15.89,15.89,0,0,1,2.24-1.3c6.29-3,13.59-3.5,18.91-1.35a143.93,143.93,0,0,0-.37-45.9c-1.72-10.18-5.11-19.67-6.66-29.9-.32-2.13-.68-4.48-.86-6.93C325.32,202,308.19,204,301.89,216Z"/>
            <path class="cls-4" d="M333.15,353.56c2-8.85,4.16-17.65,4.31-26.4.14-8.52-.83-17,.32-25.69a35.63,35.63,0,0,1,.93-4.74c-5.44-2.64-16.49-1.58-21.31,3a201.91,201.91,0,0,1,8.79,25.4,125,125,0,0,1,3.6,17.88,69.58,69.58,0,0,0,1.74,10.18c.22.84.48,1.71.78,2.58C332.57,355,332.87,354.29,333.15,353.56Z"/>
            <path class="cls-4" d="M362.23,286.13c-1.36,4.22-2.45,8.47-3.76,12.63a282.78,282.78,0,0,1-12.16,31.53c-3.52,7.79-7.36,15.56-10.3,23.41-.37,1.58-.71,3.15-1,4.73.48-2.34,5.43-7.22,7.1-9.47q3.56-4.83,7-9.72c4.67-6.62,9.16-13.33,13.39-20.13,5.44-8.75,11.07-17.54,15-26.69,3.2-7.43,7.11-18.54,2.79-24.43-2.85-3.89-6.76-2.75-10.23,2A54.49,54.49,0,0,0,362.23,286.13Z"/>
            <path class="cls-2" d="M316.14,368.24a70.12,70.12,0,0,1-17.08.76c-11.3-.6-21.9-3-32.47-5.26a201.35,201.35,0,0,1-56.66-21.64,144.23,144.23,0,0,1-23.24-16.2c-6.41-5.49-12.74-11.57-16.92-18.82s-5.2-16.52,3-25.05c6.77-7.07,17-10.67,25.8-13.07a166.74,166.74,0,0,1,47.28-5.39c8.07.21,16.08,1.14,22.87,3.94s11.6,7.37,15.88,12.51c9.66,11.61,15.81,26.09,22.23,39.76,3.16,6.73,6.24,13.5,9.35,20.25,1.59,3.45,3.14,6.94,4.8,10.36,1.36,2.8,3.52,5.54,3.62,8.93C324.68,363.58,321.11,367.28,316.14,368.24Z"/>
            <path class="cls-5" d="M250.14,286.13c.13.16.26.31.38.47a.25.25,0,0,1,0,.11,45,45,0,0,0,6.1,6.15c6.06,5.31,12.83,9.95,19,15.18a245.16,245.16,0,0,1,27.63,27.33c4.07,4.78,8.28,9.62,11.62,14.93,2.86,4.56,5.34,9.35,7.92,14.09a7.77,7.77,0,0,0,1.76-5.07c-.1-3.39-2.26-6.13-3.62-8.93-1.66-3.42-3.21-6.91-4.8-10.36-3.11-6.75-6.19-13.52-9.35-20.25q-1.47-3.13-2.94-6.32c-2.69-3.71-4.14-8.42-6.84-12.07-4.19-5.66-9.27-10.36-14.47-15.17-4.16-3.85-8.82-7.51-14.49-9.69-4.58-1.75-11.65-3.3-17.36.34C246.83,279.34,247.87,282.92,250.14,286.13Z"/>
            <path class="cls-5" d="M322.06,365.21c-3.76-6.84-7.37-13.73-12.15-19.93a220.93,220.93,0,0,0-16.2-18.83,271.26,271.26,0,0,0-32-28.16c-4.29-3.22-9.15-6.75-12.1-11.28h0c-3.55-4.67-9-8.22-14.59-10.84s-13.23-5.6-20.75-3c-2.76,1-6.24,3-7.5,5.64a6.5,6.5,0,0,0,.59,6.38c2.15,3.52,5.57,6.23,9.17,8.57.33.09.61.16.86.21a.34.34,0,0,1,.27.51l1.73,1.05c7.49,4.49,15.74,8.09,23.63,12.08,9,4.55,17.83,9.3,26.28,14.48q1.86.94,3.66,1.95a.29.29,0,0,1,.13.43q2.52,1.61,5,3.28a229,229,0,0,1,23.72,18.43l1.35,1a.38.38,0,0,1,.12.34q3.69,3.33,7.19,6.81a93.88,93.88,0,0,1,7.63,9.05c.81,1,1.63,2.06,2.49,3.05A10.07,10.07,0,0,0,322.06,365.21Z"/>
            <path class="cls-5" d="M280.41,334.2c-6.72-3.31-14.85-7.23-23.76-6.4-3.57.34-7.76,1.79-10.13,5-3.51,4.8-1.08,9.67,1.33,13,5.69,7.89,14.5,14.11,23.47,18.82l.19.09c8.95,1.9,18,3.72,27.55,4.23a70.12,70.12,0,0,0,17.08-.76,12.29,12.29,0,0,0,3.58-1.3c-2.06-2.39-3.93-4.92-5.86-7.41a86.69,86.69,0,0,0-10.32-10.41c-.79-.72-1.6-1.43-2.4-2.14A143.86,143.86,0,0,0,280.41,334.2Z"/>
            <path class="cls-4" d="M266.3,321.67c-7.61-3.55-15.91-6.79-25-7.81-7.36-.83-18.85.11-22.45,9.31-2.32,5.94.89,11.3,4.07,15.14a51.8,51.8,0,0,0,11.88,10.22A218.28,218.28,0,0,0,260,362.2c2.2.55,4.41,1.07,6.63,1.54l1.66.35a80.15,80.15,0,0,1-15.75-11.55c-4.23-4-12.54-12.09-6.93-19.76,4.61-6.31,12.51-6.52,18.4-5.51,8.52,1.48,16,5.3,22.86,9.23q3.65,2.1,7.15,4.37-2-1.62-4-3.21a226.61,226.61,0,0,0-21.42-14.88C267.82,322.41,267.07,322,266.3,321.67Z"/>
            <path class="cls-5" d="M187.56,301.12c.32,0,.46.29.39.57a16.55,16.55,0,0,0,1.42,1.48,46.8,46.8,0,0,0,10.09,7,84,84,0,0,0,20.92,8.35.38.38,0,0,1,.27.19,18,18,0,0,1,8.56-5.09c8.61-2.39,17.42-.09,24.44,2.13q4.11,1.31,8,2.9l-2.55-1.47c-10.16-5.69-20.82-10.71-31.27-16a123.4,123.4,0,0,1-11.93-6.68c-6.83-2-29.36-11.72-30.58.06a8.91,8.91,0,0,0,2.12,6.56Z"/>
            <path class="cls-5" d="M186.88,302.16c-4.85.89-3.32,5.43-2.08,7.94a44.27,44.27,0,0,0,6.71,9.62c3.4,3.82,8,6.6,12.55,9.29,6.32,3.76,12.9,7.23,18.95,11.29a23.57,23.57,0,0,1-5.43-9.34,12.16,12.16,0,0,1,2.53-11.61h0a82.23,82.23,0,0,1-23.18-9.57C193.66,307.86,189.51,305.41,186.88,302.16Z"/>
            <path class="cls-6" d="M423.81,149.84c2.88-.21,6-1.75,6.52-4.87a6,6,0,0,0-2.83-5.75,8.83,8.83,0,0,0-3.92-1,6.1,6.1,0,0,0-6.19,7.21C417.94,148.22,420.51,150.08,423.81,149.84Z"/>
            <path class="cls-7" d="M387.82,152.62c-2.54-2-1.11-6.78,2.61-8.58a7.78,7.78,0,0,1,1.25-.48c0-.23.13-.46.54-.5,4.38-.48,8.6,3,5.25,7.46C395,153.85,390.33,154.55,387.82,152.62Z"/>
            <path class="cls-8" d="M362.09,163.25c-1.64-1.05-1.78-4.09.58-5.64a3,3,0,0,1,3.86.08c1.06.4,1.36,1.84.68,3.11C366.24,162.61,363.77,164.33,362.09,163.25Z"/>
            <path class="cls-9" d="M322.58,193.43c-5.75.19-9.25-4.62-6.94-10.05,2.48-5.83,9.18-8.78,14.2-6.48,2.48,1.13,4.51,3.83,4,6.64C334.13,188.21,328.34,193.25,322.58,193.43Z"/>
            <path class="cls-10" d="M288.23,195.74c-5.75.18-9.25-4.63-6.94-10.06,2.49-5.83,9.18-8.78,14.2-6.48,2.48,1.13,4.51,3.83,4,6.64C299.79,190.52,294,195.55,288.23,195.74Z"/>
            <path class="cls-11" d="M285,214.63c-.55-2.85,2.4-6,5.68-6.11a3.32,3.32,0,0,1,2.86,1.16c2,1,2,3.87-.53,5.78C290.3,217.52,285.55,217.55,285,214.63Z"/>
            <path class="cls-12" d="M288.1,240.65c3.38-2,1.92-5.7-.75-6.12a3.3,3.3,0,0,0-2.13.49,2.88,2.88,0,0,0-.65.3,4.14,4.14,0,0,0-1.65,2.91,3,3,0,0,0,1,2.92C285,242,286.73,241.44,288.1,240.65Z"/>
            <path class="cls-13" d="M296.89,261.46c3.39-2,1.92-5.69-.74-6.11a3.34,3.34,0,0,0-2.14.49,2.82,2.82,0,0,0-.64.3,4.19,4.19,0,0,0-1.66,2.91,3,3,0,0,0,1,2.92C293.8,262.76,295.53,262.26,296.89,261.46Z"/>
            <path class="cls-14" d="M306.4,284.46c2.59-1.51,1.47-4.36-.57-4.68a2.47,2.47,0,0,0-1.64.38,2.32,2.32,0,0,0-.49.22,3.19,3.19,0,0,0-1.27,2.23,2.29,2.29,0,0,0,.77,2.24C304,285.46,305.35,285.07,306.4,284.46Z"/>
            <path class="cls-5" d="M368.79,321.36l.44-.78c1.92-3.68,3.36-7.51,5.15-11.23l5.3-11c3.64-7.66,7.24-15.34,10.58-23.06a278.73,278.73,0,0,0,16-46.62c3.73-15.89,5.5-31.62,9.18-47.49a91.06,91.06,0,0,1,2.87-10.85c1-2.82,2.68-7,6.25-8.16,4.94-1.63,7,4,8.08,6.9a40.4,40.4,0,0,1,1.63,19.51c-2.06,14.79-8.68,29.56-16,44-7.39,14.64-15.21,29.17-22.45,43.85-6.37,12.91-12.91,25.89-20.9,38.37-.78,1.57-1.81,3-2.56,4.58a7,7,0,0,1-2.21,2.9C369.43,322.77,368.4,322.06,368.79,321.36Z"/>
            <path class="cls-15" d="M384.05,260.26c-.56,1.5-1.16,3-1.8,4.51a3.81,3.81,0,0,1,.24.32C383.05,263.5,383.57,261.88,384.05,260.26Z"/>
            <path class="cls-7" d="M175.34,299.05a2.41,2.41,0,0,1-2.46-3.5,4,4,0,0,1,5-2.27,2.25,2.25,0,0,1,1.42,2.31C179.42,297.22,177.38,299,175.34,299.05Z"/>
            <path class="cls-6" d="M190.43,286.48c-3.77.13-6.07-3-4.55-6.5,1.63-3.78,6-5.7,9.32-4.23a4.2,4.2,0,0,1,2.63,4.3C198,283.07,194.21,286.34,190.43,286.48Z"/>
            <path class="cls-16" d="M238.84,272.28a2,2,0,0,1-2-2.84,3.23,3.23,0,0,1,4.06-1.84,1.84,1.84,0,0,1,1.15,1.87C242.14,270.79,240.49,272.22,238.84,272.28Z"/>
          </g>
          <g>
            <path class="cls-2" d="M354.85,351.83c9.53-10.38,13.29-30.75,15.51-39.4,3-11.47,5.68-23,7.93-34.45,5.58-28.33,8.54-56.82,6.12-83.69-1.84-20.41-5.91-41.79-18.88-56.67a28.87,28.87,0,0,0-20.24-10.32c-10.53-.67-21.87,5.1-31.24,11.84-12.18,8.76-22.69,20.18-32.93,30.77-11.29,11.66-33.34,24-48.35,29.54-27.4,10.13-39.77,37.46-29.38,57.21,5.69,10.81,39.77,30.95,49.61,38.2,11.23,8.28,22.13,16.91,33.61,24.92s23.24,15.49,33.73,24.55c6,5.2,14.59,16.49,25.87,13.17A19.13,19.13,0,0,0,354.85,351.83Z"/>
            <path class="cls-17" d="M330.17,366.28A87.85,87.85,0,0,1,313,373c-11.85,3.55-23.77,5.33-35.56,7.28A276,276,0,0,1,210,382.7a192.7,192.7,0,0,1-30.72-5.07c-8.91-2.25-18-5-25.36-9.5s-12.34-11.79-7.58-21.76c4-8.26,12.92-14.89,21-20A203.72,203.72,0,0,1,213.58,305c8.37-2.71,17-4.81,25.15-4.92s15,1.94,21.61,4.65c14.84,6.13,27.3,15.9,39.68,24.89,6.1,4.43,12.13,8.92,18.18,13.39,3.11,2.28,6.18,4.61,9.33,6.84,2.59,1.83,6,3.32,7.5,6.09C337,359.38,334.86,363.71,330.17,366.28Z"/>
            <path class="cls-4" d="M325.79,297.83c1.09,5.37,3.72,10.05,6.21,14.69,3.57,6.64,7.37,13.27,9.4,20.75l.27,1.07c.24-5.17.52-10.36.42-15.48-.15-7.6-.21-15.16-.89-22.62-.37-4.11-1-8.2-1.38-12.33C331.53,280.46,324.26,290.27,325.79,297.83Z"/>
            <path class="cls-5" d="M342.41,175.41c-2-2.94-9.72-10.53-15.08-4.47-4.5,5.07,1,14.08,3,17.7,3.29,6.18,7.67,11.65,10.79,17.93,7.57,15.2,13.37,32,13.08,50.57a12,12,0,0,1,2.87,1.52,13.15,13.15,0,0,1,4.6,6.51c-.88-2.37,0-6.7,0-9.42-.07-3.17-.19-6.34-.4-9.49Q360.58,236.5,359,227a175.38,175.38,0,0,0-9.92-35.78c-2.1-5.31-3.55-11-6.66-15.79Z"/>
            <path class="cls-5" d="M325,184.5c-6.27-4.1-17-3.6-24.41,3.34-11.31,10.56-2.41,20.67,3.82,27.23,9.49,10,18.65,19.33,24.7,31.9a153.31,153.31,0,0,1,10.33,26.58c.37-5.7,2.12-12.93,8.11-16.09a7.45,7.45,0,0,1,3.42-.89c.1-25.95-12.21-47-23.67-67.83C326.71,187.71,325.84,186.22,325,184.5Z"/>
            <path class="cls-5" d="M281.23,228.7c.11.08.24.13.35.21a.73.73,0,0,1,.3.88,73.06,73.06,0,0,0,8.78,11.09c13.83,15.05,26,31,32.74,50.45a13.91,13.91,0,0,1,3.21-5.58c3.64-3.93,7.65-5.72,11.53-5.46a132.9,132.9,0,0,0-6.24-19.73c-3.17-8.24-6.73-16.49-11.68-23.67-4.49-6.51-10.28-11.92-15.79-17.62-3.95-4.07-8.88-8.47-10.94-14l-.07,0c-4.48,1.08-11.51,2.93-14.22,7.48a11.54,11.54,0,0,0-.71,9.91A33,33,0,0,0,281.23,228.7Z"/>
            <path class="cls-5" d="M251,245.6c-1,9.1,4.39,15.78,9.93,21.41,7.9,8,17,15,25.24,22.63a115,115,0,0,1,11,11.38c1.33,1.64,2.52,3.39,3.72,5.14a15.71,15.71,0,0,1,1.75-1.87c5.19-4.72,12.47-7.76,18.84-7.88a116.07,116.07,0,0,0-19.85-37.8c-6.08-7.79-13.59-14.42-19.52-22.32-1.23-1.64-2.59-3.45-3.82-5.42C269.11,225.66,252.34,233.4,251,245.6Z"/>
            <path class="cls-4" d="M341.41,348.07c-1.73-8-3.22-16.07-6.78-23.35-3.46-7.09-8-13.72-10.56-21.34a27.64,27.64,0,0,1-1.05-4.26c-6.7-.23-17.6,4.6-20.61,10.11a197.61,197.61,0,0,1,19.79,17.83,112.2,112.2,0,0,1,11.28,13.48,62.2,62.2,0,0,0,6.1,7.8c.59.61,1.23,1.24,1.9,1.85C341.44,349.49,341.43,348.78,341.41,348.07Z"/>
            <path class="cls-4" d="M342.67,282c.4,4,1.08,7.88,1.49,11.78a207.25,207.25,0,0,1,.9,30.41c-.32,7.69-1,15.49-.65,23,.29,1.44.6,2.86.93,4.28-.49-2.11,2.52-7.9,3.27-10.36,1.07-3.51,2.11-7,3.08-10.54,2-7.15,3.75-14.29,5.21-21.42,1.88-9.18,3.93-18.46,4.09-27.42.13-7.29-.57-17.87-7.5-21.19-4.57-2.19-8.11.15-9.67,5.29A40,40,0,0,0,342.67,282Z"/>
            <path class="cls-2" d="M330.17,366.28c-5.47,3-8.11,3.43-13.5,6-8.88,4.28-24,8.14-35.79,10.09-22.8,3.76-49.44,2.11-70.84.31a192.7,192.7,0,0,1-30.72-5.07c-8.91-2.25-18-5-25.36-9.5s-12.34-11.79-7.58-21.76c4-8.26,12.92-14.89,21-20A203.72,203.72,0,0,1,213.58,305c8.37-2.71,17-4.81,25.15-4.92s15,1.94,21.61,4.65c14.84,6.13,27.3,15.9,39.68,24.89,6.1,4.43,12.13,8.92,18.18,13.39,3.11,2.28,6.18,4.61,9.33,6.84,2.59,1.83,6,3.32,7.5,6.09C337,359.38,334.86,363.71,330.17,366.28Z"/>
            <path class="cls-5" d="M227.59,322.06l.59.26a.22.22,0,0,1,.09.07,55.47,55.47,0,0,0,8.87,2.9c8.47,2.22,17.39,3.63,25.92,5.76A307.54,307.54,0,0,1,303,343.74c6.2,2.49,12.58,5,18.26,8.18,4.87,2.74,9.45,5.81,14.11,8.8A3.66,3.66,0,0,0,335,357c-1.55-2.76-4.92-4.25-7.51-6.08-3.15-2.24-6.15-5.61-9.26-7.89-6.05-4.47-12.08-9-18.18-13.39l-5.7-4.16c-4.33-2.11-7.82-5.48-12.14-7.53-6.7-3.18-13.91-5.24-21.29-7.36a61.37,61.37,0,0,0-19-2.82c-5.44.19-13.36,1.45-17.68,6.5C221.31,317.64,223.9,320.23,227.59,322.06Z"/>
            <path class="cls-5" d="M227.37,323c-5.62-2.59-12.73-3.56-19.57-3.73s-16,.11-22.56,5c-2.43,1.79-5.15,4.67-5.31,7.35-.13,2.36,1.45,4,3.31,5.05,3.7,2.14,8.36,3.16,13.06,3.8.37,0,.69-.08,1-.13s.51.12.5.32l2.22.26c9.6,1,19.59,1,29.39,1.52,11.15.54,22.24,1.3,33.12,2.56,1.54.07,3.07.17,4.58.3.26,0,.34.16.31.31,2.18.28,4.36.58,6.52.92a298.76,298.76,0,0,1,32.18,6.74l1.79.31a.37.37,0,0,1,.27.24q5.21,1.44,10.28,3.06a114.15,114.15,0,0,1,11.66,4.74c1.27.56,2.55,1.12,3.85,1.64a9.13,9.13,0,0,0,1-1.56c-6.76-4.3-13.39-8.7-20.92-12.12-8-3.61-16.16-6.88-24.62-9.75A345.47,345.47,0,0,0,244.59,328"/>
            <path class="cls-5" d="M279.06,351c-8.31-.34-18.32-.66-27.11,3.22-3.52,1.55-7.21,4.25-8.27,7.78-1.56,5.23,3,8.38,6.89,10.28,9.19,4.48,20.87,6.48,32.08,7.15.08,0,2.31-.34,2.38-.34,10-1.64,19.61-4.37,29.63-7.37,5.73-1.71,9.46-4.49,14.93-7.49,1.24-.67,2.86.62,3.71-.25-3.13-1.24-6.13-2.66-9.17-4a106.17,106.17,0,0,0-15-4.91l-3.38-.91A193,193,0,0,0,279.06,351Z"/>
            <path class="cls-4" d="M259.26,345.65c-9.32-.22-19.22.08-29,2.5-7.91,2-19.31,6.83-19.1,15.73.13,5.74,5.7,9,10.6,11.05a66.52,66.52,0,0,0,16.52,4.2,298.7,298.7,0,0,0,31.67,2.27c2.49-.33,5-.69,7.47-1.1l1.85-.31a104.78,104.78,0,0,1-21.07-3.9c-6-1.8-18-5.5-15.5-13.84,2.06-6.87,10.08-9.87,16.55-11.14,9.38-1.83,18.68-1.35,27.39-.56,3.09.28,6.15.65,9.19,1.06q-2.71-.64-5.45-1.23c-9.23-2-18.68-3.5-28.3-4.63C261.13,345.71,260.19,345.67,259.26,345.65Z"/>
            <path class="cls-5" d="M169.7,356.84a.45.45,0,0,1,.64.34c.68.27,1.38.5,2.09.71a62.39,62.39,0,0,0,13.34,2.21,115.76,115.76,0,0,0,25-.59.47.47,0,0,1,.36.06,17.33,17.33,0,0,1,6.63-7.27c7.82-5.06,17.85-6.31,26-7,3.18-.26,6.35-.42,9.49-.48l-3.25-.29c-12.84-1.08-25.91-1.41-38.89-2.07-5.08-.25-10.18-.54-15.08-1.25-7.86.81-35.12.83-31.38,11,.83,2.24,2.73,3.66,5,4.66Z"/>
            <path class="cls-5" d="M169.45,358c-4.6,2.47-1.12,5.67,1.23,7.3a50.42,50.42,0,0,0,11,5.55c5.11,1.94,11,2.58,16.82,3.18,8.08.85,16.31,1.36,24.25,2.55a25.74,25.74,0,0,1-9.54-5.78,9.3,9.3,0,0,1-2.33-10.5h0a112.87,112.87,0,0,1-27.86.39C178.82,360.22,173.52,359.69,169.45,358Z"/>
            <path class="cls-6" d="M348.09,147.3c2.87-1.2,5.44-3.59,4.63-6.35-.62-2.09-2.89-3.3-5.35-3.74a12.16,12.16,0,0,0-4.43.61c-4.35,1.49-5.51,5.53-3.3,8.18C341.38,148.07,344.81,148.69,348.09,147.3Z"/>
            <path class="cls-7" d="M312.32,162.48c-3.44-.71-4-5.2-1-8a8.28,8.28,0,0,1,1.08-.84c-.11-.19-.06-.43.35-.61,4.29-2,10.11-.57,8.55,4.29C320.17,161,315.72,163.18,312.32,162.48Z"/>
            <path class="cls-7" d="M290.41,180.48a2.89,2.89,0,0,1-1.79-4.87,3.75,3.75,0,0,1,4-1.32,2,2,0,0,1,2,2.33C294.4,178.46,292.6,180.77,290.41,180.48Z"/>
            <path class="cls-7" d="M259.34,219.84c-5.83,2.21-11.46-.51-11.39-5.82.08-5.71,5.71-10.54,11.83-10.44,3,0,6.25,1.55,6.94,4C269,211.39,265.17,217.63,259.34,219.84Z"/>
            <path class="cls-6" d="M276.41,198.17c-5.83,2.21-11.46-.51-11.39-5.82.08-5.71,5.7-10.54,11.83-10.44,3,.05,6.25,1.55,6.94,4.05C286.06,189.72,282.24,196,276.41,198.17Z"/>
            <path class="cls-7" d="M228.36,233.75c-5.83,2.21-11.46-.51-11.39-5.83.08-5.7,5.71-10.54,11.83-10.43,3,0,6.25,1.55,6.94,4C238,225.3,234.2,231.53,228.36,233.75Z"/>
            <path class="cls-6" d="M233.05,250.52c-1.77-2.17-.08-5.82,3.24-7.08a4.49,4.49,0,0,1,3.43-.07c2.46.1,3.66,2.49,1.9,5C239.73,251,234.86,252.73,233.05,250.52Z"/>
            <path class="cls-7" d="M247.27,270.9c2.64-2.84-.44-5.39-3.36-4.79a3.87,3.87,0,0,0-2,1.17,3.44,3.44,0,0,0-.54.48,3.15,3.15,0,0,0-.46,3,2.9,2.9,0,0,0,2.27,2.05C244.64,273.08,246.21,272,247.27,270.9Z"/>
            <path class="cls-7" d="M265.13,285c2.63-2.84-.45-5.39-3.36-4.78a3.76,3.76,0,0,0-2,1.17,2.93,2.93,0,0,0-.54.47,3.18,3.18,0,0,0-.46,3,2.9,2.9,0,0,0,2.27,2.05C262.5,287.14,264.07,286.1,265.13,285Z"/>
            <path class="cls-7" d="M284.64,300.55c2-2.17-.34-4.13-2.57-3.66a2.9,2.9,0,0,0-1.52.9,2,2,0,0,0-.41.36,2.45,2.45,0,0,0-.36,2.3,2.24,2.24,0,0,0,1.75,1.57A3.76,3.76,0,0,0,284.64,300.55Z"/>
            <path class="cls-5" d="M364.35,308.71l.12-.8c.41-3.73.26-7.41.52-11.13s.52-7.34.76-11c.49-7.64.93-15.27,1.08-22.84.32-15.15-.52-30-3.38-44.23-2.91-14.46-7.76-28.1-10.71-42.53a64.15,64.15,0,0,1-1.66-10c-.13-2.7-.21-6.73,2.95-9,4.38-3.11,8.93.82,11.23,2.81a34,34,0,0,1,9.94,15.55c4.16,13,3.63,27.52,2.27,42.07-1.38,14.75-3.25,29.55-4.46,44.27-1.06,12.94-2.27,26-5.18,39.18-.14,1.58-.59,3.14-.69,4.7a5.58,5.58,0,0,1-1,3.19C365.59,309.65,364.24,309.43,364.35,308.71Z"/>
            <path class="cls-18" d="M354.1,252.77c.06,1.44.08,2.9.06,4.37.14.05.26.12.39.18C354.45,255.8,354.29,254.28,354.1,252.77Z"/>
            <path class="cls-7" d="M156.28,359.51c-2.06.78-4-.16-4-2a4.09,4.09,0,0,1,4.19-3.67,2.47,2.47,0,0,1,2.44,1.4C159.69,356.53,158.34,358.72,156.28,359.51Z"/>
            <path class="cls-7" d="M166.44,343.72c-3.82,1.45-7.5-.29-7.43-3.74.07-3.71,3.77-6.87,7.78-6.83,2,0,4.08,1,4.52,2.6C172.78,338.19,170.27,342.25,166.44,343.72Z"/>
            <path class="cls-7" d="M210.11,314.66c-1.66.64-3.26-.12-3.24-1.63a3.32,3.32,0,0,1,3.39-3,2,2,0,0,1,2,1.13C212.88,312.25,211.78,314,210.11,314.66Z"/>
          </g>
          <g>
            <path class="cls-19" d="M357,364.93s.05-4.07,3.57-3.06S370,383.58,370,383.58l12.9,1.27a13.6,13.6,0,0,1,8,7.55c4.28,10.31.31,9.11-7.4-1.23-.41-.56-1.76,3.87-2.19,3.26s.18-6.05-.2-6.6l-11.4,1.37a3.35,3.35,0,0,1-3.49-2Z"/>
            <path class="cls-19" d="M327.77,410.1l.09,0c1.86-.91,8.69-1,13,.12,0,0-4.29-10.58-6.47-15.22-.23-.49,3.44-2.81,3.44-2.81s6.37,18.71,4,19.4c-1.56.45-10.67-.54-10.67-.54,5,4.12,10.53,12,10.16,15.88C339,430.43,330.07,417.34,327.77,410.1Z"/>
            <g>
              <path class="cls-20" d="M350.29,379.7c-.81,2.05-1.69,4-2.63,5.88a59.9,59.9,0,0,1-15,19.07,57.56,57.56,0,0,1-9.09,6.26,58.62,58.62,0,0,1-20.85,6.89,50.74,50.74,0,0,1-12.34.15c-7.22-.83-13.05-3.34-16.07-7-3.57-4.28-3.2-10.13,3.46-16.63q1.81-1.77,3.77-3.45c1.92-1.67,3.93-3.26,6-4.78a136.42,136.42,0,0,1,20.92-12.46c2.57-1.25,5.14-2.42,7.67-3.52a215.41,215.41,0,0,1,37.73-12.26C370.54,359.92,350.29,379.7,350.29,379.7Z"/>
              <path class="cls-21" d="M338.27,366.44c2.2,11.07,6.94,15.89,6.29,21.33-.94,7.87-8.44,14-11.85,16.88a57.56,57.56,0,0,1-9.09,6.26,58.62,58.62,0,0,1-20.85,6.89,50.74,50.74,0,0,1-12.34.15c-7.22-.83-13.05-3.34-16.07-7h0c29.92-1.33,64.74-13.87,57.6-25.88-12-20.11.8-22.26.8-22.26Z"/>
            </g>
            <path class="cls-20" d="M378.68,337.46a211.22,211.22,0,0,0-2.43,21.22c-.92,10.78-2.1,19.74-8.44,26.88-12.15,13.68-22.45,11.62-30.7,6-12.71-8.6-9.71-24-9.71-24a3,3,0,0,1,.26-1.25h0c2-5.15,14.74-16.94,21.87-14.83,14.75,4.37,17.8-26.42,17.8-26.42C372,318.25,378.68,337.46,378.68,337.46Z"/>
            <path class="cls-21" d="M376.25,358.68c-.92,10.78-2.1,19.74-8.44,26.88-12.15,13.68-22.45,11.62-30.7,6-12.71-8.6-9.71-24-9.71-24s.29,9.52,22.21,11.33c0,0,14.89.95,20.74-9.87l.9-14.16Z"/>
            <path class="cls-21" d="M374.21,371.94s-23.49.47-30.08-19.81l9.21-12.45L374.88,360"/>
            <g>
              <path class="cls-20" d="M409.14,344.48s3.44-34.67-27.31-33.94c-7.58.18-30.54,3.14-29.44,33.62-1.36,3.67-6.68,20,28.34,24.58,1.7,1.21,8.84,6.55,12.49-.85C394.21,367.8,417.35,364.62,409.14,344.48Z"/>
              <path class="cls-22" d="M352.51,344.53c.69-1.23,1.89-3.66,1.9-3.69s-1.62,2.19-2.3,3.4Z"/>
              <path class="cls-23" d="M393,368.84a14.53,14.53,0,0,0,1-3.18,28.12,28.12,0,0,1-1.41,2.86Z"/>
              <path class="cls-23" d="M381.23,369.41l.28-.44c-2.24-1.83-4.83-3.56-4.83-3.56S379,367.56,381.23,369.41Z"/>
              <path class="cls-24" d="M392.67,319.23s-7.51-5.38-9.08,5.4A9.65,9.65,0,0,1,392.67,319.23Z"/>
              <path class="cls-24" d="M404.54,322s-2.6-3.77-5.14,1A4.79,4.79,0,0,1,404.54,322Z"/>
              <g>
                <path class="cls-23" d="M406.21,347.07a4.45,4.45,0,0,0,2.22-1.41,4.1,4.1,0,0,1-4.65.45l-.21.47A3.41,3.41,0,0,0,406.21,347.07Z"/>
                <g>
                  <g>
                    <path class="cls-25" d="M386.32,333.79l12-12.47s-2.64,8.78,2.9,20.44c2.32,4.9,6.06,8.47.43,11.39-11.83,6.14-19.39-2.58-19.39-2.58Z"/>
                    <path class="cls-26" d="M386.32,333.79l12-12.69s-2.67,9,2.87,20.66c2.32,4.9,6.06,8.47.43,11.39-11.83,6.14-19.39-2.58-19.39-2.58Z"/>
                    <path class="cls-23" d="M397.14,355.14a19.78,19.78,0,0,0,4.63-1.75c1.72-.89,2.69-1.91,3-3.11.43-1.79-.65-3.72-1.9-5.95-.48-.86-1-1.74-1.42-2.68-5.42-11.41-2.91-20.15-2.88-20.24a7.26,7.26,0,0,0-1,3.51,34.16,34.16,0,0,0,3.48,17c.45,1,1,1.85,1.43,2.72,1.19,2.12,2.22,3.95,1.84,5.51-.25,1.06-1.15,2-2.74,2.79-11.55,6-19-2.42-19.11-2.51l-.34.36a15.64,15.64,0,0,0,15,4.39Z"/>
                  </g>
                  <g>
                    <g>
                      <path class="cls-27" d="M383.91,348.94h-.05l0-.06Z"/>
                      <path class="cls-26" d="M377.49,347.77l6.37,1.16c-.29.48-2.55,3.84-7.93,2.61Z"/>
                    </g>
                    <path class="cls-23" d="M383.89,348.87l-.06.09-.18.22-.3.32a5.37,5.37,0,0,1-.41.38c-.07.07-.16.13-.24.2s-.17.14-.27.2a7,7,0,0,1-1.29.71c-.23.1-.48.18-.73.26s-.51.15-.76.19-.51.09-.75.11l-.72.05H377l-.43,0-.38,0,.37.12.42.13.27.07.29,0,.67.1.75,0,.4,0,.4,0c.27,0,.54-.12.82-.18s.52-.19.77-.3a4.07,4.07,0,0,0,.71-.4c.11-.08.22-.14.32-.22l.29-.25a5.49,5.49,0,0,0,.48-.49l.2-.24.16-.23c.1-.14.17-.29.24-.4A3.15,3.15,0,0,0,383.89,348.87Z"/>
                  </g>
                </g>
              </g>
              <g id="eye">
                <g>
                  <path class="cls-28" d="M385.54,336.82c.76,5.83,4.17,10.34,7.2,10s4.87-5.32,4.12-11.16-3.83-10.3-6.87-10S384.79,331,385.54,336.82Z"/>
                  <path class="cls-29" d="M392.75,344.71c1.68,0,3-2.42,3-5.39s-1.36-5.39-3-5.39-3.05,2.42-3.05,5.39S391.07,344.71,392.75,344.71Z"/>
                </g>
                <ellipse class="cls-30" cx="393.6" cy="336.39" rx="1.05" ry="1.58"/>
              </g>
              <g id="eye-2" data-name="eye">
                <g>
                  <path class="cls-28" d="M399.42,334.06c1.1,4.63,4.22,8,6.63,7.46s3.48-4.7,2.38-9.33-3.95-8-6.37-7.45S398.32,329.43,399.42,334.06Z"/>
                  <path class="cls-29" d="M405.88,339.8c1.35-.14,2.25-2.2,2-4.59s-1.56-4.22-2.91-4.08-2.25,2.2-2,4.59S404.53,340,405.88,339.8Z"/>
                </g>
                <ellipse class="cls-30" cx="405.87" cy="333.04" rx="0.85" ry="1.28" transform="translate(-32.5 44.11) rotate(-5.98)"/>
              </g>
              <g>
                <path class="cls-19" d="M397.16,316.07c-.21.43-1.44.26-1.47-.75s6.82-14.09,22.93-16.33c5.61-.78,12.27,1.43,15.45,4.68,1.59,1.63,2.32,3.88,1.21,5.62-2.57,4-8.27-7.06-17.38-6.93C407.87,302.51,400,310.26,397.16,316.07Z"/>
                <path class="cls-31" d="M434,306.83s-5.38-10.57-18.91-6.05C415,300.87,424.35,297.87,434,306.83Z"/>
              </g>
              <g>
                <path class="cls-19" d="M379.12,313.92a.88.88,0,0,1-1.61.15c-.46-.86-.18-16,12.9-26.85,4.55-3.77,11.32-5.51,15.5-4.43,2.1.55,3.71,2.12,3.51,4.24-.48,5-10.29-1.61-18.17,3.52C382.56,296.2,379,307.31,379.12,313.92Z"/>
                <path class="cls-31" d="M408.82,286s-8.82-7.06-19.43,3.43C389.28,289.55,396.69,282.39,408.82,286Z"/>
              </g>
            </g>
            <path class="cls-19" d="M324.42,389.13c-1-1.63-2.57-.53-2.44,1.59.15,2.37,3.48,12.67,8,27.47-3-.18-13.41-1.29-17.33,1.2-2.38,1.5-1.92,6.14-.21,9.85s6.77,11.56,9.32,11,3.52-9.45-6.15-20.39c9.39-.25,15.37,1.19,15.74-.2C333.19,412.62,326,391.64,324.42,389.13Z"/>
            <path class="cls-19" d="M346.94,374.4s.05-4.07,3.57-3.06,9.38,21.71,9.38,21.71l12.9,1.27s4.5-.25,5.3.14c.17.08-2,1.59-1.79,1.69.49.26-.59-.43,0,0a13.32,13.32,0,0,1,4.54,5.71c4.71,11.33-.56,8.77-9.79-4.57l-11.4,1.37a3.35,3.35,0,0,1-3.49-2Z"/>
          </g>
        </g>
      </g>
    </g>
  </g>
</svg>
