<svg xmlns="http://www.w3.org/2000/svg" xmlns:xlink="http://www.w3.org/1999/xlink" width="673" height="728" viewBox="0 0 673 728">
  <defs>
    <style>
      .cls-1 {
        isolation: isolate;
      }

      .cls-2 {
        fill: #221f1f;
        stroke: #eee8d2;
        stroke-width: 4px;
      }

      .cls-2, .cls-20, .cls-21, .cls-30, .cls-33 {
        stroke-miterlimit: 10;
      }

      .cls-3 {
        fill: url(#linear-gradient);
      }

      .cls-4 {
        fill: #ffda22;
      }

      .cls-5 {
        fill: #f93a3a;
      }

      .cls-6 {
        fill: url(#linear-gradient-2);
      }

      .cls-17, .cls-18, .cls-36, .cls-7 {
        mix-blend-mode: multiply;
      }

      .cls-7 {
        fill: url(#linear-gradient-3);
      }

      .cls-8 {
        fill: #ba2025;
      }

      .cls-9 {
        fill: #ffc10d;
      }

      .cls-10 {
        fill: url(#linear-gradient-4);
      }

      .cls-11 {
        fill: url(#linear-gradient-5);
      }

      .cls-12 {
        fill: url(#linear-gradient-6);
      }

      .cls-13 {
        fill: url(#linear-gradient-7);
      }

      .cls-14 {
        fill: url(#linear-gradient-8);
      }

      .cls-15 {
        fill: url(#linear-gradient-9);
      }

      .cls-16 {
        fill: url(#linear-gradient-10);
      }

      .cls-17 {
        fill: url(#linear-gradient-11);
      }

      .cls-18 {
        fill: url(#linear-gradient-12);
      }

      .cls-19 {
        fill: url(#linear-gradient-13);
      }

      .cls-20 {
        fill: #38342c;
        stroke: #231f14;
        stroke-width: 2px;
      }

      .cls-21, .cls-28 {
        fill: #e476ff;
      }

      .cls-21 {
        stroke: #47201f;
      }

      .cls-22 {
        fill: #9d13bf;
      }

      .cls-23 {
        fill: #4c3730;
        opacity: 0.81;
      }

      .cls-24 {
        fill: #7a3819;
      }

      .cls-25 {
        fill: #83381b;
      }

      .cls-26 {
        fill: #550f0e;
      }

      .cls-27 {
        fill: #f4c813;
      }

      .cls-29 {
        fill: #f3ba19;
      }

      .cls-30, .cls-32 {
        fill: #ece5e3;
      }

      .cls-30 {
        stroke: #5f4d45;
      }

      .cls-31 {
        fill: #0b1e34;
      }

      .cls-33 {
        fill: #895800;
        stroke: #473300;
      }

      .cls-34 {
        fill: #fdbd2c;
      }

      .cls-35 {
        fill: url(#linear-gradient-14);
      }

      .cls-36 {
        fill: url(#linear-gradient-15);
      }
    </style>
    <linearGradient id="linear-gradient" x1="14243.97" y1="-11713.61" x2="14401.28" y2="-11713.61" gradientTransform="matrix(-0.25, -0.72, -0.72, 0.08, -4482.15, 11715.01)" gradientUnits="userSpaceOnUse">
      <stop offset="0.01" stop-color="#e68625"/>
      <stop offset="1" stop-color="#f9a748"/>
    </linearGradient>
    <linearGradient id="linear-gradient-2" x1="14243.97" y1="-11713.61" x2="14401.28" y2="-11713.61" gradientTransform="matrix(-0.25, -0.72, -0.72, 0.08, -4482.15, 11715.01)" gradientUnits="userSpaceOnUse">
      <stop offset="0.01" stop-color="#1f0c0d"/>
      <stop offset="1" stop-color="#565759"/>
    </linearGradient>
    <linearGradient id="linear-gradient-3" x1="14255.68" y1="-11806.63" x2="14402.35" y2="-11806.63" xlink:href="#linear-gradient"/>
    <linearGradient id="linear-gradient-4" x1="858.26" y1="2369.06" x2="852.42" y2="2367.17" gradientTransform="matrix(0.9, -0.46, -0.47, -1.15, 737.66, 3615.86)" xlink:href="#linear-gradient"/>
    <linearGradient id="linear-gradient-5" x1="825.62" y1="2388.7" x2="808.98" y2="2383.3" gradientTransform="matrix(0.9, -0.46, -0.47, -1.15, 737.66, 3615.86)" xlink:href="#linear-gradient"/>
    <linearGradient id="linear-gradient-6" x1="791.48" y1="2391.66" x2="774.85" y2="2386.26" gradientTransform="matrix(0.9, -0.46, -0.47, -1.15, 737.66, 3615.86)" xlink:href="#linear-gradient"/>
    <linearGradient id="linear-gradient-7" x1="788.97" y1="2407.37" x2="780.26" y2="2404.54" gradientTransform="matrix(0.9, -0.46, -0.47, -1.15, 737.66, 3615.86)" xlink:href="#linear-gradient"/>
    <linearGradient id="linear-gradient-8" x1="11626.12" y1="-8921.25" x2="11620.91" y2="-8922.94" gradientTransform="matrix(-0.34, -0.97, -0.94, 0.11, -4157.29, 12659.55)" xlink:href="#linear-gradient"/>
    <linearGradient id="linear-gradient-9" x1="11645.77" y1="-8931.36" x2="11640.56" y2="-8933.05" gradientTransform="matrix(-0.34, -0.97, -0.94, 0.11, -4157.29, 12659.55)" xlink:href="#linear-gradient"/>
    <linearGradient id="linear-gradient-10" x1="11667.41" y1="-8942.91" x2="11663.42" y2="-8944.21" gradientTransform="matrix(-0.34, -0.97, -0.94, 0.11, -4157.29, 12659.55)" xlink:href="#linear-gradient"/>
    <linearGradient id="linear-gradient-11" x1="11715.58" y1="-8985.58" x2="11614.16" y2="-9018.5" gradientTransform="matrix(-0.34, -0.97, -0.94, 0.11, -4157.29, 12659.55)" xlink:href="#linear-gradient"/>
    <linearGradient id="linear-gradient-12" x1="11724.04" y1="-9010.87" x2="11622.18" y2="-9043.94" gradientTransform="matrix(-0.34, -0.97, -0.94, 0.11, -4157.29, 12659.55)" xlink:href="#linear-gradient"/>
    <linearGradient id="linear-gradient-13" x1="740.14" y1="2446.44" x2="735.39" y2="2444.89" gradientTransform="matrix(0.9, -0.46, -0.47, -1.15, 737.66, 3615.86)" xlink:href="#linear-gradient"/>
    <linearGradient id="linear-gradient-14" x1="18010.54" y1="-7201.42" x2="18238.67" y2="-7201.42" gradientTransform="matrix(-0.13, -0.69, -0.78, 0, -3089.01, 13045.93)" xlink:href="#linear-gradient"/>
    <linearGradient id="linear-gradient-15" x1="14587.12" y1="-5595.04" x2="14464.01" y2="-5635" gradientTransform="matrix(-0.17, -0.93, -1.03, 0, -2929.67, 13954.05)" xlink:href="#linear-gradient"/>
  </defs>
  <g class="cls-1">
    <g id="Layer_1" data-name="Layer 1">
      <g id="Butterfly_03">
        <g>
          <g>
            <path class="cls-2" d="M334.4,342.2c13.08.64,28.75,11.23,35.83,15.34,9.39,5.43,18.67,11.07,27.56,16.93,22,14.51,42.43,30.76,58.17,49.34,12,14.11,23.06,30.24,24,47.79a25.23,25.23,0,0,1-6.86,19.19c-6.61,7-17.92,10.42-28.54,12-13.8,2.05-28.2,1.36-41.89,1-15.08-.36-37.79,5.58-51.41,11.43-24.86,10.67-50.79,1-56.61-18-3.18-10.42,6.59-44.5,8.48-55.25,2.16-12.27,3.87-24.56,6.37-36.82s5.52-24.35,6.68-36.65c.66-7.07-.9-19.59,8.78-24.53A18.52,18.52,0,0,1,334.4,342.2Z"/>
            <path class="cls-3" d="M308.57,348.43a84.09,84.09,0,0,0-15.86,6.47c-10.22,5.14-19.34,11.46-28.48,17.59A255.25,255.25,0,0,0,217.66,413a173.17,173.17,0,0,0-17.26,22.4c-4.51,7-8.8,14.41-10.82,21.87s-.63,15.2,9,18.56c8,2.78,18.25,1.39,26.94-.36a196.93,196.93,0,0,0,44.73-15.31c7.35-3.5,14.46-7.55,20-12.58a48.2,48.2,0,0,0,11.44-16.45c6-13.17,8-27.15,10.44-40.6,1.21-6.62,2.34-13.23,3.51-19.85.6-3.39,1.14-6.79,1.81-10.17.55-2.78,1.84-5.84,1.08-8.56C317.57,348.57,313.36,347.13,308.57,348.43Z"/>
            <path class="cls-4" d="M349.87,394.65c-2.74-4.09-4-8.71-5.34-13.21-1.91-6.45-3.65-13-7.13-19.05l-.51-.85c3.51,3.13,7.05,6.26,10.29,9.57,4.81,4.92,9.65,9.76,14,14.93,2.41,2.84,4.65,5.81,7,8.69C364.93,402.1,353.73,400.41,349.87,394.65Z"/>
            <path class="cls-5" d="M440.09,462c.58,3.09.3,12.76-7.2,12.27-6.28-.42-8.4-9.6-9.46-13.1-1.79-6-2.4-12.19-4.37-18.13-4.76-14.39-11.75-28.68-23.93-40.29a10.33,10.33,0,0,0,.93-2.76,11.21,11.21,0,0,0-1.13-7c.94,2.06,4.36,4.23,6.07,6,2,2.07,4,4.16,5.87,6.28a172.06,172.06,0,0,1,11,13.59,152.3,152.3,0,0,1,16.49,28.91c2,4.69,4.76,9.24,5.75,14.2Z"/>
            <path class="cls-5" d="M422.56,467.15c-1.54,6.52-9,12.88-18.47,13.12-14.39.35-15-11.63-15-19.68-.12-12.29,0-23.93-4.09-35.69a133,133,0,0,0-10.28-23.34c3.93,3.39,9.77,6.89,15.82,5.16a7.11,7.11,0,0,0,2.85-1.58c16.85,16.43,22.21,37.48,28,57.88C421.64,464,422,465.52,422.56,467.15Z"/>
            <path class="cls-5" d="M364.75,466.39c0-.12.08-.23.1-.35a.63.63,0,0,0-.37-.75,62.9,62.9,0,0,1-1.3-12.52c-.48-18.21-2.64-35.93-10.7-52.5a13.32,13.32,0,0,0,5.75,1.54c5,.22,8.8-1.14,11.23-3.74A115.49,115.49,0,0,1,378,414.51c3.2,7.21,6.15,14.68,7.48,22.33,1.21,6.94.83,14,.83,21.05,0,5.05-.46,10.93,1.75,15.75l-.05,0c-3.69,2.12-9.59,5.33-14.34,4.14a10.46,10.46,0,0,1-6.88-5.85A28.75,28.75,0,0,1,364.75,466.39Z"/>
            <path class="cls-5" d="M333.61,474.55c-6.56-5.15-7.26-12.77-7.19-19.81.09-10,1.67-20.09,2.25-30.13a97.86,97.86,0,0,0,0-14.12c-.16-1.87-.5-3.73-.83-5.59a15,15,0,0,0,2.38.1c6.51-.25,13.34-2.86,17.69-6.77a99.76,99.76,0,0,1,11.15,36.41c1,8.75.24,17.65,1.37,26.37.24,1.81.5,3.82.95,5.83C358.61,475.89,342.4,481.44,333.61,474.55Z"/>
            <path class="cls-4" d="M327.85,353c4,6.17,8.23,12.22,10.56,19.06,2.26,6.67,3.49,13.74,6.72,20.16a24.82,24.82,0,0,0,2.05,3.36c-4.33,4.33-14.73,8.07-20.3,6.45a168.74,168.74,0,0,0,1.7-23.69,95.68,95.68,0,0,0-1.17-15.61,52.53,52.53,0,0,1-1-8.76c0-.76,0-1.56.07-2.36C327,352.06,327.41,352.52,327.85,353Z"/>
            <path class="cls-6" d="M308.57,348.43a84.09,84.09,0,0,0-15.86,6.47c-10.22,5.14-19.34,11.46-28.48,17.59A255.25,255.25,0,0,0,217.66,413a173.17,173.17,0,0,0-17.26,22.4c-4.51,7-8.8,14.41-10.82,21.87s-.63,15.2,9,18.56c8,2.78,18.25,1.39,26.94-.36a196.93,196.93,0,0,0,44.73-15.31c7.35-3.5,14.46-7.55,20-12.58a48.2,48.2,0,0,0,11.44-16.45c6-13.17,8-27.15,10.44-40.6,1.21-6.62,2.34-13.23,3.51-19.85.6-3.39,1.14-6.79,1.81-10.17.55-2.78,1.84-5.84,1.08-8.56C317.57,348.57,313.36,347.13,308.57,348.43Z"/>
            <path class="cls-5" d="M268.57,440.59c.08-.18.16-.36.23-.54a.38.38,0,0,0,0-.1,48.35,48.35,0,0,1,4.06-7.38c4.22-6.7,9.28-13.17,13.6-19.84a274,274,0,0,0,18.5-33,135.38,135.38,0,0,0,6.93-16.6c1.48-4.78,2.56-9.59,3.74-14.4a5.11,5.11,0,0,1,2.88,3.27c.76,2.72-.53,5.78-1.08,8.56-.67,3.38-1.21,6.78-1.81,10.17-1.17,6.62-2.3,13.23-3.51,19.85q-.57,3.09-1.12,6.21c-1.54,4-1.69,8.37-3.25,12.37-2.43,6.2-5.91,12-9.48,18a55.26,55.26,0,0,1-10.87,13.64c-3.75,3.28-9.86,7.43-16,6.91C267.23,447.32,267.29,444.06,268.57,440.59Z"/>
            <path class="cls-5" d="M314.76,348.37c-1.75,7-3.33,13.89-6.16,20.77a235.22,235.22,0,0,1-10.15,21.57,311.83,311.83,0,0,1-22.34,35.49c-3.13,4.32-6.7,9.12-8.27,13.92h0c-2.09,5.16-6.21,10.22-10.67,14.6s-10.74,9.9-18.3,10.92c-2.78.38-6.46.25-8.3-1.35-1.62-1.41-1.6-3.43-1.05-5.28,1.09-3.67,3.55-7.22,6.27-10.56.28-.21.52-.38.73-.52s.26-.39.13-.52c.43-.52.88-1,1.32-1.55,5.75-6.64,12.41-12.89,18.65-19.32,7.11-7.3,14-14.71,20.49-22.3,1-1,1.94-2,2.87-3.06.16-.18.12-.31,0-.39q1.9-2.31,3.77-4.65a273.22,273.22,0,0,0,17.15-24.38c.33-.44.67-.88,1-1.33a.31.31,0,0,0,0-.32c1.69-2.77,3.33-5.55,4.89-8.35a101,101,0,0,0,4.73-10.3c.49-1.15,1-2.3,1.52-3.44A8.26,8.26,0,0,1,314.76,348.37Z"/>
            <path class="cls-5" d="M284.3,390.09C279,395.49,272.49,402,264.11,405c-3.36,1.21-7.57,1.8-10.56.21-4.42-2.34-3.42-7.19-2-10.83,3.25-8.58,9.77-17.15,16.83-24.57a1.07,1.07,0,0,1,.14-.16,224.71,224.71,0,0,1,24.23-14.73,84.09,84.09,0,0,1,15.86-6.47,12.64,12.64,0,0,1,3.61-.46c-1.29,2.74-2.38,5.51-3.53,8.28a95.18,95.18,0,0,1-6.86,12.49l-1.67,2.68A174.64,174.64,0,0,1,284.3,390.09Z"/>
            <path class="cls-4" d="M274.5,405.82c-6.09,6-12.9,11.95-21,16.54-6.55,3.7-17.32,7.72-22.93,1.94-3.62-3.73-2-9.29-.05-13.65a59.34,59.34,0,0,1,8.33-13,271.16,271.16,0,0,1,19.7-21.23q2.82-2,5.7-3.95l1.44-1a95.77,95.77,0,0,0-11.57,15.64c-2.87,4.92-8.47,14.73-1.41,18.47,5.81,3.08,13.12,0,18.26-3.26,7.45-4.69,13.35-10.81,18.67-16.75q2.82-3.17,5.46-6.41c-.93,1.4-1.89,2.8-2.85,4.19-4.89,7-10.23,13.88-15.93,20.61C275.71,404.62,275.11,405.23,274.5,405.82Z"/>
            <path class="cls-5" d="M207.39,454.65a.4.4,0,0,0,.22-.62c.28-.59.59-1.18.93-1.76a56.41,56.41,0,0,1,7.5-9.73,106.61,106.61,0,0,1,17.11-15.25.48.48,0,0,0,.19-.26,16.78,16.78,0,0,0,9.13.47c8.5-1.67,16-7.14,21.89-11.79,2.3-1.82,4.51-3.7,6.66-5.62l-2,2.21c-7.89,8.7-16.42,17.08-24.67,25.6-3.23,3.34-6.45,6.7-9.27,10.22-5.78,4.39-24,21.41-28.08,12.61a7.33,7.33,0,0,1,.31-6.06Z"/>
            <path class="cls-5" d="M206.51,454.1c-4.67,1.3-4.41-2.91-3.89-5.41a44.41,44.41,0,0,1,3.74-10.37c2.17-4.43,5.71-8.53,9.19-12.53,4.86-5.59,10-11.05,14.57-16.76a22.4,22.4,0,0,0-2.65,9.63,8.19,8.19,0,0,0,5.23,8.12l0,0A104.72,104.72,0,0,0,213.79,444C211.31,446.8,208.11,450.45,206.51,454.1Z"/>
            <path class="cls-7" d="M311.85,392.05l-.3.93a18.1,18.1,0,0,1-2.07,4.51c-.24.34-3.4,4-4.12,3.5-2.28-1.72-2.25-4.65-2-7a40.48,40.48,0,0,1,2.29-8.9c2.07-5.72,4.81-11.28,6.24-17.08,1.58-6.37,2.47-12.78,4-19.15a5,5,0,0,1,2.61,3.13c.76,2.72-.53,5.78-1.08,8.56-.67,3.38-1.21,6.78-1.81,10.17-1.17,6.62-2.3,13.23-3.51,19.85Z"/>
            <path class="cls-8" d="M462,476.34c2.7-1,6-1.11,7.2,1.14.94,1.72.2,3.91-1.16,5.72a11,11,0,0,1-3.36,2.38c-3.86,1.77-7.25-.07-7.48-3.14C457.06,480.05,459,477.51,462,476.34Z"/>
            <path class="cls-9" d="M428.32,489c-1.84,2.6.68,5.81,4.55,5.69a7.25,7.25,0,0,0,1.26-.14c.05.19.24.31.63.18,4.13-1.44,7.12-6,2.95-8.07A8,8,0,0,0,428.32,489Z"/>
            <path class="cls-10" d="M402.05,491.29A2.55,2.55,0,0,0,404,495.5a3.56,3.56,0,0,0,3.52-1.65,1.73,1.73,0,0,0-.15-2.74C406,490.08,403.32,489.74,402.05,491.29Z"/>
            <path class="cls-11" d="M358.25,483.8c-5.33,2.24-7.34,7.49-3.86,10.82,3.74,3.57,10.63,3.13,14.66-.76,2-1.92,3.17-4.89,2-6.91C370.15,483.15,363.57,481.57,358.25,483.8Z"/>
            <path class="cls-12" d="M326.15,496.2c-5.32,2.24-7.33,7.48-3.85,10.81,3.74,3.58,10.63,3.14,14.65-.75,2-1.92,3.18-4.89,2-6.91C338.06,495.54,331.48,494,326.15,496.2Z"/>
            <path class="cls-13" d="M318.45,482.62c.21,2.48,3.7,3.74,6.73,2.48a4.17,4.17,0,0,0,2.35-2.11c1.58-1.59.84-3.87-1.94-4.34C322.6,478.15,318.23,480.08,318.45,482.62Z"/>
            <path class="cls-14" d="M314.78,460.79c3.6.16,3.19,3.71.85,5.14a3.61,3.61,0,0,1-2.08.49,2.44,2.44,0,0,1-.67,0,2.89,2.89,0,0,1-2.24-1.62,2.48,2.48,0,0,1,.19-2.72C311.62,461.05,313.33,460.73,314.78,460.79Z"/>
            <path class="cls-15" d="M317.64,440.71c3.6.16,3.19,3.7.85,5.14a3.69,3.69,0,0,1-2.08.49,2.44,2.44,0,0,1-.67,0,2.93,2.93,0,0,1-2.25-1.62,2.52,2.52,0,0,1,.19-2.72C314.47,441,316.19,440.65,317.64,440.71Z"/>
            <path class="cls-16" d="M320.6,418.62c2.76.12,2.44,2.83.66,3.93a2.9,2.9,0,0,1-1.6.38,2.12,2.12,0,0,1-.51,0,2.21,2.21,0,0,1-1.72-1.24,1.92,1.92,0,0,1,.15-2.09A3.6,3.6,0,0,1,320.6,418.62Z"/>
            <path class="cls-5" d="M368.62,363.66l.59.43c2.69,2.11,5,4.54,7.54,6.74s5.09,4.34,7.62,6.52c5.26,4.54,10.48,9.11,15.48,13.83,10,9.42,19.06,19.4,26.32,30.21,7.4,11,13,22.69,20.32,33.7a57.49,57.49,0,0,0,5.34,7.38c1.66,1.8,4.21,4.41,7.78,3.86,4.94-.75,5.45-6.09,5.69-8.79a29.06,29.06,0,0,0-3.4-16.09c-5.59-10.82-15.36-19.74-25.67-28.14S415,396.57,404.65,388c-9.08-7.56-18.33-15.11-28.79-21.66-1.11-.91-2.42-1.63-3.5-2.55a5.18,5.18,0,0,0-2.75-1.38C368.84,362.28,368.07,363.27,368.62,363.66Z"/>
            <path class="cls-17" d="M359.2,386.12a4.08,4.08,0,0,1-6.07,2.79c-2.54-1.59-3.95-4-5.23-6.25-3.66-6.41-6.06-13.22-9.44-19.72,3,2.67,6,5.35,8.72,8.17,3.88,4,7.78,7.9,11.44,12A6.32,6.32,0,0,1,359.2,386.12Z"/>
            <path class="cls-18" d="M397.92,405.59c-.9-.95-1.83-1.89-2.79-2.81.06-.12.09-.24.14-.36C396.19,403.45,397.06,404.51,397.92,405.59Z"/>
            <path class="cls-4" d="M327.85,353c4,6.17,8.23,12.22,10.56,19.06.57,1.68,1.07,3.38,1.55,5.09.1,2.83.3,5.68-.72,8.49-.72,2-2.26,4.49-5.55,4.56a6.1,6.1,0,0,1-4.69-1.94c-.24-.25-.45-.52-.67-.79.18-3.05.27-6.09.25-9.13a95.68,95.68,0,0,0-1.17-15.61,52.53,52.53,0,0,1-1-8.76c0-.76,0-1.56.07-2.36C327,352.06,327.41,352.52,327.85,353Z"/>
            <path class="cls-4" d="M375.85,381.65c.19,3-3,6.25-7.21,4.49a21.5,21.5,0,0,1-6.47-4.48c-5.36-5.08-10.36-10.37-15.76-15.42s-10.81-10-16.23-14.95c-.64-1-1.27-1.93-1.88-2.91,1,1.65,6.79,3.45,8.88,4.54,3,1.57,5.95,3.15,8.87,4.77,5.94,3.3,11.74,6.74,17.32,10.36,2.94,1.9,5.89,3.8,8.77,5.75C374.18,376.26,375.68,379,375.85,381.65Z"/>
            <path class="cls-9" d="M196.7,461.33c-1.88.79-2.6,2.62-1.37,3.78a3.91,3.91,0,0,0,5.17-.28,2.16,2.16,0,0,0,.73-2.41C200.91,461.09,198.59,460.55,196.7,461.33Z"/>
            <path class="cls-8" d="M213.7,465c-3.5,1.46-4.83,4.86-2.55,7,2.44,2.32,7,2,9.61-.52,1.31-1.24,2.1-3.17,1.34-4.48C221.51,464.57,217.2,463.56,213.7,465Z"/>
            <path class="cls-19" d="M261.67,456.2c-1.53.64-2.11,2.12-1.11,3.06a3.17,3.17,0,0,0,4.18-.23,1.74,1.74,0,0,0,.59-1.95C265.07,456,263.19,455.56,261.67,456.2Z"/>
          </g>
          <g>
            <g>
              <path class="cls-20" d="M357.84,358.05s.63-4,4-2.52S368,378.36,368,378.36l12.59,3.11a13.61,13.61,0,0,1,6.88,8.63c2.75,10.81-1,9.06-7.15-2.28-.32-.61-2.29,3.57-2.63,2.91s1-6,.74-6.56l-11.47-.28a3.35,3.35,0,0,1-3.16-2.52Z"/>
              <path class="cls-20" d="M322.43,398.55l.09,0c2-.62,8.74.28,12.85,2,0,0-2.72-11.08-4.21-16-.16-.52,3.81-2.29,3.81-2.29s3.62,19.43,1.13,19.77c-1.62.22-10.49-2.07-10.49-2.07,4.36,4.8,8.7,13.43,7.78,17.17C330.62,420.28,323.66,406.05,322.43,398.55Z"/>
            </g>
            <g>
              <g>
                <path class="cls-21" d="M349.08,371.7c-1.09,1.92-2.24,3.73-3.45,5.45a59.88,59.88,0,0,1-17.53,16.71,58.12,58.12,0,0,1-31.51,8.72A50.74,50.74,0,0,1,284.35,401c-7-1.86-12.44-5.18-14.91-9.2-2.91-4.75-1.71-10.48,5.81-15.95q2.07-1.5,4.23-2.88c2.14-1.37,4.36-2.66,6.63-3.87a135.83,135.83,0,0,1,22.49-9.32c2.72-.88,5.43-1.67,8.09-2.38a215.35,215.35,0,0,1,39.1-6.72C372,355,349.08,371.7,349.08,371.7Z"/>
                <path class="cls-22" d="M339.09,356.85c.59,11.28,4.59,16.72,3.16,22-2.06,7.66-10.37,12.66-14.15,15a58.12,58.12,0,0,1-31.51,8.72A50.74,50.74,0,0,1,284.35,401c-7-1.86-12.44-5.18-14.91-9.2h0c29.8,3,66-4.41,60.71-17.34-10.7-26,4-21.91,4-21.91Z"/>
              </g>
              <path class="cls-21" d="M383.24,334a212.39,212.39,0,0,0-5.45,20.65c-2.46,10.53-4.91,19.23-12.21,25.39-14,11.79-23.89,8.27-31.25,1.56-11.35-10.33-6.17-25.1-6.17-25.1a3.35,3.35,0,0,1,.44-1.2h0c2.69-4.81,17-14.65,23.77-11.53,14,6.44,21.41-23.59,21.41-23.59C379.34,314,383.24,334,383.24,334Z"/>
              <path class="cls-22" d="M377.79,354.63c-2.46,10.53-4.91,19.23-12.21,25.39-14,11.79-23.89,8.27-31.25,1.56-11.35-10.33-6.17-25.1-6.17-25.1s-1.08,9.47,20.36,14.4c0,0,14.59,3.08,21.93-6.79l2.92-13.88Z"/>
              <path class="cls-23" d="M373.87,367.46S350.61,365,347,344h11l18.24,11.77"/>
              <g>
                <path class="cls-21" d="M409.14,344.48s3.44-34.67-27.31-33.94c-7.58.18-30.54,3.14-29.44,33.62-1.36,3.67-6.68,20,28.34,24.58,1.7,1.21,8.84,6.55,12.49-.85C394.21,367.8,417.35,364.62,409.14,344.48Z"/>
                <path class="cls-24" d="M352.51,344.53c.69-1.23,1.89-3.66,1.9-3.69s-1.62,2.19-2.3,3.4Z"/>
                <path class="cls-25" d="M393,368.84a14.53,14.53,0,0,0,1-3.18,28.12,28.12,0,0,1-1.41,2.86Z"/>
                <path class="cls-25" d="M381.23,369.41l.28-.44c-2.24-1.83-4.83-3.56-4.83-3.56S379,367.56,381.23,369.41Z"/>
                <path class="cls-26" d="M392.67,319.23s-7.51-5.38-9.08,5.4A9.65,9.65,0,0,1,392.67,319.23Z"/>
                <path class="cls-26" d="M404.54,322s-2.6-3.77-5.14,1A4.79,4.79,0,0,1,404.54,322Z"/>
                <g>
                  <path class="cls-25" d="M406.21,347.07a4.45,4.45,0,0,0,2.22-1.41,4.1,4.1,0,0,1-4.65.45l-.21.47A3.41,3.41,0,0,0,406.21,347.07Z"/>
                  <g>
                    <g>
                      <path class="cls-27" d="M386.32,333.79l12-12.47s-2.64,8.78,2.9,20.44c2.32,4.9,6.06,8.47.43,11.39-11.83,6.14-19.39-2.58-19.39-2.58Z"/>
                      <path class="cls-28" d="M386.32,333.79l12-12.69s-2.67,9,2.87,20.66c2.32,4.9,6.06,8.47.43,11.39-11.83,6.14-19.39-2.58-19.39-2.58Z"/>
                      <path class="cls-25" d="M397.14,355.14a19.78,19.78,0,0,0,4.63-1.75c1.72-.89,2.69-1.91,3-3.11.43-1.79-.65-3.72-1.9-5.95-.48-.86-1-1.74-1.42-2.68-5.42-11.41-2.91-20.15-2.88-20.24a7.26,7.26,0,0,0-1,3.51,34.16,34.16,0,0,0,3.48,17c.45,1,1,1.85,1.43,2.72,1.19,2.12,2.22,3.95,1.84,5.51-.25,1.06-1.15,2-2.74,2.79-11.55,6-19-2.42-19.11-2.51l-.34.36a15.64,15.64,0,0,0,15,4.39Z"/>
                    </g>
                    <g>
                      <g>
                        <path class="cls-29" d="M383.91,348.94h-.05l0-.06Z"/>
                        <path class="cls-28" d="M377.49,347.77l6.37,1.16c-.29.48-2.55,3.84-7.93,2.61Z"/>
                      </g>
                      <path class="cls-25" d="M383.89,348.87l-.06.09-.18.22-.3.32a5.37,5.37,0,0,1-.41.38c-.07.07-.16.13-.24.2s-.17.14-.27.2a7,7,0,0,1-1.29.71c-.23.1-.48.18-.73.26s-.51.15-.76.19-.51.09-.75.11l-.72.05H377l-.43,0-.38,0,.37.12.42.13.27.07.29,0,.67.1.75,0,.4,0,.4,0c.27,0,.54-.12.82-.18s.52-.19.77-.3a4.07,4.07,0,0,0,.71-.4c.11-.08.22-.14.32-.22l.29-.25a5.49,5.49,0,0,0,.48-.49l.2-.24.16-.23c.1-.14.17-.29.24-.4A3.15,3.15,0,0,0,383.89,348.87Z"/>
                    </g>
                  </g>
                </g>
                <g id="eye">
                  <g>
                    <path class="cls-30" d="M385.54,336.82c.76,5.83,4.17,10.34,7.2,10s4.87-5.32,4.12-11.16-3.83-10.3-6.87-10S384.79,331,385.54,336.82Z"/>
                    <path class="cls-31" d="M392.75,344.71c1.68,0,3-2.42,3-5.39s-1.36-5.39-3-5.39-3.05,2.42-3.05,5.39S391.07,344.71,392.75,344.71Z"/>
                  </g>
                  <ellipse class="cls-32" cx="393.6" cy="336.39" rx="1.05" ry="1.58"/>
                </g>
                <g id="eye-2" data-name="eye">
                  <g>
                    <path class="cls-30" d="M399.42,334.06c1.1,4.63,4.22,8,6.63,7.46s3.48-4.7,2.38-9.33-3.95-8-6.37-7.45S398.32,329.43,399.42,334.06Z"/>
                    <path class="cls-31" d="M405.88,339.8c1.35-.14,2.25-2.2,2-4.59s-1.56-4.22-2.91-4.08-2.25,2.2-2,4.59S404.53,340,405.88,339.8Z"/>
                  </g>
                  <ellipse class="cls-32" cx="405.87" cy="333.04" rx="0.85" ry="1.28" transform="translate(-32.5 44.11) rotate(-5.98)"/>
                </g>
                <g>
                  <path class="cls-33" d="M397.16,316.07c-.21.43-1.44.26-1.47-.75s6.82-14.09,22.93-16.33c5.61-.78,12.27,1.43,15.45,4.68,1.59,1.63,2.32,3.88,1.21,5.62-2.57,4-8.27-7.06-17.38-6.93C407.87,302.51,400,310.26,397.16,316.07Z"/>
                  <path class="cls-34" d="M434,306.83s-5.38-10.57-18.91-6.05C415,300.87,424.35,297.87,434,306.83Z"/>
                </g>
                <g>
                  <path class="cls-33" d="M379.12,313.92a.88.88,0,0,1-1.61.15c-.46-.86-.18-16,12.9-26.85,4.55-3.77,11.32-5.51,15.5-4.43,2.1.55,3.71,2.12,3.51,4.24-.48,5-10.29-1.61-18.17,3.52C382.56,296.2,379,307.31,379.12,313.92Z"/>
                  <path class="cls-34" d="M408.82,286s-8.82-7.06-19.43,3.43C389.28,289.55,396.69,282.39,408.82,286Z"/>
                </g>
              </g>
              <path class="cls-33" d="M322.13,377.32c-.77-1.76-2.47-.89-2.64,1.22-.2,2.37,1.61,13,3.95,28.34-3-.63-13.09-3.21-17.33-1.31-2.57,1.15-2.78,5.81-1.62,9.72s5,12.41,7.64,12.26S317,418.7,309,406.48c9.33,1.1,15,3.39,15.61,2.07C327.43,401.83,323.33,380,322.13,377.32Z"/>
              <path class="cls-33" d="M346.52,366s.64-4,4-2.51,6.17,22.83,6.17,22.83l12.58,3.11s4.48.4,5.22.9c.16.1-2.18,1.29-2,1.41.45.33-.52-.5,0,0a13.33,13.33,0,0,1,3.67,6.31c3,11.89-1.81,8.59-9-5.93l-11.48-.28a3.33,3.33,0,0,1-3.15-2.51Z"/>
            </g>
          </g>
          <g>
            <path class="cls-2" d="M329.77,344.45c14,1.41,27.61,15.54,34,21.06,8.43,7.31,16.67,14.87,24.43,22.69,19.2,19.38,36,40.88,47,65.12,8.36,18.42,15.11,39.34,10.32,61.6a44.51,44.51,0,0,1-13.84,24c-9.53,8.56-23,12.36-35.09,13.86-15.72,2-31.2.42-46-.62-16.32-1.15-43,5.32-59.83,12.1-30.64,12.36-55.71-1-55.74-25.38,0-13.34,21.93-56,27.56-69.54C269,453.88,275,438.4,281.74,423s14.09-30.56,19.44-46.08c3.06-8.92,5.51-24.84,17.71-30.64A20.06,20.06,0,0,1,329.77,344.45Z"/>
            <path class="cls-35" d="M299.54,351.14a109.58,109.58,0,0,0-19.44,7.46c-12.84,6-24.87,13.62-36.87,20.95A412.1,412.1,0,0,0,179,428.72a300.3,300.3,0,0,0-26.25,27.57c-7.23,8.64-14.37,17.83-19,27.18s-5.73,19.2,3.65,23.89c7.78,3.89,19.44,2.61,29.49.79,18-3.26,36.71-9.68,53.83-17.32,9.18-4.09,18.28-8.89,26-15s13.12-13,17.92-20.29c10.87-16.4,17.7-34,24.85-50.9,3.52-8.33,6.94-16.65,10.41-25,1.77-4.26,3.49-8.53,5.34-12.78,1.52-3.5,3.94-7.3,4-10.78C309.3,351.74,305.2,349.72,299.54,351.14Z"/>
            <path class="cls-4" d="M329.23,411.54c-1.63-5.31-1.47-11.21-1.44-17,.06-8.24.35-16.66-1.45-24.44l-.27-1.09c2.78,4.13,5.6,8.24,8,12.59,3.61,6.45,7.28,12.8,10.33,19.53,1.68,3.71,3.15,7.57,4.79,11.33C343.18,421.66,331.54,419,329.23,411.54Z"/>
            <path class="cls-5" d="M405.24,501c-.39,3.93-3.91,16.15-11.91,15.18-6.71-.81-6-12.53-6-17,0-7.65,1.42-15.54,1.25-23.15-.43-18.42-3.31-36.84-12.73-52.09a19.15,19.15,0,0,0,1.93-3.45,16.17,16.17,0,0,0,1.09-8.92c.34,2.65,3.34,5.56,4.63,7.86,1.51,2.71,3,5.44,4.32,8.22a162,162,0,0,1,15.83,55.05c.66,6,2.13,11.91,1.56,18.23Z"/>
            <path class="cls-5" d="M384.44,506.64c-3.85,8.18-14.11,15.89-24.5,15.75-15.8-.2-12.45-15.4-9.87-25.59,3.94-15.56,7.91-30.29,7.37-45.36-.36-10-1.2-20.33-3.46-30,3.16,4.46,8.37,9.17,15.53,7.26a10.08,10.08,0,0,0,3.64-1.87c12.91,21.56,11.78,48.46,11.34,74.54C384.47,502.65,384.39,504.55,384.44,506.64Z"/>
            <path class="cls-5" d="M321.67,503l.23-.44a.72.72,0,0,0-.17-1,94.67,94.67,0,0,1,2.75-15.91c5.51-23.06,9-45.59,5.73-66.93A10.79,10.79,0,0,0,336,421a17.18,17.18,0,0,0,13.49-4.21A130.36,130.36,0,0,1,353.35,438c1.11,9.28,1.84,18.86.76,28.61-1,8.84-3.73,17.75-6.08,26.68-1.68,6.4-4.12,13.81-3.31,20l-.07,0c-4.72,2.51-12.22,6.3-17,4.58-3.59-1.3-5-4.5-5.55-7.73A35.79,35.79,0,0,1,321.67,503Z"/>
            <path class="cls-5" d="M285,511.91c-5.44-6.81-3.68-16.49-1.27-25.39,3.42-12.69,8.48-25.35,12.44-38a156.59,156.59,0,0,0,4.7-17.87c.45-2.38.69-4.75.95-7.12a13.26,13.26,0,0,0,2.56.24A37,37,0,0,0,325.92,416c2.93,14.8,2.72,30.63.08,46.59-1.84,11.11-5.59,22.35-7.25,33.44-.34,2.3-.72,4.85-.89,7.42C311.82,514.76,292.31,521.05,285,511.91Z"/>
            <path class="cls-4" d="M319.05,357.79c2.34,8,4.92,15.84,5.19,24.62.25,8.54-.76,17.55.64,25.81a26.26,26.26,0,0,0,1.12,4.35c-6.15,5.28-18.74,9.54-24.27,7.23a281.06,281.06,0,0,0,9.71-29.9,147.13,147.13,0,0,0,3.9-19.81A80.78,80.78,0,0,1,317.2,359c.25-1,.54-2,.86-3C318.38,356.58,318.72,357.18,319.05,357.79Z"/>
            <path class="cls-4" d="M352.87,412c-1.59-3.62-2.88-7.39-4.42-11a166.1,166.1,0,0,0-14.17-26c-4.1-6.17-8.55-12.19-12-18.7-.44-1.42-.85-2.84-1.24-4.28.58,2.14,6.26,4.68,8.18,6.16,2.73,2.11,5.44,4.25,8.08,6.44,5.39,4.45,10.57,9.07,15.46,13.9,6.28,6.23,12.78,12.41,17.36,19.76,3.72,6,8.29,15.32,3.44,23.36-3.19,5.3-7.66,6-11.66,2.94C357.55,421.17,355,416.7,352.87,412Z"/>
            <path class="cls-2" d="M299.54,351.14c-6.6,1.66-9.28,3.31-15.61,5.24-10.42,3.17-26.48,11.45-38.47,18.78-23.2,14.18-47.31,35.8-66.44,53.56a300.3,300.3,0,0,0-26.25,27.57c-7.23,8.64-14.37,17.83-19,27.18s-5.73,19.2,3.65,23.89c7.78,3.89,19.44,2.61,29.49.79,18-3.26,36.71-9.68,53.83-17.32,9.18-4.09,18.28-8.89,26-15s13.12-13,17.92-20.29c10.87-16.4,17.7-34,24.85-50.9,3.52-8.33,6.94-16.65,10.41-25,1.77-4.26,3.49-8.53,5.34-12.78,1.52-3.5,3.94-7.3,4-10.78C309.3,351.74,305.2,349.72,299.54,351.14Z"/>
            <path class="cls-5" d="M225.37,465.94c.15-.22.3-.44.43-.67a.31.31,0,0,0,0-.12,88.49,88.49,0,0,1,6.87-9.16c6.83-8.28,14.48-16.23,21.41-24.49a491.48,491.48,0,0,0,31.12-40.93c4.58-6.79,9.31-13.71,13.05-20.69,3.21-6,6-12,8.86-18.06,1.33.92,1.51,1.56,1.47,3.46-.08,3.48-2.5,7.28-4,10.78-1.84,4.25-3,9.34-4.76,13.6-3.47,8.33-6.89,16.65-10.41,25-1.1,2.58-2.18,5.19-3.28,7.8-3,5-4.61,10.51-7.64,15.5-4.71,7.74-10.44,14.94-16.3,22.31A96.24,96.24,0,0,1,245.85,467c-5.18,4-13.21,8.94-19.74,8C221.68,474.4,222.83,470.28,225.37,465.94Z"/>
            <path class="cls-5" d="M224.72,465.34c-4,6.43-10.16,12.64-16.47,18s-15,12-23.58,13c-3.15.35-7.12,0-8.59-2.09-1.29-1.87-.61-4.41.6-6.73,2.4-4.59,6.26-9,10.34-13.08.37-.25.69-.46,1-.62s.42-.49.31-.65c.65-.64,1.3-1.28,1.95-1.9,8.48-8.15,17.81-15.76,26.75-23.6,10.17-8.92,20.17-18,29.73-27.29,1.4-1.23,2.78-2.47,4.14-3.74.23-.21.24-.38.14-.49,1.9-1.89,3.79-3.8,5.65-5.72q14.16-14.62,26.77-30.06c.51-.54,1-1.08,1.53-1.63a.51.51,0,0,0,.14-.4q4.14-5.15,8.1-10.35c3.2-4.22,5.82-8.48,8.57-12.82.91-1.43,1.83-2.87,2.8-4.29a7.2,7.2,0,0,1,1.74.52c-4.21,8.72-8.24,17.42-13.6,26q-8.49,13.58-18.23,26.84a552.11,552.11,0,0,1-36.12,43.88"/>
            <path class="cls-5" d="M259.27,402.76c-7.61,6.59-16.81,14.46-26.95,17.91-4.06,1.38-8.85,1.93-11.58-.21-4.05-3.17-1.34-9.26,1.37-13.81,6.39-10.71,16.33-21.25,26.49-30.33.07-.06,2.33-1.46,2.4-1.52,10.16-6.23,20.5-11.25,31.36-16.36,6.21-2.93,11.07-3.45,17.67-5.11,1.49-.37,2.37-2.69,3.6-2.6-2.32,3.41-4.42,6.87-6.6,10.31a168,168,0,0,1-11.61,15.49c-.9,1.12-1.81,2.22-2.71,3.33A300.65,300.65,0,0,1,259.27,402.76Z"/>
            <path class="cls-4" d="M243.36,422.22c-8.61,7.26-18,14.53-28.39,20-8.36,4.38-21.44,9-25.64,1.4-2.71-4.89.89-11.85,4.47-17.27a105.54,105.54,0,0,1,13.39-16.06c8.94-9,18.65-17.54,28.51-25.95q3.75-2.42,7.53-4.75l1.89-1.15a167.39,167.39,0,0,0-17.8,19.26c-4.76,6.09-14.12,18.26-7.66,23.32,5.31,4.16,14.3.56,21-3.3,9.68-5.59,18.13-13.06,25.9-20.33q4.13-3.89,8.08-7.87c-1.48,1.73-3,3.45-4.5,5.17q-11.49,13-24.2,25.36C245.08,420.75,244.23,421.49,243.36,422.22Z"/>
            <path class="cls-5" d="M154,480.92a.63.63,0,0,0,.43-.76c.5-.74,1-1.47,1.6-2.19a98.5,98.5,0,0,1,11.4-12,173.2,173.2,0,0,1,23.71-18.52.75.75,0,0,0,.3-.32c2.68,1.43,6.07,1.68,9.8,1,9.81-1.72,19.81-8.3,27.77-13.92q4.65-3.3,9.11-6.8l-2.89,2.71c-11.48,10.65-23.55,20.86-35.38,31.27-4.62,4.06-9.25,8.18-13.49,12.5-7.75,5.29-33.27,26-34.79,14.66-.33-2.49.74-5.12,2.34-7.65Z"/>
            <path class="cls-5" d="M153.25,480.2c-5.53,1.43-3.85-3.89-2.46-7a79.59,79.59,0,0,1,7.53-13c3.83-5.5,9-10.53,14.17-15.43,7.14-6.85,14.59-13.52,21.43-20.55a39.6,39.6,0,0,0-6.07,12.07c-1.15,4.21-.7,8.18,3,10.52l0,0a169.94,169.94,0,0,0-26.26,20.84C160.9,471.17,156.2,475.65,153.25,480.2Z"/>
            <path class="cls-8" d="M424.43,520.09c3.27-1.18,6.87-1.14,7.46,1.78.46,2.21-1.07,5-3.16,7.18a17.12,17.12,0,0,1-4.45,2.86c-4.8,2.06-7.88-.42-7.12-4.32C417.77,524.55,420.67,521.43,424.43,520.09Z"/>
            <path class="cls-9" d="M383.46,534.61c-2.87,3.21-1.19,7.38,3.06,7.42a8.45,8.45,0,0,0,1.43-.12c0,.24.15.4.62.25,5-1.63,9.75-7.22,5.89-10.08C391.56,529.93,386.29,531.44,383.46,534.61Z"/>
            <path class="cls-9" d="M354.07,536.25c-1.85,1.86-2,5,.73,5.42a4.77,4.77,0,0,0,4.39-1.93,2.52,2.52,0,0,0,.74-3.47A4.09,4.09,0,0,0,354.07,536.25Z"/>
            <path class="cls-9" d="M305.56,527c-6.55,2.59-10.48,9.13-7.79,13.51,2.9,4.7,10.55,4.45,16.23-.29,2.8-2.33,5.08-6,4.49-8.65C318.76,526.75,312.11,524.46,305.56,527Z"/>
            <path class="cls-8" d="M332.23,532.14c-6.55,2.59-10.47,9.13-7.78,13.51,2.89,4.7,10.54,4.45,16.22-.29,2.81-2.33,5.08-6,4.49-8.65C345.43,531.85,338.78,529.56,332.23,532.14Z"/>
            <path class="cls-9" d="M269.71,539c-6.55,2.58-10.48,9.13-7.79,13.51,2.89,4.7,10.54,4.45,16.22-.29,2.81-2.34,5.09-6,4.5-8.65C282.9,538.69,276.25,536.39,269.71,539Z"/>
            <path class="cls-8" d="M265.81,521.44c-.59,3.15,2.8,4.9,6.52,3.44a6.65,6.65,0,0,0,3.25-2.55c2.25-2,2.2-4.86-.67-5.59C271.82,516,266.41,518.21,265.81,521.44Z"/>
            <path class="cls-9" d="M269.05,493.64c3.87.37,2.25,4.83-.77,6.54a4.17,4.17,0,0,1-2.44.53,2.62,2.62,0,0,1-.74,0,2.41,2.41,0,0,1-1.91-2.14,4,4,0,0,1,1.11-3.44A5.81,5.81,0,0,1,269.05,493.64Z"/>
            <path class="cls-9" d="M278.83,468.36c3.87.37,2.24,4.83-.78,6.54a4.23,4.23,0,0,1-2.44.53,2.55,2.55,0,0,1-.73,0,2.44,2.44,0,0,1-1.92-2.15,4.06,4.06,0,0,1,1.11-3.43A5.8,5.8,0,0,1,278.83,468.36Z"/>
            <path class="cls-9" d="M289.38,440.53c3,.28,1.72,3.7-.59,5a3.23,3.23,0,0,1-1.87.41,2.61,2.61,0,0,1-.56,0,1.88,1.88,0,0,1-1.47-1.65,3.08,3.08,0,0,1,.86-2.63A4.4,4.4,0,0,1,289.38,440.53Z"/>
            <path class="cls-5" d="M360,373.18l.5.57c2.23,2.8,3.91,6,6,8.88s4.11,5.73,6.14,8.6c4.23,6,8.41,12,12.29,18.21,7.77,12.4,14.34,25.44,18.67,39.46,4.42,14.26,6.61,29.31,11,43.58a57.15,57.15,0,0,0,3.39,9.59c1.21,2.35,3.12,5.77,7.19,5.24,5.64-.73,8-7.46,9.12-10.87a40.54,40.54,0,0,0,1.63-20.51c-2.51-13.95-10.19-25.7-18.66-36.8s-17.62-22.16-26-33.51c-7.38-10-15-20-24.2-28.73-.91-1.21-2.09-2.18-3-3.4a4,4,0,0,0-2.55-1.86C360.65,371.45,359.49,372.66,360,373.18Z"/>
            <path class="cls-36" d="M378,427.6q-1-1.87-2.1-3.69c.1-.15.18-.29.27-.44C376.81,424.81,377.41,426.19,378,427.6Z"/>
            <path class="cls-9" d="M140.15,488.9c-2.31.91-3.7,3.19-2.75,4.72s3.73,1.54,5.73-.12c1-.82,1.81-2.11,1.59-3C144.82,488.78,142.47,488,140.15,488.9Z"/>
            <path class="cls-9" d="M157.46,494.34c-4.29,1.69-6.88,5.94-5.11,8.76,1.9,3,6.92,2.87,10.65-.21,1.84-1.52,3.34-3.92,2.95-5.61C166.12,494.13,161.76,492.66,157.46,494.34Z"/>
            <path class="cls-9" d="M212.67,485.39c-1.87.73-3,2.58-2.22,3.82s3,1.24,4.64-.1a3,3,0,0,0,1.28-2.44C216.45,485.3,214.55,484.65,212.67,485.39Z"/>
          </g>
        </g>
      </g>
    </g>
  </g>
</svg>
