<svg id="Layer_1" data-name="Layer 1" xmlns="http://www.w3.org/2000/svg" width="28" height="31" viewBox="0 0 28 31">
  <defs>
    <style>
      .cls-1 {
        fill: #550f0e;
      }

      .cls-2, .cls-4 {
        fill: #ece5e3;
      }

      .cls-2 {
        stroke: #5f4d45;
      }

      .cls-2, .cls-5 {
        stroke-miterlimit: 10;
      }

      .cls-3 {
        fill: #0b1e34;
      }

      .cls-5 {
        fill: #da6ef4;
        stroke: #5b371f;
        stroke-width: 0.5px;
      }
    </style>
  </defs>
  <g id="Butterfly_03">
    <g>
      <path class="cls-1" d="M9.67,2.23S2.16-3.15.59,7.63A9.65,9.65,0,0,1,9.67,2.23Z"/>
      <path class="cls-1" d="M21.54,5s-2.6-3.77-5.14,1A4.79,4.79,0,0,1,21.54,5Z"/>
      <g id="eye">
        <g>
          <path class="cls-2" d="M2.54,19.82c.76,5.83,4.17,10.34,7.2,10s4.87-5.32,4.12-11.16S10,8.37,7,8.7,1.79,14,2.54,19.82Z"/>
          <path class="cls-3" d="M9.75,27.71c1.68,0,3-2.42,3-5.39s-1.36-5.39-3-5.39-3,2.42-3,5.39S8.07,27.71,9.75,27.71Z"/>
        </g>
        <ellipse class="cls-4" cx="10.6" cy="19.39" rx="1.05" ry="1.58"/>
      </g>
      <g id="eye-2" data-name="eye">
        <g>
          <path class="cls-2" d="M16.42,17.06c1.1,4.63,4.22,8,6.63,7.46s3.48-4.7,2.38-9.33-3.95-8-6.37-7.45S15.32,12.43,16.42,17.06Z"/>
          <path class="cls-3" d="M22.88,22.8c1.35-.14,2.25-2.2,2-4.59S23.32,14,22,14.13s-2.25,2.2-2,4.59S21.53,23,22.88,22.8Z"/>
        </g>
        <ellipse class="cls-4" cx="22.87" cy="16.04" rx="0.85" ry="1.28" transform="translate(-1.55 2.47) rotate(-5.98)"/>
      </g>
      <path class="cls-5" d="M2.92,21.82S11.79,25.05,14,20.33c0,0-.67-11.52-7.3-11.58C6.7,8.75,1.15,11.12,2.92,21.82Z"/>
      <path class="cls-5" d="M17.75,20.21s5.81.36,8.46-3.07c0,0-.44-9.34-7.53-9.29C18.68,7.85,13.64,10.05,17.75,20.21Z"/>
    </g>
  </g>
</svg>
