<svg xmlns="http://www.w3.org/2000/svg" xmlns:xlink="http://www.w3.org/1999/xlink" width="673" height="728" viewBox="0 0 673 728">
  <defs>
    <style>
      .cls-1 {
        isolation: isolate;
      }

      .cls-2 {
        fill: #221f1f;
        stroke: #eee8d2;
        stroke-width: 4px;
      }

      .cls-19, .cls-2, .cls-20, .cls-28 {
        stroke-miterlimit: 10;
      }

      .cls-3 {
        fill: url(#linear-gradient);
      }

      .cls-4 {
        fill: #ffda22;
      }

      .cls-5 {
        fill: #f93a3a;
      }

      .cls-6 {
        fill: #ba2025;
      }

      .cls-7 {
        fill: #ffc10d;
      }

      .cls-8 {
        fill: url(#linear-gradient-2);
      }

      .cls-9 {
        fill: url(#linear-gradient-3);
      }

      .cls-10 {
        fill: url(#linear-gradient-4);
      }

      .cls-11 {
        fill: url(#linear-gradient-5);
      }

      .cls-12 {
        fill: url(#linear-gradient-6);
      }

      .cls-13 {
        fill: url(#linear-gradient-7);
      }

      .cls-14 {
        fill: url(#linear-gradient-8);
      }

      .cls-15, .cls-18 {
        mix-blend-mode: multiply;
      }

      .cls-15 {
        fill: url(#linear-gradient-9);
      }

      .cls-16 {
        fill: url(#linear-gradient-10);
      }

      .cls-17 {
        fill: url(#linear-gradient-11);
      }

      .cls-18 {
        fill: url(#linear-gradient-12);
      }

      .cls-19 {
        fill: #895800;
        stroke: #473300;
      }

      .cls-20, .cls-26 {
        fill: #e476ff;
      }

      .cls-20 {
        stroke: #47201f;
      }

      .cls-21 {
        fill: #9d13bf;
      }

      .cls-22 {
        fill: #7a3819;
      }

      .cls-23 {
        fill: #83381b;
      }

      .cls-24 {
        fill: #550f0e;
      }

      .cls-25 {
        fill: #f4c813;
      }

      .cls-27 {
        fill: #f3ba19;
      }

      .cls-28, .cls-30 {
        fill: #ece5e3;
      }

      .cls-28 {
        stroke: #5f4d45;
      }

      .cls-29 {
        fill: #0b1e34;
      }

      .cls-31 {
        fill: #fdbd2c;
      }
    </style>
    <linearGradient id="linear-gradient" x1="9799.21" y1="-12682.79" x2="10005.62" y2="-12682.79" gradientTransform="matrix(0.01, 0.61, -0.7, 0.17, -8658.04, -3556.46)" gradientUnits="userSpaceOnUse">
      <stop offset="0.01" stop-color="#e68625"/>
      <stop offset="1" stop-color="#f9a748"/>
    </linearGradient>
    <linearGradient id="linear-gradient-2" x1="336.14" y1="61.62" x2="330.27" y2="59.72" gradientTransform="matrix(1, 0.05, -0.05, 1, 32.76, 83.08)" xlink:href="#linear-gradient"/>
    <linearGradient id="linear-gradient-3" x1="303.56" y1="90.41" x2="286.87" y2="84.99" gradientTransform="matrix(1, 0.05, -0.05, 1, 32.76, 83.08)" xlink:href="#linear-gradient"/>
    <linearGradient id="linear-gradient-4" x1="269.43" y1="94.89" x2="252.73" y2="89.47" gradientTransform="matrix(1, 0.05, -0.05, 1, 32.76, 83.08)" xlink:href="#linear-gradient"/>
    <linearGradient id="linear-gradient-5" x1="266.88" y1="119.23" x2="258.18" y2="116.41" gradientTransform="matrix(1, 0.05, -0.05, 1, 32.76, 83.08)" xlink:href="#linear-gradient"/>
    <linearGradient id="linear-gradient-6" x1="8019.62" y1="-9656.85" x2="8011.74" y2="-9659.4" gradientTransform="matrix(0.01, 0.82, -0.92, 0.23, -8671.14, -4134.36)" xlink:href="#linear-gradient"/>
    <linearGradient id="linear-gradient-7" x1="8047.47" y1="-9666.53" x2="8039.59" y2="-9669.09" gradientTransform="matrix(0.01, 0.82, -0.92, 0.23, -8671.14, -4134.36)" xlink:href="#linear-gradient"/>
    <linearGradient id="linear-gradient-8" x1="8078.1" y1="-9677.71" x2="8072.07" y2="-9679.67" gradientTransform="matrix(0.01, 0.82, -0.92, 0.23, -8671.14, -4134.36)" xlink:href="#linear-gradient"/>
    <linearGradient id="linear-gradient-9" x1="8149.75" y1="-9738.1" x2="7995.67" y2="-9788.12" gradientTransform="matrix(0.01, 0.82, -0.92, 0.23, -8671.14, -4134.36)" xlink:href="#linear-gradient"/>
    <linearGradient id="linear-gradient-10" x1="218.05" y1="178.68" x2="213.29" y2="177.13" gradientTransform="matrix(1, 0.05, -0.05, 1, 32.76, 83.08)" xlink:href="#linear-gradient"/>
    <linearGradient id="linear-gradient-11" x1="14156.56" y1="-8974.78" x2="14362.98" y2="-8974.78" gradientTransform="matrix(0.26, 0.5, -0.64, 0.4, -9311.48, -3292.44)" xlink:href="#linear-gradient"/>
    <linearGradient id="linear-gradient-12" x1="11406.02" y1="-6929.43" x2="11251.94" y2="-6979.45" gradientTransform="matrix(0.35, 0.67, -0.85, 0.52, -9568.03, -3764.57)" xlink:href="#linear-gradient"/>
  </defs>
  <g class="cls-1">
    <g id="Layer_1" data-name="Layer 1">
      <g id="Butterfly_04">
        <g>
          <g>
            <path class="cls-2" d="M344.79,361.38c12.16-7.46,23.56-27.22,28.93-35.4,7.12-10.84,14.08-21.84,20.6-32.89,16.16-27.36,30.21-55.79,39.11-84.4,6.77-21.73,12.07-45.24,7.33-65.08-1.79-7.44-5.67-14.08-12.65-17.62-8.49-4.31-20.28-2.24-30.81,1.51-13.7,4.86-27.09,13.05-39.92,20.48-14.13,8.17-37.49,13.34-52.24,13.92-26.92,1.06-48.33,25.06-47.71,49,.34,13.14,20.52,45.67,25.76,56.55,6,12.41,11.55,25.08,17.84,37.31s13,24,18.09,37c2.9,7.45,5.45,22.07,16.18,22.52A17.05,17.05,0,0,0,344.79,361.38Z"/>
            <path class="cls-3" d="M318.38,367.84a69.86,69.86,0,0,1-17.06,1.05c-11.31-.41-21.95-2.66-32.56-4.7a201.33,201.33,0,0,1-57-20.67,144.18,144.18,0,0,1-23.51-15.8c-6.51-5.38-12.94-11.35-17.24-18.53s-5.48-16.43,2.53-25.1c6.65-7.19,16.8-10.95,25.57-13.5a166.08,166.08,0,0,1,47.18-6.2c8.07.07,16.1.86,22.94,3.55s11.72,7.17,16.09,12.24c9.86,11.44,16.25,25.81,22.9,39.37,3.28,6.67,6.47,13.39,9.69,20.08,1.66,3.43,3.27,6.89,5,10.28,1.41,2.78,3.62,5.48,3.77,8.87C326.84,363,323.33,366.79,318.38,367.84Z"/>
            <path class="cls-4" d="M342.56,295.57c-1.28,5.93-1,11.67-.81,17.32.27,8.09.75,16.26-.61,24.68-.06.4-.14.8-.21,1.2,2.31-5.26,4.65-10.53,6.65-15.86,3-7.91,6-15.74,8.45-23.69,1.36-4.38,2.53-8.81,3.86-13.22C354.4,279.59,344.36,287.23,342.56,295.57Z"/>
            <path class="cls-5" d="M406.16,174.73c-.44-3.71-3.82-14.22-10.74-9.81-5.8,3.7-4.86,14.92-4.73,19.33.22,7.51,1.65,14.68,1.69,22.24.12,18.32-1.89,37.68-9.67,56.77a10.69,10.69,0,0,1,1.77,2.56,15.37,15.37,0,0,1,1.19,8.31c.22-2.76,2.75-6.91,3.8-9.74q1.86-5,3.53-9.95,3.45-10.32,6-20.64a233.54,233.54,0,0,0,6.29-40.39c.41-6.21,1.54-12.63.88-18.61C406.17,174.78,406.16,174.75,406.16,174.73Z"/>
            <path class="cls-5" d="M388,178.14c-3.56-6.4-12.66-9.55-21.68-4.94-13.7,7-10.4,20.54-7.89,29.46,3.83,13.61,7.67,26.39,7.59,41.47a198.13,198.13,0,0,1-2.21,31c2.63-5.77,7-12.65,13.29-13.85a5.6,5.6,0,0,1,3.21.26c10.64-26.8,8.94-52.78,7.87-78.26C388.09,182.05,388,180.21,388,178.14Z"/>
            <path class="cls-5" d="M333.58,208.8c.06.11.14.21.21.33a.94.94,0,0,1-.12,1,84,84,0,0,0,2.8,14.49c5.39,20.31,9,41,6.75,63.4a16.36,16.36,0,0,1,4.93-4.67c4.63-2.81,8.69-3.28,11.82-1.67a176.08,176.08,0,0,0,2.82-22.55c.72-9.6,1.1-19.35-.1-28.48-1.08-8.28-3.7-15.86-6-23.64-1.62-5.57-3.94-11.81-3.4-18.26h-.06c-4.16-.43-10.77-.93-14.88,2.84a15.46,15.46,0,0,0-4.61,10A41.45,41.45,0,0,0,333.58,208.8Z"/>
            <path class="cls-5" d="M301.53,215.87c-4.54,9.06-2.76,17.82-.43,25.55,3.3,11,8,21.28,11.8,32.06A123.85,123.85,0,0,1,317.45,289c.45,2.14.72,4.37,1,6.59a16.59,16.59,0,0,1,2.21-1.34c6.24-3.09,13.54-3.73,18.89-1.67a143.92,143.92,0,0,0-1.16-45.89c-1.89-10.14-5.44-19.58-7.17-29.78-.35-2.12-.75-4.47-1-6.92C324.72,201.49,307.62,203.73,301.53,215.87Z"/>
            <path class="cls-4" d="M335.14,352.87C337,344,339,335.15,339,326.41c0-8.53-1.12-17-.12-25.69a35.7,35.7,0,0,1,.86-4.77c-5.48-2.54-16.52-1.29-21.26,3.36a203,203,0,0,1,9.22,25.24,126,126,0,0,1,3.91,17.82,70.24,70.24,0,0,0,1.91,10.15c.24.84.51,1.71.82,2.57C334.59,354.35,334.87,353.61,335.14,352.87Z"/>
            <path class="cls-4" d="M363.06,285c-1.28,4.24-2.3,8.51-3.55,12.69a283.69,283.69,0,0,1-11.61,31.74c-3.39,7.84-7.09,15.68-9.9,23.58q-.51,2.37-1,4.74c.44-2.35,5.31-7.3,6.93-9.59q3.48-4.89,6.85-9.83c4.56-6.71,8.93-13.49,13-20.36,5.3-8.85,10.77-17.73,14.55-26.94,3.07-7.48,6.79-18.66,2.37-24.48-2.91-3.83-6.8-2.63-10.2,2.15A54.35,54.35,0,0,0,363.06,285Z"/>
            <path class="cls-2" d="M318.38,367.84a69.86,69.86,0,0,1-17.06,1.05c-11.31-.41-21.95-2.66-32.56-4.7a201.33,201.33,0,0,1-57-20.67,144.18,144.18,0,0,1-23.51-15.8c-6.51-5.38-12.94-11.35-17.24-18.53s-5.48-16.43,2.53-25.1c6.65-7.19,16.8-10.95,25.57-13.5a166.08,166.08,0,0,1,47.18-6.2c8.07.07,16.1.86,22.94,3.55s11.72,7.17,16.09,12.24c9.86,11.44,16.25,25.81,22.9,39.37,3.28,6.67,6.47,13.39,9.69,20.08,1.66,3.43,3.27,6.89,5,10.28,1.41,2.78,3.62,5.48,3.77,8.87C326.84,363,323.33,366.79,318.38,367.84Z"/>
            <path class="cls-5" d="M251,286.87l.4.47a.42.42,0,0,1,0,.1,44.39,44.39,0,0,0,6.2,6.05c6.15,5.21,13,9.73,19.23,14.86a244.52,244.52,0,0,1,28.09,26.85c4.15,4.71,8.45,9.47,11.87,14.73,2.94,4.51,5.51,9.26,8.16,13.95a7.7,7.7,0,0,0,1.67-5.1c-.15-3.39-2.36-6.09-3.77-8.87-1.71-3.39-3.32-6.85-5-10.28-3.22-6.69-6.41-13.41-9.69-20.08-1-2.07-2-4.17-3-6.27-2.76-3.66-4.29-8.35-7.05-11.95-4.29-5.59-9.45-10.2-14.73-14.93-4.23-3.77-8.94-7.35-14.65-9.43-4.6-1.68-11.7-3.1-17.35.64C247.56,280.14,248.66,283.7,251,286.87Z"/>
            <path class="cls-5" d="M324.25,364.71c-3.88-6.77-7.61-13.6-12.49-19.72a219.67,219.67,0,0,0-16.53-18.55,268.77,268.77,0,0,0-32.5-27.6c-4.34-3.15-9.26-6.6-12.29-11.08h0c-3.63-4.61-9.15-8.06-14.77-10.59s-13.33-5.37-20.8-2.6c-2.75,1-6.18,3.06-7.4,5.77a6.46,6.46,0,0,0,.7,6.36c2.2,3.48,5.67,6.13,9.32,8.41.32.09.61.15.86.2a.34.34,0,0,1,.28.5l1.74,1c7.57,4.36,15.88,7.82,23.84,11.67,9.06,4.39,18,9,26.52,14,1.25.61,2.49,1.23,3.69,1.89a.28.28,0,0,1,.14.42c1.7,1.05,3.39,2.11,5.05,3.19a229.19,229.19,0,0,1,24,18L305,347a.36.36,0,0,1,.13.34q3.74,3.27,7.31,6.68a96.66,96.66,0,0,1,7.78,8.92c.82,1,1.66,2,2.54,3A10.61,10.61,0,0,0,324.25,364.71Z"/>
            <path class="cls-5" d="M282.07,334.42c-6.77-3.2-15-7-23.86-6-3.57.39-7.73,1.92-10,5.2-3.42,4.87-.91,9.7,1.56,13,5.82,7.79,14.73,13.87,23.79,18.42l.18.09c9,1.74,18.07,3.41,27.63,3.75a69.86,69.86,0,0,0,17.06-1.05,12.25,12.25,0,0,0,3.56-1.36c-2.1-2.35-4-4.85-6-7.3a86.08,86.08,0,0,0-10.49-10.24l-2.44-2.1A143.59,143.59,0,0,0,282.07,334.42Z"/>
            <path class="cls-4" d="M267.75,322.13c-7.67-3.42-16-6.51-25.16-7.38-7.38-.7-18.85.43-22.29,9.69-2.22,6,1.08,11.28,4.33,15.07a51.32,51.32,0,0,0,12,10,219.86,219.86,0,0,0,25.43,13.23q3.31.78,6.66,1.43l1.67.32a80.09,80.09,0,0,1-16-11.28c-4.29-3.94-12.74-11.87-7.27-19.63,4.5-6.4,12.4-6.74,18.3-5.83,8.55,1.33,16.09,5,23,8.84,2.46,1.35,4.86,2.78,7.22,4.25q-2-1.59-4-3.15A228.44,228.44,0,0,0,270,323.2Z"/>
            <path class="cls-5" d="M188.67,302.93c.33,0,.46.28.4.56a19.84,19.84,0,0,0,1.44,1.46,47.32,47.32,0,0,0,10.21,6.87,84.45,84.45,0,0,0,21.07,8,.4.4,0,0,1,.27.19,18.07,18.07,0,0,1,8.47-5.24c8.57-2.53,17.42-.38,24.47,1.72,2.76.82,5.45,1.74,8.09,2.76-.85-.48-1.71-1-2.58-1.42-10.25-5.52-21-10.36-31.53-15.5a120.53,120.53,0,0,1-12-6.48c-6.87-1.86-29.56-11.21-30.58.59a8.91,8.91,0,0,0,2.24,6.52Z"/>
            <path class="cls-5" d="M188,304c-4.83,1-3.23,5.48-1.94,8a44,44,0,0,0,6.87,9.5c3.47,3.76,8.13,6.46,12.7,9.07,6.39,3.66,13,7,19.15,11a23.51,23.51,0,0,1-5.59-9.25,12.15,12.15,0,0,1,2.33-11.65h0a82.72,82.72,0,0,1-23.34-9.17C194.89,309.56,190.7,307.18,188,304Z"/>
            <path class="cls-6" d="M422.31,147.63c2.87-.26,6-1.85,6.43-5a6,6,0,0,0-2.93-5.71,8.82,8.82,0,0,0-3.94-.89,6.1,6.1,0,0,0-6.06,7.32C416.41,146.12,419,147.93,422.31,147.63Z"/>
            <path class="cls-7" d="M386.37,151c-2.58-1.92-1.23-6.76,2.46-8.63a7.42,7.42,0,0,1,1.24-.49c0-.24.12-.46.54-.52,4.37-.55,8.64,2.89,5.37,7.38C393.53,152.14,388.91,152.92,386.37,151Z"/>
            <path class="cls-8" d="M360.82,162.1c-1.65-1-1.84-4.06.49-5.65a3,3,0,0,1,3.86,0c1.06.38,1.39,1.82.73,3.1C365,161.39,362.52,163.15,360.82,162.1Z"/>
            <path class="cls-9" d="M321.84,193c-5.76.28-9.34-4.46-7.12-9.93,2.39-5.88,9-8.94,14.09-6.72,2.5,1.08,4.57,3.74,4.13,6.57C333.3,187.54,327.59,192.67,321.84,193Z"/>
            <path class="cls-10" d="M287.53,195.84c-5.75.28-9.33-4.46-7.11-9.93,2.38-5.88,9-8.94,14.09-6.73,2.49,1.09,4.57,3.75,4.12,6.58C299,190.42,293.28,195.56,287.53,195.84Z"/>
            <path class="cls-11" d="M284.61,214.79c-.59-2.85,2.3-6,5.57-6.21a3.33,3.33,0,0,1,2.89,1.12c2,.94,2,3.83-.44,5.78C290,217.58,285.22,217.7,284.61,214.79Z"/>
            <path class="cls-12" d="M288.16,240.75c3.35-2,1.82-5.73-.85-6.1a3.22,3.22,0,0,0-2.12.52,3.13,3.13,0,0,0-.64.31,4.16,4.16,0,0,0-1.61,2.94,3,3,0,0,0,1.06,2.9C285.09,242.1,286.81,241.56,288.16,240.75Z"/>
            <path class="cls-13" d="M297.31,261.41c3.35-2,1.82-5.72-.85-6.1a3.25,3.25,0,0,0-2.12.53,2.64,2.64,0,0,0-.64.3,4.2,4.2,0,0,0-1.61,2.95,3,3,0,0,0,1.06,2.9C294.24,262.76,296,262.23,297.31,261.41Z"/>
            <path class="cls-14" d="M307.21,284.24c2.56-1.55,1.39-4.38-.65-4.67a2.51,2.51,0,0,0-1.63.41,2,2,0,0,0-.49.23,3.19,3.19,0,0,0-1.23,2.25,2.28,2.28,0,0,0,.81,2.22C304.85,285.28,306.17,284.87,307.21,284.24Z"/>
            <path class="cls-5" d="M370.23,320.07l.42-.78c1.86-3.72,3.23-7.57,5-11.33s3.41-7.41,5.1-11.11c3.52-7.73,7-15.46,10.19-23.24a277.73,277.73,0,0,0,15.16-46.89c3.46-15.94,5-31.71,8.37-47.64a87.35,87.35,0,0,1,2.69-10.89c1-2.84,2.55-7,6.1-8.27,4.91-1.72,7.11,3.91,8.21,6.76a40.48,40.48,0,0,1,1.95,19.49c-1.81,14.81-8.17,29.69-15.22,44.27-7.14,14.77-14.71,29.42-21.7,44.22-6.15,13-12.47,26.11-20.24,38.73-.76,1.58-1.76,3.05-2.49,4.62a7,7,0,0,1-2.16,2.94C370.88,321.47,369.84,320.77,370.23,320.07Z"/>
            <path class="cls-15" d="M384.44,258.72c-.54,1.51-1.11,3-1.73,4.54.09.1.17.21.25.31Q383.76,261.17,384.44,258.72Z"/>
            <path class="cls-7" d="M176.42,301.07a2.41,2.41,0,0,1-2.52-3.46,4,4,0,0,1,5-2.36,2.25,2.25,0,0,1,1.46,2.29C180.47,299.17,178.45,301,176.42,301.07Z"/>
            <path class="cls-6" d="M191.29,288.24c-3.77.19-6.12-2.87-4.66-6.42,1.56-3.81,5.93-5.81,9.25-4.39a4.2,4.2,0,0,1,2.7,4.25C198.82,284.7,195.07,288,191.29,288.24Z"/>
            <path class="cls-16" d="M239.45,273.21a2,2,0,0,1-2-2.8,3.24,3.24,0,0,1,4-1.91,1.86,1.86,0,0,1,1.18,1.86C242.73,271.67,241.1,273.13,239.45,273.21Z"/>
          </g>
          <g>
            <path class="cls-2" d="M356.8,350.77c9.36-10.54,12.76-31,14.84-39.66,2.76-11.51,5.28-23.1,7.34-34.58,5.1-28.41,7.57-56.95,4.69-83.77-2.19-20.38-6.62-41.69-19.85-56.35a28.86,28.86,0,0,0-20.41-10c-10.54-.49-21.78,5.48-31,12.37-12,9-22.35,20.57-32.41,31.33-11.08,11.85-32.92,24.55-47.84,30.36-27.21,10.6-39.12,38.14-28.39,57.7,5.88,10.72,40.29,30.27,50.25,37.36,11.38,8.08,22.42,16.52,34,24.33s23.5,15.1,34.14,24c6.11,5.1,14.87,16.24,26.1,12.73A19.11,19.11,0,0,0,356.8,350.77Z"/>
            <path class="cls-17" d="M332.38,365.65a88.28,88.28,0,0,1-17.1,7c-11.79,3.75-23.68,5.73-35.43,7.88a275.63,275.63,0,0,1-67.31,3.55,191.87,191.87,0,0,1-30.8-4.54c-9-2.1-18.07-4.7-25.52-9.07s-12.54-11.58-7.95-21.62c3.81-8.33,12.66-15.11,20.61-20.38a203.56,203.56,0,0,1,45.87-22.16c8.33-2.86,16.91-5.11,25.07-5.36s15.07,1.68,21.68,4.29c14.95,5.87,27.57,15.42,40.1,24.21,6.17,4.32,12.28,8.71,18.41,13.07,3.15,2.23,6.25,4.5,9.44,6.68,2.62,1.79,6,3.22,7.61,6C339.05,358.63,337,363,332.38,365.65Z"/>
            <path class="cls-4" d="M326.83,297.28c1.18,5.35,3.89,10,6.46,14.58,3.67,6.58,7.59,13.15,9.75,20.59.1.35.19.71.29,1.06.15-5.17.34-10.37.15-15.49-.28-7.59-.47-15.15-1.27-22.6-.45-4.1-1.11-8.18-1.6-12.3C332.27,279.81,325.17,289.74,326.83,297.28Z"/>
            <path class="cls-5" d="M341.35,174.59c-2-2.9-9.9-10.36-15.15-4.21-4.41,5.14,1.28,14.06,3.26,17.65,3.39,6.12,7.87,11.52,11.1,17.74,7.83,15.07,13.91,31.78,13.94,50.34a12.05,12.05,0,0,1,2.89,1.47,13.18,13.18,0,0,1,4.72,6.43c-.93-2.35-.08-6.7-.19-9.41-.12-3.18-.3-6.35-.56-9.49-.53-6.5-1.36-12.91-2.51-19.19a176.06,176.06,0,0,0-10.52-35.6c-2.2-5.28-3.74-11-6.94-15.68Z"/>
            <path class="cls-5" d="M324.08,184c-6.34-4-17-3.3-24.35,3.77-11.13,10.75-2.05,20.7,4.28,27.15,9.67,9.85,19,19,25.25,31.47A153.84,153.84,0,0,1,340,272.77c.27-5.7,1.9-13,7.83-16.23a7.59,7.59,0,0,1,3.4-.94c-.33-26-13-46.79-24.82-67.42C325.86,187.16,325,185.68,324.08,184Z"/>
            <path class="cls-5" d="M281.09,228.92l.36.2a.75.75,0,0,1,.31.88,73.67,73.67,0,0,0,9,10.94c14.08,14.81,26.52,30.54,33.6,49.88a13.85,13.85,0,0,1,3.11-5.64c3.57-4,7.55-5.84,11.44-5.65a132.18,132.18,0,0,0-6.59-19.62c-3.3-8.19-7-16.37-12.08-23.47-4.6-6.43-10.48-11.74-16.09-17.34-4-4-9-8.32-11.17-13.84l-.07,0c-4.46,1.15-11.46,3.12-14.1,7.72a11.54,11.54,0,0,0-.53,9.92A33,33,0,0,0,281.09,228.92Z"/>
            <path class="cls-5" d="M251.13,246.34c-.86,9.11,4.67,15.7,10.3,21.23,8,7.89,17.21,14.67,25.62,22.19A115.17,115.17,0,0,1,298.27,301c1.36,1.61,2.58,3.34,3.81,5.08a14.82,14.82,0,0,1,1.72-1.91c5.1-4.8,12.33-8,18.71-8.2A116.27,116.27,0,0,0,302,258.48c-6.21-7.69-13.83-14.19-19.9-22-1.25-1.61-2.65-3.41-3.91-5.35C268.92,226.09,252.29,234.12,251.13,246.34Z"/>
            <path class="cls-4" d="M343.3,347.24c-1.86-8-3.49-16-7.17-23.23-3.59-7-8.28-13.58-10.93-21.15a28.17,28.17,0,0,1-1.13-4.24c-6.7-.12-17.51,4.89-20.43,10.45a195.55,195.55,0,0,1,20.09,17.5,112.69,112.69,0,0,1,11.52,13.29,61.87,61.87,0,0,0,6.23,7.68c.6.61,1.25,1.22,1.93,1.83C343.36,348.66,343.34,348,343.3,347.24Z"/>
            <path class="cls-4" d="M343.43,281.12c.47,4,1.21,7.85,1.69,11.75a206.22,206.22,0,0,1,1.42,30.38c-.19,7.7-.69,15.51-.26,23,.32,1.42.65,2.84,1,4.26-.53-2.1,2.38-7.95,3.09-10.42,1-3.53,2-7.06,2.9-10.59,1.87-7.18,3.51-14.35,4.85-21.51,1.71-9.21,3.6-18.51,3.61-27.48,0-7.29-.87-17.85-7.86-21.06-4.61-2.11-8.1.29-9.57,5.46A40.05,40.05,0,0,0,343.43,281.12Z"/>
            <path class="cls-2" d="M332.38,365.65c-5.42,3.09-8.05,3.56-13.4,6.25-8.8,4.43-23.86,8.54-35.62,10.69-22.73,4.15-49.4,3-70.82,1.52a191.87,191.87,0,0,1-30.8-4.54c-9-2.1-18.07-4.7-25.52-9.07s-12.54-11.58-7.95-21.62c3.81-8.33,12.66-15.11,20.61-20.38a203.56,203.56,0,0,1,45.87-22.16c8.33-2.86,16.91-5.11,25.07-5.36s15.07,1.68,21.68,4.29c14.95,5.87,27.57,15.42,40.1,24.21,6.17,4.32,12.28,8.71,18.41,13.07,3.15,2.23,6.25,4.5,9.44,6.68,2.62,1.79,6,3.22,7.61,6C339.05,358.63,337,363,332.38,365.65Z"/>
            <path class="cls-5" d="M229.05,323.18l.6.25a.71.71,0,0,1,.09.07,55.92,55.92,0,0,0,8.92,2.75c8.5,2.07,17.45,3.33,26,5.31a309.23,309.23,0,0,1,40.16,12,155.83,155.83,0,0,1,18.4,7.86c4.92,2.66,9.55,5.66,14.26,8.57a3.65,3.65,0,0,0-.48-3.76c-1.59-2.74-5-4.18-7.61-6-3.19-2.18-6.24-5.5-9.39-7.73-6.13-4.36-12.24-8.75-18.41-13.07l-5.76-4.07c-4.38-2-7.92-5.35-12.28-7.32-6.75-3.07-14-5-21.41-7a61.17,61.17,0,0,0-19-2.5c-5.43.28-13.33,1.67-17.56,6.8C222.7,318.87,225.33,321.41,229.05,323.18Z"/>
            <path class="cls-5" d="M228.85,324.11c-5.66-2.49-12.79-3.34-19.63-3.4s-16,.38-22.47,5.37c-2.4,1.83-5.07,4.76-5.18,7.43-.1,2.37,1.51,4,3.39,5,3.74,2.08,8.41,3,13.12,3.57a8.9,8.9,0,0,0,1-.15c.33-.06.51.12.51.32l2.22.22c9.62.86,19.6.71,29.41,1,11.16.35,22.26.92,33.16,2,1.54,0,3.07.12,4.59.23.25,0,.34.15.31.3q3.28.36,6.54.8A302.83,302.83,0,0,1,308.06,353l1.8.29a.38.38,0,0,1,.28.24q5.22,1.34,10.32,2.87A115.74,115.74,0,0,1,332.21,361c1.27.54,2.56,1.07,3.87,1.57a9.35,9.35,0,0,0,1-1.58c-6.84-4.18-13.54-8.46-21.13-11.76-8-3.47-16.28-6.6-24.79-9.33a346.79,346.79,0,0,0-45-11"/>
            <path class="cls-5" d="M281,351.19c-8.31-.19-18.32-.35-27,3.68-3.5,1.61-7.14,4.37-8.13,7.92-1.48,5.25,3.13,8.33,7.06,10.16,9.26,4.33,21,6.12,32.19,6.61.08,0,2.31-.39,2.38-.39,10-1.81,19.53-4.7,29.49-7.87,5.71-1.81,9.39-4.65,14.81-7.74,1.22-.7,2.87.57,3.7-.32-3.15-1.18-6.17-2.55-9.23-3.86a105.87,105.87,0,0,0-15.09-4.65c-1.12-.3-2.25-.58-3.39-.86A192.67,192.67,0,0,0,281,351.19Z"/>
            <path class="cls-4" d="M261.12,346.22c-9.32-.05-19.21.42-29,3-7.88,2.09-19.19,7.17-18.83,16,.23,5.74,5.86,8.92,10.79,10.88a66.6,66.6,0,0,0,16.59,3.91,297.8,297.8,0,0,0,31.71,1.73q3.72-.56,7.44-1.23l1.85-.34a105.38,105.38,0,0,1-21.14-3.54c-6.07-1.7-18.09-5.19-15.73-13.58,1.94-6.9,9.91-10,16.36-11.41,9.34-2,18.65-1.67,27.37-1,3.1.23,6.17.54,9.21.9-1.82-.39-3.64-.77-5.48-1.14-9.26-1.82-18.73-3.17-28.37-4.14C263,346.25,262.06,346.23,261.12,346.22Z"/>
            <path class="cls-5" d="M171.76,359a.45.45,0,0,1,.65.32c.68.26,1.39.48,2.1.68a62.4,62.4,0,0,0,13.38,2,115.69,115.69,0,0,0,25-1,.47.47,0,0,1,.36.06,17.39,17.39,0,0,1,6.5-7.39c7.74-5.19,17.74-6.61,25.87-7.42q4.77-.48,9.48-.65l-3.25-.24c-12.86-.85-25.93-1-38.93-1.4-5.07-.17-10.18-.37-15.1-1-7.84.94-35.1,1.42-31.18,11.53a8.58,8.58,0,0,0,5,4.57Z"/>
            <path class="cls-5" d="M171.53,360.05c-4.55,2.56-1,5.7,1.36,7.29A50.57,50.57,0,0,0,184,372.7c5.15,1.85,11.07,2.39,16.87,2.9,8.1.7,16.33,1.07,24.29,2.13a25.92,25.92,0,0,1-9.64-5.62A9.3,9.3,0,0,1,213,361.66h0a112.8,112.8,0,0,1-27.84.86C181,362.17,175.64,361.73,171.53,360.05Z"/>
            <path class="cls-6" d="M346.55,146.39c2.85-1.25,5.38-3.69,4.52-6.42-.65-2.09-2.95-3.26-5.41-3.65a11.92,11.92,0,0,0-4.42.68c-4.32,1.56-5.42,5.62-3.15,8.24C339.86,147.27,343.29,147.83,346.55,146.39Z"/>
            <path class="cls-7" d="M311.05,162.18c-3.46-.66-4.1-5.13-1.1-8a8.49,8.49,0,0,1,1.07-.85c-.12-.19-.07-.43.33-.62,4.26-2,10.1-.74,8.63,4.14C318.87,160.51,314.46,162.82,311.05,162.18Z"/>
            <path class="cls-7" d="M289.45,180.54a2.88,2.88,0,0,1-1.87-4.83,3.75,3.75,0,0,1,4-1.39,2,2,0,0,1,2.06,2.29C293.4,178.46,291.64,180.8,289.45,180.54Z"/>
            <path class="cls-7" d="M259.05,220.43c-5.79,2.32-11.47-.31-11.48-5.62,0-5.71,5.52-10.64,11.65-10.64,3,0,6.27,1.44,7,3.93C268.55,211.82,264.85,218.12,259.05,220.43Z"/>
            <path class="cls-6" d="M275.75,198.47c-5.79,2.32-11.47-.31-11.49-5.62,0-5.71,5.53-10.64,11.65-10.64,3,0,6.28,1.44,7,3.93C285.25,189.86,281.54,196.16,275.75,198.47Z"/>
            <path class="cls-7" d="M228.32,234.87c-5.79,2.31-11.47-.31-11.49-5.63,0-5.71,5.53-10.63,11.65-10.64,3,0,6.28,1.45,7,3.94C237.82,226.26,234.11,232.56,228.32,234.87Z"/>
            <path class="cls-6" d="M233.29,251.56c-1.81-2.14-.18-5.82,3.12-7.14a4.47,4.47,0,0,1,3.43-.12c2.46,0,3.71,2.42,2,4.93C240,251.93,235.14,253.74,233.29,251.56Z"/>
            <path class="cls-7" d="M247.86,271.69c2.59-2.89-.54-5.38-3.44-4.72a3.72,3.72,0,0,0-2,1.2,3,3,0,0,0-.53.48,3.13,3.13,0,0,0-.41,3,2.88,2.88,0,0,0,2.3,2C245.27,273.92,246.81,272.85,247.86,271.69Z"/>
            <path class="cls-7" d="M266,285.44c2.59-2.89-.53-5.38-3.43-4.73a3.83,3.83,0,0,0-2,1.21,2.58,2.58,0,0,0-.52.48,3.16,3.16,0,0,0-.42,3,2.92,2.92,0,0,0,2.31,2C263.36,287.67,264.91,286.6,266,285.44Z"/>
            <path class="cls-7" d="M285.73,300.7c2-2.21-.41-4.12-2.63-3.62a2.89,2.89,0,0,0-1.51.93,2,2,0,0,0-.4.37,2.44,2.44,0,0,0-.32,2.3,2.22,2.22,0,0,0,1.77,1.54A3.78,3.78,0,0,0,285.73,300.7Z"/>
            <path class="cls-5" d="M365.56,307.5l.11-.8c.35-3.74.14-7.42.33-11.14s.4-7.35.57-11c.37-7.65.67-15.28.7-22.85.05-15.16-1-30-4.14-44.18-3.16-14.4-8.24-28-11.44-42.33a63.87,63.87,0,0,1-1.82-10c-.18-2.69-.33-6.72,2.79-9,4.33-3.19,8.95.66,11.28,2.62a34,34,0,0,1,10.21,15.37c4.37,12.88,4.09,27.46,3,42-1.12,14.76-2.74,29.6-3.69,44.33-.85,13-1.83,26.05-4.52,39.27-.11,1.58-.53,3.15-.61,4.71a5.54,5.54,0,0,1-1,3.21C366.83,308.42,365.46,308.22,365.56,307.5Z"/>
            <path class="cls-18" d="M354.37,251.74c.07,1.44.13,2.9.13,4.37.14.05.26.11.39.17C354.76,254.76,354.58,253.25,354.37,251.74Z"/>
            <path class="cls-7" d="M158.39,361.84c-2,.82-4-.08-4-1.94a4.1,4.1,0,0,1,4.13-3.75,2.47,2.47,0,0,1,2.46,1.36C161.76,358.81,160.44,361,158.39,361.84Z"/>
            <path class="cls-7" d="M168.28,345.88c-3.79,1.52-7.5-.16-7.49-3.61,0-3.71,3.65-6.93,7.66-7,2,0,4.1.91,4.57,2.52C174.53,340.24,172.08,344.35,168.28,345.88Z"/>
            <path class="cls-7" d="M211.45,316.08c-1.65.67-3.27-.07-3.26-1.57a3.3,3.3,0,0,1,3.33-3,2,2,0,0,1,2,1.1C214.17,313.63,213.11,315.42,211.45,316.08Z"/>
          </g>
          <g>
            <g>
              <path class="cls-19" d="M359.21,363.07s0-4.07,3.52-3.12,9.75,21.54,9.75,21.54l12.92,1.05a13.62,13.62,0,0,1,8.18,7.41c4.45,10.24.46,9.11-7.42-1.1-.42-.55-1.69,3.9-2.14,3.3s.08-6-.31-6.6l-11.37,1.56a3.32,3.32,0,0,1-3.52-2Z"/>
              <path class="cls-19" d="M330.76,408.73l.09-.05c1.85-.93,8.67-1.12,13-.09,0,0-4.47-10.51-6.73-15.11-.24-.49,3.39-2.87,3.39-2.87s6.69,18.6,4.29,19.33c-1.56.48-10.68-.36-10.68-.36,5.07,4,10.74,11.86,10.43,15.7C342.33,428.86,333.18,415.93,330.76,408.73Z"/>
              <g>
                <path class="cls-20" d="M352.76,378c-.78,2.07-1.62,4-2.53,5.93a60.12,60.12,0,0,1-14.62,19.31,58.22,58.22,0,0,1-29.71,13.66,50.76,50.76,0,0,1-12.34.37c-7.24-.71-13.11-3.12-16.19-6.69-3.64-4.22-3.37-10.07,3.17-16.68,1.2-1.2,2.44-2.38,3.71-3.52,1.9-1.7,3.88-3.32,5.93-4.88a136,136,0,0,1,20.7-12.81c2.55-1.3,5.09-2.52,7.6-3.65A215.9,215.9,0,0,1,356,356.08C372.66,357.83,352.76,378,352.76,378Z"/>
                <path class="cls-21" d="M340.52,364.89c2.38,11,7.2,15.77,6.64,21.23-.8,7.88-8.2,14.15-11.55,17.07a58.22,58.22,0,0,1-29.71,13.66,50.76,50.76,0,0,1-12.34.37c-7.24-.71-13.11-3.12-16.19-6.69h0c29.89-1.84,64.48-15,57.15-26.86-14.74-23.93.42-22.27.42-22.27Z"/>
              </g>
            </g>
            <path class="cls-20" d="M380.42,335.23c-1.28,7.74-1.62,14.82-2.07,21.26-.73,10.79-1.76,19.78-8,27-11.91,13.89-22.25,12-30.59,6.56-12.86-8.37-10.12-23.79-10.12-23.79a3.22,3.22,0,0,1,.24-1.26h0c1.89-5.18,14.45-17.19,21.61-15.2,14.83,4.12,17.35-26.72,17.35-26.72C373.37,316.14,380.42,335.23,380.42,335.23Z"/>
            <path class="cls-21" d="M378.35,356.49c-.73,10.79-1.76,19.78-8,27-11.91,13.89-22.25,12-30.59,6.56-12.86-8.37-10.12-23.79-10.12-23.79s.46,9.52,22.41,11c0,0,14.89.69,20.56-10.23l.66-14.16Z"/>
            <path class="cls-21" d="M376.54,369.78s-23.48.87-30.42-19.29l9-12.6,21.89,20"/>
            <g>
              <path class="cls-20" d="M409.14,344.48s3.44-34.67-27.31-33.94c-7.58.18-30.54,3.14-29.44,33.62-1.36,3.67-6.68,20,28.34,24.58,1.7,1.21,8.84,6.55,12.49-.85C394.21,367.8,417.35,364.62,409.14,344.48Z"/>
              <path class="cls-22" d="M352.51,344.53c.69-1.23,1.89-3.66,1.9-3.69s-1.62,2.19-2.3,3.4Z"/>
              <path class="cls-23" d="M393,368.84a14.53,14.53,0,0,0,1-3.18,28.12,28.12,0,0,1-1.41,2.86Z"/>
              <path class="cls-23" d="M381.23,369.41l.28-.44c-2.24-1.83-4.83-3.56-4.83-3.56S379,367.56,381.23,369.41Z"/>
              <path class="cls-24" d="M392.67,319.23s-7.51-5.38-9.08,5.4A9.65,9.65,0,0,1,392.67,319.23Z"/>
              <path class="cls-24" d="M404.54,322s-2.6-3.77-5.14,1A4.79,4.79,0,0,1,404.54,322Z"/>
              <g>
                <path class="cls-23" d="M406.21,347.07a4.45,4.45,0,0,0,2.22-1.41,4.1,4.1,0,0,1-4.65.45l-.21.47A3.41,3.41,0,0,0,406.21,347.07Z"/>
                <g>
                  <g>
                    <path class="cls-25" d="M386.32,333.79l12-12.47s-2.64,8.78,2.9,20.44c2.32,4.9,6.06,8.47.43,11.39-11.83,6.14-19.39-2.58-19.39-2.58Z"/>
                    <path class="cls-26" d="M386.32,333.79l12-12.69s-2.67,9,2.87,20.66c2.32,4.9,6.06,8.47.43,11.39-11.83,6.14-19.39-2.58-19.39-2.58Z"/>
                    <path class="cls-23" d="M397.14,355.14a19.78,19.78,0,0,0,4.63-1.75c1.72-.89,2.69-1.91,3-3.11.43-1.79-.65-3.72-1.9-5.95-.48-.86-1-1.74-1.42-2.68-5.42-11.41-2.91-20.15-2.88-20.24a7.26,7.26,0,0,0-1,3.51,34.16,34.16,0,0,0,3.48,17c.45,1,1,1.85,1.43,2.72,1.19,2.12,2.22,3.95,1.84,5.51-.25,1.06-1.15,2-2.74,2.79-11.55,6-19-2.42-19.11-2.51l-.34.36a15.64,15.64,0,0,0,15,4.39Z"/>
                  </g>
                  <g>
                    <g>
                      <path class="cls-27" d="M383.91,348.94h-.05l0-.06Z"/>
                      <path class="cls-26" d="M377.49,347.77l6.37,1.16c-.29.48-2.55,3.84-7.93,2.61Z"/>
                    </g>
                    <path class="cls-23" d="M383.89,348.87l-.06.09-.18.22-.3.32a5.37,5.37,0,0,1-.41.38c-.07.07-.16.13-.24.2s-.17.14-.27.2a7,7,0,0,1-1.29.71c-.23.1-.48.18-.73.26s-.51.15-.76.19-.51.09-.75.11l-.72.05H377l-.43,0-.38,0,.37.12.42.13.27.07.29,0,.67.1.75,0,.4,0,.4,0c.27,0,.54-.12.82-.18s.52-.19.77-.3a4.07,4.07,0,0,0,.71-.4c.11-.08.22-.14.32-.22l.29-.25a5.49,5.49,0,0,0,.48-.49l.2-.24.16-.23c.1-.14.17-.29.24-.4A3.15,3.15,0,0,0,383.89,348.87Z"/>
                  </g>
                </g>
              </g>
              <g id="eye">
                <g>
                  <path class="cls-28" d="M385.54,336.82c.76,5.83,4.17,10.34,7.2,10s4.87-5.32,4.12-11.16-3.83-10.3-6.87-10S384.79,331,385.54,336.82Z"/>
                  <path class="cls-29" d="M392.75,344.71c1.68,0,3-2.42,3-5.39s-1.36-5.39-3-5.39-3.05,2.42-3.05,5.39S391.07,344.71,392.75,344.71Z"/>
                </g>
                <ellipse class="cls-30" cx="393.6" cy="336.39" rx="1.05" ry="1.58"/>
              </g>
              <g id="eye-2" data-name="eye">
                <g>
                  <path class="cls-28" d="M399.42,334.06c1.1,4.63,4.22,8,6.63,7.46s3.48-4.7,2.38-9.33-3.95-8-6.37-7.45S398.32,329.43,399.42,334.06Z"/>
                  <path class="cls-29" d="M405.88,339.8c1.35-.14,2.25-2.2,2-4.59s-1.56-4.22-2.91-4.08-2.25,2.2-2,4.59S404.53,340,405.88,339.8Z"/>
                </g>
                <ellipse class="cls-30" cx="405.87" cy="333.04" rx="0.85" ry="1.28" transform="translate(-32.5 44.11) rotate(-5.98)"/>
              </g>
              <g>
                <path class="cls-19" d="M397.16,316.07c-.21.43-1.44.26-1.47-.75s6.82-14.09,22.93-16.33c5.61-.78,12.27,1.43,15.45,4.68,1.59,1.63,2.32,3.88,1.21,5.62-2.57,4-8.27-7.06-17.38-6.93C407.87,302.51,400,310.26,397.16,316.07Z"/>
                <path class="cls-31" d="M434,306.83s-5.38-10.57-18.91-6.05C415,300.87,424.35,297.87,434,306.83Z"/>
              </g>
              <g>
                <path class="cls-19" d="M379.12,313.92a.88.88,0,0,1-1.61.15c-.46-.86-.18-16,12.9-26.85,4.55-3.77,11.32-5.51,15.5-4.43,2.1.55,3.71,2.12,3.51,4.24-.48,5-10.29-1.61-18.17,3.52C382.56,296.2,379,307.31,379.12,313.92Z"/>
                <path class="cls-31" d="M408.82,286s-8.82-7.06-19.43,3.43C389.28,289.55,396.69,282.39,408.82,286Z"/>
              </g>
            </g>
            <path class="cls-19" d="M327.06,387.82c-1.05-1.61-2.58-.49-2.42,1.63.19,2.37,3.69,12.62,8.45,27.33-3.06-.13-13.43-1.06-17.32,1.49-2.35,1.55-1.81,6.18,0,9.86s7,11.44,9.5,10.87,3.36-9.51-6.49-20.29c9.38-.41,15.39.93,15.73-.46C336.22,411.16,328.67,390.3,327.06,387.82Z"/>
            <path class="cls-19" d="M349.31,372.71s0-4.07,3.52-3.12,9.75,21.54,9.75,21.54l12.92,1.05s4.49-.32,5.3.05c.17.08-1.95,1.62-1.76,1.72.5.26-.59-.41,0,0a13.29,13.29,0,0,1,4.64,5.64c4.9,11.25-.41,8.77-9.87-4.4l-11.37,1.56a3.33,3.33,0,0,1-3.52-2Z"/>
          </g>
        </g>
      </g>
    </g>
  </g>
</svg>
