<svg id="Layer_1" data-name="Layer 1" xmlns="http://www.w3.org/2000/svg" width="660" height="361" viewBox="0 0 660 361">
  <defs>
    <style>
      .cls-1 {
        fill: #231e13;
      }

      .cls-2 {
        fill: #fffbf0;
      }

      .cls-3 {
        fill: #ff4848;
        stroke: #490404;
        stroke-miterlimit: 10;
        stroke-width: 2px;
      }
    </style>
  </defs>
  <g>
    <path class="cls-1" d="M245.68,123.66S245,74.3,201.77,74.3a65.55,65.55,0,0,0-19.07,3.14l-24.7-7-9,1L135,83.15l-5.1-10.56L114.28,71.4s-3-34.25-.64-38.17c0,0-89.11,1.92-101.32,3.28,0,0,6.28,49.64,6.79,62.92l20.61-7.94s5.79,58-7.48,89l58.55-6.13,2.45-1.7,21.93-4.51,16,2.38,6.16,3.75L168.66,172l6.13-6.26s12.5,18.16,45.19,7.66C247.81,164.42,245.68,123.66,245.68,123.66Z"/>
    <path class="cls-2" d="M246.68,114.66S246,65.3,202.77,65.3a65.55,65.55,0,0,0-19.07,3.14l-33.7-6L136,74.15l-5.1-10.56L115.28,62.4s-3.58-39-1.19-42.89c0,0-74.73,7.66-100.77,8,0,0,6.64,47,7.15,60.25l20.25-5.27s5.79,58-7.48,89l58.55-6.13,2.45-1.7,34.06,2,3.83-4.09,3.06,4.34,35.75-.25,4.85-8.94s12.5,18.16,45.19,7.66C248.81,155.42,246.68,114.66,246.68,114.66Z"/>
    <path class="cls-1" d="M256.08,43s5.83-7.28,58.49-8.36c0,0-2.06,55.59.49,59.68a40.36,40.36,0,0,1,16.45-7.66s22.1-27.07,57.34-6.64V76.7l-4.34-1.79,9.19,1.35-.55-5,8.53-17,6-4.49,44.7,4.75-7.13,20.61,7.13-.26,9.94-21.31,7.15-4.3,37.83,3.39-8.94,23.5,13.28-.51-1.28,6.64s22.11-21.81,54-6.23c0,0,14.11,7.89,38.3-6,0,0,22.57-16.63,38.91,20.36,11.91,26.94,7.11,41,7.11,41l-35.21,10.36-23.57,27.39s-6,4.16-20.84,10.19l-1.27-10.58s-29.88,17.33-55.66-3c0,0-25.28,27-55.92,1.42,0,0-27.57,24.73-55.4-1.42,0,0-31.77,23.61-61-3.2,0,0-62.95,4-79.74,27.32C260.15,190,271.14,152.79,256.08,43Z"/>
    <path class="cls-2" d="M256.72,31.34s39.14-8.43,60-19.15c0,0-3.57,66.38-1,70.47A40.36,40.36,0,0,1,332.15,75s22.11-27.07,57.34-6.64V65l-4.34-1.79,1.25-7.4,7.94,2,5.36-16.08,53.35,1.09-7.13,20.61,7.13-.26,8.44-22L508,41,499,64.53,512.3,64,511,70.66S532,53.3,563.87,68.87c0,0,26.81-.77,39.83-10,0,0,25.28-6.38,38.56,19.92s-1.54,44.68-1.54,44.68l-27.94,4,4.46,33.25s-32.69,1-47.49,7l-1.28-10.58s-29.87,17.33-55.66-3c0,0-25.28,27-55.92,1.42,0,0-27.57,24.73-55.4-1.42,0,0-31.15,24.36-58.21,0,0,0-65.62,8.82-83.75,20.57C259.53,174.83,271.79,141.13,256.72,31.34Z"/>
    <g>
      <path class="cls-1" d="M138.4,204s9.39-2.14,10.39-2c15.69,2.18,36.63,0,46.12-2.59l7.15,12.77,11.58-15,10-2,56,4.44-9.51,41.46s17.36-5.73,30.29,5.47c0,0,25.54-2.07,35.07-7.17,0,0,24.51-4.09,37.1,15a31.9,31.9,0,0,1,28.6-12.59s1.42-38.81-4.77-51.07c0,0,37.49-3.06,57.49-7.14l-2.34,59.91s24.85-9.87,46.64,8.51c0,0,12.6,11.92,12.26,35.41l-8.85,3.4s20.21,17.67,1.36,41.86c-15.66,20.1-52.94,4.82-52.94,4.82l-25.23,3.77-11.36,2.27-2.45-4s-30.85,6.88-48.15-15.59l-14.68-.45,1,10.34L300.6,345.36l-1-3.8s-29.41,8.16-42-5.79l-26.78,7.89-20.88,4-2.38-6.81-37.09,7.81-14,2.92S163.93,286.74,138.4,204Z"/>
      <path class="cls-2" d="M139.4,194s41.87-.69,56.51-4.6l7.15,12.77,11.58-15,66,2.44-9.51,41.46s17.36-5.73,30.29,5.47c0,0,25.54-2.07,35.07-7.17,0,0,24.51-4.09,37.1,15a31.9,31.9,0,0,1,28.6-12.59s1.42-38.81-4.77-51.07c0,0,37.49-3.06,57.49-7.14l-2.34,59.91s24.85-9.87,46.64,8.51c0,0,12.6,11.92,12.26,35.41l-8.85,3.4s20.21,17.67,1.36,41.86c-15.66,20.1-51.41,6.14-51.41,6.14l-38.12,4.72-2.39-4.38s-29.27,7.31-45.27-12.86H349.1l2.73,11.16s-38.13,4.76-51.07,7.83l-.2-3.74s-29.41,8.16-42-5.79l-.51,8.85-47.15,3.06-2.38-6.81-4.26,8.68-46.81,2.05S164.93,276.74,139.4,194Z"/>
      <g>
        <path class="cls-3" d="M77.12,65.3c0,29.76,1.8,63.94,5.56,86.18-13.9.49-29.11,2-29.11,2,3.27-22.24,4.42-55.76.66-86.67A175.61,175.61,0,0,0,31.5,70.86a214.28,214.28,0,0,0-3.11-30.74c23.55-1.31,50.69-.66,72.28-3.44,0,0-.17,15,.33,29.11A222.46,222.46,0,0,0,77.12,65.3Z"/>
        <path class="cls-3" d="M160.84,149.84a109,109,0,0,0-21.91,1.31,128.08,128.08,0,0,0-6.21-21.75,121.37,121.37,0,0,0-6.38,23.39,149.69,149.69,0,0,0-21.91-.49c-2.13-19-8.51-54.3-16-72.61,0,0,12.92-.49,25.67-.33,0,16.36,1.64,32.38,4.75,44A228,228,0,0,0,132.22,89s7.2,16,13.9,31.89a453.64,453.64,0,0,0,4.42-46.28c13.08,1,25.35,2.29,25.35,2.29C169.84,95.06,162.64,128.26,160.84,149.84Z"/>
        <path class="cls-3" d="M204.17,151.64c-9.64.66-25-4.09-29.1-23.87-4.75-22.73,6.37-49.88,26.82-50,14.71-.17,27.47,14.22,28.78,36.79C231.81,134.14,222.65,150.33,204.17,151.64Zm-2.61-49.71c-7,.65-11.29,12.1-9.49,22.4,1.31,8.67,5.89,12.27,10.31,11.78,6.54-.66,10-9.16,9.32-17.83C210.88,108,206.46,101.6,201.56,101.93Z"/>
        <path class="cls-3" d="M274.48,154.26c5.73-24.53,4.26-86-1.14-110.55,0,0,15.37-.81,28.13-6.21-2.46,23.38-3.27,63.28-.33,86.34,9-3.6,20.28-7,31.4-7.52a202.94,202.94,0,0,0,.16,27.47A277.46,277.46,0,0,0,274.48,154.26Z"/>
        <path class="cls-3" d="M372.11,150.66c-13.57,1-29.11-6.7-34.34-27.47-5.72-22.73,4.25-47.92,27-48.24,21.75-.33,30.75,16.35,31.73,37.45,0,0-21.59.32-40.07,3.76.82,10.3,4.58,18.48,10,18,5.07-.49,6.05-7.35,4.9-13.57,0,0,14.88-2,28.95-2.94C400.07,141.34,385.19,149.84,372.11,150.66Zm-7.69-59c-3.92.65-6.7,5.88-7.84,13.24a134.31,134.31,0,0,0,17.17-1.63C372.76,96.21,369.49,91,364.42,91.63Z"/>
        <path class="cls-3" d="M426.24,151.31c-19-3.43-22.41-30.41-19.3-58.87-3.76.17-6.05.33-6.05.33.33-7.36,1.31-14.23,1.31-14.23l6.87-.32a215.26,215.26,0,0,1,5.56-23.55c11.12.16,22.4.65,22.4.65a140.44,140.44,0,0,0-6.87,21.75l16.19-.81a115.67,115.67,0,0,0-1.8,18,167,167,0,0,0-17.66-1.8c-3.43,20.45-2.45,36.47,1.14,37.78,3.6,1.47,5.56-6.54,5.4-16,11,3.77,20.93,8.34,20.93,8.34C451.91,144.94,439.65,153.77,426.24,151.31Z"/>
        <path class="cls-3" d="M478.73,151.31c-19-3.43-22.41-30.41-19.3-58.87-3.76.17-6.05.33-6.05.33.33-7.36,1.31-14.23,1.31-14.23l6.87-.32a215.26,215.26,0,0,1,5.56-23.55c11.12.16,22.4.65,22.4.65a140.44,140.44,0,0,0-6.87,21.75l16.19-.81a115.67,115.67,0,0,0-1.8,18,166.72,166.72,0,0,0-17.66-1.8c-3.43,20.45-2.45,36.47,1.15,37.78,3.59,1.47,5.56-6.54,5.39-16,11,3.77,20.93,8.34,20.93,8.34C504.4,144.94,492.14,153.77,478.73,151.31Z"/>
        <path class="cls-3" d="M544.79,150.66c-13.57,1-29.11-6.7-34.34-27.47-5.72-22.73,4.25-47.92,27-48.24,21.75-.33,30.75,16.35,31.73,37.45,0,0-21.59.32-40.07,3.76.82,10.3,4.58,18.48,10,18,5.07-.49,6-7.35,4.9-13.57,0,0,14.88-2,28.95-2.94C572.75,141.34,557.87,149.84,544.79,150.66Zm-7.69-59c-3.92.65-6.7,5.88-7.84,13.24a134.31,134.31,0,0,0,17.17-1.63C545.44,96.21,542.17,91,537.1,91.63Z"/>
        <path class="cls-3" d="M610.85,113.7c.33-9.15-1.8-15-4.9-15.7-2.78-.49-5.73.5-8.18,4.75.66,16.84,2.29,35.16,4.25,47.09,0,0-12.26-.49-23.38,3.11,1.63-22.57,2.78-51.51-.49-73.75,0,0,11.61-.33,19.62-3.44-.16,2.62-.33,5.56-.33,8.67,6.22-5.72,14.89-8,21.43-6.87,10.79,1.8,16.35,12.43,16,30.75C623.94,109.29,610.85,113.7,610.85,113.7Z"/>
      </g>
      <g>
        <path class="cls-3" d="M243.19,318.6A134.49,134.49,0,0,0,217,320.4s-.82-23.22-7.69-41.37c-8,21.09-10,43.66-10,43.66a116.46,116.46,0,0,0-24.69-1.63c-1.15-34.51-8-81.6-16.36-110.22a218.91,218.91,0,0,0,31.4-2.29,463.44,463.44,0,0,0,2.78,66.88c5.56-13.24,11.78-30.41,14.88-43,4.25,14.39,10.47,31.57,18.48,44.65,2.94-22.57,2.94-54.13,1.47-72.45,0,0,15.37.66,31.24,1.48C251.36,233.08,245,276.74,243.19,318.6Z"/>
        <path class="cls-3" d="M282.59,320.08c-9.65.65-25-4.09-29.11-23.88-4.74-22.73,6.38-49.88,26.82-50C295,246,307.78,260.39,309.08,283,310.23,302.58,301.07,318.77,282.59,320.08ZM280,270.36c-7,.66-11.29,12.1-9.49,22.41,1.31,8.66,5.89,12.26,10.3,11.77,6.55-.65,10-9.16,9.32-17.82C289.3,276.41,284.88,270,280,270.36Z"/>
        <path class="cls-3" d="M345.06,282.14c.32-9.16-1.8-15.05-4.91-15.7-2.78-.49-5.72.49-8.18,4.74.66,16.84,2.29,35.16,4.26,47.1,0,0-12.27-.49-23.39,3.1,1.64-22.56,2.78-51.51-.49-73.75,0,0,11.61-.32,19.62-3.43-.16,2.61-.32,5.56-.32,8.67,6.21-5.73,14.88-8,21.42-6.87,10.79,1.8,16.35,12.43,16,30.74C358.14,277.72,345.06,282.14,345.06,282.14Z"/>
        <path class="cls-3" d="M439.41,318.44c-6.05-1-21.91,1.8-21.91,1.8a91.46,91.46,0,0,0,1-10,27.08,27.08,0,0,1-17.17,6.38c-15.86.33-28.13-10.95-28.46-29.92-.32-15.87,8.18-38.43,27.48-39.58a23.75,23.75,0,0,1,19.29,8.51c-.49-22.57-2.12-45.14-4.58-62,12.76-.66,27-4.25,27-4.25C438.59,218,435.49,285.41,439.41,318.44ZM409,270.69c-7.19-1.31-14.88,5.4-15.86,14.88-.65,7.52,4.91,12.59,11,12.1,6.38-.32,11.12-4.41,12.59-12.75C418,277.72,415.53,271.83,409,270.69Z"/>
        <path class="cls-3" d="M473.75,320.08c-11.61-.17-21.92-4.09-30.58-15.7a113,113,0,0,1,14.71-17c5.56,11.28,15.54,14.06,18,11.12,2-2.45.66-6.7-10-11.28-9.65-4.09-18.15-10.14-18.65-20.93-.49-8.67,4.91-20.12,22.08-20.94,18.48-.81,27.47,11.94,31.4,24.53a64.87,64.87,0,0,0-21.1,6.22c-4.9-12.76-12.92-12.27-12.26-7.2,2,13.74,34,11,33.52,32.05C500.56,313.54,488.46,320.24,473.75,320.08Z"/>
      </g>
    </g>
  </g>
</svg>
