<svg id="Layer_1" data-name="Layer 1" xmlns="http://www.w3.org/2000/svg" width="163" height="112" viewBox="0 0 163 112">
  <defs>
    <style>
      .cls-1 {
        fill: #2e6300;
      }

      .cls-2 {
        fill: #42a90e;
      }

      .cls-3 {
        fill: #5bb900;
      }

      .cls-4, .cls-9 {
        fill: #50ca0a;
      }

      .cls-5 {
        fill: #71dd2a;
      }

      .cls-6 {
        fill: #307206;
      }

      .cls-7 {
        fill: #e5f550;
      }

      .cls-8 {
        fill: #509b00;
      }

      .cls-25, .cls-9 {
        stroke: #33560a;
      }

      .cls-21, .cls-23, .cls-25, .cls-9 {
        stroke-miterlimit: 10;
      }

      .cls-21, .cls-25, .cls-9 {
        stroke-width: 0.5px;
      }

      .cls-10 {
        fill: #d1ca3b;
      }

      .cls-11 {
        fill: #510000;
      }

      .cls-12 {
        fill: #7c0000;
      }

      .cls-13 {
        fill: #c85a5f;
      }

      .cls-14 {
        fill: #eb7d86;
      }

      .cls-15 {
        fill: #99252e;
      }

      .cls-16 {
        fill: #752a2a;
      }

      .cls-17 {
        fill: #b28f00;
      }

      .cls-18 {
        fill: #fccdd1;
      }

      .cls-19 {
        fill: #4aaa0c;
      }

      .cls-20 {
        fill: #66d61e;
      }

      .cls-21 {
        fill: #fcfae6;
        stroke: #424015;
      }

      .cls-22 {
        fill: #efebbd;
      }

      .cls-23 {
        stroke: #ea6907;
        stroke-width: 2px;
      }

      .cls-24 {
        fill: #fff;
      }

      .cls-25 {
        fill: none;
      }
    </style>
  </defs>
  <g>
    <g>
      <g>
        <path class="cls-1" d="M111.46,78.83c7,0,15.92-3.77,21.47-9.28,5.26-5.22,4.94-7.82,4.28-8.91-1-1.73-4-1.76-6.24-.79l.09.24c2.16-.93,5-.93,5.95.69.61,1,.88,3.49-4.25,8.58-6.19,6.15-16.64,10.12-23.78,9-2.83-.43-4.89-1.65-5.93-3.53l-.21.13c1.08,2,3.2,3.21,6.11,3.66A17,17,0,0,0,111.46,78.83Z"/>
        <g>
          <path class="cls-2" d="M102.94,74.93c4,7.1,20.82,3.54,29.91-5.47S135.56,58,131,60"/>
          <path class="cls-3" d="M156,81.2s-2.42.07-1.39,3.41c-3.94-2.44-15.14-1.37-18.83-5.65C143.26,76.48,149.27,81.4,156,81.2Z"/>
          <path class="cls-1" d="M154.58,84.72c-1.61-1-4.49-1.41-7.54-1.84-4.28-.61-9.13-1.3-11.32-3.84l-.13-.14.19-.06a13.51,13.51,0,0,1,4.39-.71,28.27,28.27,0,0,1,7.9,1.5,26.28,26.28,0,0,0,8,1.45v.25a1.67,1.67,0,0,0-1.24.69,3.08,3.08,0,0,0,0,2.55l.1.32ZM148,79.88a27.86,27.86,0,0,0-7.83-1.5A13.42,13.42,0,0,0,136,79c2.2,2.35,6.89,3,11,3.6,2.92.42,5.68.81,7.36,1.72a3,3,0,0,1,.17-2.47,1.64,1.64,0,0,1,.58-.54A29.72,29.72,0,0,1,148,79.88Z"/>
          <path class="cls-2" d="M134.35,64.45c-4.6,6-4.53,6.29-10.27,10.23a21.25,21.25,0,0,1-7.54,3.25c-1.86.35-6,2-4.53,5.23,1.74,4,7.27.4,9.64-1.13a9.71,9.71,0,0,1,5.57-1.56,20.17,20.17,0,0,1,5.9,1.62c2.69,1.08,8.61,3.45,12.44,6.28s9.79,4.18,11.43.56c1-2.31-.53-5-5.1-6.16-4-1.06-10.29-1.58-14.57-3.57,4.53-.8,8.78.75,11.7,1.7s6.77,1.54,9,.77c3.44-1.2,2.4-7.5-4.84-7.5-7.06,0-17.27,1.18-18.66-.43C150,60.45,138.35,54.89,131,60"/>
          <path class="cls-4" d="M126.11,76a45.26,45.26,0,0,0,5-3.84c3.51-3.4,4.5-6.22,5.33-10.07.75-3.52,2-3.82,2.87-3.51,4,1.34,5,6.8-4.77,15.2,1.39,1.61,11.6.43,18.66.43,4.12,0,6.23,2,6.65,4,.17.78-.91,2.07-3.35,2.29a23,23,0,0,1-7.14-1.07c-2.92-.94-7.49-1-12-.21,4.28,2,10.52,2.51,14.57,3.57,3.5.91,5.15,2.69,5.39,4.5.16,1.16-.85,2.34-3.1,2.33-2.41,0-6.28-2.15-8.26-3.62-3.83-2.84-10.1-5-12.79-6.08A15.24,15.24,0,0,0,127,78.83,1.52,1.52,0,0,1,126.11,76Z"/>
          <path class="cls-5" d="M151.06,83.57a9.68,9.68,0,0,1,4.86,1.93c1.43,1.32-.24,1.7-1.32,1a35.53,35.53,0,0,0-4-2.56C150.28,83.74,150.2,83.44,151.06,83.57Z"/>
          <path class="cls-5" d="M153.31,75.06a7.21,7.21,0,0,1,3.89.66c1.25.75.07,1.3-.84.93A25.17,25.17,0,0,0,153,75.38C152.76,75.31,152.65,75.1,153.31,75.06Z"/>
          <path class="cls-1" d="M153,91.25a6.3,6.3,0,0,0,1.62-.2A3.68,3.68,0,0,0,157.1,89a3.37,3.37,0,0,0,0-2.83c-.7-1.57-2.54-2.82-5.19-3.51-1.38-.36-3-.66-4.74-1a45.64,45.64,0,0,1-9.42-2.41c4-.59,7.82.65,10.61,1.56l.61.2c2.7.87,6.69,1.59,9.08.77a3,3,0,0,0,1.93-3.4c-.32-2.16-2.55-4.35-6.81-4.35-2.13,0-4.57.11-6.94.22-5.1.23-10.38.46-11.53-.52,9.19-7.94,7.86-12.19,6.85-13.66-1.88-2.73-6.84-2.83-10.61-.22l.13.22c3.61-2.5,8.51-2.43,10.28.15,2,2.94-.56,8-6.91,13.41l-.1.08.08.1c1,1.18,6.26.94,11.83.69,2.35-.1,4.79-.21,6.92-.21,4.11,0,6.26,2.08,6.57,4.13A2.7,2.7,0,0,1,158,81.54c-2.33.81-6.26.09-8.93-.77l-.61-.2c-2.91-.95-6.89-2.25-11.14-1.5l-.4.07.37.18c2.84,1.32,6.58,2,9.87,2.6,1.72.31,3.35.61,4.72,1,2.58.68,4.37,1.87,5,3.37a3.13,3.13,0,0,1,0,2.61,3.44,3.44,0,0,1-2.32,1.93c-2.36.66-6-.38-8.93-2.53-3.79-2.81-9.58-5.14-12.36-6.26l-.11,0a20.07,20.07,0,0,0-5.94-1.62,9.8,9.8,0,0,0-5.64,1.57c-1.76,1.14-5.44,3.53-7.81,2.77a3,3,0,0,1-1.68-3.92c.8-1.63,3.28-2.48,4.48-2.71a21.57,21.57,0,0,0,7.58-3.27c5-3.45,5.36-3.89,8.69-8.06.49-.62,1.51-2.28,1.51-2.28-.65.8-1.21,1.5-1.7,2.12-3.37,4.23-3.65,4.57-8.64,8a21.25,21.25,0,0,1-7.49,3.24c-1.33.25-3.8,1.13-4.65,2.85a3.27,3.27,0,0,0,1.83,4.28c2.47.79,6.21-1.64,8-2.8a9.61,9.61,0,0,1,5.5-1.54,20,20,0,0,1,5.86,1.61l.11,0c2.78,1.12,8.54,3.44,12.31,6.23A13.51,13.51,0,0,0,153,91.25Z"/>
        </g>
      </g>
      <path class="cls-6" d="M138.59,58.46s-1.34.09-2,2.76-1.28,6.77-5.29,10.67-5.06,3.43-6.08,4.88-7.4.41-9,1.09-3.88,1-4.74.71,3.43-10.89,3.57-10.94,19.27-9.06,19.27-9.06A8.53,8.53,0,0,1,138.59,58.46Z"/>
      <path class="cls-7" d="M141.94,61.58a4.78,4.78,0,0,0-2.9,1,3.5,3.5,0,0,0,.66,5.61S142.66,64.86,141.94,61.58Z"/>
      <circle class="cls-7" cx="133.26" cy="71.89" r="1.09"/>
    </g>
    <g>
      <path class="cls-8" d="M143.26,94.05s-6-.37-4.72,5.6c-2.68-2.7-9.4-6.65-12.72-11.94,4.32.94,7.51,1.76,10.74,3.6A31.17,31.17,0,0,0,143.26,94.05Z"/>
      <path class="cls-3" d="M139.83,95c-1.06.76-1.83,2.15-1.29,4.68-2.2-2.22-7.13-5.28-10.66-9.24C132.13,90.42,135.8,93.43,139.83,95Z"/>
      <path class="cls-1" d="M138.45,99.75a38.34,38.34,0,0,0-3.61-3c-3.06-2.39-6.86-5.36-9.12-9l-.16-.26.29.07c4.07.89,7.45,1.72,10.76,3.6a31,31,0,0,0,6.67,2.73l0,.26h-.19a5.06,5.06,0,0,0-3.87,1.59,4.68,4.68,0,0,0-.54,3.87l.09.41Zm-1.95-8.33c-3.22-1.83-6.36-2.63-10.41-3.52,2.25,3.44,5.93,6.31,8.89,8.62,1.34,1,2.51,2,3.36,2.77A4.68,4.68,0,0,1,139,95.6a4.87,4.87,0,0,1,3.45-1.66A30.37,30.37,0,0,1,136.5,91.42Z"/>
      <path class="cls-2" d="M123.44,65.42c.89,2.91,1.94,15.49,2,17.2a25.78,25.78,0,0,0,11.22,3.9c4.68.51,4.92-.13,8.51.68s4.16,3.81,3.07,5.65-3.91,2.69-7.95,1.15-5.89-4.1-13.28-5.22A48.14,48.14,0,0,0,136.44,97c7.58,5.26,2.94,11.21-2.47,8.45-2.91-1.49-5.69-6.18-6.86-8.88-1.31-3-4.8-8.64-8-8.81s-6.21,3.59-10.49,3.08-5-3.82-3.39-5.42,6.86-.66,9-2.11,3.72-4.63,3.71-13.78"/>
      <path class="cls-4" d="M114,85.92c-1.76,3.26-5.9,4.2-9.19,2.82a2.75,2.75,0,0,1,.41-3.32c1.29-1.27,4.87-.94,7.34-1.48A1.36,1.36,0,0,1,114,85.92Z"/>
      <path class="cls-4" d="M131.41,100.82c-2.13-2.42-4.27-8.61-8.14-12.46a10.35,10.35,0,0,0-3.38-2.87,3.7,3.7,0,0,1-2.09-4,36.82,36.82,0,0,1,2-8.11c.6-1.71,2.62-4.45,4.37-4.27.68,4.84,1.28,12.22,1.34,13.5a25.78,25.78,0,0,0,11.22,3.9c4.68.51,4.92-.13,8.51.68s4.16,3.81,3.07,5.65-3.77,1-7.8-.54-7.73-4.61-15.12-5.73c.1.12,1.89,2.43,2,2.54A48.36,48.36,0,0,0,136.44,97c3,2.06,4.06,4.22,4,5.93C139.44,106.15,133.54,103.23,131.41,100.82Z"/>
      <path class="cls-5" d="M135,96.59c1.35.8,3.44,2.25,4.32,4.06s-.87,1.61-1.67.42a39.85,39.85,0,0,0-3.13-4.3C134.32,96.5,134.31,96.17,135,96.59Z"/>
      <path class="cls-5" d="M141.55,87.67a10.14,10.14,0,0,1,5.41.94c1.77,1.07.09,1.85-1.2,1.31a38.12,38.12,0,0,0-4.36-1.67C140.93,88.11,140.56,87.73,141.55,87.67Z"/>
      <path class="cls-1" d="M136.66,106.28a3.84,3.84,0,0,0,3.48-1.9c.89-1.67.47-4.64-3.64-7.49A47.92,47.92,0,0,1,127.36,89a24.46,24.46,0,0,1,9.33,3.38,25.44,25.44,0,0,0,3.58,1.79c4.44,1.69,7.09.48,8.09-1.21a3.73,3.73,0,0,0,.26-3.27,4.53,4.53,0,0,0-3.4-2.58,16.42,16.42,0,0,0-4.26-.45,36.47,36.47,0,0,1-4.27-.23,25.44,25.44,0,0,1-11.11-3.84c-.11-1.94-1.14-14.3-2-17.17l-.23.08c.88,2.89,1.93,15.49,2,17.17v.07l.06,0a25.59,25.59,0,0,0,11.27,3.91,34.54,34.54,0,0,0,4.29.23,15.89,15.89,0,0,1,4.21.46,4.27,4.27,0,0,1,3.23,2.42,3.48,3.48,0,0,1-.24,3c-1.2,2-4.26,2.46-7.81,1.1a24.33,24.33,0,0,1-3.54-1.76,24.48,24.48,0,0,0-9.76-3.46l-.34,0,.24.26a48.15,48.15,0,0,0,9.42,8.24c4,2.75,4.4,5.57,3.56,7.15s-3.19,2.46-5.91,1.07-5.61-6.06-6.8-8.81c-1.44-3.35-4.92-8.72-8.13-8.89a9,9,0,0,0-4.42,1.43c-1.84,1-3.75,1.93-6.06,1.65-2.08-.25-3.52-1.19-4-2.59a2.57,2.57,0,0,1,.64-2.6c.8-.8,2.63-1,4.4-1.1s3.5-.29,4.54-1c1.86-1.29,3.77-4,3.76-13.88h-.24c0,9.86-2,12.49-3.66,13.67-1,.68-2.73.83-4.42,1-1.89.15-3.69.3-4.55,1.16a2.83,2.83,0,0,0-.7,2.87c.47,1.5,2,2.5,4.16,2.77,2.38.28,4.41-.76,6.2-1.68a9,9,0,0,1,4.3-1.41c3.21.18,6.73,6,7.92,8.75,1,2.39,3.81,7.35,6.91,8.93A6.07,6.07,0,0,0,136.66,106.28Z"/>
      <path class="cls-1" d="M127,88.87l.17-.18A20.61,20.61,0,0,1,124.5,85a8.26,8.26,0,0,0,1.22,2.36A19.26,19.26,0,0,0,127,88.87Z"/>
    </g>
    <path class="cls-2" d="M104.25,12.82C101.55,2.77,90.07-6,74.1,20.53c0,0-5.73-.11-7.84,3C64.49,23,61.1,25,59.65,28.67s-1.87,7.74-4.14,10C44.16,49.87,35.33,56.57,37.18,71.55c2.49,17.32,38,20,61.53,13s38.58-23.62,42.53-38.17c4.19-.19,8.56-9.59.87-12.67.63-2.54,0-5.9-1.49-6.59C144,16.69,139.55,5,130.16,5c-6.26,0-8.52,6.21-10.13,8.26-1.26.39-1.51-1.52-8.51-1.65A18.42,18.42,0,0,0,104.25,12.82Z"/>
    <path class="cls-9" d="M104.6,12.67C100.88,2.79,91-6.64,74.1,20.53a10,10,0,0,0-7.84,3c-1.77-.52-5.7,1.6-7.34,5.58-1.51,3.66-1.86,7.74-4.13,10C43.44,50.32,35.2,55.16,39.57,69s22.82,12.56,52.94,1c23-8.83,39.41-10.61,43.37-25.16,10.7,4.81,14.13-8.37,6.23-11.14.45-.86.29-5.82-1.24-6.5,4.69-21.81-9.52-24.65-15.35-20.86-3.12,2-3.88,4.8-5.49,6.85-.3,0-1.32-1.8-8.51-1.65C107.64,11.64,105.52,12.19,104.6,12.67Z"/>
    <path class="cls-10" d="M35.51,72.75c5.82,16.22,41,18.43,63.2,11.81,23.57-7,38.58-23.62,42.53-38.17a4.51,4.51,0,0,0,4.07-3.23c.74-2.9-1.89-6.57-4.07-2.08-2.82,1-7.58,5.44-10,5.57s-8.39-3.3-12.42-3.66-15.78,2.57-21.6,1.53S75.6,31.17,68.36,30.82c.91-3.22-3.09-6.33-6.46-2.4-3.75,4.37-5.32,16.37,1.94,25,3.6,4.26,8.4,4.91,9.6,9.89C77.37,79.49,41.08,86.27,35.51,72.75Z"/>
    <path class="cls-7" d="M61.41,29.06a1.54,1.54,0,0,1,2.35.47c1.21,1.28.24,4.62.73,4.62,7.52-2.63,17.16,6.69,23,12.92C91.3,51.18,93.18,56,97,59.91c6.62,6.79,16.55,5.63,22.51,2.74,4.07-2,3.52-7.42,7.15-11.08,1.47-1.48,3.33-1.09,6.84-2.69,3-1.36,5.8-5.74,8.94-7.28,1.17-.53,3.11-1,3,.87a4.13,4.13,0,0,1-.11.69,4.51,4.51,0,0,1-4.07,3.23c-2.26,8.31-8.12,17.28-17.12,24.76-6.18,4.92-17.08,8.9-24.28,10C87.21,83,73.93,80.24,69.9,73.55c3-2.72,4.53-6.2,3.54-10.28-1.2-5-6-5.63-9.6-9.89C56.9,45.17,58,33.87,61.41,29.06Z"/>
    <g>
      <path class="cls-11" d="M81.7,37.83c8.89,6.42,14.12,16.68,18,20.37a14,14,0,0,0,7.2,3.35c4.89.91,10.22.05,12.49-1.81,3.55-2.91,1.72-8.64,10.79-12.84,0,0-6.11-2.91-9.26-4.08a13.43,13.43,0,0,0-3.74-.76,51.09,51.09,0,0,0-11.23.82C98.71,44,95.32,43.48,81.7,37.83Z"/>
      <path class="cls-12" d="M106.88,61.55c4.89.91,10.22.05,12.49-1.81,3.55-2.91,1.72-8.64,10.79-12.84,0,0-6.11-2.91-9.26-4.08a13.43,13.43,0,0,0-3.74-.76C118.94,50.38,112.38,57.68,106.88,61.55Z"/>
      <path class="cls-13" d="M95,52.32a47.41,47.41,0,0,0,4.68,5.88c4.39,4.2,13.13,4.47,17.76,2.62h0c2.77-1.44,4.68-5.74,1.94-8.5s-7.26-2.83-9.44-.65C102.66,46.65,95.32,49.39,95,52.32Z"/>
      <path class="cls-14" d="M106.21,59.27c-3.48-1.39-8-4.11-5.79-7.7,1.93-3.08,8.13-1.5,11,1.32.61-1.94,2.75-2.88,5-2.37a7.34,7.34,0,0,1,2.93,1.8,4.38,4.38,0,0,1,1.25,2.35C121.12,59.35,113.17,62,106.21,59.27Z"/>
      <path class="cls-15" d="M110.92,62c-4.71,0-8.83-1.36-11.33-3.74A47.65,47.65,0,0,1,95,52.49l-.1-.14V52.3c.18-1.7,2.8-3.54,6.7-3.54a14.79,14.79,0,0,1,8.35,2.75,6,6,0,0,1,4.15-1.5,7.62,7.62,0,0,1,5.39,2.21,4.64,4.64,0,0,1,1.32,4,6.56,6.56,0,0,1-3.29,4.68h0A18.22,18.22,0,0,1,110.92,62Zm9.63-5.82a4.38,4.38,0,0,0-1.24-3.81,7.39,7.39,0,0,0-5.23-2.15,5.71,5.71,0,0,0-4,1.51l-.07.07-.08-.06a14.56,14.56,0,0,0-8.3-2.77c-3.73,0-6.23,1.69-6.46,3.27l0,.06a47.69,47.69,0,0,0,4.6,5.77c2.44,2.33,6.51,3.68,11.16,3.68h0a18,18,0,0,0,6.48-1.09h0A6.29,6.29,0,0,0,120.55,56.22Z"/>
      <path class="cls-16" d="M113.16,56.44a3.6,3.6,0,0,0-.47-1.86,8.5,8.5,0,0,0-2.67-3l-.14.21A8.27,8.27,0,0,1,113.16,56.44Z"/>
      <path class="cls-17" d="M99.6,58.3A48.09,48.09,0,0,1,95,52.54c-3.37-4.64-7.56-10.41-13.37-14.6l-.89-.64,1,.41c10.32,4.28,14.58,5.52,19,5.52a32.53,32.53,0,0,0,5.19-.48,62.8,62.8,0,0,1,9.34-.89,16.33,16.33,0,0,1,5.69.83c3.12,1.17,9.21,4.07,9.27,4.1l.25.11-.25.12c-5.75,2.66-7.06,5.87-8.22,8.71a9.52,9.52,0,0,1-2.55,4.11c-1.65,1.36-4.92,2.2-8.51,2.2h0C106.22,62,102.09,60.68,99.6,58.3Zm21.26-15.36a15.87,15.87,0,0,0-5.61-.82A62.23,62.23,0,0,0,106,43a34.31,34.31,0,0,1-5.23.48c-4.3,0-8.45-1.17-18.13-5.15C88,42.49,92,48,95.19,52.38a46.83,46.83,0,0,0,4.57,5.73c2.44,2.33,6.51,3.68,11.17,3.68,3.54,0,6.75-.83,8.37-2.15a9.18,9.18,0,0,0,2.47-4,14.32,14.32,0,0,1,8.1-8.73C128.69,46.35,123.61,44,120.86,42.94Z"/>
      <path class="cls-18" d="M112.48,55.43a6.08,6.08,0,0,0-3.18-3.35c-.4-.17-.75-.11-.51.05a13.47,13.47,0,0,1,3.64,3.94C112.71,56.52,112.65,55.86,112.48,55.43Z"/>
      <path class="cls-18" d="M120.07,55.39a4.36,4.36,0,0,0-4.17-4.26c-.43,0-.54.14-.24.24a6.19,6.19,0,0,1,4.12,4.29C120,56.22,120.08,55.76,120.07,55.39Z"/>
    </g>
    <path class="cls-17" d="M49.27,84.53C42,81.86,37.19,77.8,35.4,72.8l.22-.1c1.84,4.47,7.48,7.14,15.07,7.14,8.72,0,17.34-3.46,21-8.42a9.47,9.47,0,0,0,1.67-8.12c-.72-3-2.72-4.36-5-6a21.73,21.73,0,0,1-4.54-3.85c-7.12-8.42-5.9-20.52-1.93-25.14a4.59,4.59,0,0,1,3.46-1.88A3.27,3.27,0,0,1,68,27.88a3.48,3.48,0,0,1,.54,2.82c4.11.29,10.93,4.28,17,7.81,4.77,2.79,9.28,5.43,11.8,5.88a17.07,17.07,0,0,0,3,.23,83.53,83.53,0,0,0,10.55-1,63.41,63.41,0,0,1,7.24-.76q.45,0,.81,0A29.86,29.86,0,0,1,126,45c2.16.83,4.19,1.61,5.32,1.55,1.31-.07,3.42-1.51,5.46-2.9A24.16,24.16,0,0,1,141.16,41c.86-1.76,1.72-2.13,2.3-2.13a1.78,1.78,0,0,1,1.38.83,4.48,4.48,0,0,1,.59,3.51,4.68,4.68,0,0,1-4.1,3.32c-2.07,7.54-7,15.31-13.92,21.89A70.91,70.91,0,0,1,98.74,84.68a92,92,0,0,1-25.58,3.5C64,88.18,55.77,86.92,49.27,84.53Zm92.08-43.39,0,0h-.05a24.79,24.79,0,0,0-4.42,2.63c-2.07,1.41-4.21,2.87-5.58,3-1.17.06-3.13-.69-5.41-1.57a29.23,29.23,0,0,0-7-2.09c-.22,0-.49,0-.78,0a61.36,61.36,0,0,0-7.21.77,83.73,83.73,0,0,1-10.58,1,17.65,17.65,0,0,1-3-.22c-2.56-.46-7.08-3.11-11.87-5.92-6.08-3.56-13-7.59-17-7.78H68.2l0-.16A3.23,3.23,0,0,0,67.78,28a3,3,0,0,0-2.5-1.32A4.37,4.37,0,0,0,62,28.5C58.09,33.06,56.9,45,63.93,53.3a22.2,22.2,0,0,0,4.49,3.81c2.36,1.64,4.4,3.06,5.14,6.13a9.69,9.69,0,0,1-1.71,8.34c-3.67,5-12.37,8.52-21.16,8.52h0c-6.39,0-11.42-1.88-14-5.14,2.27,3.9,6.59,7.1,12.67,9.33,6.48,2.37,14.71,3.63,23.81,3.63a92.27,92.27,0,0,0,25.52-3.48c24.12-7.19,38.7-24.31,42.45-38.09l0-.08h.09a4.41,4.41,0,0,0,3.95-3.14,4.09,4.09,0,0,0-.55-3.28,1.51,1.51,0,0,0-1.18-.73C142.94,39.11,142.16,39.46,141.35,41.14Z"/>
    <path class="cls-4" d="M141.25,41.09c-3.88,1-6.82,7-11.08,6.68s-7.49-3.69-13.06-4-14.48,3.58-21.79,2C85.23,43.49,75.81,32.13,68.37,30.83c0,0,33.41-.27,46.67,1.85S141.25,41.09,141.25,41.09Z"/>
    <g>
      <path class="cls-19" d="M141.16,41a8.89,8.89,0,0,0-3.56,2.2c-2.06,1.86-4.28,4.08-6.27,4.39a7.19,7.19,0,0,1-3.45-.41c-.71-.16-3.57-1.48-4.29-1.79A21.38,21.38,0,0,0,119,43.84c-1.68-.28-2.65-.48-6.5.14s-5.92,1.26-8.62,1.58a25.41,25.41,0,0,1-7.73.18c-3.37-.46-7-2.5-9.52-4s-7.24-5-8.28-5.76a50.1,50.1,0,0,0-6.42-4c-1.72-.7-3.07-1.14-3.07-1.14a6.55,6.55,0,0,1,3.07-.54c1.73.11,3.59,3.63,13.49,9.54s15.08,5.3,17.41,4.73,8.41-2.25,14.37-2.05,9,3.15,12.17,4c2.92.8,7-3.54,7-3.54S139.62,39.42,141.16,41Z"/>
      <path class="cls-1" d="M130.51,47.9c2.3,0,4.23-1.77,6.09-3.49,1.48-1.36,3-2.76,4.67-3.2l-.06-.25c-1.71.45-3.27,1.88-4.77,3.26-1.92,1.77-3.92,3.6-6.27,3.41a16.85,16.85,0,0,1-5.51-1.78,20.29,20.29,0,0,0-7.54-2.24,34.3,34.3,0,0,0-8.18,1c-4.36.87-9.3,1.87-13.6.92-5.29-1.17-10.31-4.8-15.16-8.3-4.25-3.07-8.25-6-11.8-6.59l0,.26c3.5.61,7.48,3.49,11.7,6.54C84.91,41,90,44.65,95.29,45.83c4.35,1,9.31,0,13.69-.92a35.09,35.09,0,0,1,8.12-1,20.3,20.3,0,0,1,7.46,2.22,16.78,16.78,0,0,0,5.6,1.81Z"/>
    </g>
    <g>
      <path class="cls-1" d="M65.63,33.21c3-3.41,6.27-3,6.31-3a4.22,4.22,0,0,0-2.62.1,7.8,7.8,0,0,0-2.52,1.39A5.33,5.33,0,0,0,65.63,33.21Z"/>
      <path class="cls-1" d="M139.18,39.43a5.37,5.37,0,0,1,3,3.92,2.93,2.93,0,0,0-.48-1.8A5.51,5.51,0,0,0,140.38,40,3.67,3.67,0,0,0,139.18,39.43Z"/>
    </g>
    <g>
      <path class="cls-1" d="M105.43,17.64a10.43,10.43,0,0,0,0-2.17,10.16,10.16,0,0,0-1.09-3.12l.06.41A16.67,16.67,0,0,1,105.43,17.64Z"/>
      <g>
        <path class="cls-1" d="M119.37,17A11.49,11.49,0,0,1,121,12l-.19.05a9.75,9.75,0,0,0-1.5,3.11A3.06,3.06,0,0,0,119.37,17Z"/>
        <path class="cls-20" d="M122.53,9.36c-1.88,2.92-2.85,4.58-3.14,7.12-.07.58.08.6.21,0,.75-3.47,2.32-5,3.18-6.5C124.44,7.16,122.85,8.85,122.53,9.36Z"/>
      </g>
      <path class="cls-20" d="M105,14.77a19.52,19.52,0,0,0-4.46-8.88c-1-1.11-1.17-.66-.54.25a45.46,45.46,0,0,1,4.58,8.62C105.21,16.31,105.52,16.93,105,14.77Z"/>
    </g>
    <g>
      <g>
        <path class="cls-19" d="M137.9,10.39s-3.54-2.2-9.12,0S122.63,21,123.53,23.51c1.2,3.34,3.73,6,7.52,6.54a10.93,10.93,0,0,0,6.18-.76Z"/>
        <g>
          <ellipse class="cls-21" cx="134.32" cy="19.94" rx="10.21" ry="9.49" transform="translate(83.3 145.78) rotate(-76.38)"/>
          <path class="cls-22" d="M132,24.32s-5.25.95-7-2.58a10.08,10.08,0,0,0,2.05,5A9.24,9.24,0,0,0,135.39,30,5.79,5.79,0,0,0,140,25.69S134.44,23.14,132,24.32Z"/>
        </g>
      </g>
      <g>
        <path class="cls-9" d="M137.23,31.52s-5.72-4.52-11,0"/>
        <path class="cls-1" d="M137.23,31.52a5.51,5.51,0,0,0-2-1.35,8.83,8.83,0,0,0-7.29,0,4.63,4.63,0,0,0-1.67,1.35C131.49,27.32,137.18,31.47,137.23,31.52Z"/>
        <path class="cls-5" d="M128.92,30.88c0-.44,1.06-.84,2.41-.91s2.45.24,2.47.67-1.06.84-2.41.9S128.94,31.31,128.92,30.88Z"/>
      </g>
    </g>
    <g>
      <g>
        <path class="cls-19" d="M84.21,15.56c-1.74,6.29-.62,11.46,4.37,13.15,7,2.37,12.63-.8,14.87-6.93,2-5.63-1-13.38-7-14.49C89.22,5.94,85.87,9.51,84.21,15.56Z"/>
        <g>
          <ellipse class="cls-21" cx="92.41" cy="18.39" rx="11.11" ry="10.57" transform="matrix(0.5, -0.87, 0.87, 0.5, 30.27, 89.22)"/>
          <path class="cls-22" d="M89.13,22.69s-5.95.12-7.32-4a10.73,10.73,0,0,0,1.44,5.71,10.48,10.48,0,0,0,8.66,4.89,6.37,6.37,0,0,0,5.84-3.77S92,21.84,89.13,22.69Z"/>
        </g>
      </g>
      <g>
        <path class="cls-9" d="M93.4,32.43s-3.56-6.16-13-4.77"/>
        <path class="cls-1" d="M93.4,32.43a4,4,0,0,0-1.2-1.76c-1.62-1.5-4.78-3.5-10-3.38a4.16,4.16,0,0,0-1.81.37C89.93,26.64,93.37,32.37,93.4,32.43Z"/>
        <path class="cls-5" d="M83.67,28.52c.17-.54,2-.38,4.09.37s3.64,1.8,3.47,2.34-2,.38-4.09-.37S83.5,29.06,83.67,28.52Z"/>
      </g>
    </g>
    <g>
      <path class="cls-7" d="M52.53,41.49s1.72,2.15,0,4.07-4.82.49-4.82.49S52.33,41.55,52.53,41.49Z"/>
      <circle class="cls-7" cx="50.01" cy="52.57" r="2.83"/>
      <circle class="cls-7" cx="56.88" cy="56.99" r="1.59"/>
      <circle class="cls-7" cx="50.01" cy="59.64" r="1.07"/>
    </g>
    <g>
      <circle class="cls-23" cx="92.88" cy="18.44" r="6.71"/>
      <circle class="cls-24" cx="90.27" cy="12.37" r="1.61"/>
    </g>
    <g>
      <circle class="cls-23" cx="132.81" cy="20.42" r="6.71"/>
      <circle class="cls-24" cx="130.2" cy="14.35" r="1.61"/>
    </g>
    <g>
      <g>
        <path class="cls-8" d="M6.87,87.57s4.81,1.2,4.16,4.37c7.83-1.37,16.62-2.45,17.59-7.07-7.06-.64-9.2.35-12.87,1.29A68.89,68.89,0,0,1,6.87,87.57Z"/>
        <path class="cls-1" d="M10.91,91.91c.61-3-4-4.2-4.06-4.21l-.74-.19.75-.07A68.08,68.08,0,0,0,15.72,86c.5-.12,1-.25,1.42-.37a24.45,24.45,0,0,1,7.44-1.12c1.21,0,2.53.07,4.05.2l.14,0,0,.14c-.9,4.31-8.4,5.58-15.66,6.81l-2,.35-.18,0ZM24.58,84.8a24.46,24.46,0,0,0-7.38,1.1c-.46.13-.92.26-1.42.38a64.87,64.87,0,0,1-8.27,1.36c1.26.44,4,1.71,3.67,4.14L13,91.46C20.13,90.26,27.46,89,28.47,85,27,84.86,25.74,84.8,24.58,84.8Z"/>
        <path class="cls-1" d="M27.57,86c.39-.34.76-.7,1.1-1a7.06,7.06,0,0,0,1.25-1.71,31.33,31.33,0,0,1-2.5,2.56Z"/>
        <g>
          <path class="cls-1" d="M42.68,82.15a4.27,4.27,0,0,0,2.88-2.43c1.61-3.41.29-9.43-1.49-13.94C40.34,56.33,34.76,52,32,52h0c-.8,0-1.49.55-2.06,1.64l.21.12c.53-1,1.16-1.53,1.87-1.51,2.7,0,8.16,4.29,11.86,13.64,1.76,4.45,3.07,10.4,1.49,13.73a4,4,0,0,1-2.72,2.29Z"/>
          <g>
            <g>
              <path class="cls-6" d="M32,52.12c2.66,0,8.22,4.21,12,13.71,2.49,6.32,3.83,14.85-1.31,16.2L30,53.69C30.54,52.69,31.2,52.11,32,52.12Z"/>
              <path class="cls-4" d="M32,52.12c2.66,0,8.22,4.21,12,13.71.31.8.61,1.64.88,2.49.36,1.25-.14,2.33-1,2.47-5.32.51-8.82-6.24-9.76-10.73l-4-6.37C30.54,52.69,31.2,52.11,32,52.12Z"/>
              <path class="cls-3" d="M27.29,87.14c-2.93,2.77-9.91,3.69-16.26,4.8a3,3,0,0,0-1.42-3.09C15.48,88.63,22.7,85.63,27.29,87.14Z"/>
              <path class="cls-2" d="M34,58c-.41,6.62,8.6,21.44,9.57,24.54s3.63,4.26,5.69,4.78,10.16,1.28,7.86,5.52-11.25,1.32-13.19-.56-3.09-3.49-4.6-3.49a19.88,19.88,0,0,0-7.31.62A64.36,64.36,0,0,0,19.34,96C14.9,98.87,8,101.69,5.54,98.4S6.83,92.11,12,91.08c4.59-.91,12.51-2.48,15.49-5.13-5-1.2-9.84.25-13.15,1.11s-7.87,1.72-10.09.25c-2.95-1.94-2.81-7.67,5.23-6.76,7.38.84,19.82,1.2,21.46-.51-3.37-5.74-3.85-28,1-27.92"/>
              <path class="cls-4" d="M34,58c-.41,6.62,5.46,20.89,6.43,24s6.77,4.81,8.83,5.33,10.15,1.27,7.86,5.52c-1.39,2.6-9.85.59-12.29-2-1.85-2-4.34-4.07-5.85-4.07a23.39,23.39,0,0,0-7.18,1.29,58.38,58.38,0,0,0-12.8,6C16.47,95.72,11.86,97.76,8.66,98c-3,.19-3.87-1.3-3.88-1.58,0-2.45,3.14-4.49,7.22-5.3,4.28-.85,11.45-2.27,14.82-4.61a19.65,19.65,0,0,0,2.35-2.15c-5-1.19-11.59.38-14.9,1.23s-7,1.22-8.62.68c-3.31-1.11-4.21-6.59,3.83-5.68,7.38.84,19.82,1.2,21.46-.51-3.37-5.74-3.85-28,1-27.92"/>
              <path class="cls-5" d="M11.93,81.23c-1.94-.29-4.52-.54-5.68-.07-2.19.87-.43,2.07,1.12,1.71,1.37-.31,2.73-.69,4.51-1C12.63,81.8,13.31,81.44,11.93,81.23Z"/>
              <path class="cls-5" d="M13.05,91.49c-1.94.47-4.7,1.27-5.69,2.21-1.73,1.66.32,2.09,1.64,1.17,1.17-.83,2.31-1.71,3.87-2.64C13.53,91.84,14.23,91.2,13.05,91.49Z"/>
              <path class="cls-5" d="M51.76,88.72a8.79,8.79,0,0,1,4.56,1.48c1.38,1.13-.13,1.58-1.16,1a31.35,31.35,0,0,0-3.81-2.11C51.06,88.92,51,88.65,51.76,88.72Z"/>
            </g>
            <path class="cls-5" d="M34.84,53.64c-1.25-.82-2.7-1.46-3.62-.79s-1.75,3.38-2,5.52c-.11.82.15.82.34.19.66-2.22,1.6-4.2,2.29-4.62a3.77,3.77,0,0,1,3,.19C35.8,54.51,35.54,54.1,34.84,53.64Z"/>
          </g>
        </g>
        <path class="cls-1" d="M9,100c3,0,7-1.71,10.38-3.92a63.45,63.45,0,0,1,12.64-6.49,16.41,16.41,0,0,1,6.24-.65l1,0c1.14,0,2.08,1,3.38,2.31.35.36.72.75,1.14,1.15,1.33,1.29,6.35,3.26,10,2.66a4.41,4.41,0,0,0,3.38-2.14,2.55,2.55,0,0,0,.24-2.32c-.87-2-4.72-2.71-7-3.15-.48-.09-.89-.17-1.18-.24-3-.74-4.86-2.32-5.6-4.69a48.43,48.43,0,0,0-2.41-5.11C38.37,71.71,34,63.05,34,58a4.11,4.11,0,0,0-.06,2c.76,5.16,4.56,12.49,7.12,17.55a50.77,50.77,0,0,1,2.39,5.07c.77,2.46,2.71,4.1,5.78,4.86.29.07.7.15,1.18.24,2.26.43,6,1.14,6.84,3A2.3,2.3,0,0,1,57,92.81a4.12,4.12,0,0,1-3.2,2c-3.59.59-8.51-1.33-9.81-2.59-.41-.4-.78-.78-1.13-1.15-1.34-1.38-2.31-2.37-3.55-2.37-.29,0-.63,0-1,0a16.67,16.67,0,0,0-6.32.66,64,64,0,0,0-12.7,6.52c-5,3.29-11.44,5.47-13.64,2.47a3,3,0,0,1-.57-2.91c.66-1.87,3.33-3.48,7-4.2h0c4.69-.93,12.52-2.49,15.52-5.16l.19-.16-.24-.06c-4.69-1.12-9.21.06-12.52.93l-.69.18c-5,1.3-8.3,1.39-10,.28a3.65,3.65,0,0,1-1.55-4c.3-.94,1.57-3.07,6.7-2.49,6.42.73,19.76,1.33,21.56-.55l.07-.07L31,80c-2.68-4.57-3.67-21-.89-26.26.51-1,1.13-1.47,1.82-1.47h0V52c-.8,0-1.5.52-2.07,1.59C28.67,56,28.05,61,28.29,67c.23,5.75,1.18,10.73,2.49,13.05C29,81.56,17.26,81.3,9.49,80.43c-5.31-.6-6.64,1.66-7,2.65a3.89,3.89,0,0,0,1.66,4.34c1.75,1.16,5.08,1.08,10.18-.24l.69-.18c3.22-.85,7.61-2,12.16-1C24.13,88.54,16.57,90,12,91h0c-3.71.74-6.44,2.41-7.14,4.37a3.25,3.25,0,0,0,.61,3.15A4.18,4.18,0,0,0,9,100Z"/>
        <path class="cls-25" d="M31.7,52.14s1.94-.52,5.61,2.85A30.22,30.22,0,0,1,46,72.91c.87,8-2.6,9-2.6,9"/>
      </g>
      <circle class="cls-7" cx="33.37" cy="71.89" r="1.07"/>
      <ellipse class="cls-7" cx="37.31" cy="82.15" rx="1.98" ry="1.71"/>
      <path class="cls-7" d="M28.5,63.34s1.81-.16,2.22,1c.52,1.38-.17,2.92-2.14,3.39C28.58,67.69,28.37,63.81,28.5,63.34Z"/>
    </g>
    <g>
      <g>
        <path class="cls-8" d="M51,100.49s.15-4.11-5.63-3.69c2.82-2.51,6.8-5.19,17.16-4.29C61.78,97.53,51,100.49,51,100.49Z"/>
        <path class="cls-3" d="M61.78,94.32C59.21,98.24,51,100.49,51,100.49A3.63,3.63,0,0,0,48.05,97,18.46,18.46,0,0,1,61.78,94.32Z"/>
        <path class="cls-1" d="M50.85,100.48A3.45,3.45,0,0,0,50,98.24c-.93-1-2.49-1.47-4.62-1.32L45,97l.29-.25c2.62-2.34,6.06-4.5,13.37-4.5,1.2,0,2.51.06,3.87.18h.13l0,.14c-.72,5-11.17,8-11.62,8.08l-.15,0Zm7.79-8c-7,0-10.38,2-12.94,4.19,2-.09,3.52.39,4.45,1.41a3.77,3.77,0,0,1,.94,2.26c1.28-.37,10.45-3.21,11.26-7.7C61.05,92.51,59.8,92.46,58.64,92.46Z"/>
        <path class="cls-2" d="M69.43,58.32C68.28,56.64,64.54,55.8,63,63c-2.8,12.86-.8,23.34-1.65,24.24s-5.11,2.38-8.86,2.25-10.84-.39-13.74,3-.79,5.91,1.57,6.36,4.72-1.1,7.2-3.08,11.69-3.47,14.29-2.64c-.59,2.34-5.81,5.33-10.11,6.49S43.32,103,44,106.68s6,2.93,8.68.6a7.87,7.87,0,0,0,2-2c1-2,2.09-2.58,5.33-3.56,3.47-1,4.72-3.08,7.15-5.2s4.11-3.6,6.41-3,4.78,2.76,7.33,3,5.5-2.05,4.66-4.24-4.66-3.78-9.14-2.82S70.31,87,69.77,84.66s-2.42-11.34-1.33-15C72,67.09,71.92,64,71.76,63"/>
        <path class="cls-4" d="M69.43,58.32C68.28,56.64,64.54,55.8,63,63c-2.8,12.86-.8,23.34-1.65,24.24s-5.11,2.38-8.86,2.25-10.84-.39-13.74,3,.3,4.8,1.69,4.87c2.4.11,4-1.08,6.48-3.07s12.37-3.71,15-2.87a4.59,4.59,0,0,1-.15,1.93c-.84,2.3-5.88,5.15-10,6.27S43.32,103,44,106.68s5.32,1.77,7.5-1,3-3.69,8-5.2c3.47-1,4.45-2.86,6.87-5s4.64-4.35,6.94-3.77,5.35,2.81,7.89,3.06,5.19-.31,4.35-2.5-4.66-3.78-9.14-2.82a7.11,7.11,0,0,1-8.26-4.84C67.62,82.26,66,72.64,67,69a5.62,5.62,0,0,0,4.72-6"/>
        <path class="cls-5" d="M47.56,90.42c-2,.09-5,.35-6.11,1.11-2,1.3,0,2.12,1.42,1.45a47.85,47.85,0,0,1,4.79-2C48.23,90.75,48.7,90.37,47.56,90.42Z"/>
        <path class="cls-5" d="M51,100.54c-1.72.49-4.28,1.46-5.69,3.13-1.56,1.85.53,2,1.74,1s2.23-2.06,3.81-3.23C51.41,101,52,100.25,51,100.54Z"/>
        <path class="cls-1" d="M47.73,109.44a8.85,8.85,0,0,0,5.36-2.26,20.64,20.64,0,0,0,1.47-1.53c1.63-2.14,1.11-2.46,5.5-3.79a12.3,12.3,0,0,0,5.53-3.66c.51-.5,1-1,1.65-1.56,2.36-2.07,4.07-3.56,6.31-3A14.46,14.46,0,0,1,76.62,95a12.34,12.34,0,0,0,4.27,1.66,5.06,5.06,0,0,0,4.41-2,2.55,2.55,0,0,0,.38-2.41c-.84-2.17-4.63-3.9-9.28-2.9s-6-2.54-6.51-4.72c-.26-1.11-2.47-11-1.35-14.89a8,8,0,0,0,3.34-4.93A4.84,4.84,0,0,0,71.76,63a7.35,7.35,0,0,1-3.39,6.52l0,0v0c-1.14,3.84.91,13.23,1.33,15.07s1.92,6,6.8,4.91c4.53-1,8.2.67,9,2.75a2.26,2.26,0,0,1-.36,2.15,4.86,4.86,0,0,1-4.18,1.91,11.89,11.89,0,0,1-4.19-1.63,14.21,14.21,0,0,0-3.12-1.38c-2.37-.6-4.11.93-6.52,3-.61.54-1.15,1.06-1.67,1.58a12.07,12.07,0,0,1-5.43,3.6c-4.66,1.39-3.92,1.56-5.54,3.68a22.25,22.25,0,0,1-1.53,1.62c-1.53,1.44-4.43,2.65-6.45,2.11a3,3,0,0,1-2.31-2.37c-.84-4.24,5-6.29,7.54-7,4.33-1.16,9.59-4.15,10.2-6.57l0-.12-.12,0c-2.65-.85-11.85.62-14.39,2.65s-4.9,3.48-7.11,3.06a3.51,3.51,0,0,1-2.75-2.24c-.26-.83-.26-2.17,1.24-3.9,2.86-3.28,9.85-3,13.61-2.91h0c3.88.13,8.13-1.41,9-2.29.31-.33.29-1.5.21-4.11A79.6,79.6,0,0,1,63.09,63c.89-4.12,2.37-5.36,3.46-5.67a2.88,2.88,0,0,1,2.88,1,2.09,2.09,0,0,0-1.28-1.16,2.63,2.63,0,0,0-1.67-.06c-1.14.34-2.71,1.62-3.63,5.86a80.19,80.19,0,0,0-1.47,20.26c.06,2.12.11,3.65-.14,3.92-.79.83-5,2.34-8.78,2.21h-.05c-3.79-.13-10.85-.37-13.78,3-1.59,1.82-1.58,3.27-1.3,4.16a3.76,3.76,0,0,0,2.94,2.41c2.3.44,4.58-.92,7.3-3.1,2.4-1.93,11.35-3.39,14.06-2.65-.72,2.25-5.8,5.15-10,6.27-2.62.71-8.6,2.82-7.72,7.28a3.25,3.25,0,0,0,2.49,2.57A5.19,5.19,0,0,0,47.73,109.44Z"/>
        <path class="cls-1" d="M61.9,93.11A5.45,5.45,0,0,0,62,91.87a2.79,2.79,0,0,0-.49-1.49A5.26,5.26,0,0,1,61.66,93Z"/>
        <path class="cls-5" d="M67.82,57.63c-2.18-.86-4.34,2.5-4.19,6.25,0,.45.32.2.42-.31.8-4,2.39-5.14,3.43-5.46C68.06,57.94,68,57.71,67.82,57.63Z"/>
      </g>
      <path class="cls-7" d="M62.86,64.11s2.59.66,2.14,4-3.22,3.3-3.22,3.3S62.47,64.62,62.86,64.11Z"/>
      <ellipse class="cls-7" cx="63.88" cy="78.26" rx="1.39" ry="1.23"/>
    </g>
    <ellipse class="cls-7" cx="122.67" cy="79.77" rx="1.18" ry="1.55" transform="translate(-2.13 156.17) rotate(-64.51)"/>
  </g>
</svg>
