<svg id="Layer_1" data-name="Layer 1" xmlns="http://www.w3.org/2000/svg" width="76.26" height="37.96" viewBox="0 0 76.26 37.96">
  <defs>
    <style>
      .cls-1 {
        fill: #fff;
        stroke: #3d2e18;
        stroke-width: 0.5px;
      }

      .cls-1, .cls-5 {
        stroke-miterlimit: 10;
      }

      .cls-2 {
        fill: #2d2b21;
      }

      .cls-3 {
        fill: #f1efe8;
      }

      .cls-4 {
        fill: #342517;
      }

      .cls-5 {
        fill: #ebb7ad;
        stroke: #323232;
        stroke-width: 0.25px;
      }
    </style>
  </defs>
  <g>
    <g>
      <g>
        <ellipse class="cls-1" cx="15.06" cy="25.24" rx="12.12" ry="11.24" transform="translate(-1.68 1.08) rotate(-3.89)"/>
        <ellipse class="cls-2" cx="16.25" cy="25.45" rx="7.38" ry="7.58" transform="translate(-11.98 36.17) rotate(-78.24)"/>
        <ellipse class="cls-3" cx="20.93" cy="20.61" rx="2.14" ry="2.19" transform="translate(-3.34 37.16) rotate(-78.84)"/>
      </g>
      <g>
        <ellipse class="cls-1" cx="62.85" cy="25.24" rx="12.12" ry="11.24" transform="translate(-1.57 4.32) rotate(-3.89)"/>
        <ellipse class="cls-2" cx="61.95" cy="25.33" rx="7.38" ry="7.58" transform="translate(24.52 80.81) rotate(-78.24)"/>
        <ellipse class="cls-3" cx="67.39" cy="20.61" rx="2.14" ry="2.19" transform="translate(34.13 82.74) rotate(-78.84)"/>
      </g>
      <path class="cls-4" d="M23.67,2.6C19.57,1.66,5.25,2.14,2,10.86c0,0,11.23-4.7,21.09-3.64C23.1,7.22,25.74,3.07,23.67,2.6Z"/>
      <path class="cls-4" d="M51.76,2.11C55.76.84,70.08.13,74,8.55c0,0-11.59-3.75-21.32-1.88C52.72,6.67,49.74,2.75,51.76,2.11Z"/>
    </g>
    <g>
      <path class="cls-5" d="M3.36,22.17S18.38,19,27,23c0,0-1.8-9.6-12.82-9.29C14.22,13.7,5.7,14.39,3.36,22.17Z"/>
      <path class="cls-5" d="M51.08,23s14.3-4.51,23.75,0c0,0-1.69-9.8-13.66-9.2C61.17,13.79,52.7,14.62,51.08,23Z"/>
    </g>
  </g>
</svg>
