<svg xmlns="http://www.w3.org/2000/svg" xmlns:xlink="http://www.w3.org/1999/xlink" width="333.45" height="431.23" viewBox="0 0 333.45 431.23">
  <defs>
    <style>
      .cls-1 {
        fill: #232423;
        opacity: 0.39;
      }

      .cls-2 {
        fill: #1572ba;
        stroke: #003049;
      }

      .cls-10, .cls-14, .cls-15, .cls-2, .cls-28, .cls-4, .cls-5, .cls-6, .cls-7, .cls-9 {
        stroke-miterlimit: 10;
      }

      .cls-3 {
        fill: #1568a4;
      }

      .cls-4 {
        fill: #ee2426;
        stroke: #722113;
      }

      .cls-4, .cls-9 {
        stroke-width: 0.75px;
      }

      .cls-21, .cls-28, .cls-5 {
        fill: #fff;
      }

      .cls-5, .cls-6, .cls-7 {
        stroke: #969696;
      }

      .cls-6 {
        fill: #cfcfce;
      }

      .cls-14, .cls-7 {
        fill: none;
      }

      .cls-8 {
        fill: #0c1b23;
      }

      .cls-15, .cls-19, .cls-9 {
        fill: #f9d1c7;
      }

      .cls-15, .cls-9 {
        stroke: #333232;
      }

      .cls-10 {
        fill: #fed93b;
      }

      .cls-10, .cls-14 {
        stroke: #5e4e1f;
      }

      .cls-11 {
        fill: #00b6c2;
      }

      .cls-12 {
        fill: #0d7878;
      }

      .cls-13 {
        fill: #0b2d2e;
        opacity: 0.22;
      }

      .cls-16, .cls-17 {
        fill: #dc9e8f;
      }

      .cls-16 {
        opacity: 0.63;
      }

      .cls-18 {
        fill: #352618;
      }

      .cls-20 {
        fill: #333232;
      }

      .cls-22 {
        fill: #dcdbdb;
      }

      .cls-23 {
        fill: #a0d3f2;
      }

      .cls-24 {
        fill: #f16140;
      }

      .cls-25 {
        fill: #344256;
      }

      .cls-26 {
        fill: #c54931;
      }

      .cls-27 {
        fill: #f4816b;
      }

      .cls-28 {
        stroke: #3e2f19;
        stroke-width: 0.5px;
      }

      .cls-29 {
        fill: #2e2b21;
      }

      .cls-30 {
        fill: #f2f0e9;
      }

      .cls-31 {
        fill: #f6978f;
      }

      .cls-32 {
        fill: #961e27;
      }

      .cls-33 {
        fill: url(#linear-gradient);
      }

      .cls-34 {
        fill: #d36754;
      }

      .cls-35 {
        fill: url(#linear-gradient-2);
      }
    </style>
    <linearGradient id="linear-gradient" x1="173.46" y1="139.78" x2="205.63" y2="139.78" gradientTransform="translate(23.3 -30.61) rotate(9.41)" gradientUnits="userSpaceOnUse">
      <stop offset="0" stop-color="#e8d9d7"/>
      <stop offset="0.4" stop-color="#efe5e4"/>
      <stop offset="1" stop-color="#fff"/>
    </linearGradient>
    <linearGradient id="linear-gradient-2" x1="181.94" y1="147.47" x2="203.86" y2="147.47" xlink:href="#linear-gradient"/>
  </defs>
  <g id="S">
    <g>
      <path class="cls-1" d="M51.65,398.18c-2.19,9.17,6.51,20.09,14.61,15.26l.34-.21c9.56-5.84,68.25-42.24,84.56-52.36a10.84,10.84,0,0,1,8.93-1.14l13.14,4.06c7.65,2,18.12,3,26,1.28a9.59,9.59,0,0,0,1.36-.4l7.22-2.6a10.85,10.85,0,0,1,11.79,3c10.17,11.43,33.29,37.92,41.93,51.86,11.22,18.1,48.71-12.36,41.4-26-1.09-2-35.81-26.71-37.88-27.71l-57.29-33.91c-.59-.29,23.27-23.77,11.41-10.17l-42.42,7a10.86,10.86,0,0,0-7.62.72l-48.63,23.82L58.9,382.51a10.86,10.86,0,0,0-5.57,7.12Z"/>
      <g>
        <path class="cls-2" d="M255,391s-29.19-37.53-42.94-53.16c-17.37-19.75,8.86-43.63,52.14-14,0,0,18.74,16.36,23.17,23.18Z"/>
        <path class="cls-3" d="M209.9,333.89a31,31,0,0,0,3.8,4.77C215.64,340.52,256,391,256,391l10.67-14.19s-39.77-26.87-24.41-55.48C242.23,321.28,213.13,307.54,209.9,333.89Z"/>
        <path class="cls-4" d="M302,336.36s-21-3.84-36.46,22.21-13.12,51-4.09,58.36S302,336.36,302,336.36Z"/>
        <path class="cls-5" d="M258.08,409.86s-5.28-19.08,13.63-48.56,32.69-25.89,40.73-24.58c11.52,1.87,18.74,14.7,14.14,30.71s-16.53,44.48-37.31,56.07S259.28,416.38,258.08,409.86Z"/>
        <path class="cls-6" d="M272.31,378.94s18.15-35.53,39.87-35.53,5.88,37.57,0,47.54S291,427,273.59,422.9,265.41,390.2,272.31,378.94Z"/>
        <g>
          <line class="cls-7" x1="323.27" y1="355.32" x2="302.04" y2="345.87"/>
          <line class="cls-7" x1="322.6" y1="363.08" x2="294.6" y2="350.6"/>
          <line class="cls-7" x1="286.02" y1="358.91" x2="319.76" y2="373.8"/>
          <line class="cls-7" x1="316.44" y1="382.37" x2="279.8" y2="366.84"/>
          <line class="cls-7" x1="311.14" y1="392.72" x2="273.5" y2="376.76"/>
          <line class="cls-7" x1="305.08" y1="402.24" x2="268.48" y2="386.59"/>
          <line class="cls-7" x1="298.12" y1="410.2" x2="265.42" y2="395.51"/>
          <line class="cls-7" x1="290.3" y1="418.44" x2="263.62" y2="405.52"/>
        </g>
      </g>
      <g>
        <path class="cls-8" d="M88.25,390.55s-9,3.93-17.62-16.38-8.35-26.72-8.35-26.72,16.32-4.91,20.18,1.22S94.36,382.08,88.25,390.55Z"/>
        <polygon class="cls-9" points="83.82 384.93 113.98 365.09 92.66 342.16 71.09 355.72 83.82 384.93"/>
        <path class="cls-2" d="M175.56,334.15,89.47,389s9.17-12.18-26-43.1l69.28-41.22S191.18,299.94,175.56,334.15Z"/>
        <path class="cls-4" d="M73.78,404.33s9.69-4.45,10.92-15.08-14.11-48.49-39.65-62.7S7.59,343.24,7.59,343.24Z"/>
        <path class="cls-5" d="M22.41,323.81s25.83,5.33,47.87,51.89c14.32,30.25,5.57,37.15-7,38.73-13,1.65-66.61-59.56-57.86-81C10,322.36,22.41,323.81,22.41,323.81Z"/>
        <path class="cls-6" d="M4.35,336.22s-4.52,15.73,23.17,48,34,30.47,35.79,30.2,7-12-8.86-38S12.24,318.81,4.35,336.22Z"/>
        <line class="cls-7" x1="15.37" y1="368.22" x2="39.03" y2="354.09"/>
        <line class="cls-7" x1="21.93" y1="376.89" x2="46.1" y2="363.63"/>
        <line class="cls-7" x1="28.29" y1="385.56" x2="51.82" y2="372.2"/>
        <line class="cls-7" x1="35.73" y1="393.49" x2="57.58" y2="381.88"/>
        <line class="cls-7" x1="42.48" y1="400.8" x2="61.6" y2="390.29"/>
        <line class="cls-7" x1="51.16" y1="407.9" x2="65" y2="401.44"/>
        <line class="cls-7" x1="10.39" y1="358.32" x2="31.53" y2="345.22"/>
        <line class="cls-7" x1="5.46" y1="347.8" x2="23" y2="337.02"/>
        <path class="cls-3" d="M91.59,387.68l85.1-53.53c.67-1.17,5.24-9.39,1.58-16.09-2.26-4.15-6.58-5.69-9.14-6.56-16.27-5.54-38.5,4.89-44.12,7.66.45,3.18,2.66,20.47-9.29,35.86-5.51,7.11-14.08,13.52-27.33,17.23C88.39,372.25,93.22,379.6,91.59,387.68Z"/>
      </g>
      <path class="cls-10" d="M243.58,268.79l3.27,50.57S204,340,132,311.47l-8.6,6.25A338.8,338.8,0,0,0,132.21,243l-8.11,8.79-5.9,6.39C113.33,233.2,98,220.71,98,220.71a22.36,22.36,0,0,0,6-5.67c6.56-8.81,21.84-25.61,26.34-29.33,6.61-5.44,41.6-13.52,41.6-13.52s43-11.7,76.59,20.2l22.7,37.67,7.43,10.05s-13,8.5-34.87,19.83Z"/>
      <g>
        <line class="cls-11" x1="247.47" y1="265.08" x2="247.12" y2="227.73"/>
        <polygon class="cls-12" points="246.47 265.09 247.12 227.74 248.47 265.07 246.47 265.09"/>
      </g>
      <path class="cls-13" d="M125.1,253.11l-6.21,6.64c-5.23-26-21-38.11-21-38.11s3.22-3.69,5.74-6.89C108.81,219.83,124.57,236.67,125.1,253.11Z"/>
      <line class="cls-14" x1="187.22" y1="191.93" x2="186.47" y2="270.72"/>
      <circle class="cls-14" cx="192.73" cy="219.08" r="2.66"/>
      <g>
        <path class="cls-15" d="M212.46,167.75a21.23,21.23,0,0,1-2.18,8.75,22.28,22.28,0,0,1-8.89,9.24c-2.92,1.69-3.16.94-6.14,2.73-5.09,3-6.48,5.14-8.78,6.08-3.35,1.37-9.06-4.32-9.94-5-10-7.61-11.51-15.84-11.82-22.06-.05-1.14-.05-1.8-.05-1.8-.15-2.39-4.93-14-1.74-19.05,2.66-4.2,15.8-.22,15.8-.22l26.9,0c.06,2.46,5.17,4,6.83,8.62,1.55,4.33-.36,11.78,0,12.55Z"/>
        <path class="cls-16" d="M210.82,168.32c-3.15,2.52-7.92,5.23-19.62,6.07a42.54,42.54,0,0,1-26.49-6.9c-.05-1.14-.05-1.8-.05-1.8-.62-1-5.48-11.18-2.28-16.22,10.76-4.2,35.61-1.83,35.61-1.83l14.16,9.94C213.7,161.91,210.51,167.55,210.82,168.32Z"/>
      </g>
      <g>
        <path class="cls-9" d="M250.47,114.87c-3.77,8.95-12.22,13-19.33,10s-4.75-8-1-16.93,4-8,10.79-11.61C255.83,88.29,254.23,105.92,250.47,114.87Z"/>
        <path class="cls-17" d="M243.71,100a3.65,3.65,0,0,1,3.27.15c1.27.84,1.52,2.6,1.47,4.12a24.93,24.93,0,0,1-5.93,14.62,6,6,0,0,1-1.92,1.73,2.36,2.36,0,0,1-2.47-.11,2.69,2.69,0,0,1-.68-2.7c.52-2.42,2.63-4.11,4.33-5.91a4.94,4.94,0,0,0,1.13-1.67,1.89,1.89,0,0,0-.33-1.89,2.41,2.41,0,0,0-1.45-.58,13.33,13.33,0,0,0-3.22.13c-.54-1.58.71-3.15,1.58-4.32A9.68,9.68,0,0,1,243.71,100Z"/>
      </g>
      <g>
        <path class="cls-9" d="M123.61,124.42c4.41,8.33,12.08,11.14,17.66,7.19s2.89-8.55-1.52-16.89-4.47-7.31-10.7-10C115.41,98.86,119.2,116.08,123.61,124.42Z"/>
        <path class="cls-17" d="M127.23,108.72a2.74,2.74,0,0,0-2.74.6c-.95,1-.91,2.78-.66,4.28a26.81,26.81,0,0,0,7,13.65,5.41,5.41,0,0,0,1.86,1.44,1.76,1.76,0,0,0,2.06-.45,3.1,3.1,0,0,0,.21-2.77c-.78-2.32-2.79-3.7-4.48-5.25a4.81,4.81,0,0,1-1.18-1.49,2.13,2.13,0,0,1,0-1.92,2.05,2.05,0,0,1,1.14-.78,9.7,9.7,0,0,1,2.73-.31c.23-1.64-1-3-1.93-4.06A8.52,8.52,0,0,0,127.23,108.72Z"/>
      </g>
      <g>
        <path class="cls-9" d="M240.08,80.24c-1.29-32.32-20-52.48-56.64-50.15-35.55,2.26-55.05,22-53.76,54.31.6,14.94,5.73,40.5,5.73,41.31,0,29.07,36.55,45.71,57.58,43.37,14.93-1.66,47.15-25.17,45.1-49.89C238,118.38,240.68,95.18,240.08,80.24Z"/>
        <path class="cls-17" d="M148.62,68.26s10.5,10.06,50.42,7.62l-1.48-5.46S203.51,76,227,78.82l12,29-7.06-59.69L147.21,46l-12,14.37,1.73,16.47s-5.78,26.58-3.66,37.71l5.77-20.39S149.4,98.92,148.62,68.26Z"/>
      </g>
      <path class="cls-18" d="M147,59.69s-3.23,13.13,50.42,13.18c0,0-1.43-.58-6.94-13.24,7.11,15.58,26.73,13.82,37.11,16.56l-2.46-15.1L239,107.85s3.48-11.17,4.47-17.3c0,0,1.43-15.65-1.84-26.44a18.63,18.63,0,0,1,4.27,8.13s2.21-29-20.47-47.39c0,0,3.9.81,12.35,4.58,0,0-16.46-24.9-48.08-24.47-16.54.22-40.14,4.92-46.61,21.9,0,0-15.43-6.28-22.82,19.71,0,0,5.74-9.07,13-9.44,0,0-10.23,3.83-12.83,28.46-2.45,23.26,4.21,35.81,12.69,51.55,0,0,1.59-20,5.73-34.33L140,91.52S147.11,92.07,147,59.69Z"/>
      <g>
        <path class="cls-19" d="M178.47,121.3a17.24,17.24,0,0,0,7.27,3.61c4.11.78,9.59-4.88,9.59-4.88"/>
        <path class="cls-20" d="M178.47,121.3a22.84,22.84,0,0,0,4.19,2.3,16.83,16.83,0,0,0,2.24.75,5.62,5.62,0,0,0,2.25.21,11.46,11.46,0,0,0,4.29-1.72,33.93,33.93,0,0,0,3.89-2.81,18.61,18.61,0,0,1-3.57,3.29,10.43,10.43,0,0,1-4.53,2,6.24,6.24,0,0,1-2.52-.28,12.56,12.56,0,0,1-2.29-.91A14.6,14.6,0,0,1,178.47,121.3Z"/>
      </g>
      <g>
        <g>
          <path class="cls-21" d="M115.19,311.74c-8.33-14.71-4-28-13.14-42.14-2.35-3.61-5.62-33.2-8.31-50,20.36-5.28,64.68-2.85,88,37.62,0,.38-11.5,52.61-12.51,58.09a66,66,0,0,0-24.95-7.46A64,64,0,0,0,115.19,311.74Z"/>
          <path class="cls-22" d="M169.31,315.58l-.13-.07a65.74,65.74,0,0,0-24.92-7.46,64.23,64.23,0,0,0-29,3.88c-4-7.12-5.24-14-6.29-20.68-1.15-7.32-2.24-14.24-7-21.51-1.65-2.54-3.72-17.51-5.73-32-.92-6.64-2.65-18.29-2.65-18.29l.13,0c9.76-2.53,26.16-3.42,42.94,1.65a77.13,77.13,0,0,1,45.17,36c0,.18-.69,3.75-4.64,21.87C173.94,293.8,169.31,315.58,169.31,315.58Zm-31.57-8.21q3.25,0,6.54.29a65.92,65.92,0,0,1,24.85,7.41c.7-3.62,12.28-56.75,12.46-57.79-22.16-38.37-64.51-43.46-87.7-37.51.83,5.16,1.69,11.35,2.59,17.91,2,14.42,4.07,29.33,5.66,31.79,4.79,7.35,5.94,14.65,7,21.7,1,6.56,2.1,13.34,6,20.35A63.69,63.69,0,0,1,137.74,307.37Z"/>
        </g>
        <g>
          <path class="cls-21" d="M102.57,282.49c-.41-.95-11.6-44-13.25-52,19.83-11.21,65.77-9.49,92.41,26.75,0,.38-11.5,52.61-12.51,58.09C161.8,311.36,112.82,289.05,102.57,282.49Z"/>
          <path class="cls-22" d="M169.31,315.58l-.13-.07c-2.53-1.35-9.75-4.77-18.9-9.1-17.3-8.2-41-19.41-47.76-23.74-.36-.84-11.56-43.57-13.32-52.14l0-.17.12-.06c10.73-6.07,27.48-7.77,43.71-4.43a79.67,79.67,0,0,1,48.83,31.22c0,.18-.69,3.75-4.64,21.87C173.94,293.8,169.31,315.58,169.31,315.58Zm-66.65-33.24c6.8,4.34,30.43,15.52,47.7,23.7,9,4.26,16.13,7.64,18.77,9,.7-3.62,12.26-56.67,12.46-57.79a79.46,79.46,0,0,0-48.63-31c-16.13-3.31-32.77-1.65-43.48,4.35C91.32,239.43,102.05,280.54,102.66,282.34Z"/>
        </g>
        <path class="cls-23" d="M87.31,244.43a26.26,26.26,0,0,1,1.81-2c33.27-9.33,62.24-.7,80.88,14.74.72,5.94,3.79,67.72,2.58,75.41C146,323.9,111.06,238.73,87.31,244.43Z"/>
        <path class="cls-24" d="M107.37,327.66c-5.32-23.69-14.54-57.6-20.06-83.23a86.48,86.48,0,0,1,82.38,14.49c.71,5.77,5,66.31,3.79,73.78C146.9,324.24,131.13,322.12,107.37,327.66Z"/>
        <g>
          <path class="cls-21" d="M256.81,311.48c2.4-10.7,1.76-85.31,4-102.12-18.38-4.74-70.53,7.85-79,48.3,0,.39,15,52.06,16.22,57.54C205.26,311.16,248,308.17,256.81,311.48Z"/>
          <path class="cls-22" d="M197.87,315.45l0-.2c-.75-3.52-7.42-26.74-11.83-42.11-3.78-13.16-4.39-15.33-4.39-15.49A52.75,52.75,0,0,1,195,232.22a72.05,72.05,0,0,1,22.49-15.84c16.7-7.76,34.41-9.5,43.28-7.21l.14,0,0,.2c-1.06,8.07-1.47,29.8-1.86,50.81-.44,23.53-.86,45.75-2.11,51.34l0,.16-.11,0c-8.42-3.15-51.27-.44-58.78,3.71Zm-16-57.75c.1.43,15.23,53.15,16.16,57.25,4-2.1,17.28-3.8,28.76-4.56,10.75-.71,25-.9,29.93.86,1.21-5.81,1.65-28.81,2.06-51.06.39-20.85.8-42.42,1.84-50.67-8.87-2.23-26.45-.47-43,7.23C198.23,225.74,185.55,240.29,181.87,257.7Z"/>
        </g>
        <g>
          <path class="cls-21" d="M256.81,311.48c2.4-10.7,9.63-76.29,11.84-93.1-20.52-5.11-67.82-.61-86.91,39.28,0,.39,15,52.06,16.22,57.54C205.26,311.16,248,308.17,256.81,311.48Z"/>
          <path class="cls-22" d="M197.87,315.45l0-.2c-.75-3.52-7.42-26.74-11.83-42.11-3.78-13.16-4.39-15.33-4.39-15.49,10.58-22.1,29.24-32.2,43-36.69,17.62-5.76,34.74-5.09,44-2.78l.13,0s-1.86,15.13-3.19,26.46c-3,25.08-7,59.43-8.68,66.87l0,.16-.11,0c-8.42-3.15-51.27-.44-58.78,3.71Zm-16-57.75c.16.63,15.23,53.15,16.16,57.25,4-2.1,17.28-3.8,28.76-4.56,10.75-.71,25-.9,29.93.86,1.68-7.73,5.7-41.76,8.64-66.65,1.32-11.18,2.46-20.85,3.14-26.07C249.37,213.85,201.3,217.21,181.87,257.7Z"/>
        </g>
        <g>
          <path class="cls-21" d="M270,280c.38-.95,3.11-43,3.84-50.72-18.94-9.19-67.37-5.83-92.49,28.87,0,.38,15.42,51.54,16.6,57C205.26,311.16,260,286.69,270,280Z"/>
          <path class="cls-22" d="M197.87,315.45l0-.2c-.76-3.58-7.72-27-12.32-42.5-3.72-12.52-4.28-14.43-4.27-14.59,11.08-15.31,28.39-26.43,48.66-31.06,16.43-3.76,33.7-3,44,2,0,0-.92,13.32-1.64,23.63-1.18,16.67-1.91,26.84-2.13,27.38-6.43,4.25-31.66,16.1-50.05,24.69-10.43,4.88-19.44,9.1-22.07,10.55Zm-16.36-57.2c.18.7,15.57,52.52,16.52,56.7,2.78-1.51,11.26-5.48,22-10.49,18.33-8.57,43.42-20.3,49.91-24.58.24-1.12,1.22-14.94,2.08-27.17.72-10.15,1.4-19.75,1.72-23.27-10.26-4.92-27.43-5.7-43.77-2C209.75,232.1,192.56,243,181.51,258.25Z"/>
        </g>
        <path class="cls-25" d="M195.82,258.84c0,1.18-5.47,3.56-12.87,3.59s-13.44-2.35-13.26-3.51c.12-.82,5.88-2.84,13.28-2.87S195.81,258.18,195.82,258.84Z"/>
        <path class="cls-23" d="M170,266.54c-.05-3.69-.28-7.16-.3-9.62,9.81,2.7,17.24,2.88,26.15.16.14,1.63-.6,8.67-.42,10.61C189,270.84,175.3,271.89,170,266.54Z"/>
        <path class="cls-26" d="M173.48,332.7c-.79-20.12-2.9-49.32-3.79-73.78,9.72,2,17.22,2.56,26.13-.08.68,5.26,3.24,66.28,4.08,74C193.52,335.84,178.81,337.89,173.48,332.7Z"/>
        <path class="cls-23" d="M278.2,240.84c-.07-.3-.3-1.08-.57-1.84-26.88-6.37-63.62,2.49-81.81,18.08-.46,5.5,1.26,11.27,2,19.13C229.44,268.8,269.22,240.5,278.2,240.84Z"/>
        <path class="cls-24" d="M264.89,330.74c4-26.27,11-64.27,14.81-90-26.88-6.18-65.68,3-83.88,18.14.23,5.27-1.41,68-.72,75.62C226.78,327.26,256,327.43,264.89,330.74Z"/>
      </g>
      <circle class="cls-27" cx="232.78" cy="288.12" r="28.08"/>
      <g>
        <path class="cls-21" d="M215.49,283.52a4.83,4.83,0,0,0,2.08-.26c1-.39,1.36-1,1.16-1.59s-.76-.81-2-.73c-1.63.12-2.62-.22-3-1-.47-1.09.26-2.5,2.15-3.21a5.1,5.1,0,0,1,2.32-.34c0,.42-.05.64-.09,1.06a4,4,0,0,0-1.91.24c-.93.35-1.28,1-1.07,1.5s.83.6,2,.55c1.62-.08,2.55.31,2.89,1.36.4,1.24-.39,2.43-2.22,3.13a5.84,5.84,0,0,1-2.34.41C215.52,284.17,215.51,284,215.49,283.52Z"/>
        <path class="cls-21" d="M221.88,272.79c.11.44-.2.91-.87,1.1a.94.94,0,0,1-1.23-.51c-.13-.46.21-.95.84-1.12A.93.93,0,0,1,221.88,272.79Zm.71,9.71-2-7.17c.65-.19,1-.28,1.64-.45.73,2.9,1.1,4.34,1.83,7.24C223.45,282.26,223.16,282.34,222.59,282.5Z"/>
        <path class="cls-21" d="M232.87,273.07c0,.55,0,1.17.07,2.09.13,1.76.2,2.64.32,4.4s-.18,2.82-.86,3.54a4.54,4.54,0,0,1-2.68,1.22,5.87,5.87,0,0,1-2.65-.19l.15-1.09a5.12,5.12,0,0,0,2.38.21,2.38,2.38,0,0,0,2.25-2.93l-.08-.84h0a3.14,3.14,0,0,1-2.45,1.58,3.67,3.67,0,0,1-4.2-3,3.82,3.82,0,0,1,3.3-4.67,3,3,0,0,1,3,.93h0c0-.45,0-.68,0-1.14Zm-1.45,3.14a1.66,1.66,0,0,0-.15-.61,2.25,2.25,0,0,0-2.46-1.15,2.57,2.57,0,0,0-2.17,3.25,2.52,2.52,0,0,0,2.93,2.26,2.28,2.28,0,0,0,1.94-1.65,2.33,2.33,0,0,0,.05-.74C231.5,277,231.48,276.75,231.42,276.21Z"/>
        <path class="cls-21" d="M235.51,269.36c.71,0,1.07,0,1.79-.05v4.77h0a3,3,0,0,1,1.21-1,4.11,4.11,0,0,1,1.75-.35,3,3,0,0,1,2.93,3.51c-.18,1.83-.27,2.74-.46,4.57l-1.48-.14c.13-1.76.19-2.64.32-4.41.09-1.24-.38-2.34-1.95-2.39a2.3,2.3,0,0,0-2.24,1.36,1.47,1.47,0,0,0-.12.66v4.62h-1.48Z"/>
        <path class="cls-21" d="M248.64,271.57l-.39,2.2c1,.17,1.45.26,2.41.47l-.24,1.05c-.94-.2-1.41-.29-2.36-.46l-.74,4.13c-.17,1,0,1.53.86,1.71a4.3,4.3,0,0,0,.89.09c-.07.42-.1.63-.16,1.05a3.89,3.89,0,0,1-1.34-.09,2.31,2.31,0,0,1-1.49-.87,2.85,2.85,0,0,1-.27-2.09c.25-1.68.38-2.51.63-4.19l-1.42-.19.14-1.06,1.44.19c.11-.73.17-1.1.28-1.84C247.58,271.62,247.93,271.6,248.64,271.57Z"/>
      </g>
      <g>
        <path class="cls-21" d="M212.7,297.09c1,1.24,1.48,1.87,2.43,3.14.53.7,1,1.35,1.41,2l.05,0a24.33,24.33,0,0,1-.12-2.47c0-1.63,0-2.45.08-4.09l1.27-.41c1,1.27,1.44,1.92,2.36,3.22a24.31,24.31,0,0,1,1.37,2.18h0a17.43,17.43,0,0,1,0-2.53c.06-1.59.11-2.39.22-4,.62-.16.92-.23,1.54-.37-.44,3.21-.59,4.82-.79,8-.5.13-.75.19-1.25.34-.86-1.26-1.31-1.88-2.22-3.1-.53-.72-1-1.36-1.46-2.14l0,0a22.82,22.82,0,0,1,.05,2.6c-.05,1.53-.07,2.29-.06,3.8l-1.23.44c-2-2.47-3-3.67-5.14-6C211.78,297.46,212.09,297.34,212.7,297.09Z"/>
        <path class="cls-21" d="M232.87,296a3.92,3.92,0,0,1-3.48,4.52,4,4,0,1,1-1.07-7.92A3.69,3.69,0,0,1,232.87,296Zm-6.5,1a2.72,2.72,0,0,0,2.93,2.48c1.36-.2,2.24-1.55,2-3.27a2.61,2.61,0,0,0-2.9-2.58C226.61,293.93,226.1,295.59,226.37,297Z"/>
        <path class="cls-21" d="M234.68,294.48c-.06-.91-.12-1.68-.23-2.4l1.39-.08c0,.6.08.91.13,1.51H236a2.5,2.5,0,0,1,2.35-1.77,1.57,1.57,0,0,1,.45,0v1.33a2.16,2.16,0,0,0-.53,0,2.05,2.05,0,0,0-2,1.86,3.44,3.44,0,0,0,0,.66c.07,1.65.1,2.47.17,4.12l-1.4.06C234.88,297.66,234.82,296.6,234.68,294.48Z"/>
        <path class="cls-21" d="M248.26,288.74c-.46,3.77-.68,5.65-1.14,9.42-.08.69-.16,1.48-.17,2-.51-.07-.77-.1-1.28-.15,0-.54.05-.82.08-1.36h0a3,3,0,0,1-2.8,1.3c-1.89-.12-3.32-1.72-3.31-4.07a3.78,3.78,0,0,1,4-4.06,2.86,2.86,0,0,1,2.53,1.39h0l.45-4.66Zm-2.34,6.65a3.12,3.12,0,0,0,0-.61A2.19,2.19,0,0,0,243.8,293c-1.63-.1-2.63,1.17-2.68,2.89,0,1.57.71,2.89,2.26,3a2.22,2.22,0,0,0,2.28-1.51,2.65,2.65,0,0,0,.13-.6C245.84,296.2,245.86,295.93,245.92,295.39Z"/>
        <path class="cls-21" d="M249.26,299a4.12,4.12,0,0,0,1.8.9c1,.19,1.62-.21,1.76-.85s-.2-1.14-1.22-1.72c-1.36-.78-2-1.64-1.83-2.57.19-1.26,1.49-2.14,3.36-1.78a4.53,4.53,0,0,1,2,.92c-.24.38-.37.56-.61.94a3.41,3.41,0,0,0-1.65-.81c-.92-.17-1.52.22-1.62.8s.34,1,1.34,1.61c1.34.8,1.9,1.65,1.63,2.8-.31,1.35-1.57,2-3.41,1.69a4.91,4.91,0,0,1-2.09-.9Z"/>
      </g>
      <g>
        <path class="cls-9" d="M89.91,281.94s2.37,6.2,7.87,9.2,11.31,2.36,7-4.18l-4.09-2.89Z"/>
        <path class="cls-9" d="M84.49,263.44S82.28,277.1,99.85,276.3c9-1,17.92-8.46,8.64-12.13C102,266.28,92.28,269.16,84.49,263.44Z"/>
        <path class="cls-9" d="M85.57,270.72s.78,17,15.13,13.35c5.58-1.29,12.36-5.67,7.79-10.76C104.28,275.29,92.72,278.79,85.57,270.72Z"/>
        <path class="cls-9" d="M88.33,248.34s-.89,9.73,6.34,8.27c9.39-1.9,17.53-1.2,13.82,7.56-9.58,2.38-15.78,5.64-24-.73C79.7,253.86,85.66,249.63,88.33,248.34Z"/>
      </g>
      <g>
        <path class="cls-9" d="M277.63,239s.91,6.46.15,9.09c-.72,2.47-9.77,1.79-11.41,2.24s-7.43,5.34-2,6.92c6.44,1.57,19.54,1.61,21.67-3.28S286.61,241.64,277.63,239Z"/>
        <path class="cls-9" d="M264.41,257.25s-9.42,2.13-2.3,8.12c7.77,4.7,21.52.67,24-2.14s3-8.32,0-9.26S279.76,260,264.41,257.25Z"/>
        <path class="cls-9" d="M264.87,266.85s-5.27,9.88,7.26,9.12c11.25-2.69,13.95-3.47,13.95-12.74C283.67,264.85,274.41,269.23,264.87,266.85Z"/>
        <path class="cls-9" d="M283.35,272.05,272.13,276s-4.53,4.62-4.51,6.59,3.58,6.33,10.32.94C283.06,278.11,284.09,275.65,283.35,272.05Z"/>
      </g>
      <path class="cls-10" d="M211.24,167s7.6,7.54-21.75,25c-1.9,5-2.17,2-2.17,2s12.41-4.94,23.92,9c8.55-6,19.46-35.31,1.8-42.52C211.89,160.89,211.24,167,211.24,167Z"/>
      <path class="cls-10" d="M164.34,164.14s2.34,24.89,23,30.72c-7-2.93-17.57.52-25.32,11.37-9.74-20.68-6.65-29.66-5.56-32.79S159.29,163.22,164.34,164.14Z"/>
    </g>
  </g>
  <g id="eye_01">
    <g>
      <g>
        <ellipse class="cls-28" cx="163.5" cy="107.18" rx="12.12" ry="11.24" transform="translate(-6.89 11.33) rotate(-3.89)"/>
        <ellipse class="cls-29" cx="164.7" cy="107.39" rx="7.38" ry="7.58" transform="translate(25.98 246.74) rotate(-78.24)"/>
        <ellipse class="cls-30" cx="169.38" cy="102.56" rx="2.14" ry="2.19" transform="translate(35.99 248.89) rotate(-78.84)"/>
      </g>
      <g>
        <ellipse class="cls-28" cx="211.3" cy="107.18" rx="12.12" ry="11.24" transform="translate(-6.78 14.57) rotate(-3.89)"/>
        <ellipse class="cls-29" cx="210.39" cy="107.27" rx="7.38" ry="7.58" transform="translate(62.49 291.38) rotate(-78.24)"/>
        <ellipse class="cls-30" cx="215.84" cy="102.56" rx="2.14" ry="2.19" transform="translate(73.46 294.48) rotate(-78.84)"/>
      </g>
      <path class="cls-18" d="M172.11,84.54c-4.09-.93-18.41-.45-21.65,8.26,0,0,11.23-4.7,21.08-3.63C171.54,89.17,174.19,85,172.11,84.54Z"/>
      <path class="cls-18" d="M200.21,84.05c4-1.27,18.31-2,22.28,6.44,0,0-11.6-3.75-21.32-1.88C201.17,88.61,198.18,84.7,200.21,84.05Z"/>
    </g>
  </g>
  <g id="EE">
    <g>
      <g>
        <path class="cls-31" d="M164.21,133.39S171,151.87,187,152.56c17.93.78,22.39-20.84,22.39-20.84S195.71,145.15,164.21,133.39Z"/>
        <path class="cls-32" d="M165.1,133.65s12.11,18.17,25.62,16.83c10.86-1.07,18.69-18.76,18.69-18.76S195.26,145,165.1,133.65Z"/>
        <path class="cls-33" d="M171.56,135.75s-.62,8.54,18.83,7.25c0,0,15.08-1.27,13.54-7.56C203.93,135.44,191.4,141.38,171.56,135.75Z"/>
        <path class="cls-31" d="M164.38,133.29a4.43,4.43,0,0,0,.59.39c13.35,7.46,32.43,10.37,45.08-2.57,0,0-5.84,5.45-18.58,6.42S164.38,133.29,164.38,133.29Z"/>
        <path class="cls-34" d="M181.94,146.68a8.85,8.85,0,0,1,7.05-1.24s3.28-2.16,8.76.55A13.59,13.59,0,0,1,181.94,146.68Z"/>
      </g>
      <path class="cls-35" d="M178.32,146.87s1.34-1.3,2-1.36,4.48,2.72,9.9,1.89c7-1.07,8.27-4.23,9.16-3.91a4.55,4.55,0,0,1,1.58,1.11,15.23,15.23,0,0,1-10.7,5.92A16.28,16.28,0,0,1,178.32,146.87Z"/>
    </g>
    <path class="cls-17" d="M164.84,128.48s.07,5.67-2.15,6.42,0-1.9.52-2.91C163.49,131.44,164.84,128.48,164.84,128.48Z"/>
    <path class="cls-17" d="M209.61,128.05c-.51,7.35,5.91,8.33,1.66,3.56A32,32,0,0,1,209.61,128.05Z"/>
  </g>
</svg>
